<svg xmlns="http://www.w3.org/2000/svg" viewBox="0 0 2124.84 1547.99"><defs><style>.cls-1{fill:#cdc6a8;}.cls-10,.cls-11,.cls-12,.cls-14,.cls-2,.cls-4,.cls-8{fill:#84733e;}.cls-13,.cls-2{fill-opacity:0.57;}.cls-15,.cls-3,.cls-5,.cls-9{fill:#845834;}.cls-3{fill-opacity:0.53;}.cls-4{fill-opacity:0.36;}.cls-5{fill-opacity:0.81;}.cls-13,.cls-6,.cls-7{fill:#b5ac8a;}.cls-7{fill-opacity:0.55;}.cls-8{opacity:0.7;}.cls-9{fill-opacity:0.54;}.cls-10{fill-opacity:0.49;}.cls-11{opacity:0.57;}.cls-14{fill-opacity:0.64;}.cls-15{fill-opacity:0.75;}.cls-16{fill:#a59f89;}</style></defs><title>background</title><g id="Layer_2" data-name="Layer 2"><g id="background"><g id="background-2" data-name="background"><rect id="wall" class="cls-1" x="152.3" width="1800" height="1233.72"/><rect class="cls-2" x="194.3" y="281.99" width="137.5" height="44" rx="12" ry="12"/><rect class="cls-3" x="335.3" y="395.99" width="137.5" height="44" rx="12" ry="12"/><rect class="cls-4" x="574.3" y="269.99" width="137.5" height="44" rx="12" ry="12"/><rect class="cls-5" x="389.8" y="178.99" width="137.5" height="44" rx="12" ry="12"/><rect class="cls-6" x="219.8" y="91.99" width="137.5" height="44" rx="12" ry="12"/><rect class="cls-6" x="840.3" y="269.99" width="137.5" height="44" rx="12" ry="12"/><rect class="cls-3" x="989.3" y="169.99" width="125.5" height="44" rx="12" ry="12"/><rect class="cls-7" x="1223.3" y="281.99" width="137.5" height="44" rx="12" ry="12"/><rect class="cls-8" x="932.3" y="373.99" width="137.5" height="44" rx="12" ry="12"/><rect class="cls-9" x="1518.3" y="416.99" width="137.5" height="44" rx="12" ry="12"/><rect class="cls-6" x="580.3" y="103.99" width="125" height="40.15" rx="12" ry="12"/><rect class="cls-10" x="1469.3" y="677.99" width="137.5" height="44" rx="12" ry="12"/><rect class="cls-11" x="1595.3" y="781.99" width="137.5" height="44" rx="12" ry="12"/><rect class="cls-3" x="1779.3" y="356.99" width="137.5" height="44" rx="12" ry="12"/><rect class="cls-6" x="839.8" y="91.99" width="137.5" height="44" rx="12" ry="12"/><rect class="cls-12" x="619.3" y="424.99" width="137.5" height="44" rx="12" ry="12"/><rect class="cls-3" x="1188.3" y="781.99" width="137.5" height="44" rx="12" ry="12"/><rect class="cls-6" x="184.3" y="881.99" width="137.5" height="44" rx="12" ry="12"/><rect class="cls-13" x="355.8" y="781.99" width="137.5" height="44" rx="12" ry="12"/><rect class="cls-14" x="651.3" y="1055.99" width="137.5" height="44" rx="12" ry="12"/><rect class="cls-4" x="1236.3" y="89.99" width="137.5" height="44" rx="12" ry="12"/><rect class="cls-6" x="992.3" y="881.99" width="137.5" height="44" rx="12" ry="12"/><rect class="cls-15" x="1189.3" y="416.99" width="137.5" height="44" rx="12" ry="12"/><rect class="cls-6" x="1805.3" y="881.99" width="137.5" height="44" rx="12" ry="12"/><rect class="cls-6" x="194.3" y="953.99" width="137.5" height="44" rx="12" ry="12"/><rect class="cls-6" x="266.8" y="1015.99" width="137.5" height="44" rx="12" ry="12"/><rect class="cls-6" x="784.3" y="781.99" width="137.5" height="44" rx="12" ry="12"/><rect class="cls-6" x="1002.3" y="953.99" width="137.5" height="44" rx="12" ry="12"/><rect class="cls-6" x="1098.3" y="1082.99" width="137.5" height="44" rx="12" ry="12"/><rect class="cls-6" x="1488.3" y="953.99" width="137.5" height="44" rx="12" ry="12"/><rect class="cls-12" x="1693.3" y="1064.99" width="109.5" height="37" rx="12" ry="12"/><rect class="cls-6" x="1815.3" y="953.99" width="137.5" height="44" rx="12" ry="12"/><rect class="cls-6" x="1439.3" y="135.99" width="125.5" height="44" rx="12" ry="12"/><rect class="cls-12" x="1755.3" y="143.99" width="125.5" height="44" rx="12" ry="12"/><g id="ground"><polygon class="cls-16" points="0 1547.99 2124.84 1547.99 1957.3 1175.99 157.3 1175.99 0 1547.99"/></g></g></g></g></svg>