<svg xmlns="http://www.w3.org/2000/svg" viewBox="0 0 908 1087.39"><defs><style>.cls-1{fill:#0d6f40;}.cls-2{fill:#3c423f;}.cls-3{fill:#0f5b35;}.cls-4{fill:#fff;}.cls-5{fill:#dee1df;}.cls-6{fill:#8cc63f;}.cls-7{fill:#75a929;}.cls-8{stroke:#000;stroke-miterlimit:10;}</style></defs><title>bad</title><g id="Layer_2" data-name="Layer 2"><g id="result"><rect class="cls-1" x="10" y="72.6" width="888" height="1004.79"/><path class="cls-2" d="M888,82.61v984.78H20V82.61H888m20-20H0V1087.39H908V62.61Z"/><g id="shade"><path class="cls-3" d="M20,77v994H888V77Zm848.88,974.6H39.12V96.4H868.88Z"/></g><rect class="cls-4" x="205" y="5" width="498" height="130"/><path class="cls-2" d="M698,10V130H210V10H698M708,0H200V140H708V0Z"/><path id="shade-2" data-name="shade" class="cls-5" d="M210,10V130H698V10ZM691,123H217V17H691Z"/><path d="M355.79,93.12h-3.24a.89.89,0,0,1-1-1V47.83a.89.89,0,0,1,1-1h16.56A10.66,10.66,0,0,1,377,49.67a10.47,10.47,0,0,1,2.88,7.81V64a10.93,10.93,0,0,1-1.94,6.66,9.27,9.27,0,0,1-5.4,3.49v.29L380.85,92c.43.76.19,1.15-.72,1.15h-3.24a1.93,1.93,0,0,1-1.8-1L367,74.69h-9.51c-.48,0-.72.21-.72.64V92.11A.89.89,0,0,1,355.79,93.12Zm1.73-22.83h10.87q6.19,0,6.2-6.19V57.69q0-6.25-6.2-6.26H357.52c-.48,0-.72.22-.72.65V69.65C356.8,70.08,357,70.29,357.52,70.29Z"/><path d="M413.83,93.12H391.22a.89.89,0,0,1-1-1V47.83a.89.89,0,0,1,1-1h22.61a.89.89,0,0,1,1,1v2.59a.89.89,0,0,1-1,1H396.19c-.48,0-.72.22-.72.65V66.62c0,.43.24.65.72.65h15.4a.9.9,0,0,1,1,1v2.59a.9.9,0,0,1-1,1h-15.4c-.48,0-.72.21-.72.65V87.86c0,.43.24.65.72.65h17.64a.89.89,0,0,1,1,1v2.59A.89.89,0,0,1,413.83,93.12Z"/><path d="M424.26,82.46v-2.3a.9.9,0,0,1,1-1h3.24a.9.9,0,0,1,1,1V82q0,6.48,6.41,6.48h6.33q6.42,0,6.41-6.62V79.44q0-5.19-8.56-6.77c-2.41-.43-4.81-.94-7.2-1.51a12.7,12.7,0,0,1-6.12-3.35,9.08,9.08,0,0,1-2.53-6.8V57.48a9.85,9.85,0,0,1,10.66-10.66h8a9.89,9.89,0,0,1,10.66,10.66v1.8c0,.72-.31,1.08-.94,1.08h-3.31c-.62,0-.94-.36-.94-1.08V58q0-6.55-6.4-6.55h-6.12q-6.42,0-6.41,6.84v2.88q0,3.68,4.82,5c1.44.38,3,.73,4.76,1s3.46.72,5.22,1.23A26.14,26.14,0,0,1,449,70.33a8.6,8.6,0,0,1,3.5,3.38,10.81,10.81,0,0,1,1.33,5.51v3.24A10.47,10.47,0,0,1,451,90.27a10.59,10.59,0,0,1-7.78,2.85h-8.28a10.55,10.55,0,0,1-7.77-2.85A10.44,10.44,0,0,1,424.26,82.46Z"/><path d="M489.35,46.82h3.24c.67,0,1,.31,1,.94v34.7q0,5-2.81,7.85A10.5,10.5,0,0,1,483,93.12h-8a10.65,10.65,0,0,1-7.81-2.81q-2.83-2.81-2.84-7.85V47.83a.89.89,0,0,1,1-1h3.24a.89.89,0,0,1,1,1V82.25q0,6.25,6,6.26h6.77q6,0,6.05-6.26V47.83C488.42,47.16,488.73,46.82,489.35,46.82Z"/><path d="M528.73,93.12H505.62a.89.89,0,0,1-1-1V47.83a.89.89,0,0,1,1-1h3.24a.9.9,0,0,1,1,1V87.72c0,.43.24.65.72.65h18.14c.68,0,1,.36,1,1.08v2.66A.89.89,0,0,1,528.73,93.12Z"/><path d="M548.39,93.12h-3.24a.9.9,0,0,1-1-1v-40c0-.43-.24-.65-.72-.65h-9.79c-.72,0-1.08-.34-1.08-1V47.83c0-.67.36-1,1.08-1h26.28c.72,0,1.08.34,1.08,1v2.59c0,.67-.36,1-1.08,1h-9.79c-.48,0-.72.22-.72.65v40A.9.9,0,0,1,548.39,93.12Z"/><path id="body" class="cls-6" d="M470.44,634.23s-32.68-195.06,21.4-194.91c50.82.14,37,75.59,37,75.59l-40.91-3.67,64.16,77.26,76.33-64.66-39.52-3.55c2.55-44.84-5.39-116.83-110.58-115.26-91.15,1.35-126.63,118.62-132,228.72L331.82,866.52h36.36l40.31-78.06,39.74,78.06h36.82Z"/><polygon id="shade_pants" data-name="shade pants" class="cls-7" points="368.18 866.52 408.49 788.46 448.23 866.52 407.91 769.79 368.18 866.52"/><path id="left_arm" data-name="left arm" class="cls-6" d="M468.08,667.28s55.43,6,59,19.33c2.93,11-50.54,33-56.86,54.61-3.48,11.92,11.58,13.42,23.32,14.35,7.16.57,19.55-10.08,17.9-13.85-1.74-4-7.9-4.41-16.93-4.16-4.81.13-6.68,4-9,7.58-1.2-9.45,61.22-46.35,61.44-58.53.24-13-73.54-49.11-80.32-52.8"/><path id="right_arm" data-name="right arm" class="cls-6" d="M350.83,632.46S279.35,672,279.6,685.55c.23,12.19,50.47,46.37,49.26,55.81-2.34-3.62-2.18-7.37-9-7.58-9-.27-13.54,1.49-16.92,4.16-2.4,1.89,18.86,16.23,26,15.66,11.73-.93,18.67-4.23,15.19-16.15-6.32-21.63-40.79-44.65-40.91-50.39-.3-13.78,46.36-27.08,46.36-27.08"/><path class="cls-7" d="M488.3,438.92c1.41,0,11.43.19,17.29,2.7,34.35,12.63,23.23,73.29,23.23,73.29l-40.91-3.67,64.16,77.26C554.62,543.72,593.28,435.74,488.3,438.92Z"/><path class="cls-7" d="M472.55,667.83c13.25,1.76,51.57,7.78,54.49,18.78s-50.54,33-56.86,54.61c-3.48,11.92,11.58,13.42,23.32,14.35,7.16.57,19.55-10.08,17.9-13.85a5.06,5.06,0,0,0-1.49-1.91c-8.87,21.12-27.83,10.78-27.83,10.78-30.16-12.93,56.2-51.26,50-64.64C520.86,661.82,472.56,667.83,472.55,667.83Z"/><path class="cls-7" d="M344.13,737.45c-6.32-21.63-40.79-44.65-40.91-50.39-.3-13.78,46.36-27.08,46.36-27.08h0c-5.39-1.61-41.35,11.87-46.76,19.08-7.76,10.34,1.17,12.48,20.68,32.75,22.41,23.27,21.55,33.61,13.79,37.92-7.38,4.1-25-5.17-34.37-11.79h0c-2.41,1.89,18.86,16.23,26,15.66C340.67,752.67,347.61,749.37,344.13,737.45Z"/><path id="eyes" class="cls-8" d="M433.64,597.86c-1.49,0-2.71-2.42-2.71-5.42s1.22-5.41,2.71-5.41,2.71,2.42,2.71,5.41S435.14,597.86,433.64,597.86Zm-47.38-5.42c0-3-1.21-5.41-2.71-5.41s-2.71,2.42-2.71,5.41,1.22,5.42,2.71,5.42S386.26,595.44,386.26,592.44Z"/><path d="M437.08,634a53.19,53.19,0,0,0-57,0l-1.61-2.53a56.17,56.17,0,0,1,60.22,0Z"/></g></g></svg>