<svg xmlns="http://www.w3.org/2000/svg" viewBox="0 0 304.6 287.86"><defs><style>.cls-1{fill:#f8f8f8;}.cls-2{fill:#e2e2e2;}.cls-3{fill:#c4c4c4;}.cls-4{fill:#007cac;}.cls-5{fill:#005c80;}.cls-6{fill:#d1dee5;}</style></defs><title>book</title><g id="Layer_2" data-name="Layer 2"><g id="paper"><g id="book"><path id="page" class="cls-1" d="M126.05,114.19s-2.91-20.82-12.18-82.92c0,0-38.9,223.4,98.23,226.29Z"/><path class="cls-2" d="M126.05,114.19l41.14-107S255.8,217.58,255.46,217l-25.05,31.79-10.86,6.72Z"/><path class="cls-3" d="M203.59,93.61c-12.23-29.07-23.64-56.17-30.32-72l-47.22,92.61,16,24.08Z"/><polyline class="cls-2" points="127.55 113.27 205.74 18.49 193.16 0 127.55 113.27"/><polygon class="cls-3" points="195.21 3.02 127.55 113.27 205.74 18.49 195.21 3.02"/><path class="cls-2" d="M109.48,73.4s-.84,20.3-.65,31.64l17.22,9.15s-.69-4.94-2.46-17.15C117.92,91.41,111.66,80.43,109.48,73.4Z"/><polyline class="cls-2" points="126.05 114.19 198.37 2.12 206.04 14.52 137.01 102.16"/><path id="page-2" data-name="page" class="cls-1" d="M126.05,114.19,77.7,49.87s30.69,218.7,128.76,213.72Z"/><path class="cls-2" d="M88.93,104.93l24.85,26.34,15.36-11.34-3.09-5.74-2.88-3.83c-11.38-5.9-28.6-14.85-37.63-19.6C86.56,95.25,87.68,100,88.93,104.93Z"/><path id="page-3" data-name="page" class="cls-1" d="M125.49,113.28l-83.4-28.8S139.48,271.69,147.44,270s59-6.45,59-6.45Z"/><path class="cls-2" d="M201.47,260.92c-12.33,1.18-45,4.37-53.63,5.86C138.25,258.32,80.27,157.6,45.07,90.2l78.42,21.93Z"/><path id="page-4" data-name="page" class="cls-1" d="M126.32,112.76,35.62,92.48s90.72,187.33,98.68,185.69l73-15.09Z"/><path class="cls-2" d="M134.71,274.88c-9.47-8.93-50.47-83.76-83.14-151l74.75-11.13,76.23,148.1Z"/><polygon class="cls-3" points="199.69 4.25 127.55 113.27 202.46 8.73 199.69 4.25"/><path class="cls-2" d="M127.55,113.27S203.94,4.07,204,4.07L212.54,18l-71.19,86.76Z"/><polygon class="cls-3" points="205.92 7.25 131.88 110.59 207.81 10.32 205.92 7.25"/><polygon class="cls-2" points="131.88 110.59 209.04 7.46 212.97 13.82 141.35 104.73 131.88 110.59"/><rect class="cls-4" x="159.83" y="99.48" width="28.16" height="169.36" transform="translate(-70.85 118.97) rotate(-31.73)"/><rect class="cls-5" x="93.94" y="174.77" width="159.95" height="18.77" transform="translate(239.1 -60.61) rotate(58.27)"/><polygon class="cls-4" points="304.6 154.6 230.42 248.78 141.36 104.73 215.55 10.55 304.6 154.6"/><polygon class="cls-5" points="147.08 105.06 215.09 18.73 298.88 154.27 230.88 240.6 147.08 105.06"/><polygon class="cls-6" points="166.16 106.18 213.56 46.01 227.06 67.84 179.66 128.01 166.16 106.18"/><polygon class="cls-4" points="89.06 287.86 206.47 263.59 117.41 119.54 0 143.81 89.06 287.86"/><polygon class="cls-5" points="91.32 282.59 7.53 147.06 115.15 124.81 198.94 260.34 91.32 282.59"/><polygon class="cls-3" points="211.07 10.75 141.37 104.72 212.97 13.82 211.07 10.75"/></g></g></g></svg>