<svg xmlns="http://www.w3.org/2000/svg" viewBox="0 0 240.75 270.58"><defs><style>.cls-1{fill:#b9b9b9;}.cls-2{fill:#cecece;}.cls-3{fill:#9c9c9e;fill-opacity:0.47;}.cls-14,.cls-4{fill:#f7f7f7;}.cls-5{fill:#a4a4a4;}.cls-6{fill:gray;}.cls-7{fill:#676767;}.cls-8{fill:#e6e6e6;fill-opacity:0.75;}.cls-13,.cls-9{fill:#9b9b9b;}.cls-10{fill:#c4c4c4;}.cls-11{fill:#bebebe;}.cls-12{fill:#b0b0b0;}.cls-13{fill-opacity:0.53;}.cls-14{fill-opacity:0.72;}.cls-15{fill:#767676;}</style></defs><title>can</title><g id="Layer_2" data-name="Layer 2"><g id="Plastic_Mixed" data-name="Plastic/Mixed"><g id="can"><path class="cls-1" d="M170.89,123.56c-1.15,1.91-73.58,119.33-72.26,124.76,0,0,8.9-9.71,9.4-7.85s-12.54,15.88-4.13,22.07S227.88,102.88,229.53,97,223.14,36.85,170.89,123.56Z"/><path class="cls-2" d="M235,66.56c-4.44,6-2.44,28.21-5.35,32.76C223.37,109.18,117,261.76,109.91,267.73c-11.38,1.36-17.4.17-20.7,2.53s-23.58-8.27-50.15-28S7.65,216.21,5.43,211.91l-.82-7.16A27,27,0,0,1,.13,190.09C.31,182,113.72,27.25,116.92,23.16c5.14-6.55,25.88-10.7,30.41-18Z"/><path id="shadow" class="cls-3" d="M229.68,99.32c2.54-4,1.34-21.46,3.95-29.78-28.36-18.07-61.9-33.74-89.12-61.43-7.29,5.57-23.18,9.43-27.59,15.05-2.06,2.64-50,67.94-83.78,116.15,17.24-6.31,44.12-7.43,59.22,4.82,18.53,15,5.81,26.28,12.64,33.66,10.85,11.71,63.28-39.16,52.43-6.13-3.74,11.39.92,16.91,9.26,18.12C196.06,148.15,226.4,104.45,229.68,99.32Z"/><path class="cls-4" d="M199.53,41.48c-.72-.68-63.84,117.08-65,130.36-1.81,20.88,93.51-101.9,85-119.39C216.89,50.62,205.89,47.43,199.53,41.48Z"/><path class="cls-5" d="M69.51,250.52C46.89,240,12.8,208.73,4.08,200.55a24.5,24.5,0,0,0,2,3.5l.82,7.16c2.21,4.3,7.06,10.71,33.63,30.39s46.85,30.32,50.15,28c2.57-1.84,6.82-1.52,14-1.94C98.62,264.51,86.83,258.54,69.51,250.52Z"/><path class="cls-6" d="M38.77,229.74c-11.91-4.87-28.86-21.56-33.18-25.93a11.88,11.88,0,0,0,.86,2l.48,3.79c1,2.45,3.34,5.42,16.85,15.59s23.52,16.32,25.51,14.69C50.84,238.58,47.88,233.46,38.77,229.74Z"/><path class="cls-7" d="M153.36,10.31l-.12.16-.4.51-.09.1c-.17.2-.34.4-.53.6l-.13.14c-.15.16-.31.33-.48.49l-.13.14-.63.61-.08.07-.61.55-.15.13c-.47.41-1,.83-1.49,1.24l-.12.1-.79.61h0C147.31,16,144,24.5,129.1,30c.57-.88-59.69,74-55.85,76.69,0,0,33.74-38.36,66.53-70.31-3.84-12.56,14.7-18.85,23.6-17.65,4.81.66-9.6-9-9.6-9Q153.59,10,153.36,10.31Z"/><path class="cls-7" d="M234.48,67.41a3,3,0,0,1,.55-.85L147.33,5.2a8.48,8.48,0,0,1-1.16,1.45,7.14,7.14,0,0,0,1.38,1.94c1.95,1.91,24.37,19.46,29.17,22.83C194.67,44,216.16,58.33,234.48,67.41Z"/><path class="cls-8" d="M180.24,30.23s-80.05,162-78.88,181.71c1.86,31,132.63-131.24,114.28-159.5Z"/><path class="cls-9" d="M192.7,28.38c15.9,11.8,48.24,32.66,48.05,35.27s-3.53,4.66-5.58,4.06S149.11,11.06,146.88,4.83C147.17-1.55,144.29-7.55,192.7,28.38Z"/><path class="cls-10" d="M192,29.8C167.57,12.06,155.47,2.21,150,.27a.16.16,0,0,0-.16.28c7.85,6.7,24.5,18.85,45.72,34.11,20.9,15,36.33,23.26,43.16,26.61C231.5,54.85,205.61,39.65,192,29.8Z"/><path class="cls-11" d="M111.29,267c-9.89-4.55-33.08-12.49-58-30-28-19.63-46.78-38.76-53.12-47-1,6,4.48,14.66,4.48,14.66,8.26,8.67,23.63,21.48,45.29,37.14,22.2,16.05,42.07,22.86,54.56,25.74C106.49,267.51,108.75,267.34,111.29,267Z"/><path class="cls-9" d="M190.5,21.13A18.26,18.26,0,0,1,187,18c-1.93-2.27-4-6.53-3.79-8.64a1.44,1.44,0,0,1,.49-1c.82-.64,2.35,0,4.69,2,5.86,5,9.32,11.49,8.48,13.09a.89.89,0,0,1-1.13.37A19.6,19.6,0,0,1,190.5,21.13Zm-4-11.39c-1.69-1.18-2.24-1-2.39-.86a.84.84,0,0,0-.23.57c-.18,1.74,1.62,5.77,3.63,8.13a20,20,0,0,0,8.4,5.58c.28.08.33,0,.35,0,.56-1.07-2.42-7.23-8.32-12.25C187.42,10.4,186.94,10,186.53,9.74Z"/><path class="cls-12" d="M190.19,22.39c4.25.46,9,11.41,10.54,15.91l3.59,2.51a160.13,160.13,0,0,0-4.38-18.07C197.4,15,189.86,3.84,184.27,3.27c-8.26-.84-1,22.84-1,22.84l3.89,2.72C186.87,26.23,186.84,22,190.19,22.39ZM187,18c-1.93-2.27-4-6.53-3.79-8.64a1.44,1.44,0,0,1,.49-1c.82-.64,2.35,0,4.69,2,5.86,5,9.32,11.49,8.48,13.09a.89.89,0,0,1-1.13.37,19.6,19.6,0,0,1-5.26-2.68A18.26,18.26,0,0,1,187,18Z"/><path class="cls-13" d="M160.38,23l-19,13.93c.16,9.71,75.13,59.42,89.44,58.19l2.33-25.82S170.35,36.51,160.38,23Z"/><path class="cls-14" d="M183,71.57c8.2,5.31,16.58,10.34,24.09,14.38C212.71,76.44,217,68,219,61.66c-6.7-3.69-15-8.38-23.36-13.33C192.6,53.7,188.14,61.89,183,71.57Z"/><path class="cls-15" d="M215.28,45.39a16,16,0,0,1-.91,2,263.92,263.92,0,0,0,24.38,13.9C234.23,58.07,225.12,52.21,215.28,45.39Z"/><path class="cls-13" d="M147.47,12.79s-3.31-1.35-4.7-3.47c-6.93,4.43-18.33,7.63-23.77,12,3.91,2.51,7.7,5.69,8.9,5.82C129.64,27.35,147.47,12.79,147.47,12.79Z"/><path class="cls-9" d="M197.21,28.14c-1.44-2.79-5.76-6.52-7.85-5.74l0,0a3.37,3.37,0,0,1,.85,0c4.25.46,9,11.41,10.54,15.91l.66.46A62.85,62.85,0,0,0,197.21,28.14Z"/></g></g></g></svg>