<svg xmlns="http://www.w3.org/2000/svg" viewBox="0 0 405.33 316.73"><defs><style>.cls-1{fill:#6d5741;}.cls-2{fill:#b19675;}.cls-3{fill:#82694e;}.cls-4{fill:#574230;}.cls-5{fill:#9b7d61;}.cls-6{fill:#5e412a;}</style></defs><title>cardboard</title><g id="Layer_2" data-name="Layer 2"><g id="paper"><g id="cardboard_box" data-name="cardboard box"><path class="cls-1" d="M75.65,251l150.12,65.75L313.7,193.37,174.28,136.91Z"/><polygon class="cls-1" points="336.94 59.41 297.46 217.32 225.77 316.74 240.42 176.13 336.94 59.41"/><path class="cls-2" d="M335.09,58.36V54.13l19-12.67L220,0,183.25,8.45Z"/><path class="cls-2" d="M183.25,8.45,117,20.86,6.34,113.15,0,118.83s61.79-9.51,62.85-9.51,1.32,3.83,1.32,3.83Z"/><path class="cls-3" d="M183.25,8.45,64.17,113.15,75.65,251c-1.19.4,98.63-114.07,98.63-114.07l9-128.46L335.09,58.36l-31.69,135L174.28,136.91Z"/><polygon class="cls-4" points="335.09 58.36 183.37 8.49 174.28 136.91 293.24 188.92 335.09 58.36"/><polygon class="cls-5" points="241.92 174.31 227.35 314.55 225.77 316.74 240.42 176.13 241.92 174.31"/><polygon class="cls-1" points="240.42 176.13 225.77 316.74 75.65 250.99 64.17 113.15 240.42 176.13"/><polygon class="cls-6" points="297.46 217.32 304.02 191.07 240.42 176.13 278.96 242.97 297.46 217.32"/><path class="cls-2" d="M240.42,176.13c1.06-1.06,96.51-116.72,96.51-116.72l9,2.11,59.42,51.63L328.22,246.89Z"/><polygon class="cls-6" points="63.08 115.24 74.15 234.77 199.63 287.07 240.42 176.13 63.08 115.24"/><path class="cls-2" d="M64.17,113.15,19.41,199.89s177.44,75.26,177.05,73.67,44-97.43,44-97.43Z"/></g></g></g></svg>