<svg xmlns="http://www.w3.org/2000/svg" viewBox="0 0 217.89 339.92"><defs><style>.cls-1{fill:#f8f9ff;}.cls-2{fill:#dfe0e7;}.cls-3{fill:#a3a4a8;fill-opacity:0.44;}.cls-4{fill:#f2e35a;}.cls-5{fill:#d1c150;}.cls-6{fill:#163447;}.cls-7{fill:#fcee21;}.cls-8{fill:#d8bf56;}.cls-9{fill:#d6cd8a;}.cls-10{fill:#d8cf23;}.cls-11{fill:#953214;}.cls-12{fill:#c1b680;}.cls-13{fill:#9b8e3d;}</style></defs><title>chipbag</title><g id="Layer_2" data-name="Layer 2"><g id="chip_bag" data-name="chip bag"><polygon class="cls-1" points="0.5 288.53 8.75 297.9 22.61 300.9 31.98 308.77 43.6 309.14 48.1 316.26 61.22 312.89 67.22 321.51 81.46 318.14 87.08 324.51 98.33 322.26 106.95 327.51 121.56 325.26 126.06 331.26 136.56 326.76 144.8 335 154.92 331.63 160.17 337.63 172.91 334.26 186.41 338 193.15 336.88 198.27 339.92 162.42 265.29 0.5 288.53"/><polygon class="cls-2" points="2.6 286.45 10.85 295.82 24.71 298.82 34.09 306.69 45.7 307.07 50.2 314.19 63.32 310.82 69.32 319.44 83.56 316.06 89.18 322.44 100.43 320.19 109.05 325.44 123.67 323.19 128.16 329.18 138.66 324.69 146.9 332.93 157.02 329.56 162.27 335.56 175.02 332.18 188.51 335.93 195.25 334.81 200.37 337.84 164.52 263.21 2.6 286.45"/><path class="cls-3" d="M161.05,265c-14.25-.25-33.86,34.36-33.86,34.36s85.58,51.47,72.09,31.86S161.05,265,161.05,265Z"/><path class="cls-4" d="M88.86,38.65c0-2.32,60.26-39.41,71.85-38.64S217.89,54.1,217.89,54.1L206.3,102l1.55,38.64,7,3.86s0,41.72-.77,51.77-7,136-13.14,141.4l-29.36-17L156.85,277.4,3.09,290.53,0,275.85l60.27-27s-3.87-11.59-3.09-15.45,26.27-44.82,26.27-44.82l-7.73-39.4L95,85Z"/><path class="cls-5" d="M214.8,144.5l-7-3.86-1.2-35.4c-14.86-9.09-34.86,11.25-34.86,11.25l-31.86,52.85S95,242.8,91.58,245.05c-1.76,1.17-21,4.37-39.14,7.27L0,275.85l3.09,14.68L156.85,277.4l14.68,43.27.37.21c9.48-32.12,31.24-106,42.72-146.33C214.8,160.13,214.8,144.5,214.8,144.5Z"/><polygon class="cls-6" points="134.08 61.28 137.33 53.86 130.72 52.91 129.53 46.18 122.42 49.78 117.25 46.3 112.37 53.1 105.19 54.2 104.4 61.59 97.95 66.84 101.55 72 98.3 79.41 104.92 80.36 106.1 87.1 113.21 83.49 118.38 86.97 123.27 80.18 130.44 79.08 131.24 71.69 137.68 66.43 134.08 61.28"/><path class="cls-7" d="M106.11,75.81a9.68,9.68,0,0,0,1.61-.6,8.34,8.34,0,0,0,3.06-2.43,8.94,8.94,0,0,0,1.85-4.51l-.07,0A6.4,6.4,0,0,1,109.12,71c-2.66.87-4.43-.53-4.49-3a7.31,7.31,0,0,1,4.91-6.83c3-1,5,.8,5.06,4.52a12,12,0,0,1-2.36,7.66A11,11,0,0,1,108,76.7a10.15,10.15,0,0,1-1.84.72Zm.49-8.6c.05,1.81,1.2,2.72,2.93,2.15a5,5,0,0,0,2.88-2.49,1.51,1.51,0,0,0,.16-.77c-.07-2.48-1-4.08-3.15-3.39A4.54,4.54,0,0,0,106.6,67.21Z"/><path class="cls-7" d="M117.78,72a9.23,9.23,0,0,0,1.62-.59,8.35,8.35,0,0,0,3.06-2.44,8.94,8.94,0,0,0,1.85-4.51l-.07,0a6.4,6.4,0,0,1-3.44,2.72c-2.67.87-4.43-.53-4.5-3a7.34,7.34,0,0,1,4.91-6.84c3-1,5,.81,5.07,4.52a12,12,0,0,1-2.36,7.66,12.32,12.32,0,0,1-6.09,4.08Zm.5-8.6c0,1.81,1.2,2.72,2.93,2.15A4.9,4.9,0,0,0,124.08,63a1.58,1.58,0,0,0,.17-.78c-.07-2.48-1.06-4.08-3.15-3.39A4.53,4.53,0,0,0,118.28,63.36Z"/><path class="cls-7" d="M127.65,56.76l0-.81a1.46,1.46,0,0,1-1.2-.17,1.53,1.53,0,0,1-.5-1.22,2.81,2.81,0,0,1,1.6-2.54l0-.8.51-.17,0,.79a2,2,0,0,1,.91-.09l-.15.59a1.64,1.64,0,0,0-.86.08,1.92,1.92,0,0,0-1.28,1.87c0,.9.6,1.24,1.32,1a2.83,2.83,0,0,0,.93-.51l.15.47a3.1,3.1,0,0,1-.91.53l0,.82Z"/><path class="cls-8" d="M160.71,0C149.12-.76,88.86,36.33,88.86,38.65l1.41,10.63c20.52-14.18,59.82-35,67.78-35.24,14.08-.49,44.38,27.45,55.94,56.19l3.9-16.13S172.3.78,160.71,0Z"/><path class="cls-9" d="M92.55,192.11c-2.61-3.07,21.34-22.62,29.88-22.19s6,14.08,11.52,12a28.44,28.44,0,0,1,11.1-1.71s-8.53,25.19-18.35,24.33S97.24,197.66,92.55,192.11Z"/><path class="cls-9" d="M102.6,236.17c-3.44-4.06,28.23-29.92,39.52-29.35s7.9,18.63,15.24,15.8A37.7,37.7,0,0,1,172,220.37s-11.29,33.3-24.27,32.17S108.81,243.51,102.6,236.17Z"/><path class="cls-9" d="M137.58,203c-3.34-3.95,27.42-29.06,38.38-28.51s7.68,18.1,14.81,15.35A36.62,36.62,0,0,1,205,187.65s-11,32.35-23.57,31.26S143.61,210.13,137.58,203Z"/><path class="cls-10" d="M149.3,127.36s-7.19-20.26,15.52-27.75,28.33-4.86,29.83,9.38S170.29,118.36,149.3,127.36Z"/><path class="cls-11" d="M171.36,52.08c22.13-1.41,35.32,23.55,35.79,26.84s-12.24,34.85-12.24,34.85-7.54-23.07-24-12.71S147.34,119,148.75,126,129,92.58,130.39,82.22,149.22,53.49,171.36,52.08Z"/><path class="cls-12" d="M190.77,189.84c-7.13,2.75-3.84-14.8-14.81-15.35-4.29-.21-11.61,3.52-18.73,8.36,8.69.18,25.71,1.31,24.31,7.48-1.29,5.65,11.8,5.44,20.81,4.18,1.69-4,2.67-6.86,2.67-6.86A36.62,36.62,0,0,0,190.77,189.84Z"/><path class="cls-12" d="M172,220.37a37.7,37.7,0,0,0-14.68,2.25c-7.34,2.83-4-15.24-15.24-15.8-3.82-.19-10,2.67-16.33,6.67,6.39-.94,14.73-2.06,16,1.57,2.25,6.38,1.13,24,8.63,21.37,4.14-1.45,12.51-6,19.18-9.76C171.14,223,172,220.37,172,220.37Z"/><path class="cls-12" d="M139.83,180.4c-2.89,6.51-8.51,17.79-13.77,20.42-6.82,3.41-27.53-10.82-31.23-13.42-2,2.2-2.92,4-2.28,4.71,4.69,5.55,24.33,11.53,34.15,12.38s18.35-24.33,18.35-24.33A27.3,27.3,0,0,0,139.83,180.4Z"/><path class="cls-13" d="M205.9,145l8.9-.47-7-3.86-1.37-34.1a94.05,94.05,0,0,0-9.58,21.19Z"/><path d="M124.33,152.51c1.11,3-1.72,6.26-3.57,7.59a8.91,8.91,0,0,1-9.22.92c-2-1.05-3.71-3.79-3.8-7.41-.17-9.35,7.68-17.34,12.62-19.24,2.39-.93,4.55-1.1,6,.13a8.19,8.19,0,0,1,2.34,3.22,5.07,5.07,0,0,1-.4,3.89C127.6,143,127,144.7,126.5,146c-.14.35-.44.61-1,.26-1-.66-1.73-2-1.06-4.24s2.29-4.85,1.28-5.91c-1.24-1.32-8,2.25-11.92,8.83s-3.44,13-1.28,14.74c2.83,2.29,7.5-.67,10.86-7.24C123.63,151.93,124.11,151.93,124.33,152.51Z"/><path d="M149,149.77a2.8,2.8,0,0,1,1.72,1.94c.09.36,0,.58-.48.49a10.69,10.69,0,0,0-2.47-.13c-1.5,2.86-3.05,6-4.5,9.35-.18.44-.49.49-.75.09-.62-.88-1-2.16-.14-4.85a45.51,45.51,0,0,1,1.86-4.24c-3.22.4-6.62,1-8.7,1-1.36,2.74-2.73,5.65-4,8.61-.18.44-.53.57-.8.17-.66-.92-1-2.16-.22-4.85.27-.93,1-2.52,1.9-4.5a2.92,2.92,0,0,1-1.5-1.42c-.26-.53-.18-.7.57-.66s1.28.13,1.86.13a160.79,160.79,0,0,1,8.73-16.06c.4-.53.8-.44,1.06.05.67,1.23.53,3.39-1.1,6.53-1.28,2.47-3.09,5.6-5,9.26,3.05-.39,5.78-1.14,8.69-1.32,2.87-5.69,6.76-12.71,8.52-15.05.44-.57.84-.53,1.1.05.62,1.28.49,3.35-1.36,6.66C152.62,143.37,150.9,146.33,149,149.77Z"/><path d="M168.2,134.37c.62,1.28.57,3.4-1.32,6.75-2.74,4.81-7.59,13.33-10.82,20.57-.17.44-.35.48-.7.08-.62-.66-1.15-2.2-.18-4.89,2.16-6,8.39-17.39,12-22.55C167.54,133.75,167.94,133.84,168.2,134.37Z"/><path d="M174,137.19c-.23-.48-.14-.75.44-.79,3.66-.4,7-2.25,10-2.38,2.25-.09,4.19.62,5.25,3.66.93,2.65.18,5.21-1.32,7.55-2.21,3.44-7,6.75-12.76,7.85a4,4,0,0,1-2.73-.44c-1.24,2.43-2.56,5.34-4.11,9-.17.44-.39.44-.7.13-.62-.66-1.06-2-.4-4.36,1.15-4,5.3-12.32,9.14-18.36A3.26,3.26,0,0,1,174,137.19Zm13.76.89c-.92-2.43-5.34-.13-8.25.7a9.94,9.94,0,0,1-1.68,4.86c-1.14,2-2.38,4.06-3.7,6.53C184,148.32,189,141.17,187.79,138.08Z"/></g></g></svg>