<svg xmlns="http://www.w3.org/2000/svg" viewBox="0 0 346.13 251.84"><defs><style>.cls-1{fill:#a09e9b;}.cls-1,.cls-2,.cls-3{stroke:#ececeb;}.cls-1,.cls-2,.cls-3,.cls-4{stroke-miterlimit:10;stroke-width:0.96px;}.cls-1,.cls-2,.cls-5{opacity:0.5;}.cls-2{fill:#ececeb;}.cls-3{fill:none;}.cls-4{fill:#c6c5c3;stroke:#f0efef;opacity:0.66;}.cls-6{fill:#fffefd;}</style></defs><title>container</title><g id="Layer_2" data-name="Layer 2"><g id="Plastic_Mixed" data-name="Plastic/Mixed"><g id="container"><g id="plastic_container_with_symbol" data-name="plastic container with symbol"><path class="cls-1" d="M310.5,53.64,210.81,4.13C202.35.54,192.41-.67,183.17,3L10.22,60.28c-4.62,1.82-7.85,5.38-8.9,8S-.42,76,3.23,78.61c0,0,96.38,75.64,109.43,74.94,7.59-.41,4.57-1.23,14.24-4.5L304.36,73.37C312.46,68.87,320,62.94,310.5,53.64Z"/><path class="cls-1" d="M148.85,251.36c-7.68,0-14.49-1.83-19.19-5.17l-96-68.85c-6-4.28-7.56-12.64-4-21.3,2.16-5.31,7.54-10.3,13.71-12.73l.22-.09L210.42,75.39a45.88,45.88,0,0,1,16.34-2.92c7.31,0,13.83,1.66,18.49,4.69l92.69,51.91,1,1c6.81,6.71,7.21,13.17,6.35,17.41-1.45,7.1-7.53,13.13-17.14,17L165.82,248.19l-.4.15a45.59,45.59,0,0,1-16.57,3Z"/><path class="cls-2" d="M328.71,136.89,239.26,86.54c-5.84-4.16-17.86-4.66-26.83-1.13L50.69,151.55c-4.49,1.77-7.62,5.22-8.64,7.74s-2.48,8.23,1.06,10.76l93.12,66.82c5.85,4.15,17.86,4.65,26.83,1.12l160.58-82.57C332.36,149.39,337.89,145.92,328.71,136.89Z"/><path class="cls-3" d="M308,52.49,211.42,4.06c-6-4.28-18.4-4.8-27.64-1.16l-172.53,57c-4.63,1.82-7.59,4.33-8.64,6.93s-.2,5.26,2.81,7.4l92.93,66.7c6,4.27,18.4,4.79,27.64,1.16L302.17,66.82C311.41,63.19,314,56.77,308,52.49Z"/><path class="cls-4" d="M8.32,83.59s17.52,45.57,17.52,45.68S89,189,113.11,190.47,278.05,117.31,282.75,114c4.24-2.94,16.08-32.42,18.86-38.73a.48.48,0,0,0-.64-.64c-15.51,6.85-175.87,77.66-187.73,78.93C98.6,155.15,8.32,83.59,8.32,83.59Z"/><path class="cls-3" d="M64.94,116.9S187.31,67.64,192.82,67.23s46.61,26.38,46.61,26.38"/><path class="cls-3" d="M191.39,67.23S195.6,37,194.58,31.05s4.58,29.22,1.51,36.18Z"/><path class="cls-3" d="M22.45,86.41S182.88,29.78,194.8,29.5s95.82,42.25,95.82,42.25"/><path class="cls-3" d="M9.49,70.5C10.92,64.37,179.63,4.27,197,5.65c17.62,1.4,101.47,47.89,101.47,53.2s-23.94,19.76-23.94,19.76"/><line class="cls-3" x1="155.25" y1="12.32" x2="155.25" y2="16.9"/><line class="cls-3" x1="26.07" y1="55.03" x2="26.07" y2="59.67"/></g><g id="symbol" class="cls-5"><path class="cls-6" d="M199.63,123.4l-13-3-.11,4C155.27,127.5,130.4,141.85,130,157.6l14-.82c.33-11.9,18.87-22.79,42.31-25.42l-.11,4,13.21-4.51,13.22-4.5Z"/><path class="cls-6" d="M131.77,170.72l-.21,7.47,7-2.38c17.52,11.66,52.31,13.65,80.14,4.17l-6.86-5.6c-21,7.16-47.29,5.79-61-2.77l7.1-2.42-13-3-13-3Z"/><path class="cls-6" d="M244.52,169.64l13.21-4.5-6.9-1.58c13.73-14.77,3.8-31.12-23.59-37.38l-7.19,6.42c20.69,4.73,28.42,17,18.66,28.19l-7-1.6-.21,7.48-.21,7.47Z"/></g></g></g></g></svg>