<svg xmlns="http://www.w3.org/2000/svg" viewBox="0 0 419.64 171.97"><defs><style>.cls-1{fill:#c6c6c4;}.cls-2{fill:#dee1df;}.cls-3{fill:#fcfcfc;}.cls-4{fill:#fff;}.cls-5{fill:#e5e5e5;}.cls-6{fill:#ee164c;}</style></defs><title>eggs</title><g id="Layer_2" data-name="Layer 2"><g id="Egg"><path class="cls-1" d="M212.35,61.25a17.51,17.51,0,0,1-18.21,2.5c-6.19-2.7-5.28-22.89-3.1-27.62s7-5.35,8.16-5.5,6-.78,9.3,3.23S217.65,57.06,212.35,61.25Z"/><path class="cls-2" d="M212.11,129.08l.66,5.06h-.12L212,129.1Z"/><path class="cls-2" d="M197.59,19l1.65,12h.1l-1.57-12Z"/><polygon class="cls-1" points="418.82 87.63 409.66 102.95 212.56 132.58 212.45 132.6 14.35 154.53 1.56 142.07 418.82 87.63"/><path class="cls-2" d="M419.41,83.74l-.61,9.65L409.31,103l-7.87,1.81s-9.85,21.23-20,23.63a37.33,37.33,0,0,1-13.77.71,28.7,28.7,0,0,1-17.92-10.74,83.83,83.83,0,0,0-11.21,2.39S330,137.69,312.1,140c-20.83,2.72-27.83-14-27.83-14l-15.94,2.08s-10.34,16.2-21,17.7c-16.53,2.31-16.57-5.17-26.68-12.26a44.72,44.72,0,0,1-7.89.57h.06l-.66-5.06,182.07-23.75,4.69-3.49,10.57-1.38,7.7-7.78Z"/><path class="cls-2" d="M212.65,134.15h.06a44.06,44.06,0,0,1-7.77,1.48c-7.95,9.45-6.08,16.68-22.64,18.69-10.73,1.3-24.89-11.71-24.89-11.71l-15.94,2.08s-2.48,17.92-23.31,20.64c-17.92,2.34-30.51-11.75-30.51-11.75a84.62,84.62,0,0,0-11.45.56,28.79,28.79,0,0,1-14.56,15A37.46,37.46,0,0,1,48.15,172c-10.4.28-25.37-17.72-25.37-17.72l-8.07.28L3.07,147.64,0,138.46l4.48,8.06,9.45,5.54,10.56-1.38,5.43,2.17L212,129.1Z"/><path class="cls-2" d="M212.11,129.08l.66,5.06h-.12L212,129.1Z"/><path class="cls-2" d="M197.59,19l1.56,12,.09,0-1.47-12Z"/><path class="cls-2" d="M419.4,84l0,.28a11.82,11.82,0,0,1-.39,6.2h0a6.94,6.94,0,0,1-1.12,1.88,12.74,12.74,0,0,1-2.22,2.15h0a13.59,13.59,0,0,1-1.27.89h0a13.32,13.32,0,0,1-2.7,1.28L228.85,124.24l-2.46-2.71s-13.72,2.21-15,2h0c-1.24.53-15.07,1.91-15.07,1.91l-1.68,3.26L10.75,149a13,13,0,0,1-2.94-.54h0c-.44-.14-.94-.31-1.45-.53h0a12.68,12.68,0,0,1-2.7-1.51,6.85,6.85,0,0,1-1.56-1.53h0A11.83,11.83,0,0,1,.1,139l0-.28c-.5-4.37,3.3-10.48,3.3-10.48l2-2.82S1.88,107.83,2.16,101c0,0,17.64-52.95,31.67-58.1,13.54-5,157.88-23.2,163.76-23.94l1.56,12c-1.29.16-5.93.88-8.07,5.49s-2.68,24.18,3.51,26.88A17.73,17.73,0,0,0,212.05,61c5.29-4.2-.18-22.87-3.51-26.88s-7.91-3.41-9.2-3.24l-1.57-12c5.86-.8,150.06-20.22,164.42-18.88,14.88,1.37,45.52,48,45.52,48,2,6.51,3.18,24.35,3.18,24.35l2.62,2.23S418.75,79.61,419.4,84Z"/><path class="cls-1" d="M134.6,103.84c-11.21,1.17-10.64,5.82-10.23,10,.32,3.25-.29,6.76,9.67,5.16,11.73-1.88,14.39-2.76,13.8-7.5C147.11,105.63,143.57,102.9,134.6,103.84Z"/><path class="cls-3" d="M412.05,93a24.5,24.5,0,0,1-10.53,4L229.68,121.34l-3.64-2.8-30.22,3.95L193,126.12,20.71,146.74A24.51,24.51,0,0,1,9.5,145.56c-12.87-4.95-7.26-13.63-7.26-13.63l3.4-6.43,1.48.65s-.48,1.09-3.46,6.3c-3.1,5.43,1.86,8.25,6.58,10.44s11.62.55,11.62.55L190.51,123l3.06-3.44,33.89-4.42,3.83,2.54L399.56,94.16s7.08-.19,11.08-3.51,8.08-7.33,3.69-11.79c-4.22-4.27-5-5.19-5-5.19l1.27-1L415.56,78S423.22,85,412.05,93Z"/><path class="cls-3" d="M403.43,55.82c-13,11.47-191.81,29.71-196.94,30.23h-.11c-5.09.82-182.58,29.07-198.1,21.32-12.56-6.28,23-57.8,23.87-59.07-.79,1.28-27.27,45-22.06,52.85S200.31,80,205.48,79.17l.11,0c5.2-.53,191.47-19.94,194.5-28.88S366.29,5.89,365.2,4.85C366.39,5.85,414,46.53,403.43,55.82Z"/><path class="cls-4" d="M132.69,119.89c.48-.06,3.71-.44,4.23-.52.83-.14,2.16-.28,2.9-.38,4.48-.62,5.6-3.19,5.72-6.33a22.8,22.8,0,0,0-.7-5.83c-.73-2.19-3.52-3.65-7-3.2-.6.07-2.37.07-3,.16-3.87.55-6.65.89-7.4,2.15-.35.59-.78,1.25-.61,3.92C127.33,117.29,128.37,120.46,132.69,119.89Z"/><path class="cls-5" d="M139.4,118.12c-.8.29-5.86.74-6.28.8-3.81.5-4.73-2.3-5.14-8.85-.15-2.36.17-4.28,2.26-4.55-.83,2.72-1.09,10.66,1.2,11.73,2,.94,8.64-.31,10.83-1.75A11.46,11.46,0,0,1,139.4,118.12Z"/><path class="cls-1" d="M280.43,84.81c11.14-1.74,11.77,2.9,12.44,7,.53,3.22,2,6.47-8,7.47-11.83,1.19-14.62,1-15.26-3.71C268.8,89.76,271.52,86.21,280.43,84.81Z"/><path class="cls-4" d="M286.39,99.84c-.47.06-3.69.53-4.21.57-.84.08-2.17.29-2.91.38-4.49.56-6.23-1.64-7.15-4.65a23.12,23.12,0,0,1-.82-5.81c.14-2.3,2.46-4.43,5.9-4.88.6-.08,2.3-.54,2.94-.61,3.89-.46,6.66-.85,7.7.17.5.49,1.08,1,1.61,3.64C290.91,96,290.71,99.28,286.39,99.84Z"/><path class="cls-5" d="M279.45,99.85c.85.07,5.86-.79,6.28-.84,3.81-.5,4-3.44,2.7-9.88-.47-2.31-1.26-4.09-3.35-3.82,1.5,2.43,3.78,10,1.84,11.66-1.7,1.42-8.42,1.91-10.91,1.08A11.67,11.67,0,0,0,279.45,99.85Z"/><path class="cls-6" d="M262.76,42.28l-.05,1.26-3.24.38,0-.91,3-.71ZM260,29.45l0-.92,3.24-.39-.05,1.27-.23,0ZM262,35.39c.09-2.37.19-4.76.21-7.11l2.22-.27c-.16,2.33-.26,4.72-.35,7.13l0,.88c-.11,2.64-.2,5-.22,7.39l-2.22.26c.16-2.33.25-4.72.35-7.13Zm9.75,3-.32,4.11-8.71,1,0-1.15,7.9-.94-1.08,1.27.88-4.18Zm-3.52-2.8-5.23.62,0-1.06,5.23-.62Zm1.49-8.21,1,1-7.44.89.05-1.15,8.25-1v4.07l-1.3.15Zm-2.2,7.47.44-2.48,1-.13-.21,5.45-1,.12-.25-2.5Z"/><path class="cls-6" d="M288.69,39.43a12.05,12.05,0,0,1-5.13,2c-4.62.55-7.63-2.5-7.45-7.11a9.24,9.24,0,0,1,8.17-9,8.12,8.12,0,0,1,4.6.55l0,3.32-1.41.17L287,26l1.41.29,0,1.31a4.9,4.9,0,0,0-3.93-1.18c-3.23.39-5.71,3.18-5.88,7.57s1.9,6.61,5.5,6.18a8.63,8.63,0,0,0,3.64-1.38L286.6,40l0-1.33c.07-1.75.12-3.54.14-5.28l2.22-.27c-.11,1.73-.21,3.5-.28,5.3Zm-4.34-4.84,0-.91,6-.72,0,.92-2.55.53-.46.05Z"/><path class="cls-6" d="M307,37.24a12.15,12.15,0,0,1-5.14,2c-4.62.56-7.63-2.49-7.45-7.11a9.23,9.23,0,0,1,8.17-9,8,8,0,0,1,4.6.55l0,3.32-1.4.17-.45-3.34,1.42.29-.06,1.31a4.86,4.86,0,0,0-3.93-1.17c-3.23.38-5.71,3.17-5.88,7.56s1.9,6.61,5.51,6.18A8.71,8.71,0,0,0,306,36.61l-1.09,1.2.06-1.33c.06-1.75.11-3.54.13-5.28l2.22-.26c-.11,1.73-.2,3.5-.27,5.29Zm-4.35-4.83,0-.92,6-.72,0,.92-2.55.53-.46.06Z"/><path class="cls-6" d="M320.2,33.08c.06-1.49-.82-2-2.8-2.59l-.86-.24c-2.32-.64-3.89-1.78-3.8-4.13.11-2.64,2.41-4.51,5.35-4.86a5.48,5.48,0,0,1,3.72.76l-.26,3-1.39.16-.51-3.39,1.45.58,0,1.15a3.62,3.62,0,0,0-3.16-1.11c-1.8.22-3.2,1.28-3.26,3-.06,1.45.85,2.18,2.51,2.62l.89.24c3,.81,4.13,2,4,4.16-.11,2.71-2.46,4.64-5.63,5a8,8,0,0,1-4.43-.68l.26-3.24,1.39-.16.46,3.46-1.47-.46,0-1.1a4.91,4.91,0,0,0,3.73,1C318.63,36.06,320.13,34.87,320.2,33.08Z"/></g></g></svg>