<svg xmlns="http://www.w3.org/2000/svg" viewBox="0 0 55.05 331.62"><defs><style>.cls-1{fill:#eaeaea;}.cls-2{fill:#ddd;}.cls-3{fill:#c1c1c1;fill-opacity:0.67;}.cls-4{fill:#d1d1d1;fill-opacity:0.4;}</style></defs><title>fork</title><g id="Layer_2" data-name="Layer 2"><g id="Utensil"><g id="fork"><path class="cls-1" d="M12,1C9.27.54-.8,60.35.05,72.79S.26,94,12,106.63s13.39,40.6,9.42,63.85S14.58,283.3,14.58,283.3s5,48.76,10.17,48.32,16.56-34.46,17.3-50S33,125.59,44,115.91s11.2-21.59,10.92-38.17S56.54-.13,51.88,0C49,.08,45.27,52.88,39.19,53.16,35,53.36,40.94.58,38.41.32,34.79-.06,34.52,53.1,27.78,54c-5.06.71.79-54.11-2.32-53.64s-3.92,55.49-9.1,55.55C12.71,56,14.69,1.4,12,1Z"/><path class="cls-2" d="M11.8,4.46c0,.14.29,56.35,3.66,55.22,3.9-1.3,9.75-56,9.75-56s-3.5,53.75,2.51,54.42,8.75-53.67,9.92-54S34,56.84,38.06,55s11.88-15.17,12-36.34,2.23-6,2.23-6,3.65,82.22.08,87.21S40.24,118.51,33,119.37s-9.21,5.5-13.55-3.11S7.26,102.1,4.7,91.38s-1.4-37.12.35-50.69S11.8,4.46,11.8,4.46Z"/><path class="cls-3" d="M29.83,99.51c-.32-3.53-2.64,21.33-12.33,15.6,6.64,14.36,7.14,36.44,3.91,55.37-4,23.25-6.83,112.82-6.83,112.82s5,48.76,10.17,48.32a1.75,1.75,0,0,0,.58-.18C26.23,300.67,31.17,114.3,29.83,99.51Z"/><path class="cls-4" d="M44,115.52c11-9.68,11.19-21.59,10.92-38.17,0-.26,0-.54,0-.83a12.49,12.49,0,0,0-1.11,6.25c.5,19.43-10.86,25.48-16.38,30.84s-7.55-14.48-7.55-14.48S25.75,288.8,25.33,331.44c6.22-4.51,16.05-36.12,16.73-50.2C42.81,265.71,33,125.2,44,115.52Z"/></g></g></g></svg>