<svg xmlns="http://www.w3.org/2000/svg" viewBox="0 0 224.43 292.79"><defs><style>.cls-1{fill:#adbcc4;}.cls-2{fill:#939fa3;}.cls-3{fill:#9ca9af;}.cls-4{fill:#c5d5dd;}</style></defs><title>garbagebag</title><g id="Layer_2" data-name="Layer 2"><g id="plastic_bag" data-name="plastic bag"><path class="cls-1" d="M25.89,10.53c3.69-3.13,5.8-4.35,11.24,16.31s4.35,28.63,5.07,35.88-5.8,37.33,2.54,39.51S67.94,99,74.46,98.6s42,5.08,51.47,0,24.64,4.35,31.89.36,13.05-12.68,9.06-25.37S177.4,14.51,175.22,8s1.45-13,8.34-2.17S210,56.92,211.1,67.43s9.79,22.11,6.16,37.7-2.53,53.28-2.53,53.28,1.81,10.87,1.81,15.94-3.26,51.83-1.09,59.81,12.69,28.63,7.61,33.7-24.28,12-25.73,12.69.72,5.07-6.52,4-10.52-3.27-31.17,3.62-84.82.73-110.91,4S9.19,285.72,6.32,276.92c-.88-2.69-13.77-114.53,0-144.61C2.7,113.82,10,81.93,11,70S18.64,16.69,25.89,10.53Z"/><path class="cls-2" d="M26.26,108.75c-1.11-1.65-2.44-20-2.81-39.4-.36-18.92.2-38.86,2.81-45.41,5.27-13.27,2.53-8.7,4.71-4.71s8.85,72,2.9,87.35C30.5,115.27,26.26,108.75,26.26,108.75Z"/><path class="cls-3" d="M171.48,95.59c-1.48-1-.49-6.76-.7-12.94s-1.68-17.9.57-24.52C174,50.43,176.76,9,179.24,9,181.39,9,189.58,107.93,171.48,95.59Z"/><path class="cls-4" d="M195.65,202.76c-.08.06-28.32,29.22-47.89,40.6-3.94,6.88-11.74,16.5-27.14,28.63C108.66,281.41,188.76,232.12,195.65,202.76Z"/><path class="cls-4" d="M215.45,234.16c-1-3.84-.83-16.68-.33-29.52-7.47,14.6-19.05,36.32-28.66,45.46-9.08,8.64-13.69,23.75-17.06,35.12,12.23-3.18,15.49-1.57,21.41-.68,7.24,1.08,5.07-3.27,6.52-4s20.66-7.61,25.73-12.69S217.63,242.13,215.45,234.16Z"/><path class="cls-4" d="M192.73,22.71c2.17,20.34,8.84,66.39,9.67,73.84,1.09,9.66,6.17,12.93,7.62,22.35.69,4.5,2,9.74,4.72,13.76.28-10.1,1-20.85,2.52-27.53,3.63-15.59-5.07-27.19-6.16-37.7C210.35,60.19,200.83,38.85,192.73,22.71Z"/><path class="cls-4" d="M45.83,263.88s-8.34,6.52-21-8.7C17,245.8,8.2,240.61,2.35,238.52c1.66,21.34,3.65,37.41,4,38.4,2.87,8.8,16.31,18.49,42.41,15.23a165.35,165.35,0,0,1,16.82-1,16.25,16.25,0,0,0,1.3-11.36C62.86,265.33,45.83,263.88,45.83,263.88Z"/><path class="cls-4" d="M169.3,102.47c-3.5-1.69-7,6.23-11.77,14.74-6.11,10.87-24.19,24.44-45.43,19.81C65.71,126.9,83.47,191.75,94,197.91c14.5,8.46,12.76-31.25,39.23-37.33C163.26,153.69,172.8,104.16,169.3,102.47Z"/><path class="cls-4" d="M42.4,113s21.74-4.35,39.86,0c6.89,1.63,7.8,6.16,15.59,7.61s19.57-3.8,19.57-3.8-11.6,9.61-19.57,8.34S75.56,115.93,42.4,113Z"/><path class="cls-4" d="M117.65,108.1c9.18.94,10.45-2.74,19-2.74s9.6,3.9,15.4,3.61-17.07,4-19,3.75C124.3,111.86,112.68,107.59,117.65,108.1Z"/><path class="cls-2" d="M43.78,105c-1.16-.36,20.48,1.88,29.36-3.62,5.5-3.4,29.53,3.74,37.69,2.32s15-3.12,18.85-4.86,20.29,4.68,25.19,3.43,11-7.24,11-7.24-3.91,12.33-8.39,12.69-21.15-8-26.95-6.34-16.53,4.51-19.75,5.07c-8.7,1.53-27.3-3.71-34.43-1.27C69,107.7,59.9,110,43.78,105Z"/><path class="cls-4" d="M19.45,84.81S13.9,163.26,34.86,196.45s8.63,16.75,18.94,28.77S58.19,207.66,39,186.15C24.75,170.21,19.45,84.81,19.45,84.81Z"/></g></g></svg>