<svg xmlns="http://www.w3.org/2000/svg" viewBox="0 0 247.71 235.47"><defs><style>.cls-1{fill:#fff;}.cls-2{fill:#e2e2e2;opacity:0.61;}</style></defs><title>glasssign</title><g id="Layer_2" data-name="Layer 2"><g id="background"><rect class="cls-1" x="20.36" y="-5.04" width="206.98" height="242.9" transform="matrix(0.02, -1, 1, 0.02, 4.56, 237.48)"/><path class="cls-2" d="M134.42,0c2,.33,15.83.5,23.24.56a1.47,1.47,0,0,1,.81,2.68h0a1.48,1.48,0,0,0,0,2.42l2.72,1.92a1.47,1.47,0,0,1,0,2.37l-.63.48a1.47,1.47,0,0,0-.33,2l2.08,3a1.47,1.47,0,0,1-.59,2.16l-2.37,1.12a1.47,1.47,0,0,0-.5,2.28l.42.49A1.47,1.47,0,0,1,158.16,24l-51.41-1a1.47,1.47,0,0,1-1.07-2.44l.91-1a1.47,1.47,0,0,0-.53-2.33l-3-1.27a1.47,1.47,0,0,1-.31-2.52l1.91-1.46a1.46,1.46,0,0,0,.35-2l-3.7-5.72a1.48,1.48,0,0,1,1.15-2.27L134.13,0Z"/><path class="cls-2" d="M125.5,208.66c1.72.67,27.83,3.64,27.83,3.64l-6,3.22,5.6,4.93-3.6,2.16,3.22,6-5.93,2.05,3.27,4.82-57.39-7.36,4.87-4.44-6.82-3.82L96,216.61l-4.8-9.56Z"/><path d="M78.68,119.74a10.19,10.19,0,0,1-3.8,7.75,12.08,12.08,0,0,1-8.2,3.4q-6.35,0-9.4-4.95-2.45-4.06-2.45-10.87a26.43,26.43,0,0,1,3-12.52q3.55-6.85,9.8-6.86A9.87,9.87,0,0,1,73,97.15a6.9,6.9,0,0,1,3.15,4.51c.33,1.57.5,2.33.5,2.26,0,4.42-1,6.62-3,6.62a2.58,2.58,0,0,1-1.65-.6,1.87,1.87,0,0,1-.75-1.51,3.52,3.52,0,0,1,.52-1.45,3.36,3.36,0,0,0,.53-1.51,7.62,7.62,0,0,0-.7-3.92c-.59-1-1.77-1.46-3.53-1.46s-3.46,1.12-5,3.36a15.9,15.9,0,0,0-2.49,5.86,33.29,33.29,0,0,0-.6,6,22.13,22.13,0,0,0,.75,6.81,6.8,6.8,0,0,0,4.83,4.46,7.11,7.11,0,0,0,1.79.3,6.4,6.4,0,0,0,3.79-1.5,10.33,10.33,0,0,0,2.69-3.15,6.57,6.57,0,0,0,.65-2.65l-.2-.15a14.29,14.29,0,0,0-5.5.85c-.4.2-.8.42-1.2.65a3.26,3.26,0,0,1-1.25.35,2.23,2.23,0,0,1-2-1.05,4.11,4.11,0,0,1-.7-2.35,2.07,2.07,0,0,1,1.15-1.8,21.81,21.81,0,0,1,4.7-1,47.59,47.59,0,0,1,5-.45C77.31,114.69,78.68,116.38,78.68,119.74Z"/><path d="M102.83,128.54a33.31,33.31,0,0,1-11.4,2q-4.7,0-6.6-3.3-1.45-2.55-1.45-7.6,0-2.94.45-8.75t.45-8.75c0-.36,0-1-.08-1.75s-.07-1.4-.07-1.8a9.76,9.76,0,0,1,.1-1.35A3.08,3.08,0,0,1,86.68,96c.93,0,1.65.6,2.15,1.8a7.58,7.58,0,0,1,.6,3q0,3.4-.65,10.1t-.65,10c0,3.94,1.12,5.9,3.35,5.9a13.81,13.81,0,0,0,4.3-1,13.6,13.6,0,0,1,4.3-1,2.38,2.38,0,0,1,2.15,1.25A4.8,4.8,0,0,1,102.83,128.54Z"/><path d="M132.73,121c0,1.6-.72,2.42-2.15,2.45a17.72,17.72,0,0,0,1.1,3.1,2.33,2.33,0,0,1-.9,1.8,3,3,0,0,1-2,.7,5.12,5.12,0,0,1-2.1-.55,6.89,6.89,0,0,1-.65-3.1c0-.3,0-.73,0-1.3s0-1,0-1.25c0,.24-.55.35-1.65.35-1.87,0-4.08.09-6.65.25-3.67.2-5.66.49-6,.85s-.53,2.15-.63,5.35a1.92,1.92,0,0,1-1.65,1,3.48,3.48,0,0,1-2.15-.87,2.46,2.46,0,0,1-1.1-1.88,17.54,17.54,0,0,1,.9-2.8q1-3.54,3.25-10.65Q117.19,96,121.63,96t6.7,9.7a107.84,107.84,0,0,1,1.95,13.35,7.75,7.75,0,0,1,1.65.5A1.51,1.51,0,0,1,132.73,121Zm-7-1.9q-2.2-17.45-4-17.45-1.4,0-4.9,8.2-2.5,5.91-3.95,10.25c1.07-.23,2.65-.51,4.75-.85A54.42,54.42,0,0,1,125.73,119.09Z"/><path d="M159,124.93q0,3.06-3.55,4.71a14.21,14.21,0,0,1-6.25,1.35,24,24,0,0,1-7.4-1.4q-5.25-1.8-5.25-4.2a2.22,2.22,0,0,1,2.2-2.2,3.58,3.58,0,0,1,2.5,1.1q2,1.65,2.1,1.8,1.75,1,6.3,1c2.7,0,4.05-.61,4.05-1.85q0-1.55-3.8-4.3l-5.3-3.4a20.57,20.57,0,0,1-5-4.35,9.94,9.94,0,0,1-2-6.2,12.4,12.4,0,0,1,2.7-7.85,8.75,8.75,0,0,1,7.2-3.8,9.73,9.73,0,0,1,6.25,2A9.16,9.16,0,0,1,157,103c.1.94.3,2.32.6,4.15a5.82,5.82,0,0,1,.2,1.2,7,7,0,0,1-.6,3,2.46,2.46,0,0,1-2.35,1.7,2.87,2.87,0,0,1-2.55-2.56,9.3,9.3,0,0,1,.3-1.93,9.3,9.3,0,0,0,.3-1.93q0-6.78-4.5-6.78a5.17,5.17,0,0,0-4.2,2.13,7.35,7.35,0,0,0-1.7,4.68c0,2.41,1.43,4.74,4.3,7q3.94,2.65,7.95,5.31Q159,122.13,159,124.93Z"/><path d="M184.28,124.93q0,3.06-3.55,4.71a14.21,14.21,0,0,1-6.25,1.35,24,24,0,0,1-7.4-1.4q-5.25-1.8-5.25-4.2a2.22,2.22,0,0,1,2.2-2.2,3.58,3.58,0,0,1,2.5,1.1q2,1.65,2.1,1.8,1.76,1,6.3,1c2.7,0,4-.61,4-1.85q0-1.55-3.8-4.3l-5.3-3.4a20.57,20.57,0,0,1-4.95-4.35,9.94,9.94,0,0,1-2.05-6.2,12.4,12.4,0,0,1,2.7-7.85,8.75,8.75,0,0,1,7.2-3.8,9.73,9.73,0,0,1,6.25,2,9.16,9.16,0,0,1,3.25,5.67c.1.94.3,2.32.6,4.15a5.82,5.82,0,0,1,.2,1.2,7,7,0,0,1-.6,3,2.46,2.46,0,0,1-2.35,1.7,2.87,2.87,0,0,1-2.55-2.56,9.3,9.3,0,0,1,.3-1.93,9.3,9.3,0,0,0,.3-1.93q0-6.78-4.5-6.78a5.17,5.17,0,0,0-4.2,2.13,7.35,7.35,0,0,0-1.7,4.68c0,2.41,1.43,4.74,4.3,7q3.94,2.65,7.95,5.31Q184.28,122.13,184.28,124.93Z"/></g></g></svg>