<svg xmlns="http://www.w3.org/2000/svg" viewBox="0 0 247.71 235.47"><defs><style>.cls-1{fill:#fff;}.cls-2{fill:#e2e2e2;opacity:0.61;}</style></defs><title>glasssign</title><g id="Layer_2" data-name="Layer 2"><g id="background"><rect class="cls-1" x="20.36" y="-5.04" width="206.98" height="242.9" transform="matrix(0.02, -1, 1, 0.02, 4.56, 237.48)"/><path class="cls-2" d="M134.42,0c2,.33,15.83.5,23.24.56a1.47,1.47,0,0,1,.81,2.68h0a1.48,1.48,0,0,0,0,2.42l2.72,1.92a1.47,1.47,0,0,1,0,2.37l-.63.48a1.47,1.47,0,0,0-.33,2l2.08,3a1.47,1.47,0,0,1-.59,2.16l-2.37,1.12a1.47,1.47,0,0,0-.5,2.28l.42.49A1.47,1.47,0,0,1,158.16,24l-51.41-1a1.47,1.47,0,0,1-1.07-2.44l.91-1a1.47,1.47,0,0,0-.53-2.33l-3-1.27a1.47,1.47,0,0,1-.31-2.52l1.91-1.46a1.46,1.46,0,0,0,.35-2l-3.7-5.72a1.48,1.48,0,0,1,1.15-2.27L134.13,0Z"/><path class="cls-2" d="M125.5,208.66c1.72.67,27.83,3.64,27.83,3.64l-6,3.22,5.6,4.93-3.6,2.16,3.22,6-5.93,2.05,3.27,4.82-57.39-7.36,4.87-4.44-6.82-3.82L96,216.61l-4.8-9.56Z"/></g></g></svg>