<svg xmlns="http://www.w3.org/2000/svg" viewBox="0 0 908 1090.39"><defs><style>.cls-1{fill:#0d6f40;}.cls-2{fill:#3c423f;}.cls-3{fill:#0f5b35;}.cls-4{fill:#fff;}.cls-5{fill:#dee1df;}.cls-6{fill:#eaeaea;}.cls-7{fill:#66c144;}.cls-8{fill:#0b5932;}.cls-9{fill:#60af3f;}</style></defs><title>instruct4</title><g id="Layer_2" data-name="Layer 2"><g id="instruct4"><rect class="cls-1" x="10" y="75.6" width="888" height="1004.79"/><path class="cls-2" d="M888,85.61v984.78H20V85.61H888m20-20H0V1090.39H908V65.61Z"/><g id="shade"><path class="cls-3" d="M13,77v994H881V77Zm848.88,974.6H32.12V96.4H861.88Z"/></g><rect class="cls-4" x="198" y="5" width="498" height="130"/><path class="cls-2" d="M691,10V130H203V10H691M701,0H193V140H701V0Z"/><path id="shade-2" data-name="shade" class="cls-5" d="M203,10V130H691V10ZM684,123H210V17H684Z"/><path d="M268.26,47.83V92.11a.89.89,0,0,1-1,1H264a.89.89,0,0,1-1-1V47.83a.89.89,0,0,1,1-1h3.24A.89.89,0,0,1,268.26,47.83Z"/><path d="M284.18,93.12H281a.89.89,0,0,1-1-1V47.83a.89.89,0,0,1,1-1H284a1.14,1.14,0,0,1,1.15.58L305,82.32h.29V47.83a.9.9,0,0,1,1-1h3.17a.9.9,0,0,1,1,1V92.11a.9.9,0,0,1-1,1h-2.67a2,2,0,0,1-1.51-.94l-19.8-34.56h-.29V92.11A.89.89,0,0,1,284.18,93.12Z"/><path d="M321.33,82.46v-2.3a.89.89,0,0,1,1-1h3.24a.89.89,0,0,1,1,1V82q0,6.48,6.41,6.48h6.34q6.41,0,6.41-6.62V79.44q0-5.19-8.57-6.77c-2.4-.43-4.8-.94-7.2-1.51a12.79,12.79,0,0,1-6.12-3.35,9.12,9.12,0,0,1-2.52-6.8V57.48A9.84,9.84,0,0,1,332,46.82h8a9.89,9.89,0,0,1,10.65,10.66v1.8q0,1.08-.93,1.08h-3.32q-.93,0-.93-1.08V58q0-6.55-6.41-6.55h-6.12q-6.41,0-6.41,6.84v2.88q0,3.68,4.83,5c1.44.38,3,.73,4.75,1s3.46.72,5.22,1.23a26.25,26.25,0,0,1,4.79,1.87,8.58,8.58,0,0,1,3.49,3.38,10.71,10.71,0,0,1,1.33,5.51v3.24a9.89,9.89,0,0,1-10.66,10.66H332a9.89,9.89,0,0,1-10.65-10.66Z"/><path d="M373.09,93.12h-3.24a.89.89,0,0,1-1-1v-40c0-.43-.24-.65-.72-.65h-9.8c-.72,0-1.08-.34-1.08-1V47.83c0-.67.36-1,1.08-1h26.28c.72,0,1.08.34,1.08,1v2.59c0,.67-.36,1-1.08,1h-9.79c-.48,0-.72.22-.72.65v40A.89.89,0,0,1,373.09,93.12Z"/><path d="M396.78,93.12h-3.24a.9.9,0,0,1-1-1V47.83a.9.9,0,0,1,1-1H410.1A10.68,10.68,0,0,1,418,49.67a10.47,10.47,0,0,1,2.88,7.81V64a10.93,10.93,0,0,1-1.94,6.66,9.27,9.27,0,0,1-5.4,3.49v.29L421.84,92c.43.76.19,1.15-.72,1.15h-3.24a1.93,1.93,0,0,1-1.8-1L408,74.69h-9.5c-.48,0-.72.21-.72.64V92.11A.9.9,0,0,1,396.78,93.12Zm1.73-22.83h10.87q6.19,0,6.19-6.19V57.69q0-6.25-6.19-6.26H398.51c-.48,0-.72.22-.72.65V69.65C397.79,70.08,398,70.29,398.51,70.29Z"/><path d="M455.82,46.82h3.24c.67,0,1,.31,1,.94v34.7q0,5-2.81,7.85a10.51,10.51,0,0,1-7.78,2.81h-8a10.65,10.65,0,0,1-7.81-2.81c-1.9-1.87-2.84-4.49-2.84-7.85V47.83a.89.89,0,0,1,1-1h3.24a.89.89,0,0,1,1,1V82.25q0,6.25,6,6.26h6.77q6,0,6-6.26V47.83C454.88,47.16,455.2,46.82,455.82,46.82Z"/><path d="M489.66,93.12H481a10.63,10.63,0,0,1-7.81-2.81q-2.85-2.81-2.85-7.85v-25q0-5,2.85-7.85A10.63,10.63,0,0,1,481,46.82h8.64a10.63,10.63,0,0,1,7.81,2.81q2.85,2.81,2.85,7.85V61a.89.89,0,0,1-1,1h-3.24a.88.88,0,0,1-1-1V57.69q0-6.25-6.05-6.26H481.6q-6,0-6,6.26V82.25q0,6.25,6,6.26H489q6,0,6.05-6.26V78.93a.88.88,0,0,1,1-1h3.24a.89.89,0,0,1,1,1v3.53q0,5-2.85,7.85A10.63,10.63,0,0,1,489.66,93.12Z"/><path d="M521.34,93.12H518.1a.9.9,0,0,1-1-1v-40c0-.43-.24-.65-.72-.65h-9.79c-.72,0-1.08-.34-1.08-1V47.83c0-.67.36-1,1.08-1h26.28c.72,0,1.08.34,1.08,1v2.59c0,.67-.36,1-1.08,1h-9.79c-.48,0-.72.22-.72.65v40A.9.9,0,0,1,521.34,93.12Z"/><path d="M546.39,47.83V92.11a.89.89,0,0,1-1,1h-3.24a.89.89,0,0,1-1-1V47.83a.89.89,0,0,1,1-1h3.24A.89.89,0,0,1,546.39,47.83Z"/><path d="M576.63,93.12h-8.56a10.66,10.66,0,0,1-7.82-2.81q-2.84-2.81-2.84-7.85v-25q0-5,2.84-7.85a10.66,10.66,0,0,1,7.82-2.81h8.56a9.84,9.84,0,0,1,10.66,10.66v25a9.84,9.84,0,0,1-10.66,10.66Zm-8-4.61H576q6,0,6-6.26V57.69q0-6.25-6-6.26h-7.35q-6,0-6,6.26V82.25Q562.67,88.51,568.64,88.51Z"/><path d="M602.12,93.12H599a.89.89,0,0,1-1-1V47.83a.89.89,0,0,1,1-1h3a1.16,1.16,0,0,1,1.15.58l19.87,34.92h.29V47.83a.89.89,0,0,1,1-1h3.17a.9.9,0,0,1,1,1V92.11a.9.9,0,0,1-1,1h-2.66a2,2,0,0,1-1.51-.94l-19.8-34.56h-.29V92.11A.9.9,0,0,1,602.12,93.12Z"/><path class="cls-4" d="M284.23,688.63h-3.44a.76.76,0,0,1-.86-.85v-8.67l-7.41-15.64a.59.59,0,0,1,.57-.89h4.29c.43,0,.76.28,1,.85l4.06,9.84h.28l4-9.84c.19-.57.51-.85,1-.85h4.3a.71.71,0,0,1,.59.24.61.61,0,0,1,0,.65l-7.42,15.64v8.67A.75.75,0,0,1,284.23,688.63Z"/><path class="cls-4" d="M305.1,688.63h-3.61a6.79,6.79,0,0,1-4.94-1.7,6.56,6.56,0,0,1-1.74-4.9v-7.46a6.54,6.54,0,0,1,1.74-4.9,6.76,6.76,0,0,1,4.94-1.71h3.61a6.72,6.72,0,0,1,4.92,1.73,6.47,6.47,0,0,1,1.76,4.88V682a6.5,6.5,0,0,1-1.76,4.88A6.72,6.72,0,0,1,305.1,688.63Zm-2.84-4.42h2.07a2.61,2.61,0,0,0,1.84-.52,2.46,2.46,0,0,0,.55-1.83v-7.13a2.45,2.45,0,0,0-.55-1.82,2.61,2.61,0,0,0-1.84-.53h-2.07a2,2,0,0,0-2.35,2.35v7.13a2,2,0,0,0,2.35,2.35Z"/><path class="cls-4" d="M323.29,688.63H322a6.19,6.19,0,0,1-4.72-1.7,6.93,6.93,0,0,1-1.6-4.9V668.82a.76.76,0,0,1,.85-.86h3.45a.76.76,0,0,1,.85.86v13a2.54,2.54,0,0,0,.55,1.85,2.48,2.48,0,0,0,1.8.54h1.5c1.86,0,2.79-1,2.79-3.08V668.82a.76.76,0,0,1,.85-.86h3.41a.78.78,0,0,1,.89.86v19c0,.57-.3.85-.89.85h-3.41a.75.75,0,0,1-.85-.85v-1.34h-.16a3,3,0,0,1-1.58,1.64A5.37,5.37,0,0,1,323.29,688.63Z"/><path class="cls-4" d="M350.24,688.63h-3.45a.75.75,0,0,1-.85-.85V661a.76.76,0,0,1,.85-.86h3.45a.76.76,0,0,1,.85.86v9.15h.16c.59-1.46,1.92-2.19,4-2.19h1.3q6.36,0,6.36,6.61v13.21c0,.57-.3.85-.89.85h-3.41a.75.75,0,0,1-.85-.85v-13a2,2,0,0,0-2.39-2.39h-1.46c-1.86,0-2.79,1-2.79,3.08v12.28A.75.75,0,0,1,350.24,688.63Z"/><path class="cls-4" d="M374.38,688.63h-1a6.79,6.79,0,0,1-4.94-1.7,6.56,6.56,0,0,1-1.74-4.9v-7.46a6.54,6.54,0,0,1,1.74-4.9,6.76,6.76,0,0,1,4.94-1.71h9.36c.6,0,.89.29.89.86v19c0,.57-.29.85-.89.85h-3.4a.75.75,0,0,1-.85-.85v-1.34h-.16a3.08,3.08,0,0,1-1.58,1.64A5.41,5.41,0,0,1,374.38,688.63Zm4.14-7.54v-8.22c0-.3-.16-.45-.49-.45h-3.81a2.45,2.45,0,0,0-1.82.55,2.61,2.61,0,0,0-.53,1.84v7a2.64,2.64,0,0,0,.53,1.85,2.49,2.49,0,0,0,1.82.54h1.5C377.59,684.17,378.52,683.15,378.52,681.09Z"/><path class="cls-4" d="M387.23,668h3.57a.92.92,0,0,1,1,.86l3.48,15.23h.29l3.4-15.23a.94.94,0,0,1,1-.86h3.57c.57,0,.77.29.61.86L399,687.74a1,1,0,0,1-1.09.89h-5.15a1.06,1.06,0,0,1-1.09-.89l-5.07-18.92C386.46,668.25,386.66,668,387.23,668Z"/><path class="cls-4" d="M422.32,688.63h-9a6.79,6.79,0,0,1-4.94-1.7,6.56,6.56,0,0,1-1.74-4.9v-7.46a6.54,6.54,0,0,1,1.74-4.9,6.76,6.76,0,0,1,4.94-1.71h3.21a6.76,6.76,0,0,1,4.94,1.71,6.54,6.54,0,0,1,1.74,4.9v5.15a.75.75,0,0,1-.85.85H412.23c-.32,0-.49.14-.49.44v.89a2.53,2.53,0,0,0,.55,1.81,2.58,2.58,0,0,0,1.84.54h8.19c.57,0,.85.3.85.9v2.67a.88.88,0,0,1-.18.63A1,1,0,0,1,422.32,688.63Zm-10.09-11.51h5.51a.39.39,0,0,0,.45-.44v-1.95a2,2,0,0,0-2.35-2.35h-1.71a2,2,0,0,0-2.35,2.35v1.95A.39.39,0,0,0,412.23,677.12Z"/><path class="cls-4" d="M442.66,673.48h2.07a2.79,2.79,0,0,0,1.92-.55,2.4,2.4,0,0,0,.59-1.81v-1.9a2.36,2.36,0,0,0-.59-1.8,2.74,2.74,0,0,0-1.92-.55h-2a2.45,2.45,0,0,0-1.82.55,2.53,2.53,0,0,0-.53,1.8v1a.75.75,0,0,1-.85.85h-3.44a.75.75,0,0,1-.85-.85v-1.09a6.48,6.48,0,0,1,1.74-4.86,6.75,6.75,0,0,1,4.94-1.7h3.61a6.75,6.75,0,0,1,4.94,1.7,6.48,6.48,0,0,1,1.74,4.86v2a4.21,4.21,0,0,1-3.2,4.41c2.14.46,3.2,1.93,3.2,4.42v2.07a6.51,6.51,0,0,1-1.74,4.86,6.79,6.79,0,0,1-4.94,1.7H442a6.79,6.79,0,0,1-4.94-1.7,6.51,6.51,0,0,1-1.74-4.86v-1.14c0-.59.28-.89.85-.89h3.44c.57,0,.85.3.85.89V682a2,2,0,0,0,2.35,2.35h2a2.79,2.79,0,0,0,1.92-.54,2.4,2.4,0,0,0,.59-1.81v-2a2.36,2.36,0,0,0-.59-1.8,2.74,2.74,0,0,0-1.92-.55h-2.07a.75.75,0,0,1-.85-.85v-2.43C441.81,673.77,442.09,673.48,442.66,673.48Z"/><path class="cls-4" d="M467.3,688.63h-4.06a6.79,6.79,0,0,1-4.94-1.7,6.56,6.56,0,0,1-1.74-4.9V669.18a6.54,6.54,0,0,1,1.74-4.9,6.75,6.75,0,0,1,4.94-1.7h4.06a6.67,6.67,0,0,1,4.9,1.72,6.56,6.56,0,0,1,1.74,4.88V682a6.57,6.57,0,0,1-1.74,4.88A6.67,6.67,0,0,1,467.3,688.63Zm-3.21-4.46h2.4a2.49,2.49,0,0,0,1.82-.54,2.64,2.64,0,0,0,.52-1.85V669.42a2.61,2.61,0,0,0-.52-1.84,2.45,2.45,0,0,0-1.82-.55h-2.4a2.45,2.45,0,0,0-1.82.55,2.61,2.61,0,0,0-.53,1.84v12.36a2.64,2.64,0,0,0,.53,1.85A2.49,2.49,0,0,0,464.09,684.17Z"/><path class="cls-4" d="M495.09,688.63h-7.7c-.54,0-.81-.28-.81-.85v-2.59a1,1,0,0,1,.16-.63.89.89,0,0,1,.65-.18h6.77c1.32,0,2-.41,2-1.22V683c0-.65-.55-1.27-1.66-1.87l-4-2.23a9.13,9.13,0,0,1-3-2.26,4.83,4.83,0,0,1-1-3.12,5.32,5.32,0,0,1,1.5-4.18,6.94,6.94,0,0,1,4.7-1.34h6.77c.54,0,.81.29.81.86v2.63a1,1,0,0,1-.16.63.89.89,0,0,1-.65.18h-5.64c-1.32,0-2,.34-2,1v.21c0,.59.58,1.2,1.74,1.82l4.09,2.43a8.55,8.55,0,0,1,3,2.33,5.28,5.28,0,0,1,.85,3.14Q501.45,688.63,495.09,688.63Z"/><path class="cls-4" d="M520.25,688.63H511.3a6.79,6.79,0,0,1-4.94-1.7,6.52,6.52,0,0,1-1.75-4.9v-7.46a6.51,6.51,0,0,1,1.75-4.9A6.76,6.76,0,0,1,511.3,668h3.2a6.76,6.76,0,0,1,4.94,1.71,6.55,6.55,0,0,1,1.75,4.9v5.15a.76.76,0,0,1-.86.85H510.17c-.33,0-.49.14-.49.44v.89a2.48,2.48,0,0,0,.55,1.81,2.54,2.54,0,0,0,1.84.54h8.18c.57,0,.86.3.86.9v2.67a.88.88,0,0,1-.19.63A.94.94,0,0,1,520.25,688.63Zm-10.08-11.51h5.51a.39.39,0,0,0,.44-.44v-1.95a2.49,2.49,0,0,0-.53-1.82,2.54,2.54,0,0,0-1.82-.53h-1.7a2.52,2.52,0,0,0-1.82.53,2.49,2.49,0,0,0-.53,1.82v1.95A.39.39,0,0,0,510.17,677.12Z"/><path class="cls-4" d="M538.2,685v2.8a.88.88,0,0,1-.18.63.94.94,0,0,1-.67.18h-6a6.8,6.8,0,0,1-5-1.7,6.56,6.56,0,0,1-1.74-4.9v-7.46a6.54,6.54,0,0,1,1.74-4.9,6.77,6.77,0,0,1,5-1.71h6a.76.76,0,0,1,.85.86v2.79a.88.88,0,0,1-.18.63.94.94,0,0,1-.67.18h-5.22a2.48,2.48,0,0,0-1.81.55,2.56,2.56,0,0,0-.54,1.84v7a2.59,2.59,0,0,0,.54,1.85,2.53,2.53,0,0,0,1.81.54h5.22A.75.75,0,0,1,538.2,685Z"/><path class="cls-4" d="M551.58,688.63H548a6.78,6.78,0,0,1-4.94-1.7,6.52,6.52,0,0,1-1.75-4.9v-7.46a6.51,6.51,0,0,1,1.75-4.9A6.74,6.74,0,0,1,548,668h3.61a6.75,6.75,0,0,1,4.92,1.73,6.51,6.51,0,0,1,1.76,4.88V682a6.54,6.54,0,0,1-1.76,4.88A6.75,6.75,0,0,1,551.58,688.63Zm-2.84-4.42h2.07a2.63,2.63,0,0,0,1.84-.52,2.5,2.5,0,0,0,.55-1.83v-7.13a2.49,2.49,0,0,0-.55-1.82,2.63,2.63,0,0,0-1.84-.53h-2.07a2.52,2.52,0,0,0-1.82.53,2.49,2.49,0,0,0-.53,1.82v7.13a2,2,0,0,0,2.35,2.35Z"/><path class="cls-4" d="M566.61,688.63h-3.45a.75.75,0,0,1-.85-.85v-19a.76.76,0,0,1,.85-.86h3.45a.76.76,0,0,1,.85.86v1.33h.16c.59-1.46,1.92-2.19,4-2.19h1.3q6.36,0,6.36,6.61v13.21c0,.57-.3.85-.89.85H575a.76.76,0,0,1-.86-.85v-13a2,2,0,0,0-2.39-2.39h-1.46c-1.86,0-2.79,1-2.79,3.08v12.28A.75.75,0,0,1,566.61,688.63Z"/><path class="cls-4" d="M591.08,688.63h-1.66a6.19,6.19,0,0,1-4.72-1.7,6.89,6.89,0,0,1-1.6-4.9v-7.46a6.87,6.87,0,0,1,1.6-4.9,6.16,6.16,0,0,1,4.72-1.71h1.66a5.47,5.47,0,0,1,2.39.55,3.08,3.08,0,0,1,1.58,1.64h.16V661a.76.76,0,0,1,.86-.86h3.44a.76.76,0,0,1,.85.86v26.78a.75.75,0,0,1-.85.85h-3.44a.76.76,0,0,1-.86-.85v-1.34h-.16a3,3,0,0,1-1.58,1.64A5.34,5.34,0,0,1,591.08,688.63Zm4.13-7.54V675.5c0-2-.93-3.08-2.79-3.08h-1.83a2.45,2.45,0,0,0-1.82.55,2.61,2.61,0,0,0-.52,1.84v7a2.64,2.64,0,0,0,.52,1.85,2.49,2.49,0,0,0,1.82.54h1.83C594.28,684.17,595.21,683.15,595.21,681.09Z"/><path class="cls-4" d="M612.64,688.63h-7.7c-.54,0-.81-.28-.81-.85v-2.59a.94.94,0,0,1,.16-.63.89.89,0,0,1,.65-.18h6.77c1.32,0,2-.41,2-1.22V683c0-.65-.55-1.27-1.66-1.87l-4-2.23a9.13,9.13,0,0,1-3-2.26,4.83,4.83,0,0,1-1-3.12,5.32,5.32,0,0,1,1.5-4.18,6.92,6.92,0,0,1,4.7-1.34H617c.54,0,.81.29.81.86v2.63a.94.94,0,0,1-.16.63.87.87,0,0,1-.65.18h-5.63c-1.32,0-2,.34-2,1v.21c0,.59.58,1.2,1.74,1.82l4.09,2.43a8.65,8.65,0,0,1,3,2.33,5.28,5.28,0,0,1,.85,3.14Q619,688.63,612.64,688.63Z"/><path class="cls-4" d="M622.36,669.71v-6.28a.75.75,0,0,1,.85-.85h3.85a.75.75,0,0,1,.85.85v6.28c0,1.08-.06,2.29-.18,3.62s-.21,2.33-.26,3-.11,1.18-.16,1.58-.09.62-.09.65a.88.88,0,0,1-.93.85H624a.89.89,0,0,1-.93-.85s0-.24-.08-.65-.12-.93-.18-1.58-.13-1.35-.18-2.1C622.44,672,622.36,670.49,622.36,669.71Zm5.43,13.08v5c0,.57-.27.85-.81.85h-3.56c-.54,0-.81-.3-.81-.89v-4.9a.72.72,0,0,1,.81-.81H627C627.52,682,627.79,682.28,627.79,682.79Z"/><path class="cls-4" d="M379.13,737.25h-4.3a6.75,6.75,0,0,1-4.94-1.7,6.55,6.55,0,0,1-1.75-4.9V717.8a6.56,6.56,0,0,1,1.75-4.9,6.79,6.79,0,0,1,4.94-1.7h4.3a6.67,6.67,0,0,1,4.9,1.72,6.57,6.57,0,0,1,1.74,4.88V719c0,.59-.28.89-.85.89h-3.44a.78.78,0,0,1-.86-.89v-1a2.64,2.64,0,0,0-.52-1.85,2.5,2.5,0,0,0-1.83-.54h-2.63a2.48,2.48,0,0,0-1.8.54,2.54,2.54,0,0,0-.55,1.85v12.36a2.53,2.53,0,0,0,.55,1.84,2.48,2.48,0,0,0,1.8.55h2.63a2.5,2.5,0,0,0,1.83-.55,2.63,2.63,0,0,0,.52-1.84v-2.56a.39.39,0,0,0-.44-.44h-2.43a.75.75,0,0,1-.85-.85V723.8a.75.75,0,0,1,.85-.85h7.09a.82.82,0,0,1,.93.93v6.77a6.56,6.56,0,0,1-1.74,4.88A6.67,6.67,0,0,1,379.13,737.25Z"/><path class="cls-4" d="M400.11,737.25h-3.6a6.78,6.78,0,0,1-4.95-1.7,6.54,6.54,0,0,1-1.74-4.9v-7.46a6.54,6.54,0,0,1,1.74-4.9,6.82,6.82,0,0,1,4.95-1.7h3.6a6.76,6.76,0,0,1,4.93,1.72,6.54,6.54,0,0,1,1.76,4.88v7.46a6.53,6.53,0,0,1-1.76,4.88A6.76,6.76,0,0,1,400.11,737.25Zm-2.83-4.41h2.06a2.64,2.64,0,0,0,1.85-.53,2.49,2.49,0,0,0,.55-1.82v-7.13a2.5,2.5,0,0,0-.55-1.83,2.64,2.64,0,0,0-1.85-.53h-2.06a2,2,0,0,0-2.35,2.36v7.13a2.49,2.49,0,0,0,.53,1.82A2.52,2.52,0,0,0,397.28,732.84Z"/><path class="cls-4" d="M420.74,737.25h-3.61a6.75,6.75,0,0,1-4.94-1.7,6.54,6.54,0,0,1-1.74-4.9v-7.46a6.54,6.54,0,0,1,1.74-4.9,6.79,6.79,0,0,1,4.94-1.7h3.61a6.72,6.72,0,0,1,4.92,1.72,6.51,6.51,0,0,1,1.77,4.88v7.46a6.49,6.49,0,0,1-1.77,4.88A6.72,6.72,0,0,1,420.74,737.25Zm-2.84-4.41H420a2.61,2.61,0,0,0,1.84-.53,2.45,2.45,0,0,0,.55-1.82v-7.13a2.46,2.46,0,0,0-.55-1.83A2.61,2.61,0,0,0,420,721H417.9a2,2,0,0,0-2.35,2.36v7.13a2,2,0,0,0,2.35,2.35Z"/><path class="cls-4" d="M439.05,737.25h-1.66a6.16,6.16,0,0,1-4.72-1.7,6.87,6.87,0,0,1-1.6-4.9v-7.46a6.87,6.87,0,0,1,1.6-4.9,6.19,6.19,0,0,1,4.72-1.7h1.66a5.34,5.34,0,0,1,2.39.55,3,3,0,0,1,1.58,1.64h.17v-9.16a.75.75,0,0,1,.85-.85h3.44a.75.75,0,0,1,.85.85V736.4a.75.75,0,0,1-.85.85H444a.75.75,0,0,1-.85-.85v-1.33H443a3.08,3.08,0,0,1-1.58,1.64A5.46,5.46,0,0,1,439.05,737.25Zm4.14-7.53v-5.6c0-2-.94-3.07-2.8-3.07h-1.82a2.5,2.5,0,0,0-1.83.54,2.64,2.64,0,0,0-.52,1.85v7a2.63,2.63,0,0,0,.52,1.84,2.5,2.5,0,0,0,1.83.55h1.82C442.25,732.8,443.19,731.77,443.19,729.72Z"/><path class="cls-4" d="M466.2,737.25h-3.44a.75.75,0,0,1-.85-.85V709.62a.75.75,0,0,1,.85-.85h3.44a.75.75,0,0,1,.85.85V736.4A.75.75,0,0,1,466.2,737.25Z"/><path class="cls-4" d="M479.17,737.25h-1.34a6.16,6.16,0,0,1-4.72-1.7,6.87,6.87,0,0,1-1.6-4.9V717.44a.75.75,0,0,1,.85-.85h3.44a.75.75,0,0,1,.85.85v13a2.58,2.58,0,0,0,.55,1.84,2.52,2.52,0,0,0,1.8.55h1.5c1.87,0,2.8-1,2.8-3.08V717.44a.75.75,0,0,1,.85-.85h3.4c.6,0,.9.28.9.85v19c0,.57-.3.85-.9.85h-3.4a.75.75,0,0,1-.85-.85v-1.33h-.16a3.15,3.15,0,0,1-1.58,1.64A5.53,5.53,0,0,1,479.17,737.25Z"/><path class="cls-4" d="M506.07,733.65v2.79a.88.88,0,0,1-.18.63.94.94,0,0,1-.67.18h-6a6.75,6.75,0,0,1-4.94-1.7,6.54,6.54,0,0,1-1.74-4.9v-7.46a6.54,6.54,0,0,1,1.74-4.9,6.79,6.79,0,0,1,4.94-1.7h6a.75.75,0,0,1,.85.85v2.8a.87.87,0,0,1-.18.62.89.89,0,0,1-.67.19H500a2.52,2.52,0,0,0-1.8.54,2.59,2.59,0,0,0-.55,1.85v7a2.58,2.58,0,0,0,.55,1.84,2.52,2.52,0,0,0,1.8.55h5.23A.75.75,0,0,1,506.07,733.65Z"/><path class="cls-4" d="M513.85,737.25h-3.44a.75.75,0,0,1-.85-.85V709.62a.75.75,0,0,1,.85-.85h3.44a.75.75,0,0,1,.85.85V736.4A.75.75,0,0,1,513.85,737.25Zm7.54-20.66h3.93a.69.69,0,0,1,.65.28c.11.19.06.43-.12.73l-5.39,8.88v.16l5.63,9.6a.64.64,0,0,1,0,.71.83.83,0,0,1-.73.3h-3.48a2.24,2.24,0,0,1-1-.16,2,2,0,0,1-.63-.69l-5.14-9a1.34,1.34,0,0,1,0-1.34L520,717.4A1.48,1.48,0,0,1,521.39,716.59Z"/><path class="cls-4" d="M528.48,718.33v-6.28a.75.75,0,0,1,.85-.85h3.85a.75.75,0,0,1,.85.85v6.28q0,1.62-.18,3.63c-.12,1.33-.21,2.33-.27,3s-.1,1.17-.16,1.58-.08.62-.08.64a.9.9,0,0,1-.93.86H530.1a.9.9,0,0,1-.93-.86s0-.24-.08-.64-.12-.94-.19-1.58-.12-1.36-.18-2.11C528.56,720.61,528.48,719.12,528.48,718.33Zm5.43,13.09v5c0,.57-.27.85-.81.85h-3.57c-.54,0-.81-.29-.81-.89v-4.9a.72.72,0,0,1,.81-.81h3.57C533.64,730.65,533.91,730.91,533.91,731.42Z"/><g id="timer"><path class="cls-4" d="M451,465.5c-49,0-88.9-36.56-88.9-81.5S402,302.5,451,302.5"/><path class="cls-6" d="M450.6,302.5a81.5,81.5,0,0,1,0,163"/><path class="cls-1" d="M450.6,306a78,78,0,1,1-78,78,78.09,78.09,0,0,1,78-78m0-7a85,85,0,1,0,85,85,85,85,0,0,0-85-85h0"/><path class="cls-7" d="M450.6,299a85,85,0,1,1-85,85,85,85,0,0,1,85-85m0-5a90,90,0,1,0,90,90,90.1,90.1,0,0,0-90-90Z"/><g id="symbol"><g id="logo"><path class="cls-1" d="M425.19,286.51l35.55-63.65s-17.36-26.46-43-26.46-47.12,60.35-47.12,60.35Z"/><path class="cls-7" d="M528.53,233.6l19.84-10.74-28.94,52.08L455,278.24l24-13.22c-10.22-15.77-17.28-28-22.69-37.5-14.74-25.81-31.05-28.64-38.49-31.12,6.62,0,78.42-2.31,87.63,4.14C521.91,212.11,528.53,233.6,528.53,233.6Z"/></g><g id="logo-2" data-name="logo"><path class="cls-1" d="M391.93,480.86l-72.9,1s-14.23,28.26-1.41,50.46S393.44,543,393.44,543Z"/><path class="cls-7" d="M294.44,417.83,275.22,406l59.57-1,35.1,54.19-23.44-14.15c-8.55,16.74-15.63,29-21.14,38.4-15,25.67-9.27,41.21-7.69,48.89-3.31-5.73-41.22-66.75-40.24-78C279.14,434.3,294.44,417.83,294.44,417.83Z"/></g><g id="logo-3" data-name="logo"><path class="cls-1" d="M527.88,439.63l37.35,62.61s31.59-1.81,44.4-24-28.7-71-28.7-71Z"/><path class="cls-7" d="M522,555.57l-.61,22.56L490.78,527l29.38-57.5-.54,27.38c18.77-1,32.91-1,43.83-.9,29.71.14,40.31-12.57,46.18-17.77-3.31,5.72-37.2,69.06-47.39,73.82C544,560.59,522,555.57,522,555.57Z"/></g></g><path class="cls-1" d="M387.66,387.38H397v3.51q0,3.74,1.66,5.49c1.11,1.17,2.92,1.76,5.45,1.76h19.08q3.78,0,5.45-1.76t1.66-5.49v-5.13q0-3.79-1.66-5.5t-5.45-1.71H403.55v-9.24h19.31q3.47-.13,5-1.87t1.5-5.33v-4.34q0-3.79-1.69-5.55t-5.43-1.75H405q-3.74,0-5.4,1.75t-1.66,5.55v3.51h-9.29v-4q0-16.11,16.08-16.12h17.78q8.17,0,12.13,4t3.95,12.15v1.2a19.23,19.23,0,0,1-2,9.22,12.24,12.24,0,0,1-5.7,5.38,10.79,10.79,0,0,1,6.42,5q2.22,3.75,2.22,9.93v3.33q0,16.08-16.08,16.07H403.78q-16.11,0-16.12-16.07Z"/><path class="cls-1" d="M505.78,398a9.34,9.34,0,0,1-.74,3.68,9.49,9.49,0,0,1-5.06,5.06,9.28,9.28,0,0,1-3.67.73H463.19a9.25,9.25,0,0,1-3.67-.73,9.49,9.49,0,0,1-5.06-5.06,9.17,9.17,0,0,1-.74-3.68v-47.3a9.36,9.36,0,0,1,2.77-6.67,10,10,0,0,1,3-2,9.1,9.1,0,0,1,3.67-.76h33.12a9.14,9.14,0,0,1,3.67.76,10,10,0,0,1,3,2,9.09,9.09,0,0,1,2,3,9.29,9.29,0,0,1,.74,3.67Zm-42.59-47.3V398h33.12v-47.3Z"/><path class="cls-8" d="M451,299v7a78,78,0,0,1,0,156v7a85,85,0,0,0,0-170Z"/><path class="cls-9" d="M451,294v5a85,85,0,0,1,0,170v5a90,90,0,0,0,0-180Z"/></g></g></g></svg>