<svg xmlns="http://www.w3.org/2000/svg" viewBox="0 0 209.7 239.14"><defs><style>.cls-1{fill:#a4fcfa;}.cls-13,.cls-2{fill:#f2f1ed;}.cls-2{fill-opacity:0.22;}.cls-10,.cls-11,.cls-3{fill:#87ccc9;}.cls-4{fill:#80002f;opacity:0.54;}.cls-5{fill:#cc3d3f;}.cls-6{fill:#f24e5e;}.cls-7{fill:#a01515;}.cls-8{fill:#eef1f0;}.cls-9{fill:#ff5858;}.cls-10{fill-opacity:0.62;}.cls-11{fill-opacity:0.71;}.cls-12{fill:#74ada9;}.cls-13{fill-opacity:0.37;}</style></defs><title>Jam Jar_1</title><g id="Layer_2" data-name="Layer 2"><g id="Glass"><g id="jar"><path class="cls-1" d="M209,176.25,201.59,166a3.65,3.65,0,0,0-1.13-1L140.05,50.87a3.74,3.74,0,0,0-5-1.54L31.46,104.13a3.74,3.74,0,0,0-1.54,5L90.33,223.31a3.54,3.54,0,0,0,.2,1.5q2.14,5.94,4.28,11.89a3.75,3.75,0,0,0,4.93,2.16C138.18,223,174.61,204.5,208,181.55A3.78,3.78,0,0,0,209,176.25Z"/><path class="cls-2" d="M150.78,198c-12,6.34-24.49,12.35-37.85,18.17-4.05,1.77-9-.28-11.34-4.68L46.3,107c-2.44-4.62-1.1-10.13,3-12.3l67.88-35.92c4.1-2.17,9.41-.19,11.86,4.43l55.4,104.69c2.32,4.39,1.25,9.63-2.47,12-9.91,6.29-20.35,12.34-31.19,18.08Z"/><path class="cls-1" d="M136.33,37.13c4.14,7.81.56,12.14-1.25,13.1L31.89,104.84c-1.81,1-7.4,1.48-11.53-6.33S19.8,86.36,21.6,85.4L124.8,30.79C126.6,29.83,132.19,29.31,136.33,37.13Z"/><path class="cls-3" d="M29.81,94.64c-3.43,2.45-2.19.83-2.71-.17s.63-2.1,1.29-2.49L129.14,38.66c.7-.32,2.49-.89,3,.11s-.95,2.16-1.61,2.56Z"/><path id="top1" class="cls-1" d="M123.75,25.72c1.87,3.53-1.86,6.61-3.5,7.48L26.15,83c-1.64.87-6.28,2.22-8.15-1.32s1.85-6.6,3.5-7.48l94.09-49.79C117.24,23.53,121.88,22.18,123.75,25.72Z"/><path class="cls-3" d="M25.43,81.63c-.05,0-4.53,2.23-6.06-.67s2.81-5.36,2.86-5.39l94.09-49.79s4.52-2.23,6.06.66-2.81,5.37-2.86,5.39Z"/><g id="lid"><path class="cls-4" d="M127.48,20.41s1,5.31-4.08,10.05c-15.38.9-48.1,20.7-74.33,33.76S23.22,86.92,11.43,81.83C6.06,68.36,125.45,9.26,127.48,20.41Z"/><path class="cls-5" d="M125,21.72l-.12.06c-19.17,8-38.2,17-56.57,26.78S31.8,69,14.37,80.27l-.12.07a1.49,1.49,0,0,1-1.92-.48L2.26,64.52a1.38,1.38,0,0,1-.19-1,1.63,1.63,0,0,1,.71-1c18-11.67,36.67-22.66,55.6-32.68s38.54-19.3,58.28-27.59a1.62,1.62,0,0,1,1.26,0,1.38,1.38,0,0,1,.76.74l7,17A1.5,1.5,0,0,1,125,21.72Z"/><path class="cls-6" d="M115.87.29A725.14,725.14,0,0,0,1.67,60.73,3.57,3.57,0,0,0,.55,65.64L10.63,81a3.52,3.52,0,0,0,4.85,1A699.29,699.29,0,0,1,125.69,23.66a3.52,3.52,0,0,0,1.89-4.58l-7-17A3.57,3.57,0,0,0,115.87.29Zm9.83,19.57a1.5,1.5,0,0,1-.68,1.86l-.12.06c-19.17,8-38.2,17-56.57,26.78S31.8,69,14.37,80.27l-.12.07a1.49,1.49,0,0,1-1.92-.48L2.26,64.52a1.38,1.38,0,0,1-.19-1,1.63,1.63,0,0,1,.71-1c18-11.67,36.67-22.66,55.6-32.68s38.54-19.3,58.28-27.59a1.62,1.62,0,0,1,1.26,0,1.38,1.38,0,0,1,.76.74Z"/><path class="cls-6" d="M115.87.29A725.14,725.14,0,0,0,1.67,60.73,3.57,3.57,0,0,0,.55,65.64L10.63,81a3.52,3.52,0,0,0,4.85,1A699.29,699.29,0,0,1,125.69,23.66a3.52,3.52,0,0,0,1.89-4.58l-7-17A3.57,3.57,0,0,0,115.87.29Zm9.83,19.57a1.5,1.5,0,0,1-.68,1.86l-.12.06c-19.17,8-38.2,17-56.57,26.78S31.8,69,14.37,80.27l-.12.07a1.49,1.49,0,0,1-1.92-.48L2.26,64.52a1.38,1.38,0,0,1-.19-1,1.63,1.63,0,0,1,.71-1c18-11.67,36.67-22.66,55.6-32.68s38.54-19.3,58.28-27.59a1.62,1.62,0,0,1,1.26,0,1.38,1.38,0,0,1,.76.74Z"/><path class="cls-7" d="M61.83,52q3.24-1.76,6.5-3.48c2-1.05,4-2.08,6-3.11C69,40.84,62.26,34.57,58.5,29.7l-.12.06Q52.3,33,46.27,36.33C49.15,39.49,55.83,46.37,61.83,52Z"/><path class="cls-8" d="M19.53,62.38c-.24.37-17.37.67-17.46,1.09a1.38,1.38,0,0,0,.19,1l2,3.55c5,1.64,17.59,3.46,22,4.92,5.25-3.31,6.18-4.06,11.53-7.24-.87-9.35,5.17-23,8.26-29.27C31.3,44.63,37.37,34.79,19.53,62.38Z"/><path class="cls-8" d="M72.43,23.64a47.44,47.44,0,0,0-25,36.41q7.44-4.26,15-8.34a35,35,0,0,1,40.36-20.2q7.8-3.6,15.65-7A47.46,47.46,0,0,0,72.43,23.64Z"/><path class="cls-9" d="M60.73,32.36a47.25,47.25,0,0,0-7.93,10.8c2.8,2.84,6,6,9,8.88l.57-.31,0,0A34.92,34.92,0,0,1,69.5,41.15C66.4,38.29,63.24,35.2,60.73,32.36Z"/><path class="cls-7" d="M32.29,69.1q4.86-3,9.78-6c-4.46-5.74-9.09-11.9-12.8-17.3q-4.89,3-9.71,6C22.9,56.46,27.54,62.78,32.29,69.1Z"/><path class="cls-9" d="M32.29,69.09c1.44-.92,3-1.87,5.44-3.34h0a28.49,28.49,0,0,1,.49-7.63c-2.94-3.87-5.82-7.77-8.32-11.37-1.63,2.25-3.75,5.43-6.74,10C25.91,60.53,29.07,64.81,32.29,69.09Z"/><path class="cls-7" d="M83.29,40.87q5-2.41,10.18-4.62L83.05,17.63q-5,2.16-9.82,4.49C76.22,26.87,81.06,35.33,83.29,40.87Z"/><path class="cls-9" d="M79.92,33.77a34.79,34.79,0,0,1,10.49-3L84,19.33A47.45,47.45,0,0,0,73.76,23C75.57,25.9,77.9,29.9,79.92,33.77Z"/><path class="cls-7" d="M102.51,31.65c4-1.88,8.13-3.71,12.21-5.5-1.46-7-3.35-15.69-4.84-21.09q-5.32,2.31-10.65,4.7A175.73,175.73,0,0,1,102.51,31.65Z"/><path class="cls-9" d="M100.88,18.54a127.28,127.28,0,0,1,1.61,12.9l.31.07L108,29.13l1.19-.54c1.8-.8,3.6-1.61,5.4-2.4l.1,0c-.26-1.27-.54-2.59-.83-3.94A47.87,47.87,0,0,0,100.88,18.54Z"/><path class="cls-7" d="M5.35,60.78c2.44,5.68,6.8,15.38,9.65,19.08l4-2.59c-1.89-5-5.18-14.69-5.8-21.49Q9.27,58.27,5.35,60.78Z"/><path class="cls-9" d="M9.19,69.33c2.35.51,5,1,7.59,1.53-.83-2.56-1.66-5.36-2.32-8.11-2.57.11-5.66.22-8.11.34C7.2,65,8.18,67.18,9.19,69.33Z"/></g><path class="cls-10" d="M130.17,34.61c-.08,0,16.47,4.78-25.74,24.94C61.73,79.94,60.94,82.27,60.94,82.27s62.23-27.19,69.14-33.48S137.82,34.5,130.17,34.61Z"/><path class="cls-11" d="M34.68,110.26c-1.15-.37,56,101,58.27,109.43s.85,16.15,4.22,16.24,108.91-48.29,108.91-56.71-3.27-9.26-5.8-10.95-16.79-26-19.92-29.67-20.92-45.28-25.57-50.53-19.15-40.46-24.86-39.2-7.74,4.78-7.74,4.78,4.46-2.93,3.35,1.63c5.87.4,24.19,33.13,24.28,35.19s26.38,49.86,26.38,49.86,18,26.69,21.22,28.28,6.49,8.95.92,13.54c-5,4.07-87.38,49.28-99.33,49.29-2.45,0-2.44-10.86-3.22-12.78s-37.29-69.58-38-75.75S48.18,114.56,34.68,110.26Z"/><path class="cls-12" d="M26.93,86.3a7.23,7.23,0,0,0-3.4,8.27c1.28,5.11,8.21,1.81,13.78-.91s15.41-8.15,15.41-8.15-16,12.64-22,15.25c-4.33,1.9-7.5.51-9.41-2.78C18.53,93.13,20.8,87.44,26.93,86.3Z"/><path class="cls-13" d="M99.55,38.32c-19,15.21-30.33,19.1-25.21,19.17s47.73-25.83,54.49-22.17-102.46,56-102.46,56,14.71-12.89,7.85-11.82S21.6,82,22,81.73C46.86,61.83,99.55,38.32,99.55,38.32Z"/></g></g></g></svg>