<svg xmlns="http://www.w3.org/2000/svg" viewBox="0 0 337.57 432.84"><defs><style>.cls-1{fill:#bbc2c6;}.cls-2{fill:#91adbb;}.cls-2,.cls-7{fill-opacity:0.4;}.cls-3{fill:#7c8692;}.cls-4{fill:#ccd6de;}.cls-5{fill:#b2c4d6;fill-opacity:0.51;}.cls-6{fill:#dde3ea;}.cls-6,.cls-8{fill-opacity:0.55;}.cls-7{fill:#a4c0d3;}.cls-8{fill:#c8ccd1;}</style></defs><title>jug</title><g id="Layer_2" data-name="Layer 2"><g id="Plastic_Mixed" data-name="Plastic/Mixed"><g id="jug"><path class="cls-1" d="M51.06,24.2c-.58-12,55-27.61,73.5-23.54C144.28,5,51.68,37.21,51.06,24.2Z"/><path class="cls-2" d="M86.37,4.79C67.91,9.69,50.74,17.51,51.06,24.2c.29,6.05,20.51,2.31,40.06-3.86A19.53,19.53,0,0,1,86.37,4.79Z"/><path class="cls-3" d="M54.27,27.13c-.58-12,55-27.61,73.5-23.54C147.49,7.94,54.89,40.14,54.27,27.13Z"/><path class="cls-4" d="M235.11,46.76c-12.77-12.35-99.54-25.66-105-34.49,2.94-9.16-3.41-10.65-3.41-10.65C125.27,4.43,109.06,11.51,89,17.8c-24,7.54-38.23,5.94-38.23,5.94-3.36,5.79,2.81,14.06,2.81,14.06l-.76,4.5S2,79.71.24,96.14,10.69,198.46,12.63,213.69s.1,66.31,3.15,77.66S33,346.9,42.89,376s41.65,51.25,59.29,55,75,1.24,86-2.87,11.79-25.5,23-29.08,15.46,17.13,35.06,10.5c11.95-4.05,60.85-31.82,80.42-56.87s7-80.9,7-80.9C328.42,230,247.87,59.11,235.11,46.76ZM65.7,141.47c7.14,35.82,7.85,38.44,4.31,49.26s-9.37,14.76-14.52,16.54c0,0-4.83,4.18-11.65-13s-26.54-96-4.27-98.58C52.42,94.21,58.45,105.05,65.7,141.47Z"/><path class="cls-5" d="M334.91,278.84c-26.64,32.68-87.12,62.57-131.48,78.31-44.58,15.81-145-5.92-169.82-9,3.2,9.78,6.42,19.45,9.28,27.86,9.91,29.12,41.65,51.25,59.29,55s75,1.24,86-2.87,11.79-25.5,23-29.08,15.46,17.13,35.06,10.5c11.95-4.05,60.85-31.82,80.42-56.87C341.91,333.08,337.54,294.66,334.91,278.84Z"/><path class="cls-6" d="M63.72,210.67S49.63,237.1,26,244.45c2.67,15.91,6.08,22.42,11.2,23.27,14.67,2.45,52.77-24.26,52.53-40.16-.24-15.2-11.74-54.36-12.29-56.34C77.92,173.11,75.13,194.37,63.72,210.67Z"/><path class="cls-7" d="M49.45,212.37C38.69,194.3-9.5,73.53,52.29,93.37c3.34,1.07-3.1-19.09-13.5-21.21-3.9-.8-26.79,15.15-26.7,25.72.1,10.35,13.44,93.58,13.15,144.17C67,257.44,102,219.22,76.9,114,87,193.23,58.21,227.08,49.45,212.37Z"/><path class="cls-8" d="M77.44,171.22a.06.06,0,0,1,0,0C77.41,171.11,77.41,171.13,77.44,171.22Z"/><path class="cls-1" d="M130.89,8.34a7.57,7.57,0,0,0-.71-3.8c-8.42,5.59-11.9,11.07-37.66,19.32-18.57,5.94-29,5.8-42.21,6.92a17.39,17.39,0,0,0,1.23,3.43c8.29-.59,21.43.55,41.65-4.83C114,23.84,125.1,13.81,130.89,8.34Z"/><path class="cls-6" d="M191.9,62.63c18-12.67,35.47-13,41.78-8.41s89.46,184.43,93.78,200.66,9.73,73.09,2.17,83.87c0,0-4.33-72-7.39-82.2-16.82-56-84.9-176.64-108.86-168.09-36,12.83,4.34,181.09,42.6,186.67,37.87,5.51,56.27-25,56.27-25,.66,22.69-6.24,69.37-50.59,62.44s-88.38-220-89-224.69S173.94,75.3,191.9,62.63Z"/><ellipse class="cls-4" cx="261.92" cy="218.86" rx="31.24" ry="51.77" transform="translate(-54.27 90.3) rotate(-17.76)"/><path class="cls-6" d="M268.36,159.47c-9.29-8.12-19.27-11-28.08-8.21s-15.25,11-18.1,23c-2.74,11.55-1.85,25.4,2.5,39s11.68,25.39,20.62,33.2c9.29,8.12,19.27,11,28.09,8.21s15.24-11,18.09-23c2.74-11.56,1.86-25.41-2.5-39S277.3,167.28,268.36,159.47Zm4.26,92.8c-16.43,5.26-36.82-12.55-45.54-39.78s-2.47-53.57,14-58.83,36.82,12.55,45.54,39.78S289.05,247,272.62,252.27Z"/><path class="cls-6" d="M99.86,241.93c6-30.09-17.67-127.31-17.67-127.31s12.74,98.95,12.38,110.07S87.14,244.24,75,256.49s-44.48,26-50.74,18.3C20.34,270,2.17,112.89,5.75,95.94c3.12-14.75,48-51.5,47.11-53.64C35.91,54,1.83,83.69.24,96.14c-2.1,16.38,10.45,102.32,12.39,117.55,1.77,13.86.4,57.4,2.44,73.68C44.65,303.72,96,261.62,99.86,241.93Z"/><path class="cls-7" d="M203.94,280.37C197.18,256.89,168.57,96,163,86c9.44-23.4,47.18-37,47.18-37C189,46.73,155.86,85.37,155.89,85.8h0C135.17,89.42,75.94,109,81.61,111.52c7.73,3.45,21.77,86.57,23.64,115C107.12,254.88,180.05,372.12,174,393c-2.33,8-27,29.22-42.49,39.84,22.7,0,49.51-2,56.68-4.71,7.54-2.81,10.28-13.72,14.85-21.48-1.07-12.78-1.58-17.33,3.78-19.75,8.19-3.71,19.31,11,30.31,23.87a21.64,21.64,0,0,0,9.1-1.22c6.24-2.12,22.55-10.7,39.5-22-13.59-6.34-38.36-11.73-49.17-13.72C223.88,371.53,210.24,302.23,203.94,280.37Z"/></g></g></g></svg>