<svg xmlns="http://www.w3.org/2000/svg" viewBox="0 0 189.05 420.88"><defs><style>.cls-1{fill:#bdc6c9;}.cls-2{fill:#ce411b;}.cls-3{fill:#ebeced;}.cls-4{fill:#d8d8d8;}.cls-5{fill:#eaeaea;}.cls-6{fill:#ddd;}.cls-7{fill:#d7e0de;}.cls-8{fill:#c7d3d1;}.cls-10,.cls-17,.cls-9{fill:#bc202e;}.cls-9{fill-opacity:0.59;}.cls-10{fill-opacity:0.68;}.cls-11,.cls-12,.cls-13{fill:#fff;}.cls-11{fill-opacity:0.54;}.cls-12{fill-opacity:0.61;}.cls-14{fill:#e0db94;}.cls-15{fill:#357a1e;}.cls-16{fill:#adadad;}.cls-18{fill:#858f2a;}.cls-19{fill:#ae1f27;}.cls-20{fill:#db6957;}.cls-21{fill:#5f7c18;}.cls-22{font-size:18.72px;fill:#691f1a;font-family:Ayuthaya, Ayuthaya;}</style></defs><title>ketchupbottle</title><g id="Layer_2" data-name="Layer 2"><g id="ketchup"><path class="cls-1" d="M177.64,43.25c.45-1.75,2.94-2-.08-2.82l-26.38-6.82-.7-.18-26.39-6.82c-3-.78-1,.68-1.43,2.43s-4.44,1.65.08,2.81l26.38,6.82.7.18,26.39,6.82C180.73,46.84,177.19,45,177.64,43.25Z"/><path class="cls-2" d="M126.63,30.88c-.33-.09-.58-.17-.77-.24a7.64,7.64,0,0,0,1.56-3,12.07,12.07,0,0,0,.34-3.29,2.23,2.23,0,0,1,.53.09l41.05,10.61a4,4,0,0,1,.52.17,11.91,11.91,0,0,0-1.3,3,7.6,7.6,0,0,0-.08,3.37,6.84,6.84,0,0,1-.79-.17Z"/><path class="cls-3" d="M179.88,12l-21.66-5.6L136.56.77c-4.61-1.19-12.15.88-13.34,5.49l-3.07,11.88c-1.19,4.61-2.17,8.38,6.21,10.55L150.82,35l24.45,6.32c8.38,2.17,9.36-1.6,10.55-6.21l3.07-11.88C190.08,18.63,184.49,13.16,179.88,12Z"/><path class="cls-4" d="M162,37.89c-1-4.72,1.91-15.9,4.75-21.13,1.63-4.14-.94-5.14-5.71-6.72-.46-.14-.93-.26-1.4-.37-4.94-.92-7.67-1.29-8.26,3.12,0,5.95-1.87,15.91-6.08,20.79L150.82,35Z"/><path class="cls-4" d="M179.62,11.53,158,5.93,136.3.33c-3.78-1-9.54.25-12.14,3.27C128.76,7.94,155.61,15,155.61,15s26.92,6.83,33,5.26C187.85,16.37,183.41,12.5,179.62,11.53Z"/><path class="cls-3" d="M156.52,11.52A231.42,231.42,0,0,1,132,3.71a9.14,9.14,0,0,1,3.44.11L178.72,15a9.05,9.05,0,0,1,3.07,1.57A233.11,233.11,0,0,1,156.52,11.52Z"/><path class="cls-5" d="M178.17,43.2l-28.32-7.32-28.33-7.32c-8.9-2.3-6,6.64-.36,8.1l26.7,6.9,26.71,6.91C180.23,51.93,187.07,45.5,178.17,43.2Z"/><path class="cls-6" d="M121.7,34.57a5.55,5.55,0,0,1-3.41-2.86A1.83,1.83,0,0,1,118,30.5h0s.67-.44,3,.15L177.63,45.3c2.32.6,2.66,1.31,2.67,1.32a2.19,2.19,0,0,1-.83.9,5.49,5.49,0,0,1-4.36.85Z"/><path class="cls-7" d="M163.53,229.47,120.2,397.15c-4.49,17.36-15.61,25.77-39.57,23.31L52,416,24.74,406c-22.15-9.45-27.8-22.2-23.31-39.56L44.77,198.77Z"/><path class="cls-8" d="M164.48,127.77c3.79-34.87,12.81-77,12.81-77l-29.08-7.15-28.64-7.4S106.79,77,93.22,109.35c-13.39,31.91-48.55,89.77-48.55,89.77A114.64,114.64,0,0,0,55.21,217.5c14.89,20.33,4.65,31,39.29,32.51,34.34,17.08,26.7-10.45,51.73-12.71a29.92,29.92,0,0,0,17.21-7.48S160.74,162.17,164.48,127.77Z"/><path class="cls-9" d="M106,171c.2-3.68.24-29.76,16.62-21.05s30.62,22.82,20.77,29.22-25.28-11.75-29-3-6.28,41.6-9.52,31.08S106,171,106,171Z"/><path class="cls-10" d="M46.82,222.53c-2.63-3.53,21-7.73,17.91,7.12s-25.1,53.88-29.48,76.6-11.08,28.44-7.42,8.51S54.85,233.3,46.82,222.53Z"/><path class="cls-11" d="M145.61,95.53c.16,2.27-29.2,163-28.75,160.26s19.82-27.67,31.85-22.32c15.4,6.84,9.86-139.06,9.86-139.06Z"/><path class="cls-12" d="M126.79,84.7c-26.77,43-62.86,139-63.56,136.36-5.27-20-17.33-14.5-10.68-22.14,11.66-13.38,62.21-119.56,62.21-119.56Z"/><path class="cls-13" d="M59.31,378.49C41.55,373.9,32,368,29.15,366c2.72-36.59,7-90.17,8.55-99.56l.38.1c.89.23,2,.58,3.08.95s2.53.83,3.74,1.14a8.84,8.84,0,0,0,4.45.32c3-.83,2.73-4,2.48-7s-.58-7.23,1.19-11.58c.06-.16,1.87-3.92,24.63-1.31,11.48,1.32,34.21,7.2,43.2,11.17,1.84.81,17.94,8,17.44,12.18a35.92,35.92,0,0,1-3.81,11.31c-1.65,3.44-3.07,6.41-.95,8.48a5.26,5.26,0,0,0,2.38,1.28,16.93,16.93,0,0,0,4.55.28l1.26,0c-3.36,9.81-24,58.5-38.42,91.93a251.23,251.23,0,0,1-39.73-6.15c-1.43-.33-2.87-.68-4.26-1Z"/><path class="cls-14" d="M60.55,374.65c-14.91-3.85-23.64-8.74-27-10.89,2.72-36.55,6.13-78.46,7.68-90.82l.94.31c1.23.4,2.48.81,3.67,1.12a10.16,10.16,0,0,0,5.29.29c4.47-1.23,4.11-5.78,3.86-8.79-.22-2.76-.5-6.17.85-9.72,40.06-5.78,76.69,18.12,77.12,19.65a32.62,32.62,0,0,1-3.42,10c-1.66,3.48-3.54,7.41-.48,10.41a6.87,6.87,0,0,0,3.18,1.72,12.81,12.81,0,0,0,3.07.36c-4.8,12.62-20.76,50.36-34.82,83a247,247,0,0,1-35.95-5.7c-1.35-.31-2.69-.64-4-1Z"/><path class="cls-15" d="M144.31,292.33c-.86-1.72-7.19.37-9.27-1.65s4.27-8.59,5.4-18-23.4-17.6-38.33-21.83S54.58,240.81,51,249.58s.56,16.54-2.24,17.31S37.6,263.25,36,264.34,26.9,367.07,26.9,367.07s10.86,8.77,36.19,14.57,41.6,6.28,41.6,6.28S145.16,294,144.31,292.33Zm-41,93.35a251.23,251.23,0,0,1-39.73-6.15c-1.43-.33-2.87-.68-4.26-1h0C41.55,373.9,32,368,29.15,366c2.72-36.59,7-90.17,8.55-99.56l.38.1c.89.23,2,.58,3.08.95s2.53.83,3.74,1.14a8.84,8.84,0,0,0,4.45.32c3-.83,2.73-4,2.48-7s-.58-7.23,1.19-11.58c.06-.16,1.87-3.92,24.63-1.31,11.48,1.32,34.21,7.2,43.2,11.17,1.84.81,17.94,8,17.44,12.18a35.92,35.92,0,0,1-3.81,11.31c-1.65,3.44-3.07,6.41-.95,8.48a5.26,5.26,0,0,0,2.38,1.28,16.93,16.93,0,0,0,4.55.28l1.26,0C138.36,303.56,117.7,352.25,103.3,385.68Z"/><path class="cls-16" d="M104.66,414c-19.88,2.11-81.44-13.8-97.81-25.28a27.71,27.71,0,0,0-5.4-3.19c2.88,8.16,10.2,14.9,23.29,20.48,0,0,8.1,4.71,27.22,10s28.67,4.43,28.67,4.43c14.16,1.46,23.83-.89,30.3-6.63A27.8,27.8,0,0,0,104.66,414Z"/><path class="cls-17" d="M85.85,360.3c4.5-8.52-1.35-17.79-13.06-20.71S51.37,342,51.11,351.52s5.59,18.78,13.06,20.71S81.35,368.82,85.85,360.3Z"/><path class="cls-17" d="M71.2,348.33c-2.07-.53-6.48-3.28-7.19-6-.09-.35.06-.44.43-.53,1.19-.27,4.29-.07,8.51,1l.18.05c4,1,6.63,2.25,7.46,3,.18.16.37.33,0,.64C78.6,348.59,73.29,348.88,71.2,348.33Z"/><path class="cls-18" d="M75.3,343.06l3.2-6.63L90.06,335l-12.6-.28-5.66,7.49s-1.86-7.2-6.24-7.58c0,0,4.35,3.36,3.45,6.85-.86-2.45-5.57-4.42-6.27-4.6s4.69,4.94,4.33,6.34,5.05,3.54,5.05,3.54,5.77.74,7.71-1,4.75-4,8.07-2.39C85.31,338.94,75.3,343.06,75.3,343.06Z"/><path class="cls-19" d="M72.17,350.82c0-.72,11.72.79,12.26-1.3,2.1.54-.68,20-12.94,21.25C72.39,367.27,73.18,355.55,72.17,350.82Z"/><path class="cls-20" d="M59.78,346.87c4.3.85,2.47,19.27-1.2,19.07S47.72,344.5,59.78,346.87Z"/><path class="cls-21" d="M79.83,345.72c1.86-1.67,4.55-3.81,7.7-2.54h0c-3.07-2.73-7.76,1.41-9.52,2.45s-3.67-.21-5.95-.05-4.35-3.36-4.35-3.36a17.52,17.52,0,0,0-4.24-4.34c1.32,1.53,3.87,4.32,3.62,5.3-.36,1.39,5.05,3.54,5.05,3.54S77.89,347.45,79.83,345.72Z"/><path class="cls-21" d="M90.06,335l-1.66,0L78.24,336,75,342.62l-.36,1.4,3-1.78c-1.42.42-2.39.82-2.39.82l3.2-6.63Z"/><text class="cls-22" transform="translate(45.48 304.22) rotate(-0.89)">Ketchup</text><path class="cls-9" d="M114.84,399.12c1,7.7-16.81,12.85-28.24,8.35s-37.82-15.12-26.5-12.81C101.16,403,112.91,384.07,114.84,399.12Z"/><path class="cls-4" d="M181.09,41.8c3.18-.68,3.9-3.48,4.73-6.68l3.07-11.88a6.22,6.22,0,0,0-.49-4.08l-5.08-.34C184,19,185.26,37,181.09,41.8Z"/></g></g></svg>