<svg xmlns="http://www.w3.org/2000/svg" viewBox="0 0 64.78 326.51"><defs><style>.cls-1{fill:#f7f7f9;}.cls-2{fill:#dedfe0;}.cls-3{fill:#c1c1c1;}</style></defs><title>knife</title><g id="Layer_2" data-name="Layer 2"><g id="Utensil"><g id="knife"><path class="cls-1" d="M18.69.9c1.63-1.35,6.14-2.61,8,7.56,5,26.46,7.3,85.23,7.3,85.23s.83,30.06,1.07,37.87c.26,8.19,28.9,130.18,29.22,141.5s2.56,52.16-7.07,53.43S33.74,266.9,31.26,248s-7.74-91.44-13.56-96.94l2.14-4.59-1.19-6.12S-23.34,35.82,18.69.9Z"/><path class="cls-2" d="M57,324.18c-.11,0-4.79-.64-13.31-30.6-4.72-16.6-8.83-36.35-10.08-45.85C33,243.1,32,234.12,31,223.71,25.82,173,24.16,158.4,20.35,150.92l1.92-4.13-1.39-7.11-.1-.24c-.4-.89-40.78-103.36-.6-136.74A1.57,1.57,0,0,1,21,2.34c1.09-.14,2.59,1.83,3.48,6.55,4.76,25.44,7.14,81.82,7.26,84.78-.1,1.61.84,30.4,1.07,38,.12,3.68,3.39,14.14,11.76,53.75,8.11,38.35,17.29,81.81,17.46,87.75,0,.91.06,2,.11,3.26.24,7.22.66,19.31-.08,29.79C60.83,323.13,57.37,324.12,57,324.18Z"/><path class="cls-3" d="M57.66,323.81c1.18-1,3.45-4.57,4.37-17.63.74-10.48.32-22.57.08-29.79,0-1.25-.09-2.35-.11-3.26-.17-5.94-9.35-49.4-17.46-87.75-8.37-39.61-11.64-50.07-11.76-53.75-.23-7.56-1.17-36.35-1.07-38-.05-1.27-.52-12.34-1.41-26.58-1.37,26.8.81,54.41-.76,74.21C29,147.89,58,268,58.36,273.85,58.7,279.08,58.72,313.09,57.66,323.81Z"/></g></g></g></svg>