<svg xmlns="http://www.w3.org/2000/svg" viewBox="0 0 295.01 290.79"><defs><style>.cls-1{fill:#fff;}.cls-2{fill:#e2e2e2;opacity:0.61;}</style></defs><title>landfillsign</title><g id="Layer_2" data-name="Layer 2"><g id="background"><rect class="cls-1" x="16.37" y="32.48" width="254.29" height="216.69" transform="translate(-7.99 8.64) rotate(-3.35)"/><path class="cls-2" d="M273.59,22.36C274.64,24,295,42.46,295,42.46L288,41.54l1.75,7.61-4.39-.36-.92,7.05L278.11,54l-.17,6.09L233.66,18.72l6.86-.79-3.46-7.42,6.57.55L245.39,0Z"/><path class="cls-2" d="M39.62,252.89c1,1.68,20.14,21.4,20.14,21.4l-7-1.36,1.27,7.7L49.69,280l-1.36,7-6.16-2.26-.54,6.07L0,246.78l6.89-.37-3-7.61,6.53.95,2.44-10.93Z"/></g></g></svg>