<svg xmlns="http://www.w3.org/2000/svg" viewBox="0 0 295.01 290.79"><defs><style>.cls-1{fill:#fff;}.cls-2{fill:#e2e2e2;opacity:0.61;}</style></defs><title>landfillsign</title><g id="Layer_2" data-name="Layer 2"><g id="background"><rect class="cls-1" x="16.37" y="32.48" width="254.29" height="216.69" transform="translate(-7.99 8.64) rotate(-3.35)"/><path class="cls-2" d="M273.59,22.36C274.64,24,295,42.46,295,42.46L288,41.54l1.75,7.61-4.39-.36-.92,7.05L278.11,54l-.17,6.09L233.66,18.72l6.86-.79-3.46-7.42,6.57.55L245.39,0Z"/><path class="cls-2" d="M39.62,252.89c1,1.68,20.14,21.4,20.14,21.4l-7-1.36,1.27,7.7L49.69,280l-1.36,7-6.16-2.26-.54,6.07L0,246.78l6.89-.37-3-7.61,6.53.95,2.44-10.93Z"/><path d="M68.86,158.92A33.51,33.51,0,0,1,57.47,161q-4.69,0-6.62-3.25-1.47-2.53-1.52-7.59c0-2,.11-4.88.38-8.75s.39-6.79.38-8.75c0-.37,0-.95-.09-1.75s-.09-1.4-.09-1.8a8.32,8.32,0,0,1,.09-1.35,3.06,3.06,0,0,1,2.44-1.22c.93,0,1.65.58,2.16,1.78a7.52,7.52,0,0,1,.63,3c0,2.27-.17,5.64-.57,10.11s-.58,7.82-.57,10.06c0,3.93,1.17,5.88,3.4,5.87a13.84,13.84,0,0,0,4.3-1.06,13.81,13.81,0,0,1,4.29-1.07,2.4,2.4,0,0,1,2.16,1.24A4.83,4.83,0,0,1,68.86,158.92Z"/><path d="M98.69,151.12c0,1.6-.69,2.42-2.13,2.47a18.6,18.6,0,0,0,1.13,3.09,2.38,2.38,0,0,1-.89,1.81,3,3,0,0,1-2,.71,5.06,5.06,0,0,1-2.1-.53,6.71,6.71,0,0,1-.68-3.09c0-.3,0-.74,0-1.3s0-1,0-1.25q0,.34-1.65.36c-1.87,0-4.08.12-6.65.31q-5.49.35-6,.9c-.32.37-.51,2.15-.58,5.35a2,2,0,0,1-1.65,1,3.53,3.53,0,0,1-2.15-.86,2.46,2.46,0,0,1-1.12-1.87,17.37,17.37,0,0,1,.88-2.81q1-3.56,3.16-10.67,6.54-18.41,11-18.44t6.79,9.64a108.65,108.65,0,0,1,2.06,13.33,7.54,7.54,0,0,1,1.65.49A1.47,1.47,0,0,1,98.69,151.12Zm-7-1.84q-2.36-17.43-4.1-17.42-1.39,0-4.83,8.24-2.44,5.93-3.86,10.29c1.06-.24,2.64-.54,4.74-.89A54,54,0,0,1,91.68,149.28Z"/><path d="M128.14,126.93a3.19,3.19,0,0,1-.44,1.4c-.36.74-.57,1.19-.64,1.36a25.7,25.7,0,0,0-1.38,7.47l0,14.38a12.54,12.54,0,0,1-1,4.51c-.81,1.94-1.84,2.92-3.07,2.93q-2.74,0-5.49-4.55a53.75,53.75,0,0,1-4-9.37c-.79-2.59-1.59-5.19-2.41-7.78-.66,5.67-1,9.47-1,11.41,0,4.27.32,6.71.84,7.34a2.77,2.77,0,0,1,.78,1.39,2.05,2.05,0,0,1-1,1.69,3.41,3.41,0,0,1-2,.74c-.94,0-1.71-1-2.33-2.93a14.5,14.5,0,0,1-.73-4.2c0-.56,0-1.4,0-2.52s0-2,0-2.53a55,55,0,0,1,.45-6.1,55,55,0,0,0,.45-6.1l-.05-6.1a1,1,0,0,0-.08-.3,1.71,1.71,0,0,1-.08-.3c0-.67.45-1.22,1.34-1.66a4.71,4.71,0,0,1,2.2-.57,4,4,0,0,1,3.66,1.62,8.25,8.25,0,0,1,.57,2.29c.11.8.21,1.62.32,2.45a91,91,0,0,0,3.25,11.37q3.12,9.22,4.62,9.22.55,0,.54-1.41a11.72,11.72,0,0,0-.13-1.3,10.31,10.31,0,0,1-.14-1.4l.38-13.58a25.18,25.18,0,0,1,1-6c.85-2.78,2-4.18,3.47-4.19a3.88,3.88,0,0,1,2,.89A2.48,2.48,0,0,1,128.14,126.93Z"/><path d="M156.64,138.76a28.18,28.18,0,0,1-3.48,14.2q-4.24,7.54-11.49,7.6a8.83,8.83,0,0,1-4.51-1.06,3,3,0,0,1-2,1.12,2.36,2.36,0,0,1-1.4-.64,22.78,22.78,0,0,1-1.07-7.48q0-4,.13-12.05t.12-12a2.36,2.36,0,0,0-.05-.35,1.74,1.74,0,0,1,0-.41,1.79,1.79,0,0,1,.63-1.46,2.31,2.31,0,0,1,1.55-.56,3.14,3.14,0,0,1,2.23.88,2.1,2.1,0,0,1,.74,2.09,8.28,8.28,0,0,1,7.22-3.81A10.09,10.09,0,0,1,154,129,17,17,0,0,1,156.64,138.76Zm-4.95-.16q-.09-10.23-6.09-10.17a6.85,6.85,0,0,0-4.83,2.54,12,12,0,0,0-2.83,4.81,19.66,19.66,0,0,0-.73,5.69l.09,10.77q0,4.71,4,4.68c2.37,0,4.51-1.26,6.42-3.71a18,18,0,0,0,3.24-7.09A34.57,34.57,0,0,0,151.69,138.6Z"/><path d="M182.4,128c0,1.2-.78,1.81-2.38,1.82a8.42,8.42,0,0,1-.93-.07,7.71,7.71,0,0,0-.92-.06,22.32,22.32,0,0,0-5.1.79c-2.69.69-4.37,1.08-5,1.19-.22,1.64-.44,3.25-.66,4.86a37.9,37.9,0,0,0-.36,4.9c0,1.07.28,1.58.82,1.54l.34-.05q4.05-.39,5.6-.4c2.37,0,4.07.7,5.12,2.16,0,1.4-.5,2.1-1.53,2.11a3.74,3.74,0,0,1-.88-.14,3.6,3.6,0,0,0-.87-.14c-.44,0-1.05,0-1.86,0l-1.85,0a23.53,23.53,0,0,0-4.19.33c-.53.14-.85.3-1,.49a3.68,3.68,0,0,0-.21,1.26c-.05.65-.07,1.29-.06,1.93,0,3.91.18,6,.45,6.37a3.66,3.66,0,0,1,.76,1.45,1.81,1.81,0,0,1-.81,1.38,2.45,2.45,0,0,1-1.52.69,2.35,2.35,0,0,1-2.31-1Q162,157.44,162,152q0-3,.5-9t.5-9c0-1.47-.13-2.21-.37-2.2a1.3,1.3,0,0,0-.32,0,2,2,0,0,1-.33.05,1.44,1.44,0,0,1-1.13-.79,2.87,2.87,0,0,1-.54-1.49,1.3,1.3,0,0,1,1-1.21,12.39,12.39,0,0,1,1.66-.52,2.87,2.87,0,0,1-.16-.7,1.51,1.51,0,0,1,1.69-1.71,6,6,0,0,1,3,1.53,77.53,77.53,0,0,1,10.94-1.45,6.69,6.69,0,0,1,2.6.48A2.07,2.07,0,0,1,182.4,128Z"/><path d="M192.4,128a3.37,3.37,0,0,1-.44,1.1,9.28,9.28,0,0,0-.38,2.25q-1,11.22-.89,19.66a13.35,13.35,0,0,0,.43,3.55,18.76,18.76,0,0,0,1.48,3.14.71.71,0,0,1,.05.3c0,.7-.81,1.05-2.44,1.07h-.45q-2.55,0-3.13-4.07a102.25,102.25,0,0,1-.82-13.65q0-2,0-6.17t0-6.23a3,3,0,0,1,1.18-2.21,3.7,3.7,0,0,1,2.34-1.07,3.46,3.46,0,0,1,2,.74A2,2,0,0,1,192.4,128Z"/><path d="M216.3,157.69a33.21,33.21,0,0,1-11.38,2q-4.71,0-6.63-3.24-1.47-2.53-1.52-7.59c0-2,.11-4.88.38-8.75s.39-6.79.38-8.76c0-.36,0-.95-.09-1.75s-.09-1.39-.09-1.79a8.51,8.51,0,0,1,.09-1.36,3.09,3.09,0,0,1,2.44-1.22c.93,0,1.65.59,2.16,1.79a7.48,7.48,0,0,1,.63,3q0,3.4-.57,10.11t-.56,10.05q0,5.89,3.4,5.87a13.73,13.73,0,0,0,4.29-1.06,13.73,13.73,0,0,1,4.29-1.06,2.37,2.37,0,0,1,2.16,1.23A4.89,4.89,0,0,1,216.3,157.69Z"/><path d="M239.25,157.5a33.26,33.26,0,0,1-11.39,2q-4.7,0-6.62-3.24c-1-1.7-1.49-4.22-1.52-7.59,0-2,.11-4.89.38-8.75s.39-6.79.38-8.76c0-.37,0-.95-.09-1.75s-.09-1.4-.09-1.8a8.32,8.32,0,0,1,.09-1.35,3.09,3.09,0,0,1,2.44-1.22c.93,0,1.65.59,2.16,1.78a7.53,7.53,0,0,1,.63,3c0,2.27-.17,5.63-.57,10.1s-.58,7.83-.56,10.06q0,5.89,3.39,5.87a13.84,13.84,0,0,0,4.3-1.06,13.73,13.73,0,0,1,4.29-1.06,2.37,2.37,0,0,1,2.16,1.23A4.87,4.87,0,0,1,239.25,157.5Z"/></g></g></svg>