<svg xmlns="http://www.w3.org/2000/svg" viewBox="0 0 397.02 283.3"><defs><style>.cls-1{fill:#840100;}.cls-2{fill:#d69a00;}.cls-3{fill:#a37308;}.cls-4{fill:#bf8717;}.cls-5{fill:#af5933;}.cls-6{fill:#e8a300;}</style></defs><title>leave</title><g id="Layer_2" data-name="Layer 2"><g id="Compost"><path class="cls-1" d="M168.41,229.21c1.05,11,8.11,45.39,6.61,45.57-1.81-.48-7.69-28.23-9.14-45.85Z"/><path class="cls-2" d="M0,151l0-.49A1.29,1.29,0,0,1,0,151Z"/><path class="cls-3" d="M234.07,226.17c6.69,3.94,5.11,3.19,5.11,3.19s-34,.52-30.3,7.33c.12,7.58,7.47,12.64,7.47,12.64S172.91,231.67,168.19,234c-5.2-.91-40,28.1-40,28.1s5.61-6.94,3.57-14.24c1.6-7.58-31.13,1.58-31.13,1.58s-1.3,1.17,4-4.51S85.77,228.33,78,223.82c7.21,2.39,16.54-14.4,16.54-14.4,2.46-1.59-1.09-9.16-3.39-11.52s-13-8.65-19.1-15.12c5,2.7,6.62-1.69,10.38-4.44s-3.39-13.23-3.39-13.23,1,.34,4.59-2.14c3.36-2.33-4-15.91-4.86-17.45.52.88,3.65,5.56,11.43,4.43,7-1,24.16,2.75,24.16,2.75s7-5.18,8.23-10,.33-23,.33-23,1-1.06,7.46-.53,5.11-6.62,6-10.43c0,0,1.5,3.09,4.51,1.92s5.12-9.87,5.12-9.87,7.62,14.09,11.74,6.63c2,3.39,5.62,13.39,11.65,11.05,4.36-1.69,5.14-3.38,5.23-4.18.18,3.14,1.23,20.33,3.57,24.22,2.57,4.28,12.19,9.75,16.43,3.5l2.26.4.71-3.53,9.65-11.2s-1,4.8.77,5.28,12.41,1.14,16.83-.48a23,23,0,0,1,6.38-1.66s-4.51,9.47-.39,10.84,5,.74,5,.74-3.89,12.08.51,13.64,7.14,5.34,11.21,1.32c-4,7.93-12.48,17-14,19.92s-2.79,11.18,0,12c0,0,13.71,13.45,19.95,9.11C247.4,204.89,227.37,222.25,234.07,226.17Z"/><path class="cls-4" d="M204,239c-2.25-.85-4.63-1.73-7-2.61-23.24-8.43-12.82-17.65-9.92-31,0-.21-19.36,23.48-19.56,23.52s-19.11-16.9-19.32-16.87c-1.82.26,15.45,17.21-5.94,32.35-1.81,1.29-3.49,2.7-5.14,4-.05-.3-.1-.61-.17-.91a6.82,6.82,0,0,0-1.86-4.83c-2.73-2.91-7.6-3.55-16.82-2.21-2.63.38-5.34.89-7.86,1.42h0c-1-6.08-9.09-11.27-20.73-17.57A41.64,41.64,0,0,0,94,219.46a68.4,68.4,0,0,0,4.61-6.81,7.24,7.24,0,0,0,1.85-4.19c.57-5-3.29-11.75-5.61-14.12a48.46,48.46,0,0,0-6-4.63c-1.88-1.32-4.08-2.87-6.25-4.53.31-.29.6-.59.88-.87a17.92,17.92,0,0,1,2-1.86c5-3.63,3.29-10.09.82-15.1l.29-.19c3.14-2.19,3.86-6.08,2.12-11.95a20.7,20.7,0,0,0,2.27-.22c4.43-.64,16.06,1.3,22.34,2.68l2.26.5,1.86-1.38c1.41-1,8.51-6.58,10.13-12.84,1-3.93.88-13.73.68-19.85.51,0,1.1.05,1.76.11a12.68,12.68,0,0,0,2.7-.07c5.28-.77,7.16-4.78,7.91-8.22l.21,0a8.69,8.69,0,0,0,2-.52,10.09,10.09,0,0,0,4.66-4.25c2.35,2.24,5.21,3.87,8.38,3.47,2.54,4.59,6.63,10.14,13.23,9.18a10.4,10.4,0,0,0,1.21-.25c.69,7.4,1.82,14.57,3.62,17.57,3,5,10.61,9.62,17.21,8.67a11.18,11.18,0,0,0,5.38-2.3l4.48.81,1.43-7.12,3.23-3.75a6,6,0,0,0,1.15.44c2.22.59,10.35,1.12,16,.29.45-.06.88-.13,1.28-.21a10.18,10.18,0,0,0,.7,4.37,7.4,7.4,0,0,0,4.5,4.16l.34.11c-.94,5.5-.72,12.17,5.08,14.24a17.54,17.54,0,0,1,2.48,1.21c.35.19.71.39,1.09.58-1.61,2.2-3.28,4.32-4.7,6.12a46.84,46.84,0,0,0-4.47,6.17c-1.55,2.92-3.33,10.48-1.37,15.11a7.28,7.28,0,0,0,3,3.49A66,66,0,0,0,237,198.7a41.16,41.16,0,0,0,5.52,3.41c-9.36,9.33-15.63,16.61-14.87,22.72v0c-2.57.2-5.31.49-7.94.87-9.22,1.34-13.71,3.34-15.5,6.9a6.78,6.78,0,0,0-.41,5.15C203.87,238.2,203.92,238.62,204,239Z"/><g id="texture"><path class="cls-5" d="M146,100.75s19,124.5,22.15,133.27c.67,1.88-9.17-62-16.23-102.61C149.42,116.8,147.24,105.2,146,100.75Z"/><path class="cls-5" d="M158.87,113.93s-3,12.47-6.51,19.32C144.42,131.65,139,112.4,139,112.4s5.48,22.73,13,22.62C159.18,127.87,158.07,116.83,158.87,113.93Z"/><path class="cls-5" d="M156,159.19s-5.55-.22-12.51-7.74c-8.18-8.86-18.13-25.64-20.55-31.79C123.2,127.46,146.56,164.23,156,159.19Z"/><path class="cls-5" d="M158,167.28c12.72-3,34.09-16.47,34.38-19.71a10.61,10.61,0,0,0-.46-3.28,6.84,6.84,0,0,1-2.38.5c0,.55,0,1.11.05,1.69C189.68,154.06,156.83,167.55,158,167.28Z"/><path class="cls-5" d="M162.88,196.66c-11.74-.86-27.77-6.68-27.77-6.68Z"/><path class="cls-5" d="M168.19,234s19.39-29,26.45-40.74S232.56,127,232.56,127,179.45,228.13,168.19,234Z"/><path class="cls-5" d="M168.19,234c.73.06-87.11-86-87.11-86s62.44,64.81,81.71,81.91C165.67,232.47,167.58,234,168.19,234Z"/><polygon class="cls-5" points="120.27 167.53 121.94 187.85 121.11 167.41 117.09 156.65 123.17 146.55 116.16 155.66 106.49 153.14 116.43 156.66 120.27 167.53"/><path class="cls-5" d="M131,198.72c.43,0-14.06-2.21-27.09-4.21C95.09,193.15,70,182.25,70,182.25s20.48,10.67,32.83,13.44S122,199.11,131,198.72Z"/><path class="cls-5" d="M133.78,254.05c-1.52,2.43-4.82,7.4-4.82,7.4s13-17.65,19.34-21.88S168.19,234,168.19,234s-14,3-18.72,6c-5.66,3.5-17.49,18.39-20.43,22"/><path class="cls-5" d="M196,193.29s41.23-27.27,44-32.07C238.69,169.25,203.48,189.73,196,193.29Z"/><path class="cls-5" d="M179.27,219.11s23.38-1.51,37.22-3.52c1.39-.2,26.79-8.48,36-16.17l1-1.07a5.13,5.13,0,0,1-3,.86c-9.08,5.61-27.33,12.91-36.51,14.85Z"/><path class="cls-5" d="M168.19,234s16.84-1.66,26.3,2.17c7,2.66,21.86,13.14,21.86,13.14S191.12,233.24,168.19,234Z"/><path class="cls-5" d="M168.19,234s-74.84-4.24-81.47-9.41Z"/></g><path class="cls-1" d="M242.4,217c-5.74,15.62-18.58,67-20.74,66.3-2.16-1.82,8-43.42,17.47-68.33Z"/><path class="cls-2" d="M64.4.69,64.68,0A1.8,1.8,0,0,1,64.4.69Z"/><path class="cls-2" d="M333.69,255.7c6.54,9.71,4.88,7.67,4.88,7.67s-46.56-21.47-46-9.79c-4.78,10.38,1.92,22.06,1.92,22.06S246.92,223.28,239,223.39c-6.48-4.62-72.78,12.11-72.78,12.11s12.15-5.77,14.14-17c7.11-9.27-43.38-18.17-43.38-18.17s-2.53.74,8.38-3.52-14.76-34.89-22.38-46.09c8.25,7.95,31.89-8.81,31.89-8.81,4.38-.55,4.5-13.16,2.9-17.87s-12.06-20.26-16.12-33c5.11,7,10.11,2,17,.73s4-20.2,4-20.2,1.19,1.13,7.64.09c6.1-1,4.94-24.27,4.78-26.93.13,1.55,1.34,10,12.65,13.49,10.21,3.2,31.08,19.5,31.08,19.5s12.88-2.49,17.73-8.26S252,38.31,252,38.31s2.06-.79,10.49,4.14,11.26-5.67,15-10.26c0,0,0,5.18,4.87,5.55s13.41-10.08,13.41-10.08,1.17,24.13,11.64,16.68c.46,5.89-1.09,21.88,8.65,22.63,7,.54,9.18-1.25,9.84-2.27C324.09,69.08,314.3,93.16,315,100c.71,7.5,10.22,21.21,20.06,15.47l2.82,2,3.27-4.34,20.43-8.94s-4.52,5.86-2.4,7.68,16.14,9.64,23.22,10.33,9.75,1.9,9.75,1.9-12.31,10-7.6,14.49,6.33,4.28,6.33,4.28-13.17,13.89-8.21,18.89,6.23,11.92,14.4,9.11c-10.61,8.18-28.07,15-32.06,18s-11.09,13.39-7.8,16.33c0,0,9.88,27.24,21.19,25.41C365.71,235.44,327.14,246,333.69,255.7Z"/><path class="cls-6" d="M284.37,253.56c-2.5-2.62-5.17-5.38-7.89-8.15-26.1-26.63-5.92-32.37,6.75-48.67.19-.25-41.65,19.31-42,19.24s-15-35.46-15.27-35.56c-2.65-.82,9.78,33.5-29.19,40.14-3.3.56-6.52,1.39-9.6,2.08q.19-.66.36-1.35a10.28,10.28,0,0,0,.62-7.77c-1.82-5.75-8-9.8-21.44-14-3.82-1.2-7.84-2.28-11.62-3.2v0c2.58-8.92-5-21.26-16.73-37.4a62.72,62.72,0,0,0,9-3.76,101,101,0,0,0,10.72-6.25,10.94,10.94,0,0,0,5.26-4.49c4-6.43,3.17-18.13,1.57-22.87-.77-2.28-2.39-5.22-5.18-10.23-1.69-3-3.68-6.57-5.54-10.24l1.75-.61a27.7,27.7,0,0,1,4-1.2c9.13-1.7,11.05-11.58,11-20l.52-.08c5.7-.93,9.22-5.74,10.69-14.87a33.39,33.39,0,0,0,3.22,1.19c6.45,2,21,12.24,28.64,18.21l2.76,2.15,3.43-.66c2.59-.5,15.86-3.39,22.14-10.85,3.95-4.68,10.16-18.1,13.89-26.57.68.36,1.45.79,2.32,1.3a18.38,18.38,0,0,0,3.71,1.67c7.68,2.4,12.86-1.83,16.12-6l.31.1a13.65,13.65,0,0,0,3,.57c3.05.24,6.15-.89,9.09-2.74,1.75,4.58,4.58,8.67,9.14,10.19.47,7.9,2.42,18.12,12,21.12a13.3,13.3,0,0,0,1.81.45c-3.88,10.52-7,21-6.53,26.27.82,8.69,8.15,20,17.75,23a16.85,16.85,0,0,0,8.81.39l5.58,4,6.58-8.75,6.84-3a9.4,9.4,0,0,0,1.28,1.34c2.64,2.26,13.35,8.28,21.62,10.86.66.21,1.29.39,1.9.55a15.24,15.24,0,0,0-1.91,6.4,11.14,11.14,0,0,0,3.41,8.6l.39.37c-4.87,6.87-8.92,16.09-2.39,22.68a27.07,27.07,0,0,1,2.6,3.27c.35.48.71,1,1.1,1.5-3.63,1.95-7.28,3.73-10.39,5.26-5.15,2.52-8.16,4-10.1,5.46-4,3-11.37,12.1-11.73,19.68a10.94,10.94,0,0,0,1.77,6.68,100.48,100.48,0,0,0,5.24,11.25,63.3,63.3,0,0,0,5.3,8.24c-18.84,6.59-32.11,12.39-35.07,21.2v0c-3.63-1.39-7.55-2.8-11.37-4-13.41-4.2-20.83-4.41-25.59-.73a10.32,10.32,0,0,0-3.92,6.75C284.76,252.36,284.56,253,284.37,253.56Z"/><path class="cls-2" d="M238.21,211.7,277.87,77s-8.39-22.15-3.07-34.69,4.5-.63,3.64,2.4,3.07,33.43,3.07,33.43L240.6,218.7Z"/><g id="texture-2" data-name="texture"><path class="cls-5" d="M295.77,27.66S240.45,209.44,239,223.39c-.32,3,28-90.31,44.86-150.17C289.9,51.7,294.5,34.5,295.77,27.66Z"/><path class="cls-5" d="M304.62,54s-12.23,15-21.46,22c-9.75-7.36-4.51-37.06-4.51-37.06s-7.38,34.49,2.86,39.22C296,73.11,301.65,57.39,304.62,54Z"/><path class="cls-5" d="M271.18,113.64s-7.41-3.91-12-18.69c-5.36-17.39-7.94-46.7-7.22-56.64C247.27,49.1,255.07,114.35,271.18,113.64Z"/><path class="cls-5" d="M268.59,125.94c19.28,4.19,57.12-.17,59.63-4.38a16.11,16.11,0,0,0,1.52-4.77,9.9,9.9,0,0,1-3.57-.87c-.33.77-.66,1.54-1,2.34C320.36,128.64,266.87,125.57,268.59,125.94Z"/><path class="cls-5" d="M256.11,169.11c-15.41-8.82-33.43-27.2-33.43-27.2Z"/><path class="cls-5" d="M239,223.39s45.3-26.81,62.55-38.16,94.82-65.41,94.82-65.41S258.12,222.72,239,223.39Z"/><path class="cls-5" d="M239,223.39c.95.57-62.39-173.82-62.39-173.82s42.65,128.89,57.72,164.73C236.54,219.64,238.17,222.92,239,223.39Z"/><polygon class="cls-5" points="217.15 101.7 206.16 130.43 218.37 102.08 219.93 84.81 234.78 75.05 219.31 82.85 207.79 73.12 219.02 84.39 217.15 101.7"/><path class="cls-5" d="M211.4,151.12c.59.26-17.68-12.19-34.1-23.41C166.17,120.11,139.21,89,139.21,89s20.89,27.86,35.88,39.68S198.87,145.76,211.4,151.12Z"/><path class="cls-5" d="M179.08,228.19c-3.65,2.31-11.38,6.93-11.38,6.93s29.16-15.55,40.59-17.15S239,223.39,239,223.39s-21-4.95-29.38-4c-10,1.06-35.79,13.6-42.12,16.56"/><path class="cls-5" d="M303.37,186.14S377.24,176,384.1,171.19C377.11,181.27,315.85,186.17,303.37,186.14Z"/><path class="cls-5" d="M263.76,210.34s32.78,13.19,52.93,19.5c2,.63,42,5.93,59.56,1.51l2.1-.78a7.74,7.74,0,0,1-4.6-.78c-16,1.71-45.61-.27-59.36-3.62Z"/><path class="cls-5" d="M239,223.39s24,8.73,34.35,20.11c7.79,8.19,21.18,32.14,21.18,32.14S270.66,237.29,239,223.39Z"/><path class="cls-5" d="M239,223.39s-99.05-54.59-104.7-65.94Z"/></g></g></g></svg>