<svg xmlns="http://www.w3.org/2000/svg" viewBox="0 0 101.65 89.61"><defs><style>.cls-1{fill:#0d6f40;}</style></defs><title>Asset 1</title><g id="Layer_2" data-name="Layer 2"><g id="second"><g id="cyclone"><path class="cls-1" d="M36.11,2.53c-26.48,3,70.17,4.52,16.55,29.84C27.91,44.05,6.9,37.6,1.27,35.45c-.65-.24-1.37.22-1.26.82.74,4,3.65,15.53,13.23,18.93a.73.73,0,0,1-.08,1.44C2.78,59.31,6.9,66.86,14.24,70a.71.71,0,0,1,.1,1.3c-4.91,2.89,1.54,7.43,6.2,8.94C26,82,26.43,81.93,29.14,89c.22.58-.3.89.17.43,2.06-2,1.42-5.85.48-7.71a.74.74,0,0,1,.55-1c5.14-1.35,7.75-8.78,0-10.59a.74.74,0,0,1,0-1.46c13.6-4,15.53-11.63,4-12.09-.93,0-1.2-1.1-.36-1.45C61.22,43.7,170.35-12.48,36.11,2.53Z"/></g><g id="garbage"><path class="cls-1" d="M26.77,26.59l.85-1.06,1.67-1L31,24l2.89-.29L34,25.36s2.29-.39,2.42-.45a15.66,15.66,0,0,1,1.77,2c.07.1.16,3.52.16,3.52L37,31l.39,1.65-2.78,1.24-.75-.07L31.31,35.4,30.12,34l-2.36-.77-2.55-3.91Z"/></g><g id="apple"><path class="cls-1" d="M42.05,13.87c1.14-.5,5.56-2.59,7.26-.87,0,0-3,.25-3,1.67s2.88,5.19,4.1,5.32,2-1.92,2-1.92a4.78,4.78,0,0,1-2,5.8c-3.48,2.07-5.38,1.38-7.11.6,0,0,2.29-.74,2-2s-2.14-4.43-3.77-4.89-2.92,1.68-2.92,1.68S37.32,15.93,42.05,13.87ZM41.75,12c0-.22-.74,0-.38.12a1.9,1.9,0,0,1,.72.45c.37.39.6,1,.66,1a2.42,2.42,0,0,0-.48-1.06A1.58,1.58,0,0,0,41.75,12Z"/></g><path id="can" class="cls-1" d="M15.34,18.58l-.32.55v.22l-.26.78,0,.21.09.2v0a24.31,24.31,0,0,0-2.69-1.69c-2.49-1.35-4.74-2.13-5.05-1.73-.06.08,0,.2.07.36a.94.94,0,0,0-.1.1L1.27,24.76c-.3.39,1.3,2,3.78,3.39s4.92,1.91,5.22,1.51c.08-.1,5.21-7.47,5.21-7.47a.21.21,0,0,1,0-.06c.29,0,.49,0,.56-.09s0-.14,0-.24l.19,0,.71.06.21-.15,1.16-.23.2-.11.81-.44.12-.2.22-.09.22-.1.71-.81.27-.08.15-.41.16-.16.56-.67.12-.18,0-.23.29-.77.12-.19-.1-.21v-.2l-.1-.62-1.36-.74-1.16.17-.23,0-1.63.8-1.24.93"/></g></g></svg>