<svg xmlns="http://www.w3.org/2000/svg" viewBox="0 0 235.66 447.03"><defs><style>.cls-1{fill:#a2a2a2;}.cls-2{fill:#57648e;}.cls-3{fill:#4b5078;}.cls-4{fill:#d5d5d5;fill-opacity:0.49;}.cls-5,.cls-9{fill:#fffcfc;}.cls-5{fill-opacity:0.68;opacity:0.62;}.cls-6{fill:#506089;}.cls-7{opacity:0.68;}.cls-8{fill:#d2d2d2;}.cls-9{fill-opacity:0.48;}.cls-10{fill:#444;}.cls-11{fill:#c5c5c5;}.cls-12{fill:#9aa1bb;}.cls-13{fill:#fffaf2;}</style></defs><title>milkbottle</title><g id="Layer_2" data-name="Layer 2"><g id="paper"><polygon class="cls-1" points="82.41 431.73 81.47 435.98 82.33 431.79 82.35 431.72 82.41 431.73"/><path class="cls-2" d="M172.67,7.14l-4.53,21.28-35.46-7.54A52.66,52.66,0,0,0,122,12.46c.62-2.94,1-4.78,3.67-11.23C127.57-3.54,172.67,7.14,172.67,7.14Zm45.39,13.75c.15-5.15-45.38-13.74-45.38-13.74l-4.53,21.27L203.61,36a53.15,53.15,0,0,1,13.23-3.32C217.46,29.71,217.85,27.87,218.06,20.89Z"/><path class="cls-2" d="M172.67,7.14l-4.53,21.28-35.46-7.54A52.66,52.66,0,0,0,122,12.46c.62-2.94,1-4.78,3.67-11.23C127.57-3.54,172.67,7.14,172.67,7.14Zm45.39,13.75c.15-5.15-45.38-13.74-45.38-13.74l-4.53,21.27L203.61,36a53.15,53.15,0,0,1,13.23-3.32C217.46,29.71,217.85,27.87,218.06,20.89Z"/><path class="cls-3" d="M122.18,11.48l47.44,10.09-1.46,6.85L132.7,20.88A52.66,52.66,0,0,0,122,12.46Z"/><path class="cls-3" d="M217.07,31.67l-.21,1A52.45,52.45,0,0,0,203.63,36l-35.46-7.55,1.46-6.84Z"/><path class="cls-4" d="M207.46,48.93a6.13,6.13,0,0,1-1.19-.14l-40.59-8.63.66-3.1,41.25,8.77A28.73,28.73,0,0,0,207.46,48.93Z"/><path class="cls-4" d="M102.27,433c-51.13-9.6,71.36,10.58,44.9-6.81-10.58-6.95-34.89-12-60.26-15.55l1.24-5.83c34.64,5.11,68.47,14.56,74.53,27.75C162.68,432.51,170.59,445.79,102.27,433Z"/><path class="cls-4" d="M163.47,439.54c-.39.37-.77.71-1.16,1s-.78.67-1.16,1c-.71.6-1.43,1.16-2.15,1.67a32.06,32.06,0,0,1-3,1.9l-.74.38-.91.42c-9.5,4.09-73-4.88-73.9-5l2-9.22c2.55.6,6.06,1.4,10.2,2.28C114.58,438.68,154.31,445.86,163.47,439.54Z"/><path class="cls-4" d="M95.12,118.19c-10.85,29.38-51,218.16-51,218.16s-16-3.92-15.91-14.12S66.81,116.77,76,109.52,98.18,109.9,95.12,118.19Z"/><path class="cls-4" d="M88.08,404.75l-1.24,5.83c-38-5.34-78.45-7.31-78.45-7.31C16.77,398.86,52.83,399.55,88.08,404.75Z"/><path class="cls-4" d="M82.35,431.72l-2,9.21h0l-.88-.25h0c-.19-.06-.4-.13-.65-.19l-.27-.08-1.39-.4-.54-.16-.39-.11c-.39-.13-.8-.25-1.24-.37h0l-2.88-.86-1.07-.32h0c-.9-.26-1.86-.56-2.87-.87h0c-1-.3-2-.63-3.15-.95l-2.69-.83h0l-2.79-.87h0l-2.91-.91h0l-3-1-.75-.24-2.3-.74c-2.3-.76-4.63-1.52-7-2.3-.52-.17-1-.34-1.56-.53l-2.3-.78-1.54-.53L36,426.9l-.18-.06-1.41-.51-2.2-.79-2.15-.8-1.4-.53L28,424l-1.26-.48-.76-.31-1.3-.51c-6.84-2.75-12.08-5.31-13.85-7.22-.2-.21-.4-.44-.59-.68s-.39-.48-.58-.72-.26-.34-.38-.52c-.26-.35-.51-.71-.75-1.09-.13-.19-.25-.39-.37-.58l-.36-.6c-.44-.73-.85-1.49-1.25-2.29l-.16-.32c-.22-.44-.43-.88-.64-1.34s-.42-.94-.62-1.43C10.91,415.34,50,424.94,72,429.62,76.18,430.51,79.75,431.22,82.35,431.72Z"/><path class="cls-4" d="M76,109.52c9.21-7.24,22.16.38,19.1,8.67-10.85,29.38-51,218.16-51,218.16s-16-3.92-15.91-14.12S66.81,116.77,76,109.52ZM102.27,433c-51.13-9.6,71.36,10.58,44.9-6.81-10.58-6.95-34.89-12-60.26-15.55h-.07c-38-5.34-78.45-7.31-78.45-7.31,8.38-4.41,44.44-3.72,79.69,1.48h.07c34.64,5.11,68.47,14.56,74.53,27.75C162.68,432.51,170.59,445.79,102.27,433Z"/><path class="cls-4" d="M179.83,414.8c-2.47,8.06-9.24,18-16.36,24.74-9.16,6.32-48.89-.86-70.85-5.53-4.14-.88-7.65-1.68-10.2-2.28h-.07c-2.6-.5-6.17-1.21-10.34-2.1-22-4.68-61.1-14.28-66.89-23.76C1.34,396.84-.77,385,.26,376.6c1.46-12,49.34-235.43,54.84-257.81S85.29,63.64,100,59.16c11.92-3.64,20.84-21,23.88-28a7.56,7.56,0,0,0,1.17.36l40.59,8.63h0l.66-3.11h0l-.66,3.1,40.59,8.63a6.13,6.13,0,0,0,1.19.14c-.05,7.62,1,27.13,10.45,35.31,11.62,10.08,20.86,50.07,16.76,72.75S183.37,403.23,179.83,414.8Z"/><path class="cls-4" d="M166.32,37.05l-.66,3.1-40.59-8.63a7.56,7.56,0,0,1-1.17-.36,28,28,0,0,0,1.15-2.88Z"/><path class="cls-1" d="M92.62,434c-4.14-.88-7.65-1.68-10.2-2.28h0L81.47,436l-1,5h0c1,.13,64.4,9.1,73.9,5l.91-.42.74-.38a32.06,32.06,0,0,0,3-1.9c.71-.51,1.43-1.08,2.15-1.67.38-.33.77-.65,1.16-1s.77-.68,1.16-1C154.31,445.86,114.58,438.68,92.62,434Zm-10.29-2.22,0-.07c-2.6-.5-6.17-1.21-10.34-2.1-22-4.68-61.1-14.28-66.89-23.76.2.49.42,1,.62,1.43s.42.9.64,1.34l.16.32c.41.8.82,1.56,1.25,2.29l.36.6c.12.19.24.39.37.58.24.38.49.74.75,1.09.12.18.25.35.38.52s.38.49.58.72.39.47.59.68c1.77,1.91,7,4.47,13.85,7.22l1.3.51.76.31L28,424l.7.26,1.4.53,2.15.8,2.2.79,1.41.51.18.06,2.17.77,1.54.53L42,429c.52.19,1,.36,1.56.53,2.33.78,4.66,1.54,7,2.3l2.3.74.75.24,3,1h0l2.91.91h0l2.79.87h0l2.69.83c1.09.33,2.14.66,3.15.95h0c1,.31,2,.61,2.87.87h0l1.07.32,2.88.86h0c.44.12.85.24,1.24.37l.39.11.54.16,1.39.4.27.08.65.19h0l.88.26h0l.27-1.24.82-3.71Z"/><polygon class="cls-1" points="82.41 431.73 81.47 435.98 82.33 431.79 82.35 431.72 82.41 431.73"/><path class="cls-5" d="M95.12,118.19c-10.85,29.38-51,218.16-51,218.16s-16-3.92-15.91-14.12S66.81,116.77,76,109.52,98.18,109.9,95.12,118.19Z"/><path class="cls-6" d="M217.46,19.76c-11.65-2.21-36.22-7.89-45.32-10l.56-2.6S212.07,14.58,217.46,19.76Z"/><path class="cls-6" d="M172.69,7.15l-.56,2.6C163,8,138.21,3.17,126.66.45,133.69-2.09,172.69,7.15,172.69,7.15Z"/><g class="cls-7"><path class="cls-8" d="M168.58,26.46l-2.91,13.7-40.6-8.64a7.56,7.56,0,0,1-1.17-.36,7,7,0,0,1-4.22-7.94A7,7,0,0,1,128,17.83Z"/><path class="cls-8" d="M214.57,43.4a7,7,0,0,1-7.11,5.53,6.13,6.13,0,0,1-1.19-.14l-40.59-8.63,2.91-13.7,40.59,8.64A7,7,0,0,1,214.57,43.4Z"/></g><path class="cls-9" d="M168.85,358.68c-4,15.51-57.33,26-78.49,13.3,7.59-6.8,17.29-63.22,25.5-120.81l.09-.61h0c9-63.53,16.25-128.28,16.81-129.23a60.43,60.43,0,0,0,10.67.05h0c35.39-3,61.27-36.15,62.92-32.1C221.62,126.58,172.82,343.16,168.85,358.68Z"/><path class="cls-10" d="M86.43,260.4c-.25.71-.67.73-1.19.19-1-1-1.89-3.37-.46-7.64,2.32-6.78,12.9-26,20-36.62.59-.93,1.28-1.24,2.23-.51,2.83,2.27,3.71,4.69,2.12,10.31-2,6.83-4.15,15.15-6.41,25.08,7.13-12.81,16.94-23.69,24.15-36,.59-1,1.15-1.1,2-.3,2.92,2.76,2.38,6.65.64,10.24-4.53,9.33-11,23.79-14,34-.26.71-.54.72-1.12.26-1.16-.87-2.09-2.94-1.09-7.62.88-4.18,5-14.19,9.15-23.15-7.59,10-15.28,21.09-19.94,30.7-.32.72-.66.94-1.24.55-2.39-1.59-3.54-4-3-8.38a177.22,177.22,0,0,1,5.07-23.27C97.51,237.94,90.18,250.82,86.43,260.4Z"/><path class="cls-10" d="M125,248.73a86.52,86.52,0,0,1,8.27-17.42c.59-.87,1.08-1.1,1.66-.49,1.1,1.08,1.79,4.07.25,7.65-1.34,3.15-4.09,8-5.42,11.61-1.51,4.14-1.25,6.87,1,6.64,3.16-.28,6.82-5.07,8.72-10,.33-.64.82-.59,1.13,0,.6,1.1.46,2.58-.31,4.37-1.93,4.44-6.22,7.57-10.15,7.73C124.82,259,123.29,254.57,125,248.73Zm14.88-19c-.87,1-2.84.89-4-.89a4.37,4.37,0,0,1,.13-5.21c1.07-1.24,3.14-.48,4.13,1.38A4.24,4.24,0,0,1,139.9,229.77Z"/><path class="cls-10" d="M145.56,256c3.38.14,8.08-5.12,10.59-10.64.46-.93,1.23-1,1.55-.06a6.45,6.45,0,0,1-.52,4.38c-.9,2.15-5.77,8.18-11.39,8.28-4.85.06-7.59-3.2-6.29-10.84,2.09-12.32,9.55-25.35,16.4-33.09,1-1.17,2-1.35,3-.48,2.11,1.74,2.64,4.32,1.94,7.65C159,230,151.52,238.7,145.44,243,142.92,250,142.4,255.88,145.56,256Zm12.83-36.17c-.93-.52-5.8,7.48-10.27,16.66-.58,1.15-1.1,2.3-1.54,3.44C155.87,231.77,159.33,220.38,158.39,219.86Z"/><path class="cls-10" d="M173.12,227.54c2.63-1,4.36,0,5.88,2.84a6.68,6.68,0,0,1-1.13,8.28,22.87,22.87,0,0,1-9.51,6.08c.52,5.75,2.65,9.66,5.33,9.83,2.88.16,6.52-5.4,8.44-9.84.39-.86,1-.95,1.4-.13a5.3,5.3,0,0,1-.66,4.32c-1.56,3-4.6,7.64-10.15,7.8-4.91.14-9.22-3.69-9.47-13.17-.06-1.26.07-1.48,1.39-2,8.58-3.24,13-9.54,11.83-11.32-.83-1.23-3.88-.33-7.48,2.7-5.1,4.22-8,10.53-12.86,23.66-.19.57-.74.73-1.25.19-1.11-1.14-1.55-3.38-.4-7.71,1.7-6.47,12.38-30,18.27-38.79.6-.86,1.3-1,1.75-.14,1.14,2.06,1.12,4.87-1.61,10.12-1.57,2.95-4.1,8-5.85,11.49A17,17,0,0,1,173.12,227.54Z"/><path class="cls-11" d="M102.27,433c-51.13-9.6,71.36,10.58,44.9-6.81-10.58-6.95-34.89-12-60.26-15.55h-.07c-38-5.34-78.45-7.31-78.45-7.31,8.38-4.41,44.44-3.72,79.69,1.48h.07c34.64,5.11,68.47,14.56,74.53,27.75C162.68,432.51,170.59,445.79,102.27,433Z"/><path class="cls-12" d="M207.13,17.64c-5.32-1.58-11.85-2.76-17.89-4.13l-1,12L205,29.17A68.7,68.7,0,0,0,207.13,17.64Z"/><path class="cls-12" d="M144.14,16.16s-3.64-3.32,1.46-11.6c-1.64-.29-3.26-.57-4.82-.81-6.21,1.56-5,10.69-5,10.69Z"/><path class="cls-13" d="M58.85,357.33c0,.17-3.18,12-5.63,17.21-2.94,6.27,6.46,11.08,7.12,5.09L58.81,357.5"/><path class="cls-13" d="M182.66,351c0,.23-2.95,16.8-3.31,24.62-.44,9.41-11,11-8.67,3.09l11.93-27.48"/></g></g></svg>