<svg xmlns="http://www.w3.org/2000/svg" viewBox="0 0 375.86 315.16"><defs><style>.cls-1{fill:#dddbcc;}.cls-1,.cls-3{stroke:#b2b2ac;stroke-miterlimit:10;}.cls-2{fill:#b2b1a3;}.cls-3{fill:#edede5;}.cls-4{font-size:35.13px;font-family:JCHEadA, HeadLineA;letter-spacing:0.1em;}.cls-5{fill:#bcbcbc;}.cls-6{fill:#6b6565;}.cls-7{fill:#3b3b39;fill-opacity:0.34;}</style></defs><title>newspaper</title><g id="Layer_2" data-name="Layer 2"><g id="paper"><g id="newspaper"><path id="front" class="cls-1" d="M134.34,304.11c-1.55,1.41-5.82,17.26-13.46,7.27-7.07-9.26-120.14-128-120.14-128L227,4,348.21,139.27Z"/><polygon class="cls-2" points="74.05 167.87 32.89 199.35 30.89 197.19 72.04 165.72 74.05 167.87"/><polygon class="cls-2" points="80.56 174.88 39.4 206.35 37.4 204.2 78.55 172.72 80.56 174.88"/><polygon class="cls-2" points="87.4 182.24 46.24 213.71 44.24 211.56 85.4 180.08 87.4 182.24"/><polygon class="cls-2" points="94.08 189.41 52.92 220.89 50.92 218.74 92.07 187.26 94.08 189.41"/><polygon class="cls-2" points="100.75 196.6 59.6 228.07 57.59 225.92 98.75 194.44 100.75 196.6"/><polygon class="cls-2" points="107.43 203.78 66.27 235.25 64.27 233.1 105.43 201.62 107.43 203.78"/><polygon class="cls-2" points="114.45 211.33 73.3 242.8 71.29 240.65 112.45 209.17 114.45 211.33"/><polygon class="cls-2" points="120.96 218.33 79.81 249.8 77.8 247.65 118.96 216.17 120.96 218.33"/><polygon class="cls-2" points="127.8 225.69 86.65 257.16 84.64 255.01 125.8 223.53 127.8 225.69"/><polygon class="cls-2" points="134.48 232.87 93.33 264.34 91.32 262.19 132.48 230.71 134.48 232.87"/><polygon class="cls-2" points="141.16 240.05 100 271.52 98 269.37 139.15 237.89 141.16 240.05"/><path class="cls-3" d="M26.16,135S142.3,294.18,127.32,311c1.5,4.3,136-74.33,247.87-162.36L280.43.66Z"/><text class="cls-4" transform="matrix(1.09, -0.56, 0.53, 0.85, 124.77, 132.07)">NEWS</text><polygon points="295.55 46.67 59.95 178.87 60.55 179.74 296.15 47.55 295.55 46.67"/><path class="cls-2" d="M151.7,150.23l-75,40.84c-3.2,1.27-3.4.3-4.13-.81h0a2.24,2.24,0,0,1,.89-3.22L148.92,146a2.76,2.76,0,0,1,3.56.8h0C153.21,147.86,153.75,149.12,151.7,150.23Z"/><g id="article"><polygon class="cls-2" points="188.48 143.54 143.22 169.97 141.53 167.6 186.8 141.17 188.48 143.54"/><polygon class="cls-2" points="193.39 150.45 148.12 176.88 146.44 174.51 191.7 148.08 193.39 150.45"/><polygon class="cls-2" points="198.85 158.15 153.59 184.58 151.91 182.21 197.17 155.78 198.85 158.15"/><polygon class="cls-2" points="203.33 164.95 158.06 191.38 156.38 189.01 201.65 162.58 203.33 164.95"/><polygon class="cls-2" points="208.79 172.65 163.53 199.08 161.85 196.71 207.11 170.28 208.79 172.65"/><polygon class="cls-2" points="214.26 180.35 169 206.78 167.31 204.41 212.58 177.98 214.26 180.35"/><polygon class="cls-2" points="219.25 187.37 173.98 213.8 172.3 211.43 217.56 185 219.25 187.37"/><polygon class="cls-2" points="224.15 194.28 178.89 220.71 177.21 218.34 222.47 191.91 224.15 194.28"/><polygon class="cls-2" points="229.62 201.98 184.35 228.41 182.67 226.04 227.94 199.61 229.62 201.98"/><polygon class="cls-2" points="235.08 209.68 189.82 236.11 188.14 233.74 233.4 207.31 235.08 209.68"/><polygon class="cls-2" points="240.55 217.38 195.29 243.81 193.6 241.44 238.87 215.01 240.55 217.38"/><polygon class="cls-2" points="246.02 225.08 200.75 251.51 199.07 249.14 244.34 222.71 246.02 225.08"/><polygon class="cls-2" points="250.44 231.31 205.18 257.74 203.5 255.37 248.76 228.94 250.44 231.31"/><polygon class="cls-2" points="124.77 179.26 79.51 205.69 77.83 203.32 123.09 176.89 124.77 179.26"/><polygon class="cls-2" points="130.24 186.96 84.97 213.39 83.29 211.02 128.56 184.59 130.24 186.96"/><polygon class="cls-2" points="135.99 195.06 90.72 221.49 89.04 219.12 134.31 192.69 135.99 195.06"/><polygon class="cls-2" points="141.59 202.95 96.33 229.38 94.65 227.01 139.91 200.58 141.59 202.95"/><polygon class="cls-2" points="147.2 210.85 101.94 237.28 100.25 234.91 145.52 208.48 147.2 210.85"/><polygon class="cls-2" points="152.81 218.75 107.54 245.18 105.86 242.81 151.13 216.38 152.81 218.75"/><polygon class="cls-2" points="158.7 227.05 113.44 253.48 111.76 251.11 157.02 224.68 158.7 227.05"/><polygon class="cls-2" points="164.17 234.75 118.91 261.18 117.22 258.81 162.49 232.38 164.17 234.75"/><polygon class="cls-2" points="169.92 242.85 124.65 269.28 122.97 266.91 168.24 240.48 169.92 242.85"/><polygon class="cls-2" points="175.52 250.74 130.26 277.18 128.58 274.81 173.84 248.38 175.52 250.74"/><polygon class="cls-2" points="181.13 258.64 135.87 285.07 134.18 282.7 179.45 256.27 181.13 258.64"/><polygon class="cls-2" points="186.74 266.54 141.47 292.97 139.79 290.6 185.06 264.17 186.74 266.54"/><polygon class="cls-2" points="190.8 272.26 145.53 298.69 143.85 296.32 189.12 269.89 190.8 272.26"/></g><g id="profile"><polygon class="cls-5" points="349.54 148.7 258.37 202.22 199.35 119.54 290.52 66.02 349.54 148.7"/><ellipse class="cls-6" cx="272.4" cy="124.3" rx="22.65" ry="20.54"/><path class="cls-6" d="M258.37,202.22s-5.8-42.1,26.34-60.68,64.83,7.16,64.83,7.16Z"/></g><path id="shade" class="cls-7" d="M373.59,151.87l-18.84-29.4c-53.84,35.63-180.09,109.83-243.89,147,12.19,22.2,19.3,39.73,14.85,44.71C127.22,318.53,261.73,239.9,373.59,151.87Z"/></g></g></g></svg>