<svg xmlns="http://www.w3.org/2000/svg" viewBox="0 0 310.79 268.14"><defs><style>.cls-1{fill:#fff;}.cls-2{fill:#e2e2e2;opacity:0.61;}</style></defs><title>organicsign</title><g id="Layer_2" data-name="Layer 2"><g id="background"><rect class="cls-1" x="18.13" y="35.95" width="270.54" height="230.53" transform="matrix(1, -0.01, 0.01, 1, -1.85, 1.9)"/><path class="cls-2" d="M23.09,23.28C24.78,22.12,44,0,44,0l-.81,7.52,8-2-.27,4.67,7.52.81L56.6,17.7l6.48,0L20.2,65.83l-1-7.27-7.8,3.86.41-7L0,53.81Z"/><path class="cls-2" d="M288.22,29.54c1.1,1.73,22.57,21.62,22.57,21.62L303.3,50.1l1.77,8.12-4.66-.43-1.05,7.49-6.68-2.06-.24,6.48L245.78,25.24l7.3-.76-3.6-7.93,7,.65,2-11.75Z"/></g></g></svg>