<svg xmlns="http://www.w3.org/2000/svg" viewBox="0 0 318.23 267.43"><defs><style>.cls-1{fill:#fff;}.cls-2{fill:#e2e2e2;opacity:0.61;}</style></defs><title>papersign</title><g id="Layer_2" data-name="Layer 2"><g id="background"><rect class="cls-1" x="21.67" y="29.63" width="260.83" height="222.26" transform="translate(-7.97 9.14) rotate(-3.35)"/><path class="cls-2" d="M20.88,23.35C22.46,22.15,39.93,0,39.93,0l-.45,7.28L47.15,5l-.06,4.51,7.28.45L52.9,16.48l6.25-.26L20,64.46l-1.3-7-7.34,4.07.09-6.76L0,53.79Z"/><path class="cls-2" d="M279.49,228.23c1.85-.71,24.84-17.06,24.84-17.06L301.86,218l8-.08-1.32,4.31,6.86,2.47-3.26,5.9,6.08,1.5-51.14,35.3.71-7-8.19,1.84,2-6.46-10.69-4.19Z"/></g></g></svg>