<svg xmlns="http://www.w3.org/2000/svg" viewBox="0 0 276.58 212.65"><defs><style>.cls-1{fill:#fff;}.cls-2{fill:#e2e2e2;opacity:0.61;}</style></defs><title>plasticsign</title><g id="Layer_2" data-name="Layer 2"><g id="background"><rect class="cls-1" x="37.22" y="-15.13" width="206.98" height="242.9" transform="matrix(0.02, -1, 1, 0.02, 31.1, 244.49)"/><path class="cls-2" d="M276.55,107.93c-.4,2-1.11,15.79-1.46,23.2a1.47,1.47,0,0,1-2.72.71h0a1.47,1.47,0,0,0-2.41-.11l-2,2.65a1.48,1.48,0,0,1-2.38,0l-.45-.65a1.47,1.47,0,0,0-2-.4l-3.1,1.95a1.47,1.47,0,0,1-2.14-.66l-1-2.42a1.47,1.47,0,0,0-2.26-.58l-.5.39a1.47,1.47,0,0,1-2.38-1.24l3-51.33a1.48,1.48,0,0,1,2.49-1l1,1a1.47,1.47,0,0,0,2.34-.43L261.94,76a1.47,1.47,0,0,1,2.53-.22l1.38,2a1.47,1.47,0,0,0,1.95.43l5.87-3.48a1.47,1.47,0,0,1,2.22,1.24l.69,31.7A.92.92,0,0,1,276.55,107.93Z"/><path class="cls-2" d="M27.89,102.18c-.74,1.69-4.9,27.63-4.9,27.63l-2.94-6.12-5.18,5.37-2-3.7L6.75,128.3l-1.79-6-5,3,10-57,4.21,5.07,4.12-6.64,3,5.54L31.07,68Z"/></g></g></svg>