<svg xmlns="http://www.w3.org/2000/svg" viewBox="0 0 276.58 212.65"><defs><style>.cls-1{fill:#fff;}.cls-2{fill:#e2e2e2;opacity:0.61;}</style></defs><title>plasticsign</title><g id="Layer_2" data-name="Layer 2"><g id="background"><rect class="cls-1" x="37.22" y="-15.13" width="206.98" height="242.9" transform="matrix(0.02, -1, 1, 0.02, 31.1, 244.49)"/><path class="cls-2" d="M276.55,107.93c-.4,2-1.11,15.79-1.46,23.2a1.47,1.47,0,0,1-2.72.71h0a1.47,1.47,0,0,0-2.41-.11l-2,2.65a1.48,1.48,0,0,1-2.38,0l-.45-.65a1.47,1.47,0,0,0-2-.4l-3.1,1.95a1.47,1.47,0,0,1-2.14-.66l-1-2.42a1.47,1.47,0,0,0-2.26-.58l-.5.39a1.47,1.47,0,0,1-2.38-1.24l3-51.33a1.48,1.48,0,0,1,2.49-1l1,1a1.47,1.47,0,0,0,2.34-.43L261.94,76a1.47,1.47,0,0,1,2.53-.22l1.38,2a1.47,1.47,0,0,0,1.95.43l5.87-3.48a1.47,1.47,0,0,1,2.22,1.24l.69,31.7A.92.92,0,0,1,276.55,107.93Z"/><path class="cls-2" d="M27.89,102.18c-.74,1.69-4.9,27.63-4.9,27.63l-2.94-6.12-5.18,5.37-2-3.7L6.75,128.3l-1.79-6-5,3,10-57,4.21,5.07,4.12-6.64,3,5.54L31.07,68Z"/><path d="M81.09,100.06a11.37,11.37,0,0,1-.15,2Q79,113.56,70,113.56a14.87,14.87,0,0,1-8.25-2.35v1.05a10.87,10.87,0,0,0,.6,4.6,9.86,9.86,0,0,1,.95,2,2.38,2.38,0,0,1-.77,1.75,2.49,2.49,0,0,1-1.78.75,3.09,3.09,0,0,1-3.05-1.6,10.89,10.89,0,0,1-.6-3.55c-.07-1.13-.1-2.43-.1-3.9a21.45,21.45,0,0,1,.23-2.55,21.16,21.16,0,0,0,.22-2.6v-3.4a40.7,40.7,0,0,1,.2-4.43c.17-2,.25-3.39.25-4.32v-4.5q0-.11-.45-2.7a3.71,3.71,0,0,1,2.43-1.2,2.6,2.6,0,0,1,2.13,1A3.65,3.65,0,0,1,62.79,90v.7a10.07,10.07,0,0,1,8.35-4.35,9,9,0,0,1,7.5,3.55A13,13,0,0,1,81.09,98v2.1Zm-4.55-.8a14.93,14.93,0,0,0-1.05-5.9Q74,90.06,71,90.06q-3.86,0-6.6,4.7A16,16,0,0,0,62,103Q62,110,69,110a5.82,5.82,0,0,0,5.5-3.25,24.23,24.23,0,0,0,1.9-6.55Q76.54,99.22,76.54,99.26Z"/><path d="M105.44,119.46a33.31,33.31,0,0,1-11.4,2q-4.7,0-6.6-3.3Q86,115.56,86,110.51c0-2,.15-4.88.45-8.75s.45-6.78.45-8.75c0-.37,0-1-.07-1.75s-.08-1.4-.08-1.8a9.76,9.76,0,0,1,.1-1.35,3.08,3.08,0,0,1,2.45-1.2c.93,0,1.65.6,2.15,1.8a7.51,7.51,0,0,1,.6,3c0,2.27-.22,5.63-.65,10.1s-.65,7.82-.65,10q0,5.9,3.35,5.9a13.6,13.6,0,0,0,4.3-1,13.81,13.81,0,0,1,4.3-1,2.38,2.38,0,0,1,2.15,1.25A4.8,4.8,0,0,1,105.44,119.46Z"/><path d="M135.34,111.91c0,1.6-.72,2.42-2.15,2.45a17.72,17.72,0,0,0,1.1,3.1,2.37,2.37,0,0,1-.9,1.8,3,3,0,0,1-2,.7,5.12,5.12,0,0,1-2.1-.55,6.92,6.92,0,0,1-.65-3.1c0-.3,0-.73.05-1.3s.05-1,.05-1.25c0,.23-.55.35-1.65.35-1.87,0-4.08.08-6.65.25q-5.5.3-6,.85c-.32.37-.53,2.15-.63,5.35a1.94,1.94,0,0,1-1.65,1,3.44,3.44,0,0,1-2.15-.88,2.43,2.43,0,0,1-1.1-1.87,17.21,17.21,0,0,1,.9-2.8q1-3.55,3.25-10.65Q119.8,87,124.24,87t6.7,9.7A107.84,107.84,0,0,1,132.89,110a7.75,7.75,0,0,1,1.65.5A1.51,1.51,0,0,1,135.34,111.91Zm-7-1.9q-2.2-17.45-4-17.45-1.4,0-4.9,8.2Q117,106.66,115.54,111c1.07-.23,2.65-.52,4.75-.85A54.42,54.42,0,0,1,128.34,110Z"/><path d="M161.59,115.85c0,2-1.18,3.6-3.55,4.71a14.21,14.21,0,0,1-6.25,1.35,24.26,24.26,0,0,1-7.4-1.4q-5.25-1.8-5.25-4.2a2.22,2.22,0,0,1,2.2-2.2,3.58,3.58,0,0,1,2.5,1.1q1.95,1.65,2.1,1.8,1.76,1,6.3,1c2.7,0,4-.62,4-1.85,0-1-1.27-2.47-3.8-4.3l-5.3-3.4a20.57,20.57,0,0,1-4.95-4.35,10,10,0,0,1-2.05-6.2,12.4,12.4,0,0,1,2.7-7.85,8.75,8.75,0,0,1,7.2-3.8,9.73,9.73,0,0,1,6.25,2A9.19,9.19,0,0,1,159.59,94c.1.93.3,2.32.6,4.15a5.62,5.62,0,0,1,.2,1.2,7,7,0,0,1-.6,3,2.47,2.47,0,0,1-2.35,1.7,2.9,2.9,0,0,1-2.55-2.56,9.21,9.21,0,0,1,.3-1.93,9.37,9.37,0,0,0,.3-1.94q0-6.76-4.5-6.77a5.17,5.17,0,0,0-4.2,2.13,7.35,7.35,0,0,0-1.7,4.68q0,3.6,4.3,7,3.95,2.66,8,5.31Q161.58,113.05,161.59,115.85Z"/><path d="M187.74,90.36a2.19,2.19,0,0,1-.52,1.47,1.67,1.67,0,0,1-1.33.63,6.09,6.09,0,0,1-1.67-.43,6.59,6.59,0,0,0-2-.42h-3.45c-.5,0-.77,0-.82.12a4.32,4.32,0,0,0-.18,1q-.19,1.25-.6,3.75a112.25,112.25,0,0,0-.95,15.35q0,5.81,1.35,8v1.35a3.56,3.56,0,0,1-1.5.5,4,4,0,0,1-4.15-3.1,23.81,23.81,0,0,1-.45-5.75q0-5,.2-7.7c0-.8.22-2.72.55-5.75a52.81,52.81,0,0,0,.4-5.75V92.11c-.47,0-1.37.15-2.71.35a18.64,18.64,0,0,1-2.72.25c-2.31,0-3.47-.68-3.47-2,0-.57.17-.9.5-1,.5-.73,3.12-1.37,7.85-1.9a85.8,85.8,0,0,1,8.9-.6,13.3,13.3,0,0,1,4.2.6C186.87,88.33,187.74,89.19,187.74,90.36Z"/><path d="M197.74,89.61a3.41,3.41,0,0,1-.45,1.1,9.4,9.4,0,0,0-.4,2.25q-1,11.21-1,19.65a12.71,12.71,0,0,0,.4,3.55,17.82,17.82,0,0,0,1.45,3.15.78.78,0,0,1,.05.3c0,.7-.82,1-2.45,1h-.45q-2.55,0-3.1-4.1a102.43,102.43,0,0,1-.7-13.65q0-2.05.08-6.18t.07-6.22a3,3,0,0,1,1.2-2.2,3.61,3.61,0,0,1,2.35-1,3.43,3.43,0,0,1,1.95.75A2,2,0,0,1,197.74,89.61Z"/><path d="M225.14,112.55a6.89,6.89,0,0,1-.5,2.29,9.83,9.83,0,0,1-4.7,5.18,14.44,14.44,0,0,1-6.9,1.69,10.9,10.9,0,0,1-9.45-4.64,17.74,17.74,0,0,1-2.85-10.44,29.49,29.49,0,0,1,1.65-9.94,18.31,18.31,0,0,1,5.45-8.28,9.06,9.06,0,0,1,5.8-2.35,7.07,7.07,0,0,1,6.45,3.7,14.48,14.48,0,0,1,1.8,7.55,16.73,16.73,0,0,1-1,5.15c-.83,2.53-1.77,3.8-2.8,3.8s-2-.73-2.65-2.2a17.62,17.62,0,0,0,1.4-1.15c.67-.73,1-2.17,1-4.3a18.43,18.43,0,0,0-.65-5.25q-1-3.26-3.3-3.25c-1.07,0-2.23.68-3.5,2a15.57,15.57,0,0,0-2.45,3.44,26.07,26.07,0,0,0-2.45,11.93q0,10.38,7.8,10.38a7.3,7.3,0,0,0,5.3-1.89,21.45,21.45,0,0,0,2.35-3.53c.7-1.29,1.45-1.93,2.25-1.93a1.91,1.91,0,0,1,1.4.62A1.94,1.94,0,0,1,225.14,112.55Z"/></g></g></svg>