<svg xmlns="http://www.w3.org/2000/svg" viewBox="0 0 276.46 548.51"><defs><style>.cls-1,.cls-8{fill:#332c2a;}.cls-1{fill-opacity:0.57;}.cls-2{fill:#0d74ae;}.cls-3{fill:#176287;}.cls-4{fill:#c5512b;}.cls-5{fill:#d17455;}.cls-6{fill:#b53e14;}.cls-7{fill:#f3dcd5;}</style></defs><title>plasticbin</title><g id="Layer_2" data-name="Layer 2"><g id="background"><path class="cls-1" d="M271.77,548.51s-49.18-113-50.72-112.93H58.72c-.42-.1-48.95,112.93-48.95,112.93Z"/><path class="cls-2" d="M63.62,435.62a4.32,4.32,0,0,1-3.92-3.52L25.44,157c0-.17-.07-.55.51-1.2,1-1.18,3.69-2.57,7.69-2.57H242.87c4,0,6.62,1.38,7.66,2.56.55.63.51,1,.48,1.17L215.19,432.07a4.4,4.4,0,0,1-4,3.55Z"/><path class="cls-2" d="M63.62,435.62a4.32,4.32,0,0,1-3.92-3.52L25.44,157c0-.17-.07-.55.51-1.2,1-1.18,3.69-2.57,7.69-2.57H242.87c4,0,6.62,1.38,7.66,2.56.55.63.51,1,.48,1.17L215.19,432.07a4.4,4.4,0,0,1-4,3.55Z"/><path class="cls-3" d="M242.87,146.81H33.64c-8.74,0-15.28,4.92-14.53,10.94L53.37,432.89A10.67,10.67,0,0,0,63.62,442H211.21a10.74,10.74,0,0,0,10.3-9.11l35.83-275.14C258.12,151.73,251.61,146.81,242.87,146.81ZM251,156.92,215.19,432.07a4.4,4.4,0,0,1-4,3.55H63.62a4.32,4.32,0,0,1-3.92-3.52L25.44,157c0-.17-.07-.55.51-1.2,1-1.18,3.69-2.57,7.69-2.57H242.87c4,0,6.62,1.38,7.66,2.56C251.08,156.38,251,156.76,251,156.92Z"/><path class="cls-4" d="M138.23,153.19H242.87c4,0,6.62,1.38,7.66,2.56.55.63.51,1,.48,1.17L215.19,432.07a4.4,4.4,0,0,1-4,3.55H139.75Z"/><path class="cls-5" d="M139.75,435.62H63.62a4.32,4.32,0,0,1-3.92-3.52L25.44,157c0-.17-.07-.55.51-1.2,1-1.18,3.69-2.57,7.69-2.57H138.23"/><path class="cls-5" d="M242.87,146.81H33.64c-8.74,0-15.28,4.92-14.53,10.94L53.37,432.89A10.67,10.67,0,0,0,63.62,442H211.21a10.74,10.74,0,0,0,10.3-9.11l35.83-275.14C258.12,151.73,251.61,146.81,242.87,146.81ZM251,156.92,215.19,432.07a4.4,4.4,0,0,1-4,3.55H63.62a4.32,4.32,0,0,1-3.92-3.52L25.44,157c0-.17-.07-.55.51-1.2,1-1.18,3.69-2.57,7.69-2.57H242.87c4,0,6.62,1.38,7.66,2.56C251.08,156.38,251,156.76,251,156.92Z"/><path id="shade" class="cls-6" d="M242.87,146.81H33.64c-8.74,0-15.28,4.92-14.53,10.94l1.59,11.84s191.46-4.41,228.07,4.55a28.68,28.68,0,0,1,6.16,2.1l2.41-18.49C258.12,151.73,251.61,146.81,242.87,146.81Z"/><path class="cls-4" d="M268,156.83H8.88c-7.3,0-10.81-4.92-7.8-10.93L39.92,68.46c3-6,9.25-10.93,13.86-10.93H217.2c4.61,0,11.14,4.92,14.51,10.93l43.41,77.44C278.49,151.91,275.27,156.83,268,156.83Z"/><path class="cls-7" d="M12.5,153.19l254.19-2.73c7.31,0,10.66-.37,7.29-6.38l-5.58-10.17c-8.09-14.43-.49,2.56-3.53,10.17-1.82,4.55-244.43,8.71-249.64.91C11.59,139.52,39.83,88.5,48,66.64,52,56.15,61.7,58.44,69.1,57.53H53.78c-4.61,0-7.29,4.92-10.3,10.93L7,146.81C4,152.83,5.19,153.19,12.5,153.19Z"/><path class="cls-6" d="M215.67,50.24c1.31,2.22,14.58,18.22,21,41.91s16.8,45.84,9.12,47.37c-9.12,1.83-200.44,7.29-212.28-2.73C23,128,49.85,52.06,58.05,43.86S201.09,25.64,215.67,50.24Z"/><path class="cls-2" d="M211.45,16.89l29.26,108.75a5.5,5.5,0,0,1-.91,5c-1.66,2.17-4.94,3.46-8.79,3.46H46c-3.92,0-7.33-1.34-9.14-3.57a5.79,5.79,0,0,1-1.18-5L58.89,16.75C60.8,7.8,65.92.13,68.78.13H199.06"/><path class="cls-5" d="M46,134.06c-3.92,0-7.33-1.34-9.14-3.57a5.79,5.79,0,0,1-1.18-5L58.89,16.75C60.8,7.8,65.92.13,68.78.13H199.06c-1.44-1.46,9.86,9.79,12.39,16.76l29.26,108.75a5.5,5.5,0,0,1-.91,5c-1.66,2.17-4.94,3.46-8.79,3.46Z"/><path class="cls-4" d="M211.45,16.89c-4.89-13.12-76.87-7.65-76.87-7.65,28.55,28.24,16.4,72,6.08,124.82H231c3.85,0,7.13-1.29,8.79-3.46a5.5,5.5,0,0,0,.91-5Z"/><circle class="cls-8" cx="138.23" cy="72.1" r="51.02"/><path class="cls-4" d="M138.23,18.35A53.76,53.76,0,1,0,192,72.1,53.75,53.75,0,0,0,138.23,18.35Zm0,104.77a51,51,0,1,1,51-51A51.07,51.07,0,0,1,138.23,123.12Z"/><path class="cls-7" d="M66.94,9.24l-1.15,0c-1.63-.07-2.73.15-.74-3.17,3.63-6,34,3.19,129.67.46,4.14-.12,4.27-4.24,4.23-5.16-.11-2.39,8.39,7.89,6.55,7.89H66.94Z"/></g></g></svg>