<svg xmlns="http://www.w3.org/2000/svg" viewBox="0 0 112.37 323.22"><defs><style>.cls-1{fill:#e8edf1;}.cls-2{fill:#bcbcbc;fill-opacity:0.46;}.cls-3{fill:#e4e5e3;}.cls-4{fill:#c1c1c1;}.cls-5{fill:#f8fcff;}</style></defs><title>spoon</title><g id="Layer_2" data-name="Layer 2"><g id="Utensil"><g id="spoon"><path class="cls-1" d="M83.43,1.24c20.95,5.82,36.77,31,24.83,70.66-5.21,19.37-15.48,26.25-21.41,29.29s-21.79,5.62-26.66,17.63S29.64,271,29.64,271L9.73,323l-6.61.27s-7.16-9,.21-57.63S44.56,114.46,44.56,114.46s2.88-9-5.85-18.79C31.08,87.09,23.54,63.88,26.8,49.31S50.92-7.77,83.43,1.24Z"/><path class="cls-2" d="M82.83,4.6c-.55-.15-1.09-.29-1.63-.41C70.14,1.72,60.56,5.75,52.74,12.43c27.6,15.65,29.17,76.92,36,85.64,8.24-5.3,13.86-13.82,17.14-26C113.43,47,109,30.93,104,21.83A35,35,0,0,0,82.83,4.6Z"/><path class="cls-3" d="M55.2,104C50.66,92.24,15.9,253.69,15.9,253.69,12.37,274,3.12,323.22,3.12,323.22L9.73,323,29.64,271s25.68-140.2,30.55-152.22c2.56-6.32,8.17-10,13.76-12.56C75,103.85,57.78,110.71,55.2,104Z"/><path class="cls-4" d="M49,118.93c1.77-6.45,5.66-16.21,5.66-16.21-.62.6-2.94,5-10,4a16.39,16.39,0,0,1,0,7.72S10.71,217,3.33,265.59s-.21,57.63-.21,57.63l.55,0C9.7,301.26,9.81,261.36,49,118.93Z"/><path class="cls-5" d="M98.84,91.46c3.6-4.47,7-10.7,9.42-19.56C120.2,32.19,104.38,7.06,83.43,1.24c-32.51-9-53.38,33.51-56.63,48.07A35.62,35.62,0,0,0,26,56.66c7.33-21.15,25.35-60.58,55.55-51C116.61,16.72,114.62,54.11,98.84,91.46Z"/></g></g></g></svg>