<svg xmlns="http://www.w3.org/2000/svg" viewBox="0 0 269.47 367.3"><defs><style>.cls-1{fill:#eaf0f4;}.cls-2{fill:#e5e8ea;}.cls-3{fill:#d7dadd;}.cls-4{fill:#e5ecf1;}.cls-5{fill:#808962;fill-opacity:0.58;}.cls-6{fill:#d6d7d8;fill-opacity:0.54;}.cls-7{fill:none;stroke:#369952;stroke-miterlimit:10;stroke-width:0.48px;}.cls-8{fill:#77a12d;}.cls-9{fill:#62821d;}.cls-10{fill:#d1e2ab;}.cls-11{fill:#bdbfc1;}.cls-12{fill:#a3b519;}.cls-13{fill:#8bb72c;}.cls-14{fill:#dd9237;}.cls-15{fill:#e2991a;}.cls-16{fill:#ce8113;}.cls-17{fill:#d8d8d8;}.cls-18{fill:#90991c;}.cls-19{fill:#e9ebd2;}</style></defs><title>tetrapak</title><g id="Layer_2" data-name="Layer 2"><g id="Plastic_Mixed" data-name="Plastic/Mixed"><g id="tetra_pak" data-name="tetra pak"><rect class="cls-1" x="9.68" y="22.02" width="107.39" height="16.04" rx="1.6" ry="1.6" transform="translate(-6.76 30.55) rotate(-25.78)"/><polygon class="cls-1" points="115.32 13.86 19.81 59.98 62.49 102.6 162.84 49.16 115.32 13.86"/><path class="cls-2" d="M.11,99.81,19.81,60l43.11,42.28s0,0,0,0Z"/><polygon class="cls-3" points="19.83 64.5 57.09 99.81 2.82 98.64 19.83 64.5"/><polygon class="cls-4" points="62.9 102.31 0.11 99.81 104.29 363.39 169.69 367.13 269.47 313.62 162.84 49.16 62.9 102.31"/><ellipse class="cls-5" cx="90.22" cy="61.53" rx="17.07" ry="20.36" transform="translate(0.97 124.46) rotate(-69.48)"/><polygon class="cls-6" points="103.86 363.56 168.71 367.27 62.06 102.77 0 100.78 103.86 363.56"/><path class="cls-7" d="M80.06,194,57.2,196.75c-5.12.62-11.68-5.15-14.59-12.81l-14.77-39c-2.9-7.66-1.09-14.44,4-15.06l22.86-2.75c5.12-.62,11.69,5.15,14.59,12.81l14.77,39C87,186.61,85.18,193.38,80.06,194Z"/><line class="cls-7" x1="31.04" y1="143.99" x2="53.1" y2="142.54"/><line class="cls-7" x1="35.41" y1="156.9" x2="57.47" y2="155.46"/><line class="cls-7" x1="38.35" y1="165.41" x2="60.41" y2="163.96"/><line class="cls-7" x1="42.88" y1="171.85" x2="57.29" y2="170.91"/><line class="cls-7" x1="43.59" y1="176.67" x2="60.22" y2="175.57"/><line class="cls-7" x1="66.26" y1="169.59" x2="77.29" y2="168.87"/><line class="cls-7" x1="64.43" y1="165.07" x2="75.46" y2="164.34"/><line class="cls-7" x1="64.05" y1="159.21" x2="75.08" y2="158.48"/><line class="cls-7" x1="61.05" y1="151.77" x2="72.08" y2="151.05"/><line class="cls-7" x1="57.21" y1="142.27" x2="68.24" y2="141.54"/><path class="cls-8" d="M71.14,57.57l3.71-22s-1.89,16,15.7,20.67C110.28,61.47,114,43.86,114,43.86l-3.55,21s-8.25,10.45-24.79,6C73.3,67.43,71.14,57.57,71.14,57.57Z"/><path class="cls-9" d="M111.78,57.21c-6.25,4-14.17,7.43-21.48,7-8.66-.52-14.61-9.52-17.75-15.85l-1.41,9.22S73.3,67.43,85.7,70.8c16.54,4.5,24.79-6,24.79-6Z"/><path class="cls-10" d="M103.16,70a22,22,0,0,0,3.66-2,142.65,142.65,0,0,0,1.56-14.74,15,15,0,0,1-3.58,2.37Z"/><path class="cls-10" d="M95.68,57.18,93.41,71.92a26.84,26.84,0,0,0,2.89-.13c.81-1.31,1.84-9.24,2.46-14.6A21.15,21.15,0,0,1,95.68,57.18Z"/><path class="cls-10" d="M86.34,71c1-2.41,2.48-10.18,3.33-14.93a28.75,28.75,0,0,1-2.85-1L83.47,70.09c.7.26,1.44.5,2.23.71Z"/><path class="cls-10" d="M78.34,67.42c1-3,2.23-10.19,3.09-15.48a18,18,0,0,1-3-2.89L75.33,64.81A20.32,20.32,0,0,0,78.34,67.42Z"/><polygon class="cls-11" points="34.27 78.75 2.82 98.64 19.83 64.5 34.27 78.75"/><path class="cls-3" d="M17.88,59.31a1.46,1.46,0,0,0,1.93.68l94.11-45.45a1.46,1.46,0,0,0,.67-1.93L113,9.25C89.71,20.72,33.31,48.55,16.64,56.73Z"/><path class="cls-12" d="M269,313.79,192.28,123.43c-9.61,2.75-31.08,10.75-32.53,35-1.85,30.85-33.93,70.49-53.48,77.41-11.58,4.09-28.78,18.28-40,32.65l37.59,95.05,65.39,3.74Z"/><path class="cls-12" d="M269,313.79,192.28,123.43c-9.61,2.75-31.08,10.75-32.53,35-1.85,30.85-33.93,70.49-53.48,77.41-11.58,4.09-28.78,18.28-40,32.65l37.59,95.05,65.39,3.74Z"/><ellipse class="cls-13" cx="94.57" cy="40.4" rx="17.07" ry="20.36" transform="translate(23.58 114.81) rotate(-69.48)"/><path class="cls-8" d="M114.18,45.66a16.23,16.23,0,0,0-2.32-12.23c-5.53-8.87-17.76-12.94-27.31-9.09-6.47,2.61-10,8.2-10,14.28,4.89-3.61,11.86-7,19.63-5.58C102.82,34.66,109.91,40.94,114.18,45.66Z"/><path class="cls-14" d="M107.75,124c-1.38.6-1.91,1.24-1.61,1.92q1.9,4.31,3.83,8.62a5.81,5.81,0,0,1,.28,4.95,7.06,7.06,0,0,1-4,3.35,8.73,8.73,0,0,1-2.52.66,5.74,5.74,0,0,1-2.11-.17,4.15,4.15,0,0,1-1.63-.84,3.9,3.9,0,0,1-1-1.41,2.1,2.1,0,0,1-.11-1.67,2,2,0,0,1,1.21-1.14,2.09,2.09,0,0,1,1.57-.12,1.73,1.73,0,0,1,1,1,1.57,1.57,0,0,1,.05,1.22,1.8,1.8,0,0,1-.9.95,1.46,1.46,0,0,0,.6.39,3.06,3.06,0,0,0,.83.16,4.42,4.42,0,0,0,.95-.05,5.29,5.29,0,0,0,1-.28,3.93,3.93,0,0,0,1.26-.79,2.39,2.39,0,0,0,.69-1.15,3.61,3.61,0,0,0,0-1.58,9.45,9.45,0,0,0-.69-2.1l-3.75-8.42c-.3-.67-1.13-.7-2.49-.11l-.57-1.28,7.61-3.36C107.37,123.15,107.56,123.58,107.75,124Z"/><path class="cls-14" d="M127.54,115.2c-1.37.62-1.9,1.28-1.59,2q1.67,3.78,3.35,7.56a12.12,12.12,0,0,1,1,3.21,6,6,0,0,1-.2,2.79,5.56,5.56,0,0,1-1.54,2.33,10.26,10.26,0,0,1-3,1.85,11,11,0,0,1-3.55.91,6.34,6.34,0,0,1-2.89-.44,6,6,0,0,1-2.29-1.68,11.58,11.58,0,0,1-1.73-2.81q-1.64-3.7-3.29-7.39-.45-1-2.49-.12l-.58-1.3,8-3.58.58,1.32a5.41,5.41,0,0,0-1.77,1.1.9.9,0,0,0-.25,1c1.1,2.47,2.21,5,3.31,7.43a13,13,0,0,0,1.23,2.23,4.37,4.37,0,0,0,1.43,1.31,3.22,3.22,0,0,0,1.76.39,6.87,6.87,0,0,0,2.27-.59,6.71,6.71,0,0,0,2-1.22,3.42,3.42,0,0,0,1-1.55,4.16,4.16,0,0,0,0-2,12.26,12.26,0,0,0-.82-2.44c-1.12-2.51-2.24-5-3.35-7.54a.92.92,0,0,0-.94-.51,5.74,5.74,0,0,0-2,.6l-.59-1.33,6.42-2.91C127.14,114.31,127.34,114.75,127.54,115.2Z"/><path class="cls-14" d="M137,110.88c-1.36.62-1.88,1.28-1.56,2l5.44,12.28q.47,1.06,2.52.18l.58,1.31-7.65,3.28-.57-1.3c1.38-.59,1.91-1.24,1.6-1.94q-2.72-6.12-5.42-12.22c-.31-.71-1.15-.74-2.52-.12l-.6-1.34c2.53-1.16,5.05-2.31,7.57-3.48C136.56,110,136.76,110.43,137,110.88Z"/><path class="cls-14" d="M156.84,107l-1.6.91a6.46,6.46,0,0,0-3.15-2.38,5.16,5.16,0,0,0-3.87.35,6.57,6.57,0,0,0-2.33,1.73,5.24,5.24,0,0,0-1.08,2.3,7.37,7.37,0,0,0,0,2.73,13.41,13.41,0,0,0,1,3.05,11.55,11.55,0,0,0,1.75,2.86,6.38,6.38,0,0,0,2.07,1.64,4.94,4.94,0,0,0,2.28.52,7.12,7.12,0,0,0,5.66-3.36,7,7,0,0,0,.56-4.11l1.78-.15a12.5,12.5,0,0,1,.09,2.6,7.75,7.75,0,0,1-.62,2.54,7.4,7.4,0,0,1-1.59,2.29,9,9,0,0,1-2.83,1.84,11.66,11.66,0,0,1-3.71,1,8.59,8.59,0,0,1-3.54-.4,8.47,8.47,0,0,1-3.11-1.92,11.13,11.13,0,0,1-2.42-3.6A12.17,12.17,0,0,1,141,113a8.41,8.41,0,0,1,2.58-6.66,11.19,11.19,0,0,1,3.12-2.13,8.59,8.59,0,0,1,3.4-.9,6,6,0,0,1,2.54.38l-.09-1.75,1.68-.79C155.13,103.09,156,105,156.84,107Z"/><path class="cls-14" d="M173.7,98.5l-1.55.84c-1.26-2.35-2.76-3.1-4.51-2.27l-5.08,2.42q1.27,2.9,2.56,5.79l2.59-1.21q1.36-.63.29-3.64l1.43-.68q1.48,3.85,3,7.69l-1.39.64c-1-1.92-2-2.69-2.76-2.32l-2.43,1.12,2.94,6.66,4.3-1.94q3.84-1.72,2-7.11l1.72-.59c.83,2.39,1.67,4.79,2.51,7.18q-7.59,3.42-15.2,6.79l-.6-1.35c1.36-.61,1.87-1.28,1.55-2l-5.63-12.74c-.32-.73-1.16-.78-2.5-.14l-.62-1.4q7.53-3.57,15-7.19Q172.49,95.77,173.7,98.5Z"/><circle class="cls-15" cx="201.39" cy="279.44" r="41.43"/><path class="cls-16" d="M238.79,261a41.3,41.3,0,0,0-23.51-20.81,41.42,41.42,0,0,1-39.79,71.26A41.43,41.43,0,0,0,238.79,261Z"/><polygon class="cls-17" points="166.25 366.93 169.69 367.13 63.21 101.71 61.46 102.89 59.5 102.17 166.25 366.93"/><path class="cls-18" d="M166.34,367.13l2.91.17,1.89-1L115.33,231a8.75,8.75,0,0,1-3.09,2Z"/><path class="cls-19" d="M194.17,244.28c-8-21.21-12-31.43-12-31.43l-25.22-8a2.2,2.2,0,0,0-2.86,1.91l-.08.95,25.91,7.68,11.11,30Z"/></g></g></g></svg>