<svg xmlns="http://www.w3.org/2000/svg" viewBox="0 0 336.87 382.13"><defs><style>.cls-1{fill:#fff;}.cls-2{fill:#eaeaea;}.cls-3{fill:#0d6f40;}.cls-4{fill:#66c144;}.cls-5{fill:#0b5932;}.cls-6{fill:#60af3f;}</style></defs><title>timer</title><g id="Layer_2" data-name="Layer 2"><g id="timer"><path class="cls-1" d="M175.78,269.5c-49,0-88.9-36.56-88.9-81.5s39.88-81.5,88.9-81.5"/><path class="cls-2" d="M175.38,106.5a81.5,81.5,0,0,1,0,163"/><path class="cls-3" d="M175.38,110a78,78,0,1,1-78,78,78.09,78.09,0,0,1,78-78m0-7a85,85,0,1,0,85,85,85,85,0,0,0-85-85h0"/><path class="cls-4" d="M175.38,103a85,85,0,1,1-85,85,85,85,0,0,1,85-85m0-5a90,90,0,1,0,90,90,90.1,90.1,0,0,0-90-90Z"/><g id="symbol"><g id="logo"><path class="cls-3" d="M150,90.51l35.54-63.65S168.16.4,142.54.4,95.42,60.75,95.42,60.75Z"/><path class="cls-4" d="M253.31,37.6l19.84-10.74L244.22,78.94l-64.48,3.3,24-13.22C193.49,53.25,186.44,41,181,31.52,166.29,5.71,150,2.88,142.54.4c6.61,0,78.41-2.31,87.62,4.14C246.7,16.11,253.31,37.6,253.31,37.6Z"/></g><g id="logo-2" data-name="logo"><path class="cls-3" d="M116.71,284.86l-72.9,1s-14.23,28.26-1.41,50.46S118.22,347,118.22,347Z"/><path class="cls-4" d="M19.23,221.83,0,210l59.57-1,35.1,54.19L71.23,249.07c-8.55,16.74-15.63,29-21.13,38.4-15,25.67-9.27,41.21-7.7,48.89-3.31-5.73-41.21-66.75-40.24-78C3.92,238.3,19.23,221.83,19.23,221.83Z"/></g><g id="logo-3" data-name="logo"><path class="cls-3" d="M252.66,243.63,290,306.24s31.59-1.81,44.4-24-28.7-71-28.7-71Z"/><path class="cls-4" d="M246.81,359.57l-.61,22.56L215.56,331l29.38-57.5-.53,27.38c18.76-1,32.9-1,43.82-.9,29.71.14,40.32-12.57,46.18-17.77-3.3,5.72-37.2,69.06-47.39,73.82C268.73,364.59,246.81,359.57,246.81,359.57Z"/></g></g><path class="cls-5" d="M175.78,103v7a78,78,0,0,1,0,156v7a85,85,0,0,0,0-170Z"/><path class="cls-6" d="M175.78,98v5a85,85,0,0,1,0,170v5a90,90,0,0,0,0-180Z"/></g></g></svg>