<svg xmlns="http://www.w3.org/2000/svg" viewBox="0 0 908 1087.39"><defs><style>.cls-1{fill:#0d6f40;}.cls-2{fill:#fff;}.cls-3{fill:#e2e2e2;opacity:0.61;}.cls-4{fill:#0d74ae;}.cls-5{fill:#176287;}.cls-6{fill:#c5512b;}.cls-7{fill:#d17455;}.cls-8{fill:#b53e14;}.cls-9{fill:#f3dcd5;}.cls-10{fill:#332c2a;}.cls-11{fill:#3c423f;}.cls-12{fill:#0f5b35;}.cls-13{fill:#4d5450;}.cls-14{fill:#3a3f3c;}.cls-15{fill:#dee1df;}.cls-16{fill:#8cc63f;}.cls-17{fill:#75a929;}.cls-18{stroke:#000;stroke-miterlimit:10;stroke-width:0.54px;}.cls-19{fill:#f8f9ff;}.cls-20{fill:#dfe0e7;}.cls-21{fill:#a3a4a8;fill-opacity:0.44;}.cls-22{fill:#f2e35a;}.cls-23{fill:#d1c150;}.cls-24{fill:#163447;}.cls-25{fill:#fcee21;}.cls-26{fill:#d8bf56;}.cls-27{fill:#d6cd8a;}.cls-28{fill:#d8cf23;}.cls-29{fill:#953214;}.cls-30{fill:#c1b680;}.cls-31{fill:#9b8e3d;}.cls-32{fill:#ff6022;}.cls-33{fill:#ce471d;}</style></defs><title>tutorial3</title><g id="Layer_2" data-name="Layer 2"><g id="instruct3"><rect class="cls-1" x="10" y="72.6" width="888" height="1004.79"/><rect class="cls-2" x="212.9" y="198.44" width="136.71" height="160.43" transform="matrix(0.02, -1, 1, 0.02, -3.96, 553.27)"/><path class="cls-3" d="M371,279.72c-.27,1.3-.73,10.43-1,15.33a1,1,0,0,1-1.79.46h0a1,1,0,0,0-1.59-.07l-1.34,1.75a1,1,0,0,1-1.57,0l-.3-.43a1,1,0,0,0-1.31-.26l-2.05,1.29a1,1,0,0,1-1.41-.44l-.68-1.6a1,1,0,0,0-1.49-.39l-.34.27a1,1,0,0,1-1.57-.83l2-33.9a1,1,0,0,1,1.64-.64l.65.62a1,1,0,0,0,1.55-.28l.92-1.94a1,1,0,0,1,1.67-.14l.91,1.3a1,1,0,0,0,1.29.28l3.88-2.29a1,1,0,0,1,1.46.81l.46,20.94A1.11,1.11,0,0,1,371,279.72Z"/><path class="cls-3" d="M206.74,275.92c-.49,1.12-3.24,18.25-3.24,18.25l-1.94-4-3.42,3.55-1.32-2.45-4,1.95-1.17-4-3.28,2,6.58-37.65,2.78,3.35,2.73-4.38,2,3.66,6.45-2.88Z"/><path d="M241.88,274.52a8.05,8.05,0,0,1-.1,1.29q-1.29,7.63-7.23,7.63a9.86,9.86,0,0,1-5.45-1.55v.69a7.1,7.1,0,0,0,.39,3,6.36,6.36,0,0,1,.63,1.32,1.57,1.57,0,0,1-.51,1.16,1.63,1.63,0,0,1-1.17.49,2,2,0,0,1-2-1.06,7,7,0,0,1-.39-2.34c-.05-.75-.07-1.61-.07-2.58a14,14,0,0,1,.15-1.68,14,14,0,0,0,.15-1.72V277a25,25,0,0,1,.13-2.93c.11-1.28.16-2.24.16-2.85v-3c0-.05-.09-.64-.29-1.79a2.42,2.42,0,0,1,1.6-.79,1.72,1.72,0,0,1,1.41.64,2.42,2.42,0,0,1,.52,1.57v.46a6.66,6.66,0,0,1,5.52-2.87,5.91,5.91,0,0,1,4.95,2.35,8.54,8.54,0,0,1,1.62,5.35v1.38Zm-3-.53a9.91,9.91,0,0,0-.69-3.89,3.12,3.12,0,0,0-2.94-2.18q-2.55,0-4.36,3.1a10.53,10.53,0,0,0-1.62,5.45q0,4.59,4.62,4.59a3.85,3.85,0,0,0,3.64-2.14,16.07,16.07,0,0,0,1.25-4.33C238.84,274.17,238.87,274,238.87,274Z"/><path d="M258,287.34a22,22,0,0,1-7.53,1.28,4.6,4.6,0,0,1-4.36-2.18,10.34,10.34,0,0,1-1-5q0-1.95.3-5.78c.2-2.56.3-4.48.3-5.78,0-.25,0-.63-.05-1.16s0-.92,0-1.19a7.51,7.51,0,0,1,.06-.89,2,2,0,0,1,1.62-.79c.62,0,1.09.39,1.42,1.19a4.83,4.83,0,0,1,.4,2q0,2.25-.43,6.67t-.43,6.64c0,2.6.74,3.89,2.21,3.89a9,9,0,0,0,2.84-.67,9.18,9.18,0,0,1,2.84-.68,1.57,1.57,0,0,1,1.42.83A3.1,3.1,0,0,1,258,287.34Z"/><path d="M277.71,282.35c0,1.06-.47,1.6-1.42,1.62a11.31,11.31,0,0,0,.73,2,1.59,1.59,0,0,1-.6,1.18,2,2,0,0,1-1.32.47,3.32,3.32,0,0,1-1.39-.37,4.58,4.58,0,0,1-.43-2c0-.2,0-.49,0-.86s0-.65,0-.83c0,.16-.36.23-1.09.23-1.23,0-2.7.06-4.39.17-2.42.13-3.74.32-3.95.56s-.35,1.42-.41,3.53a1.28,1.28,0,0,1-1.09.63,2.27,2.27,0,0,1-1.42-.58,1.6,1.6,0,0,1-.73-1.24,11.46,11.46,0,0,1,.6-1.85q.66-2.34,2.14-7,4.42-12.12,7.37-12.12c1.91,0,3.39,2.14,4.42,6.41a72,72,0,0,1,1.29,8.82,4.82,4.82,0,0,1,1.09.33A1,1,0,0,1,277.71,282.35Zm-4.63-1.25q-1.44-11.53-2.6-11.53-.93,0-3.24,5.42-1.65,3.88-2.61,6.77c.7-.16,1.75-.35,3.14-.57A35.77,35.77,0,0,1,273.08,281.1Z"/><path d="M295.05,285c0,1.35-.79,2.38-2.35,3.11a9.31,9.31,0,0,1-4.13.9,15.87,15.87,0,0,1-4.88-.93c-2.32-.79-3.47-1.72-3.47-2.77a1.47,1.47,0,0,1,1.45-1.46,2.35,2.35,0,0,1,1.65.73c.86.73,1.32,1.12,1.39,1.19a9.16,9.16,0,0,0,4.16.66c1.78,0,2.68-.41,2.68-1.22s-.84-1.63-2.51-2.84l-3.5-2.25a13.66,13.66,0,0,1-3.27-2.87,6.57,6.57,0,0,1-1.36-4.1,8.19,8.19,0,0,1,1.79-5.18,5.77,5.77,0,0,1,4.75-2.51,6.38,6.38,0,0,1,4.13,1.34,6.06,6.06,0,0,1,2.15,3.74c.06.62.19,1.53.39,2.74a3.55,3.55,0,0,1,.13.8,4.68,4.68,0,0,1-.39,2,1.64,1.64,0,0,1-1.56,1.13,1.92,1.92,0,0,1-1.68-1.7,6.31,6.31,0,0,1,.2-1.27,6.39,6.39,0,0,0,.2-1.28q0-4.47-3-4.47a3.43,3.43,0,0,0-2.77,1.4,4.84,4.84,0,0,0-1.12,3.09c0,1.59.94,3.14,2.84,4.64l5.25,3.5Q295,283.11,295.05,285Z"/><path d="M312.32,268.12a1.46,1.46,0,0,1-.35,1,1.07,1.07,0,0,1-.87.41,4.08,4.08,0,0,1-1.11-.28,4.51,4.51,0,0,0-1.34-.28h-2.28c-.33,0-.51,0-.54.08a2.64,2.64,0,0,0-.12.65c-.09.55-.22,1.37-.39,2.48a73.4,73.4,0,0,0-.63,10.13q0,3.84.89,5.25v.9a2.35,2.35,0,0,1-1,.33,2.64,2.64,0,0,1-2.74-2.05,15.6,15.6,0,0,1-.3-3.8c0-2.18.05-3.87.13-5.08,0-.53.15-1.8.37-3.8a37.07,37.07,0,0,0,.26-3.8v-1c-.31,0-.91.1-1.79.23a12.67,12.67,0,0,1-1.8.17c-1.52,0-2.29-.45-2.29-1.36q0-.56.33-.66.5-.72,5.19-1.25a55.2,55.2,0,0,1,5.88-.4,8.61,8.61,0,0,1,2.77.4C311.75,266.77,312.32,267.35,312.32,268.12Z"/><path d="M318.92,267.62a2.3,2.3,0,0,1-.3.73,6.74,6.74,0,0,0-.26,1.48q-.69,7.41-.69,13a8.42,8.42,0,0,0,.26,2.35,11.44,11.44,0,0,0,1,2.08.49.49,0,0,1,0,.2q0,.69-1.62.69H317c-1.13,0-1.81-.93-2.05-2.71a67.72,67.72,0,0,1-.46-9c0-.91,0-2.27.05-4.08s.05-3.19.05-4.11a2,2,0,0,1,.79-1.46,2.39,2.39,0,0,1,1.55-.69,2.25,2.25,0,0,1,1.29.49A1.37,1.37,0,0,1,318.92,267.62Z"/><path d="M337,282.77a4.54,4.54,0,0,1-.33,1.52,6.56,6.56,0,0,1-3.11,3.42,9.48,9.48,0,0,1-4.55,1.11,7.19,7.19,0,0,1-6.24-3.06,11.68,11.68,0,0,1-1.89-6.9A19.63,19.63,0,0,1,322,272.3a12.21,12.21,0,0,1,3.6-5.47,6,6,0,0,1,3.83-1.55,4.66,4.66,0,0,1,4.26,2.44,9.48,9.48,0,0,1,1.19,5,11.14,11.14,0,0,1-.69,3.4c-.55,1.67-1.17,2.51-1.85,2.51s-1.35-.49-1.75-1.45c.22-.16.53-.41.92-.76a4.4,4.4,0,0,0,.67-2.84,12.3,12.3,0,0,0-.43-3.47c-.45-1.43-1.17-2.15-2.18-2.15a3.43,3.43,0,0,0-2.32,1.35,10.54,10.54,0,0,0-1.61,2.28,17.17,17.17,0,0,0-1.62,7.88q0,6.85,5.15,6.85a4.83,4.83,0,0,0,3.5-1.24,14.74,14.74,0,0,0,1.55-2.33c.46-.86,1-1.28,1.49-1.28a1.39,1.39,0,0,1,1.32,1.31Z"/><path class="cls-4" d="M248,633a2.48,2.48,0,0,1-2.25-2L226.13,473.29c0-.09,0-.31.28-.68a6.05,6.05,0,0,1,4.42-1.48H350.75a6,6,0,0,1,4.39,1.47c.32.36.29.58.28.67L334.88,631a2.52,2.52,0,0,1-2.28,2Z"/><path class="cls-4" d="M248,633a2.48,2.48,0,0,1-2.25-2L226.13,473.29c0-.09,0-.31.28-.68a6.05,6.05,0,0,1,4.42-1.48H350.75a6,6,0,0,1,4.39,1.47c.32.36.29.58.28.67L334.88,631a2.52,2.52,0,0,1-2.28,2Z"/><path class="cls-5" d="M350.75,467.48H230.83c-5,0-8.76,2.82-8.33,6.26l19.64,157.71a6.1,6.1,0,0,0,5.87,5.22H332.6a6.16,6.16,0,0,0,5.91-5.22L359,473.74C359.49,470.3,355.76,467.48,350.75,467.48Zm4.67,5.79L334.88,631a2.52,2.52,0,0,1-2.28,2H248a2.48,2.48,0,0,1-2.25-2L226.13,473.29c0-.09,0-.31.28-.68a6.05,6.05,0,0,1,4.42-1.48H350.75a6,6,0,0,1,4.39,1.47C355.46,473,355.43,473.18,355.42,473.27Z"/><path class="cls-6" d="M290.77,471.13h60a6,6,0,0,1,4.39,1.47c.32.36.29.58.28.67L334.88,631a2.52,2.52,0,0,1-2.28,2h-41Z"/><path class="cls-7" d="M291.65,633H248a2.48,2.48,0,0,1-2.25-2L226.13,473.29c0-.09,0-.31.28-.68a6.05,6.05,0,0,1,4.42-1.48h59.94"/><path class="cls-7" d="M350.75,467.48H230.83c-5,0-8.76,2.82-8.33,6.26l19.64,157.71a6.1,6.1,0,0,0,5.87,5.22H332.6a6.16,6.16,0,0,0,5.91-5.22L359,473.74C359.49,470.3,355.76,467.48,350.75,467.48Zm4.67,5.79L334.88,631a2.52,2.52,0,0,1-2.28,2H248a2.48,2.48,0,0,1-2.25-2L226.13,473.29c0-.09,0-.31.28-.68a6.05,6.05,0,0,1,4.42-1.48H350.75a6,6,0,0,1,4.39,1.47C355.46,473,355.43,473.18,355.42,473.27Z"/><path id="shade" class="cls-8" d="M350.75,467.48H230.83c-5,0-8.76,2.82-8.33,6.26l.91,6.79s109.74-2.52,130.72,2.61a15.7,15.7,0,0,1,3.53,1.21L359,473.74C359.49,470.3,355.76,467.48,350.75,467.48Z"/><path class="cls-6" d="M365.13,473.22H216.64c-4.19,0-6.21-2.82-4.48-6.26l22.26-44.39c1.73-3.45,5.3-6.27,8-6.27H336c2.65,0,6.39,2.82,8.32,6.27L369.23,467C371.17,470.4,369.32,473.22,365.13,473.22Z"/><path class="cls-9" d="M218.71,471.13l145.69-1.56c4.19,0,6.11-.21,4.18-3.66l-3.2-5.83c-4.63-8.27-.28,1.47-2,5.83-1.05,2.61-140.1,5-143.09.52-2.08-3.13,14.1-32.37,18.8-44.91,2.26-6,7.84-4.7,12.08-5.22h-8.78c-2.65,0-4.18,2.82-5.91,6.27l-20.89,44.91C213.85,470.92,214.52,471.13,218.71,471.13Z"/><path class="cls-8" d="M335.16,412.12c.75,1.28,8.35,10.45,12,24s9.63,26.27,5.22,27.15c-5.22,1-114.88,4.18-121.67-1.57-6-5,9.4-48.56,14.1-53.26S326.8,398,335.16,412.12Z"/><path class="cls-4" d="M332.74,393l16.77,62.33a3.19,3.19,0,0,1-.52,2.85,6.3,6.3,0,0,1-5,2h-106a6.7,6.7,0,0,1-5.23-2.05,3.31,3.31,0,0,1-.69-2.86l13.32-62.33c1.09-5.13,4-9.53,5.66-9.53h74.68"/><path class="cls-7" d="M237.9,460.17a6.7,6.7,0,0,1-5.23-2.05,3.31,3.31,0,0,1-.69-2.86l13.32-62.33c1.09-5.13,4-9.53,5.66-9.53h74.68c-.83-.83,5.65,5.61,7.1,9.61l16.77,62.33a3.19,3.19,0,0,1-.52,2.85,6.3,6.3,0,0,1-5,2Z"/><path class="cls-6" d="M332.74,393c-2.8-7.52-44.06-4.38-44.06-4.38,16.36,16.18,9.4,41.25,3.49,71.54H344a6.3,6.3,0,0,0,5-2,3.19,3.19,0,0,0,.52-2.85Z"/><circle class="cls-10" cx="290.77" cy="424.66" r="29.24"/><path class="cls-6" d="M290.77,393.85a30.81,30.81,0,1,0,30.81,30.81A30.81,30.81,0,0,0,290.77,393.85Zm0,60A29.25,29.25,0,1,1,320,424.66,29.28,29.28,0,0,1,290.77,453.9Z"/><path class="cls-9" d="M249.91,388.63l-.66,0c-.93,0-1.56.09-.42-1.81,2.08-3.47,19.49,1.83,74.32.26,2.37-.07,2.45-2.43,2.42-3-.06-1.37,4.81,4.52,3.76,4.53H249.91Z"/><path class="cls-11" d="M888,82.61v984.78H20V82.61H888m20-20H0V1087.39H908V62.61Z"/><g id="shade-2" data-name="shade"><path class="cls-12" d="M20,77v994H888V77Zm848.88,974.6H39.12V96.4H868.88Z"/></g><g id="hole"><ellipse class="cls-13" cx="609" cy="279" rx="117.7" ry="75.06"/><path class="cls-14" d="M723.23,246c-6.47-9.75-15.65-18.46-27.28-25.88C672.62,205.19,641.74,197,609,197s-63.62,8.19-87,23.07c-11.63,7.42-20.81,16.13-27.28,25.88-6.9,10.41-10.4,21.53-10.4,33.05s3.5,22.64,10.4,33.05c6.47,9.75,15.65,18.46,27.28,25.88C545.38,352.81,576.26,361,609,361s63.62-8.19,87-23.07c11.63-7.42,20.81-16.13,27.28-25.88,6.9-10.41,10.4-21.53,10.4-33.05S730.13,256.36,723.23,246ZM609,354.06c-65,0-117.7-33.6-117.7-75.06S544,203.94,609,203.94,726.7,237.54,726.7,279,674,354.06,609,354.06Z"/></g><rect class="cls-2" x="205" y="5" width="498" height="130"/><path class="cls-11" d="M698,10V130H210V10H698M708,0H200V140H708V0Z"/><path id="shade-3" data-name="shade" class="cls-15" d="M210,10V130H698V10ZM691,123H217V17H691Z"/><path d="M275.26,47.83V92.11a.89.89,0,0,1-1,1H271a.89.89,0,0,1-1-1V47.83a.89.89,0,0,1,1-1h3.24A.89.89,0,0,1,275.26,47.83Z"/><path d="M291.18,93.12H288a.89.89,0,0,1-1-1V47.83a.89.89,0,0,1,1-1H291a1.14,1.14,0,0,1,1.15.58L312,82.32h.29V47.83a.9.9,0,0,1,1-1h3.17a.9.9,0,0,1,1,1V92.11a.9.9,0,0,1-1,1h-2.67a2,2,0,0,1-1.51-.94l-19.8-34.56h-.29V92.11A.89.89,0,0,1,291.18,93.12Z"/><path d="M328.33,82.46v-2.3a.89.89,0,0,1,1-1h3.23a.89.89,0,0,1,1,1V82q0,6.48,6.41,6.48h6.34q6.41,0,6.4-6.62V79.44q0-5.19-8.56-6.77c-2.4-.43-4.8-.94-7.2-1.51a12.79,12.79,0,0,1-6.12-3.35,9.12,9.12,0,0,1-2.52-6.8V57.48A9.84,9.84,0,0,1,339,46.82h8a9.89,9.89,0,0,1,10.66,10.66v1.8q0,1.08-.93,1.08h-3.32q-.93,0-.93-1.08V58q0-6.55-6.41-6.55h-6.12q-6.41,0-6.41,6.84v2.88q0,3.68,4.83,5c1.44.38,3,.73,4.75,1s3.46.72,5.22,1.23a26.54,26.54,0,0,1,4.79,1.87,8.58,8.58,0,0,1,3.49,3.38,10.81,10.81,0,0,1,1.33,5.51v3.24a9.89,9.89,0,0,1-10.66,10.66H339a9.89,9.89,0,0,1-10.65-10.66Z"/><path d="M380.09,93.12h-3.24a.89.89,0,0,1-1-1v-40c0-.43-.24-.65-.72-.65h-9.8c-.72,0-1.08-.34-1.08-1V47.83c0-.67.36-1,1.08-1h26.28c.72,0,1.08.34,1.08,1v2.59c0,.67-.36,1-1.08,1h-9.79c-.48,0-.72.22-.72.65v40A.89.89,0,0,1,380.09,93.12Z"/><path d="M403.78,93.12h-3.24a.9.9,0,0,1-1-1V47.83a.9.9,0,0,1,1-1H417.1A10.68,10.68,0,0,1,425,49.67a10.47,10.47,0,0,1,2.88,7.81V64a10.87,10.87,0,0,1-1.95,6.66,9.21,9.21,0,0,1-5.4,3.49v.29L428.84,92c.43.76.19,1.15-.72,1.15h-3.24a1.93,1.93,0,0,1-1.8-1L415,74.69h-9.5c-.48,0-.72.21-.72.64V92.11A.9.9,0,0,1,403.78,93.12Zm1.73-22.83h10.87q6.19,0,6.19-6.19V57.69q0-6.25-6.19-6.26H405.51c-.48,0-.72.22-.72.65V69.65C404.79,70.08,405,70.29,405.51,70.29Z"/><path d="M462.82,46.82h3.24c.67,0,1,.31,1,.94v34.7q0,5-2.81,7.85a10.51,10.51,0,0,1-7.78,2.81h-8a10.65,10.65,0,0,1-7.81-2.81c-1.9-1.87-2.84-4.49-2.84-7.85V47.83a.89.89,0,0,1,1-1h3.24a.89.89,0,0,1,1,1V82.25q0,6.25,6,6.26h6.77q6,0,6-6.26V47.83C461.88,47.16,462.2,46.82,462.82,46.82Z"/><path d="M496.66,93.12H488a10.63,10.63,0,0,1-7.81-2.81q-2.85-2.81-2.85-7.85v-25q0-5,2.85-7.85A10.63,10.63,0,0,1,488,46.82h8.64a10.65,10.65,0,0,1,7.81,2.81c1.9,1.87,2.84,4.49,2.84,7.85V61a.88.88,0,0,1-1,1h-3.24a.88.88,0,0,1-1-1V57.69q0-6.25-6.05-6.26H488.6q-6,0-6,6.26V82.25q0,6.25,6,6.26H496q6,0,6.05-6.26V78.93a.88.88,0,0,1,1-1h3.24a.88.88,0,0,1,1,1v3.53c0,3.36-.94,6-2.84,7.85A10.65,10.65,0,0,1,496.66,93.12Z"/><path d="M528.34,93.12H525.1a.9.9,0,0,1-1-1v-40c0-.43-.24-.65-.72-.65h-9.79c-.72,0-1.08-.34-1.08-1V47.83c0-.67.36-1,1.08-1h26.28c.72,0,1.08.34,1.08,1v2.59c0,.67-.36,1-1.08,1h-9.79c-.48,0-.72.22-.72.65v40A.9.9,0,0,1,528.34,93.12Z"/><path d="M553.39,47.83V92.11a.89.89,0,0,1-1,1h-3.24a.89.89,0,0,1-1-1V47.83a.89.89,0,0,1,1-1h3.24A.89.89,0,0,1,553.39,47.83Z"/><path d="M583.63,93.12h-8.57a10.65,10.65,0,0,1-7.81-2.81q-2.84-2.81-2.84-7.85v-25q0-5,2.84-7.85a10.65,10.65,0,0,1,7.81-2.81h8.57a9.84,9.84,0,0,1,10.66,10.66v25a9.84,9.84,0,0,1-10.66,10.66Zm-8-4.61H583q6.06,0,6-6.26V57.69q0-6.25-6-6.26h-7.34q-6,0-6,6.26V82.25Q569.66,88.51,575.64,88.51Z"/><path d="M609.12,93.12H606a.89.89,0,0,1-1-1V47.83a.89.89,0,0,1,1-1h2.95a1.17,1.17,0,0,1,1.16.58l19.87,34.92h.29V47.83a.89.89,0,0,1,1-1h3.17a.9.9,0,0,1,1,1V92.11a.9.9,0,0,1-1,1h-2.66a2,2,0,0,1-1.51-.94l-19.8-34.56h-.29V92.11A.9.9,0,0,1,609.12,93.12Z"/><path class="cls-2" d="M134.22,663.43v24.35a.75.75,0,0,1-.85.85h-3.45a.75.75,0,0,1-.85-.85V663.43a.75.75,0,0,1,.85-.85h3.45A.75.75,0,0,1,134.22,663.43Z"/><path class="cls-2" d="M146.78,668H150a1,1,0,0,1,.67.19.88.88,0,0,1,.18.63v2.79a.75.75,0,0,1-.85.85h-3.24a.4.4,0,0,0-.45.45v14.91c0,.57-.3.85-.89.85H142a.75.75,0,0,1-.85-.85V672.87c0-.3-.17-.45-.49-.45h-1.86a.76.76,0,0,1-.86-.85v-2.79a.87.87,0,0,1,.19-.65,1,1,0,0,1,.67-.17h1.86c.32,0,.49-.14.49-.44v-.77a6.68,6.68,0,0,1,1.68-4.9,6.55,6.55,0,0,1,4.88-1.71h2.31a.88.88,0,0,1,.65.19.94.94,0,0,1,.16.63v2.79c0,.57-.27.85-.81.85h-1.5a2.23,2.23,0,0,0-1.76.55,2.84,2.84,0,0,0-.47,1.84v.53C146.33,667.82,146.48,668,146.78,668Z"/><path class="cls-2" d="M165.9,695.48h-2.59c-.54,0-.81-.3-.81-.89v-2.72c0-.59.27-.89.81-.89h.85a6,6,0,0,0,3.46-.71,4.77,4.77,0,0,0,1.4-2.73h-2.14a1,1,0,0,1-1-.86l-4.74-17.86c-.16-.57,0-.86.61-.86h3.6a1,1,0,0,1,1,.86l3.48,14.95H170l3.44-14.95a.94.94,0,0,1,1-.86h3.41q1,0,.81.9l-4.95,19.77a10.53,10.53,0,0,1-2.75,5.11A7.14,7.14,0,0,1,165.9,695.48Z"/><path class="cls-2" d="M191.51,688.63H187.9a6.79,6.79,0,0,1-4.94-1.7,6.56,6.56,0,0,1-1.74-4.9v-7.46a6.54,6.54,0,0,1,1.74-4.9A6.76,6.76,0,0,1,187.9,668h3.61a6.72,6.72,0,0,1,4.92,1.73,6.48,6.48,0,0,1,1.77,4.88V682a6.51,6.51,0,0,1-1.77,4.88A6.72,6.72,0,0,1,191.51,688.63Zm-2.84-4.42h2.07a2.59,2.59,0,0,0,1.84-.52,2.46,2.46,0,0,0,.55-1.83v-7.13a2.45,2.45,0,0,0-.55-1.82,2.59,2.59,0,0,0-1.84-.53h-2.07a2,2,0,0,0-2.35,2.35v7.13a2,2,0,0,0,2.35,2.35Z"/><path class="cls-2" d="M209.7,688.63h-1.33a6.18,6.18,0,0,1-4.72-1.7,6.89,6.89,0,0,1-1.6-4.9V668.82a.76.76,0,0,1,.85-.86h3.44a.76.76,0,0,1,.85.86v13a2.54,2.54,0,0,0,.55,1.85,2.48,2.48,0,0,0,1.8.54H211c1.87,0,2.8-1,2.8-3.08V668.82a.76.76,0,0,1,.85-.86h3.4c.6,0,.89.29.89.86v19c0,.57-.29.85-.89.85h-3.4a.75.75,0,0,1-.85-.85v-1.34h-.17a3,3,0,0,1-1.58,1.64A5.34,5.34,0,0,1,209.7,688.63Z"/><path class="cls-2" d="M239.93,688.63h-1.66a6.19,6.19,0,0,1-4.72-1.7A6.89,6.89,0,0,1,232,682v-7.46a6.87,6.87,0,0,1,1.6-4.9,6.16,6.16,0,0,1,4.72-1.71h1.66a5.47,5.47,0,0,1,2.39.55,3.08,3.08,0,0,1,1.58,1.64h.16V661a.76.76,0,0,1,.86-.86h3.44a.76.76,0,0,1,.85.86v26.78a.75.75,0,0,1-.85.85h-3.44a.76.76,0,0,1-.86-.85v-1.34h-.16a3,3,0,0,1-1.58,1.64A5.34,5.34,0,0,1,239.93,688.63Zm4.13-7.54V675.5c0-2-.93-3.08-2.79-3.08h-1.83a2.45,2.45,0,0,0-1.82.55,2.61,2.61,0,0,0-.53,1.84v7a2.64,2.64,0,0,0,.53,1.85,2.49,2.49,0,0,0,1.82.54h1.83C243.13,684.17,244.06,683.15,244.06,681.09Z"/><path class="cls-2" d="M258,688.63h-3.44a.75.75,0,0,1-.85-.85v-19a.76.76,0,0,1,.85-.86H258a.76.76,0,0,1,.85.86v1.37H259a3.19,3.19,0,0,1,1.58-1.66A5.3,5.3,0,0,1,263,668h1.45c.54,0,.81.29.81.86v2.79a.94.94,0,0,1-.18.67.76.76,0,0,1-.63.14h-2.79c-1.87,0-2.8,1.06-2.8,3.16v12.2A.75.75,0,0,1,258,688.63Z"/><path class="cls-2" d="M275.06,688.63h-1a6.82,6.82,0,0,1-4.95-1.7,6.56,6.56,0,0,1-1.74-4.9v-7.46a6.54,6.54,0,0,1,1.74-4.9,6.78,6.78,0,0,1,4.95-1.71h9.36a.78.78,0,0,1,.89.86v19c0,.57-.3.85-.89.85H280a.75.75,0,0,1-.85-.85v-1.34H279a3,3,0,0,1-1.58,1.64A5.34,5.34,0,0,1,275.06,688.63Zm4.13-7.54v-8.22q0-.45-.48-.45H274.9a2.43,2.43,0,0,0-1.82.55,2.56,2.56,0,0,0-.53,1.84v7a2.59,2.59,0,0,0,.53,1.85,2.47,2.47,0,0,0,1.82.54h1.5C278.26,684.17,279.19,683.15,279.19,681.09Z"/><path class="cls-2" d="M296.09,687.7h-1.34A6.19,6.19,0,0,1,290,686a6.94,6.94,0,0,1-1.6-4.91v-6.52a6.54,6.54,0,0,1,1.74-4.9,6.78,6.78,0,0,1,4.95-1.71h9.36a.78.78,0,0,1,.89.86v20a6.45,6.45,0,0,1-1.76,4.86,6.8,6.8,0,0,1-4.93,1.71H290.9a.88.88,0,0,1-.66-.19.82.82,0,0,1-.19-.62v-2.8a.75.75,0,0,1,.85-.85h6.93a2.54,2.54,0,0,0,1.85-.55,2.48,2.48,0,0,0,.54-1.8v-3.08h-.16a3.15,3.15,0,0,1-1.58,1.66A5.26,5.26,0,0,1,296.09,687.7Zm4.13-7.54v-7.29q0-.45-.48-.45h-3.81a2.43,2.43,0,0,0-1.82.55,2.56,2.56,0,0,0-.53,1.84v6a2.49,2.49,0,0,0,.53,1.82,2.52,2.52,0,0,0,1.82.53h1.5C299.29,683.2,300.22,682.19,300.22,680.16Z"/><path class="cls-2" d="M319.19,672.42h-1.62a1,1,0,0,1-.67-.16.87.87,0,0,1-.19-.65v-2.79a.76.76,0,0,1,.86-.86h1.62a.39.39,0,0,0,.44-.44v-3.85c0-.57.3-.85.89-.85h3.41a.75.75,0,0,1,.85.85v3.85c0,.3.16.44.48.44h3.17a.76.76,0,0,1,.85.86v2.79a.83.83,0,0,1-.19.63.93.93,0,0,1-.66.18h-3.17q-.48,0-.48.45v9a2.44,2.44,0,0,0,.57,1.81,2.62,2.62,0,0,0,1.86.54h1.62a.75.75,0,0,1,.85.85v2.8a.88.88,0,0,1-.18.63.94.94,0,0,1-.67.18h-2.47a6.85,6.85,0,0,1-5-1.7,6.44,6.44,0,0,1-1.77-4.86v-9.2A.39.39,0,0,0,319.19,672.42Z"/><path class="cls-2" d="M337.34,688.63H333.9a.76.76,0,0,1-.86-.85V661a.76.76,0,0,1,.86-.86h3.44a.76.76,0,0,1,.85.86v9.15h.16q.9-2.19,4-2.19h1.3q6.36,0,6.36,6.61v13.21c0,.57-.3.85-.89.85h-3.4a.75.75,0,0,1-.85-.85v-13a2.56,2.56,0,0,0-.55-1.84,2.53,2.53,0,0,0-1.84-.55H341c-1.87,0-2.8,1-2.8,3.08v12.28A.75.75,0,0,1,337.34,688.63Z"/><path class="cls-2" d="M369.47,688.63h-9a6.8,6.8,0,0,1-4.95-1.7,6.56,6.56,0,0,1-1.74-4.9v-7.46a6.54,6.54,0,0,1,1.74-4.9,6.77,6.77,0,0,1,4.95-1.71h3.2a6.76,6.76,0,0,1,4.94,1.71,6.54,6.54,0,0,1,1.74,4.9v5.15a.75.75,0,0,1-.85.85H359.38c-.32,0-.48.14-.48.44v.89a2.53,2.53,0,0,0,.54,1.81,2.59,2.59,0,0,0,1.85.54h8.18c.57,0,.85.3.85.9v2.67a.88.88,0,0,1-.18.63A.94.94,0,0,1,369.47,688.63Zm-10.09-11.51h5.51a.39.39,0,0,0,.45-.44v-1.95a2,2,0,0,0-2.35-2.35h-1.7a2,2,0,0,0-2.35,2.35v1.95A.39.39,0,0,0,359.38,677.12Z"/><path class="cls-2" d="M383.37,664.48V661a.72.72,0,0,1,.81-.82h3.53c.54,0,.81.26.81.77v3.57a.72.72,0,0,1-.81.81h-3.53A.72.72,0,0,1,383.37,664.48Zm0,23.3v-19c0-.57.27-.86.81-.86h3.49a.76.76,0,0,1,.85.86v19a.9.9,0,0,1-.19.69.92.92,0,0,1-.62.16h-3.49A.75.75,0,0,1,383.37,687.78Z"/><path class="cls-2" d="M393.62,672.42H392a1,1,0,0,1-.67-.16.87.87,0,0,1-.18-.65v-2.79A.76.76,0,0,1,392,668h1.62c.3,0,.45-.14.45-.44v-3.85c0-.57.29-.85.89-.85h3.4a.75.75,0,0,1,.85.85v3.85c0,.3.16.44.49.44h3.16a.76.76,0,0,1,.85.86v2.79a.88.88,0,0,1-.18.63,1,1,0,0,1-.67.18H399.7c-.33,0-.49.15-.49.45v9a2.44,2.44,0,0,0,.57,1.81,2.65,2.65,0,0,0,1.86.54h1.62a.76.76,0,0,1,.86.85v2.8a.88.88,0,0,1-.19.63.94.94,0,0,1-.67.18h-2.47a6.86,6.86,0,0,1-5-1.7,6.44,6.44,0,0,1-1.76-4.86v-9.2A.4.4,0,0,0,393.62,672.42Z"/><path class="cls-2" d="M422.71,688.63h-8.95a6.78,6.78,0,0,1-4.94-1.7,6.52,6.52,0,0,1-1.75-4.9v-7.46a6.51,6.51,0,0,1,1.75-4.9,6.74,6.74,0,0,1,4.94-1.71H417a6.76,6.76,0,0,1,4.94,1.71,6.55,6.55,0,0,1,1.75,4.9v5.15a.76.76,0,0,1-.86.85H412.62c-.32,0-.48.14-.48.44v.89a2.48,2.48,0,0,0,.55,1.81,2.54,2.54,0,0,0,1.84.54h8.18c.57,0,.86.3.86.9v2.67a.88.88,0,0,1-.19.63A.94.94,0,0,1,422.71,688.63Zm-10.09-11.51h5.52a.39.39,0,0,0,.44-.44v-1.95a2.49,2.49,0,0,0-.53-1.82,2.54,2.54,0,0,0-1.82-.53h-1.7a2.52,2.52,0,0,0-1.82.53,2.49,2.49,0,0,0-.53,1.82v1.95A.39.39,0,0,0,412.62,677.12Z"/><path class="cls-2" d="M431.79,688.63h-3.44a.75.75,0,0,1-.85-.85v-19a.76.76,0,0,1,.85-.86h3.44a.76.76,0,0,1,.85.86v1.33h.16a3.7,3.7,0,0,1,1.64-1.58,5.7,5.7,0,0,1,2.66-.61h1.13a5.44,5.44,0,0,1,5.07,2.6A4.92,4.92,0,0,1,448,668h1.17a6.15,6.15,0,0,1,4.72,1.71,6.87,6.87,0,0,1,1.61,4.9v13.21a.76.76,0,0,1-.86.85h-3.44a.75.75,0,0,1-.85-.85v-13a2.61,2.61,0,0,0-.53-1.84,2.45,2.45,0,0,0-1.82-.55h-1c-1.87,0-2.8,1-2.8,3.12v12.24c0,.57-.3.85-.89.85h-3.41a.75.75,0,0,1-.85-.85v-13a2,2,0,0,0-2.39-2.39h-1.25c-1.87,0-2.8,1-2.8,3.08v12.28A.75.75,0,0,1,431.79,688.63Z"/><path class="cls-2" d="M469,664.48V661a.72.72,0,0,1,.81-.82h3.52c.54,0,.81.26.81.77v3.57a.72.72,0,0,1-.81.81h-3.52A.72.72,0,0,1,469,664.48Zm0,23.3v-19c0-.57.27-.86.81-.86h3.48a.76.76,0,0,1,.85.86v19a1,1,0,0,1-.18.69.94.94,0,0,1-.63.16H469.8A.75.75,0,0,1,469,687.78Z"/><path class="cls-2" d="M483.05,688.63H479.6a.75.75,0,0,1-.85-.85v-19a.76.76,0,0,1,.85-.86h3.45a.76.76,0,0,1,.85.86v1.33h.16c.59-1.46,1.92-2.19,4-2.19h1.3q6.36,0,6.36,6.61v13.21c0,.57-.3.85-.89.85h-3.41a.75.75,0,0,1-.85-.85v-13a2,2,0,0,0-2.39-2.39h-1.46c-1.86,0-2.79,1-2.79,3.08v12.28A.75.75,0,0,1,483.05,688.63Z"/><path class="cls-2" d="M500.39,672.42h-1.62a1,1,0,0,1-.67-.16.87.87,0,0,1-.18-.65v-2.79a.76.76,0,0,1,.85-.86h1.62a.38.38,0,0,0,.44-.44v-3.85c0-.57.3-.85.9-.85h3.4a.75.75,0,0,1,.85.85v3.85c0,.3.16.44.49.44h3.16a.76.76,0,0,1,.85.86v2.79a.88.88,0,0,1-.18.63,1,1,0,0,1-.67.18h-3.16c-.33,0-.49.15-.49.45v9a2.44,2.44,0,0,0,.57,1.81,2.65,2.65,0,0,0,1.86.54H510a.75.75,0,0,1,.85.85v2.8a.88.88,0,0,1-.18.63.94.94,0,0,1-.67.18h-2.47a6.86,6.86,0,0,1-5-1.7,6.44,6.44,0,0,1-1.77-4.86v-9.2C500.83,672.57,500.69,672.42,500.39,672.42Z"/><path class="cls-2" d="M524.13,688.63h-3.6a6.82,6.82,0,0,1-4.95-1.7,6.56,6.56,0,0,1-1.74-4.9v-7.46a6.54,6.54,0,0,1,1.74-4.9,6.78,6.78,0,0,1,4.95-1.71h3.6a6.76,6.76,0,0,1,4.93,1.73,6.51,6.51,0,0,1,1.76,4.88V682a6.54,6.54,0,0,1-1.76,4.88A6.76,6.76,0,0,1,524.13,688.63Zm-2.83-4.42h2.06a2.64,2.64,0,0,0,1.85-.52,2.5,2.5,0,0,0,.54-1.83v-7.13a2.49,2.49,0,0,0-.54-1.82,2.64,2.64,0,0,0-1.85-.53H521.3a2.56,2.56,0,0,0-1.83.53,2.54,2.54,0,0,0-.52,1.82v7.13a2,2,0,0,0,2.35,2.35Z"/><path class="cls-2" d="M544.23,672.42h-1.62a1,1,0,0,1-.67-.16.87.87,0,0,1-.18-.65v-2.79a.76.76,0,0,1,.85-.86h1.62c.3,0,.45-.14.45-.44v-3.85c0-.57.29-.85.89-.85H549a.75.75,0,0,1,.85.85v3.85c0,.3.16.44.49.44h3.16a.76.76,0,0,1,.85.86v2.79a.88.88,0,0,1-.18.63,1,1,0,0,1-.67.18h-3.16c-.33,0-.49.15-.49.45v9a2.44,2.44,0,0,0,.57,1.81,2.65,2.65,0,0,0,1.86.54h1.63a.76.76,0,0,1,.85.85v2.8a.83.83,0,0,1-.19.63.93.93,0,0,1-.66.18H551.4a6.86,6.86,0,0,1-5-1.7,6.44,6.44,0,0,1-1.76-4.86v-9.2A.4.4,0,0,0,544.23,672.42Z"/><path class="cls-2" d="M562.38,688.63h-3.44a.75.75,0,0,1-.85-.85V661a.76.76,0,0,1,.85-.86h3.44a.76.76,0,0,1,.86.86v9.15h.16q.89-2.19,4-2.19h1.3q6.36,0,6.36,6.61v13.21c0,.57-.3.85-.9.85h-3.4a.75.75,0,0,1-.85-.85v-13a2,2,0,0,0-2.39-2.39H566c-1.86,0-2.79,1-2.79,3.08v12.28A.76.76,0,0,1,562.38,688.63Z"/><path class="cls-2" d="M594.52,688.63h-9a6.79,6.79,0,0,1-4.94-1.7,6.56,6.56,0,0,1-1.74-4.9v-7.46a6.54,6.54,0,0,1,1.74-4.9,6.76,6.76,0,0,1,4.94-1.71h3.2a6.78,6.78,0,0,1,5,1.71,6.54,6.54,0,0,1,1.74,4.9v5.15a.76.76,0,0,1-.85.85H584.43c-.33,0-.49.14-.49.44v.89a2.48,2.48,0,0,0,.55,1.81,2.56,2.56,0,0,0,1.84.54h8.19c.56,0,.85.3.85.9v2.67a.83.83,0,0,1-.19.63A.93.93,0,0,1,594.52,688.63Zm-10.09-11.51h5.51a.39.39,0,0,0,.44-.44v-1.95a2.54,2.54,0,0,0-.52-1.82,2.56,2.56,0,0,0-1.83-.53h-1.7a2,2,0,0,0-2.35,2.35v1.95A.39.39,0,0,0,584.43,677.12Z"/><path class="cls-2" d="M616.48,688.63h-4.62a.94.94,0,0,1-1-.85l-4.06-19c-.11-.57.1-.86.61-.86h3.89a.86.86,0,0,1,1,.86l1.83,13.85h.32l2.88-13.85a.87.87,0,0,1,.93-.86h3.57a.94.94,0,0,1,1,.86l2.79,13.85H626l1.86-13.85a.89.89,0,0,1,1-.86h3.9c.54,0,.74.29.6.86l-4,19a.91.91,0,0,1-1,.85h-4.62a.91.91,0,0,1-1-.85l-2.47-13.7h-.33l-2.43,13.7A.88.88,0,0,1,616.48,688.63Z"/><path class="cls-2" d="M640.71,688.63h-3.45a.75.75,0,0,1-.85-.85v-19a.76.76,0,0,1,.85-.86h3.45a.76.76,0,0,1,.85.86v1.37h.16a3.15,3.15,0,0,1,1.58-1.66,5.26,5.26,0,0,1,2.39-.57h1.46c.54,0,.81.29.81.86v2.79a.94.94,0,0,1-.18.67.76.76,0,0,1-.63.14h-2.79c-1.87,0-2.8,1.06-2.8,3.16v12.2A.75.75,0,0,1,640.71,688.63Z"/><path class="cls-2" d="M660.44,688.63h-3.61a6.79,6.79,0,0,1-4.94-1.7,6.56,6.56,0,0,1-1.74-4.9v-7.46a6.54,6.54,0,0,1,1.74-4.9,6.76,6.76,0,0,1,4.94-1.71h3.61a6.76,6.76,0,0,1,4.93,1.73,6.51,6.51,0,0,1,1.76,4.88V682a6.54,6.54,0,0,1-1.76,4.88A6.76,6.76,0,0,1,660.44,688.63Zm-2.83-4.42h2.06a2.64,2.64,0,0,0,1.85-.52,2.5,2.5,0,0,0,.54-1.83v-7.13a2.49,2.49,0,0,0-.54-1.82,2.64,2.64,0,0,0-1.85-.53h-2.06a2,2,0,0,0-2.36,2.35v7.13a2,2,0,0,0,2.36,2.35Z"/><path class="cls-2" d="M675.47,688.63H672a.75.75,0,0,1-.85-.85v-19A.76.76,0,0,1,672,668h3.44a.76.76,0,0,1,.86.86v1.33h.16q.88-2.19,4-2.19h1.29q6.38,0,6.37,6.61v13.21c0,.57-.3.85-.9.85h-3.4a.75.75,0,0,1-.85-.85v-13a2,2,0,0,0-2.39-2.39h-1.46c-1.86,0-2.79,1-2.79,3.08v12.28A.76.76,0,0,1,675.47,688.63Z"/><path class="cls-2" d="M699.66,687.7h-1.33a6.18,6.18,0,0,1-4.72-1.7,6.9,6.9,0,0,1-1.6-4.91v-6.52a6.54,6.54,0,0,1,1.74-4.9,6.76,6.76,0,0,1,4.94-1.71h9.36c.6,0,.89.29.89.86v20a6.41,6.41,0,0,1-1.76,4.86,6.79,6.79,0,0,1-4.92,1.71h-7.78a.89.89,0,0,1-.67-.19.87.87,0,0,1-.18-.62v-2.8a.75.75,0,0,1,.85-.85h6.93a2.53,2.53,0,0,0,1.84-.55,2.48,2.48,0,0,0,.55-1.8v-3.08h-.17a3.12,3.12,0,0,1-1.58,1.66A5.23,5.23,0,0,1,699.66,687.7Zm4.14-7.54v-7.29c0-.3-.17-.45-.49-.45H699.5a2.45,2.45,0,0,0-1.82.55,2.61,2.61,0,0,0-.53,1.84v6a2,2,0,0,0,2.35,2.35H701C702.87,683.2,703.8,682.19,703.8,680.16Z"/><path class="cls-2" d="M722.31,687.78V661a.76.76,0,0,1,.86-.86h3.44a.76.76,0,0,1,.85.86v9.11h.16a3.19,3.19,0,0,1,1.58-1.66,5.29,5.29,0,0,1,2.39-.57h1.3a6.79,6.79,0,0,1,4.94,1.7,6.53,6.53,0,0,1,1.75,4.91V682a6.52,6.52,0,0,1-1.75,4.9,6.79,6.79,0,0,1-4.94,1.7h-9.72A.76.76,0,0,1,722.31,687.78Zm5.6-3.61H732a2,2,0,0,0,2.39-2.39v-7a2,2,0,0,0-2.39-2.39h-1.78c-1.87,0-2.8,1-2.8,3.08v8.31A.39.39,0,0,0,727.91,684.17Z"/><path class="cls-2" d="M743.83,664.48V661a.72.72,0,0,1,.81-.82h3.53c.54,0,.81.26.81.77v3.57a.72.72,0,0,1-.81.81h-3.53A.72.72,0,0,1,743.83,664.48Zm0,23.3v-19c0-.57.27-.86.81-.86h3.48a.76.76,0,0,1,.86.86v19a.9.9,0,0,1-.19.69.92.92,0,0,1-.62.16h-3.49A.75.75,0,0,1,743.83,687.78Z"/><path class="cls-2" d="M757.93,688.63h-3.44a.76.76,0,0,1-.86-.85v-19a.76.76,0,0,1,.86-.86h3.44a.76.76,0,0,1,.85.86v1.33h.16q.9-2.19,4-2.19h1.3q6.36,0,6.36,6.61v13.21c0,.57-.3.85-.89.85h-3.4a.75.75,0,0,1-.85-.85v-13a2.56,2.56,0,0,0-.55-1.84,2.53,2.53,0,0,0-1.84-.55h-1.46c-1.87,0-2.8,1-2.8,3.08v12.28A.75.75,0,0,1,757.93,688.63Z"/><path class="cls-2" d="M779.32,682.79V686a4.79,4.79,0,0,1-.93,2.51l-2.79,4.09a.9.9,0,0,1-.77.41q-.69,0-.69-.81v-9.32A.72.72,0,0,1,775,682h3.6A.67.67,0,0,1,779.32,682.79Z"/><path class="cls-2" d="M304.56,737.25h-3.4c-.6,0-.9-.28-.9-.85V716.1a.39.39,0,0,0-.44-.44H295.2a.75.75,0,0,1-.85-.85v-2.76a.75.75,0,0,1,.85-.85h15.32a.75.75,0,0,1,.85.85v2.76a.76.76,0,0,1-.85.85H305.9c-.33,0-.49.15-.49.44v20.3A.75.75,0,0,1,304.56,737.25Z"/><path class="cls-2" d="M318.34,737.25h-3.45a.75.75,0,0,1-.85-.85V709.62a.75.75,0,0,1,.85-.85h3.45a.75.75,0,0,1,.85.85v9.16h.16c.59-1.46,1.92-2.19,4-2.19h1.3q6.36,0,6.36,6.6V736.4c0,.57-.3.85-.89.85h-3.41a.75.75,0,0,1-.85-.85v-13a2,2,0,0,0-2.39-2.39H322c-1.86,0-2.79,1-2.79,3.07V736.4A.75.75,0,0,1,318.34,737.25Z"/><path class="cls-2" d="M350.47,737.25h-9a6.75,6.75,0,0,1-4.94-1.7,6.54,6.54,0,0,1-1.74-4.9v-7.46a6.54,6.54,0,0,1,1.74-4.9,6.79,6.79,0,0,1,4.94-1.7h3.2a6.8,6.8,0,0,1,5,1.7,6.54,6.54,0,0,1,1.74,4.9v5.15a.75.75,0,0,1-.85.85H340.38c-.33,0-.49.15-.49.45v.89a2.44,2.44,0,0,0,.55,1.8,2.51,2.51,0,0,0,1.84.55h8.19c.57,0,.85.3.85.89v2.67a.88.88,0,0,1-.18.63A1,1,0,0,1,350.47,737.25Zm-10.09-11.5h5.51c.3,0,.44-.15.44-.45v-1.94A2,2,0,0,0,344,721h-1.7a2,2,0,0,0-2.35,2.36v1.94A.4.4,0,0,0,340.38,725.75Z"/><path class="cls-2" d="M364.37,713.1v-3.52a.72.72,0,0,1,.81-.81h3.52c.54,0,.81.26.81.77v3.56a.72.72,0,0,1-.81.81h-3.52A.72.72,0,0,1,364.37,713.1Zm0,23.3v-19c0-.57.27-.85.81-.85h3.48a.75.75,0,0,1,.85.85v19a1,1,0,0,1-.18.69.94.94,0,0,1-.63.16h-3.48A.75.75,0,0,1,364.37,736.4Z"/><path class="cls-2" d="M387.34,733.65v2.79a.88.88,0,0,1-.18.63,1,1,0,0,1-.67.18h-6a6.75,6.75,0,0,1-4.94-1.7,6.54,6.54,0,0,1-1.74-4.9v-7.46a6.54,6.54,0,0,1,1.74-4.9,6.79,6.79,0,0,1,4.94-1.7h6a.75.75,0,0,1,.85.85v2.8a.87.87,0,0,1-.18.62.91.91,0,0,1-.67.19h-5.23a2.48,2.48,0,0,0-1.8.54,2.54,2.54,0,0,0-.55,1.85v7a2.53,2.53,0,0,0,.55,1.84,2.48,2.48,0,0,0,1.8.55h5.23A.75.75,0,0,1,387.34,733.65Z"/><path class="cls-2" d="M400.71,737.25H397.1a6.75,6.75,0,0,1-4.94-1.7,6.54,6.54,0,0,1-1.74-4.9v-7.46a6.54,6.54,0,0,1,1.74-4.9,6.79,6.79,0,0,1,4.94-1.7h3.61a6.72,6.72,0,0,1,4.92,1.72,6.51,6.51,0,0,1,1.77,4.88v7.46a6.49,6.49,0,0,1-1.77,4.88A6.72,6.72,0,0,1,400.71,737.25Zm-2.83-4.41h2.06a2.64,2.64,0,0,0,1.85-.53,2.49,2.49,0,0,0,.54-1.82v-7.13a2.5,2.5,0,0,0-.54-1.83,2.64,2.64,0,0,0-1.85-.53h-2.06a2,2,0,0,0-2.36,2.36v7.13a2,2,0,0,0,2.36,2.35Z"/><path class="cls-2" d="M415.74,737.25H412.3a.75.75,0,0,1-.85-.85v-19a.75.75,0,0,1,.85-.85h3.44a.75.75,0,0,1,.85.85v1.34h.17q.89-2.19,4-2.19H422q6.36,0,6.37,6.6V736.4c0,.57-.3.85-.9.85h-3.4a.75.75,0,0,1-.85-.85v-13a2,2,0,0,0-2.39-2.39h-1.46c-1.86,0-2.8,1-2.8,3.07V736.4A.75.75,0,0,1,415.74,737.25Z"/><path class="cls-2" d="M449.82,737.25H445.2a.94.94,0,0,1-1-.85l-4.05-19c-.11-.57.09-.85.6-.85h3.89a.86.86,0,0,1,1,.85l1.82,13.86h.32l2.88-13.86a.86.86,0,0,1,.93-.85h3.57a.93.93,0,0,1,1,.85L459,731.3h.32l1.87-13.86a.88.88,0,0,1,1-.85H466c.54,0,.74.28.61.85l-4.06,19a.91.91,0,0,1-1,.85H457a.91.91,0,0,1-1-.85l-2.47-13.69h-.33l-2.43,13.69A.88.88,0,0,1,449.82,737.25Z"/><path class="cls-2" d="M470,713.1v-3.52a.72.72,0,0,1,.81-.81h3.52c.54,0,.81.26.81.77v3.56a.72.72,0,0,1-.81.81h-3.52A.72.72,0,0,1,470,713.1Zm0,23.3v-19c0-.57.27-.85.81-.85h3.48a.75.75,0,0,1,.85.85v19a1,1,0,0,1-.18.69.94.94,0,0,1-.63.16h-3.48A.75.75,0,0,1,470,736.4Z"/><path class="cls-2" d="M484.26,737.25h-3.44a.75.75,0,0,1-.85-.85V709.62a.75.75,0,0,1,.85-.85h3.44a.75.75,0,0,1,.85.85V736.4A.75.75,0,0,1,484.26,737.25Z"/><path class="cls-2" d="M494.27,737.25h-3.44a.76.76,0,0,1-.86-.85V709.62a.76.76,0,0,1,.86-.85h3.44a.75.75,0,0,1,.85.85V736.4A.75.75,0,0,1,494.27,737.25Z"/><path class="cls-2" d="M516.19,716.59h3.24a.94.94,0,0,1,.67.18.88.88,0,0,1,.18.63v2.8a.75.75,0,0,1-.85.85h-3.24c-.3,0-.45.14-.45.44V736.4c0,.57-.29.85-.89.85h-3.4a.75.75,0,0,1-.85-.85V721.49c0-.3-.16-.44-.49-.44h-1.86a.75.75,0,0,1-.85-.85v-2.8a.89.89,0,0,1,.18-.65,1,1,0,0,1,.67-.16h1.86c.33,0,.49-.15.49-.45v-.77a6.68,6.68,0,0,1,1.68-4.9,6.58,6.58,0,0,1,4.88-1.7h2.31a.87.87,0,0,1,.65.18.94.94,0,0,1,.16.63v2.8c0,.56-.27.85-.81.85H518a2.27,2.27,0,0,0-1.76.54,2.88,2.88,0,0,0-.47,1.85v.52A.4.4,0,0,0,516.19,716.59Z"/><path class="cls-2" d="M527.33,737.25h-3.44a.75.75,0,0,1-.85-.85v-19a.75.75,0,0,1,.85-.85h3.44a.75.75,0,0,1,.85.85v1.38h.17a3.08,3.08,0,0,1,1.58-1.66,5.23,5.23,0,0,1,2.39-.57h1.46c.54,0,.8.28.8.85v2.8a.93.93,0,0,1-.18.66.75.75,0,0,1-.62.15H531c-1.86,0-2.8,1.05-2.8,3.16V736.4A.75.75,0,0,1,527.33,737.25Z"/><path class="cls-2" d="M547.07,737.25h-3.61a6.75,6.75,0,0,1-4.94-1.7,6.51,6.51,0,0,1-1.75-4.9v-7.46a6.51,6.51,0,0,1,1.75-4.9,6.79,6.79,0,0,1,4.94-1.7h3.61a6.75,6.75,0,0,1,4.92,1.72,6.54,6.54,0,0,1,1.76,4.88v7.46a6.53,6.53,0,0,1-1.76,4.88A6.75,6.75,0,0,1,547.07,737.25Zm-2.84-4.41h2.07a2.63,2.63,0,0,0,1.84-.53,2.49,2.49,0,0,0,.55-1.82v-7.13a2.5,2.5,0,0,0-.55-1.83,2.63,2.63,0,0,0-1.84-.53h-2.07a2,2,0,0,0-2.35,2.36v7.13a2.49,2.49,0,0,0,.53,1.82A2.52,2.52,0,0,0,544.23,732.84Z"/><path class="cls-2" d="M566.07,737.25h-4.62a.94.94,0,0,1-1-.85l-4.06-19c-.1-.57.1-.85.61-.85h3.89a.86.86,0,0,1,1,.85l1.82,13.86H564l2.88-13.86a.86.86,0,0,1,.93-.85h3.57a.94.94,0,0,1,1,.85l2.8,13.86h.32l1.86-13.86a.89.89,0,0,1,1-.85h3.89c.54,0,.74.28.6.85l-4,19a.91.91,0,0,1-1,.85h-4.62a.91.91,0,0,1-1-.85l-2.47-13.69h-.33L567,736.4A.88.88,0,0,1,566.07,737.25Z"/><path class="cls-2" d="M590.3,737.25h-3.44a.76.76,0,0,1-.86-.85v-19a.76.76,0,0,1,.86-.85h3.44a.75.75,0,0,1,.85.85v1.34h.16q.9-2.19,4-2.19h1.3q6.36,0,6.36,6.6V736.4c0,.57-.3.85-.89.85h-3.4a.75.75,0,0,1-.85-.85v-13a2,2,0,0,0-2.39-2.39H594c-1.87,0-2.8,1-2.8,3.07V736.4A.75.75,0,0,1,590.3,737.25Z"/><path class="cls-2" d="M611.69,731.42v5c0,.57-.25.85-.77.85h-3.6c-.54,0-.81-.28-.81-.85v-4.94a.72.72,0,0,1,.81-.81h3.6A.68.68,0,0,1,611.69,731.42Z"/><path id="cursor" class="cls-16" d="M432.81,472.28a521.84,521.84,0,0,1-83.38-53.64,521.55,521.55,0,0,1-21.67,96.74q14.67-4.2,29.06-9.27l14.49,53.68A265.67,265.67,0,0,0,433,534.48l-27.39-48.4Q419.4,479.59,432.81,472.28Z"/><path id="shade-4" data-name="shade" class="cls-17" d="M349.43,418.64l0,.27c7.35,19.06,34.51,98.46,56.71,128.84A265.09,265.09,0,0,0,433,534.48l-27.39-48.4q13.78-6.49,27.2-13.8A521.84,521.84,0,0,1,349.43,418.64Z"/><path id="eyes" class="cls-18" d="M394.37,502.15c-.55.23-1.35-.48-1.8-1.57s-.37-2.15.18-2.38,1.35.48,1.8,1.57S394.92,501.93,394.37,502.15Zm-18.09,5.12c-.45-1.09-1.25-1.79-1.8-1.57s-.62,1.29-.17,2.38,1.25,1.79,1.79,1.57S376.73,508.36,376.28,507.27Z"/><path d="M401.67,520a17.44,17.44,0,0,0-18.24,7.48l-.76-.5a18.35,18.35,0,0,1,19.18-7.87Z"/><path d="M364.45,507.41A31.32,31.32,0,0,0,373.86,496l.79.14a34.05,34.05,0,0,1-9.83,11.79Z"/><path d="M399.52,493a31.31,31.31,0,0,1-14.74-1.55c-.16.21-.31.43-.47.65a34.12,34.12,0,0,0,15.29,1.49C399.57,493.41,399.55,493.22,399.52,493Z"/><polygon class="cls-19" points="555.92 322.28 559.07 325.86 564.37 327 567.95 330.01 572.39 330.15 574.11 332.88 579.12 331.59 581.42 334.88 586.86 333.59 589.01 336.03 593.31 335.17 596.6 337.17 602.19 336.31 603.91 338.61 607.92 336.89 611.07 340.04 614.94 338.75 616.94 341.04 621.81 339.75 626.97 341.19 629.55 340.76 631.5 341.92 617.8 313.39 555.92 322.28"/><polygon class="cls-20" points="556.72 321.48 559.87 325.06 565.17 326.21 568.75 329.22 573.19 329.36 574.91 332.08 579.93 330.8 582.22 334.09 587.66 332.8 589.81 335.24 594.11 334.38 597.4 336.38 602.99 335.52 604.71 337.81 608.72 336.1 611.87 339.25 615.74 337.96 617.75 340.25 622.62 338.96 627.77 340.39 630.35 339.96 632.31 341.12 618.61 312.6 556.72 321.48"/><path class="cls-21" d="M617.28,313.27c-5.45-.1-12.94,13.13-12.94,13.13s32.71,19.67,27.55,12.18S617.28,313.27,617.28,313.27Z"/><path class="cls-22" d="M589.69,226.77c0-.89,23-15.06,27.46-14.77S639,232.68,639,232.68L634.57,251l.6,14.76,2.65,1.48s0,15.95-.29,19.78-2.66,52-5,54.05l-11.22-6.5L615.67,318l-58.76,5-1.18-5.61,23-10.33s-1.48-4.43-1.18-5.91,10-17.13,10-17.13l-3-15.06,7.38-24.51Z"/><path class="cls-23" d="M637.82,267.23l-2.65-1.48-.46-13.53c-5.68-3.47-13.33,4.3-13.33,4.3l-12.17,20.2S592,304.8,590.73,305.66c-.67.45-8,1.67-15,2.78l-20,9,1.18,5.61,58.76-5,5.62,16.54.14.08c3.62-12.28,11.94-40.53,16.33-55.92C637.82,273.2,637.82,267.23,637.82,267.23Z"/><polygon class="cls-24" points="606.97 235.42 608.22 232.59 605.69 232.22 605.23 229.65 602.52 231.03 600.54 229.7 598.67 232.29 595.93 232.72 595.63 235.54 593.16 237.55 594.54 239.52 593.3 242.35 595.83 242.72 596.28 245.29 599 243.91 600.97 245.24 602.84 242.65 605.58 242.22 605.88 239.4 608.35 237.39 606.97 235.42"/><path class="cls-25" d="M596.28,241a4.19,4.19,0,0,0,.62-.23,3.37,3.37,0,0,0,1.17-.93,3.42,3.42,0,0,0,.7-1.73h0a2.49,2.49,0,0,1-1.32,1,1.19,1.19,0,0,1-1.72-1.15,2.79,2.79,0,0,1,1.88-2.61c1.16-.39,1.9.3,1.94,1.72a4.56,4.56,0,0,1-.91,2.93,4.21,4.21,0,0,1-1.62,1.29,4.79,4.79,0,0,1-.7.27Zm.19-3.29c0,.69.46,1,1.12.82a1.91,1.91,0,0,0,1.1-.95.67.67,0,0,0,.06-.3c0-.95-.4-1.55-1.2-1.29A1.72,1.72,0,0,0,596.47,237.69Z"/><path class="cls-25" d="M600.74,239.51a4.19,4.19,0,0,0,.62-.23,3.37,3.37,0,0,0,1.17-.93,3.51,3.51,0,0,0,.71-1.73h0a2.47,2.47,0,0,1-1.31,1,1.18,1.18,0,0,1-1.72-1.15,2.8,2.8,0,0,1,1.87-2.61c1.16-.39,1.9.3,1.94,1.72a4.61,4.61,0,0,1-.9,2.93,4.31,4.31,0,0,1-1.63,1.29,4.39,4.39,0,0,1-.7.27Zm.19-3.29c0,.69.46,1,1.12.82a1.88,1.88,0,0,0,1.1-.95.56.56,0,0,0,.06-.3c0-.95-.4-1.56-1.2-1.29A1.73,1.73,0,0,0,600.93,236.22Z"/><path class="cls-25" d="M604.51,233.7v-.32a.54.54,0,0,1-.46-.06.59.59,0,0,1-.19-.47,1.08,1.08,0,0,1,.61-1v-.3l.2-.07v.3a.72.72,0,0,1,.34,0l-.06.23a.47.47,0,0,0-.32,0,.72.72,0,0,0-.49.71c0,.34.23.47.5.38a.9.9,0,0,0,.36-.19l.06.18a1.72,1.72,0,0,1-.35.2v.31Z"/><path class="cls-26" d="M617.15,212c-4.43-.29-27.46,13.88-27.46,14.77l.54,4.06c7.84-5.41,22.86-13.36,25.9-13.46,5.38-.19,17,10.49,21.38,21.47l1.49-6.16S621.58,212.3,617.15,212Z"/><path class="cls-27" d="M591.1,285.43c-1-1.18,8.15-8.65,11.42-8.49s2.28,5.39,4.4,4.57a10.81,10.81,0,0,1,4.25-.65s-3.27,9.62-7,9.3S592.89,287.55,591.1,285.43Z"/><path class="cls-27" d="M594.94,302.27c-1.31-1.56,10.79-11.44,15.1-11.22s3,7.12,5.83,6a14.47,14.47,0,0,1,5.61-.87s-4.32,12.73-9.28,12.3S597.31,305.07,594.94,302.27Z"/><path class="cls-27" d="M608.31,289.59c-1.28-1.51,10.48-11.11,14.67-10.9s2.93,6.92,5.66,5.87a14,14,0,0,1,5.45-.84s-4.2,12.37-9,11.95S610.61,292.31,608.31,289.59Z"/><path class="cls-28" d="M612.79,260.68s-2.75-7.75,5.93-10.61,10.83-1.86,11.4,3.59S620.81,257.24,612.79,260.68Z"/><path class="cls-29" d="M621.22,231.9c8.46-.54,13.5,9,13.68,10.26s-4.68,13.32-4.68,13.32-2.88-8.82-9.18-4.86-9,6.84-8.46,9.54-7.56-12.78-7-16.74S612.76,232.44,621.22,231.9Z"/><path class="cls-30" d="M628.64,284.56c-2.73,1.05-1.47-5.66-5.66-5.87-1.64-.08-4.44,1.34-7.16,3.19,3.32.07,9.82.51,9.29,2.86-.49,2.16,4.51,2.08,8,1.6.64-1.52,1-2.62,1-2.62A14,14,0,0,0,628.64,284.56Z"/><path class="cls-30" d="M621.48,296.22a14.47,14.47,0,0,0-5.61.87c-2.8,1.08-1.51-5.83-5.83-6-1.46-.08-3.81,1-6.24,2.55,2.44-.36,5.63-.79,6.12.6.86,2.43.43,9.17,3.3,8.16a61.48,61.48,0,0,0,7.33-3.73C621.14,297.22,621.48,296.22,621.48,296.22Z"/><path class="cls-30" d="M609.17,281c-1.11,2.49-3.25,6.8-5.26,7.8-2.61,1.31-10.53-4.13-11.94-5.13-.74.85-1.12,1.52-.87,1.81,1.79,2.12,9.3,4.4,13,4.73s7-9.3,7-9.3A10.07,10.07,0,0,0,609.17,281Z"/><path class="cls-31" d="M634.42,267.41l3.4-.18-2.65-1.48-.53-13a36.27,36.27,0,0,0-3.66,8.1Z"/><path d="M603.25,270.29c.42,1.13-.66,2.39-1.37,2.9a3.4,3.4,0,0,1-3.52.35,3.24,3.24,0,0,1-1.45-2.83,8.54,8.54,0,0,1,4.82-7.35,2.2,2.2,0,0,1,2.28.05,3.18,3.18,0,0,1,.89,1.23,1.94,1.94,0,0,1-.15,1.48c-.26.53-.49,1.18-.68,1.67-.05.14-.17.24-.37.1a1.31,1.31,0,0,1-.4-1.62c.27-.89.87-1.85.49-2.26s-3,.86-4.56,3.38-1.31,5-.49,5.63c1.08.88,2.87-.25,4.15-2.77C603,270.07,603.16,270.07,603.25,270.29Z"/><path d="M612.68,269.24a1.08,1.08,0,0,1,.65.75c0,.13,0,.21-.18.18a4,4,0,0,0-.95-.05c-.57,1.1-1.16,2.31-1.72,3.58-.06.16-.18.18-.28,0-.24-.34-.39-.83-.05-1.86.11-.33.37-.92.7-1.62-1.23.16-2.53.38-3.32.38-.52,1-1,2.15-1.53,3.28-.07.17-.21.22-.31.07-.25-.35-.37-.82-.08-1.85.1-.36.39-1,.72-1.72a1.13,1.13,0,0,1-.57-.54c-.1-.21-.07-.27.22-.26s.49.05.71.05a60.11,60.11,0,0,1,3.34-6.13c.15-.21.3-.17.4,0,.25.47.2,1.3-.42,2.5-.49.94-1.18,2.14-1.92,3.54,1.16-.15,2.21-.44,3.32-.51a54.61,54.61,0,0,1,3.26-5.75c.16-.22.32-.2.42,0,.23.49.18,1.28-.53,2.55C614.06,266.8,613.4,267.93,612.68,269.24Z"/><path d="M620,263.36c.24.49.22,1.3-.5,2.58-1,1.84-2.9,5.09-4.14,7.86-.06.17-.13.18-.27,0s-.43-.84-.06-1.87a49.66,49.66,0,0,1,4.57-8.62C619.76,263.12,619.91,263.15,620,263.36Z"/><path d="M622.24,264.44c-.09-.19,0-.29.17-.31,1.4-.15,2.66-.86,3.81-.91a1.84,1.84,0,0,1,2,1.4,3.28,3.28,0,0,1-.51,2.89,7.61,7.61,0,0,1-4.87,3,1.54,1.54,0,0,1-1.05-.17c-.47.93-1,2-1.57,3.44-.07.17-.15.17-.27.05s-.4-.76-.15-1.67a35.57,35.57,0,0,1,3.49-7A1.24,1.24,0,0,1,622.24,264.44Zm5.26.33c-.35-.92-2,0-3.15.27a3.84,3.84,0,0,1-.64,1.86c-.44.77-.91,1.55-1.42,2.49C626.07,268.69,628,266,627.5,264.77Z"/><polygon class="cls-19" points="287.92 465.28 291.07 468.86 296.37 470 299.95 473.01 304.39 473.15 306.11 475.88 311.12 474.59 313.42 477.88 318.86 476.59 321.01 479.03 325.31 478.17 328.6 480.17 334.19 479.31 335.91 481.61 339.92 479.89 343.07 483.04 346.94 481.75 348.94 484.04 353.81 482.75 358.97 484.19 361.55 483.76 363.5 484.92 349.8 456.39 287.92 465.28"/><polygon class="cls-20" points="288.72 464.48 291.87 468.06 297.17 469.21 300.75 472.22 305.19 472.36 306.91 475.08 311.93 473.8 314.22 477.09 319.66 475.8 321.81 478.24 326.11 477.38 329.4 479.38 334.99 478.52 336.71 480.81 340.72 479.1 343.87 482.25 347.74 480.96 349.75 483.25 354.62 481.96 359.77 483.39 362.35 482.96 364.31 484.12 350.61 455.6 288.72 464.48"/><path class="cls-21" d="M349.28,456.27c-5.45-.1-12.94,13.13-12.94,13.13s32.71,19.67,27.55,12.18S349.28,456.27,349.28,456.27Z"/><path class="cls-22" d="M321.69,369.77c0-.89,23-15.06,27.46-14.77S371,375.68,371,375.68L366.57,394l.6,14.76,2.65,1.48s0,15.95-.29,19.78-2.66,52-5,54.05l-11.22-6.5L347.67,461l-58.76,5-1.18-5.61,23-10.33s-1.48-4.43-1.18-5.91,10-17.13,10-17.13L316.67,412l7.38-24.51Z"/><path class="cls-23" d="M369.82,410.23l-2.65-1.48-.46-13.53c-5.68-3.47-13.33,4.3-13.33,4.3l-12.17,20.2S324,447.8,322.73,448.66c-.67.45-8,1.67-15,2.78l-20,9,1.18,5.61,58.76-5,5.62,16.54.14.08c3.62-12.28,11.94-40.53,16.33-55.92C369.82,416.2,369.82,410.23,369.82,410.23Z"/><polygon class="cls-24" points="338.97 378.42 340.21 375.59 337.69 375.22 337.23 372.65 334.52 374.03 332.54 372.7 330.67 375.29 327.93 375.71 327.63 378.54 325.16 380.55 326.54 382.52 325.3 385.35 327.82 385.72 328.28 388.29 331 386.91 332.97 388.24 334.84 385.64 337.58 385.22 337.88 382.4 340.35 380.39 338.97 378.42"/><path class="cls-25" d="M328.28,384a4.19,4.19,0,0,0,.62-.23,3.37,3.37,0,0,0,1.17-.93,3.42,3.42,0,0,0,.7-1.73h0a2.49,2.49,0,0,1-1.32,1,1.19,1.19,0,0,1-1.72-1.15,2.79,2.79,0,0,1,1.88-2.61c1.16-.39,1.9.3,1.94,1.72a4.56,4.56,0,0,1-.91,2.93,4.21,4.21,0,0,1-1.62,1.29,4.79,4.79,0,0,1-.7.27Zm.19-3.29c0,.69.46,1,1.12.82a1.91,1.91,0,0,0,1.1-.95.67.67,0,0,0,.06-.3c0-.95-.4-1.55-1.2-1.29A1.72,1.72,0,0,0,328.47,380.69Z"/><path class="cls-25" d="M332.74,382.51a4.19,4.19,0,0,0,.62-.23,3.37,3.37,0,0,0,1.17-.93,3.51,3.51,0,0,0,.71-1.73h0a2.47,2.47,0,0,1-1.31,1,1.18,1.18,0,0,1-1.72-1.15,2.8,2.8,0,0,1,1.87-2.61c1.16-.39,1.9.3,1.94,1.72a4.61,4.61,0,0,1-.9,2.93,4.31,4.31,0,0,1-1.63,1.29,4.39,4.39,0,0,1-.7.27Zm.19-3.29c0,.69.46,1,1.12.82a1.88,1.88,0,0,0,1.1-1,.56.56,0,0,0,.06-.3c0-1-.4-1.56-1.2-1.29A1.73,1.73,0,0,0,332.93,379.22Z"/><path class="cls-25" d="M336.51,376.7v-.32a.54.54,0,0,1-.46-.06.59.59,0,0,1-.19-.47,1.08,1.08,0,0,1,.61-1v-.3l.2-.07v.3a.72.72,0,0,1,.34,0l-.06.23a.47.47,0,0,0-.32,0,.72.72,0,0,0-.49.71c0,.34.23.47.5.38a.9.9,0,0,0,.36-.19l.06.18a1.72,1.72,0,0,1-.35.2v.31Z"/><path class="cls-26" d="M349.15,355c-4.43-.29-27.46,13.88-27.46,14.77l.54,4.06c7.84-5.41,22.86-13.36,25.9-13.46,5.38-.19,17,10.49,21.38,21.47l1.49-6.16S353.58,355.3,349.15,355Z"/><path class="cls-27" d="M323.1,428.43c-1-1.18,8.15-8.65,11.42-8.49s2.28,5.39,4.4,4.57a10.81,10.81,0,0,1,4.25-.65s-3.27,9.62-7,9.3S324.89,430.55,323.1,428.43Z"/><path class="cls-27" d="M326.94,445.27c-1.31-1.56,10.79-11.44,15.1-11.22s3,7.12,5.83,6a14.47,14.47,0,0,1,5.61-.87s-4.32,12.73-9.28,12.3S329.31,448.07,326.94,445.27Z"/><path class="cls-27" d="M340.31,432.59c-1.28-1.51,10.48-11.11,14.67-10.9s2.93,6.92,5.66,5.87a14,14,0,0,1,5.45-.84s-4.2,12.37-9,11.95S342.61,435.31,340.31,432.59Z"/><path class="cls-28" d="M344.79,403.68s-2.75-7.75,5.93-10.61,10.83-1.86,11.4,3.59S352.81,400.24,344.79,403.68Z"/><path class="cls-29" d="M353.22,374.9c8.46-.54,13.5,9,13.68,10.26s-4.68,13.32-4.68,13.32-2.88-8.82-9.18-4.86-9,6.84-8.46,9.54-7.56-12.78-7-16.74S344.76,375.44,353.22,374.9Z"/><path class="cls-30" d="M360.64,427.56c-2.73,1.05-1.47-5.66-5.66-5.87-1.64-.08-4.44,1.34-7.16,3.19,3.32.07,9.82.51,9.29,2.86-.49,2.16,4.51,2.08,8,1.6.64-1.52,1-2.62,1-2.62A14,14,0,0,0,360.64,427.56Z"/><path class="cls-30" d="M353.48,439.22a14.47,14.47,0,0,0-5.61.87c-2.8,1.08-1.51-5.83-5.83-6-1.46-.08-3.81,1-6.24,2.55,2.44-.36,5.63-.79,6.12.6.86,2.43.43,9.17,3.3,8.16a61.48,61.48,0,0,0,7.33-3.73C353.14,440.22,353.48,439.22,353.48,439.22Z"/><path class="cls-30" d="M341.17,424c-1.11,2.49-3.25,6.8-5.26,7.8-2.61,1.31-10.53-4.13-11.94-5.13-.74.85-1.12,1.52-.87,1.81,1.79,2.12,9.3,4.4,13,4.73s7-9.3,7-9.3A10.07,10.07,0,0,0,341.17,424Z"/><path class="cls-31" d="M366.42,410.41l3.4-.18-2.65-1.48-.53-13a36.27,36.27,0,0,0-3.66,8.1Z"/><path d="M335.25,413.29c.42,1.13-.66,2.39-1.37,2.9a3.4,3.4,0,0,1-3.52.35,3.24,3.24,0,0,1-1.45-2.83,8.54,8.54,0,0,1,4.82-7.35,2.2,2.2,0,0,1,2.28.05,3.18,3.18,0,0,1,.89,1.23,1.94,1.94,0,0,1-.15,1.48c-.26.53-.49,1.18-.68,1.67-.05.14-.17.24-.37.1a1.31,1.31,0,0,1-.4-1.62c.27-.89.87-1.85.49-2.26s-3,.86-4.56,3.38-1.31,5-.49,5.63c1.08.88,2.87-.25,4.15-2.77C335,413.07,335.16,413.07,335.25,413.29Z"/><path d="M344.68,412.24a1.08,1.08,0,0,1,.65.75c0,.13,0,.21-.18.18a4,4,0,0,0-.95-.05c-.57,1.1-1.16,2.31-1.72,3.58-.06.16-.18.18-.28,0-.24-.34-.39-.83-.05-1.86.11-.33.37-.92.7-1.62-1.23.16-2.53.38-3.32.38-.52,1-1,2.15-1.53,3.28-.07.17-.21.22-.31.07-.25-.35-.37-.82-.08-1.85.1-.36.39-1,.72-1.72a1.13,1.13,0,0,1-.57-.54c-.1-.21-.07-.27.22-.26s.49.05.71.05a60.11,60.11,0,0,1,3.34-6.13c.15-.21.3-.17.4,0,.25.47.2,1.3-.42,2.5-.49.94-1.18,2.14-1.92,3.54,1.16-.15,2.21-.44,3.32-.51a54.61,54.61,0,0,1,3.26-5.75c.16-.22.32-.2.42,0,.23.49.18,1.28-.53,2.55C346.06,409.8,345.4,410.93,344.68,412.24Z"/><path d="M352,406.36c.24.49.22,1.3-.5,2.58-1.05,1.84-2.9,5.09-4.14,7.86-.06.17-.13.18-.27,0s-.43-.84-.06-1.87a49.66,49.66,0,0,1,4.57-8.62C351.76,406.12,351.91,406.15,352,406.36Z"/><path d="M354.24,407.44c-.09-.19-.05-.29.17-.31,1.4-.15,2.66-.86,3.81-.91a1.84,1.84,0,0,1,2,1.4,3.28,3.28,0,0,1-.51,2.89,7.61,7.61,0,0,1-4.87,3,1.54,1.54,0,0,1-1.05-.17c-.47.93-1,2-1.57,3.44-.07.17-.15.17-.27.05s-.4-.76-.15-1.67a35.57,35.57,0,0,1,3.49-7A1.24,1.24,0,0,1,354.24,407.44Zm5.26.33c-.35-.92-2,0-3.15.27a3.84,3.84,0,0,1-.64,1.86c-.44.77-.91,1.55-1.42,2.49C358.07,411.69,360,409,359.5,407.77Z"/><path id="cursor-2" data-name="cursor" class="cls-16" d="M699,342.2a472.67,472.67,0,0,1-72.72-52.77,473.83,473.83,0,0,1-24.54,86.44q13.5-3.06,26.77-6.92l10.39,49.32A241.08,241.08,0,0,0,696,398.51q-11.16-22.61-22.33-45.19Q686.49,348.13,699,342.2Z"/><path id="shade-5" data-name="shade" class="cls-17" d="M626.28,289.43a2,2,0,0,0,0,.24c5.69,17.62,26.23,90.85,44.77,119.48a240.91,240.91,0,0,0,25-10.64q-11.16-22.61-22.33-45.19,12.81-5.19,25.32-11.12A472.67,472.67,0,0,1,626.28,289.43Z"/><path id="eyes-2" data-name="eyes" class="cls-18" d="M662.7,367.29c-.51.17-1.2-.5-1.55-1.51s-.23-2,.28-2.15,1.2.5,1.55,1.51S663.2,367.11,662.7,367.29ZM646.07,371c-.35-1-1.05-1.69-1.55-1.52s-.63,1.14-.28,2.15,1,1.69,1.54,1.51S646.41,372,646.07,371Z"/><g id="mouth"><path id="mouth-2" data-name="mouth" d="M662.3,389.23l4.05-8.14a2,2,0,0,0-2.44-2.78l-12.26,4.25a2,2,0,0,0-.2,3.69l8.21,3.89A2,2,0,0,0,662.3,389.23Z"/><path id="tongue" class="cls-32" d="M660.37,390.48a1.19,1.19,0,0,0,1.58-.54l1.79-3.6a4.59,4.59,0,0,0-7,2.4Z"/><path class="cls-33" d="M663.74,386.34a4.31,4.31,0,0,0-4.16-.59,3.71,3.71,0,0,0-.46.19c.55,1.32,1.3,3.06,2,4.62a1.19,1.19,0,0,0,.82-.62Z"/></g></g></g></svg>