<svg xmlns="http://www.w3.org/2000/svg" viewBox="0 0 908 1087.39"><defs><style>.cls-1{fill:#0d6f40;}.cls-2{fill:#3c423f;}.cls-3{fill:#0f5b35;}.cls-4{fill:#fff;}.cls-5{fill:#dee1df;}.cls-6{fill:#eaeaea;}.cls-7{fill:#66c144;}.cls-8{fill:#0b5932;}.cls-9{fill:#60af3f;}</style></defs><title>tutorial4</title><g id="Layer_2" data-name="Layer 2"><g id="instruct4"><rect class="cls-1" x="10" y="72.6" width="888" height="1004.79"/><path class="cls-2" d="M888,82.61v984.78H20V82.61H888m20-20H0V1087.39H908V62.61Z"/><path class="cls-3" d="M20,77v994H888V77Zm848.88,974.6H39.12V96.4H868.88Z"/><rect class="cls-4" x="205" y="5" width="498" height="130"/><path class="cls-2" d="M698,10V130H210V10H698M708,0H200V140H708V0Z"/><path class="cls-5" d="M210,10V130H698V10ZM691,123H217V17H691Z"/><path d="M275.26,47.83V92.11a.89.89,0,0,1-1,1H271a.89.89,0,0,1-1-1V47.83a.89.89,0,0,1,1-1h3.24A.89.89,0,0,1,275.26,47.83Z"/><path d="M291.18,93.12H288a.89.89,0,0,1-1-1V47.83a.89.89,0,0,1,1-1H291a1.14,1.14,0,0,1,1.15.58L312,82.32h.29V47.83a.9.9,0,0,1,1-1h3.17a.9.9,0,0,1,1,1V92.11a.9.9,0,0,1-1,1h-2.67a2,2,0,0,1-1.51-.94l-19.8-34.56h-.29V92.11A.89.89,0,0,1,291.18,93.12Z"/><path d="M328.33,82.46v-2.3a.89.89,0,0,1,1-1h3.24a.89.89,0,0,1,1,1V82q0,6.48,6.41,6.48h6.34q6.41,0,6.41-6.62V79.44q0-5.19-8.57-6.77c-2.4-.43-4.8-.94-7.2-1.51a12.79,12.79,0,0,1-6.12-3.35,9.12,9.12,0,0,1-2.52-6.8V57.48A9.84,9.84,0,0,1,339,46.82h8a9.89,9.89,0,0,1,10.65,10.66v1.8q0,1.08-.93,1.08h-3.32q-.93,0-.93-1.08V58q0-6.55-6.41-6.55h-6.12q-6.41,0-6.41,6.84v2.88q0,3.68,4.83,5c1.44.38,3,.73,4.75,1s3.46.72,5.22,1.23a26.25,26.25,0,0,1,4.79,1.87,8.58,8.58,0,0,1,3.49,3.38,10.71,10.71,0,0,1,1.33,5.51v3.24a9.89,9.89,0,0,1-10.66,10.66H339a9.89,9.89,0,0,1-10.65-10.66Z"/><path d="M380.09,93.12h-3.24a.89.89,0,0,1-1-1v-40c0-.43-.24-.65-.72-.65h-9.8c-.72,0-1.08-.34-1.08-1V47.83c0-.67.36-1,1.08-1h26.28c.72,0,1.08.34,1.08,1v2.59c0,.67-.36,1-1.08,1h-9.79c-.48,0-.72.22-.72.65v40A.89.89,0,0,1,380.09,93.12Z"/><path d="M403.78,93.12h-3.24a.9.9,0,0,1-1-1V47.83a.9.9,0,0,1,1-1H417.1A10.68,10.68,0,0,1,425,49.67a10.47,10.47,0,0,1,2.88,7.81V64a10.93,10.93,0,0,1-1.94,6.66,9.27,9.27,0,0,1-5.4,3.49v.29L428.84,92c.43.76.19,1.15-.72,1.15h-3.24a1.93,1.93,0,0,1-1.8-1L415,74.69h-9.5c-.48,0-.72.21-.72.64V92.11A.9.9,0,0,1,403.78,93.12Zm1.73-22.83h10.87q6.19,0,6.19-6.19V57.69q0-6.25-6.19-6.26H405.51c-.48,0-.72.22-.72.65V69.65C404.79,70.08,405,70.29,405.51,70.29Z"/><path d="M462.82,46.82h3.24c.67,0,1,.31,1,.94v34.7q0,5-2.81,7.85a10.51,10.51,0,0,1-7.78,2.81h-8a10.65,10.65,0,0,1-7.81-2.81c-1.9-1.87-2.84-4.49-2.84-7.85V47.83a.89.89,0,0,1,1-1h3.24a.89.89,0,0,1,1,1V82.25q0,6.25,6,6.26h6.77q6,0,6-6.26V47.83C461.88,47.16,462.2,46.82,462.82,46.82Z"/><path d="M496.66,93.12H488a10.63,10.63,0,0,1-7.81-2.81q-2.85-2.81-2.85-7.85v-25q0-5,2.85-7.85A10.63,10.63,0,0,1,488,46.82h8.64a10.63,10.63,0,0,1,7.81,2.81q2.85,2.81,2.85,7.85V61a.89.89,0,0,1-1,1h-3.24a.88.88,0,0,1-1-1V57.69q0-6.25-6.05-6.26H488.6q-6,0-6,6.26V82.25q0,6.25,6,6.26H496q6,0,6.05-6.26V78.93a.88.88,0,0,1,1-1h3.24a.89.89,0,0,1,1,1v3.53q0,5-2.85,7.85A10.63,10.63,0,0,1,496.66,93.12Z"/><path d="M528.34,93.12H525.1a.9.9,0,0,1-1-1v-40c0-.43-.24-.65-.72-.65h-9.79c-.72,0-1.08-.34-1.08-1V47.83c0-.67.36-1,1.08-1h26.28c.72,0,1.08.34,1.08,1v2.59c0,.67-.36,1-1.08,1h-9.79c-.48,0-.72.22-.72.65v40A.9.9,0,0,1,528.34,93.12Z"/><path d="M553.39,47.83V92.11a.89.89,0,0,1-1,1h-3.24a.89.89,0,0,1-1-1V47.83a.89.89,0,0,1,1-1h3.24A.89.89,0,0,1,553.39,47.83Z"/><path d="M583.63,93.12h-8.56a10.66,10.66,0,0,1-7.82-2.81q-2.84-2.81-2.84-7.85v-25q0-5,2.84-7.85a10.66,10.66,0,0,1,7.82-2.81h8.56a9.84,9.84,0,0,1,10.66,10.66v25a9.84,9.84,0,0,1-10.66,10.66Zm-8-4.61H583q6,0,6-6.26V57.69q0-6.25-6-6.26h-7.35q-6,0-6,6.26V82.25Q569.67,88.51,575.64,88.51Z"/><path d="M609.12,93.12H606a.89.89,0,0,1-1-1V47.83a.89.89,0,0,1,1-1h3a1.16,1.16,0,0,1,1.15.58l19.87,34.92h.29V47.83a.89.89,0,0,1,1-1h3.17a.9.9,0,0,1,1,1V92.11a.9.9,0,0,1-1,1h-2.66a2,2,0,0,1-1.51-.94l-19.8-34.56h-.29V92.11A.9.9,0,0,1,609.12,93.12Z"/><path class="cls-4" d="M231.12,688.63h-3.45a.75.75,0,0,1-.85-.85v-8.67l-7.41-15.64a.59.59,0,0,1,.57-.89h4.29c.43,0,.76.28,1,.85l4.06,9.84h.28l4-9.84c.19-.57.51-.85,1-.85h4.3a.71.71,0,0,1,.59.24.61.61,0,0,1,0,.65L232,679.11v8.67A.75.75,0,0,1,231.12,688.63Z"/><path class="cls-4" d="M252,688.63h-3.61a6.79,6.79,0,0,1-4.94-1.7,6.56,6.56,0,0,1-1.74-4.9v-7.46a6.54,6.54,0,0,1,1.74-4.9,6.76,6.76,0,0,1,4.94-1.71H252a6.74,6.74,0,0,1,4.92,1.73,6.47,6.47,0,0,1,1.76,4.88V682a6.5,6.5,0,0,1-1.76,4.88A6.73,6.73,0,0,1,252,688.63Zm-2.84-4.42h2.07a2.61,2.61,0,0,0,1.84-.52,2.46,2.46,0,0,0,.55-1.83v-7.13a2.45,2.45,0,0,0-.55-1.82,2.61,2.61,0,0,0-1.84-.53h-2.07a2,2,0,0,0-2.35,2.35v7.13a2,2,0,0,0,2.35,2.35Z"/><path class="cls-4" d="M270.18,688.63h-1.34a6.19,6.19,0,0,1-4.72-1.7,6.93,6.93,0,0,1-1.6-4.9V668.82a.76.76,0,0,1,.85-.86h3.45a.76.76,0,0,1,.85.86v13a2.59,2.59,0,0,0,.54,1.85,2.53,2.53,0,0,0,1.81.54h1.5c1.86,0,2.79-1,2.79-3.08V668.82a.76.76,0,0,1,.85-.86h3.41a.78.78,0,0,1,.89.86v19c0,.57-.3.85-.89.85h-3.41a.75.75,0,0,1-.85-.85v-1.34h-.16a3,3,0,0,1-1.58,1.64A5.37,5.37,0,0,1,270.18,688.63Z"/><path class="cls-4" d="M297.12,688.63h-3.44a.75.75,0,0,1-.85-.85V661a.76.76,0,0,1,.85-.86h3.44a.76.76,0,0,1,.86.86v9.15h.16c.59-1.46,1.92-2.19,4-2.19h1.3q6.36,0,6.36,6.61v13.21c0,.57-.3.85-.89.85h-3.41a.75.75,0,0,1-.85-.85v-13a2,2,0,0,0-2.39-2.39h-1.46c-1.86,0-2.79,1-2.79,3.08v12.28A.76.76,0,0,1,297.12,688.63Z"/><path class="cls-4" d="M321.27,688.63h-1a6.79,6.79,0,0,1-4.94-1.7,6.56,6.56,0,0,1-1.74-4.9v-7.46a6.54,6.54,0,0,1,1.74-4.9A6.76,6.76,0,0,1,320.3,668h9.36c.6,0,.89.29.89.86v19c0,.57-.29.85-.89.85h-3.4a.75.75,0,0,1-.85-.85v-1.34h-.16a3.08,3.08,0,0,1-1.58,1.64A5.41,5.41,0,0,1,321.27,688.63Zm4.14-7.54v-8.22c0-.3-.16-.45-.49-.45h-3.81a2.45,2.45,0,0,0-1.82.55,2.61,2.61,0,0,0-.53,1.84v7a2.64,2.64,0,0,0,.53,1.85,2.49,2.49,0,0,0,1.82.54h1.5C324.48,684.17,325.41,683.15,325.41,681.09Z"/><path class="cls-4" d="M334.12,668h3.57a.92.92,0,0,1,1,.86l3.48,15.23h.29l3.4-15.23a.94.94,0,0,1,1-.86h3.57c.57,0,.77.29.61.86l-5.11,18.92a1,1,0,0,1-1.09.89h-5.15a1.06,1.06,0,0,1-1.09-.89l-5.07-18.92C333.35,668.25,333.55,668,334.12,668Z"/><path class="cls-4" d="M369.21,688.63h-9a6.79,6.79,0,0,1-4.94-1.7,6.56,6.56,0,0,1-1.74-4.9v-7.46a6.54,6.54,0,0,1,1.74-4.9,6.76,6.76,0,0,1,4.94-1.71h3.21a6.76,6.76,0,0,1,4.94,1.71,6.54,6.54,0,0,1,1.74,4.9v5.15a.75.75,0,0,1-.85.85H359.12c-.32,0-.49.14-.49.44v.89a2.53,2.53,0,0,0,.55,1.81,2.56,2.56,0,0,0,1.84.54h8.19c.57,0,.85.3.85.9v2.67a.88.88,0,0,1-.18.63A1,1,0,0,1,369.21,688.63Zm-10.09-11.51h5.51a.39.39,0,0,0,.45-.44v-1.95a2,2,0,0,0-2.35-2.35H361a2,2,0,0,0-2.35,2.35v1.95A.39.39,0,0,0,359.12,677.12Z"/><path class="cls-4" d="M393.44,688.63h-4a6.78,6.78,0,0,1-4.94-1.7,6.52,6.52,0,0,1-1.75-4.9V669.18a6.51,6.51,0,0,1,1.75-4.9,6.74,6.74,0,0,1,4.94-1.7h8.26a.76.76,0,0,1,.86.85v2.79c0,.54-.29.81-.86.81h-7.45a2.44,2.44,0,0,0-1.8.55,2.51,2.51,0,0,0-.55,1.84v2.72h5.51a6.79,6.79,0,0,1,4.94,1.7,6.54,6.54,0,0,1,1.74,4.9V682a6.56,6.56,0,0,1-1.74,4.9A6.79,6.79,0,0,1,393.44,688.63Zm-3.16-4.46h2.31a2,2,0,0,0,2.39-2.39V679a2,2,0,0,0-2.39-2.39h-4.66v5.18a2.59,2.59,0,0,0,.53,1.85A2.47,2.47,0,0,0,390.28,684.17Z"/><path class="cls-4" d="M414.83,688.63h-4.05a6.79,6.79,0,0,1-4.94-1.7,6.56,6.56,0,0,1-1.74-4.9V669.18a6.54,6.54,0,0,1,1.74-4.9,6.75,6.75,0,0,1,4.94-1.7h4.05a6.68,6.68,0,0,1,4.91,1.72,6.56,6.56,0,0,1,1.74,4.88V682a6.57,6.57,0,0,1-1.74,4.88A6.68,6.68,0,0,1,414.83,688.63Zm-3.2-4.46H414a2.5,2.5,0,0,0,1.83-.54,2.64,2.64,0,0,0,.52-1.85V669.42a2.61,2.61,0,0,0-.52-1.84A2.46,2.46,0,0,0,414,667h-2.39a2.45,2.45,0,0,0-1.82.55,2.61,2.61,0,0,0-.53,1.84v12.36a2.64,2.64,0,0,0,.53,1.85A2.49,2.49,0,0,0,411.63,684.17Z"/><path class="cls-4" d="M442.63,688.63h-7.7c-.54,0-.81-.28-.81-.85v-2.59a.94.94,0,0,1,.16-.63.89.89,0,0,1,.65-.18h6.77c1.32,0,2-.41,2-1.22V683c0-.65-.55-1.27-1.66-1.87l-4-2.23a9.13,9.13,0,0,1-3-2.26,4.83,4.83,0,0,1-1-3.12,5.32,5.32,0,0,1,1.5-4.18,6.92,6.92,0,0,1,4.7-1.34H447c.54,0,.81.29.81.86v2.63a.93.93,0,0,1-.17.63.84.84,0,0,1-.64.18h-5.64c-1.32,0-2,.34-2,1v.21c0,.59.58,1.2,1.74,1.82l4.09,2.43a8.55,8.55,0,0,1,3,2.33,5.28,5.28,0,0,1,.85,3.14Q449,688.63,442.63,688.63Z"/><path class="cls-4" d="M467.79,688.63h-9a6.8,6.8,0,0,1-4.95-1.7,6.56,6.56,0,0,1-1.74-4.9v-7.46a6.54,6.54,0,0,1,1.74-4.9,6.77,6.77,0,0,1,4.95-1.71H462a6.76,6.76,0,0,1,4.94,1.71,6.54,6.54,0,0,1,1.74,4.9v5.15a.75.75,0,0,1-.85.85H457.7c-.32,0-.48.14-.48.44v.89a2.53,2.53,0,0,0,.54,1.81,2.59,2.59,0,0,0,1.85.54h8.18c.57,0,.85.3.85.9v2.67a.88.88,0,0,1-.18.63A.94.94,0,0,1,467.79,688.63ZM457.7,677.12h5.51a.39.39,0,0,0,.45-.44v-1.95a2,2,0,0,0-2.35-2.35h-1.7a2,2,0,0,0-2.35,2.35v1.95A.39.39,0,0,0,457.7,677.12Z"/><path class="cls-4" d="M485.74,685v2.8a.88.88,0,0,1-.18.63.94.94,0,0,1-.67.18h-6a6.79,6.79,0,0,1-4.94-1.7,6.56,6.56,0,0,1-1.74-4.9v-7.46a6.54,6.54,0,0,1,1.74-4.9,6.76,6.76,0,0,1,4.94-1.71h6a.76.76,0,0,1,.85.86v2.79a.88.88,0,0,1-.18.63.94.94,0,0,1-.67.18h-5.23a2.47,2.47,0,0,0-1.8.55,2.56,2.56,0,0,0-.55,1.84v7a2.59,2.59,0,0,0,.55,1.85,2.52,2.52,0,0,0,1.8.54h5.23A.75.75,0,0,1,485.74,685Z"/><path class="cls-4" d="M499.11,688.63h-3.6a6.8,6.8,0,0,1-4.95-1.7,6.56,6.56,0,0,1-1.74-4.9v-7.46a6.54,6.54,0,0,1,1.74-4.9,6.77,6.77,0,0,1,4.95-1.71h3.6a6.76,6.76,0,0,1,4.93,1.73,6.51,6.51,0,0,1,1.76,4.88V682a6.54,6.54,0,0,1-1.76,4.88A6.76,6.76,0,0,1,499.11,688.63Zm-2.83-4.42h2.06a2.64,2.64,0,0,0,1.85-.52,2.5,2.5,0,0,0,.54-1.83v-7.13a2.49,2.49,0,0,0-.54-1.82,2.64,2.64,0,0,0-1.85-.53h-2.06a2,2,0,0,0-2.35,2.35v7.13a2,2,0,0,0,2.35,2.35Z"/><path class="cls-4" d="M514.15,688.63H510.7a.75.75,0,0,1-.85-.85v-19a.76.76,0,0,1,.85-.86h3.45a.76.76,0,0,1,.85.86v1.33h.16c.59-1.46,1.92-2.19,4-2.19h1.3q6.36,0,6.36,6.61v13.21c0,.57-.3.85-.89.85h-3.41a.75.75,0,0,1-.85-.85v-13a2,2,0,0,0-2.39-2.39h-1.46c-1.86,0-2.79,1-2.79,3.08v12.28A.75.75,0,0,1,514.15,688.63Z"/><path class="cls-4" d="M538.62,688.63H537a6.18,6.18,0,0,1-4.72-1.7,6.89,6.89,0,0,1-1.6-4.9v-7.46a6.87,6.87,0,0,1,1.6-4.9A6.15,6.15,0,0,1,537,668h1.66a5.51,5.51,0,0,1,2.39.55,3.08,3.08,0,0,1,1.58,1.64h.16V661a.76.76,0,0,1,.85-.86h3.45a.76.76,0,0,1,.85.86v26.78a.75.75,0,0,1-.85.85H543.6a.75.75,0,0,1-.85-.85v-1.34h-.16a3,3,0,0,1-1.58,1.64A5.37,5.37,0,0,1,538.62,688.63Zm4.13-7.54V675.5c0-2-.93-3.08-2.79-3.08h-1.83a2.45,2.45,0,0,0-1.82.55,2.61,2.61,0,0,0-.53,1.84v7a2.64,2.64,0,0,0,.53,1.85,2.49,2.49,0,0,0,1.82.54H540C541.82,684.17,542.75,683.15,542.75,681.09Z"/><path class="cls-4" d="M560.17,688.63h-7.69c-.54,0-.81-.28-.81-.85v-2.59a.94.94,0,0,1,.16-.63.87.87,0,0,1,.65-.18h6.76c1.33,0,2-.41,2-1.22V683c0-.65-.56-1.27-1.66-1.87l-4-2.23a9.13,9.13,0,0,1-3-2.26,4.83,4.83,0,0,1-1-3.12,5.32,5.32,0,0,1,1.5-4.18,6.94,6.94,0,0,1,4.7-1.34h6.77c.54,0,.81.29.81.86v2.63a.94.94,0,0,1-.16.63.89.89,0,0,1-.65.18h-5.63c-1.33,0-2,.34-2,1v.21c0,.59.58,1.2,1.74,1.82l4.1,2.43a8.65,8.65,0,0,1,3,2.33,5.35,5.35,0,0,1,.85,3.14Q566.54,688.63,560.17,688.63Z"/><path class="cls-4" d="M579.46,672.42h-1.62a1,1,0,0,1-.67-.16.87.87,0,0,1-.18-.65v-2.79a.76.76,0,0,1,.85-.86h1.62c.3,0,.45-.14.45-.44v-3.85c0-.57.29-.85.89-.85h3.4a.75.75,0,0,1,.85.85v3.85c0,.3.16.44.49.44h3.16a.76.76,0,0,1,.85.86v2.79a.88.88,0,0,1-.18.63,1,1,0,0,1-.67.18h-3.16c-.33,0-.49.15-.49.45v9a2.44,2.44,0,0,0,.57,1.81,2.65,2.65,0,0,0,1.86.54h1.63a.76.76,0,0,1,.85.85v2.8a.83.83,0,0,1-.19.63.93.93,0,0,1-.66.18h-2.48a6.86,6.86,0,0,1-5-1.7,6.48,6.48,0,0,1-1.76-4.86v-9.2A.4.4,0,0,0,579.46,672.42Z"/><path class="cls-4" d="M603.21,688.63H599.6a6.79,6.79,0,0,1-4.94-1.7,6.56,6.56,0,0,1-1.75-4.9v-7.46a6.55,6.55,0,0,1,1.75-4.9A6.76,6.76,0,0,1,599.6,668h3.61a6.75,6.75,0,0,1,4.92,1.73,6.51,6.51,0,0,1,1.76,4.88V682a6.54,6.54,0,0,1-1.76,4.88A6.75,6.75,0,0,1,603.21,688.63Zm-2.84-4.42h2.07a2.61,2.61,0,0,0,1.84-.52,2.5,2.5,0,0,0,.55-1.83v-7.13a2.49,2.49,0,0,0-.55-1.82,2.61,2.61,0,0,0-1.84-.53h-2.07a2,2,0,0,0-2.35,2.35v7.13a2.55,2.55,0,0,0,.53,1.83A2.52,2.52,0,0,0,600.37,684.21Z"/><path class="cls-4" d="M630.68,688.63H623c-.54,0-.81-.28-.81-.85v-2.59a.94.94,0,0,1,.16-.63.89.89,0,0,1,.65-.18h6.77c1.32,0,2-.41,2-1.22V683c0-.65-.55-1.27-1.66-1.87l-4-2.23a9.13,9.13,0,0,1-3-2.26,4.83,4.83,0,0,1-1-3.12,5.32,5.32,0,0,1,1.5-4.18,6.92,6.92,0,0,1,4.7-1.34H635c.54,0,.81.29.81.86v2.63a.94.94,0,0,1-.16.63.87.87,0,0,1-.65.18h-5.63c-1.32,0-2,.34-2,1v.21c0,.59.58,1.2,1.74,1.82l4.09,2.43a8.65,8.65,0,0,1,3,2.33,5.28,5.28,0,0,1,.85,3.14Q637,688.63,630.68,688.63Z"/><path class="cls-4" d="M650.49,688.63h-3.61a6.79,6.79,0,0,1-4.94-1.7,6.56,6.56,0,0,1-1.74-4.9v-7.46a6.54,6.54,0,0,1,1.74-4.9,6.76,6.76,0,0,1,4.94-1.71h3.61a6.76,6.76,0,0,1,4.93,1.73,6.51,6.51,0,0,1,1.76,4.88V682a6.54,6.54,0,0,1-1.76,4.88A6.76,6.76,0,0,1,650.49,688.63Zm-2.83-4.42h2.06a2.64,2.64,0,0,0,1.85-.52,2.5,2.5,0,0,0,.54-1.83v-7.13a2.49,2.49,0,0,0-.54-1.82,2.64,2.64,0,0,0-1.85-.53h-2.06a2,2,0,0,0-2.36,2.35v7.13a2,2,0,0,0,2.36,2.35Z"/><path class="cls-4" d="M665.52,688.63h-3.44a.75.75,0,0,1-.85-.85v-19a.76.76,0,0,1,.85-.86h3.44a.76.76,0,0,1,.86.86v1.37h.16a3.12,3.12,0,0,1,1.58-1.66,5.23,5.23,0,0,1,2.39-.57H672c.54,0,.81.29.81.86v2.79a.89.89,0,0,1-.19.67.75.75,0,0,1-.62.14h-2.8c-1.86,0-2.79,1.06-2.79,3.16v12.2A.76.76,0,0,1,665.52,688.63Z"/><path class="cls-4" d="M675.82,672.42H674.2a1,1,0,0,1-.67-.16.87.87,0,0,1-.19-.65v-2.79a.76.76,0,0,1,.86-.86h1.62a.39.39,0,0,0,.44-.44v-3.85c0-.57.3-.85.89-.85h3.41a.75.75,0,0,1,.85.85v3.85c0,.3.16.44.48.44h3.16a.76.76,0,0,1,.86.86v2.79a.88.88,0,0,1-.19.63.94.94,0,0,1-.67.18h-3.16q-.48,0-.48.45v9a2.48,2.48,0,0,0,.56,1.81,2.66,2.66,0,0,0,1.87.54h1.62a.75.75,0,0,1,.85.85v2.8a.88.88,0,0,1-.18.63,1,1,0,0,1-.67.18H683a6.89,6.89,0,0,1-5-1.7,6.48,6.48,0,0,1-1.76-4.86v-9.2A.39.39,0,0,0,675.82,672.42Z"/><path class="cls-4" d="M689.47,669.71v-6.28a.75.75,0,0,1,.85-.85h3.85a.75.75,0,0,1,.85.85v6.28c0,1.08-.06,2.29-.18,3.62s-.21,2.33-.26,3-.11,1.18-.16,1.58-.09.62-.09.65a.88.88,0,0,1-.93.85h-2.31a.89.89,0,0,1-.93-.85s0-.24-.08-.65-.12-.93-.18-1.58-.13-1.35-.19-2.1Q689.47,670.88,689.47,669.71Zm5.43,13.08v5c0,.57-.27.85-.81.85h-3.57c-.54,0-.81-.3-.81-.89v-4.9a.72.72,0,0,1,.81-.81h3.57C694.63,682,694.9,682.28,694.9,682.79Z"/><path class="cls-4" d="M386.13,737.25h-4.3a6.75,6.75,0,0,1-4.94-1.7,6.55,6.55,0,0,1-1.75-4.9V717.8a6.56,6.56,0,0,1,1.75-4.9,6.79,6.79,0,0,1,4.94-1.7h4.3a6.67,6.67,0,0,1,4.9,1.72,6.57,6.57,0,0,1,1.74,4.88V719c0,.59-.28.89-.85.89h-3.44a.78.78,0,0,1-.86-.89v-1a2.64,2.64,0,0,0-.52-1.85,2.5,2.5,0,0,0-1.83-.54h-2.63a2.48,2.48,0,0,0-1.8.54,2.54,2.54,0,0,0-.55,1.85v12.36a2.53,2.53,0,0,0,.55,1.84,2.48,2.48,0,0,0,1.8.55h2.63a2.5,2.5,0,0,0,1.83-.55,2.63,2.63,0,0,0,.52-1.84v-2.56a.39.39,0,0,0-.44-.44h-2.43a.75.75,0,0,1-.85-.85V723.8a.75.75,0,0,1,.85-.85h7.09a.82.82,0,0,1,.93.93v6.77a6.56,6.56,0,0,1-1.74,4.88A6.67,6.67,0,0,1,386.13,737.25Z"/><path class="cls-4" d="M407.11,737.25h-3.6a6.78,6.78,0,0,1-4.95-1.7,6.54,6.54,0,0,1-1.74-4.9v-7.46a6.54,6.54,0,0,1,1.74-4.9,6.82,6.82,0,0,1,4.95-1.7h3.6a6.76,6.76,0,0,1,4.93,1.72,6.54,6.54,0,0,1,1.76,4.88v7.46a6.53,6.53,0,0,1-1.76,4.88A6.76,6.76,0,0,1,407.11,737.25Zm-2.83-4.41h2.06a2.64,2.64,0,0,0,1.85-.53,2.49,2.49,0,0,0,.55-1.82v-7.13a2.5,2.5,0,0,0-.55-1.83,2.64,2.64,0,0,0-1.85-.53h-2.06a2,2,0,0,0-2.35,2.36v7.13a2.49,2.49,0,0,0,.53,1.82A2.52,2.52,0,0,0,404.28,732.84Z"/><path class="cls-4" d="M427.74,737.25h-3.61a6.75,6.75,0,0,1-4.94-1.7,6.54,6.54,0,0,1-1.74-4.9v-7.46a6.54,6.54,0,0,1,1.74-4.9,6.79,6.79,0,0,1,4.94-1.7h3.61a6.72,6.72,0,0,1,4.92,1.72,6.5,6.5,0,0,1,1.76,4.88v7.46a6.49,6.49,0,0,1-1.76,4.88A6.72,6.72,0,0,1,427.74,737.25Zm-2.84-4.41H427a2.61,2.61,0,0,0,1.84-.53,2.45,2.45,0,0,0,.55-1.82v-7.13a2.46,2.46,0,0,0-.55-1.83A2.61,2.61,0,0,0,427,721H424.9a2,2,0,0,0-2.35,2.36v7.13a2,2,0,0,0,2.35,2.35Z"/><path class="cls-4" d="M446.05,737.25h-1.66a6.16,6.16,0,0,1-4.72-1.7,6.87,6.87,0,0,1-1.6-4.9v-7.46a6.87,6.87,0,0,1,1.6-4.9,6.19,6.19,0,0,1,4.72-1.7h1.66a5.34,5.34,0,0,1,2.39.55,3,3,0,0,1,1.58,1.64h.17v-9.16a.75.75,0,0,1,.85-.85h3.44a.75.75,0,0,1,.85.85V736.4a.75.75,0,0,1-.85.85H451a.75.75,0,0,1-.85-.85v-1.33H450a3.08,3.08,0,0,1-1.58,1.64A5.46,5.46,0,0,1,446.05,737.25Zm4.14-7.53v-5.6c0-2-.94-3.07-2.8-3.07h-1.82a2.5,2.5,0,0,0-1.83.54,2.64,2.64,0,0,0-.52,1.85v7a2.63,2.63,0,0,0,.52,1.84,2.5,2.5,0,0,0,1.83.55h1.82C449.25,732.8,450.19,731.77,450.19,729.72Z"/><path class="cls-4" d="M473.2,737.25h-3.44a.75.75,0,0,1-.85-.85V709.62a.75.75,0,0,1,.85-.85h3.44a.75.75,0,0,1,.85.85V736.4A.75.75,0,0,1,473.2,737.25Z"/><path class="cls-4" d="M486.17,737.25h-1.34a6.14,6.14,0,0,1-4.72-1.7,6.87,6.87,0,0,1-1.6-4.9V717.44a.75.75,0,0,1,.85-.85h3.44a.75.75,0,0,1,.85.85v13a2.58,2.58,0,0,0,.55,1.84,2.52,2.52,0,0,0,1.8.55h1.5c1.87,0,2.8-1,2.8-3.08V717.44a.75.75,0,0,1,.85-.85h3.4c.6,0,.9.28.9.85v19c0,.57-.3.85-.9.85h-3.4a.75.75,0,0,1-.85-.85v-1.33h-.16a3.15,3.15,0,0,1-1.58,1.64A5.53,5.53,0,0,1,486.17,737.25Z"/><path class="cls-4" d="M513.07,733.65v2.79a.88.88,0,0,1-.18.63,1,1,0,0,1-.67.18h-6a6.75,6.75,0,0,1-4.94-1.7,6.54,6.54,0,0,1-1.74-4.9v-7.46a6.54,6.54,0,0,1,1.74-4.9,6.79,6.79,0,0,1,4.94-1.7h6a.75.75,0,0,1,.85.85v2.8a.87.87,0,0,1-.18.62.91.91,0,0,1-.67.19H507a2.5,2.5,0,0,0-1.8.54,2.54,2.54,0,0,0-.55,1.85v7a2.53,2.53,0,0,0,.55,1.84,2.5,2.5,0,0,0,1.8.55h5.23A.75.75,0,0,1,513.07,733.65Z"/><path class="cls-4" d="M520.85,737.25h-3.44a.76.76,0,0,1-.86-.85V709.62a.76.76,0,0,1,.86-.85h3.44a.75.75,0,0,1,.85.85V736.4A.75.75,0,0,1,520.85,737.25Zm7.54-20.66h3.93a.69.69,0,0,1,.65.28.72.72,0,0,1-.13.73l-5.38,8.88v.16l5.63,9.6a.64.64,0,0,1,0,.71.83.83,0,0,1-.73.3h-3.49a2.19,2.19,0,0,1-1-.16,2,2,0,0,1-.63-.69l-5.14-9a1.29,1.29,0,0,1,0-1.34L527,717.4A1.47,1.47,0,0,1,528.39,716.59Z"/><path class="cls-4" d="M535.48,718.33v-6.28a.75.75,0,0,1,.85-.85h3.85a.75.75,0,0,1,.85.85v6.28q0,1.62-.18,3.63c-.13,1.33-.21,2.33-.27,3s-.11,1.17-.16,1.58-.08.62-.08.64a.9.9,0,0,1-.93.86H537.1a.89.89,0,0,1-.93-.86s0-.24-.09-.64-.11-.94-.18-1.58-.13-1.36-.18-2.11C535.56,720.61,535.48,719.12,535.48,718.33Zm5.43,13.09v5c0,.57-.27.85-.81.85h-3.57c-.54,0-.81-.29-.81-.89v-4.9a.72.72,0,0,1,.81-.81h3.57C540.64,730.65,540.91,730.91,540.91,731.42Z"/><path class="cls-4" d="M458,465.5c-49,0-88.9-36.56-88.9-81.5S409,302.5,458,302.5"/><path class="cls-6" d="M457.6,302.5a81.5,81.5,0,0,1,0,163"/><path class="cls-1" d="M457.6,306a78,78,0,1,1-78,78,78.09,78.09,0,0,1,78-78m0-7a85,85,0,1,0,85,85,85,85,0,0,0-85-85h0"/><path class="cls-7" d="M457.6,299a85,85,0,1,1-85,85,85,85,0,0,1,85-85m0-5a90,90,0,1,0,90,90,90.1,90.1,0,0,0-90-90Z"/><path class="cls-1" d="M432.19,286.51l35.55-63.65s-17.36-26.46-43-26.46-47.12,60.35-47.12,60.35Z"/><path class="cls-7" d="M535.53,233.6l19.84-10.74-28.94,52.08L462,278.24l24-13.22c-10.22-15.77-17.28-28-22.69-37.5-14.74-25.81-31.05-28.64-38.49-31.12,6.62,0,78.42-2.31,87.63,4.14C528.91,212.11,535.53,233.6,535.53,233.6Z"/><path class="cls-1" d="M398.93,480.86l-72.9,1s-14.23,28.26-1.41,50.46S400.44,543,400.44,543Z"/><path class="cls-7" d="M301.44,417.83,282.22,406l59.57-1,35.1,54.19-23.44-14.15c-8.55,16.74-15.63,29-21.14,38.4-15,25.67-9.27,41.21-7.69,48.89-3.31-5.73-41.22-66.75-40.24-78C286.14,434.3,301.44,417.83,301.44,417.83Z"/><path class="cls-1" d="M534.88,439.63l37.35,62.61s31.59-1.81,44.4-24-28.7-71-28.7-71Z"/><path class="cls-7" d="M529,555.57l-.61,22.56L497.78,527l29.38-57.5-.54,27.38c18.77-1,32.91-1,43.83-.9,29.71.14,40.31-12.57,46.18-17.77-3.31,5.72-37.2,69.06-47.39,73.82C551,560.59,529,555.57,529,555.57Z"/><path class="cls-1" d="M398.45,350.65a9.29,9.29,0,0,1,.74-3.67,9.09,9.09,0,0,1,2-3,10,10,0,0,1,3-2,9.1,9.1,0,0,1,3.67-.76h30.26a9.17,9.17,0,0,1,3.67.76,10.05,10.05,0,0,1,3,2,9.12,9.12,0,0,1,2,3,9.29,9.29,0,0,1,.74,3.67v8.55h-9.47v-8.55H407.92v18.94h30.26a9.33,9.33,0,0,1,3.67.74,9.49,9.49,0,0,1,5.06,5.06,9.29,9.29,0,0,1,.74,3.67V398a9.33,9.33,0,0,1-.74,3.67,9.58,9.58,0,0,1-5.06,5.06,9.32,9.32,0,0,1-3.67.73H407.92a9.25,9.25,0,0,1-3.67-.73,9.49,9.49,0,0,1-5.06-5.06,9.33,9.33,0,0,1-.74-3.67Zm9.47,28.41V398h30.26v-18.9Z"/><path class="cls-1" d="M516.75,398a9.33,9.33,0,0,1-.74,3.67,9.49,9.49,0,0,1-5.06,5.06,9.25,9.25,0,0,1-3.67.73H474.16a9.28,9.28,0,0,1-3.67-.73,9.49,9.49,0,0,1-5.06-5.06,9.33,9.33,0,0,1-.74-3.67V350.65a9.29,9.29,0,0,1,.74-3.67,9.09,9.09,0,0,1,2-3,10,10,0,0,1,3-2,9.14,9.14,0,0,1,3.67-.76h33.12a9.1,9.1,0,0,1,3.67.76,10,10,0,0,1,3,2,9.09,9.09,0,0,1,2,3,9.29,9.29,0,0,1,.74,3.67Zm-42.59-47.31V398h33.12V350.65Z"/><path class="cls-8" d="M458,299v7a78,78,0,0,1,0,156v7a85,85,0,0,0,0-170Z"/><path class="cls-9" d="M458,294v5a85,85,0,0,1,0,170v5a90,90,0,0,0,0-180Z"/></g></g></svg>