<svg xmlns="http://www.w3.org/2000/svg" viewBox="0 0 908 1087.39"><defs><style>.cls-1{fill:#0d6f40;}.cls-2{fill:#3c423f;}.cls-3{fill:#0f5b35;}.cls-4{fill:#4d5450;}.cls-5{fill:#3a3f3c;}.cls-6{fill:#fff;}.cls-7{fill:#dee1df;}.cls-8{fill:#a09e9b;}.cls-10,.cls-8,.cls-9{stroke:#ececeb;}.cls-10,.cls-11,.cls-8,.cls-9{stroke-miterlimit:10;stroke-width:0.96px;}.cls-12,.cls-8,.cls-9{opacity:0.5;}.cls-9{fill:#ececeb;}.cls-10{fill:none;}.cls-11{fill:#c6c5c3;stroke:#f0efef;opacity:0.66;}.cls-13{fill:#fffefd;}</style></defs><title>tutorial1</title><g id="Layer_2" data-name="Layer 2"><g id="instruct1"><rect class="cls-1" x="10" y="72.6" width="888" height="1004.79"/><path class="cls-2" d="M888,82.61v984.78H20V82.61H888m20-20H0V1087.39H908V62.61Z"/><g id="shade"><path class="cls-3" d="M20,77v994H888V77Zm848.88,974.6H39.12V96.4H868.88Z"/></g><g id="hole"><ellipse class="cls-4" cx="454" cy="355" rx="202.09" ry="128.89"/><path class="cls-5" d="M650.13,298.25c-11.1-16.74-26.86-31.69-46.83-44.43C563.24,228.27,510.22,214.2,454,214.2s-109.24,14.07-149.3,39.62c-20,12.74-35.73,27.69-46.83,44.43C246,316.12,240,335.22,240,355s6,38.88,17.87,56.75c11.1,16.74,26.86,31.69,46.83,44.43,40.06,25.55,93.08,39.62,149.3,39.62s109.24-14.07,149.3-39.62c20-12.74,35.73-27.69,46.83-44.43C662,393.88,668,374.78,668,355S662,316.12,650.13,298.25ZM454,483.89c-111.61,0-202.09-57.71-202.09-128.89S342.39,226.11,454,226.11,656.09,283.82,656.09,355,565.61,483.89,454,483.89Z"/></g><rect class="cls-6" x="205" y="5" width="498" height="130"/><path class="cls-2" d="M698,10V130H210V10H698M708,0H200V140H708V0Z"/><path id="shade-2" data-name="shade" class="cls-7" d="M210,10V130H698V10ZM691,123H217V17H691Z"/><path d="M275.26,47.83V92.11a.89.89,0,0,1-1,1H271a.89.89,0,0,1-1-1V47.83a.89.89,0,0,1,1-1h3.24A.89.89,0,0,1,275.26,47.83Z"/><path d="M291.18,93.12H288a.89.89,0,0,1-1-1V47.83a.89.89,0,0,1,1-1H291a1.14,1.14,0,0,1,1.15.58L312,82.32h.29V47.83a.9.9,0,0,1,1-1h3.17a.9.9,0,0,1,1,1V92.11a.9.9,0,0,1-1,1h-2.67a2,2,0,0,1-1.51-.94l-19.8-34.56h-.29V92.11A.89.89,0,0,1,291.18,93.12Z"/><path d="M328.33,82.46v-2.3a.89.89,0,0,1,1-1h3.24a.89.89,0,0,1,1,1V82q0,6.48,6.41,6.48h6.34q6.41,0,6.41-6.62V79.44q0-5.19-8.57-6.77c-2.4-.43-4.8-.94-7.2-1.51a12.79,12.79,0,0,1-6.12-3.35,9.12,9.12,0,0,1-2.52-6.8V57.48A9.84,9.84,0,0,1,339,46.82h8a9.89,9.89,0,0,1,10.65,10.66v1.8q0,1.08-.93,1.08h-3.32q-.93,0-.93-1.08V58q0-6.55-6.41-6.55h-6.12q-6.41,0-6.41,6.84v2.88q0,3.68,4.83,5c1.44.38,3,.73,4.75,1s3.46.72,5.22,1.23a26.25,26.25,0,0,1,4.79,1.87,8.58,8.58,0,0,1,3.49,3.38,10.71,10.71,0,0,1,1.33,5.51v3.24a9.89,9.89,0,0,1-10.66,10.66H339a9.89,9.89,0,0,1-10.65-10.66Z"/><path d="M380.09,93.12h-3.24a.89.89,0,0,1-1-1v-40c0-.43-.24-.65-.72-.65h-9.8c-.72,0-1.08-.34-1.08-1V47.83c0-.67.36-1,1.08-1h26.28c.72,0,1.08.34,1.08,1v2.59c0,.67-.36,1-1.08,1h-9.79c-.48,0-.72.22-.72.65v40A.89.89,0,0,1,380.09,93.12Z"/><path d="M403.78,93.12h-3.24a.9.9,0,0,1-1-1V47.83a.9.9,0,0,1,1-1H417.1A10.68,10.68,0,0,1,425,49.67a10.47,10.47,0,0,1,2.88,7.81V64a10.93,10.93,0,0,1-1.94,6.66,9.27,9.27,0,0,1-5.4,3.49v.29L428.84,92c.43.76.19,1.15-.72,1.15h-3.24a1.93,1.93,0,0,1-1.8-1L415,74.69h-9.5c-.48,0-.72.21-.72.64V92.11A.9.9,0,0,1,403.78,93.12Zm1.73-22.83h10.87q6.19,0,6.19-6.19V57.69q0-6.25-6.19-6.26H405.51c-.48,0-.72.22-.72.65V69.65C404.79,70.08,405,70.29,405.51,70.29Z"/><path d="M462.82,46.82h3.24c.67,0,1,.31,1,.94v34.7q0,5-2.81,7.85a10.51,10.51,0,0,1-7.78,2.81h-8a10.65,10.65,0,0,1-7.81-2.81c-1.9-1.87-2.84-4.49-2.84-7.85V47.83a.89.89,0,0,1,1-1h3.24a.89.89,0,0,1,1,1V82.25q0,6.25,6,6.26h6.77q6,0,6-6.26V47.83C461.88,47.16,462.2,46.82,462.82,46.82Z"/><path d="M496.66,93.12H488a10.63,10.63,0,0,1-7.81-2.81q-2.85-2.81-2.85-7.85v-25q0-5,2.85-7.85A10.63,10.63,0,0,1,488,46.82h8.64a10.63,10.63,0,0,1,7.81,2.81q2.85,2.81,2.85,7.85V61a.89.89,0,0,1-1,1h-3.24a.88.88,0,0,1-1-1V57.69q0-6.25-6.05-6.26H488.6q-6,0-6,6.26V82.25q0,6.25,6,6.26H496q6,0,6.05-6.26V78.93a.88.88,0,0,1,1-1h3.24a.89.89,0,0,1,1,1v3.53q0,5-2.85,7.85A10.63,10.63,0,0,1,496.66,93.12Z"/><path d="M528.34,93.12H525.1a.9.9,0,0,1-1-1v-40c0-.43-.24-.65-.72-.65h-9.79c-.72,0-1.08-.34-1.08-1V47.83c0-.67.36-1,1.08-1h26.28c.72,0,1.08.34,1.08,1v2.59c0,.67-.36,1-1.08,1h-9.79c-.48,0-.72.22-.72.65v40A.9.9,0,0,1,528.34,93.12Z"/><path d="M553.39,47.83V92.11a.89.89,0,0,1-1,1h-3.24a.89.89,0,0,1-1-1V47.83a.89.89,0,0,1,1-1h3.24A.89.89,0,0,1,553.39,47.83Z"/><path d="M583.63,93.12h-8.56a10.66,10.66,0,0,1-7.82-2.81q-2.84-2.81-2.84-7.85v-25q0-5,2.84-7.85a10.66,10.66,0,0,1,7.82-2.81h8.56a9.84,9.84,0,0,1,10.66,10.66v25a9.84,9.84,0,0,1-10.66,10.66Zm-8-4.61H583q6,0,6-6.26V57.69q0-6.25-6-6.26h-7.35q-6,0-6,6.26V82.25Q569.67,88.51,575.64,88.51Z"/><path d="M609.12,93.12H606a.89.89,0,0,1-1-1V47.83a.89.89,0,0,1,1-1h3a1.16,1.16,0,0,1,1.15.58l19.87,34.92h.29V47.83a.89.89,0,0,1,1-1h3.17a.9.9,0,0,1,1,1V92.11a.9.9,0,0,1-1,1h-2.66a2,2,0,0,1-1.51-.94l-19.8-34.56h-.29V92.11A.9.9,0,0,1,609.12,93.12Z"/><path class="cls-6" d="M115.72,669.83v-3.32a1.17,1.17,0,0,1,.61-1.06l3.69-2.31a3.15,3.15,0,0,1,1.58-.56h3.24a.75.75,0,0,1,.85.85v24.35a1,1,0,0,1-.18.67.91.91,0,0,1-.63.18h-3.49a.75.75,0,0,1-.85-.85V668.05l-4,2.26C116,670.56,115.72,670.4,115.72,669.83Z"/><path class="cls-6" d="M141.21,688.63h-4.05a6.8,6.8,0,0,1-4.95-1.7,6.56,6.56,0,0,1-1.74-4.9V669.18a6.54,6.54,0,0,1,1.74-4.9,6.76,6.76,0,0,1,4.95-1.7h4.05a6.67,6.67,0,0,1,4.9,1.72,6.56,6.56,0,0,1,1.74,4.88V682a6.57,6.57,0,0,1-1.74,4.88A6.67,6.67,0,0,1,141.21,688.63Zm-3.2-4.46h2.39a2.49,2.49,0,0,0,1.82-.54,2.64,2.64,0,0,0,.53-1.85V669.42a2.61,2.61,0,0,0-.53-1.84,2.45,2.45,0,0,0-1.82-.55H138a2.46,2.46,0,0,0-1.83.55,2.61,2.61,0,0,0-.52,1.84v12.36a2.64,2.64,0,0,0,.52,1.85A2.5,2.5,0,0,0,138,684.17Z"/><path class="cls-6" d="M165.48,688.63H162a.75.75,0,0,1-.85-.85v-19A.76.76,0,0,1,162,668h3.45a.76.76,0,0,1,.85.86v1.37h.16a3.19,3.19,0,0,1,1.58-1.66,5.26,5.26,0,0,1,2.39-.57h1.46c.54,0,.81.29.81.86v2.79a.94.94,0,0,1-.18.67.76.76,0,0,1-.63.14h-2.79c-1.87,0-2.8,1.06-2.8,3.16v12.2A.75.75,0,0,1,165.48,688.63Z"/><path class="cls-6" d="M182.58,688.63h-1a6.8,6.8,0,0,1-5-1.7,6.56,6.56,0,0,1-1.74-4.9v-7.46a6.54,6.54,0,0,1,1.74-4.9,6.77,6.77,0,0,1,5-1.71H191a.78.78,0,0,1,.89.86v19c0,.57-.3.85-.89.85h-3.41a.75.75,0,0,1-.85-.85v-1.34h-.16a3.08,3.08,0,0,1-1.58,1.64A5.37,5.37,0,0,1,182.58,688.63Zm4.13-7.54v-8.22q0-.45-.48-.45h-3.81a2.46,2.46,0,0,0-1.83.55,2.61,2.61,0,0,0-.52,1.84v7a2.64,2.64,0,0,0,.52,1.85,2.5,2.5,0,0,0,1.83.54h1.5C185.78,684.17,186.71,683.15,186.71,681.09Z"/><path class="cls-6" d="M200.61,688.63h-3.44a.76.76,0,0,1-.86-.85v-19a.76.76,0,0,1,.86-.86h3.44a.76.76,0,0,1,.85.86v1.33h.16q.9-2.19,4-2.19h1.3q6.36,0,6.36,6.61v13.21c0,.57-.3.85-.89.85H209a.75.75,0,0,1-.85-.85v-13a2,2,0,0,0-2.4-2.39h-1.45c-1.87,0-2.8,1-2.8,3.08v12.28A.75.75,0,0,1,200.61,688.63Z"/><path class="cls-6" d="M225.08,688.63h-1.66a6.19,6.19,0,0,1-4.72-1.7,6.89,6.89,0,0,1-1.6-4.9v-7.46a6.87,6.87,0,0,1,1.6-4.9,6.16,6.16,0,0,1,4.72-1.71h1.66a5.47,5.47,0,0,1,2.39.55,3,3,0,0,1,1.58,1.64h.17V661a.76.76,0,0,1,.85-.86h3.44a.76.76,0,0,1,.85.86v26.78a.75.75,0,0,1-.85.85h-3.44a.75.75,0,0,1-.85-.85v-1.34h-.17a3,3,0,0,1-1.58,1.64A5.34,5.34,0,0,1,225.08,688.63Zm4.14-7.54V675.5c0-2-.94-3.08-2.8-3.08H224.6a2.46,2.46,0,0,0-1.83.55,2.61,2.61,0,0,0-.52,1.84v7a2.64,2.64,0,0,0,.52,1.85,2.5,2.5,0,0,0,1.83.54h1.82C228.28,684.17,229.22,683.15,229.22,681.09Z"/><path class="cls-6" d="M248.71,688.63H245.1a6.78,6.78,0,0,1-4.94-1.7,6.52,6.52,0,0,1-1.75-4.9v-7.46a6.51,6.51,0,0,1,1.75-4.9A6.74,6.74,0,0,1,245.1,668h3.61a6.75,6.75,0,0,1,4.92,1.73,6.51,6.51,0,0,1,1.76,4.88V682a6.54,6.54,0,0,1-1.76,4.88A6.75,6.75,0,0,1,248.71,688.63Zm-2.84-4.42h2.07a2.63,2.63,0,0,0,1.84-.52,2.5,2.5,0,0,0,.55-1.83v-7.13a2.49,2.49,0,0,0-.55-1.82,2.63,2.63,0,0,0-1.84-.53h-2.07a2.52,2.52,0,0,0-1.82.53,2.49,2.49,0,0,0-.53,1.82v7.13a2,2,0,0,0,2.35,2.35Z"/><path class="cls-6" d="M263.74,688.63h-3.45a.75.75,0,0,1-.85-.85v-19a.76.76,0,0,1,.85-.86h3.45a.76.76,0,0,1,.85.86v1.33h.16a3.7,3.7,0,0,1,1.64-1.58,5.7,5.7,0,0,1,2.66-.61h1.13a5.44,5.44,0,0,1,5.07,2.6A4.9,4.9,0,0,1,280,668h1.17a6.16,6.16,0,0,1,4.72,1.71,6.87,6.87,0,0,1,1.6,4.9v13.21a.75.75,0,0,1-.85.85h-3.44a.75.75,0,0,1-.85-.85v-13a2.61,2.61,0,0,0-.53-1.84,2.45,2.45,0,0,0-1.82-.55h-1q-2.79,0-2.79,3.12v12.24c0,.57-.3.85-.89.85h-3.41a.75.75,0,0,1-.85-.85v-13a2,2,0,0,0-2.39-2.39h-1.26c-1.86,0-2.79,1-2.79,3.08v12.28A.75.75,0,0,1,263.74,688.63Z"/><path class="cls-6" d="M300.89,664.48V661a.72.72,0,0,1,.81-.82h3.53c.54,0,.81.26.81.77v3.57a.72.72,0,0,1-.81.81H301.7A.72.72,0,0,1,300.89,664.48Zm0,23.3v-19c0-.57.27-.86.81-.86h3.49a.76.76,0,0,1,.85.86v19a1,1,0,0,1-.18.69.94.94,0,0,1-.63.16h-3.48A.76.76,0,0,1,300.89,687.78Z"/><path class="cls-6" d="M311.15,672.42h-1.63a1,1,0,0,1-.66-.16.83.83,0,0,1-.19-.65v-2.79a.76.76,0,0,1,.85-.86h1.63a.39.39,0,0,0,.44-.44v-3.85c0-.57.3-.85.89-.85h3.41a.75.75,0,0,1,.85.85v3.85c0,.3.16.44.48.44h3.16a.76.76,0,0,1,.85.86v2.79a.88.88,0,0,1-.18.63.94.94,0,0,1-.67.18h-3.16q-.48,0-.48.45v9a2.48,2.48,0,0,0,.56,1.81,2.66,2.66,0,0,0,1.87.54h1.62a.75.75,0,0,1,.85.85v2.8a.88.88,0,0,1-.18.63,1,1,0,0,1-.67.18h-2.47a6.89,6.89,0,0,1-5-1.7,6.48,6.48,0,0,1-1.76-4.86v-9.2A.39.39,0,0,0,311.15,672.42Z"/><path class="cls-6" d="M340.24,688.63h-9a6.79,6.79,0,0,1-4.94-1.7,6.56,6.56,0,0,1-1.74-4.9v-7.46a6.54,6.54,0,0,1,1.74-4.9,6.76,6.76,0,0,1,4.94-1.71h3.2a6.77,6.77,0,0,1,4.95,1.71,6.54,6.54,0,0,1,1.74,4.9v5.15a.75.75,0,0,1-.85.85H330.15c-.32,0-.49.14-.49.44v.89a2.48,2.48,0,0,0,.55,1.81,2.56,2.56,0,0,0,1.84.54h8.19c.57,0,.85.3.85.9v2.67a.88.88,0,0,1-.18.63A1,1,0,0,1,340.24,688.63Zm-10.09-11.51h5.51a.39.39,0,0,0,.45-.44v-1.95a2,2,0,0,0-2.36-2.35h-1.7a2,2,0,0,0-2.35,2.35v1.95A.39.39,0,0,0,330.15,677.12Z"/><path class="cls-6" d="M349.31,688.63h-3.44a.75.75,0,0,1-.85-.85v-19a.76.76,0,0,1,.85-.86h3.44a.76.76,0,0,1,.86.86v1.33h.16a3.65,3.65,0,0,1,1.64-1.58,5.66,5.66,0,0,1,2.65-.61h1.14a5.42,5.42,0,0,1,5.06,2.6,4.92,4.92,0,0,1,4.74-2.6h1.18a6.16,6.16,0,0,1,4.72,1.71,6.87,6.87,0,0,1,1.6,4.9v13.21a.75.75,0,0,1-.85.85h-3.45a.75.75,0,0,1-.85-.85v-13a2.61,2.61,0,0,0-.52-1.84,2.46,2.46,0,0,0-1.83-.55h-1c-1.86,0-2.8,1-2.8,3.12v12.24c0,.57-.29.85-.89.85h-3.4a.75.75,0,0,1-.85-.85v-13a2,2,0,0,0-2.39-2.39H353c-1.86,0-2.79,1-2.79,3.08v12.28A.76.76,0,0,1,349.31,688.63Z"/><path class="cls-6" d="M385.17,688.63h-7.69c-.54,0-.81-.28-.81-.85v-2.59a.94.94,0,0,1,.16-.63.87.87,0,0,1,.65-.18h6.76c1.33,0,2-.41,2-1.22V683c0-.65-.56-1.27-1.66-1.87l-4-2.23a9.13,9.13,0,0,1-3-2.26,4.83,4.83,0,0,1-1-3.12,5.32,5.32,0,0,1,1.5-4.18,6.94,6.94,0,0,1,4.7-1.34h6.77c.54,0,.81.29.81.86v2.63a.94.94,0,0,1-.16.63.89.89,0,0,1-.65.18h-5.63c-1.33,0-2,.34-2,1v.21c0,.59.58,1.2,1.74,1.82l4.1,2.43a8.65,8.65,0,0,1,3,2.33,5.35,5.35,0,0,1,.85,3.14Q391.54,688.63,385.17,688.63Z"/><path class="cls-6" d="M407.38,695.48h-2.59c-.54,0-.81-.3-.81-.89v-2.72c0-.59.27-.89.81-.89h.85a6,6,0,0,0,3.46-.71,4.83,4.83,0,0,0,1.4-2.73h-2.15a1,1,0,0,1-1-.86l-4.74-17.86c-.16-.57,0-.86.61-.86h3.6a1,1,0,0,1,1,.86l3.49,14.95h.16l3.45-14.95a.93.93,0,0,1,1-.86h3.4q1,0,.81.9l-4.94,19.77a10.54,10.54,0,0,1-2.76,5.11A7.12,7.12,0,0,1,407.38,695.48Z"/><path class="cls-6" d="M433,688.63h-3.61a6.79,6.79,0,0,1-4.94-1.7,6.56,6.56,0,0,1-1.74-4.9v-7.46a6.54,6.54,0,0,1,1.74-4.9,6.76,6.76,0,0,1,4.94-1.71H433a6.74,6.74,0,0,1,4.92,1.73,6.47,6.47,0,0,1,1.76,4.88V682a6.5,6.5,0,0,1-1.76,4.88A6.73,6.73,0,0,1,433,688.63Zm-2.84-4.42h2.07a2.61,2.61,0,0,0,1.84-.52,2.46,2.46,0,0,0,.55-1.83v-7.13a2.45,2.45,0,0,0-.55-1.82,2.61,2.61,0,0,0-1.84-.53h-2.07a2,2,0,0,0-2.35,2.35v7.13a2,2,0,0,0,2.35,2.35Z"/><path class="cls-6" d="M451.18,688.63h-1.34a6.19,6.19,0,0,1-4.72-1.7,6.93,6.93,0,0,1-1.6-4.9V668.82a.76.76,0,0,1,.85-.86h3.45a.76.76,0,0,1,.85.86v13a2.59,2.59,0,0,0,.54,1.85,2.53,2.53,0,0,0,1.81.54h1.5c1.86,0,2.79-1,2.79-3.08V668.82a.76.76,0,0,1,.85-.86h3.41a.78.78,0,0,1,.89.86v19c0,.57-.3.85-.89.85h-3.41a.75.75,0,0,1-.85-.85v-1.34h-.16a3,3,0,0,1-1.58,1.64A5.37,5.37,0,0,1,451.18,688.63Z"/><path class="cls-6" d="M478.33,688.63h-3.45a.75.75,0,0,1-.85-.85V661a.76.76,0,0,1,.85-.86h3.45a.76.76,0,0,1,.85.86v26.78A.75.75,0,0,1,478.33,688.63Z"/><path class="cls-6" d="M499.07,688.63h-8.95a6.82,6.82,0,0,1-4.95-1.7,6.56,6.56,0,0,1-1.74-4.9v-7.46a6.54,6.54,0,0,1,1.74-4.9,6.78,6.78,0,0,1,4.95-1.71h3.2a6.76,6.76,0,0,1,4.94,1.71,6.55,6.55,0,0,1,1.75,4.9v5.15a.76.76,0,0,1-.86.85H489c-.32,0-.48.14-.48.44v.89a2.53,2.53,0,0,0,.54,1.81,2.59,2.59,0,0,0,1.85.54h8.18c.57,0,.85.3.85.9v2.67a.88.88,0,0,1-.18.63A.94.94,0,0,1,499.07,688.63ZM489,677.12h5.52a.39.39,0,0,0,.44-.44v-1.95a2,2,0,0,0-2.35-2.35h-1.7a2.52,2.52,0,0,0-1.82.53,2.49,2.49,0,0,0-.53,1.82v1.95A.39.39,0,0,0,489,677.12Z"/><path class="cls-6" d="M511.11,688.63h-1a6.79,6.79,0,0,1-4.94-1.7,6.56,6.56,0,0,1-1.74-4.9v-7.46a6.54,6.54,0,0,1,1.74-4.9,6.76,6.76,0,0,1,4.94-1.71h9.37a.78.78,0,0,1,.89.86v19c0,.57-.3.85-.89.85h-3.41a.75.75,0,0,1-.85-.85v-1.34h-.16a3.08,3.08,0,0,1-1.58,1.64A5.4,5.4,0,0,1,511.11,688.63Zm4.13-7.54v-8.22c0-.3-.16-.45-.49-.45H511a2.46,2.46,0,0,0-1.83.55,2.61,2.61,0,0,0-.52,1.84v7a2.64,2.64,0,0,0,.52,1.85,2.5,2.5,0,0,0,1.83.54h1.5C514.31,684.17,515.24,683.15,515.24,681.09Z"/><path class="cls-6" d="M529.14,688.63h-3.45a.75.75,0,0,1-.85-.85v-19a.76.76,0,0,1,.85-.86h3.45a.76.76,0,0,1,.85.86v1.37h.16a3.19,3.19,0,0,1,1.58-1.66,5.29,5.29,0,0,1,2.39-.57h1.46c.54,0,.81.29.81.86v2.79a.94.94,0,0,1-.18.67.76.76,0,0,1-.63.14h-2.79c-1.87,0-2.8,1.06-2.8,3.16v12.2A.75.75,0,0,1,529.14,688.63Z"/><path class="cls-6" d="M543.28,688.63h-3.44a.75.75,0,0,1-.85-.85v-19a.76.76,0,0,1,.85-.86h3.44a.76.76,0,0,1,.85.86v1.33h.16q.9-2.19,4-2.19h1.3q6.36,0,6.36,6.61v13.21c0,.57-.3.85-.89.85h-3.4a.75.75,0,0,1-.85-.85v-13a2.56,2.56,0,0,0-.55-1.84,2.51,2.51,0,0,0-1.84-.55h-1.46c-1.87,0-2.8,1-2.8,3.08v12.28A.75.75,0,0,1,543.28,688.63Z"/><path class="cls-6" d="M575.41,688.63h-8.95a6.8,6.8,0,0,1-5-1.7,6.56,6.56,0,0,1-1.74-4.9v-7.46a6.54,6.54,0,0,1,1.74-4.9,6.77,6.77,0,0,1,5-1.71h3.2a6.76,6.76,0,0,1,4.94,1.71,6.54,6.54,0,0,1,1.74,4.9v5.15a.75.75,0,0,1-.85.85H565.32c-.32,0-.48.14-.48.44v.89a2.53,2.53,0,0,0,.54,1.81,2.59,2.59,0,0,0,1.85.54h8.18c.57,0,.85.3.85.9v2.67a.88.88,0,0,1-.18.63A.94.94,0,0,1,575.41,688.63Zm-10.09-11.51h5.51a.39.39,0,0,0,.45-.44v-1.95a2,2,0,0,0-2.35-2.35h-1.7a2,2,0,0,0-2.35,2.35v1.95A.39.39,0,0,0,565.32,677.12Z"/><path class="cls-6" d="M587.77,688.63h-1.66a6.19,6.19,0,0,1-4.72-1.7,6.89,6.89,0,0,1-1.6-4.9v-7.46a6.87,6.87,0,0,1,1.6-4.9,6.16,6.16,0,0,1,4.72-1.71h1.66a5.47,5.47,0,0,1,2.39.55,3.08,3.08,0,0,1,1.58,1.64h.16V661a.76.76,0,0,1,.85-.86h3.45a.76.76,0,0,1,.85.86v26.78a.75.75,0,0,1-.85.85h-3.45a.75.75,0,0,1-.85-.85v-1.34h-.16a3,3,0,0,1-1.58,1.64A5.34,5.34,0,0,1,587.77,688.63Zm4.13-7.54V675.5c0-2-.93-3.08-2.79-3.08h-1.83a2.45,2.45,0,0,0-1.82.55,2.61,2.61,0,0,0-.53,1.84v7a2.64,2.64,0,0,0,.53,1.85,2.49,2.49,0,0,0,1.82.54h1.83C591,684.17,591.9,683.15,591.9,681.09Z"/><path class="cls-6" d="M610.62,664.48V661a.72.72,0,0,1,.81-.82H615c.54,0,.81.26.81.77v3.57a.72.72,0,0,1-.81.81h-3.53A.72.72,0,0,1,610.62,664.48Zm0,23.3v-19c0-.57.27-.86.81-.86h3.49a.76.76,0,0,1,.85.86v19a1,1,0,0,1-.18.69,1,1,0,0,1-.63.16h-3.49A.75.75,0,0,1,610.62,687.78Z"/><path class="cls-6" d="M624.72,688.63h-3.44a.75.75,0,0,1-.85-.85v-19a.76.76,0,0,1,.85-.86h3.44a.76.76,0,0,1,.85.86v1.33h.17q.88-2.19,4-2.19H631q6.36,0,6.37,6.61v13.21c0,.57-.3.85-.9.85h-3.4a.75.75,0,0,1-.85-.85v-13a2,2,0,0,0-2.39-2.39h-1.46c-1.86,0-2.8,1-2.8,3.08v12.28A.75.75,0,0,1,624.72,688.63Z"/><path class="cls-6" d="M654.83,694.14h-3.45c-.56,0-.85-.27-.85-.81V668.82a.76.76,0,0,1,.85-.86h3.45a.76.76,0,0,1,.85.86v1.33h.16a3.12,3.12,0,0,1,1.58-1.64,5.51,5.51,0,0,1,2.39-.55h1.66a6.15,6.15,0,0,1,4.72,1.71,6.87,6.87,0,0,1,1.6,4.9V682a6.89,6.89,0,0,1-1.6,4.9,6.18,6.18,0,0,1-4.72,1.7h-1.66a5.37,5.37,0,0,1-2.39-.55,3.08,3.08,0,0,1-1.58-1.64h-.16v6.89C655.68,693.87,655.4,694.14,654.83,694.14Zm3.65-10h1.78a2,2,0,0,0,2.39-2.39v-7a2,2,0,0,0-2.39-2.39h-1.78c-1.87,0-2.8,1-2.8,3.08v5.59C655.68,683.15,656.61,684.17,658.48,684.17Z"/><path class="cls-6" d="M676.14,688.63H672.7a.75.75,0,0,1-.85-.85v-19a.76.76,0,0,1,.85-.86h3.44a.76.76,0,0,1,.85.86v1.37h.16a3.19,3.19,0,0,1,1.58-1.66,5.29,5.29,0,0,1,2.39-.57h1.46c.54,0,.81.29.81.86v2.79a.94.94,0,0,1-.18.67.76.76,0,0,1-.63.14h-2.79c-1.87,0-2.8,1.06-2.8,3.16v12.2A.75.75,0,0,1,676.14,688.63Z"/><path class="cls-6" d="M701.22,688.63h-9a6.82,6.82,0,0,1-4.95-1.7,6.56,6.56,0,0,1-1.74-4.9v-7.46a6.54,6.54,0,0,1,1.74-4.9,6.78,6.78,0,0,1,4.95-1.71h3.2a6.76,6.76,0,0,1,4.94,1.71,6.55,6.55,0,0,1,1.75,4.9v5.15a.76.76,0,0,1-.86.85H691.13c-.32,0-.48.14-.48.44v.89a2.53,2.53,0,0,0,.54,1.81,2.59,2.59,0,0,0,1.85.54h8.18c.57,0,.85.3.85.9v2.67a.88.88,0,0,1-.18.63A.94.94,0,0,1,701.22,688.63Zm-10.09-11.51h5.51a.39.39,0,0,0,.45-.44v-1.95a2,2,0,0,0-2.35-2.35H693a2.56,2.56,0,0,0-1.83.53,2.54,2.54,0,0,0-.52,1.82v1.95A.39.39,0,0,0,691.13,677.12Z"/><path class="cls-6" d="M705.11,668h3.57a.92.92,0,0,1,1,.86l3.49,15.23h.28l3.4-15.23a1,1,0,0,1,1-.86h3.56c.57,0,.77.29.61.86l-5.11,18.92a1,1,0,0,1-1.09.89h-5.15a1.06,1.06,0,0,1-1.09-.89l-5.07-18.92C704.34,668.25,704.54,668,705.11,668Z"/><path class="cls-6" d="M725.17,664.48V661a.72.72,0,0,1,.81-.82h3.52c.54,0,.82.26.82.77v3.57a.72.72,0,0,1-.82.81H726A.72.72,0,0,1,725.17,664.48Zm0,23.3v-19c0-.57.27-.86.81-.86h3.48a.76.76,0,0,1,.86.86v19a1,1,0,0,1-.19.69.94.94,0,0,1-.63.16H726A.75.75,0,0,1,725.17,687.78Z"/><path class="cls-6" d="M744.86,688.63h-3.61a6.79,6.79,0,0,1-4.94-1.7,6.56,6.56,0,0,1-1.74-4.9v-7.46a6.54,6.54,0,0,1,1.74-4.9,6.76,6.76,0,0,1,4.94-1.71h3.61a6.76,6.76,0,0,1,4.93,1.73,6.51,6.51,0,0,1,1.76,4.88V682a6.54,6.54,0,0,1-1.76,4.88A6.76,6.76,0,0,1,744.86,688.63ZM742,684.21h2.06a2.64,2.64,0,0,0,1.85-.52,2.5,2.5,0,0,0,.54-1.83v-7.13a2.49,2.49,0,0,0-.54-1.82,2.64,2.64,0,0,0-1.85-.53H742a2,2,0,0,0-2.36,2.35v7.13a2,2,0,0,0,2.36,2.35Z"/><path class="cls-6" d="M763.05,688.63h-1.33a6.18,6.18,0,0,1-4.72-1.7,6.89,6.89,0,0,1-1.6-4.9V668.82a.76.76,0,0,1,.85-.86h3.44a.76.76,0,0,1,.85.86v13a2.54,2.54,0,0,0,.55,1.85,2.48,2.48,0,0,0,1.8.54h1.5c1.87,0,2.8-1,2.8-3.08V668.82A.76.76,0,0,1,768,668h3.4c.6,0,.89.29.89.86v19c0,.57-.29.85-.89.85H768a.75.75,0,0,1-.85-.85v-1.34H767a3.08,3.08,0,0,1-1.58,1.64A5.41,5.41,0,0,1,763.05,688.63Z"/><path class="cls-6" d="M784.61,688.63h-7.7c-.54,0-.81-.28-.81-.85v-2.59a1,1,0,0,1,.16-.63.89.89,0,0,1,.65-.18h6.77c1.32,0,2-.41,2-1.22V683c0-.65-.55-1.27-1.66-1.87l-4-2.23a9.13,9.13,0,0,1-3-2.26,4.83,4.83,0,0,1-1-3.12,5.32,5.32,0,0,1,1.5-4.18,6.92,6.92,0,0,1,4.7-1.34H789c.54,0,.81.29.81.86v2.63a.93.93,0,0,1-.17.63.84.84,0,0,1-.64.18h-5.64c-1.32,0-2,.34-2,1v.21c0,.59.58,1.2,1.74,1.82l4.09,2.43a8.55,8.55,0,0,1,3,2.33,5.28,5.28,0,0,1,.85,3.14Q791,688.63,784.61,688.63Z"/><path class="cls-6" d="M173.46,737.25H170a.75.75,0,0,1-.85-.85V709.62a.75.75,0,0,1,.85-.85h3.44a.75.75,0,0,1,.85.85V736.4A.75.75,0,0,1,173.46,737.25Z"/><path class="cls-6" d="M194.21,737.25h-9a6.75,6.75,0,0,1-4.94-1.7,6.54,6.54,0,0,1-1.74-4.9v-7.46a6.54,6.54,0,0,1,1.74-4.9,6.79,6.79,0,0,1,4.94-1.7h3.2a6.82,6.82,0,0,1,5,1.7,6.54,6.54,0,0,1,1.74,4.9v5.15a.75.75,0,0,1-.85.85H184.12c-.33,0-.49.15-.49.45v.89a2.44,2.44,0,0,0,.55,1.8,2.51,2.51,0,0,0,1.84.55h8.19c.56,0,.85.3.85.89v2.67a.88.88,0,0,1-.18.63A1,1,0,0,1,194.21,737.25Zm-10.09-11.5h5.51a.39.39,0,0,0,.44-.45v-1.94a2,2,0,0,0-2.35-2.36H186a2,2,0,0,0-2.35,2.36v1.94A.4.4,0,0,0,184.12,725.75Z"/><path class="cls-6" d="M206.81,737.25h-7.7c-.54,0-.81-.28-.81-.85v-2.59a.94.94,0,0,1,.16-.63.89.89,0,0,1,.65-.18h6.77c1.32,0,2-.41,2-1.22v-.2c0-.65-.55-1.27-1.66-1.86l-4-2.23a9.15,9.15,0,0,1-3-2.27,4.83,4.83,0,0,1-1-3.12,5.31,5.31,0,0,1,1.5-4.17,6.87,6.87,0,0,1,4.7-1.34h6.76c.54,0,.81.28.81.85v2.63a.94.94,0,0,1-.16.63.87.87,0,0,1-.65.18h-5.63q-2,0-2,1v.2c0,.59.58,1.2,1.74,1.82l4.09,2.43a8.77,8.77,0,0,1,3,2.33,5.3,5.3,0,0,1,.85,3.14Q213.17,737.25,206.81,737.25Z"/><path class="cls-6" d="M224.55,737.25h-7.69c-.54,0-.81-.28-.81-.85v-2.59a.94.94,0,0,1,.16-.63.87.87,0,0,1,.65-.18h6.76c1.33,0,2-.41,2-1.22v-.2c0-.65-.56-1.27-1.66-1.86l-4-2.23a9,9,0,0,1-3-2.27,4.83,4.83,0,0,1-1-3.12,5.31,5.31,0,0,1,1.5-4.17,6.89,6.89,0,0,1,4.7-1.34h6.77c.54,0,.81.28.81.85v2.63a.94.94,0,0,1-.16.63.89.89,0,0,1-.65.18h-5.63c-1.33,0-2,.34-2,1v.2c0,.59.58,1.2,1.74,1.82l4.1,2.43a8.77,8.77,0,0,1,3,2.33,5.37,5.37,0,0,1,.85,3.14Q230.92,737.25,224.55,737.25Z"/><path class="cls-6" d="M244.37,737.25h-3.61a6.75,6.75,0,0,1-4.94-1.7,6.54,6.54,0,0,1-1.74-4.9v-7.46a6.54,6.54,0,0,1,1.74-4.9,6.79,6.79,0,0,1,4.94-1.7h3.61a6.72,6.72,0,0,1,4.92,1.72,6.5,6.5,0,0,1,1.76,4.88v7.46a6.49,6.49,0,0,1-1.76,4.88A6.72,6.72,0,0,1,244.37,737.25Zm-2.84-4.41h2.07a2.61,2.61,0,0,0,1.84-.53,2.45,2.45,0,0,0,.55-1.82v-7.13a2.46,2.46,0,0,0-.55-1.83,2.61,2.61,0,0,0-1.84-.53h-2.07a2,2,0,0,0-2.35,2.36v7.13a2,2,0,0,0,2.35,2.35Z"/><path class="cls-6" d="M259.4,737.25H256a.75.75,0,0,1-.85-.85v-19a.75.75,0,0,1,.85-.85h3.44a.75.75,0,0,1,.85.85v1.34h.16q.9-2.19,4-2.19h1.3q6.36,0,6.36,6.6V736.4c0,.57-.29.85-.89.85h-3.4a.75.75,0,0,1-.85-.85v-13a2.59,2.59,0,0,0-.55-1.85,2.56,2.56,0,0,0-1.84-.54h-1.46c-1.87,0-2.8,1-2.8,3.07V736.4A.75.75,0,0,1,259.4,737.25Z"/><path class="cls-6" d="M284.12,737.25h-7.7c-.54,0-.81-.28-.81-.85v-2.59a.94.94,0,0,1,.16-.63.87.87,0,0,1,.65-.18h6.77c1.32,0,2-.41,2-1.22v-.2c0-.65-.55-1.27-1.66-1.86l-4-2.23a9.15,9.15,0,0,1-3-2.27,4.83,4.83,0,0,1-1-3.12,5.31,5.31,0,0,1,1.5-4.17,6.87,6.87,0,0,1,4.7-1.34h6.76c.54,0,.81.28.81.85v2.63a.94.94,0,0,1-.16.63.87.87,0,0,1-.65.18h-5.63c-1.32,0-2,.34-2,1v.2c0,.59.59,1.2,1.75,1.82l4.09,2.43a8.77,8.77,0,0,1,3,2.33,5.3,5.3,0,0,1,.85,3.14Q290.48,737.25,284.12,737.25Z"/><path class="cls-6" d="M311.22,737.25H306.6a1,1,0,0,1-1-.85l-4.05-19c-.11-.57.09-.85.61-.85h3.89a.85.85,0,0,1,1,.85l1.82,13.86h.33l2.88-13.86a.86.86,0,0,1,.93-.85h3.56a.94.94,0,0,1,1,.85l2.79,13.86h.33l1.86-13.86a.88.88,0,0,1,1-.85h3.89c.54,0,.74.28.61.85l-4.05,19a.91.91,0,0,1-1,.85H318.4a.92.92,0,0,1-1-.85L315,722.71h-.32L312.2,736.4A.89.89,0,0,1,311.22,737.25Z"/><path class="cls-6" d="M331.36,713.1v-3.52a.72.72,0,0,1,.81-.81h3.53c.54,0,.81.26.81.77v3.56a.72.72,0,0,1-.81.81h-3.53A.72.72,0,0,1,331.36,713.1Zm0,23.3v-19c0-.57.27-.85.81-.85h3.49a.75.75,0,0,1,.85.85v19a1,1,0,0,1-.18.69.94.94,0,0,1-.63.16h-3.49A.75.75,0,0,1,331.36,736.4Z"/><path class="cls-6" d="M345.67,737.25h-3.45a.75.75,0,0,1-.85-.85V709.62a.75.75,0,0,1,.85-.85h3.45a.75.75,0,0,1,.85.85V736.4A.75.75,0,0,1,345.67,737.25Z"/><path class="cls-6" d="M355.67,737.25h-3.44a.75.75,0,0,1-.85-.85V709.62a.75.75,0,0,1,.85-.85h3.44a.75.75,0,0,1,.85.85V736.4A.75.75,0,0,1,355.67,737.25Z"/><path class="cls-6" d="M377.35,737.25h-1a6.78,6.78,0,0,1-4.95-1.7,6.54,6.54,0,0,1-1.74-4.9v-7.46a6.54,6.54,0,0,1,1.74-4.9,6.82,6.82,0,0,1,4.95-1.7h9.36c.59,0,.89.28.89.85v19c0,.57-.3.85-.89.85h-3.41a.75.75,0,0,1-.85-.85v-1.33h-.16a3.12,3.12,0,0,1-1.58,1.64A5.46,5.46,0,0,1,377.35,737.25Zm4.13-7.53v-8.23c0-.3-.16-.44-.48-.44h-3.81a2.47,2.47,0,0,0-1.82.54,2.59,2.59,0,0,0-.53,1.85v7a2.58,2.58,0,0,0,.53,1.84,2.47,2.47,0,0,0,1.82.55h1.5C380.55,732.8,381.48,731.77,381.48,729.72Z"/><path class="cls-6" d="M395.38,742.76h-3.44c-.57,0-.85-.27-.85-.81V717.44a.75.75,0,0,1,.85-.85h3.44a.75.75,0,0,1,.85.85v1.34h.17a3,3,0,0,1,1.58-1.64,5.34,5.34,0,0,1,2.39-.55H402a6.19,6.19,0,0,1,4.72,1.7,6.92,6.92,0,0,1,1.6,4.9v7.46a6.92,6.92,0,0,1-1.6,4.9,6.16,6.16,0,0,1-4.72,1.7h-1.66a5.46,5.46,0,0,1-2.39-.54,3.08,3.08,0,0,1-1.58-1.64h-.17V742C396.23,742.49,396,742.76,395.38,742.76Zm3.65-10h1.78a2,2,0,0,0,2.39-2.39v-7a2,2,0,0,0-2.39-2.39H399c-1.86,0-2.8,1-2.8,3.07v5.6C396.23,731.77,397.17,732.8,399,732.8Z"/><path class="cls-6" d="M416.69,742.76h-3.44c-.57,0-.85-.27-.85-.81V717.44a.75.75,0,0,1,.85-.85h3.44a.76.76,0,0,1,.86.85v1.34h.16a3,3,0,0,1,1.58-1.64,5.34,5.34,0,0,1,2.39-.55h1.66a6.19,6.19,0,0,1,4.72,1.7,6.87,6.87,0,0,1,1.6,4.9v7.46a6.87,6.87,0,0,1-1.6,4.9,6.16,6.16,0,0,1-4.72,1.7h-1.66a5.46,5.46,0,0,1-2.39-.54,3.08,3.08,0,0,1-1.58-1.64h-.16V742C417.55,742.49,417.26,742.76,416.69,742.76Zm3.65-10h1.78a2,2,0,0,0,2.39-2.39v-7a2,2,0,0,0-2.39-2.39h-1.78c-1.86,0-2.79,1-2.79,3.07v5.6C417.55,731.77,418.48,732.8,420.34,732.8Z"/><path class="cls-6" d="M449,737.25h-9a6.75,6.75,0,0,1-4.94-1.7,6.54,6.54,0,0,1-1.74-4.9v-7.46a6.54,6.54,0,0,1,1.74-4.9,6.79,6.79,0,0,1,4.94-1.7h3.2a6.8,6.8,0,0,1,4.95,1.7,6.54,6.54,0,0,1,1.74,4.9v5.15a.75.75,0,0,1-.85.85H438.86c-.33,0-.49.15-.49.45v.89a2.44,2.44,0,0,0,.55,1.8,2.51,2.51,0,0,0,1.84.55H449c.56,0,.85.3.85.89v2.67a.88.88,0,0,1-.18.63A1,1,0,0,1,449,737.25Zm-10.09-11.5h5.51c.3,0,.44-.15.44-.45v-1.94a2,2,0,0,0-2.35-2.36h-1.7a2,2,0,0,0-2.35,2.36v1.94A.4.4,0,0,0,438.86,725.75Z"/><path class="cls-6" d="M461,737.25h-1a6.75,6.75,0,0,1-4.94-1.7,6.51,6.51,0,0,1-1.75-4.9v-7.46a6.51,6.51,0,0,1,1.75-4.9,6.79,6.79,0,0,1,4.94-1.7h9.36c.59,0,.89.28.89.85v19c0,.57-.3.85-.89.85H466a.75.75,0,0,1-.85-.85v-1.33H465a3.08,3.08,0,0,1-1.58,1.64A5.46,5.46,0,0,1,461,737.25Zm4.14-7.53v-8.23c0-.3-.17-.44-.49-.44h-3.81a2.49,2.49,0,0,0-1.82.54,2.59,2.59,0,0,0-.53,1.85v7a2.58,2.58,0,0,0,.53,1.84,2.49,2.49,0,0,0,1.82.55h1.5C464.18,732.8,465.12,731.77,465.12,729.72Z"/><path class="cls-6" d="M479,737.25h-3.44a.75.75,0,0,1-.85-.85v-19a.75.75,0,0,1,.85-.85H479a.75.75,0,0,1,.85.85v1.38H480a3.08,3.08,0,0,1,1.58-1.66,5.23,5.23,0,0,1,2.39-.57h1.46c.54,0,.81.28.81.85v2.8a.88.88,0,0,1-.19.66.75.75,0,0,1-.62.15h-2.8c-1.86,0-2.8,1.05-2.8,3.16V736.4A.75.75,0,0,1,479,737.25Z"/><path class="cls-6" d="M498,713.1v-3.52a.72.72,0,0,1,.81-.81h3.52c.54,0,.81.26.81.77v3.56a.72.72,0,0,1-.81.81h-3.52A.72.72,0,0,1,498,713.1Zm0,23.3v-19c0-.57.27-.85.81-.85h3.48a.75.75,0,0,1,.85.85v19a1,1,0,0,1-.18.69.94.94,0,0,1-.63.16h-3.48A.75.75,0,0,1,498,736.4Z"/><path class="cls-6" d="M512.08,737.25h-3.45a.75.75,0,0,1-.85-.85v-19a.75.75,0,0,1,.85-.85h3.45a.75.75,0,0,1,.85.85v1.34h.16c.59-1.46,1.92-2.19,4-2.19h1.3q6.36,0,6.36,6.6V736.4c0,.57-.3.85-.89.85h-3.41a.75.75,0,0,1-.85-.85v-13a2,2,0,0,0-2.39-2.39h-1.46c-1.86,0-2.79,1-2.79,3.07V736.4A.75.75,0,0,1,512.08,737.25Z"/><path class="cls-6" d="M536.79,737.25h-7.7c-.54,0-.81-.28-.81-.85v-2.59a.93.93,0,0,1,.17-.63.84.84,0,0,1,.64-.18h6.77c1.32,0,2-.41,2-1.22v-.2c0-.65-.56-1.27-1.66-1.86l-4-2.23a9.25,9.25,0,0,1-3-2.27,4.88,4.88,0,0,1-1-3.12,5.31,5.31,0,0,1,1.5-4.17,6.89,6.89,0,0,1,4.7-1.34h6.77c.54,0,.81.28.81.85v2.63a1,1,0,0,1-.16.63.89.89,0,0,1-.65.18H535.5c-1.33,0-2,.34-2,1v.2c0,.59.58,1.2,1.74,1.82l4.1,2.43a8.62,8.62,0,0,1,2.95,2.33,5.3,5.3,0,0,1,.85,3.14Q543.15,737.25,536.79,737.25Z"/><path class="cls-6" d="M546.92,713.1v-3.52a.72.72,0,0,1,.81-.81h3.53c.54,0,.81.26.81.77v3.56a.72.72,0,0,1-.81.81h-3.53A.72.72,0,0,1,546.92,713.1Zm0,23.3v-19c0-.57.27-.85.81-.85h3.49a.75.75,0,0,1,.85.85v19a1,1,0,0,1-.18.69,1,1,0,0,1-.63.16h-3.49A.75.75,0,0,1,546.92,736.4Z"/><path class="cls-6" d="M564.3,737.25h-1.66a6.16,6.16,0,0,1-4.72-1.7,6.92,6.92,0,0,1-1.6-4.9v-7.46a6.92,6.92,0,0,1,1.6-4.9,6.19,6.19,0,0,1,4.72-1.7h1.66a5.41,5.41,0,0,1,2.4.55,3.08,3.08,0,0,1,1.58,1.64h.16v-9.16a.75.75,0,0,1,.85-.85h3.44a.75.75,0,0,1,.85.85V736.4a.75.75,0,0,1-.85.85h-3.44a.75.75,0,0,1-.85-.85v-1.33h-.16a3.15,3.15,0,0,1-1.58,1.64A5.54,5.54,0,0,1,564.3,737.25Zm4.14-7.53v-5.6c0-2-.93-3.07-2.8-3.07h-1.82a2.47,2.47,0,0,0-1.82.54,2.59,2.59,0,0,0-.53,1.85v7a2.58,2.58,0,0,0,.53,1.84,2.47,2.47,0,0,0,1.82.55h1.82C567.51,732.8,568.44,731.77,568.44,729.72Z"/><path class="cls-6" d="M593.28,737.25h-9a6.75,6.75,0,0,1-4.94-1.7,6.55,6.55,0,0,1-1.75-4.9v-7.46a6.55,6.55,0,0,1,1.75-4.9,6.79,6.79,0,0,1,4.94-1.7h3.2a6.78,6.78,0,0,1,4.94,1.7,6.51,6.51,0,0,1,1.75,4.9v5.15a.75.75,0,0,1-.85.85H583.19c-.33,0-.49.15-.49.45v.89a2.44,2.44,0,0,0,.55,1.8,2.51,2.51,0,0,0,1.84.55h8.19c.56,0,.85.3.85.89v2.67a.83.83,0,0,1-.19.63A.93.93,0,0,1,593.28,737.25Zm-10.09-11.5h5.51a.39.39,0,0,0,.44-.45v-1.94a2,2,0,0,0-2.35-2.36h-1.7a2,2,0,0,0-2.35,2.36v1.94A.4.4,0,0,0,583.19,725.75Z"/><path class="cls-6" d="M607.42,721.05H605.8a1,1,0,0,1-.67-.17.84.84,0,0,1-.19-.64v-2.8a.76.76,0,0,1,.86-.85h1.62a.39.39,0,0,0,.44-.45v-3.85c0-.56.3-.85.89-.85h3.41a.76.76,0,0,1,.85.85v3.85q0,.45.48.45h3.17a.75.75,0,0,1,.85.85v2.8a.82.82,0,0,1-.19.62.88.88,0,0,1-.66.19h-3.17c-.32,0-.48.14-.48.44v9a2.43,2.43,0,0,0,.57,1.8,2.62,2.62,0,0,0,1.86.55h1.62a.75.75,0,0,1,.85.85v2.79a.88.88,0,0,1-.18.63,1,1,0,0,1-.67.18h-2.47a6.84,6.84,0,0,1-5-1.7,6.45,6.45,0,0,1-1.76-4.86v-9.2A.39.39,0,0,0,607.42,721.05Z"/><path class="cls-6" d="M625.57,737.25h-3.45a.75.75,0,0,1-.85-.85V709.62a.75.75,0,0,1,.85-.85h3.45a.75.75,0,0,1,.85.85v9.16h.16q.9-2.19,4-2.19h1.3q6.36,0,6.36,6.6V736.4c0,.57-.3.85-.89.85h-3.4a.75.75,0,0,1-.85-.85v-13a2,2,0,0,0-2.4-2.39h-1.45c-1.87,0-2.8,1-2.8,3.07V736.4A.75.75,0,0,1,625.57,737.25Z"/><path class="cls-6" d="M657.7,737.25h-9a6.76,6.76,0,0,1-5-1.7,6.54,6.54,0,0,1-1.74-4.9v-7.46a6.54,6.54,0,0,1,1.74-4.9,6.8,6.8,0,0,1,5-1.7H652a6.79,6.79,0,0,1,4.94,1.7,6.54,6.54,0,0,1,1.74,4.9v5.15a.75.75,0,0,1-.85.85H647.61q-.48,0-.48.45v.89a2.48,2.48,0,0,0,.54,1.8,2.54,2.54,0,0,0,1.85.55h8.18c.57,0,.85.3.85.89v2.67a.88.88,0,0,1-.18.63A.94.94,0,0,1,657.7,737.25Zm-10.09-11.5h5.51a.4.4,0,0,0,.45-.45v-1.94a2,2,0,0,0-2.35-2.36h-1.7a2,2,0,0,0-2.35,2.36v1.94C647.17,725.6,647.31,725.75,647.61,725.75Z"/><path class="cls-6" d="M675.69,737.25h-3.44a.75.75,0,0,1-.85-.85V709.62a.75.75,0,0,1,.85-.85h3.44a.75.75,0,0,1,.85.85v9.16h.17q.88-2.19,4-2.19H682q6.36,0,6.36,6.6V736.4c0,.57-.29.85-.89.85H684a.75.75,0,0,1-.85-.85v-13a2,2,0,0,0-2.39-2.39h-1.46c-1.87,0-2.8,1-2.8,3.07V736.4A.75.75,0,0,1,675.69,737.25Z"/><path class="cls-6" d="M702.47,737.25h-3.6a6.78,6.78,0,0,1-5-1.7,6.54,6.54,0,0,1-1.74-4.9v-7.46a6.54,6.54,0,0,1,1.74-4.9,6.82,6.82,0,0,1,5-1.7h3.6a6.76,6.76,0,0,1,4.93,1.72,6.54,6.54,0,0,1,1.76,4.88v7.46a6.53,6.53,0,0,1-1.76,4.88A6.76,6.76,0,0,1,702.47,737.25Zm-2.83-4.41h2.07a2.63,2.63,0,0,0,1.84-.53,2.49,2.49,0,0,0,.55-1.82v-7.13a2.5,2.5,0,0,0-.55-1.83,2.63,2.63,0,0,0-1.84-.53h-2.07a2,2,0,0,0-2.35,2.36v7.13a2.49,2.49,0,0,0,.53,1.82A2.52,2.52,0,0,0,699.64,732.84Z"/><path class="cls-6" d="M717.71,737.25h-3.44a.75.75,0,0,1-.85-.85V709.62a.75.75,0,0,1,.85-.85h3.44a.75.75,0,0,1,.85.85V736.4A.75.75,0,0,1,717.71,737.25Z"/><path class="cls-6" d="M738.46,737.25h-9a6.75,6.75,0,0,1-4.94-1.7,6.55,6.55,0,0,1-1.75-4.9v-7.46a6.55,6.55,0,0,1,1.75-4.9,6.79,6.79,0,0,1,4.94-1.7h3.2a6.79,6.79,0,0,1,4.94,1.7,6.51,6.51,0,0,1,1.75,4.9v5.15a.75.75,0,0,1-.85.85H728.37c-.33,0-.49.15-.49.45v.89a2.44,2.44,0,0,0,.55,1.8,2.51,2.51,0,0,0,1.84.55h8.19c.56,0,.85.3.85.89v2.67a.83.83,0,0,1-.19.63A.93.93,0,0,1,738.46,737.25Zm-10.09-11.5h5.51a.39.39,0,0,0,.44-.45v-1.94A2,2,0,0,0,732,721h-1.7a2,2,0,0,0-2.35,2.36v1.94A.4.4,0,0,0,728.37,725.75Z"/><path class="cls-6" d="M747.73,731.42v5c0,.57-.25.85-.77.85h-3.6c-.54,0-.81-.28-.81-.85v-4.94a.72.72,0,0,1,.81-.81H747A.68.68,0,0,1,747.73,731.42Z"/><g id="container"><g id="plastic_container_with_symbol" data-name="plastic container with symbol"><path class="cls-8" d="M573.14,299.38l-84.67-40.11c-7.19-2.9-15.63-3.88-23.48-.94L318.1,304.76c-3.93,1.47-6.67,4.35-7.56,6.45s-1.48,6.28,1.62,8.39c0,0,81.86,61.27,92.95,60.7,6.45-.33,3.88-1,12.09-3.65l150.73-61.3C574.81,311.71,581.17,306.91,573.14,299.38Z"/><path class="cls-8" d="M435.84,459.52c-6.52,0-12.31-1.48-16.29-4.18L338,399.57c-5.07-3.47-6.42-10.24-3.43-17.26C336.43,378,341,374,346.25,372l.18-.07L488.14,317A40.38,40.38,0,0,1,502,314.63c6.21,0,11.75,1.34,15.7,3.8l78.73,42,.87.82c5.79,5.43,6.13,10.66,5.4,14.09-1.23,5.76-6.4,10.64-14.56,13.79L450.26,457l-.34.13a40.47,40.47,0,0,1-14.08,2.44Z"/><path class="cls-9" d="M588.61,366.81l-76-40.79c-5-3.36-15.17-3.77-22.79-.91L352.47,378.68c-3.81,1.43-6.47,4.23-7.34,6.27s-2.1,6.67.9,8.72l79.1,54.11c5,3.37,15.17,3.77,22.78.91L584.3,381.81C591.71,376.93,596.4,374.12,588.61,366.81Z"/><path class="cls-10" d="M571,298.45l-82-39.23c-5.12-3.47-15.63-3.89-23.48-.94L319,304.41c-3.92,1.47-6.44,3.51-7.34,5.61s-.17,4.26,2.39,6L393,370c5.12,3.47,15.63,3.89,23.48.94l149.64-60.92C573.92,307.11,576.13,301.91,571,298.45Z"/><path class="cls-11" d="M316.49,323.63s14.88,36.91,14.88,37,53.64,48.41,74.12,49.57,140.09-59.27,144.09-61.92c3.59-2.38,13.65-26.26,16-31.37a.4.4,0,0,0-.54-.52C551.87,322,415.67,379.31,405.6,380.33,393.17,381.59,316.49,323.63,316.49,323.63Z"/><path class="cls-10" d="M364.57,350.61s103.94-39.89,108.62-40.23,39.59,21.37,39.59,21.37"/><path class="cls-10" d="M472,310.38s3.57-24.5,2.71-29.3,3.89,23.67,1.28,29.3Z"/><path class="cls-10" d="M328.49,325.92s136.25-45.87,146.38-46.1,81.39,34.23,81.39,34.23"/><path class="cls-10" d="M317.48,313c1.22-5,144.51-53.64,159.28-52.53,15,1.14,86.18,38.79,86.18,43.1s-20.33,16-20.33,16"/><line class="cls-10" x1="441.28" y1="265.91" x2="441.28" y2="269.62"/><line class="cls-10" x1="331.56" y1="300.5" x2="331.56" y2="304.26"/></g><g id="symbol" class="cls-12"><path class="cls-13" d="M479,355.88l-11-2.41-.1,3.21c-26.53,2.52-47.66,14.14-48,26.9l11.93-.67c.28-9.63,16-18.45,35.94-20.58l-.1,3.25,11.23-3.65L490,358.29Z"/><path class="cls-13" d="M421.34,394.2l-.18,6.06,6-1.93c14.87,9.44,44.42,11.06,68.06,3.38l-5.82-4.54c-17.85,5.8-40.17,4.69-51.78-2.24l6-2-11.05-2.41-11-2.41Z"/><path class="cls-13" d="M517.1,393.33l11.22-3.64-5.86-1.28c11.66-12,3.23-25.2-20-30.28l-6.11,5.2c17.57,3.83,24.14,13.76,15.84,22.83l-5.93-1.29-.18,6.05-.17,6.06Z"/></g></g></g></g></svg>