<svg xmlns="http://www.w3.org/2000/svg" viewBox="0 0 323.31 353.81"><defs><style>.cls-1{fill:#f7f7f9;}.cls-2{fill:#dedfe0;}.cls-3,.cls-6{fill:#c1c1c1;}.cls-4{fill:#eaeaea;}.cls-5{fill:#ddd;}.cls-6{fill-opacity:0.67;}.cls-7{fill:#d1d1d1;fill-opacity:0.4;}.cls-8{fill:#e8edf1;}.cls-9{fill:#bcbcbc;fill-opacity:0.46;}.cls-10{fill:#e4e5e3;}.cls-11{fill:#f8fcff;}</style></defs><title>Spoon</title><g id="Layer_2" data-name="Layer 2"><g id="Utensil"><g id="knife"><path class="cls-1" d="M18.69.9c1.63-1.35,6.14-2.61,8,7.56,5,26.46,7.3,85.23,7.3,85.23s.83,30.06,1.07,37.87c.26,8.19,28.9,130.18,29.22,141.5s2.56,52.16-7.07,53.43S33.74,266.9,31.26,248s-7.74-91.44-13.56-96.94l2.14-4.59-1.19-6.12S-23.34,35.82,18.69.9Z"/><path class="cls-2" d="M57,324.18c-.11,0-4.79-.64-13.31-30.6-4.72-16.6-8.83-36.35-10.08-45.85C33,243.1,32,234.12,31,223.71,25.82,173,24.16,158.4,20.35,150.92l1.92-4.13-1.39-7.11-.1-.24c-.4-.89-40.78-103.36-.6-136.74A1.57,1.57,0,0,1,21,2.34c1.09-.14,2.59,1.83,3.48,6.55,4.76,25.44,7.14,81.82,7.26,84.78-.1,1.61.84,30.4,1.07,38,.12,3.68,3.39,14.14,11.76,53.75,8.11,38.35,17.29,81.81,17.46,87.75,0,.91.06,2,.11,3.26.24,7.22.66,19.31-.08,29.79C60.83,323.13,57.37,324.12,57,324.18Z"/><path class="cls-3" d="M57.66,323.81c1.18-1,3.45-4.57,4.37-17.63.74-10.48.32-22.57.08-29.79,0-1.25-.09-2.35-.11-3.26-.17-5.94-9.35-49.4-17.46-87.75-8.37-39.61-11.64-50.07-11.76-53.75-.23-7.56-1.17-36.35-1.07-38-.05-1.27-.52-12.34-1.41-26.58-1.37,26.8.81,54.41-.76,74.21C29,147.89,58,268,58.36,273.85,58.7,279.08,58.72,313.09,57.66,323.81Z"/></g><g id="fork"><path class="cls-4" d="M129.8,3.59C127.08,3.16,117,63,117.87,75.41s.2,21.24,11.93,33.84,13.39,40.6,9.43,63.85-6.84,112.82-6.84,112.82,5,48.76,10.17,48.32,16.56-34.46,17.31-50-9.11-156,1.91-165.72S173,96.94,172.7,80.36s1.66-77.87-3-77.74c-2.87.08-6.6,52.88-12.69,53.16-4.21.2,1.75-52.58-.78-52.84-3.62-.38-3.88,52.77-10.63,53.71-5.06.7.8-54.11-2.32-53.64s-3.92,55.49-9.1,55.55C130.52,58.59,132.51,4,129.8,3.59Z"/><path class="cls-5" d="M129.62,7.08c0,.13.28,56.34,3.65,55.22,3.91-1.3,9.76-56,9.76-56s-3.51,53.75,2.5,54.42,8.75-53.68,9.93-54-3.69,52.78.41,50.9,11.88-15.17,12-36.34,2.22-6,2.22-6,3.65,82.22.08,87.21S158.05,121.13,150.85,122s-9.21,5.5-13.55-3.11S125.08,104.72,122.52,94s-1.4-37.12.35-50.7S129.62,7.08,129.62,7.08Z"/><path class="cls-6" d="M147.65,102.13c-.32-3.53-2.65,21.33-12.33,15.6,6.63,14.35,7.14,36.43,3.91,55.37-4,23.25-6.84,112.82-6.84,112.82s5,48.76,10.17,48.32a1.8,1.8,0,0,0,.59-.18C144,303.29,149,116.91,147.65,102.13Z"/><path class="cls-7" d="M161.79,118.14C172.8,108.46,173,96.55,172.7,80c0-.27,0-.54,0-.83a12.48,12.48,0,0,0-1.1,6.25c.49,19.43-10.86,25.48-16.38,30.84s-7.56-14.49-7.56-14.49-4.09,189.68-4.5,232.32c6.21-4.52,16-36.12,16.73-50.2C160.62,268.33,150.77,127.82,161.79,118.14Z"/></g><g id="spoon"><path class="cls-8" d="M294.37,31.83c20.95,5.82,36.77,31,24.83,70.66-5.21,19.37-15.48,26.25-21.41,29.29S276,137.4,271.13,149.42s-30.55,152.21-30.55,152.21l-19.91,51.91-6.61.27s-7.16-9,.22-57.63S255.5,145.05,255.5,145.05s2.88-9-5.85-18.79c-7.62-8.58-15.17-31.79-11.91-46.36S261.87,22.82,294.37,31.83Z"/><path class="cls-9" d="M293.77,35.19c-.54-.15-1.08-.28-1.63-.41-11.06-2.47-20.64,1.56-28.46,8.24,27.6,15.65,29.17,76.93,36,85.64,8.23-5.3,13.85-13.82,17.13-26,7.53-25,3.13-41.13-1.89-50.23A35,35,0,0,0,293.77,35.19Z"/><path class="cls-10" d="M266.14,134.61c-4.54-11.78-39.3,149.67-39.3,149.67-3.53,20.33-12.78,69.53-12.78,69.53l6.61-.27,19.91-51.91s25.68-140.2,30.55-152.21c2.56-6.33,8.17-10,13.77-12.57C286,134.44,268.72,141.3,266.14,134.61Z"/><path class="cls-3" d="M259.89,149.52c1.77-6.45,5.67-16.21,5.67-16.21-.63.6-2.95,5-10,4a16.24,16.24,0,0,1,0,7.72s-33.85,102.53-41.22,151.13-.22,57.63-.22,57.63l.55,0C220.65,331.85,220.76,292,259.89,149.52Z"/><path class="cls-11" d="M309.78,122.05c3.6-4.46,7-10.7,9.42-19.56,11.94-39.71-3.88-64.84-24.83-70.66-32.5-9-53.37,33.51-56.63,48.07a35.62,35.62,0,0,0-.78,7.35c7.33-21.15,25.35-60.58,55.55-51C327.55,47.31,325.56,84.7,309.78,122.05Z"/></g></g></g></svg>