<svg xmlns="http://www.w3.org/2000/svg" viewBox="0 0 130.56 180.55"><defs><style>.cls-1{fill:#3c423f;}.cls-2{fill:#0c6f40;}.cls-3{fill:#66c144;}</style></defs><title>2</title><g id="Layer_2" data-name="Layer 2"><g id="_2" data-name="2"><path class="cls-1" d="M38.82,145.66h86.74v29.89H5V153q0-21.07,1.72-31.61a35.65,35.65,0,0,1,7.71-17.65q6-7.09,19.49-12.49l5.63-2.21Q50.34,84.4,72.39,75.57q8.33-3.18,11.88-5.75a13.48,13.48,0,0,0,4.9-6.13q1.35-3.55,1.35-10.42,0-8.57-2.94-12.49t-9.92-5.15q-7-1.22-21.69-1.22-8.34,0-21.81,1T8.43,38.08V10.39A230.27,230.27,0,0,1,36.24,6.47Q52.79,5,66.75,5,85.38,5,97.87,8.19A35.2,35.2,0,0,1,118,21.54q7.59,10.17,7.59,29.53,0,15-3.18,24.38a34.23,34.23,0,0,1-9.56,15.07,56.7,56.7,0,0,1-16.91,9.8l-24.5,9.81-19.36,7.59a51.5,51.5,0,0,0-6.74,3.07,10,10,0,0,0-3.55,3.3,14.67,14.67,0,0,0-2.33,6,57.7,57.7,0,0,0-.61,9.43Z"/><path class="cls-2" d="M130.56,180.55H0V153C0,138.55.58,128,1.78,120.59a40.6,40.6,0,0,1,8.84-20.06c4.58-5.42,11.59-10,21.44-13.91l5.59-2.19c7.26-3.14,18.32-7.68,32.88-13.5C77,68.47,80,66.77,81.34,65.77a8.62,8.62,0,0,0,3.16-3.86c.47-1.22,1-3.73,1-8.64,0-6-1.21-8.53-1.94-9.49-1.16-1.55-3.45-2.64-6.79-3.22-4.35-.77-11.36-1.15-20.82-1.15-5.37,0-12.59.32-21.45,1S17.16,41.91,9.12,43l-5.69.8V6.36L7.37,5.5a235.71,235.71,0,0,1,28.43-4C46.93.5,57.34,0,66.75,0,79.52,0,90.4,1.12,99.11,3.34A40.26,40.26,0,0,1,122,18.55c5.7,7.64,8.59,18.58,8.59,32.52,0,10.46-1.16,19.2-3.44,26a39.38,39.38,0,0,1-11,17.22A62,62,0,0,1,97.75,105l-24.49,9.8-19.38,7.61a48.52,48.52,0,0,0-6.07,2.73A5,5,0,0,0,46,126.74l-.15.22a9.88,9.88,0,0,0-1.49,4,53.31,53.31,0,0,0-.54,8.59v1.13h86.74ZM10,170.55H120.56V150.66H33.82V139.53a62,62,0,0,1,.68-10.28,19.65,19.65,0,0,1,3.09-7.92,14.87,14.87,0,0,1,5.22-4.87,54.84,54.84,0,0,1,7.43-3.4l19.34-7.59,24.48-9.79a52.57,52.57,0,0,0,15.45-8.9,29.53,29.53,0,0,0,8.13-12.93c1.94-5.75,2.92-13.41,2.92-22.78,0-11.74-2.22-20.67-6.6-26.54A30.08,30.08,0,0,0,96.64,13c-7.9-2-18-3-29.89-3-9.12,0-19.23.49-30.06,1.45-8.9.79-16.7,1.81-23.26,3v17.9c6.56-.81,13.38-1.47,20.37-2,9.1-.66,16.56-1,22.17-1,10.18,0,17.55.42,22.55,1.3,5.93,1,10.32,3.42,13.06,7.06s3.94,8.61,3.94,15.5c0,5.23-.54,9.22-1.67,12.19a18.42,18.42,0,0,1-6.64,8.4c-2.76,2-7,4.09-13,6.39C59.72,86,48.71,90.54,41.53,93.64l-.16.07-5.63,2.2c-8.14,3.26-14,7-17.49,11.07a30.88,30.88,0,0,0-6.6,15.22C10.56,128.92,10,139.29,10,153Z"/><path class="cls-3" d="M38.82,145.66h86.74v29.89H5V153q0-21.07,1.72-31.61a35.65,35.65,0,0,1,7.71-17.65q6-7.09,19.49-12.49l5.63-2.21Q50.34,84.4,72.39,75.57q8.33-3.18,11.88-5.75a13.48,13.48,0,0,0,4.9-6.13q1.35-3.55,1.35-10.42,0-8.57-2.94-12.49t-9.92-5.15q-7-1.22-21.69-1.22-8.34,0-21.81,1T8.43,38.08V10.39A230.27,230.27,0,0,1,36.24,6.47Q52.79,5,66.75,5,85.38,5,97.87,8.19A35.2,35.2,0,0,1,118,21.54q7.59,10.17,7.59,29.53,0,15-3.18,24.38a34.23,34.23,0,0,1-9.56,15.07,56.7,56.7,0,0,1-16.91,9.8l-24.5,9.81-19.36,7.59a51.5,51.5,0,0,0-6.74,3.07,10,10,0,0,0-3.55,3.3,14.67,14.67,0,0,0-2.33,6,57.7,57.7,0,0,0-.61,9.43Z"/></g></g></svg>