<svg xmlns="http://www.w3.org/2000/svg" viewBox="0 0 130.07 182.51"><defs><style>.cls-1{fill:#3c423f;}.cls-2{fill:#0c6f40;}.cls-3{fill:#66c144;}</style></defs><title>3</title><g id="Layer_2" data-name="Layer 2"><g id="_3" data-name="3"><path class="cls-1" d="M30.73,176A255.19,255.19,0,0,1,5,172.37v-27.2q29.89,2.94,49.74,2.94,14.22,0,21.08-1.23t10.29-5.63q3.44-4.41,3.43-14.22,0-9.06-2.33-13.72a12.82,12.82,0,0,0-7.84-6.49Q73.87,105,63.57,105H34.16V75.57H63.57q13.23,0,18.87-4t5.63-16.3q0-9.79-3.06-14.09c-2.05-2.85-5.43-4.69-10.17-5.51s-12.25-1.22-22.55-1.22q-10.29,0-23.4,1T6,37.59V10.15A231.29,231.29,0,0,1,31,6.47Q45.68,5,58.18,5q36,0,50.6,10.9t14.58,33.45q0,17.9-7.11,27.2T94.44,89.05v1q15.44,3.43,23,12.25t7.59,28.19q0,15.19-5.51,25.36T99.34,171.76q-14.7,5.75-41.41,5.75Q45.68,177.51,30.73,176Z"/><path class="cls-2" d="M57.93,182.51c-8.3,0-17.62-.5-27.69-1.49h0A259.84,259.84,0,0,1,4,177.27l-4-.82v-36.8l5.49.54c19.68,1.94,36.25,2.92,49.25,2.92,9.15,0,15.95-.39,20.2-1.15,3.34-.6,5.71-1.83,7.23-3.78,1.08-1.4,2.37-4.46,2.37-11.15,0-6.51-1-9.84-1.8-11.48a7.91,7.91,0,0,0-4.95-4c-3.15-1-7.93-1.58-14.22-1.58H29.16V70.57H63.57c9.6,0,14-1.69,15.95-3.1,2.32-1.67,3.55-5.9,3.55-12.24,0-7.13-1.34-10.06-2.13-11.18-1.24-1.73-3.58-2.91-7-3.49-4.45-.77-11.74-1.15-21.7-1.15-6.67,0-14.42.32-23,1S13,41.75,6.6,42.55L1,43.25V6.1l4-.84A235.2,235.2,0,0,1,30.48,1.5C40.4.5,49.72,0,58.18,0c25.35,0,42.88,3.89,53.59,11.9,11,8.24,16.59,20.84,16.59,37.45,0,13-2.74,23.17-8.13,30.24a35.43,35.43,0,0,1-11.9,9.84A38.88,38.88,0,0,1,121.27,99c5.92,6.89,8.8,17.17,8.8,31.45,0,10.92-2,20.26-6.11,27.74-4.24,7.82-11.91,13.94-22.79,18.2C90.82,180.46,76.27,182.51,57.93,182.51ZM10,168.23c6.15,1.1,13.26,2.06,21.22,2.84h0c9.75,1,18.73,1.44,26.71,1.44,17.09,0,30.41-1.82,39.59-5.41,8.63-3.38,14.56-8,17.64-13.66,3.26-6,4.91-13.73,4.91-23,0-11.62-2.14-20-6.38-24.92S102.53,97,93.36,94.91L89.44,94V85l4-.85c8.55-1.86,14.91-5.44,18.89-10.65s6.08-13.42,6.08-24.17c0-13.48-4.11-23.11-12.58-29.44C97,13.33,81,10,58.18,10c-8.13,0-17.11.49-26.71,1.45-7.75.77-14.62,1.71-20.49,2.8V32c5.27-.57,11.14-1.1,17.54-1.58,8.86-.66,16.86-1,23.77-1,10.67,0,18.32.42,23.4,1.29,6,1.05,10.56,3.59,13.38,7.53,2.7,3.78,4,9.33,4,17,0,9.84-2.6,16.69-7.72,20.36-4.68,3.36-11.8,5-21.78,5H39.16V100H63.57c7.47,0,13.15.69,17.38,2.09a17.75,17.75,0,0,1,10.73,9c1.93,3.85,2.86,9.07,2.86,16,0,7.75-1.46,13.41-4.48,17.29s-7.56,6.45-13.36,7.49c-4.9.87-12.08,1.3-22,1.3-12.09,0-27.12-.82-44.74-2.44Z"/><path class="cls-3" d="M30.73,176A255.19,255.19,0,0,1,5,172.37v-27.2q29.89,2.94,49.74,2.94,14.22,0,21.08-1.23t10.29-5.63q3.44-4.41,3.43-14.22,0-9.06-2.33-13.72a12.82,12.82,0,0,0-7.84-6.49Q73.87,105,63.57,105H34.16V75.57H63.57q13.23,0,18.87-4t5.63-16.3q0-9.79-3.06-14.09c-2.05-2.85-5.43-4.69-10.17-5.51s-12.25-1.22-22.55-1.22q-10.29,0-23.4,1T6,37.59V10.15A231.29,231.29,0,0,1,31,6.47Q45.68,5,58.18,5q36,0,50.6,10.9t14.58,33.45q0,17.9-7.11,27.2T94.44,89.05v1q15.44,3.43,23,12.25t7.59,28.19q0,15.19-5.51,25.36T99.34,171.76q-14.7,5.75-41.41,5.75Q45.68,177.51,30.73,176Z"/></g></g></svg>