<svg xmlns="http://www.w3.org/2000/svg" viewBox="0 0 54.49 63.49"><defs><style>.cls-1{fill:#b9514b;}.cls-2{fill:#e9dea6;}.cls-3{fill:#c1b06b;}.cls-4{fill:#c7746f;}.cls-5{fill:#955753;}.cls-6{fill:#514033;}.cls-7{fill:#ccbe7f;}.cls-8{fill:#8b3d38;}</style></defs><title>apple</title><g id="Layer_2" data-name="Layer 2"><g id="Layer_1-2" data-name="Layer 1"><g id="Layer_2-2" data-name="Layer 2"><g id="Compost"><g id="apple"><polygon class="cls-1" points="47.7 41.26 49.8 40.82 50.93 42.45 47.7 41.26"/><path class="cls-1" d="M52.66,43c.26-.25,1.68-1.3,1.68-1.3S56.06,55,48,58.38c-3,.63-3.33.3-7.36,3s-6.41.46-8.45,1-7.43,1.7-10.23.7-6.8-4.19-7.38-8.1l1.25-.82.17-.74.95-.36,1.13-2.92.77-.08S45.89,49.5,52.66,43Z"/><polygon class="cls-2" points="45.67 12.42 43.12 15.03 42.09 18.43 40.18 21.35 39.42 24.73 38.98 28.24 40.67 31.39 40.84 34.79 42.36 37.72 44.69 40.02 47.79 40.83 50.74 42.4 53.86 42.85 53.95 46.51 52.45 49.79 49.58 51.4 46.61 52.21 43.63 51.53 40.66 51.2 37.66 53.08 34.72 55.12 31.5 56.5 28.74 57.46 26.09 58.8 23.39 58 21.52 57.66 20.66 58.69 16.87 58.43 15.77 55.38 17.8 53.29 18.97 50.46 21.24 48.28 20.43 45.33 19.79 41.8 17.41 39.07 15.88 35.7 13.28 33.16 10.06 31.45 6.97 29.72 4.08 29.58 1.37 28.29 0 25.45 2.91 23.27 5.77 21.63 8.34 19.47 11.66 18.72 14.38 16.79 17.46 15.61 20.55 14.46 23.72 13.55 26.87 12.65 29.76 10.77 33.02 10.14 36.35 9.99 39.65 9.94 42.1 10.46 45.67 12.42"/><path id="inner_shadow" data-name="inner shadow" class="cls-3" d="M41.68,12.32l2.8,1.31,1.19-1.21-3.57-2-2.45-.52-3.3,0L33,10.13l-3.26.63-2.89,1.88-3.15.9-3.17.92-3.09,1.16-3.07,1.17-2.73,1.93-3.32.75L5.77,21.63,2.91,23.26,0,25.45l.62,1.29c.52-.47,1-.93,1-.93l1.06,3.1h0l3.57.78h0l4.65-4.62,6,1.35,2.91-2,5.16.29,1.39-4.08s8.17-.05,8.63-.14S41.68,12.32,41.68,12.32Z"/><path class="cls-1" d="M16.85,9.24C19.31,8.5,23,7.88,25.26,6.92S34.11,5.29,40.53,8.8s5.89,4.36,5.89,4.36-4-3.09-5.34-2.92-6.22,8.29-6.22,8.29l-5.8.41-4.62-.85-.29,5.35L19.64,23l-4.3,1.76S11,23.09,10.28,23.53C7.86,25,5,26.89,5.23,28.84a9.82,9.82,0,0,0-3-1s.45-3.53.13-3.95-.77.87-.77.87l-1.47.91s-.09-5.85,3.66-8.88C5.79,15.17,13.43,10.26,16.85,9.24Z"/><path class="cls-4" d="M26.4,9.7a30,30,0,0,1,6.74-3.33,16.51,16.51,0,0,0-7.88.56c-2.29,1-6,1.57-8.41,2.32A43.84,43.84,0,0,0,8.5,13.59c3.43.15,4.32-1.21,6.78-1.56S22.76,12.28,26.4,9.7Z"/><path class="cls-5" d="M21.52,11.8a29.19,29.19,0,0,1-4.27.46c-.82.05-1.52.09-2.12.18l-.46.08a11.59,11.59,0,0,0-1.92.61l-.73.26a30.69,30.69,0,0,1,4.87-2.14c.84-.23,1.84-.47,2.89-.72a40,40,0,0,0,4.95-1.37A8.1,8.1,0,0,1,26,8.82a11.38,11.38,0,0,1,2.67-.49A15.09,15.09,0,0,0,26,10a16.26,16.26,0,0,1-4.49,1.83Z"/><path class="cls-6" d="M20,12.11S13.71,2.62,13.28,1.29,11.47-.55,10.8.78a2.26,2.26,0,0,0,1.27,3.05c1,.49,5.16,8.21,5.76,8.4A6.82,6.82,0,0,0,20,12.11Z"/><path class="cls-7" d="M22.07,57.15a30.56,30.56,0,0,1,2-3.33h0L22.93,52l1-3.62,3.31,4.42-1.55,4.9Z"/><path class="cls-7" d="M30.12,30.14s2.48,11.34,2.63,12.61,1.85,2.16,1.85,2.16L32.86,30.76l.59-2.85Z"/><polygon class="cls-7" points="16.71 31.39 17.97 37.45 21.83 42.69 22.7 46.84 23.14 37.56 17.38 32.12 16.71 31.39"/><path class="cls-8" d="M46.8,57.41a24.37,24.37,0,0,0-9,3.78,7.59,7.59,0,0,0-6.2-.13c-5.11,2.36-8.94.63-12.89.07a12.57,12.57,0,0,0,3.39,1.95c2.81,1,8.19-.13,10.23-.7s4.41,1.61,8.45-1.05,4.33-2.32,7.36-2.95a10.1,10.1,0,0,0,5.51-6.64C51.67,54.35,49.2,57,46.8,57.41Z"/></g></g></g></g></g></svg>