<svg xmlns="http://www.w3.org/2000/svg" viewBox="0 0 234.79 273.56"><defs><style>.cls-1{fill:#b9514b;}.cls-2{fill:#e9dea6;}.cls-3{fill:#c1b06b;}.cls-4{fill:#c7746f;}.cls-5{fill:#955753;}.cls-6{fill:#514033;}.cls-7{fill:#ccbe7f;}.cls-8{fill:#8b3d38;}</style></defs><title>apple</title><g id="Layer_2" data-name="Layer 2"><g id="Compost"><g id="apple"><polygon class="cls-1" points="205.52 177.77 214.57 175.88 219.43 182.88 205.52 177.77"/><path class="cls-1" d="M226.89,185.41c1.12-1.07,7.23-5.59,7.23-5.59s7.44,57-27.29,71.73c-13.05,2.72-14.37,1.29-31.74,12.74s-27.6,2-36.39,4.51-32,7.34-44.09,3.05-29.3-18.07-31.78-34.92l5.39-3.51.7-3.21,4.1-1.53,4.87-12.59,3.34-.36S197.74,213.27,226.89,185.41Z"/><polygon class="cls-2" points="196.76 53.53 185.77 64.75 181.34 79.41 173.14 91.97 169.86 106.57 167.97 121.68 175.24 135.25 175.96 149.91 182.52 162.52 192.56 172.44 205.91 175.92 218.63 182.69 232.06 184.64 232.45 200.41 225.97 214.54 213.63 221.45 200.84 224.94 187.99 222.01 175.19 220.62 162.28 228.72 149.61 237.48 135.72 243.44 123.82 247.59 112.43 253.36 100.76 249.91 92.72 248.45 89 252.86 72.69 251.76 67.95 238.63 76.71 229.59 81.73 217.42 91.53 208.02 88.04 195.29 85.27 180.1 75 168.32 68.4 153.84 57.22 142.87 43.33 135.52 30.05 128.07 17.56 127.45 5.9 121.88 0 109.65 12.54 100.24 24.85 93.2 35.93 83.9 50.23 80.64 61.97 72.34 75.24 67.25 88.53 62.28 102.2 58.39 115.77 54.49 128.23 46.41 142.28 43.69 156.61 43.04 170.85 42.81 181.38 45.06 196.76 53.53"/><path id="inner_shadow" data-name="inner shadow" class="cls-3" d="M179.57,53.08l12.09,5.66,5.1-5.21-15.38-8.47-10.53-2.25L156.61,43l-14.32.65-14.06,2.72-12.46,8.08-13.57,3.9L88.53,62.28l-13.29,5L62,72.34,50.23,80.65,35.93,83.9,24.85,93.2l-12.31,7L0,109.65l2.68,5.55c2.25-2,4.23-4,4.23-4l4.55,13.35h0l15.4,3.37h0L46.9,108l25.93,5.84,12.53-8.51,22.22,1.27,6-17.6s35.21-.18,37.16-.58S179.57,53.08,179.57,53.08Z"/><path class="cls-1" d="M72.61,39.8c10.57-3.16,26.35-5.86,36.23-10s38.11-7,65.78,8.13S200,56.7,200,56.7s-17.07-13.3-23-12.57-26.79,35.71-26.79,35.71L125.2,81.62l-19.89-3.69L104.05,101,84.61,99.27l-18.53,7.6s-18.63-7.4-21.77-5.51c-10.45,6.26-23,14.5-21.79,22.92,0,0-7.48-4.06-12.68-4.51,0,0,1.94-15.22.55-17s-3.31,3.75-3.31,3.75L.74,110.43S.35,85.23,16.52,72.16C24.94,65.36,57.87,44.2,72.61,39.8Z"/><path class="cls-4" d="M113.77,41.79c10.55-7.46,22.63-11.95,29-14.36-15.24-2.12-27.95-.07-33.92,2.41-9.88,4.1-25.66,6.8-36.23,10-8.63,2.58-23.48,10.89-36,18.71,14.8.64,18.63-5.22,29.21-6.74S98.06,52.89,113.77,41.79Z"/><path class="cls-5" d="M92.74,50.82a125,125,0,0,1-18.41,2c-3.52.21-6.57.39-9.12.78-.66.1-1.33.22-2,.36a51.75,51.75,0,0,0-8.29,2.59c-1,.4-2.08.79-3.13,1.15,9-4.65,16.32-7.91,21-9.24,3.62-1,7.9-2,12.43-3.1,7.59-1.78,15.44-3.62,21.34-5.9A36.55,36.55,0,0,1,112,38c2.58-.53,5.81-1.94,11.49-2.12-5,2.13-5.93,3.57-11.41,7.06a71.25,71.25,0,0,1-19.35,7.92Z"/><path class="cls-6" d="M86.33,52.16S59.09,11.29,57.22,5.55,49.44-2.37,46.55,3.34,47.48,14.39,52,16.51s22.25,35.37,24.81,36.2S86.33,52.16,86.33,52.16Z"/><path class="cls-7" d="M95.08,246.22c.34-1.91,8.66-14.32,8.66-14.32h0l-4.93-7.79,4.46-15.62,14.26,19.07-6.67,21.08Z"/><path class="cls-7" d="M129.78,129.87s10.68,48.85,11.32,54.33,8,9.32,8,9.32l-7.52-61,2.55-12.28Z"/><polygon class="cls-7" points="71.98 135.26 77.42 161.37 94.07 183.95 97.79 201.82 99.68 161.84 74.89 138.4 71.98 135.26"/><path class="cls-8" d="M201.66,247.35c-20.76,3.3-39,16.29-39,16.29s-13.18-6.83-26.74-.56c-22,10.19-38.51,2.72-55.51.3A52.74,52.74,0,0,0,95,271.77c12.13,4.28,35.3-.54,44.09-3s19,6.93,36.39-4.51,18.69-10,31.74-12.74c12.82-5.43,19.89-16.63,23.71-28.6C222.64,234.19,212,245.7,201.66,247.35Z"/></g></g></g></svg>