<svg xmlns="http://www.w3.org/2000/svg" viewBox="0 0 1924 1369.99"><defs><style>.cls-1{fill:#cdc6a8;}.cls-10,.cls-11,.cls-12,.cls-14,.cls-2,.cls-4,.cls-8{fill:#84733e;}.cls-13,.cls-2{fill-opacity:0.57;}.cls-15,.cls-3,.cls-5,.cls-9{fill:#845834;}.cls-3{fill-opacity:0.53;}.cls-4{fill-opacity:0.36;}.cls-5{fill-opacity:0.81;}.cls-13,.cls-6,.cls-7{fill:#b5ac8a;}.cls-7{fill-opacity:0.55;}.cls-8{opacity:0.7;}.cls-9{fill-opacity:0.54;}.cls-10{fill-opacity:0.49;}.cls-11{opacity:0.57;}.cls-14{fill-opacity:0.64;}.cls-15{fill-opacity:0.75;}.cls-16{fill:#a59f89;}</style></defs><title>background (2)</title><g id="Layer_2" data-name="Layer 2"><g id="background"><g id="background-2" data-name="background"><rect id="wall" class="cls-1" x="66" width="1811" height="1233.72"/><rect class="cls-2" x="107" y="281.99" width="137.5" height="44" rx="12" ry="12"/><rect class="cls-3" x="248" y="395.99" width="137.5" height="44" rx="12" ry="12"/><rect class="cls-4" x="487" y="269.99" width="137.5" height="44" rx="12" ry="12"/><rect class="cls-5" x="302.5" y="178.99" width="137.5" height="44" rx="12" ry="12"/><rect class="cls-6" x="132.5" y="91.99" width="137.5" height="44" rx="12" ry="12"/><rect class="cls-6" x="753" y="269.99" width="137.5" height="44" rx="12" ry="12"/><rect class="cls-3" x="902" y="169.99" width="125.5" height="44" rx="12" ry="12"/><rect class="cls-7" x="1136" y="281.99" width="137.5" height="44" rx="12" ry="12"/><rect class="cls-8" x="845" y="373.99" width="137.5" height="44" rx="12" ry="12"/><rect class="cls-9" x="1431" y="416.99" width="137.5" height="44" rx="12" ry="12"/><rect class="cls-6" x="493" y="103.99" width="125" height="40.15" rx="12" ry="12"/><rect class="cls-10" x="1382" y="677.99" width="137.5" height="44" rx="12" ry="12"/><rect class="cls-11" x="1508" y="781.99" width="137.5" height="44" rx="12" ry="12"/><rect class="cls-3" x="1692" y="356.99" width="137.5" height="44" rx="12" ry="12"/><rect class="cls-6" x="752.5" y="91.99" width="137.5" height="44" rx="12" ry="12"/><rect class="cls-12" x="532" y="424.99" width="137.5" height="44" rx="12" ry="12"/><rect class="cls-3" x="1101" y="781.99" width="137.5" height="44" rx="12" ry="12"/><rect class="cls-6" x="97" y="881.99" width="137.5" height="44" rx="12" ry="12"/><rect class="cls-13" x="268.5" y="781.99" width="137.5" height="44" rx="12" ry="12"/><rect class="cls-14" x="564" y="1055.99" width="137.5" height="44" rx="12" ry="12"/><rect class="cls-4" x="1149" y="89.99" width="137.5" height="44" rx="12" ry="12"/><rect class="cls-6" x="905" y="881.99" width="137.5" height="44" rx="12" ry="12"/><rect class="cls-15" x="1102" y="416.99" width="137.5" height="44" rx="12" ry="12"/><rect class="cls-6" x="1718" y="881.99" width="137.5" height="44" rx="12" ry="12"/><rect class="cls-6" x="107" y="953.99" width="137.5" height="44" rx="12" ry="12"/><rect class="cls-6" x="179.5" y="1015.99" width="137.5" height="44" rx="12" ry="12"/><rect class="cls-6" x="697" y="781.99" width="137.5" height="44" rx="12" ry="12"/><rect class="cls-6" x="915" y="953.99" width="137.5" height="44" rx="12" ry="12"/><rect class="cls-6" x="1011" y="1082.99" width="137.5" height="44" rx="12" ry="12"/><rect class="cls-6" x="1401" y="953.99" width="137.5" height="44" rx="12" ry="12"/><rect class="cls-12" x="1606" y="1064.99" width="109.5" height="37" rx="12" ry="12"/><rect class="cls-6" x="1728" y="953.99" width="137.5" height="44" rx="12" ry="12"/><rect class="cls-6" x="1352" y="135.99" width="125.5" height="44" rx="12" ry="12"/><rect class="cls-12" x="1668" y="143.99" width="125.5" height="44" rx="12" ry="12"/><polygon id="ground" class="cls-16" points="0 1369.99 1924 1368.99 1877 1175.99 67 1175.99 0 1369.99"/></g></g></g></svg>