<svg xmlns="http://www.w3.org/2000/svg" viewBox="0 0 87.26 110.74"><defs><style>.cls-1{fill:#e23b60;}.cls-2{fill:#ba224a;}.cls-3{fill:#8b1a38;}.cls-4{fill:#e8e2e3;}.cls-5{fill:#d3d3d3;}.cls-6{fill:#e86280;}</style></defs><title>bag</title><g id="Layer_2" data-name="Layer 2"><g id="Layer_2-2" data-name="Layer 2"><g id="Layer_2-3" data-name="Layer 2"><g id="paper"><g id="bag"><path class="cls-1" d="M23.1,34.33c-2.44,13-3.53,26.08-6.81,38.88-3.14,12.34-6.68,24.58-9.76,37,10,1.82,18.94-1.14,28.79-2.24,4.7-.53,9.26,0,13.81-1.45,3.8-1.24,7.13-2.82,11.17-3.21,2.68-9.77,4.86-19.86,10-28.7,2.9-5,6.39-9.69,9.46-14.62a77,77,0,0,0,7.55-17C76.07,37.45,62,36.48,49.78,35.46,40.9,34.71,32,34.4,23.1,34.33Z"/><path class="cls-1" d="M0,94.76c2.88,4.84,6.51,15.4,6.51,15.4S8.7,95.52,8,94.77C7.56,94.24,2.69,94.69,0,94.76Z"/><path class="cls-2" d="M25,31.25C20.87,30,13.38,27.1,12.61,27.56,10.05,29.08,10.75,49.2,9.49,60,8.33,70,.81,85.23,2,89.05c.37,1.16,4.14,3.6,6,5.72"/><path class="cls-3" d="M2,89.05a73.77,73.77,0,0,1,6,5.72,61.17,61.17,0,0,1-8,0C-.19,94.46,1.35,91,2,89.05Z"/><path class="cls-3" d="M25,31.3a26.58,26.58,0,0,0-4.91,7.62C17.88,46.5,17.05,57,15,67,13,76.42,9.7,86.14,8,94.78c-.9,4.63-1.5,15.39-1.5,15.39L16.3,73.22c7.3-27.65,3-28.65,6.81-38.87A18.83,18.83,0,0,1,25,31.3Z"/><path class="cls-4" d="M33.08,29.13c.86-5.92,2.51-13.22,6.62-17.64S50.23,2.54,56,1c6.75-1.79,9.23,7.2,8.09,12.15-1.53,6.67-5.75,13.94-5.88,20.35,0,1.61-2.41.59-1.35-1.86,2.32-5.33,3.77-11.21,5.73-16.73,1.71-4.77.35-13-6.13-12.81C50.74,2.51,44.81,8.72,41,12.31c-4.83,4.53-5.9,12-6.11,18.39C34.71,33.5,32.8,30.78,33.08,29.13Z"/><path class="cls-4" d="M33.08,29.13c.86-5.92,2.51-13.22,6.62-17.64S50.23,2.54,56,1c6.75-1.79,9.23,7.2,8.09,12.15-1.53,6.67-5.75,13.94-5.88,20.35,0,1.61-2.41.59-1.35-1.86,2.32-5.33,3.77-11.21,5.73-16.73,1.71-4.77.35-13-6.13-12.81C50.74,2.51,44.81,8.72,41,12.31c-4.83,4.53-5.9,12-6.11,18.39C34.71,33.5,32.8,30.78,33.08,29.13Z"/><path class="cls-4" d="M33.08,29.13c.86-5.92,2.51-13.22,6.62-17.64S50.23,2.54,56,1c6.75-1.79,9.23,7.2,8.09,12.15-1.53,6.67-5.75,13.94-5.88,20.35,0,1.61-2.41.59-1.35-1.86,2.32-5.33,3.77-11.21,5.73-16.73,1.71-4.77.35-13-6.13-12.81C50.74,2.51,44.81,8.72,41,12.31c-4.83,4.53-5.9,12-6.11,18.39C34.71,33.5,32.8,30.78,33.08,29.13Z"/><path class="cls-5" d="M64,8.13c-.35-4.37-5.19-6.78-8.92-6.38-5.19.55-10.4,6.88-14.56,10.16-4.88,3.52-5.58,11.82-6.31,17.31a4.39,4.39,0,0,0,.69,1.06c.24-6.23,1.36-13.54,6.1-18,3.83-3.59,9.76-9.8,15.45-10.19,6.49-.2,7.84,8,6.14,12.8-2,5.52-3.41,11.4-5.73,16.74a1.68,1.68,0,0,0-.25.72C59.64,25.41,64.81,16.07,64,8.13Z"/><path class="cls-6" d="M12.61,27.56c4.14,1.18,12.18,3.2,12.36,3.69a22.14,22.14,0,0,1-1.89,3.2c.62,1,20.34.1,29.71,1.43,6.46.91,13.23,2.34,19.76,3.72,4.87,1,14.71,3.3,14.71,3.3s-11.9-5.06-12-5.51a21.81,21.81,0,0,1,2.25-2.67C76.52,32,34.3,28.68,12.61,27.56Z"/><path class="cls-2" d="M25.78,31c-3-.94-5.92-1.85-8.9-2.74A559.18,559.18,0,0,1,76.45,35.1l-2.52,2.12q4.14,1.91,8.25,3.87C72.71,38.92,63,36.52,53.44,35.22A176.45,176.45,0,0,0,24,34C24.58,33,25.17,32,25.78,31Z"/><path class="cls-4" d="M44,27.24A54,54,0,0,1,49.23,3.42,6.18,6.18,0,0,1,55,0C62.1.52,66.39,11,67.77,16.37c2.28,9,2,17.3-1.94,26-1.16,2.31-1.86,1.86-1.53.17,1-5,3.88-10.43,3.68-15.23a52.32,52.32,0,0,0-1.82-10.38c-1.48-5.7-4.63-15.71-11.62-15.84C50.2,1,48.44,9.3,47.7,12.53A58.44,58.44,0,0,0,46,27.26c.11,2.91-3,13.09-4.36,12.59-.51-.18.36-2.91.75-4.07A27.68,27.68,0,0,0,44,27.24Z"/><path class="cls-5" d="M68.3,24.79c-.83-6.74-2.19-14-6.6-19.48C59.76,2.93,56.25-.1,53.23.67c-3.83,1-5.88,9.57-6.36,13.32-1.55,4-1.55,9.2-1.61,13.43-.07,3.9-1.12,9.32-3.82,12.34a.28.28,0,0,0,.17.07c2.88-.1,4.47-9.67,4.36-12.59a58.31,58.31,0,0,1,1.72-14.72C48.43,9.3,50.18,1,54.54,1.09c7,.13,10.19,10.16,11.63,15.84a63.17,63.17,0,0,1,1.32,10.75c0,5.42-2.15,10-3.18,14.87a2.57,2.57,0,0,0,0,.4C67.92,37.47,68.79,31.27,68.3,24.79Z"/></g></g></g></g></g></svg>