<svg xmlns="http://www.w3.org/2000/svg" viewBox="0 0 76.87 61.47"><defs><style>.cls-1{fill:#63450a;}.cls-2{fill:#f4e598;}.cls-3{fill:#f6d64d;}.cls-4{fill:#6b4834;}.cls-5{fill:#d1b646;}.cls-6{fill:#aa3;}.cls-7{fill:#8e8b2d;}</style></defs><title>banana</title><g id="Layer_2" data-name="Layer 2"><g id="Layer_2-2" data-name="Layer 2"><g id="Layer_2-3" data-name="Layer 2"><g id="Compost"><g id="banana"><path class="cls-1" d="M65.09,20.25C62.92,9,57.53,32.72,59.67,30.85c1.82-1.58,4.59-8.49,5.42-10.6"/><path class="cls-2" d="M47.81,60.28S50,62.52,56,60.84,81.39,53.68,75.9,45a14.34,14.34,0,0,0-6.24-6.67S68.67,59.32,47.81,60.28Z"/><path class="cls-2" d="M1,39.45c-.34.14-1.87,2.11,1.13,2.61.52.08,27.52-5.55,36.58-5.64C38.74,36.42,21.9,30.6,1,39.45Z"/><path class="cls-2" d="M27.47,48.3S28.79,50,30.29,50s5.36-.26,7.77.65,5.73.78,7-.32,6.06-8.2,5.73-11.13S34.22,49.06,27.47,48.3Z"/><path class="cls-3" d="M53.55,2.8S55.44,2.74,55.9,2s1.89.32,2.48.36.52-1.6,1.23-1.14S64.44,12,65.68,14.05c.91,2.22,5.41,9.05,4.24,13.35s-4.51,5.67-8.55,5.21-20,3.84-28.76,3.78c-1.37,0-21.39.78-30.45,4.82C-.45,42.64-.25,39,.46,37.49c1.34-2.74,25.11-6,38-5.08,0,0,17.42.41,22.43-2,2.28-1.11,3.59-5.82,3.39-11.66,0,0-8.87,11.46-.72,16.66a16.22,16.22,0,0,0,4.11,1.83s5.22,2.27,7.5,5.92S76.37,53.24,64.3,57s-13.43,4.63-16.49,3.32c-1.11-.47-.48-3.09-.48-3.09S58,51.42,58.5,50.45s4.17-3.85.72-8.14-7.12-7.16-5-12.76,2.34-13.8,2.34-13.8S51.72,50.51,41.15,50.51a73.2,73.2,0,0,1-9-2.3,5,5,0,0,1-4.65.09,50.2,50.2,0,0,0,4.63-3.58,11.69,11.69,0,0,0,3.33-6.33C35.68,36.7,46,21.52,48,18.08A40.37,40.37,0,0,0,53.55,2.8Z"/><path class="cls-4" d="M53.78,3.53C53.4,3.4,53.6,2,54.26,1.8a4.11,4.11,0,0,0,1.25-.64h.54S56.88-.1,57.72,0s1.49.3,1,.89c.65-.24.55-.07.87.33S59.15,5.32,53.78,3.53Z"/><path class="cls-5" d="M38.8,32.43h-.38C25.57,31.51,1.8,34.76.46,37.5A5.21,5.21,0,0,0,.1,40.57a69,69,0,0,1,23.53-6.42C34.85,33.08,34.5,40.27,38.8,32.43Z"/><path class="cls-5" d="M46.46,31.38c2.37-4.69,4.61,7.06,4.61,7.06.58-1.55,2.22-7,2.3-7.29C57.09,20.07,56.53,4.88,54,2.76l-.46,0C52.83,9.05,50,14.72,48,18.1c-.37.63-1,1.67-1.85,2.94-.34,12.25-12.66,23.6-18.69,27.27a9.24,9.24,0,0,0,4.65-.09C33.73,47.45,45.61,33.05,46.46,31.38Z"/><path class="cls-6" d="M54.2,8.4c.65-1.37,2.08,2.28,2.8,1.95S58.1,6.44,59.17,7,62.28,8.49,63,8.27C61.53,5,60,1.5,59.6,1.24,58.89.78,59,2.41,58.37,2.38s-2-1.08-2.48-.36-2.35.79-2.35.79a34.12,34.12,0,0,1-2.15,8.37A12.79,12.79,0,0,0,54.2,8.4Z"/><path class="cls-7" d="M55.68,2.24a4.7,4.7,0,0,1-2.13.56,34.12,34.12,0,0,1-2.15,8.37A16.87,16.87,0,0,0,54.2,8.4c.35-.52.81-.18,1.41.63A19.17,19.17,0,0,0,55.68,2.24Z"/><path class="cls-5" d="M64.3,57c12.07-3.71,13.11-10.15,10.83-13.8s-7.5-5.93-7.5-5.93a16.06,16.06,0,0,1-4.11-1.82,7.41,7.41,0,0,1-2.67-2.83,4.05,4.05,0,0,1,.52,0,12.76,12.76,0,0,0,2.14.06c-1.26-.67-2-1.2-1.88-1.67.35-1.83.85-2.14,2.48-5.27,1.37-2.62,2-8.52,1-9.2-1.77-1.18-8.36,8.63-4.88,14.14,0,0-.85-7.35,3.38-11.71,1.69-1.75-2,11.07-2.74,11.44l-.64.27c0-.22-.07-.44-.1-.67-1.21.79-2,1.52-.93,2.66,2.28,2.53,8.56,6.05,10.88,7.9,4.25,3.41,6.79,7,2.87,10.25-3.18,2.62-17.7,8.46-24.09,9.83C51.34,61.33,53.66,60.23,64.3,57Z"/></g></g></g></g></g></svg>