<svg xmlns="http://www.w3.org/2000/svg" viewBox="0 0 85.56 80.86"><defs><style>.cls-1{fill:#f8f8f8;}.cls-2{fill:#e2e2e2;}.cls-3{fill:#c4c4c4;}.cls-4{fill:#007cac;}.cls-5{fill:#005c80;}.cls-6{fill:#d1dee5;}</style></defs><title>book</title><g id="Layer_2" data-name="Layer 2"><g id="Layer_2-2" data-name="Layer 2"><g id="Layer_2-3" data-name="Layer 2"><g id="paper"><g id="book"><path id="page" class="cls-1" d="M35.41,32.08S34.59,26.23,32,8.78c0,0-10.93,62.76,27.59,63.57Z"/><path class="cls-2" d="M35.41,32.08,47,2S71.85,61.12,71.76,61l-7,8.93-3,1.88Z"/><path class="cls-3" d="M57.19,26.3c-3.44-8.17-6.64-15.78-8.52-20.23l-13.26,26,4.49,6.77Z"/><polyline class="cls-2" points="35.83 31.82 57.79 5.19 54.26 0 35.83 31.82"/><polygon class="cls-3" points="54.84 0.85 35.83 31.82 57.79 5.19 54.84 0.85"/><path class="cls-2" d="M30.75,20.62s-.23,5.7-.18,8.89l4.84,2.57-.69-4.82A19.35,19.35,0,0,1,30.75,20.62Z"/><polyline class="cls-2" points="35.41 32.08 55.72 0.6 57.88 4.08 38.49 28.7"/><path id="page-2" class="cls-1" d="M35.41,32.08,21.83,14S30.45,75.44,58,74Z"/><path class="cls-2" d="M25,29.47l7,7.4,4.32-3.18-.87-1.61L34.6,31c-3.2-1.66-8-4.17-10.57-5.51C24.31,26.76,24.63,28.09,25,29.47Z"/><path id="page-3" class="cls-1" d="M35.25,31.82,11.82,23.73s27.36,52.59,29.6,52.11S58,74,58,74Z"/><path class="cls-2" d="M56.59,73.29c-3.46.33-12.64,1.23-15.06,1.65-2.7-2.38-19-30.67-28.87-49.6l22,6.16Z"/><path id="page-4" class="cls-1" d="M35.48,31.67,10,26S35.49,78.6,37.72,78.14L58.23,73.9Z"/><path class="cls-2" d="M37.84,77.21c-2.66-2.5-14.18-23.52-23.35-42.41l21-3.13L56.9,73.27Z"/><polygon class="cls-3" points="56.09 1.19 35.83 31.82 56.87 2.45 56.09 1.19"/><path class="cls-2" d="M35.83,31.82S57.29,1.14,57.3,1.14l2.4,3.92-20,24.37Z"/><polygon class="cls-3" points="57.84 2.04 37.05 31.07 58.37 2.9 57.84 2.04"/><polygon class="cls-2" points="37.05 31.07 58.72 2.1 59.82 3.88 39.7 29.42 37.05 31.07"/><rect class="cls-4" x="44.9" y="27.94" width="7.91" height="47.57" transform="translate(-19.9 33.42) rotate(-31.73)"/><rect class="cls-5" x="46.22" y="29.27" width="5.27" height="44.93" transform="matrix(0.85, -0.53, 0.53, 0.85, -19.9, 33.43)"/><polygon class="cls-4" points="85.56 43.43 64.72 69.88 39.71 29.42 60.55 2.96 85.56 43.43"/><polygon class="cls-5" points="41.31 29.51 60.42 5.26 83.96 43.34 64.85 67.58 41.31 29.51"/><polygon class="cls-6" points="46.67 29.83 59.99 12.92 63.78 19.06 50.47 35.96 46.67 29.83"/><polygon class="cls-4" points="25.02 80.86 58 74.04 32.98 33.58 0 40.4 25.02 80.86"/><polygon class="cls-5" points="25.65 79.38 2.12 41.31 32.35 35.06 55.88 73.13 25.65 79.38"/><polygon class="cls-3" points="59.29 3.02 39.71 29.42 59.82 3.88 59.29 3.02"/></g></g></g></g></g></svg>