<?xml version="1.0" encoding="utf-8"?>
<!-- Generator: Adobe Illustrator 22.1.0, SVG Export Plug-In . SVG Version: 6.00 Build 0)  -->
<svg version="1.1" id="Layer_1" xmlns="http://www.w3.org/2000/svg" xmlns:xlink="http://www.w3.org/1999/xlink" x="0px" y="0px"
	 viewBox="0 0 647.9 432.2" style="enable-background:new 0 0 647.9 432.2;" xml:space="preserve">
<style type="text/css">
	.st0{fill:#E9E3EC;}
	.st1{fill:#FFFFFF;}
</style>
<title>bubble</title>
<g>
	<path class="st0" d="M376.7,313c-20.9,0-39-9-49.8-24.3c-16.1,13.5-43.2,15.2-55.7,15.2c-15.4,0.1-30.7-2.2-45.5-6.6
		c-10.9-3.4-25.4-9.8-32.5-20.7c-0.8-1.2-1.5-2.5-2.1-3.8c-11.7,6.9-31.1,15.8-53,15.8c-18.1,0.1-35.7-6.4-50-18.6
		c-14.2-11.8-24.4-26.7-29.6-42.9c-4.7-14.7-5.1-30.1-1-43.5c4-13,11.7-22.8,21.4-27.9c-8.4-10.4-12-24.3-9.8-39.5
		C73.3,88.3,97.8,60,136.7,60c5.8,0,11.6,0.7,17.4,1.9c-2-9.9-0.9-18.6,3.1-26c5.3-9.8,18.3-21.5,50.3-21.5
		c21.3,0,46.9,5.6,60.7,15.2C282,14.8,307.7,9.3,329.5,9.3c14.8,0,28.6,2.5,39,6.9c4.9,2.1,11.9,5.9,16.5,12.2
		c8.2-5.3,17.5-8.1,27-8.1c20.3,0,38.3,11.7,47.7,30.1c7.1-4.3,15-6.5,23.1-6.4c10.6,0,21.9,3.4,33.7,10.1
		c23.9,13.6,30.7,32.9,32.2,46.6c0.5,4.3,0.5,8.6,0.1,12.8h0.1c26.3,0,50.2,20.4,51,43.6c0.3,9.5-3.1,28.9-33.9,39.9
		c0.4,0.3,0.7,0.7,1.1,1c8,7.4,12.6,18.3,12.8,29.8c0,20.9-16.5,43.4-52.7,43.4c-5.4,0-10.7-0.5-16-1.3c-0.1,3.4-0.8,6.7-2.1,9.8
		c-5.5,14.1-21.1,23.5-38.8,23.5c-13.8,0-27.6-5.8-39.6-16.5C418.9,302.9,398.7,313,376.7,313z"/>
	<path id="bubble" class="st1" d="M269.3,42.9c16.7-34.2,112.1-30.6,112.1,0c24.2-25.3,65.2-13,74.9,21.9c0,0,18-24.4,56.5-2.5
		c39.9,22.7,25.4,61.9,25.4,61.9c47.7-12.5,96.2,62.9-10.9,70.9c63.5-6.2,62.9,87.8-29,62.5c19.9,23.6-29.8,59.8-68.9,14.9
		c-18.7,39.9-84.2,42.7-100.9,0.9c-19.9,37.3-141.6,21.3-130.5-16c0,0-56.2,45.7-104.7,5.3c-52.4-43.7-28.9-115.8,14.6-99.1
		c-61.7-16.3-25-120.2,60.1-88.2C132.5,2.6,257.8,21.5,269.3,42.9z"/>
	<path class="st0" d="M393.1,382.6c-12.2,0-30.8-11.7-34-24.1c-1.6-6.3,0.8-12,6.4-16.1c-0.2-8,1.5-14.1,5.3-18.1
		c3.3-3.6,8-5.5,13.7-5.5c6.9,0,14.1,2.8,18,4.5c3.4-2.3,7.4-3.6,11.5-3.6c4.2,0,8.3,1.4,11.6,3.9c6.8,4.8,10,11.8,8.9,19.1
		c-0.9,5.6-4.1,10.5-8.8,13.5c1.5,3.5,1.5,7.4,0.2,10.9c-2.4,5.8-8.8,8.8-18.9,8.8c-0.7,0-1.5,0-2.3,0
		C402.8,380.2,398.7,382.6,393.1,382.6z"/>
	<path id="Small_Bubble" class="st1" d="M370.7,345c-3-35.5,32.4-15.8,32.4-15.8s9-9,19.6-1.5c11.8,8.4,7.5,22.6-3.8,26.4
		c0.8,0.8,12.8,19.6-18.1,16.6C400.1,391.8,344.3,359.4,370.7,345z"/>
	<path class="st0" d="M459.4,409.3c-7.8,0-12.2-3.8-13.6-8.1c-3.4-0.7-5.7-3.7-5.5-7.2c0.2-7.2,9-16.5,18.2-16.5c1,0,2,0.1,3,0.4
		c0.7-0.2,1.5-0.3,2.2-0.3c5.1,0,9,5,10,9.7c0.8,3.6,0,6.9-2.2,9c1,2.5,0.8,5.4-0.6,7.7C468.9,407.4,464.7,409.4,459.4,409.3
		L459.4,409.3z"/>
	<path id="small_bubble-2" class="st1" d="M467.8,395.3c7.4-3.4,0.7-17.4-6.2-14.1c-11.9-4-26,16.8-13.3,17.5
		C449,410,475.2,408.7,467.8,395.3z"/>
</g>
</svg>
