<svg xmlns="http://www.w3.org/2000/svg" viewBox="0 0 647.92 432.19"><defs><style>.cls-1{fill:#e9e3ec;}.cls-2{fill:#fff;}</style></defs><title>bubble</title><g id="Layer_2" data-name="Layer 2"><g id="Thinking_Bubble" data-name="Thinking Bubble"><path class="cls-1" d="M382.61,327c-24.85,0-46.34-9.73-59.15-26.12-19.16,14.53-51.29,16.35-66.15,16.35a203.54,203.54,0,0,1-54.1-7.14c-12.93-3.68-30.12-10.53-38.62-22.25a29.35,29.35,0,0,1-2.53-4.13c-13.93,7.46-36.93,17.06-63,17.06a96.52,96.52,0,0,1-59.38-20c-16.88-12.73-29-28.71-35.18-46.21-5.56-15.83-6-32.46-1.16-46.82,4.71-14.05,13.85-24.56,25.48-30-9.93-11.24-14.3-26.22-11.62-42.57,4.92-30.08,34.06-60.53,80.23-60.53a114.27,114.27,0,0,1,20.64,2c-2.34-10.62-1.11-20,3.71-28,6.31-10.54,21.8-23.1,59.73-23.1,25.27,0,55.7,6.05,72.15,16.32C270.05,5.91,300.63,0,326.52,0c17.54,0,34,2.64,46.35,7.43,5.83,2.26,14.09,6.4,19.56,13.13a62.84,62.84,0,0,1,32.13-8.75c24.1,0,45.46,12.6,56.69,32.43a55.84,55.84,0,0,1,27.48-6.89c12.56,0,26,3.67,40.09,10.92,28.42,14.66,36.48,35.4,38.23,50.23a63.54,63.54,0,0,1,.11,13.82h.16c31.3,0,59.61,22,60.57,47,.4,10.19-3.68,31.16-40.27,43,.45.35.89.72,1.31,1.09a42.61,42.61,0,0,1,15.17,32.05c0,22.5-19.6,46.71-62.63,46.71a133.44,133.44,0,0,1-19-1.44A28.18,28.18,0,0,1,540,291.23c-6.59,15.14-25.1,25.31-46.07,25.31-16.39,0-32.74-6.24-47-17.78C432.71,316.22,408.76,327,382.61,327Z"/><path id="bubble" class="cls-2" d="M255,36.2c19.9-36.8,133.15-33,133.15,0,28.73-27.28,77.49-14,89,23.62,0,0,21.44-26.26,67.09-2.71,47.46,24.48,30.17,66.67,30.17,66.67,56.72-13.47,114.34,67.76-12.93,76.36,75.41-6.66,74.69,94.56-34.48,67.28,23.7,25.46-35.39,64.44-81.9,16-22.26,43-100.08,45.95-119.92.94C301.54,324.53,157,307.29,170.11,267.09c0,0-66.79,49.23-124.42,5.74C-16.62,225.8,11.39,148.1,63,166.15-10.31,148.58,33.31,36.7,134.36,71.21,92.42-7.21,241.36,13.16,255,36.2Z"/><path class="cls-1" d="M147.22,381.63c-12.16,0-30.82-11.7-34-24.11-1.59-6.26.75-12,6.44-16.14-.23-8,1.54-14.09,5.26-18.14,3.27-3.57,8-5.45,13.7-5.45,6.91,0,14.08,2.75,18,4.54a20.83,20.83,0,0,1,11.48-3.64,19.77,19.77,0,0,1,11.64,3.93c6.78,4.84,10,11.82,8.93,19.14a19.82,19.82,0,0,1-8.82,13.55,14.85,14.85,0,0,1,.23,10.91c-2.41,5.83-8.78,8.79-18.94,8.79-.74,0-1.51,0-2.3-.05C157,379.17,152.85,381.63,147.22,381.63Z"/><path id="Small_Bubble" data-name="Small Bubble" class="cls-2" d="M124.85,344c-3-35.45,32.43-15.84,32.43-15.84s9.05-9.05,19.61-1.51c11.79,8.42,7.54,22.63-3.77,26.4.75.75,12.82,19.61-18.1,16.59C154.26,390.8,98.45,358.37,124.85,344Z"/><path class="cls-1" d="M184.36,432.19c-7.77,0-12.21-3.84-13.63-8.07a6.9,6.9,0,0,1-5.51-7.18c.19-7.2,9-16.48,18.17-16.48a13,13,0,0,1,3,.35,7.49,7.49,0,0,1,2.25-.34c5.13,0,9,5,10,9.7.78,3.63,0,6.85-2.2,9a9,9,0,0,1-.59,7.7c-2,3.34-6.27,5.34-11.49,5.34Z"/><path id="small_bubble-2" data-name="small bubble" class="cls-2" d="M192.7,418.12c7.38-3.35.67-17.44-6.18-14.15-11.93-4-26,16.83-13.27,17.5C173.92,432.88,200.08,431.54,192.7,418.12Z"/></g></g></svg>