<svg xmlns="http://www.w3.org/2000/svg" viewBox="0 0 49.89 56.08"><defs><style>.cls-1{fill:#b9b9b9;}.cls-2{fill:#cecece;}.cls-3{fill:#9c9c9e;fill-opacity:0.47;}.cls-14,.cls-4{fill:#f7f7f7;}.cls-5{fill:#a4a4a4;}.cls-6{fill:gray;}.cls-7{fill:#676767;}.cls-8{fill:#e6e6e6;fill-opacity:0.75;}.cls-13,.cls-9{fill:#9b9b9b;}.cls-10{fill:#c4c4c4;}.cls-11{fill:#bebebe;}.cls-12{fill:#b0b0b0;}.cls-13{fill-opacity:0.53;}.cls-14{fill-opacity:0.72;}.cls-15{fill:#767676;}</style></defs><title>can</title><g id="Layer_2" data-name="Layer 2"><g id="Layer_2-2" data-name="Layer 2"><g id="Layer_2-3" data-name="Layer 2"><g id="Plastic_Mixed" data-name="Plastic Mixed"><g id="can"><path class="cls-1" d="M35.41,25.61c-.24.4-15.25,24.73-15,25.86,0,0,1.85-2,1.95-1.63s-2.6,3.29-.85,4.58,25.69-33.1,26-34.31S46.24,7.64,35.41,25.61Z"/><path class="cls-2" d="M48.7,13.8c-.92,1.24-.51,5.84-1.11,6.79-1.3,2-23.35,33.67-24.82,34.9-2.36.28-3.61,0-4.29.53S13.59,54.3,8.09,50.21s-6.51-5.4-7-6.29L1,42.44a5.58,5.58,0,0,1-.93-3c0-1.68,23.54-33.75,24.2-34.6,1.07-1.36,5.37-2.22,6.31-3.73Z"/><path id="shadow" class="cls-3" d="M47.6,20.59c.52-.83.27-4.45.82-6.18-5.88-3.74-12.83-7-18.48-12.73-1.51,1.16-4.8,2-5.72,3.12-.42.55-10.36,14.08-17.36,24.07,3.57-1.3,9.14-1.54,12.27,1,3.84,3.11,1.21,5.45,2.62,7,2.25,2.43,13.12-8.12,10.87-1.27-.77,2.36.19,3.51,1.92,3.76C40.63,30.71,46.92,21.65,47.6,20.59Z"/><path class="cls-4" d="M41.35,8.6c-.15-.14-13.24,24.26-13.48,27C27.5,40,47.26,14.5,45.49,10.87,45,10.49,42.67,9.83,41.35,8.6Z"/><path class="cls-5" d="M14.4,51.93C9.71,49.75,2.64,43.26.84,41.57a4.3,4.3,0,0,0,.41.72l.17,1.49c.46.89,1.46,2.22,7,6.3s9.71,6.28,10.4,5.8c.53-.38,1.41-.31,2.9-.4C20.43,54.83,18,53.59,14.4,51.93Z"/><path class="cls-6" d="M8,47.62c-2.47-1-6-4.47-6.88-5.38a2,2,0,0,0,.18.42l.1.78c.2.51.69,1.13,3.49,3.24s4.87,3.38,5.29,3S9.91,48.39,8,47.62Z"/><path class="cls-7" d="M31.78,2.14l0,0-.08.11,0,0-.11.12,0,0-.1.1,0,0-.13.13h0l-.13.12,0,0c-.09.09-.2.17-.31.26l0,0-.16.13h0c-.07,0-.75,1.81-3.84,2.95C26.87,6,14.38,21.56,15.17,22.11c0,0,7-7.95,13.79-14.57-.79-2.6,3-3.91,4.89-3.66,1,.14-2-1.86-2-1.86Z"/><path class="cls-7" d="M48.59,14a.66.66,0,0,1,.12-.17L30.53,1.08a1.76,1.76,0,0,1-.24.3,1.6,1.6,0,0,0,.28.4c.41.4,5,4,6,4.73A100.29,100.29,0,0,0,48.59,14Z"/><path class="cls-8" d="M37.35,6.27S20.76,39.84,21,43.93c.38,6.42,27.49-27.2,23.69-33.06Z"/><path class="cls-9" d="M39.93,5.88c3.3,2.45,10,6.77,10,7.31a1,1,0,0,1-1.16.84c-.42-.12-17.83-11.74-18.3-13C30.49-.32,29.9-1.57,39.93,5.88Z"/><path class="cls-10" d="M39.79,6.18C34.72,2.5,32.21.46,31.08.06c0,0,0,0,0,0a0,0,0,0,0,0,0h0C32.67,1.5,36.13,4,40.52,7.18a65,65,0,0,0,8.95,5.52C48,11.37,42.61,8.22,39.79,6.18Z"/><path class="cls-11" d="M23.06,55.34a60.69,60.69,0,0,1-12-6.22A55.83,55.83,0,0,1,0,39.38a5.66,5.66,0,0,0,.92,3,74.74,74.74,0,0,0,9.39,7.7,31.42,31.42,0,0,0,11.31,5.33A11,11,0,0,0,23.06,55.34Z"/><path class="cls-9" d="M39.48,4.38a3.47,3.47,0,0,1-.73-.65A3.32,3.32,0,0,1,38,1.94a.36.36,0,0,1,.11-.21c.17-.13.48,0,1,.42,1.21,1,1.93,2.38,1.76,2.71a.19.19,0,0,1-.24.08A4,4,0,0,1,39.48,4.38ZM38.65,2c-.35-.25-.47-.21-.5-.18a.17.17,0,0,0,0,.12,3.2,3.2,0,0,0,.76,1.68A4.11,4.11,0,0,0,40.6,4.8s.07,0,.07,0c.12-.22-.5-1.5-1.73-2.54A1.47,1.47,0,0,0,38.65,2Z"/><path class="cls-12" d="M39.41,4.64c.88.1,1.87,2.37,2.19,3.3l.74.52a32,32,0,0,0-.91-3.75c-.52-1.6-2.09-3.91-3.25-4C36.47.5,38,5.41,38,5.41l.8.57C38.72,5.44,38.72,4.56,39.41,4.64Zm-.66-.91A3.32,3.32,0,0,1,38,1.94a.36.36,0,0,1,.11-.21c.17-.13.48,0,1,.42,1.21,1,1.93,2.38,1.76,2.71a.19.19,0,0,1-.24.08,4,4,0,0,1-1.09-.56A3.42,3.42,0,0,1,38.75,3.73Z"/><path class="cls-13" d="M33.23,4.77,29.29,7.65c0,2,15.58,12.32,18.54,12.07l.49-5.36S35.3,7.57,33.23,4.77Z"/><path class="cls-14" d="M37.92,14.83c1.7,1.1,3.44,2.15,5,3a26.42,26.42,0,0,0,2.47-5C44,12,42.27,11,40.54,10,39.91,11.13,39,12.83,37.92,14.83Z"/><path class="cls-15" d="M44.61,9.41a2.17,2.17,0,0,1-.19.41,54.92,54.92,0,0,0,5.06,2.88C48.54,12,46.65,10.82,44.61,9.41Z"/><path class="cls-13" d="M30.56,2.65a2.49,2.49,0,0,1-1-.72c-1.43.92-3.8,1.58-4.92,2.49A14.91,14.91,0,0,0,26.5,5.63C26.86,5.67,30.56,2.65,30.56,2.65Z"/><path class="cls-9" d="M40.87,5.83c-.3-.58-1.2-1.35-1.63-1.19h.18c.88.1,1.86,2.37,2.18,3.3l.14.1A14.49,14.49,0,0,0,40.87,5.83Z"/></g></g></g></g></g></svg>