<svg xmlns="http://www.w3.org/2000/svg" viewBox="0 0 142.49 111.34"><defs><style>.cls-1{fill:#6d5741;}.cls-2{fill:#b19675;}.cls-3{fill:#82694e;}.cls-4{fill:#574230;}.cls-5{fill:#9b7d61;}.cls-6{fill:#5e412a;}</style></defs><title>carboard</title><g id="Layer_2" data-name="Layer 2"><g id="Layer_2-2" data-name="Layer 2"><g id="Layer_2-3" data-name="Layer 2"><g id="paper"><g id="cardboard_box" data-name="cardboard box"><path class="cls-1" d="M26.59,88.23l52.77,23.11L110.27,68l-49-19.84Z"/><polygon class="cls-1" points="118.44 20.88 104.56 76.39 79.36 111.34 84.51 61.91 118.44 20.88"/><path class="cls-2" d="M117.79,20.51V19l6.68-4.46L77.33,0,64.42,3Z"/><path class="cls-2" d="M64.42,3,41.13,7.33,2.23,39.77,0,41.77s21.72-3.34,22.09-3.34.47,1.34.47,1.34Z"/><path class="cls-3" d="M64.42,3,22.56,39.77l4,48.46c-.42.14,34.67-40.1,34.67-40.1L64.43,3l53.36,17.53L106.65,68,61.26,48.13Z"/><polygon class="cls-4" points="117.79 20.51 64.46 2.98 61.26 48.13 103.08 66.41 117.79 20.51"/><polygon class="cls-5" points="85.04 61.27 79.92 110.57 79.36 111.34 84.51 61.91 85.04 61.27"/><polygon class="cls-1" points="84.51 61.91 79.36 111.34 26.59 88.23 22.56 39.77 84.51 61.91"/><polygon class="cls-6" points="104.56 76.39 106.87 67.16 84.51 61.91 98.06 85.41 104.56 76.39"/><path class="cls-2" d="M84.51,61.91c.37-.37,33.93-41,33.93-41l3.16.75,20.89,18.14-27.12,47Z"/><polygon class="cls-6" points="22.17 40.51 26.07 82.53 70.17 100.91 84.51 61.91 22.17 40.51"/><path class="cls-2" d="M22.56,39.77,6.82,70.26S69.2,96.72,69.06,96.16,84.53,61.91,84.53,61.91Z"/></g></g></g></g></g></svg>