<svg xmlns="http://www.w3.org/2000/svg" viewBox="0 0 69.37 87.15"><defs><style>.cls-1{fill:#8e816d;}.cls-2{fill:#6b6152;}.cls-3{fill:#d8c073;}.cls-4{fill:#ffd640;}.cls-5{fill:#eac349;}.cls-6{fill:#ffeeaf;}.cls-7{fill:#d8b955;}.cls-8{fill:#d2cdc5;}.cls-9{fill:#684b1e;}.cls-10{fill:#4e3817;}.cls-11{fill:#eae7e4;}.cls-12{fill:#edeceb;}.cls-13{fill:#bbb3a7;}.cls-14{fill:#ffdb59;}.cls-15{fill:#ffd44b;}.cls-16{fill:#d3a922;}</style></defs><title>cerealbox</title><g id="Layer_2" data-name="Layer 2"><g id="Layer_2-2" data-name="Layer 2"><g id="Layer_2-3" data-name="Layer 2"><g id="paper"><g id="cereal_box" data-name="cereal box"><path class="cls-1" d="M45.93,1.46c.46,1.42,1,3.36,1,3.36L2.59,23.42,0,15.57l15-5,2.24,1.25L30.67,7"/><path class="cls-2" d="M30.67,7,32,5,45.34,0a4.87,4.87,0,0,1,.59,1.46Z"/><path class="cls-3" d="M2.3,17.52s.3,5.39.34,5.87l2.08,2.9-2.07-2.9L25.44,84.67,27.2,87Z"/><path class="cls-4" d="M4.67,26.31c-.17-.5-2.42-8.77-2.42-8.77s14.24-4.8,14.48-4.8,2.6,1.3,2.87,1.13,1-1.78,1.22-1.92S31.39,8.29,32.65,8a3,3,0,0,1,2.49.93l1.2-2.22,14.71-5.3,3.23,8.53Z"/><path class="cls-5" d="M6.58,34.12l1.2.57L4.67,26.31,2.59,23.42C2.77,23.65,6.58,34.12,6.58,34.12Z"/><polygon class="cls-6" points="4.72 26.29 26.9 87.15 69.37 70.61 54.3 9.95 4.72 26.29"/><path class="cls-7" d="M26.89,87.11v0L69.37,70.62,56.32,18.1C49.82,34.28,33.49,70.81,26.89,87.11Z"/><path class="cls-8" d="M23.92,53.11c0-.24,19.85-5,25.25-12.75,2-2.54,14.06,13.12-2.69,22.44S24.11,55.41,23.92,53.11Z"/><circle class="cls-9" cx="30.11" cy="42.78" r="2.27"/><path class="cls-10" d="M32.19,41.87a2.24,2.24,0,0,0-1.39-1.25A2.27,2.27,0,0,1,29,44.76a2.27,2.27,0,0,0,3.18-2.89Z"/><circle class="cls-9" cx="41.61" cy="39.57" r="1.48"/><circle class="cls-9" cx="32.99" cy="37.04" r="2.61"/><path class="cls-10" d="M34.36,34.81A2.61,2.61,0,0,1,31,38.71a2.61,2.61,0,1,0,4-3.36A2.73,2.73,0,0,0,34.36,34.81Z"/><circle class="cls-9" cx="25.46" cy="50.06" r="3.18"/><path class="cls-10" d="M26.82,47.19l.14.14a3.18,3.18,0,0,1-3.69,5,3.18,3.18,0,0,0,4.36-4.63A3.22,3.22,0,0,0,26.82,47.19Z"/><circle class="cls-9" cx="38.16" cy="48.01" r="3.33"/><circle class="cls-9" cx="38.16" cy="48.01" r="3.33"/><path class="cls-10" d="M39.11,44.82A3.32,3.32,0,0,1,36,50.53a3.33,3.33,0,1,0,3.12-5.71Z"/><circle class="cls-9" cx="46.99" cy="42.09" r="2.61"/><path class="cls-10" d="M48.12,39.74a2.61,2.61,0,0,1,0,3.69,2.65,2.65,0,0,1-1,.63,2.58,2.58,0,0,1-2-.13,2.61,2.61,0,1,0,3-4.19Z"/><path class="cls-11" d="M58.36,26.3l-1.71-6.88-.14,0S37.69,35.73,38.75,45.67c-3.1-2-2.4-5.43-3.22-5.16-1.41.46-.74,5.83,1.29,6.83s-3.69-1.09-4.51-.9.52,3.74,3.1,3.67-1.86,9.71.61,8,2.53-12.4,3.59-10.84,1.84,1.62,2.3.75-1.89-3-.34-2.76,1.63,3,2.44,2.07-.56-3.88-1.7-3.7C41.42,43.78,51.18,29.41,58.36,26.3Z"/><path class="cls-12" d="M37,54.72c-.14-.79,1-5.06-1.43-6-.92-.34-2.89-.59-2.76-1.45.09-.56,1.94.38,2.58.56,1.49.44,2.22.25,2.34-.07-.21-.69-3.47-5.4-2.34-6.1.72-.06,1.5,3.72,3,5.56C39.62,48.78,37,54.72,37,54.72Zm3.22-8c-.19-.28-.72-1.27-.72-1.27-.88-8.2,12.72-21.41,16.5-24.71l1.25,5c-2.19,1.11-5.62,3.65-10.35,9.41C45.48,37,44.09,38.85,43,40.49c-1.72,2.58-1.62,2.92-1.53,3.25s1.9,1.12,1.69,1.59S40.93,44,40.29,45c-.31.5.83,2.43.86,2.64,0,0-.45-.21-.92-.88Z"/><path class="cls-11" d="M37.62,38.37c-.34-1-1.45-4.62.57-4.41S37.77,38.8,37.62,38.37Z"/><path class="cls-12" d="M37.77,37.71c-.56-1.91-.56-3.19,0-3.39a.93.93,0,0,1,.37,0,.45.45,0,0,1,.44.34C38.84,35.4,38.2,37,37.77,37.71Z"/><path class="cls-11" d="M47.78,40.22c.26-1.45,1.38-4.45,3.66-2.91S50.7,38.11,47.78,40.22Z"/><path class="cls-12" d="M48.32,39.47c.27-.89.78-1.94,1.56-2.19a1.57,1.57,0,0,1,1.38.31,3.54,3.54,0,0,1,.61.49l-.36.14-.46.14a6.19,6.19,0,0,0-.69.23A10.22,10.22,0,0,0,48.32,39.47Z"/><path class="cls-13" d="M49.43,40.16c2.25,4,2.23,18.69-7.38,24.61a24.71,24.71,0,0,0,4.43-2C62.64,53.81,52,38.94,49.43,40.16Z"/><path class="cls-14" d="M7.78,34.69c9.21-3,42-14.19,48.54-16.59l-2-8.21L4.67,26.31Z"/><path class="cls-15" d="M56.32,18.1l-1.94-7.81c-7.13,3.83-29.22,15.88-42.1,22.91C24.83,29,50.62,20.2,56.32,18.1Z"/><path class="cls-16" d="M51.61,2.83C47.2,4.25,37,7.67,37,7.67l-1.48,2.2L3.88,23.5c.4,1.44.73,2.63.79,2.81L54.28,9.89Z"/></g></g></g></g></g></svg>