<svg xmlns="http://www.w3.org/2000/svg" viewBox="0 0 302.18 379.6"><defs><style>.cls-1{fill:#8e816d;}.cls-2{fill:#6b6152;}.cls-3{fill:#d8c073;}.cls-4{fill:#ffd640;}.cls-5{fill:#eac349;}.cls-6{fill:#ffeeaf;}.cls-7{fill:#d8b955;}.cls-8{fill:#d2cdc5;}.cls-9{fill:#684b1e;}.cls-10{fill:#4e3817;}.cls-11{fill:#eae7e4;}.cls-12{fill:#edeceb;}.cls-13{fill:#bbb3a7;}.cls-14{fill:#ffdb59;}.cls-15{fill:#ffd44b;}.cls-16{fill:#d3a922;}</style></defs><title>cerealbox</title><g id="Layer_2" data-name="Layer 2"><g id="paper"><g id="cereal_box" data-name="cereal box"><path class="cls-1" d="M200.07,6.36c2,6.18,4.38,14.62,4.38,14.62L11.3,102,0,67.82,65.45,46.15l9.79,5.45L133.6,30.54"/><path class="cls-2" d="M133.6,30.54l5.75-8.85S196.56.31,197.5,0c.35-.11,1.39,2.73,2.57,6.36Z"/><path class="cls-3" d="M10,76.32s1.34,23.45,1.51,25.56l9.05,12.64-9-12.64L110.8,368.82l7.7,10Z"/><path class="cls-4" d="M20.35,114.59C19.62,112.4,9.81,76.38,9.81,76.38s62-20.87,63.05-20.87,11.35,5.63,12.52,4.89,4.47-7.73,5.31-8.36,46.05-15.94,51.54-17.41,10.84,4.06,10.84,4.06L158.29,29l64.07-23.1,14.07,37.19Z"/><path class="cls-5" d="M28.65,148.6l5.23,2.51L20.35,114.59,11.3,102C12.06,103,28.65,148.6,28.65,148.6Z"/><polygon class="cls-6" points="20.57 114.52 117.18 379.6 302.18 307.58 236.52 43.34 20.57 114.52"/><path class="cls-7" d="M117.12,379.42l.06.18,185-72L245.34,78.84C217,149.31,145.89,308.43,117.12,379.42Z"/><path class="cls-8" d="M104.18,231.34c-.08-1.05,86.48-22,110-55.52,8.84-11.08,61.26,57.11-11.72,97.73S105,241.36,104.18,231.34Z"/><circle class="cls-9" cx="131.14" cy="186.33" r="9.9"/><path class="cls-10" d="M140.21,182.37a9.9,9.9,0,0,0-6.05-5.46,9.89,9.89,0,0,1-7.8,18.07,9.89,9.89,0,0,0,13.85-12.61Z"/><circle class="cls-9" cx="181.24" cy="172.35" r="6.43"/><circle class="cls-9" cx="143.71" cy="161.32" r="11.38"/><path class="cls-10" d="M149.68,151.63a11.38,11.38,0,0,1-14.7,17,11.38,11.38,0,1,0,14.7-17Z"/><circle class="cls-9" cx="110.89" cy="218.05" r="13.85"/><path class="cls-10" d="M116.82,205.53c.21.21.43.42.63.64a13.85,13.85,0,0,1-16.09,21.94,13.85,13.85,0,1,0,15.46-22.58Z"/><circle class="cls-9" cx="166.22" cy="209.11" r="14.51"/><circle class="cls-9" cx="166.22" cy="209.11" r="14.51"/><path class="cls-10" d="M170.36,195.21a14.49,14.49,0,0,1-13.58,24.9,14.5,14.5,0,1,0,13.58-24.9Z"/><circle class="cls-9" cx="204.69" cy="183.35" r="11.38"/><path class="cls-10" d="M209.6,173.09a11.37,11.37,0,0,1-4.5,18.82,11.34,11.34,0,0,1-8.49-.54,11.38,11.38,0,1,0,13-18.28Z"/><path class="cls-11" d="M254.22,114.57l-7.46-30-.63.21s-81.95,70.83-77.35,114.13c-13.49-8.74-10.43-23.65-14-22.46-6.16,2-3.23,25.39,5.6,29.76s-16.09-4.75-19.64-3.92,2.27,16.28,13.48,16-8.07,42.28,2.69,34.9,11-54,15.64-47.22,8,7.06,10,3.28-8.21-13.27-1.46-12,7.07,12.95,10.63,9-2.47-16.9-7.43-16.13C180.42,190.71,222.92,128.1,254.22,114.57Z"/><path class="cls-12" d="M161.27,238.37c-.62-3.45,4.15-22.08-6.25-26-4-1.48-12.57-2.57-12-6.31.36-2.41,8.44,1.66,11.22,2.47,6.49,1.9,9.68,1.08,10.21-.32-.93-3-15.13-23.52-10.23-26.57,3.16-.26,6.54,16.21,13,24.23C172.58,212.49,161.27,238.37,161.27,238.37Zm14-34.71c-.82-1.19-3.14-5.5-3.14-5.5C168.3,162.41,227.55,104.87,244,90.51l5.48,21.92c-9.54,4.82-24.52,15.87-45.12,41-6.26,7.66-12.32,15.8-17.06,22.92-7.49,11.27-7.06,12.74-6.65,14.17.51,1.75,8.28,4.9,7.33,6.93-1.42,2.22-9.68-5.8-12.47-1.42-1.36,2.15,3.59,10.58,3.74,11.49C179.15,207.65,177.28,206.6,175.25,203.66Z"/><path class="cls-11" d="M163.88,167.15c-1.48-4.48-6.32-20.15,2.49-19.24S164.5,169,163.88,167.15Z"/><path class="cls-12" d="M164.53,164.27c-2.46-8.34-2.46-13.92.09-14.76a3.68,3.68,0,0,1,1.6-.12,2,2,0,0,1,1.92,1.5C169.19,154.21,166.39,161,164.53,164.27Z"/><path class="cls-11" d="M208.14,175.19c1.1-6.31,6-19.4,15.94-12.68S220.84,166,208.14,175.19Z"/><path class="cls-12" d="M210.47,171.92c1.19-3.86,3.42-8.43,6.79-9.54,1.76-.59,3.78-.13,6,1.37a14.64,14.64,0,0,1,2.66,2.1,13.6,13.6,0,0,1-1.56.61c-.58.19-1.24.39-2,.61-.91.27-1.94.58-3,1A46,46,0,0,0,210.47,171.92Z"/><path class="cls-13" d="M215.32,174.92c9.78,17.46,9.7,81.43-32.16,107.22a109.32,109.32,0,0,0,19.32-8.59C272.83,234.39,226.66,169.62,215.32,174.92Z"/><path class="cls-14" d="M33.89,151.1C74,138,216.89,89.3,245.34,78.84l-8.91-35.78L20.35,114.59Z"/><path class="cls-15" d="M245.34,78.84l-8.47-34C205.8,61.5,109.58,114,53.5,144.59,108.16,126.3,220.48,88,245.34,78.84Z"/><path class="cls-16" d="M224.8,12.34c-19.19,6.17-63.6,21.05-63.6,21.05L154.75,43,16.92,102.34c1.73,6.3,3.17,11.46,3.43,12.25L236.43,43.06Z"/></g></g></g></svg>