<svg xmlns="http://www.w3.org/2000/svg" viewBox="0 0 51.93 81.02"><defs><style>.cls-1{fill:#f8f9ff;}.cls-2{fill:#dfe0e7;}.cls-3{fill:#a3a4a8;fill-opacity:0.44;}.cls-4{fill:#f2e35a;}.cls-5{fill:#d1c150;}.cls-6{fill:#163447;}.cls-7{fill:#fcee21;}.cls-8{fill:#d8bf56;}.cls-9{fill:#d6cd8a;}.cls-10{fill:#d8cf23;}.cls-11{fill:#953214;}.cls-12{fill:#c1b680;}.cls-13{fill:#9b8e3d;}</style></defs><title>chipbag</title><g id="Layer_2" data-name="Layer 2"><g id="Layer_2-2" data-name="Layer 2"><g id="Layer_2-3" data-name="Layer 2"><g id="chip_bag" data-name="chip bag"><polygon class="cls-1" points="0.12 68.77 2.09 71.01 5.39 71.72 7.62 73.6 10.39 73.69 11.46 75.38 14.59 74.58 16.02 76.63 19.42 75.83 20.75 77.35 23.44 76.81 25.49 78.06 28.97 77.53 30.05 78.96 32.55 77.88 34.51 79.85 36.92 79.05 38.18 80.47 41.21 79.67 44.43 80.56 46.04 80.3 47.26 81.02 38.71 63.23 0.12 68.77"/><polygon class="cls-2" points="0.62 68.28 2.59 70.51 5.89 71.22 8.13 73.1 10.89 73.19 11.96 74.89 15.09 74.08 16.52 76.14 19.92 75.33 21.26 76.86 23.94 76.32 25.99 77.57 29.48 77.03 30.55 78.46 33.05 77.39 35.01 79.36 37.42 78.55 38.68 79.98 41.72 79.18 44.93 80.07 46.54 79.8 47.76 80.53 39.21 62.74 0.62 68.28"/><path class="cls-3" d="M38.39,63.16c-3.4-.06-8.07,8.19-8.07,8.19S50.71,83.62,47.5,79,38.39,63.16,38.39,63.16Z"/><path class="cls-4" d="M21.18,9.21c0-.55,14.36-9.39,17.12-9.2S51.93,12.9,51.93,12.9L49.17,24.31l.37,9.21,1.67.92s0,10-.19,12.34-1.66,32.42-3.13,33.7l-7-4L37.38,66.12.74,69.25,0,65.75l14.37-6.44s-.93-2.76-.74-3.68S19.89,45,19.89,45l-1.84-9.39,4.59-15.3Z"/><path class="cls-5" d="M51.2,34.44l-1.67-.92-.29-8.43c-3.54-2.17-8.31,2.68-8.31,2.68L33.34,40.36s-10.7,17.51-11.51,18a88.24,88.24,0,0,1-9.33,1.73L0,65.75l.74,3.5,36.64-3.13,3.5,10.31.09,0c2.26-7.65,7.45-25.26,10.18-34.87C51.2,38.17,51.2,34.44,51.2,34.44Z"/><polygon class="cls-6" points="31.96 14.61 32.73 12.84 31.16 12.61 30.87 11.01 29.18 11.87 27.95 11.04 26.78 12.66 25.07 12.92 24.88 14.68 23.35 15.93 24.2 17.16 23.43 18.93 25.01 19.16 25.29 20.76 26.98 19.9 28.21 20.73 29.38 19.11 31.09 18.85 31.28 17.09 32.81 15.84 31.96 14.61"/><path class="cls-7" d="M25.29,18.07a1.74,1.74,0,0,0,.38-.14,1.88,1.88,0,0,0,.73-.58,2,2,0,0,0,.44-1.08h0a1.57,1.57,0,0,1-.82.66.74.74,0,0,1-1.07-.72,1.74,1.74,0,0,1,1.17-1.63c.71-.24,1.19.19,1.2,1.08a2.88,2.88,0,0,1-.56,1.83,2.53,2.53,0,0,1-1,.79,2.39,2.39,0,0,1-.44.18ZM25.41,16c0,.43.28.65.7.51a1.2,1.2,0,0,0,.68-.59.39.39,0,0,0,0-.18c0-.59-.24-1-.75-.81A1.08,1.08,0,0,0,25.41,16Z"/><path class="cls-7" d="M28.07,17.16a1.82,1.82,0,0,0,.39-.14,2,2,0,0,0,.73-.58,2.2,2.2,0,0,0,.44-1.07h0a1.54,1.54,0,0,1-.82.64.74.74,0,0,1-1.07-.71,1.75,1.75,0,0,1,1.17-1.63c.71-.24,1.19.19,1.21,1.08a2.72,2.72,0,0,1-2,2.79Zm.12-2.05a.49.49,0,0,0,.7.52,1.14,1.14,0,0,0,.68-.61.31.31,0,0,0,0-.19c0-.59-.25-1-.75-.81a1.1,1.1,0,0,0-.67,1.08Z"/><path class="cls-7" d="M30.42,13.53v-.19a.35.35,0,0,1-.28,0A.36.36,0,0,1,30,13a.68.68,0,0,1,.38-.61v-.19l.12,0v.19a.42.42,0,0,1,.22,0l0,.14a.34.34,0,0,0-.2,0,.45.45,0,0,0-.31.44c0,.22.15.3.32.24a.94.94,0,0,0,.22-.12l0,.11a.71.71,0,0,1-.22.13v.19Z"/><path class="cls-8" d="M38.3,0C35.54-.18,21.18,8.66,21.18,9.21l.34,2.54c4.89-3.38,14.25-8.34,16.15-8.4C41,3.23,48.25,9.89,51,16.74l.93-3.84S41.07.19,38.3,0Z"/><path class="cls-9" d="M22.06,45.79c-.62-.73,5.09-5.39,7.12-5.29s1.43,3.36,2.75,2.86A6.77,6.77,0,0,1,34.57,43s-2,6-4.37,5.8S23.18,47.11,22.06,45.79Z"/><path class="cls-9" d="M24.45,56.29c-.82-1,6.73-7.13,9.42-7s1.89,4.44,3.64,3.76A9,9,0,0,1,41,52.53s-2.7,7.93-5.79,7.66S25.93,58,24.45,56.29Z"/><path class="cls-9" d="M32.79,48.39c-.79-.94,6.54-6.93,9.15-6.8s1.83,4.32,3.53,3.66a8.69,8.69,0,0,1,3.39-.52s-2.62,7.71-5.62,7.45S34.23,50.09,32.79,48.39Z"/><path class="cls-10" d="M35.58,30.36s-1.71-4.83,3.7-6.62S46,22.59,46.39,26,40.59,28.21,35.58,30.36Z"/><path class="cls-11" d="M40.84,12.42c5.28-.34,8.42,5.61,8.53,6.39s-2.91,8.31-2.91,8.31-1.8-5.5-5.72-3S35.12,28.37,35.45,30s-4.7-8-4.37-10.43S35.57,12.75,40.84,12.42Z"/><path class="cls-12" d="M45.47,45.25c-1.7.66-.92-3.53-3.53-3.66-1-.05-2.77.84-4.47,2,2.08.05,6.13.32,5.8,1.79s2.81,1.29,5,1c.4-1,.64-1.63.64-1.63A8.74,8.74,0,0,0,45.47,45.25Z"/><path class="cls-12" d="M41,52.53a8.88,8.88,0,0,0-3.5.53c-1.75.68-1-3.63-3.64-3.76A8.22,8.22,0,0,0,30,50.89c1.52-.23,3.51-.49,3.82.37.53,1.52.26,5.72,2.05,5.09A39.53,39.53,0,0,0,40.41,54C40.79,53.15,41,52.53,41,52.53Z"/><path class="cls-12" d="M33.33,43c-.69,1.55-2,4.24-3.28,4.87-1.63.81-6.57-2.58-7.45-3.2-.47.52-.69.95-.54,1.12,1.12,1.32,5.8,2.75,8.14,3s4.37-5.8,4.37-5.8A6.44,6.44,0,0,0,33.33,43Z"/><path class="cls-13" d="M49.08,34.56l2.12-.11-1.67-.92L49.2,25.4a22.49,22.49,0,0,0-2.28,5.05Z"/><path d="M29.63,36.35c.27.72-.41,1.49-.85,1.81a2.13,2.13,0,0,1-2.2.22,2,2,0,0,1-.9-1.77,5.35,5.35,0,0,1,3-4.58,1.41,1.41,0,0,1,1.43,0,1.92,1.92,0,0,1,.55.77,1.18,1.18,0,0,1-.09.92c-.17.34-.31.74-.43,1,0,.08-.1.15-.24.06s-.41-.47-.25-1,.55-1.15.3-1.41-1.9.54-2.84,2.11-.82,3.1-.3,3.51,1.79-.16,2.59-1.72C29.47,36.21,29.58,36.21,29.63,36.35Z"/><path d="M35.51,35.7a.65.65,0,0,1,.41.46c0,.09,0,.14-.11.12a2.92,2.92,0,0,0-.59,0c-.36.68-.73,1.43-1.07,2.23,0,.1-.12.11-.18,0s-.24-.52,0-1.16a10,10,0,0,1,.44-1c-.77.1-1.58.24-2.07.24-.33.65-.66,1.35-1,2,0,.11-.12.14-.19,0s-.24-.51-.05-1.15a10.42,10.42,0,0,1,.45-1.08.72.72,0,0,1-.36-.33c-.06-.13,0-.17.14-.16l.44,0a39.31,39.31,0,0,1,2.08-3.83c.1-.13.19-.1.26,0,.16.3.12.81-.27,1.56-.3.59-.73,1.33-1.19,2.21.73-.1,1.38-.28,2.07-.32a38.22,38.22,0,0,1,2-3.59c.11-.13.2-.12.27,0,.14.3.11.8-.33,1.58C36.38,34.17,36,34.88,35.51,35.7Z"/><path d="M40.09,32c.15.3.14.81-.31,1.61-.66,1.14-1.81,3.18-2.58,4.9,0,.11-.09.12-.17,0s-.27-.52,0-1.17A30.7,30.7,0,0,1,39.85,32C39.93,31.88,40,31.9,40.09,32Z"/><path d="M41.47,32.7c0-.11,0-.18.11-.19.87-.09,1.67-.53,2.38-.56a1.12,1.12,0,0,1,1.25.87,2,2,0,0,1-.31,1.8,4.77,4.77,0,0,1-3,1.87,1,1,0,0,1-.65-.11c-.3.58-.62,1.28-1,2.15,0,.1-.1.1-.17,0s-.25-.48-.1-1a22.87,22.87,0,0,1,2.18-4.38A.78.78,0,0,1,41.47,32.7Zm3.28.21c-.22-.58-1.27,0-2,.17a2.36,2.36,0,0,1-.41,1.16c-.27.48-.56,1-.88,1.56,2.36-.45,3.55-2.15,3.26-2.89Z"/></g></g></g></g></svg>