<svg xmlns="http://www.w3.org/2000/svg" viewBox="0 0 86.01 62.78"><defs><style>.cls-1{fill:#a09e9b;}.cls-1,.cls-2,.cls-3{stroke:#ececeb;}.cls-1,.cls-2,.cls-3,.cls-4{stroke-miterlimit:10;stroke-width:0.96px;}.cls-1,.cls-2,.cls-5{opacity:0.5;}.cls-1,.cls-2,.cls-4{isolation:isolate;}.cls-2{fill:#ececeb;}.cls-3{fill:none;}.cls-4{fill:#c6c5c3;stroke:#f0efef;opacity:0.66;}.cls-6{fill:#fffefd;}</style></defs><title>container</title><g id="Layer_2" data-name="Layer 2"><g id="Layer_2-2" data-name="Layer 2"><g id="Layer_2-3" data-name="Layer 2"><g id="Plastic_Mixed" data-name="Plastic Mixed"><g id="container"><g id="plastic_container_with_symbol" data-name="plastic container with symbol"><path class="cls-1" d="M76.87,13.58,52.31,1.38A9,9,0,0,0,45.5,1.1L2.88,15.22a4,4,0,0,0-2.19,2,2.16,2.16,0,0,0,.47,2.54s23.75,18.64,27,18.47c1.87-.1,1.13-.3,3.51-1.11L75.36,18.44C77.36,17.33,79.21,15.87,76.87,13.58Z"/><path class="cls-1" d="M37,62.3A8.29,8.29,0,0,1,32.31,61l-23.65-17C7.18,43,6.79,41,7.67,38.81a6.18,6.18,0,0,1,3.38-3.13l0,0L52.21,18.94a11.31,11.31,0,0,1,4-.72,8.45,8.45,0,0,1,4.56,1.16L83.64,32.17l.24.24a4.59,4.59,0,0,1,1.57,4.29c-.36,1.75-1.86,3.24-4.23,4.19l-40,20.63-.1,0A11.13,11.13,0,0,1,37,62.3Z"/><path class="cls-2" d="M81.36,34.09l-22-12.4c-1.44-1-4.4-1.15-6.61-.28L12.85,37.71a3.91,3.91,0,0,0-2.13,1.9c-.25.63-.61,2,.26,2.66l23,16.46c1.44,1,4.4,1.15,6.61.28L80.11,38.66C82.26,37.17,83.62,36.32,81.36,34.09Z"/><path class="cls-3" d="M76.26,13.3,52.46,1.36C51,.31,47.92.18,45.65,1.08l-42.52,14A3.61,3.61,0,0,0,1,16.83a1.48,1.48,0,0,0,.7,1.82L24.6,35.09c1.47,1,4.53,1.18,6.81.29L74.82,16.83C77.1,15.93,77.74,14.35,76.26,13.3Z"/><path class="cls-4" d="M2.41,21S6.73,32.19,6.73,32.22,22.29,46.94,28.23,47.3,68.88,29.27,70,28.45s4-8,4.64-9.54a.12.12,0,0,0-.05-.16.17.17,0,0,0-.1,0C70.7,20.44,31.19,37.89,28.27,38.2,24.66,38.59,2.41,21,2.41,21Z"/><path class="cls-3" d="M16.36,29.17S46.52,17,47.88,16.93s11.48,6.5,11.48,6.5"/><path class="cls-3" d="M47.52,16.93s1-7.45.79-8.92,1.13,7.2.37,8.92Z"/><path class="cls-3" d="M5.89,21.66s39.54-14,42.47-14S72,18,72,18"/><path class="cls-3" d="M2.7,17.73c.35-1.51,41.93-16.32,46.21-16s25,11.81,25,13.11S68,19.73,68,19.73"/><line class="cls-3" x1="38.62" y1="3.4" x2="38.62" y2="4.53"/><line class="cls-3" x1="6.79" y1="13.92" x2="6.79" y2="15.07"/></g><g id="symbol" class="cls-5"><path class="cls-6" d="M49.55,30.77,46.35,30l0,1c-7.7.76-13.83,4.3-13.92,8.18l3.45-.2c.08-2.94,4.65-5.62,10.42-6.27l0,1,3.26-1.11,3.26-1.11Z"/><path class="cls-6" d="M32.83,42.43l0,1.84,1.72-.58c4.32,2.87,12.89,3.36,19.75,1l-1.69-1.38c-5.17,1.77-11.65,1.43-15-.68l1.75-.6-3.2-.74-3.21-.73Z"/><path class="cls-6" d="M60.62,42.16l3.25-1.1-1.7-.39c3.38-3.64.94-7.67-5.81-9.21L54.59,33c5.09,1.16,7,4.19,4.59,6.94l-1.72-.39-.05,1.84,0,1.84Z"/></g></g></g></g></g></g></svg>