<svg xmlns="http://www.w3.org/2000/svg" viewBox="0 0 700.34 287.16"><defs><style>.cls-1{fill:#c6c6c4;}.cls-2{fill:#dee1df;}.cls-3{fill:#fcfcfc;}.cls-4{fill:#fff;}.cls-5{fill:#e5e5e5;}.cls-6{fill:#ee164c;}</style></defs><title>EGGS</title><g id="Layer_2" data-name="Layer 2"><g id="Layer_2-2" data-name="Layer 2"><g id="Layer_2-3" data-name="Layer 2"><g id="Egg"><path class="cls-1" d="M354.39,102.33A29.22,29.22,0,0,1,324,106.5c-10.33-4.5-8.81-38.2-5.18-46.09s11.69-8.93,13.62-9.18,10-1.3,15.52,5.39S363.23,95.34,354.39,102.33Z"/><path class="cls-2" d="M354,215.53l1.1,8.45h-.2l-1.09-8.42Z"/><path class="cls-2" d="M329.76,31.82l2.75,20h.17l-2.62-20Z"/><polygon class="cls-1" points="698.96 146.35 683.68 171.92 354.74 221.37 354.56 221.41 23.95 258 2.6 237.21 698.96 146.35"/><path class="cls-2" d="M700,139.86l-1,16.11-15.84,16L670,175s-16.44,35.43-33.38,39.43a62.38,62.38,0,0,1-23,1.19,47.94,47.94,0,0,1-29.91-17.93,140.09,140.09,0,0,0-18.7,4s-14.26,28.19-44.13,32c-34.76,4.54-46.45-23.36-46.45-23.36l-26.6,3.47s-17.25,27-35,29.54c-27.59,3.86-27.66-8.63-44.53-20.46a74.44,74.44,0,0,1-13.17.95h.1l-1.1-8.44,303.86-39.64,7.82-5.82,17.64-2.31,12.85-13Z"/><path class="cls-2" d="M354.89,224h.1a73.31,73.31,0,0,1-13,2.47c-13.27,15.77-10.15,27.84-37.78,31.19-17.91,2.17-41.54-19.54-41.54-19.54l-26.6,3.47S232,271.49,197.2,276c-29.91,3.9-50.92-19.61-50.92-19.61a141.81,141.81,0,0,0-19.11.93,48.07,48.07,0,0,1-24.3,25,62.42,62.42,0,0,1-22.51,4.77C63,287.63,38,257.59,38,257.59l-13.47.46L5.12,246.51,0,231.18l7.48,13.46,15.77,9.24,17.62-2.3,9.06,3.62L353.8,215.56Z"/><path class="cls-2" d="M354,215.53l1.1,8.45h-.2l-1.09-8.42Z"/><path class="cls-2" d="M329.76,31.82l2.6,20h.15l-2.45-20Z"/><path class="cls-2" d="M699.93,140.3v.46a19.68,19.68,0,0,1-.65,10.35h0a11.36,11.36,0,0,1-1.87,3.14,21.31,21.31,0,0,1-3.7,3.59h0a23.67,23.67,0,0,1-2.12,1.48h0a22.18,22.18,0,0,1-4.51,2.14l-305.16,46-4.1-4.52s-22.9,3.69-25,3.34h0c-2.07.88-25.15,3.19-25.15,3.19l-2.81,5.44L17.94,248.77a21.67,21.67,0,0,1-4.91-.9h0a25.32,25.32,0,0,1-2.42-.88h0a20.92,20.92,0,0,1-4.5-2.52,11.7,11.7,0,0,1-2.61-2.55h0a19.79,19.79,0,0,1-3.33-9.83v-.47c-.84-7.29,5.5-17.49,5.5-17.49L9,209.42S3.14,180.07,3.6,168.67c0,0,29.44-88.37,52.86-97,22.6-8.35,263.48-38.72,273.3-40l2.6,20c-2.15.27-9.9,1.47-13.47,9.16s-4.47,40.36,5.86,44.86a29.6,29.6,0,0,0,29.14-3.89c8.83-7-.3-38.16-5.86-44.86s-13.2-5.69-15.35-5.4l-2.62-20C339.84,30.28,580.49-2.13,604.45.11c24.84,2.29,76,80.11,76,80.11,3.34,10.86,5.31,40.63,5.31,40.63l4.37,3.73S698.85,133,699.93,140.3Z"/><path class="cls-1" d="M224.63,173.41c-18.71,2-17.75,9.71-17.07,16.69.53,5.42-.48,11.28,16.14,8.61,19.57-3.14,24-4.61,23-12.52C245.51,176.4,239.6,171.84,224.63,173.41Z"/><path class="cls-3" d="M687.67,155.32A40.89,40.89,0,0,1,670.09,162L383.31,202.61l-6.07-4.67-50.44,6.59-4.7,6.06L34.56,245a40.88,40.88,0,0,1-18.71-2c-21.47-8.26-12.11-22.74-12.11-22.74l5.67-10.73,2.47,1.08s-.8,1.82-5.77,10.51c-5.18,9.07,3.1,13.77,11,17.43s19.39.92,19.39.92l281.46-34.12,5.11-5.74,56.56-7.37,6.39,4.24,280.82-39.26s11.82-.31,18.49-5.85,13.49-12.24,6.16-19.68c-7-7.13-8.34-8.66-8.34-8.66l2.12-1.67,8.27,8.89S706.31,142,687.67,155.32Z"/><path class="cls-3" d="M673.28,93.27c-21.7,19.14-320.11,49.58-328.67,50.45h-.18c-8.5,1.37-304.71,48.51-330.61,35.58-21-10.48,38.38-96.46,39.83-98.58-1.31,2.13-45.51,75.1-36.81,88.2s317.45-35.3,326.08-36.68h.19c8.67-.89,319.54-33.28,324.6-48.2S611.3,9.94,609.48,8.2C611.46,9.87,690.92,77.76,673.28,93.27Z"/><path class="cls-4" d="M221.44,200.19c.81-.1,6.2-.73,7.06-.86,1.39-.24,3.61-.47,4.84-.64,7.48-1,9.35-5.32,9.55-10.56a38,38,0,0,0-1.17-9.73c-1.22-3.66-5.87-6.09-11.68-5.34-1,.11-4,.11-5,.26-6.46.92-11.1,1.49-12.35,3.59-.58,1-1.3,2.09-1,6.54C212.5,195.85,214.24,201.14,221.44,200.19Z"/><path class="cls-5" d="M232.64,197.24c-1.33.48-9.78,1.23-10.48,1.33-6.36.84-7.89-3.83-8.58-14.76-.25-3.94.29-7.15,3.78-7.6-1.39,4.54-1.82,17.79,2,19.58,3.34,1.57,14.42-.52,18.07-2.92A18.82,18.82,0,0,1,232.64,197.24Z"/><path class="cls-1" d="M468,141.65c18.59-2.9,19.64,4.84,20.76,11.68.88,5.37,3.33,10.8-13.35,12.47-19.75,2-24.4,1.67-25.47-6.19C448.6,149.91,453.14,144,468,141.65Z"/><path class="cls-4" d="M478,166.73c-.78.1-6.16.89-7,1-1.41.14-3.62.49-4.86.64-7.49.93-10.4-2.74-11.93-7.76a38.3,38.3,0,0,1-1.37-9.7c.23-3.84,4.1-7.39,9.85-8.14,1-.14,3.83-.9,4.9-1,6.49-.77,11.12-1.42,12.85.28.84.82,1.81,1.67,2.69,6.08C485.5,160.32,485.16,165.8,478,166.73Z"/><path class="cls-5" d="M466.37,166.75c1.42.12,9.78-1.32,10.48-1.4,6.36-.84,6.68-5.74,4.51-16.49-.79-3.86-2.11-6.83-5.59-6.38,2.5,4.06,6.3,16.69,3.07,19.46-2.84,2.37-14,3.19-18.21,1.81A19.43,19.43,0,0,0,466.37,166.75Z"/><path class="cls-6" d="M438.52,70.67l-.09,2.1-5.4.64V71.89l5-1.19Zm-4.61-21.41V47.72l5.41-.65-.09,2.12h-.38Zm3.34,9.91c.15-4,.32-7.94.35-11.86l3.7-.45c-.26,3.88-.43,7.87-.58,11.9v1.46c-.18,4.41-.33,8.35-.37,12.34l-3.7.43c.26-3.89.41-7.88.58-11.9Zm16.27,5L453,71l-14.54,1.67V70.79l13.18-1.57-1.8,2.12,1.47-7Zm-5.87-4.67-8.73,1V58.77l8.73-1Zm2.48-13.71,1.67,1.67L439.38,49l.09-1.92,13.77-1.67v6.79l-2.17.25Zm-3.67,12.47.74-4.14,1.66-.21L448.51,63l-1.67.2L446.43,59Z"/><path class="cls-6" d="M481.79,65.91a20,20,0,0,1-8.56,3.34c-7.71.92-12.73-4.17-12.43-11.86a15.41,15.41,0,0,1,13.63-15,13.57,13.57,0,0,1,7.68.91v5.55l-2.35.28L479,43.5l2.35.49v2.18a8.2,8.2,0,0,0-6.55-2c-5.4.65-9.53,5.31-9.82,12.64s3.17,11,9.18,10.31a14.55,14.55,0,0,0,6.08-2.3l-1.91,2V64.65c.12-2.92.2-5.91.24-8.82l3.7-.45c-.18,2.89-.35,5.85-.47,8.85Zm-7.24-8.07V56.32l10-1.2v1.53l-4.25.89-.77.08Z"/><path class="cls-6" d="M512.35,62.26a20.23,20.23,0,0,1-8.58,3.34c-7.71.93-12.73-4.16-12.43-11.87a15.41,15.41,0,0,1,13.63-15,13.31,13.31,0,0,1,7.68.92v5.54l-2.34.28-.75-5.57,2.37.48-.1,2.19a8.09,8.09,0,0,0-6.56-1.95c-5.39.63-9.53,5.29-9.81,12.61s3.17,11,9.19,10.32a14.59,14.59,0,0,0,6-2.32l-1.82,2L509,61c.1-2.92.18-5.91.22-8.81l3.7-.43c-.18,2.88-.33,5.84-.45,8.82Zm-7.26-8.06V52.66l10-1.2V53l-4.25.88-.77.1Z"/><path class="cls-6" d="M534.38,55.32c.1-2.49-1.37-3.34-4.67-4.33l-1.44-.4c-3.87-1.06-6.49-3-6.34-6.89.18-4.4,4-7.52,8.93-8.11a9.12,9.12,0,0,1,6.2,1.27l-.43,5-2.32.26-.85-5.65,2.42,1v1.92a6,6,0,0,0-5.27-1.85c-3,.37-5.34,2.14-5.44,5-.1,2.42,1.41,3.64,4.18,4.37l1.49.4c5,1.35,6.89,3.34,6.68,6.94-.19,4.53-4.11,7.75-9.4,8.35a13.33,13.33,0,0,1-7.39-1.14l.43-5.41,2.32-.26.77,5.77-2.46-.77V58.94A8.2,8.2,0,0,0,528,60.61C531.76,60.29,534.26,58.3,534.38,55.32Z"/></g></g></g></g></svg>