<svg xmlns="http://www.w3.org/2000/svg" viewBox="0 0 70.92 39.49"><defs><style>.cls-1{fill:#eac5a0;}.cls-2{fill:#ceac8e;}.cls-3{fill:#c98f5b;}.cls-4{fill:#b78155;}.cls-5{fill:#b57e5e;}.cls-6{fill:#af7b58;}.cls-7{fill:#efdebf;fill-opacity:0.48;}</style></defs><title>eggshell</title><g id="Layer_2" data-name="Layer 2"><g id="Layer_2-2" data-name="Layer 2"><g id="Layer_2-3" data-name="Layer 2"><g id="Compost"><g id="eggshell"><path class="cls-1" d="M23.38,33.85c-1.81,0-10.42,4.63-12.13-.93-1.09-3.53,4.47-14,4.62-18.56a22.93,22.93,0,0,1,1-6.72c1.25,1.19,5.25,2.19,5.25,2.19l3.29,2.91.19-.17L29,18.87l-.22,1.42.28,1.23.57,6.39,1.66.06,0,1.45,0,.08c0,.12.72,1.57,0,2.5s-3.24,1.76-7.89,1.84Z"/><path class="cls-2" d="M35.23,28.83l-.1-2.66-2-.06-.57-5.88-.29-1.17.29-1.74-5-8.66L26,10,25,11.32s-7.88-8.07-8.28-7.8C13,6.06,12.79,35.38,24.73,35.18S35.23,28.83,35.23,28.83Zm-6.38,3.59C22.13,32,19.26,31,19.26,31c-1.81,0-.23,1.72-2-3.84a40.76,40.76,0,0,1-1.49-12.75,32.47,32.47,0,0,1,1-6.72l.7,1.57,7.91,3.52,3.17,6.08-.27,1.73.28,1.23.45,6.09,1.71.57L31,29.72S31.49,32.59,28.85,32.42Z"/><path class="cls-3" d="M17.43,0S4.68,1.81,1.26,12s.19,18.46,10.37,22.93S34.37,33,34.37,33L36,29.21l-.86-3-.38.66.48,2L33.9,32.26l-4.57,1.9S15,30.93,14.67,30.93a15.08,15.08,0,0,0-2.09,2.19l-.28,1.14L11.91,33l2.38-2.66,1.62-4.1L13,24.65l2.29-1L16,20.27l2-1.14.57-8.47-2.1-1.52.76-2.67-.38-1.71.57-2.48L18,1.33Z"/><path class="cls-3" d="M18,20.27s1.43.66,1.43.95-.72,3.62-.72,3.62l2,1.33-.48,4.76-3.52,2s-3.33-4-3-4.09A31.16,31.16,0,0,0,16,25.6l-1.62-.86L15.72,24s-.67-3.62-.57-3.71A27.08,27.08,0,0,1,18,20.27Z"/><path class="cls-4" d="M17,31.21c-.67-.82-1.33-1.65-1.74-2.21.42-.54,1-1.37,1.87-2.67l.44-.67,1.7,1.16-.32,3.29Z"/><polygon class="cls-5" points="33.13 25.5 35.03 27.98 38.65 27.6 40.65 27.98 47.98 26.74 35.99 21.51 33.13 25.5"/><path class="cls-3" d="M56.07,29.31l1.14,3.61-1.14.39L58,35.87v1.24h3.62l2.85-3.42-1.71-4.38Z"/><path class="cls-6" d="M61.59,37.11l2.85-3.42-1.71-4.38H56.07l.75,2.37c1.18-.07,4.39-.09,4.39-.09l1.07,2.47-.77,3Z"/><path class="cls-3" d="M33.13,25.5c-.12.32,1.53-3,1.91-2.95a14.68,14.68,0,0,1,1.71.86l1.43-.86,1.62,2,2.57,2,.76.92h2.66l2.38.57L49.5,30h2.1l3.14,1.43,1.14-1.14,3.9.29h1.9l1.62,3.71-1.14,4.09h2.28l1,1.14,2.19-1.14S76,22.93,66.06,14.08C54.93,4.19,36.66,16.84,33.13,25.5Z"/><path class="cls-7" d="M63.91,23.47a3.83,3.83,0,0,0-4.23-4.11,4.74,4.74,0,0,0-4.44,4.56C55.12,26.38,57,26,59.45,25.85S63.79,25.92,63.91,23.47Z"/></g></g></g></g></g></svg>