<svg xmlns="http://www.w3.org/2000/svg" viewBox="0 0 351.2 144.01"><defs><style>.cls-1{fill:#c6c6c4;}.cls-2{fill:#dee1df;}.cls-3{fill:#fcfcfc;}.cls-4{fill:#fff;}.cls-5{fill:#e5e5e5;}.cls-6{fill:#ee164c;}</style></defs><title>eggs_1</title><g id="Layer_2" data-name="Layer 2"><g id="Layer_2-2" data-name="Layer 2"><g id="Layer_2-3" data-name="Layer 2"><g id="Egg"><path class="cls-1" d="M177.72,51.32a14.66,14.66,0,0,1-15.24,2.09c-5.18-2.26-4.42-19.16-2.6-23.12s5.86-4.47,6.83-4.6,5-.65,7.78,2.7S182.15,47.81,177.72,51.32Z"/><path class="cls-2" d="M177.52,108.08l.55,4.24H178l-.55-4.22Z"/><path class="cls-2" d="M165.36,16l1.38,10h.09l-1.32-10Z"/><polygon class="cls-1" points="350.51 73.39 342.85 86.22 177.89 111.01 177.8 111.03 12.01 129.38 1.31 118.95 350.51 73.39"/><path class="cls-2" d="M351,70.14l-.51,8.07-7.95,8.05L336,87.77s-8.25,17.77-16.74,19.78a31.29,31.29,0,0,1-11.53.59,24,24,0,0,1-15-9,71.12,71.12,0,0,0-9.38,2s-7.15,14.14-22.13,16.07c-17.44,2.28-23.29-11.71-23.29-11.71l-13.34,1.74S215.91,120.8,207,122.06c-13.83,1.93-13.87-4.33-22.33-10.26a38.37,38.37,0,0,1-6.6.48h.05l-.55-4.24L329.93,88.16l3.93-2.92,8.84-1.15,6.45-6.51Z"/><path class="cls-2" d="M178,112.33H178a36.83,36.83,0,0,1-6.51,1.23c-6.65,7.91-5.08,14-18.94,15.65-9,1.08-20.83-9.8-20.83-9.8l-13.34,1.74s-2.08,15-19.51,17.27c-15,2-25.54-9.83-25.54-9.83a69.71,69.71,0,0,0-9.58.47,24.07,24.07,0,0,1-12.18,12.55A31.32,31.32,0,0,1,40.3,144c-8.71.24-21.24-14.83-21.24-14.83l-6.75.24-9.74-5.79L0,115.93l3.75,6.75,7.91,4.63,8.84-1.15L25,128,177.42,108.1Z"/><path class="cls-2" d="M177.52,108.08l.55,4.24H178l-.55-4.22Z"/><path class="cls-2" d="M165.36,16l1.31,10h.07l-1.23-10Z"/><path class="cls-2" d="M351,70.36v.23a10,10,0,0,1-.33,5.19h0a5.7,5.7,0,0,1-.94,1.57,10.51,10.51,0,0,1-1.85,1.8h0a11.4,11.4,0,0,1-1.07.75h0A11.13,11.13,0,0,1,344.55,81L191.53,104l-2.06-2.27s-11.49,1.85-12.56,1.68h0c-1,.44-12.61,1.6-12.61,1.6l-1.41,2.72L9,124.75a10.26,10.26,0,0,1-2.46-.45h0c-.37-.12-.79-.26-1.22-.44h0a10.48,10.48,0,0,1-2.26-1.27,5.45,5.45,0,0,1-1.3-1.28h0a9.86,9.86,0,0,1-1.68-4.92v-.24c-.41-3.66,2.77-8.77,2.77-8.77L4.52,105S1.57,90.3,1.81,84.58c0,0,14.76-44.31,26.5-48.62,11.33-4.19,132.13-19.42,137.05-20l1.31,10a8.33,8.33,0,0,0-6.75,4.59c-1.8,3.86-2.25,20.24,2.93,22.5a14.88,14.88,0,0,0,14.62-2c4.42-3.52-.16-19.14-2.94-22.5a8.18,8.18,0,0,0-7.7-2.71l-1.32-10C170.42,15.19,291.1-1.07,303.12.06c12.45,1.14,38.09,40.17,38.09,40.17,1.68,5.45,2.67,20.38,2.67,20.38l2.19,1.86S350.45,66.68,351,70.36Z"/><path class="cls-1" d="M112.65,87c-9.38,1-8.91,4.87-8.56,8.37.26,2.72-.25,5.66,8.09,4.32,9.82-1.58,12-2.31,11.55-6.28C123.12,88.46,120.15,86.17,112.65,87Z"/><path class="cls-3" d="M344.85,77.89A20.65,20.65,0,0,1,336,81.24L192.22,101.61l-3.05-2.35-25.29,3.31-2.36,3L17.33,122.86a20.48,20.48,0,0,1-9.38-1c-10.77-4.15-6.08-11.41-6.08-11.41l2.85-5.38,1.24.54s-.4.91-2.9,5.27c-2.59,4.55,1.56,6.91,5.51,8.74s9.72.46,9.72.46L159.44,103l2.56-2.87,28.36-3.7,3.21,2.12L334.39,78.86s5.93-.16,9.28-2.94,6.76-6.13,3.08-9.87c-3.53-3.57-4.18-4.34-4.18-4.34l1.06-.84,4.15,4.46S354.19,71.19,344.85,77.89Z"/><path class="cls-3" d="M337.63,46.77c-10.88,9.6-160.52,24.87-164.82,25.3h-.09c-4.26.69-152.8,24.33-165.79,17.84-10.51-5.25,19.25-48.37,20-49.43C26.25,41.55,4.08,78.14,8.44,84.71S167.64,67,172,66.31h.09c4.35-.44,160.24-16.68,162.78-24.17S306.55,5,305.64,4.11C306.63,5,346.48,39,337.63,46.77Z"/><path class="cls-4" d="M111.05,100.39l3.54-.43c.69-.12,1.81-.24,2.43-.32,3.75-.52,4.68-2.67,4.78-5.3a19.17,19.17,0,0,0-.58-4.88c-.61-1.83-3-3-5.86-2.68-.5.06-2,.06-2.51.14-3.24.46-5.57.74-6.2,1.8-.29.49-.65,1-.51,3.28C106.56,98.22,107.43,100.87,111.05,100.39Z"/><path class="cls-5" d="M116.66,98.91c-.67.24-4.9.62-5.25.67-3.19.42-4-1.92-4.3-7.41-.13-2,.14-3.58,1.89-3.8-.7,2.27-.91,8.92,1,9.81,1.68.79,7.23-.26,9.07-1.46A9.68,9.68,0,0,1,116.66,98.91Z"/><path class="cls-1" d="M234.69,71c9.33-1.45,9.85,2.43,10.41,5.86.45,2.7,1.68,5.42-6.69,6.25-9.9,1-12.24.84-12.77-3.1C225,75.18,227.24,72.2,234.69,71Z"/><path class="cls-4" d="M239.68,83.61c-.39,0-3.09.45-3.52.48-.71.07-1.82.24-2.44.32-3.76.47-5.21-1.38-6-3.89a19.09,19.09,0,0,1-.69-4.87c.12-1.92,2.06-3.7,4.94-4.08.5-.07,1.92-.45,2.46-.51,3.26-.39,5.57-.71,6.44.14.42.41.91.84,1.35,3C243.46,80.4,243.3,83.14,239.68,83.61Z"/><path class="cls-5" d="M233.87,83.62c.71.06,4.91-.66,5.26-.7,3.19-.42,3.35-2.88,2.26-8.27-.4-1.93-1.06-3.42-2.81-3.2,1.26,2,3.17,8.37,1.54,9.76-1.42,1.19-7,1.6-9.13.9A9.92,9.92,0,0,0,233.87,83.62Z"/><path class="cls-6" d="M219.9,35.44l0,1.05-2.71.32v-.76l2.51-.59ZM217.59,24.7v-.77l2.72-.32-.05,1.06h-.19Zm1.68,5c.07-2,.16-4,.17-6l1.86-.22c-.13,1.95-.22,3.95-.29,6v.74c-.09,2.21-.17,4.19-.18,6.19L219,36.6c.13-2,.21-4,.29-6Zm8.16,2.51-.27,3.44-7.29.84v-1l6.61-.79-.9,1.06.74-3.49Zm-3-2.34-4.37.52v-.89l4.37-.52ZM225.73,23l.84.84-6.23.74,0-1,6.91-.84v3.41l-1.09.12Zm-1.84,6.25.37-2.07.83-.11-.17,4.56-.84.1-.21-2.09Z"/><path class="cls-6" d="M241.61,33.05a10.07,10.07,0,0,1-4.3,1.68c-3.86.46-6.38-2.09-6.23-5.95a7.71,7.71,0,0,1,6.83-7.53,6.68,6.68,0,0,1,3.85.46v2.77l-1.18.15-.39-2.82,1.18.25v1.09a4.11,4.11,0,0,0-3.29-1c-2.7.32-4.78,2.66-4.92,6.33s1.59,5.53,4.6,5.17a7.13,7.13,0,0,0,3.05-1.15l-.95,1V32.42c.06-1.47.1-3,.11-4.42l1.86-.23c-.09,1.45-.17,2.93-.23,4.44ZM238,29v-.76l5-.6v.77l-2.13.44-.38,0Z"/><path class="cls-6" d="M256.93,31.22a10.33,10.33,0,0,1-4.3,1.68c-3.87.46-6.39-2.09-6.24-5.95a7.74,7.74,0,0,1,6.84-7.54,6.69,6.69,0,0,1,3.85.46v2.78l-1.17.14L255.53,20l1.19.24-.05,1.1a4,4,0,0,0-3.29-1c-2.7.32-4.78,2.65-4.92,6.33s1.59,5.53,4.61,5.17a7.31,7.31,0,0,0,3-1.17l-.91,1,0-1.11c.05-1.47.09-3,.11-4.42L257.2,26c-.09,1.45-.17,2.93-.23,4.43Zm-3.64-4v-.77l5-.6v.77l-2.13.44-.39.05Z"/><path class="cls-6" d="M268,27.74c0-1.25-.69-1.67-2.35-2.17l-.72-.2c-1.94-.53-3.25-1.49-3.18-3.45.1-2.21,2-3.78,4.48-4.07a4.58,4.58,0,0,1,3.11.63L269.11,21l-1.17.14-.42-2.84,1.21.49v1a3,3,0,0,0-2.64-.93,2.75,2.75,0,0,0-2.73,2.51c-.05,1.21.71,1.83,2.1,2.19l.74.2c2.51.68,3.46,1.68,3.35,3.49-.09,2.26-2.06,3.88-4.71,4.18a6.67,6.67,0,0,1-3.71-.57l.22-2.71,1.16-.13.39,2.89-1.23-.38v-.92a4.11,4.11,0,0,0,3.12.83C266.66,30.23,267.92,29.24,268,27.74Z"/></g></g></g></g></svg>