<svg xmlns="http://www.w3.org/2000/svg" viewBox="0 0 372.63 207.5"><defs><style>.cls-1{fill:#eac5a0;}.cls-2{fill:#ceac8e;}.cls-3{fill:#c98f5b;}.cls-4{fill:#b78155;}.cls-5{fill:#b57e5e;}.cls-6{fill:#af7b58;}.cls-7{fill:#efdebf;fill-opacity:0.48;}</style></defs><title>eggshell</title><g id="Layer_2" data-name="Layer 2"><g id="Compost"><g id="eggshell"><path class="cls-1" d="M122.84,177.84c-9.49,0-54.74,24.37-63.74-4.84-5.72-18.56,23.5-73.5,24.27-97.55C84,57,86.51,45.59,88.6,40.16c6.54,6.26,27.56,11.5,27.56,11.5l17.29,15.28,1-.9,17.91,33.12-1.13,7.45,1.47,6.45,3,33.61,8.68.29.25,7.61.12.45c.1.64,3.79,8.23.1,13.14-4.05,5.4-17.06,9.22-41.5,9.67Z"/><path class="cls-2" d="M185.1,151.5l-.5-14-10.53-.33-3-30.89-1.5-6.11L171.1,91,144.6,45.5l-8,7-5.5,7s-41.42-42.43-43.5-41C68.27,31.83,67.22,185.92,129.94,184.83S185.1,151.5,185.1,151.5Zm-33.5,18.83c-35.33-2.34-50.38-7.67-50.38-7.67-9.55,0-1.23,9.05-10.3-20.16-5.76-18.56-8.62-43-7.85-67a169.07,169.07,0,0,1,5.26-35.29L92,48.44l41.56,18.5L150.2,98.88l-1.39,9.1,1.48,6.45,2.34,32,9,3,1.21,6.73S165.46,171.24,151.6,170.33Z"/><path class="cls-3" d="M91.6,0s-67,9.5-85,63,1,97,54.5,120.5,119.5-10,119.5-10l8.5-20-4.5-16-2,3.5,2.5,10.5-7,18-24,10s-75.5-17-77-17-11,11.5-11,11.5l-1.5,6-2-6.5,12.5-14L83.6,138l-15.5-8.5,12-5,4-18,10.45-6,3-44.5-11-8,4-14-2-9,3-13,3-5Z"/><path class="cls-3" d="M94.55,106.5s7.55,3.5,7.55,5-3.77,19-3.77,19l10.27,7-2.5,25L87.6,173s-17.5-21-16-21.5,12.5-17,12.5-17L75.6,130l7-4s-3.5-19-3-19.5S94.55,106.5,94.55,106.5Z"/><path class="cls-4" d="M89.27,164c-3.52-4.32-7-8.69-9.12-11.63,2.18-2.84,5.25-7.21,9.78-14l2.35-3.53,8.94,6.09L99.5,158.2Z"/><polygon class="cls-5" points="174.1 134 184.04 147.04 203.1 145 213.6 147.04 252.1 140.52 189.1 113 174.1 134"/><path class="cls-3" d="M294.6,154c.5,1.5,6,19,6,19l-6,2,10,13.5V195h19l15-18-9-23Z"/><path class="cls-6" d="M323.6,195l15-18-9-23h-35c.4,1.19,2.5,7.84,3.94,12.44,6.2-.35,23.06-.44,23.06-.44l5.66,12.94L323.21,195Z"/><path class="cls-3" d="M174.1,134c-.68,1.67,8-16,10-15.5s9,4.5,9,4.5l7.5-4.51L209.1,129l13.5,10.64,4,4.86h14l12.5,3,7,10h11l16.5,7.5,6-6,20.5,1.5h10l8.5,19.5-6,21.5h12l5,6,11.5-6s44.32-81-8-127.5C288.6,22,192.6,88.5,174.1,134Z"/><path class="cls-7" d="M335.83,123.34c.65-12.88-9.32-22.56-22.27-21.63a24.92,24.92,0,0,0-23.29,24c-.65,12.88,9.16,11.06,22.11,10.12S335.18,136.22,335.83,123.34Z"/></g></g></g></svg>