<svg xmlns="http://www.w3.org/2000/svg" viewBox="0 0 77.46 101.05"><defs><style>.cls-1{fill:#adbcc4;}.cls-2{fill:#939fa3;}.cls-3{fill:#9ca9af;}.cls-4{fill:#c5d5dd;}</style></defs><title>garbagebag</title><g id="Layer_2" data-name="Layer 2"><g id="Layer_2-2" data-name="Layer 2"><g id="Layer_2-3" data-name="Layer 2"><g id="plastic_bag" data-name="plastic bag"><path class="cls-1" d="M8.94,3.62c1.27-1.08,2-1.5,3.87,5.63a49.16,49.16,0,0,1,1.75,12.38c.25,2.51-2,12.89.88,13.64s8-1.12,10.26-1.25,14.49,1.75,17.76,0,8.5,1.5,11,.12,4.5-4.38,3.12-8.75S61.22,5,60.47,2.75,61-1.74,63.35,2s9.13,17.63,9.5,21.26,3.38,7.63,2.13,13-.87,18.39-.87,18.39a49.24,49.24,0,0,1,.62,5.5c0,1.75-1.12,17.89-.37,20.64S78.74,90.68,77,92.43s-8.38,4.14-8.88,4.38.25,1.75-2.25,1.38-3.63-1.13-10.76,1.25-29.27.25-38.27,1.38S3.17,98.6,2.18,95.56c-.3-.93-4.75-39.53,0-49.91C.93,39.27,3.45,28.26,3.8,24.15S6.43,5.75,8.94,3.62Z"/><path class="cls-2" d="M9.06,37.52c-.38-.57-.84-6.9-1-13.6-.12-6.53.07-13.41,1-15.67,1.82-4.58.88-3,1.63-1.63s3.05,24.85,1,30.15C10.53,39.77,9.06,37.52,9.06,37.52Z"/><path class="cls-3" d="M59.18,33c-.51-.35-.17-2.34-.24-4.47s-.58-6.18.2-8.46c.91-2.66,1.86-17,2.72-17S65.43,37.24,59.18,33Z"/><path class="cls-4" d="M67.52,70S57.75,80.05,51,84c-1.35,2.37-4.05,5.69-9.36,9.88C37.5,97.11,65.14,80.1,67.52,70Z"/><path class="cls-4" d="M74.36,80.8c-.35-1.32-.29-5.76-.12-10.19-2.58,5-6.57,12.54-9.89,15.69-3.13,3-4.72,8.2-5.89,12.12a13.27,13.27,0,0,1,7.39-.23c2.5.37,1.75-1.13,2.25-1.38s7.13-2.63,8.88-4.38S75.11,83.55,74.36,80.8Z"/><path class="cls-4" d="M66.51,7.83c.75,7,3.06,22.91,3.34,25.48.38,3.33,2.13,4.46,2.63,7.71a11.85,11.85,0,0,0,1.63,4.75,57.43,57.43,0,0,1,.87-9.5c1.25-5.38-1.75-9.38-2.13-13C72.6,20.76,69.31,13.4,66.51,7.83Z"/><path class="cls-4" d="M15.82,91.06s-2.88,2.25-7.25-3A19,19,0,0,0,.81,82.31c.57,7.36,1.26,12.91,1.38,13.25,1,3,5.63,6.38,14.64,5.25q2.9-.32,5.8-.34a5.61,5.61,0,0,0,.45-3.92C21.69,91.56,15.82,91.06,15.82,91.06Z"/><path class="cls-4" d="M58.43,35.35c-1.21-.58-2.42,2.15-4.06,5.09-2.11,3.75-8.35,8.43-15.68,6.84-16-3.5-9.88,18.88-6.25,21,5,2.92,4.41-10.78,13.54-12.88C56.34,53,59.64,35.94,58.43,35.35Z"/><path class="cls-4" d="M14.63,39s7.51-1.51,13.76,0c2.38.56,2.69,2.12,5.38,2.62s6.75-1.31,6.75-1.31-4,3.32-6.75,2.88S26.08,40,14.63,39Z"/><path class="cls-4" d="M40.6,37.3c3.17.32,3.61-.95,6.56-.95s3.31,1.35,5.32,1.25-5.9,1.38-6.56,1.29C42.9,38.59,38.89,37.12,40.6,37.3Z"/><path class="cls-2" d="M15.11,36.23c-.4-.13,7.07.64,10.13-1.25,1.9-1.18,10.19,1.29,13,.8a30.78,30.78,0,0,0,6.51-1.68c1.32-.6,7,1.61,8.69,1.18a11.34,11.34,0,0,0,3.8-2.5S55.9,37,54.35,37.16s-7.3-2.76-9.3-2.18-5.71,1.55-6.82,1.75c-3,.52-9.42-1.28-11.88-.44S20.67,38,15.11,36.23Z"/><path class="cls-4" d="M6.71,29.26S4.8,56.33,12,67.79s3,5.78,6.54,9.93,1.51-6.06-5.11-13.49C8.54,58.73,6.71,29.26,6.71,29.26Z"/></g></g></g></g></svg>