<svg xmlns="http://www.w3.org/2000/svg" viewBox="0 0 61.17 87.92"><defs><style>.cls-1{fill:#00d3f3;fill-opacity:0.74;}.cls-2{fill:#4caabf;}.cls-3{fill:#0093b0;}.cls-4,.cls-5,.cls-7{fill:#fdfdfd;}.cls-4{opacity:0.34;}.cls-4,.cls-7{isolation:isolate;}.cls-5{fill-opacity:0.81;}.cls-6{fill:#00859a;}.cls-7{opacity:0.45;}</style></defs><title>glasscup</title><g id="Layer_2" data-name="Layer 2"><g id="Layer_2-2" data-name="Layer 2"><g id="Layer_2-3" data-name="Layer 2"><g id="Glass"><g id="glasscup"><path class="cls-1" d="M54.54,60.18C55.27,64,61,75.44,61,75.44c1.8,3.86-14,9.48-14,9.48s-15.78,5.61-16.83,1.49c0,0-2.78-12.51-4.64-15.93s-6.34-13.43-8.48-15.91S1.58,23.67,0,13.7c1.6-1.23,11.07-4.26,19.18-7C27.23,3.71,36.48.06,38.49,0c5.08,8.73,12.67,39.21,12.58,42.48S53.81,56.36,54.54,60.18Z"/><path class="cls-2" d="M43.69,75.55c-8.82,3.24-12.06,5.79-11.31,7,.65,1,9.85-.9,13.22-1.65,3.09-1.55,11.46-5.85,11.29-7.07C56.7,72.41,52.58,72.5,43.69,75.55ZM54,74.16c-.2,1.68-4,4.35-8.61,6.23-4.77,1.45-9.4,1.79-10.61.61s6.48-3.86,9.13-4.75S54.2,72.64,54,74.16Z"/><path class="cls-3" d="M.34,13.48c.09-.06.2-.11.31-.17a.63.63,0,0,0,.39.3c.81.19,4.07-1.22,4.22-1.09S1.42,13.9,1.55,14.78C3.32,26.7,16.11,50.36,17.34,52.43c2.4,3.61,7.39,11.94,8.81,14.78s4.12,9.62,5.5,11.92,1.69,3,3.24,3-2.55.9-3.52-1.26-4.45-11-5.85-13.77c-.65-1.29-7.8-12.87-8.78-14.42S1.17,21.46.34,13.48Z"/><path class="cls-3" d="M61,75.42l-.35-.71c-.23-.45-.56-1.12-.93-1.91a8.44,8.44,0,0,1-3.39,3.58c-1.85.9-7.16,3.61-10.54,5.09-3.55,1-9.37,2.24-11.37,2.71a8.59,8.59,0,0,1-4.9-.64c.21.86.38,1.58.49,2.07s.17.78.17.78l.06.16a.14.14,0,0,0,0,.06l.05.09,0,.07,0,.07.1.14,0,0,.08.09s0,0,0,0c.89.84,2.93.91,5.27.62a5.63,5.63,0,0,1-.33-.76s8.09-1.63,11.18-2.85a101.77,101.77,0,0,0,10.48-4.86,7.76,7.76,0,0,1,.22.79c2-1.24,3.53-2.58,3.7-3.81v-.44s0,0,0-.07l0-.11,0,0A.8.8,0,0,0,61,75.42ZM46.62,83.77C43,84.82,35.27,86,35.17,85.1c-.07-.75,6.8-2,10.79-3.17,3.84-1.62,10-5,10.37-4.36.53.78-6.24,4.72-9.71,6.2Z"/><path class="cls-4" d="M5.79,11.25c1.78,6.76,8.09,28,10.3,30.54-3.15-.63-9.73-21.72-12.16-29.88C4.52,11.69,5.15,11.47,5.79,11.25Z"/><path class="cls-3" d="M38.48,0c.28,1-19,7.5-19,7.5C15.18,9.13.44,14.68,0,13.69c1.62-1.22,11.07-4.24,19.17-7h0C27.23,3.71,36.47.07,38.48,0Z"/><path class="cls-5" d="M23,6.36C24.08,9.67,28.38,18.69,31,24c3,6,5.13,12.87,7.66,20.86a209.43,209.43,0,0,1,6.75,30l1.77-.51S43.34,53.52,41,43.79a221,221,0,0,0-7.14-22c-2.08-5.65-4.56-11.68-6.81-16.84Z"/><path class="cls-6" d="M38.09,0l-.35.07a.63.63,0,0,1-.11.48c-.5.66-3.91,1.68-3.94,1.88,0,0,3.84-1.42,4.3-.65C44.14,12.18,49.17,38.6,49.53,41c.41,4.31,1.82,13.92,2.5,17s2.88,10.06,3.27,12.72.56,3.35-.6,4.4,2.55-.91,1.93-3.2-3.52-11.37-4.17-14.37c-.3-1.41-2.08-14.91-2.29-16.73S42.49,6.76,38.09,0Z"/><path class="cls-7" d="M32.08,3.13C35,9.5,48.44,45.36,48.35,48.75c2-2.47-11.4-38.41-14.66-46.28C33.09,2.68,32.72,2.9,32.08,3.13Z"/></g><path class="cls-5" d="M23,6.36C24.08,9.67,28.38,18.69,31,24c3,6,5.13,12.87,7.66,20.86a209.43,209.43,0,0,1,6.75,30l1.77-.51S43.34,53.52,41,43.79a221,221,0,0,0-7.14-22c-2.08-5.65-4.56-11.68-6.81-16.84Z"/><path class="cls-6" d="M38.09,0l-.35.07a.63.63,0,0,1-.11.48c-.5.66-3.91,1.68-3.94,1.88,0,0,3.84-1.42,4.3-.65C44.14,12.18,49.17,38.6,49.53,41c.41,4.31,1.82,13.92,2.5,17s2.88,10.06,3.27,12.72.56,3.35-.6,4.4,2.55-.91,1.93-3.2-3.52-11.37-4.17-14.37c-.3-1.41-2.08-14.91-2.29-16.73S42.49,6.76,38.09,0Z"/><path class="cls-7" d="M32.08,3.13C35,9.5,48.44,45.36,48.35,48.75c2-2.47-11.4-38.41-14.66-46.28C33.09,2.68,32.72,2.9,32.08,3.13Z"/><path class="cls-1" d="M21.85,63l1-.32c-2.36-3.88-5.51-9-6.14-10C15.72,51.09,1.55,22.25.38,13.8c-.2,0-.33,0-.37-.12.11-.07.22-.15.33-.21h0A4,4,0,0,0,0,13.7c1.58,10,15,38.39,17.09,40.87C18.25,55.92,20.1,59.47,21.85,63Z"/><path class="cls-1" d="M34.42,84.18c2-.47,7.82-1.73,11.38-2.71,3.38-1.48,8.68-4.19,10.53-5.09a8.5,8.5,0,0,0,3.39-3.58c-1.74-3.62-4.67-10-5.18-12.62-.73-3.82-3.56-14.42-3.48-17.7S43.57,8.73,38.49,0c0,0-14.65,6.05-19,7.49h0l-1.13.43,6.92,25L29,50.31l-9.72-16-5-24.87c-2.61,1-5.61,2-8.18,2.87,2.08,7.68,7.91,27,10,29.47-3-.6-9.18-20-11.83-28.79-1.13.47-2.8,1.21-2.71,1.78C3.32,26.7,16.11,50.36,17.34,52.43c1.54,2.31,4.13,6.55,6.17,10,3.59-1.08,6.84-2,6.84-2l10.66,3L30.82,68.6l1.62,6.72H29.78a42,42,0,0,0,1.87,3.81c.52.86.88,1.49,1.22,2,1.28-1.37,4.71-3.28,10.82-5.53,8.9-3.06,13-3.14,13.21-1.71.16,1.22-8.21,5.52-11.29,7.07-3.37.75-12.58,2.7-13.22,1.65a.77.77,0,0,1-.06-.66,2.14,2.14,0,0,1-.95-1c-.43-.94-1.32-3.15-2.32-5.58h-1.7c.84,2.77,1.64,6,2.18,8.22A8.43,8.43,0,0,0,34.42,84.18Z"/></g></g></g></g></svg>