<svg xmlns="http://www.w3.org/2000/svg" viewBox="0 0 264.04 379.59"><defs><style>.cls-1{fill:#00d3f3;fill-opacity:0.74;}.cls-2{fill:#4caabf;}.cls-3{fill:#0093b0;}.cls-4,.cls-5,.cls-7{fill:#fdfdfd;}.cls-4{opacity:0.34;}.cls-5{fill-opacity:0.81;}.cls-6{fill:#00859a;}.cls-7{opacity:0.45;}</style></defs><title>glasscup</title><g id="Layer_2" data-name="Layer 2"><g id="Glass"><g id="glasscup"><path class="cls-1" d="M235.46,259.81c3.16,16.48,28,65.9,28,65.9,7.74,16.66-60.39,40.91-60.39,40.91s-68.13,24.24-72.66,6.44c0,0-12-54-20-68.76s-27.41-58-36.64-68.69S6.82,102.2,0,59.14c6.91-5.29,47.8-18.37,82.81-30.37C117.54,16,157.49.27,166.19,0c21.92,37.69,54.67,169.28,54.28,183.42S232.3,243.32,235.46,259.81Z"/><path class="cls-2" d="M188.64,326.17c-38.11,14-52.08,25-48.83,30.28,2.77,4.52,42.51-3.89,57.06-7.13,13.33-6.68,49.46-25.26,48.74-30.52C244.78,312.63,227,313,188.64,326.17Zm44.62-6c-.85,7.25-17.29,18.76-37.18,26.9-20.57,6.25-40.58,7.71-45.81,2.63-4.77-4.63,28-16.67,39.45-20.51C201,325,234,313.59,233.26,320.19Z"/><path class="cls-3" d="M1.47,58.18c.4-.23.84-.47,1.33-.73a2.73,2.73,0,0,0,1.68,1.3c3.52.85,17.59-5.28,18.25-4.69S6.11,60,6.68,63.83c7.67,51.45,62.88,153.57,68.17,162.52,10.39,15.57,31.9,51.56,38.06,63.82s17.79,41.53,23.73,51.46,7.29,12.75,14,13.07-11,3.91-15.2-5.43-19.24-47.66-25.25-59.46c-2.82-5.54-33.7-55.55-37.92-62.24C67.82,220.51,5.06,92.67,1.47,58.18Z"/><path class="cls-3" d="M263.39,325.61s-.56-1.11-1.52-3.06-2.38-4.84-4-8.27c-3.12,5.63-8,12.29-14.64,15.49-8,3.87-30.89,15.55-45.48,21.94-15.34,4.26-40.48,9.67-49.11,11.72-7.15,1.7-15.16-.37-21.13-2.76.88,3.7,1.6,6.8,2.1,8.95s.75,3.34.75,3.34a6.51,6.51,0,0,0,.23.71c0,.07.06.15.1.23l.19.42.15.28.21.33a4.73,4.73,0,0,0,.43.57l.12.15c.11.13.24.26.36.38a.27.27,0,0,1,.07.08c3.88,3.66,12.66,3.95,22.76,2.67a30.67,30.67,0,0,1-1.43-3.25s34.95-7.06,48.3-12.3c13.66-4.37,45.22-21,45.22-21a29.47,29.47,0,0,1,.94,3.43c8.64-5.39,15.26-11.16,16-16.45a.4.4,0,0,1,0-.11,4.55,4.55,0,0,0,0-.52c0-.06,0-.13,0-.19,0-.24,0-.48,0-.71s0-.26,0-.39-.05-.21-.07-.31-.07-.3-.11-.45-.05-.16-.07-.25A6.55,6.55,0,0,0,263.39,325.61Zm-62.13,36.05c-15.64,4.52-49,9.79-49.43,5.74-.3-3.23,29.36-8.62,46.61-13.69,16.56-7,43-21.52,44.77-18.82C245.46,338.28,216.24,355.29,201.26,361.66Z"/><path class="cls-4" d="M25,48.57c7.68,29.2,34.92,120.76,44.45,131.84-13.57-2.69-42-93.76-52.48-129C19.53,50.49,22.22,49.54,25,48.57Z"/><path class="cls-3" d="M166.14,0C167.33,4.48,84,32.37,84,32.37c-18.48,7.05-82.1,31-84,26.75C7,53.83,47.78,40.78,82.76,28.78l.1,0C117.56,16,157.44.29,166.14,0Z"/><path class="cls-5" d="M99.33,27.44c4.64,14.29,23.18,53.24,34.6,76.29,12.92,25.74,22.13,55.59,33.08,90.06,19.8,62.5,29.11,129.72,29.11,129.72l7.65-2.2s-16.64-90.26-26.72-132.25c-1.89-8.42-13.32-48.91-30.82-95.17-9-24.4-19.7-50.43-29.4-72.68Z"/><path class="cls-6" d="M164.45.19c-.46.07-.95.16-1.5.28a2.66,2.66,0,0,1-.48,2.06c-2.18,2.88-16.9,7.25-17,8.13,0,0,16.57-6.14,18.55-2.8,26.55,44.74,48.26,158.77,49.81,169,1.78,18.64,7.85,60.12,10.81,73.52s12.44,43.43,14.11,54.88,2.4,14.49-2.6,19,11-3.9,8.35-13.8-15.19-49.11-18-62.05c-1.31-6.08-9-64.36-9.91-72.21C215.55,167.94,183.46,29.19,164.45.19Z"/><path class="cls-7" d="M138.49,13.51C151,41,209.13,195.84,208.74,210.46c8.82-10.66-49.2-165.84-63.31-199.8C142.87,11.57,141.26,12.5,138.49,13.51Z"/></g><path class="cls-5" d="M99.33,27.44c4.64,14.29,23.18,53.24,34.6,76.29,12.92,25.74,22.13,55.59,33.08,90.06,19.8,62.5,29.11,129.72,29.11,129.72l7.65-2.2s-16.64-90.26-26.72-132.25c-1.89-8.42-13.32-48.91-30.82-95.17-9-24.4-19.7-50.43-29.4-72.68Z"/><path class="cls-6" d="M164.45.19c-.46.07-.95.16-1.5.28a2.66,2.66,0,0,1-.48,2.06c-2.18,2.88-16.9,7.25-17,8.13,0,0,16.57-6.14,18.55-2.8,26.55,44.74,48.26,158.77,49.81,169,1.78,18.64,7.85,60.12,10.81,73.52s12.44,43.43,14.11,54.88,2.4,14.49-2.6,19,11-3.9,8.35-13.8-15.19-49.11-18-62.05c-1.31-6.08-9-64.36-9.91-72.21C215.55,167.94,183.46,29.19,164.45.19Z"/><path class="cls-7" d="M138.49,13.51C151,41,209.13,195.84,208.74,210.46c8.82-10.66-49.2-165.84-63.31-199.8C142.87,11.57,141.26,12.5,138.49,13.51Z"/><path class="cls-1" d="M94.32,271.93l4.44-1.36c-10.19-16.75-23.78-38.73-26.48-43-4.4-7-65.57-131.53-70.63-168-.89,0-1.44-.16-1.59-.49a12,12,0,0,1,1.41-.92v0a13.47,13.47,0,0,0-1.47,1C6.82,102.2,64.55,224.9,73.78,235.61,78.78,241.41,86.77,256.74,94.32,271.93Z"/><path class="cls-1" d="M148.61,363.43c8.63-2.05,33.77-7.46,49.11-11.72,14.59-6.39,37.5-18.07,45.48-21.94,6.61-3.2,11.52-9.85,14.63-15.48-7.51-15.62-20.18-43-22.37-54.48-3.16-16.49-15.38-62.26-15-76.39S188.11,37.69,166.19,0c-.15.17-63.28,26.13-82,32.34l-.1,0-4.85,1.85,29.85,108,16,75-42-69L61.56,40.79c-11.25,4.13-24.2,8.76-35.31,12.39,9,33.18,34.14,116.68,43.21,127.23-13-2.58-39.61-86.25-51.06-124.27-4.89,2-12.09,5.19-11.72,7.69,7.67,51.45,62.88,153.57,68.17,162.52,6.65,10,17.84,28.28,26.66,43.39,15.5-4.65,29.53-8.57,29.53-8.57l46,13-44,22,7,29H128.58a182.38,182.38,0,0,0,8.06,16.46c2.23,3.71,3.8,6.43,5.26,8.4,5.54-5.91,20.35-14.14,46.74-23.86,38.4-13.19,56.14-13.54,57-7.37.72,5.26-35.41,23.84-48.74,30.52-14.55,3.24-54.29,11.65-57.06,7.13a3.33,3.33,0,0,1-.25-2.85,9.4,9.4,0,0,1-4.11-4.33c-1.84-4.06-5.72-13.62-10-24.1h-7.34c3.59,11.95,7.06,25.78,9.4,35.5C133.46,363.07,141.47,365.13,148.61,363.43Z"/></g></g></svg>