<svg xmlns="http://www.w3.org/2000/svg" viewBox="0 0 288.77 164.46"><defs><style>.cls-1{fill:#0c6f40;}.cls-2{fill:none;stroke:#0c6f40;stroke-width:5.64px;}</style></defs><title>go</title><g id="Layer_2" data-name="Layer 2"><g id="Go"><path d="M66.89,97.57V71h56.18v85.5q-12,2.27-26.4,3.73t-25.49,1.46q-29.34,0-43.43-6.2T8.23,132.77Q2.81,116.3,2.82,82.23,2.82,50,8.23,33.39T28.09,9.81q14.43-7,43.09-7A183.16,183.16,0,0,1,91.59,4q10,1.13,24.26,3.16l6.54.9V34l-8.35-.9Q92.6,30.58,83.81,30.57q-23.91,0-33.05,2.48T38.35,45.8q-3.27,10.26-3.27,36.43,0,23.68,2.48,34.18t10,14.33q7.56,3.84,24.7,3.83,12.65,0,20.08-.68V97.57Z"/><path d="M174.5,154.88q-13.53-6.78-17-22.11T154,82.23q0-35.19,3.5-50.53t17-22.11Q188,2.83,219.85,2.82t45.46,6.77q13.63,6.77,17.14,22.11T286,82.23q0,35.19-3.5,50.54t-17.14,22.11q-13.67,6.76-45.46,6.76T174.5,154.88Zm69.37-23.47q6.21-2.47,7.9-12.07t1.69-37.11q0-27.53-1.69-37.11t-7.9-12.07q-6.19-2.47-24-2.48t-23.92,2.48q-6.09,2.49-7.89,12.18t-1.81,37q0,27.3,1.81,37t7.89,12.18q6.09,2.49,23.92,2.48T243.87,131.41Z"/><path class="cls-1" d="M66.89,97.57V71h56.18v85.5q-12,2.27-26.4,3.73t-25.49,1.46q-29.34,0-43.43-6.2T8.23,132.77Q2.81,116.3,2.82,82.23,2.82,50,8.23,33.39T28.09,9.81q14.43-7,43.09-7A183.16,183.16,0,0,1,91.59,4q10,1.13,24.26,3.16l6.54.9V34l-8.35-.9Q92.6,30.58,83.81,30.57q-23.91,0-33.05,2.48T38.35,45.8q-3.27,10.26-3.27,36.43,0,23.68,2.48,34.18t10,14.33q7.56,3.84,24.7,3.83,12.65,0,20.08-.68V97.57Z"/><path class="cls-1" d="M174.5,154.88q-13.53-6.78-17-22.11T154,82.23q0-35.19,3.5-50.53t17-22.11Q188,2.83,219.85,2.82t45.46,6.77q13.63,6.77,17.14,22.11T286,82.23q0,35.19-3.5,50.54t-17.14,22.11q-13.67,6.76-45.46,6.76T174.5,154.88Zm69.37-23.47q6.21-2.47,7.9-12.07t1.69-37.11q0-27.53-1.69-37.11t-7.9-12.07q-6.19-2.47-24-2.48t-23.92,2.48q-6.09,2.49-7.89,12.18t-1.81,37q0,27.3,1.81,37t7.89,12.18q6.09,2.49,23.92,2.48T243.87,131.41Z"/><path class="cls-2" d="M66.89,97.57V71h56.18v85.5q-12,2.27-26.4,3.73t-25.49,1.46q-29.34,0-43.43-6.2T8.23,132.77Q2.81,116.3,2.82,82.23,2.82,50,8.23,33.39T28.09,9.81q14.43-7,43.09-7A183.16,183.16,0,0,1,91.59,4q10,1.13,24.26,3.16l6.54.9V34l-8.35-.9Q92.6,30.58,83.81,30.57q-23.91,0-33.05,2.48T38.35,45.8q-3.27,10.26-3.27,36.43,0,23.68,2.48,34.18t10,14.33q7.56,3.84,24.7,3.83,12.65,0,20.08-.68V97.57Z"/><path class="cls-2" d="M174.5,154.88q-13.53-6.78-17-22.11T154,82.23q0-35.19,3.5-50.53t17-22.11Q188,2.83,219.85,2.82t45.46,6.77q13.63,6.77,17.14,22.11T286,82.23q0,35.19-3.5,50.54t-17.14,22.11q-13.67,6.76-45.46,6.76T174.5,154.88Zm69.37-23.47q6.21-2.47,7.9-12.07t1.69-37.11q0-27.53-1.69-37.11t-7.9-12.07q-6.19-2.47-24-2.48t-23.92,2.48q-6.09,2.49-7.89,12.18t-1.81,37q0,27.3,1.81,37t7.89,12.18q6.09,2.49,23.92,2.48T243.87,131.41Z"/></g></g></svg>