<svg xmlns="http://www.w3.org/2000/svg" viewBox="0 0 395.96 224.63"><defs><style>.cls-1{fill:#0c6f40;}.cls-2{fill:none;stroke:#0c6f40;stroke-width:5.64px;}</style></defs><title>GO</title><g id="Layer_2" data-name="Layer 2"><g id="Layer_2-2" data-name="Layer 2"><g id="Layer_2-3" data-name="Layer 2"><g id="Go"><path d="M91.13,133.43V96.81h77.44V214.66q-16.55,3.12-36.39,5.14t-35.14,2q-40.44,0-59.86-8.55T10.28,182q-7.47-22.71-7.46-69.66,0-44.43,7.46-67.32t27.37-32.5Q57.54,2.82,97,2.82a252,252,0,0,1,28.14,1.64Q139,6,158.61,8.82l9,1.24V45.81l-11.51-1.24q-29.55-3.48-41.67-3.49-33,0-45.55,3.42T51.79,62.07q-4.5,14.15-4.5,50.22,0,32.64,3.41,47.11t13.79,19.75q10.41,5.29,34,5.28,17.44,0,27.68-.94V133.43Z"/><path d="M239.45,212.42Q220.81,203.08,216,182t-4.82-69.66q0-48.51,4.82-69.65t23.43-30.47Q258.07,2.84,302,2.83t62.66,9.34q18.78,9.33,23.62,30.47t4.9,69.65q0,48.49-4.83,69.66t-23.62,30.47q-18.84,9.33-62.66,9.32T239.45,212.42Zm95.62-32.35q8.55-3.4,10.89-16.63t2.33-51.15q0-38-2.33-51.15T335.07,44.5Q326.53,41.1,302,41.08T269,44.5q-8.4,3.44-10.88,16.79t-2.49,51q0,37.62,2.49,51T269,180.07q8.39,3.44,33,3.42T335.07,180.07Z"/><path class="cls-1" d="M91.13,133.43V96.81h77.44V214.66q-16.55,3.12-36.39,5.14t-35.14,2q-40.44,0-59.86-8.55T10.28,182q-7.47-22.71-7.46-69.66,0-44.43,7.46-67.32t27.37-32.5Q57.54,2.82,97,2.82a252,252,0,0,1,28.14,1.64Q139,6,158.61,8.82l9,1.24V45.81l-11.51-1.24q-29.55-3.48-41.67-3.49-33,0-45.55,3.42T51.79,62.07q-4.5,14.15-4.5,50.22,0,32.64,3.41,47.11t13.79,19.75q10.41,5.29,34,5.28,17.44,0,27.68-.94V133.43Z"/><path class="cls-1" d="M239.45,212.42Q220.81,203.08,216,182t-4.82-69.66q0-48.51,4.82-69.65t23.43-30.47Q258.07,2.84,302,2.83t62.66,9.34q18.78,9.33,23.62,30.47t4.9,69.65q0,48.49-4.83,69.66t-23.62,30.47q-18.84,9.33-62.66,9.32T239.45,212.42Zm95.62-32.35q8.55-3.4,10.89-16.63t2.33-51.15q0-38-2.33-51.15T335.07,44.5Q326.53,41.1,302,41.08T269,44.5q-8.4,3.44-10.88,16.79t-2.49,51q0,37.62,2.49,51T269,180.07q8.39,3.44,33,3.42T335.07,180.07Z"/><path class="cls-2" d="M91.13,133.43V96.81h77.44V214.66q-16.55,3.12-36.39,5.14t-35.14,2q-40.44,0-59.86-8.55T10.28,182q-7.47-22.71-7.46-69.66,0-44.43,7.46-67.32t27.37-32.5Q57.54,2.82,97,2.82a252,252,0,0,1,28.14,1.64Q139,6,158.61,8.82l9,1.24V45.81l-11.51-1.24q-29.55-3.48-41.67-3.49-33,0-45.55,3.42T51.79,62.07q-4.5,14.15-4.5,50.22,0,32.64,3.41,47.11t13.79,19.75q10.41,5.29,34,5.28,17.44,0,27.68-.94V133.43Z"/><path class="cls-2" d="M239.45,212.42Q220.81,203.08,216,182t-4.82-69.66q0-48.51,4.82-69.65t23.43-30.47Q258.07,2.84,302,2.83t62.66,9.34q18.78,9.33,23.62,30.47t4.9,69.65q0,48.49-4.83,69.66t-23.62,30.47q-18.84,9.33-62.66,9.32T239.45,212.42Zm95.62-32.35q8.55-3.4,10.89-16.63t2.33-51.15q0-38-2.33-51.15T335.07,44.5Q326.53,41.1,302,41.08T269,44.5q-8.4,3.44-10.88,16.79t-2.49,51q0,37.62,2.49,51T269,180.07q8.39,3.44,33,3.42T335.07,180.07Z"/></g></g></g></g></svg>