<svg xmlns="http://www.w3.org/2000/svg" viewBox="0 0 93.41 124.64"><defs><style>.cls-1{fill:#8cc63f;}.cls-2{fill:#75a929;}.cls-3{fill:#ff6022;}.cls-4{fill:#ce471d;}</style></defs><title>happy</title><g id="Layer_2" data-name="Layer 2"><g id="instruct2"><path id="cursor" class="cls-1" d="M92.17,46.48A461.56,461.56,0,0,1,17.77.29,460.76,460.76,0,0,1,0,86q12.9-3.93,25.53-8.61l13.56,47.21a234.57,234.57,0,0,0,54.13-23.23L68.34,59.06Q80.43,53.12,92.17,46.48Z"/><path id="shade" class="cls-2" d="M18,0a1.94,1.94,0,0,1,0,.24C24.7,17,49.81,86.7,69.85,113.22a234.71,234.71,0,0,0,23.56-12.1L68.53,58.77q12.09-5.94,23.83-12.58A461.56,461.56,0,0,1,18,0Z"/><g id="mouth"><path id="mouth-2" data-name="mouth" d="M60,94.42l3.3-8a2,2,0,0,0-2.64-2.6L49.28,88.69a2,2,0,0,0,.07,3.7l8.09,3.14A2,2,0,0,0,60,94.42Z"/><path id="tongue" class="cls-3" d="M58.21,95.83a1.16,1.16,0,0,0,1.49-.64l1.48-3.62a4.46,4.46,0,0,0-6.67,2.82Z"/><path class="cls-4" d="M61.18,91.57a4.18,4.18,0,0,0-4.08-.29l-.43.22c.63,1.25,1.48,2.88,2.28,4.35a1.15,1.15,0,0,0,.75-.66Z"/></g><path d="M38.44,80l-.59.25,1.68-4.72,4.58,2-.59.25L39.8,76.11ZM57.56,68.49l3.72,1.66.59-.25-4.58-2-1.68,4.72.58-.25Z"/></g></g></svg>