<svg xmlns="http://www.w3.org/2000/svg" viewBox="0 0 501.57 330"><defs><style>.cls-1{fill:#4d5450;}.cls-2{fill:#3a3f3c;}</style></defs><title>hole</title><g id="Layer_2" data-name="Layer 2"><g id="item_placment" data-name="item placment"><ellipse class="cls-1" cx="250.78" cy="165" rx="236.83" ry="151.04"/><path class="cls-2" d="M480.63,98.49c-13-19.62-31.48-37.13-54.88-52.06C378.8,16.49,316.67,0,250.78,0s-128,16.49-175,46.43C52.41,61.36,34,78.87,20.94,98.49,7,119.44,0,141.82,0,165s7,45.56,20.94,66.51c13,19.62,31.47,37.13,54.88,52.06C122.76,313.51,184.9,330,250.78,330s128-16.49,175-46.43c23.4-14.93,41.87-32.44,54.88-52.06,13.89-20.95,20.94-43.33,20.94-66.51S494.52,119.44,480.63,98.49ZM250.78,316C120,316,14,248.42,14,165S120,14,250.78,14,487.61,81.58,487.61,165,381.58,316,250.78,316Z"/></g></g></svg>