<svg xmlns="http://www.w3.org/2000/svg" viewBox="0 0 125.91 153.59"><defs><style>.cls-1,.cls-2{fill:#fff;}.cls-1{stroke:#fff;stroke-miterlimit:10;}</style></defs><title>Asset 2</title><g id="Layer_2" data-name="Layer 2"><g id="human"><circle class="cls-1" cx="83.45" cy="15.36" r="14.86"/><path class="cls-1" d="M83.5,34.55c16.91,1.54,38.43,30.23,41.5,46.63,0,0-17.93-25.11-24.59-24.6,5.63,7.69,8.71,91.2,8.71,91.2s-14.35-46.62-21-47.65-17.42,49.19-17.42,49.19-2-90.69,1-95.81-4.1,15.88-43,12.29c0,0,24.08-2.56,30.74-15.88S83.5,34.55,83.5,34.55Z"/><path class="cls-2" d="M12.54,150.79a7.7,7.7,0,0,1-7.7-7.7L.53,78.77H4.64L9,138.45a8.7,8.7,0,0,0,8.7,8.66H33.39A6.65,6.65,0,0,0,40,140.46l4.5-61.35h4.11l-4.5,66a5.65,5.65,0,0,1-5.64,5.68Z"/><path class="cls-2" d="M4.18,79.27l4.27,59.18a9.21,9.21,0,0,0,9.2,9.16H33.39a7.15,7.15,0,0,0,7.14-7.11L45,79.61H48.1l-4.45,65.47v.06a5.15,5.15,0,0,1-5.14,5.15h-26a7.21,7.21,0,0,1-7.2-7.2V143L1.07,79.27H4.18m.93-1H0l4.34,64.82a8.2,8.2,0,0,0,8.2,8.2h26a6.14,6.14,0,0,0,6.14-6.15l4.53-66.53H44.06l-4.53,61.85a6.14,6.14,0,0,1-6.14,6.15H17.65a8.2,8.2,0,0,1-8.2-8.2L5.11,78.27Z"/><path class="cls-1" d="M22.42,82c1.09-3.12,7.33,2.06,5.5,8.24S20.59,87.29,22.42,82Z"/><path class="cls-2" d="M36.46,101.36l-3.87,1.19Z"/><rect class="cls-2" x="32.5" y="100.93" width="4.05" height="2.05" transform="translate(-28.25 14.51) rotate(-16.97)"/><path class="cls-1" d="M12.69,118.87c0-.56,2.44-8.25,2.44-8.25l7.69.18,4.5,3.94.38,9.2-6.19-2.63s-4.69,4.31-4.69,4.88-4.32-3.94-4.32-3.94Z"/></g></g></svg>