<svg xmlns="http://www.w3.org/2000/svg" viewBox="0 0 50.91 58.08"><defs><style>.cls-1{fill:#a4fcfa;}.cls-13,.cls-2{fill:#f2f1ed;}.cls-2{fill-opacity:0.22;}.cls-10,.cls-11,.cls-3{fill:#87ccc9;}.cls-4{fill:#80002f;opacity:0.54;isolation:isolate;}.cls-5{fill:#cc3d3f;}.cls-6{fill:#f24e5e;}.cls-7{fill:#a01515;}.cls-8{fill:#eef1f0;}.cls-9{fill:#ff5858;}.cls-10{fill-opacity:0.62;}.cls-11{fill-opacity:0.71;}.cls-12{fill:#74ada9;}.cls-13{fill-opacity:0.37;}</style></defs><title>jamjar</title><g id="Layer_2" data-name="Layer 2"><g id="Layer_2-2" data-name="Layer 2"><g id="Layer_2-3" data-name="Layer 2"><g id="Glass"><g id="jar"><path class="cls-1" d="M50.75,42.8,49,40.31a1,1,0,0,0-.27-.24L34,12.36A.92.92,0,0,0,32.79,12L7.64,25.29a.92.92,0,0,0-.38,1.22L21.93,54.23a1,1,0,0,0,.05.37l1,2.88a.92.92,0,0,0,1.17.54h0A141.46,141.46,0,0,0,50.51,44.09a.92.92,0,0,0,.25-1.27Z"/><path class="cls-2" d="M36.61,48.09c-2.91,1.53-5.94,3-9.19,4.41a2.2,2.2,0,0,1-2.75-1.14L11.24,26A2.19,2.19,0,0,1,12,23l16.48-8.72a2.18,2.18,0,0,1,2.88,1.07L44.79,40.78a2.21,2.21,0,0,1-.6,2.91c-2.41,1.53-4.95,3-7.58,4.39Z"/><path class="cls-1" d="M33.1,9c1,1.9.14,3-.3,3.18L7.74,25.46c-.44.25-1.79.36-2.8-1.53s-.13-2.95.3-3.19L30.3,7.48C30.74,7.25,32.1,7.12,33.1,9Z"/><path class="cls-3" d="M7.24,23c-.84.59-.53.2-.66,0s.15-.51.31-.61L31.36,9.39c.17-.07.6-.21.73,0s-.23.52-.4.62Z"/><path id="top1" class="cls-1" d="M30.05,6.25c.45.86-.45,1.61-.85,1.82L6.35,20.16c-.4.21-1.53.54-2-.32s.45-1.6.85-1.82L28.07,5.93C28.47,5.72,29.59,5.39,30.05,6.25Z"/><path class="cls-3" d="M6.17,19.83s-1.1.54-1.47-.17.68-1.3.7-1.3L28.24,6.27s1.1-.55,1.48.16S29,7.73,29,7.73Z"/><g id="lid"><path class="cls-4" d="M31,5A2.8,2.8,0,0,1,30,7.4c-3.73.22-11.68,5-18,8.2s-6.27,5.51-9.14,4.28C1.47,16.6,30.46,2.25,31,5Z"/><path class="cls-5" d="M30.35,5.28h0c-4.65,2-9.27,4.13-13.73,6.51s-8.87,5-13.1,7.7h0A.36.36,0,0,1,3,19.4L.55,15.67a.3.3,0,0,1-.05-.24.38.38,0,0,1,.17-.24C5,12.35,9.58,9.68,14.17,7.25S23.53,2.56,28.33.55a.39.39,0,0,1,.3,0,.34.34,0,0,1,.19.18l1.7,4.13A.36.36,0,0,1,30.35,5.28Z"/><path class="cls-6" d="M28.13.08A175.39,175.39,0,0,0,.4,14.75a.87.87,0,0,0-.27,1.19l2.45,3.73a.86.86,0,0,0,1.18.25A169.86,169.86,0,0,1,30.52,5.75.85.85,0,0,0,31,4.64L29.28.51A.87.87,0,0,0,28.13.08Zm2.39,4.75a.36.36,0,0,1-.16.45h0c-4.66,2-9.28,4.13-13.74,6.51s-8.87,5-13.1,7.7h0A.36.36,0,0,1,3,19.4L.55,15.67a.3.3,0,0,1-.05-.24.38.38,0,0,1,.17-.24C5,12.35,9.58,9.68,14.17,7.25S23.53,2.56,28.33.55a.39.39,0,0,1,.3,0,.34.34,0,0,1,.19.18Z"/><path class="cls-6" d="M28.13.08A175.39,175.39,0,0,0,.4,14.75a.87.87,0,0,0-.27,1.19l2.45,3.73a.86.86,0,0,0,1.18.25A169.86,169.86,0,0,1,30.52,5.75.85.85,0,0,0,31,4.64L29.28.51A.87.87,0,0,0,28.13.08Zm2.39,4.75a.36.36,0,0,1-.16.45h0c-4.66,2-9.28,4.13-13.74,6.51s-8.87,5-13.1,7.7h0A.36.36,0,0,1,3,19.4L.55,15.67a.3.3,0,0,1-.05-.24.38.38,0,0,1,.17-.24C5,12.35,9.58,9.68,14.17,7.25S23.53,2.56,28.33.55a.39.39,0,0,1,.3,0,.34.34,0,0,1,.19.18Z"/><path class="cls-7" d="M15,12.63l1.58-.84L18.05,11A30.88,30.88,0,0,1,14.2,7.22h0l-2.94,1.6C11.93,9.59,13.56,11.27,15,12.63Z"/><path class="cls-8" d="M4.74,15.15c-.06.09-4.22.17-4.24.27a.3.3,0,0,0,.05.24l.48.86c1.22.4,4.27.84,5.35,1.2,1.27-.81,1.5-1,2.79-1.76-.21-2.27,1.26-5.59,2-7.11C7.6,10.84,9.07,8.45,4.74,15.15Z"/><path class="cls-8" d="M17.59,5.75a11.48,11.48,0,0,0-6.07,8.84c1.2-.69,2.41-1.37,3.64-2A8.5,8.5,0,0,1,25,7.66c1.26-.59,2.53-1.15,3.8-1.7A11.5,11.5,0,0,0,17.59,5.75Z"/><path class="cls-9" d="M14.75,7.86a11.08,11.08,0,0,0-1.93,2.63c.68.69,1.46,1.45,2.19,2.15l.13-.07h0A8.49,8.49,0,0,1,16.87,10C16.12,9.3,15.35,8.55,14.75,7.86Z"/><path class="cls-7" d="M7.84,16.78l2.37-1.45c-1.08-1.4-2.2-2.89-3.1-4.2-.8.48-1.58,1-2.36,1.45C5.56,13.72,6.69,15.25,7.84,16.78Z"/><path class="cls-9" d="M7.84,16.78,9.16,16h0a7.18,7.18,0,0,1,.12-1.85c-.71-.94-1.41-1.89-2-2.76-.4.54-.91,1.32-1.64,2.43C6.29,14.7,7.06,15.74,7.84,16.78Z"/><path class="cls-7" d="M20.22,9.93c.81-.39,1.64-.76,2.48-1.12L20.17,4.29c-.81.35-1.61.71-2.39,1.09A34,34,0,0,1,20.22,9.93Z"/><path class="cls-9" d="M19.41,8.21A8,8,0,0,1,22,7.48L20.4,4.7a11.55,11.55,0,0,0-2.49.89C18.35,6.29,18.91,7.27,19.41,8.21Z"/><path class="cls-7" d="M24.89,7.69c1-.46,2-.9,3-1.33-.36-1.7-.82-3.81-1.18-5.13L24.09,2.38A41.23,41.23,0,0,1,24.89,7.69Z"/><path class="cls-9" d="M24.49,4.51a29.75,29.75,0,0,1,.4,3.13l.07,0,1.26-.58L26.51,7l1.31-.59h0c-.06-.3-.13-.62-.2-1A11.65,11.65,0,0,0,24.49,4.51Z"/><path class="cls-7" d="M1.3,14.76A29.44,29.44,0,0,0,3.64,19.4l1-.63A23.71,23.71,0,0,1,3.2,13.55Z"/><path class="cls-9" d="M2.23,16.84l1.84.37c-.2-.62-.4-1.3-.56-2l-2,.09C1.75,15.79,2,16.32,2.23,16.84Z"/></g><path class="cls-10" d="M31.61,8.41s4,1.16-6.25,6.06S14.8,20,14.8,20s15.11-6.6,16.79-8.13S33.47,8.38,31.61,8.41Z"/><path class="cls-11" d="M8.42,26.78C8.14,26.69,22,51.31,22.57,53.35s.21,3.92,1,3.95S50,45.57,50,43.52s-.79-2.24-1.41-2.65-4.07-6.32-4.84-7.21-5.08-11-6.2-12.27-4.65-9.82-6-9.52A2.89,2.89,0,0,0,29.67,13s1.08-.71.81.4c1.43.1,5.88,8,5.9,8.54s6.4,12.11,6.4,12.11,4.38,6.48,5.16,6.87a2.06,2.06,0,0,1,.22,3.29c-1.21,1-21.22,12-24.12,12-.59,0-.59-2.64-.78-3.11S14.2,36.21,14,34.71,11.7,27.82,8.42,26.78Z"/><path class="cls-12" d="M6.54,21a1.76,1.76,0,0,0-.83,2c.31,1.24,2,.44,3.35-.22s3.74-2,3.74-2a43.46,43.46,0,0,1-5.34,3.7,1.64,1.64,0,0,1-2.29-.67A1.86,1.86,0,0,1,6.54,21Z"/><path class="cls-13" d="M24.17,9.31C19.56,13,16.81,14,18.05,14S29.64,7.69,31.28,8.58,6.4,22.18,6.4,22.18,10,19.05,8.31,19.31s-3.07.61-3,.54C11.38,15,24.17,9.31,24.17,9.31Z"/></g></g></g></g></g></svg>