<svg xmlns="http://www.w3.org/2000/svg" viewBox="0 0 80 102.56"><defs><style>.cls-1{fill:#bbc2c6;}.cls-2{fill:#91adbb;}.cls-2,.cls-7{fill-opacity:0.4;}.cls-3{fill:#7c8692;}.cls-4{fill:#ccd6de;}.cls-5{fill:#b2c4d6;fill-opacity:0.51;}.cls-6{fill:#dde3ea;}.cls-6,.cls-8{fill-opacity:0.55;}.cls-7{fill:#a4c0d3;}.cls-8{fill:#c8ccd1;}</style></defs><title>jug</title><g id="Layer_2" data-name="Layer 2"><g id="Layer_2-2" data-name="Layer 2"><g id="Layer_2-3" data-name="Layer 2"><g id="Plastic_Mixed" data-name="Plastic Mixed"><g id="jug"><path class="cls-1" d="M12.1,5.73C12,2.89,25.13-.81,29.51.16,34.19,1.18,12.24,8.82,12.1,5.73Z"/><path class="cls-2" d="M20.46,1.13c-4.37,1.17-8.44,3-8.36,4.6s4.86.55,9.49-.91A4.68,4.68,0,0,1,20.46,1.13Z"/><path class="cls-3" d="M12.86,6.43c-.14-2.85,13-6.54,17.41-5.58C35,1.88,13,9.51,12.86,6.43Z"/><path class="cls-4" d="M55.71,11.08C52.68,8.15,32.12,5,30.83,2.91,31.52.74,30,.38,30,.38c-.34.67-4.18,2.35-8.93,3.84C15.4,6,12,5.62,12,5.62,11.23,7,12.69,9,12.69,9L12.51,10S.47,18.89.06,22.78,2.53,47,3,50.63,3,66.34,3.74,69,7.82,82.2,10.16,89.09s9.87,12.14,14.05,13,17.77.3,20.38-.68,2.79-6,5.45-6.89,3.66,4.06,8.3,2.49c2.84-1,14.42-7.54,19.06-13.47S79.06,64.4,79.06,64.4C77.82,54.5,58.73,14,55.71,11.08ZM15.57,33.52c1.69,8.49,1.86,9.11,1,11.67s-2.22,3.5-3.44,3.92c0,0-1.15,1-2.76-3.08s-6.29-22.75-1-23.36C12.42,22.32,13.85,24.89,15.57,33.52Z"/><path class="cls-5" d="M79.35,66.07C73,73.81,58.71,80.89,48.2,84.62S13.84,83.22,8,82.49c.76,2.32,1.52,4.61,2.2,6.6,2.35,6.9,9.87,12.15,14.05,13s17.77.3,20.38-.68,2.79-6,5.45-6.89,3.66,4.06,8.3,2.49c2.84-1,14.42-7.54,19.06-13.47C81,78.92,80,69.82,79.35,66.07Z"/><path class="cls-6" d="M15.1,49.92s-3.34,6.26-8.94,8c.63,3.77,1.44,5.31,2.65,5.51,3.48.58,12.51-5.74,12.45-9.51-.06-3.6-2.78-12.88-2.91-13.35A19.57,19.57,0,0,1,15.1,49.92Z"/><path class="cls-7" d="M11.72,50.32c-2.55-4.28-14-32.9.67-28.2.79.26-.74-4.52-3.2-5-.92-.19-6.35,3.59-6.33,6.09S6.05,45.37,6,57.35C15.87,61,24.17,51.94,18.22,27,20.61,45.78,13.79,53.81,11.72,50.32Z"/><path class="cls-8" d="M18.35,40.57Z"/><path class="cls-1" d="M31,2a1.65,1.65,0,0,0-.17-.9C28.85,2.4,28,3.7,21.92,5.65a36.59,36.59,0,0,1-10,1.64,4.7,4.7,0,0,0,.29.82A39,39,0,0,0,22.08,7,19.6,19.6,0,0,0,31,2Z"/><path class="cls-6" d="M45.47,14.84c4.26-3,8.4-3.08,9.9-2s21.19,43.7,22.22,47.54,2.3,17.32.51,19.87c0,0-1-17.06-1.75-19.47C72.37,47.52,56.24,18.93,50.56,21c-8.53,3,1,42.91,10.09,44.23A13.59,13.59,0,0,0,74,59.27c.16,5.37-1.47,16.43-12,14.79S41.06,21.93,40.91,20.82,41.21,17.84,45.47,14.84Z"/><ellipse class="cls-4" cx="62.06" cy="51.85" rx="7.4" ry="12.27" transform="translate(-12.86 21.4) rotate(-17.76)"/><path class="cls-6" d="M63.59,37.79c-2.21-1.93-4.57-2.61-6.66-1.95s-3.61,2.61-4.29,5.45a17.54,17.54,0,0,0,.6,9.24,17.61,17.61,0,0,0,4.88,7.87c2.2,1.92,4.57,2.6,6.66,1.94s3.61-2.6,4.28-5.45a17.63,17.63,0,0,0-.59-9.24A17.66,17.66,0,0,0,63.59,37.79Zm1,22c-3.89,1.25-8.72-3-10.79-9.42s-.58-12.7,3.32-13.94,8.73,3,10.79,9.42S68.49,58.52,64.59,59.77Z"/><path class="cls-6" d="M23.66,57.32c1.42-7.13-4.19-30.16-4.19-30.16s3,23.44,2.94,26.08-1.76,4.63-4.64,7.53-10.54,6.16-12,4.34C4.82,64,.51,26.75,1.36,22.73,2.1,19.24,12.73,10.53,12.52,10,8.51,12.79.43,19.83.06,22.78-.44,26.66,2.53,47,3,50.63c.42,3.29.1,13.6.58,17.46C10.58,72,22.75,62,23.66,57.32Z"/><path class="cls-7" d="M48.32,66.43c-1.6-5.56-8.38-43.68-9.7-46.05,2.24-5.55,11.18-8.77,11.18-8.77-5-.54-12.87,8.62-12.86,8.72h0c-4.91.86-18.95,5.5-17.6,6.09,1.83.82,5.15,20.52,5.6,27.25s17.72,34.5,16.29,39.45c-.55,1.89-6.4,6.92-10.07,9.44,5.38,0,11.73-.48,13.43-1.12s2.44-3.25,3.52-5.09c-.26-3-.38-4.1.89-4.68,1.94-.88,4.58,2.61,7.19,5.66A5.08,5.08,0,0,0,58.34,97a55,55,0,0,0,9.36-5.21c-3.22-1.5-9.09-2.78-11.65-3.25C53.05,88,49.81,71.61,48.32,66.43Z"/></g></g></g></g></g></svg>