<svg xmlns="http://www.w3.org/2000/svg" viewBox="0 0 36.97 82.31"><defs><style>.cls-1{fill:#bdc6c9;}.cls-2{fill:#ce411b;}.cls-3{fill:#ebeced;}.cls-4{fill:#d8d8d8;}.cls-5{fill:#eaeaea;}.cls-6{fill:#ddd;}.cls-7{fill:#d7e0de;}.cls-8{fill:#c7d3d1;}.cls-10,.cls-17,.cls-9{fill:#bc202e;}.cls-9{fill-opacity:0.59;}.cls-10{fill-opacity:0.68;}.cls-11,.cls-12,.cls-13{fill:#fff;}.cls-11{fill-opacity:0.54;}.cls-12{fill-opacity:0.61;}.cls-14{fill:#e0db94;}.cls-15{fill:#357a1e;}.cls-16{fill:#adadad;}.cls-18{fill:#858f2a;}.cls-19{fill:#ae1f27;}.cls-20{fill:#db6957;}.cls-21{fill:#5f7c18;}.cls-22{isolation:isolate;font-size:3.66px;fill:#691f1a;font-family:Ayuthaya, Ayuthaya;}</style></defs><title>ketchupbottle</title><g id="Layer_2" data-name="Layer 2"><g id="Layer_2-2" data-name="Layer 2"><g id="Layer_2-3" data-name="Layer 2"><g id="ketchup"><path class="cls-1" d="M34.74,8.46c.09-.34.57-.39,0-.55L29.56,6.57l-.13,0L24.27,5.21c-.59-.16-.2.13-.28.47s-.87.32,0,.55l5.16,1.33.14,0,5.16,1.33C35.34,9.16,34.65,8.8,34.74,8.46Z"/><path class="cls-2" d="M24.76,6l-.15,0a1.49,1.49,0,0,0,.31-.58A2.35,2.35,0,0,0,25,4.76l.11,0,8,2.08.1,0a2.41,2.41,0,0,0-.26.59,1.43,1.43,0,0,0,0,.65.45.45,0,0,1-.16,0Z"/><path class="cls-3" d="M35.18,2.35l-4.24-1.1L26.71.15c-.91-.23-2.38.17-2.61,1.08l-.6,2.32c-.24.9-.43,1.64,1.21,2.06l4.78,1.24,4.79,1.23c1.63.43,1.83-.31,2.06-1.21l.6-2.33C37.17,3.64,36.08,2.58,35.18,2.35Z"/><path class="cls-4" d="M31.68,7.41a8.42,8.42,0,0,1,.93-4.13c.32-.81-.18-1-1.12-1.31l-.27-.08c-1-.18-1.5-.25-1.62.61a7.17,7.17,0,0,1-1.19,4.07l1.08.28Z"/><path class="cls-4" d="M35.13,2.26,30.9,1.16,26.65.07a2.6,2.6,0,0,0-2.37.64c.9.84,6.15,2.23,6.15,2.23s5.26,1.33,6.45,1A2.55,2.55,0,0,0,35.13,2.26Z"/><path class="cls-3" d="M30.61,2.25A46.93,46.93,0,0,1,25.81.73a1.73,1.73,0,0,1,.68,0L35,2.94a1.69,1.69,0,0,1,.6.3A46.43,46.43,0,0,1,30.61,2.25Z"/><path class="cls-5" d="M34.84,8.45,29.3,7,23.76,5.59c-1.74-.45-1.17,1.3-.07,1.58l5.22,1.35,5.23,1.35C35.25,10.16,36.58,8.9,34.84,8.45Z"/><path class="cls-6" d="M23.8,6.76a1.1,1.1,0,0,1-.67-.56A.37.37,0,0,1,23.08,6h0s.13-.09.58,0L34.74,8.86c.45.12.52.26.52.26a.44.44,0,0,1-.16.17,1.05,1.05,0,0,1-.86.17Z"/><path class="cls-7" d="M32,44.88,23.51,77.67c-.88,3.39-3.06,5-7.74,4.56l-5.6-.88L4.84,79.4C.51,77.55-.6,75.06.28,71.66L8.75,38.87Z"/><path class="cls-8" d="M32.17,25c.74-6.82,2.5-15.06,2.5-15.06L29,8.53l-5.6-1.45s-2.5,8-5.15,14.31S8.74,38.94,8.74,38.94a22.17,22.17,0,0,0,2.06,3.6c2.91,4,.91,6.06,7.68,6.35,6.72,3.34,5.22-2,10.12-2.48A5.84,5.84,0,0,0,32,44.94S31.43,31.72,32.17,25Z"/><path class="cls-9" d="M20.73,33.44c0-.72.05-5.82,3.25-4.11S30,33.79,28,35s-4.94-2.3-5.67-.59-1.23,8.14-1.86,6.08S20.73,33.44,20.73,33.44Z"/><path class="cls-10" d="M9.16,43.52c-.52-.69,4.1-1.51,3.5,1.39s-4.91,10.54-5.77,15-2.16,5.56-1.45,1.67S10.73,45.63,9.16,43.52Z"/><path class="cls-11" d="M28.47,18.68c0,.45-5.71,31.88-5.62,31.34s3.88-5.41,6.23-4.36C32.09,47,31,18.46,31,18.46Z"/><path class="cls-12" d="M24.79,16.57C19.56,25,12.5,43.75,12.36,43.23c-1-3.91-3.38-2.83-2.08-4.33,2.28-2.61,12.16-23.38,12.16-23.38Z"/><path class="cls-13" d="M11.6,74a18.92,18.92,0,0,1-5.9-2.44c.53-7.16,1.37-17.64,1.67-19.47l.08,0c.17,0,.39.11.6.18s.49.16.73.22a1.72,1.72,0,0,0,.87.07c.59-.17.53-.79.49-1.37A4.69,4.69,0,0,1,10.37,49s.36-.76,4.81-.25a41.27,41.27,0,0,1,8.45,2.18c.36.16,3.51,1.57,3.41,2.38a7,7,0,0,1-.74,2.22c-.32.67-.6,1.25-.19,1.65a.94.94,0,0,0,.47.25,3.31,3.31,0,0,0,.89.06h.24c-.65,1.92-4.69,11.44-7.51,18a49.64,49.64,0,0,1-7.77-1.21L11.6,74Z"/><path class="cls-14" d="M11.84,73.27a18.75,18.75,0,0,1-5.28-2.13c.53-7.15,1.2-15.35,1.5-17.76l.19.06c.24.08.48.16.71.22a1.93,1.93,0,0,0,1,.05c.87-.24.8-1.13.75-1.72a4.29,4.29,0,0,1,.17-1.9c7.83-1.13,15,3.55,15.08,3.85a6.18,6.18,0,0,1-.67,2c-.32.68-.69,1.45-.09,2a1.34,1.34,0,0,0,.62.33,2.05,2.05,0,0,0,.6.07c-.94,2.47-4.06,9.85-6.81,16.24a47.64,47.64,0,0,1-7-1.12l-.78-.19Z"/><path class="cls-15" d="M28.22,57.17c-.17-.34-1.41.07-1.81-.32s.83-1.68,1.05-3.52S22.89,49.88,20,49.06s-9.3-2-10-.25.11,3.23-.43,3.38S7.35,51.48,7,51.7,5.26,71.79,5.26,71.79s2.12,1.71,7.08,2.84a46,46,0,0,0,8.13,1.23S28.39,57.5,28.22,57.17Zm-8,18.25a48.65,48.65,0,0,1-7.77-1.2L11.6,74h0a19.09,19.09,0,0,1-5.9-2.45c.53-7.16,1.37-17.64,1.67-19.47l.08,0c.17,0,.39.11.6.18s.49.16.73.22a1.72,1.72,0,0,0,.87.07c.59-.17.53-.79.49-1.37A4.69,4.69,0,0,1,10.37,49s.36-.76,4.81-.25a41.27,41.27,0,0,1,8.45,2.18c.36.16,3.51,1.57,3.41,2.38a7,7,0,0,1-.74,2.22c-.32.67-.6,1.25-.19,1.65a.94.94,0,0,0,.47.25,3.31,3.31,0,0,0,.89.06h.24c-.65,1.92-4.69,11.44-7.51,18Z"/><path class="cls-16" d="M20.47,81c-3.89.42-15.93-2.7-19.13-4.94A4.9,4.9,0,0,0,.28,75.4c.57,1.59,2,2.91,4.56,4a25,25,0,0,0,5.32,2,17.76,17.76,0,0,0,5.61.86c2.77.29,4.66-.17,5.92-1.29A5,5,0,0,0,20.47,81Z"/><path class="cls-17" d="M16.79,70.46c.88-1.67-.27-3.48-2.56-4s-4.18.47-4.24,2.33,1.1,3.68,2.56,4.05S15.91,72.13,16.79,70.46Z"/><path class="cls-17" d="M13.92,68.12A2.33,2.33,0,0,1,12.52,67c0-.07,0-.09.08-.11a4.69,4.69,0,0,1,1.67.2h0a3.94,3.94,0,0,1,1.46.59s.07.06,0,.12A2.37,2.37,0,0,1,13.92,68.12Z"/><path class="cls-18" d="M14.73,67.09l.62-1.3,2.26-.28-2.46-.05L14,66.92s-.36-1.4-1.22-1.48c0,0,.85.66.68,1.34-.17-.48-1.09-.86-1.23-.9s.92,1,.85,1.24,1,.69,1,.69,1.13.15,1.51-.19a1.42,1.42,0,0,1,1.58-.47C16.68,66.28,14.73,67.09,14.73,67.09Z"/><path class="cls-19" d="M14.11,68.61c0-.14,2.3.15,2.4-.26.41.11-.13,3.91-2.53,4.16A13.15,13.15,0,0,0,14.11,68.61Z"/><path class="cls-20" d="M11.69,67.83c.84.17.48,3.77-.23,3.73S9.33,67.37,11.69,67.83Z"/><path class="cls-21" d="M15.61,67.61a1.45,1.45,0,0,1,1.51-.5h0c-.6-.53-1.52.28-1.86.48s-.72,0-1.17,0-.85-.65-.85-.65a3.19,3.19,0,0,0-.83-.85c.26.3.76.84.71,1s1,.7,1,.7S15.23,68,15.61,67.61Z"/><path class="cls-21" d="M17.61,65.51h-.32l-2,.2L14.67,67l-.07.28.58-.35c-.27.08-.46.16-.46.16l.62-1.3Z"/><text class="cls-22" transform="matrix(1, -0.02, 0.02, 1, 8.89, 59.49)">Ketchup</text><path class="cls-9" d="M22.46,78.05c.19,1.51-3.29,2.52-5.53,1.64s-7.39-3-5.18-2.51C19.78,78.81,22.08,75.11,22.46,78.05Z"/><path class="cls-4" d="M35.41,8.18c.63-.14.77-.68.93-1.31l.6-2.32a1.23,1.23,0,0,0-.1-.8l-1-.07C36,3.72,36.23,7.24,35.41,8.18Z"/></g></g></g></g></svg>