<svg xmlns="http://www.w3.org/2000/svg" viewBox="0 0 83.45 59.54"><defs><style>.cls-1{fill:#840100;}.cls-2{fill:#d69a00;}.cls-3{fill:#a37308;}.cls-4{fill:#bf8717;}.cls-5{fill:#af5933;}.cls-6{fill:#e8a300;}</style></defs><title>leave</title><g id="Layer_2" data-name="Layer 2"><g id="Layer_2-2" data-name="Layer 2"><g id="Layer_2-3" data-name="Layer 2"><g id="Compost"><path class="cls-1" d="M35.39,48.17c.22,2.31,1.71,9.54,1.39,9.58s-1.61-5.94-1.92-9.64Z"/><path class="cls-2" d="M0,31.73v-.1A.17.17,0,0,1,0,31.73Z"/><path class="cls-3" d="M49.19,47.53c1.41.83,1.08.67,1.08.67s-7.15.11-6.37,1.54a3.73,3.73,0,0,0,1.57,2.66s-9.13-3.71-10.12-3.22c-1.1-.19-8.41,5.9-8.41,5.9a3.74,3.74,0,0,0,.75-3c.34-1.59-6.54.33-6.54.33s-.28.25.84-1S18,48,16.39,47c1.52.5,3.48-3,3.48-3,.52-.33-.23-1.92-.71-2.42a46.19,46.19,0,0,1-4-3.18c1.05.57,1.39-.35,2.18-.93s-.71-2.78-.71-2.78.21.07,1-.45-.85-3.34-1-3.67a2.25,2.25,0,0,0,2.41.93,22.15,22.15,0,0,1,5.07.58A5.3,5.3,0,0,0,25.76,30a31,31,0,0,0,.07-4.83S26,24.93,27.4,25s1.07-1.39,1.26-2.19a.78.78,0,0,0,.95.41c.63-.25,1.08-2.08,1.08-2.08s1.6,3,2.46,1.4c.42.71,1.18,2.81,2.45,2.32.92-.36,1.08-.71,1.1-.88,0,.66.26,4.27.75,5.09s2.56,2.05,3.45.73l.48.09.15-.74,2-2.36s-.22,1,.16,1.11a9.74,9.74,0,0,0,3.53-.1,4.82,4.82,0,0,1,1.34-.35s-.94,2-.08,2.28,1.05.16,1.05.16-.81,2.54.11,2.86,1.5,1.13,2.36.28a47.46,47.46,0,0,1-3,4.19c-.32.61-.58,2.35,0,2.52,0,0,2.89,2.83,4.2,1.91C52,43.06,47.78,46.71,49.19,47.53Z"/><path class="cls-4" d="M42.87,50.23l-1.47-.55c-4.88-1.77-2.69-3.71-2.08-6.52,0,0-4.07,4.94-4.11,5s-4-3.55-4.06-3.55c-.39.06,3.24,3.62-1.25,6.8-.38.27-.74.57-1.08.84a1.29,1.29,0,0,0,0-.19,1.43,1.43,0,0,0-.39-1c-.57-.61-1.6-.74-3.53-.46-.56.08-1.13.19-1.66.3h0c-.21-1.28-1.91-2.37-4.35-3.69a8.65,8.65,0,0,0,.9-1,12.4,12.4,0,0,0,1-1.43,1.45,1.45,0,0,0,.39-.88,4.55,4.55,0,0,0-1.18-3,10,10,0,0,0-1.26-1c-.39-.28-.85-.6-1.31-.95l.18-.19a3.88,3.88,0,0,1,.42-.39c1.06-.76.7-2.12.18-3.17l.06,0c.66-.46.81-1.28.44-2.51a3.91,3.91,0,0,0,.48,0,20.17,20.17,0,0,1,4.7.57l.47.1.39-.29a5.91,5.91,0,0,0,2.13-2.7A21.75,21.75,0,0,0,27,26.08l.37,0a2.72,2.72,0,0,0,.57,0,2,2,0,0,0,1.66-1.73h.05a1.63,1.63,0,0,0,.42-.11,2.16,2.16,0,0,0,1-.89,2.2,2.2,0,0,0,1.76.73c.53,1,1.39,2.13,2.78,1.93a1.14,1.14,0,0,0,.25-.06,11.27,11.27,0,0,0,.76,3.7,4,4,0,0,0,3.62,1.82A2.48,2.48,0,0,0,41.3,31l.94.17.3-1.5.68-.79a1.17,1.17,0,0,0,.24.09,11.79,11.79,0,0,0,3.37.07l.26-.05a2.4,2.4,0,0,0,.15.92,1.57,1.57,0,0,0,.95.87l.07,0c-.2,1.15-.15,2.55,1.07,3a5,5,0,0,1,.52.25l.23.13c-.34.46-.69.9-1,1.28a10,10,0,0,0-.94,1.3,4.51,4.51,0,0,0-.29,3.17,1.57,1.57,0,0,0,.63.74,15.27,15.27,0,0,0,1.32,1.09,7.2,7.2,0,0,0,1.16.71c-2,2-3.29,3.5-3.13,4.78h0c-.54,0-1.11.1-1.67.18-1.93.28-2.88.7-3.25,1.45A1.41,1.41,0,0,0,42.83,50C42.84,50.06,42.86,50.15,42.87,50.23Z"/><g id="texture"><path class="cls-5" d="M30.68,21.17s4,26.17,4.66,28c.14.4-1.93-13-3.41-21.56C31.4,24.55,30.94,22.11,30.68,21.17Z"/><path class="cls-5" d="M33.39,23.94A23.48,23.48,0,0,1,32,28c-1.67-.33-2.81-4.38-2.81-4.38s1.15,4.78,2.73,4.76C33.45,26.87,33.22,24.55,33.39,23.94Z"/><path class="cls-5" d="M32.78,33.45a4.27,4.27,0,0,1-2.62-1.62,29.65,29.65,0,0,1-4.32-6.68C25.89,26.79,30.8,34.51,32.78,33.45Z"/><path class="cls-5" d="M33.2,35.16c2.68-.64,7.17-3.47,7.23-4.15a2.35,2.35,0,0,0-.1-.69,1.45,1.45,0,0,1-.5.11c0,.11,0,.23,0,.35C39.86,32.38,33,35.21,33.2,35.16Z"/><path class="cls-5" d="M34.23,41.33a27.29,27.29,0,0,1-5.84-1.4Z"/><path class="cls-5" d="M35.35,49.18s4.07-6.1,5.55-8.57,8-13.92,8-13.92S37.71,47.94,35.35,49.18Z"/><path class="cls-5" d="M35.35,49.18C35.5,49.19,17,31.1,17,31.1S30.16,44.72,34.21,48.32A4.16,4.16,0,0,0,35.35,49.18Z"/><polygon class="cls-5" points="25.28 35.21 25.63 39.48 25.45 35.18 24.61 32.92 25.89 30.8 24.41 32.71 22.38 32.18 24.47 32.92 25.28 35.21"/><path class="cls-5" d="M27.53,41.76c.09,0-3-.46-5.69-.88a51.5,51.5,0,0,1-7.13-2.58,39.58,39.58,0,0,0,6.9,2.83A20.25,20.25,0,0,0,27.53,41.76Z"/><path class="cls-5" d="M28.11,53.39c-.31.51-1,1.56-1,1.56s2.73-3.71,4.07-4.6a11.83,11.83,0,0,1,4.18-1.17,18.36,18.36,0,0,0-3.94,1.26c-1.19.73-3.67,3.86-4.29,4.62"/><path class="cls-5" d="M41.19,40.62s8.67-5.73,9.25-6.74C50.16,35.57,42.76,39.87,41.19,40.62Z"/><path class="cls-5" d="M37.67,46.05s4.92-.32,7.83-.74c.29,0,5.63-1.78,7.56-3.4l.21-.23a1.07,1.07,0,0,1-.63.19A32.24,32.24,0,0,1,45,45Z"/><path class="cls-5" d="M35.35,49.18s3.54-.35,5.52.45a33.17,33.17,0,0,1,4.6,2.76S40.17,49,35.35,49.18Z"/><path class="cls-5" d="M35.35,49.18s-15.73-.89-17.13-2Z"/></g><path class="cls-1" d="M50.94,45.6c-1.2,3.29-3.9,14.08-4.36,13.94-.45-.38,1.68-9.13,3.67-14.36Z"/><path class="cls-2" d="M13.53.15,13.59,0A.47.47,0,0,1,13.53.15Z"/><path class="cls-2" d="M70.13,53.74c1.37,2,1,1.61,1,1.61s-9.78-4.51-9.66-2.06c-1,2.18.4,4.64.4,4.64s-10-11-11.66-11c-1.36-1-15.3,2.54-15.3,2.54s2.56-1.21,3-3.57c1.5-2-9.11-3.82-9.11-3.82s-.53.16,1.76-.74-3.1-7.33-4.7-9.69c1.73,1.68,6.7-1.85,6.7-1.85.92-.11.94-2.76.61-3.75s-2.54-4.26-3.39-6.94c1.07,1.47,2.12.42,3.57.16s.84-4.25.84-4.25.25.24,1.61,0,1-5.1,1-5.66a3.39,3.39,0,0,0,2.66,2.84c2.15.67,6.53,4.09,6.53,4.09s2.71-.52,3.73-1.73S53,8.05,53,8.05s.43-.16,2.2.87,2.37-1.19,3.16-2.16a1.15,1.15,0,0,0,1,1.17c1,.08,2.82-2.12,2.82-2.12s.24,5.07,2.44,3.51c.1,1.24-.22,4.6,1.82,4.75,1.47.12,1.93-.26,2.07-.47-.38.92-2.44,6-2.29,7.42s2.15,4.45,4.22,3.25l.59.42.69-.91L76,21.9s-.95,1.23-.51,1.61a14.82,14.82,0,0,0,4.88,2.17,7.56,7.56,0,0,1,2,.4s-2.58,2.1-1.59,3.05,1.33.9,1.33.9-2.77,2.91-1.73,4,1.31,2.5,3,1.91c-2.23,1.72-5.9,3.15-6.74,3.78s-2.33,2.82-1.64,3.43c0,0,2.08,5.73,4.45,5.34C76.86,49.48,68.75,51.7,70.13,53.74Z"/><path class="cls-6" d="M59.76,53.29c-.52-.55-1.08-1.13-1.66-1.72-5.48-5.59-1.24-6.8,1.42-10.22,0-.06-8.75,4-8.82,4s-3.16-7.45-3.21-7.47c-.56-.18,2,7-6.14,8.43-.69.12-1.37.29-2,.44,0-.09,0-.19.07-.28a2.17,2.17,0,0,0,.13-1.64c-.38-1.21-1.68-2.06-4.5-2.94-.81-.25-1.65-.48-2.45-.67h0c.55-1.88-1.05-4.47-3.51-7.86A14.22,14.22,0,0,0,31,32.61a19.47,19.47,0,0,0,2.25-1.32,2.26,2.26,0,0,0,1.11-.94,7,7,0,0,0,.33-4.81,17.09,17.09,0,0,0-1.09-2.15c-.36-.63-.77-1.38-1.17-2.15l.37-.13c.28-.1.56-.18.84-.25,1.92-.35,2.32-2.43,2.31-4.2l.11,0c1.2-.19,1.94-1.2,2.25-3.12.22.09.45.18.68.25,1.35.42,4.41,2.57,6,3.82l.58.46.72-.14c.54-.11,3.33-.71,4.65-2.28A32.9,32.9,0,0,0,53.85,10l.49.28a3.94,3.94,0,0,0,.78.35A3,3,0,0,0,58.5,9.41l.07,0a3.34,3.34,0,0,0,.63.12A3.19,3.19,0,0,0,61.11,9,3.34,3.34,0,0,0,63,11.11c.1,1.66.51,3.81,2.52,4.44l.38.1c-.81,2.21-1.47,4.41-1.37,5.52A6.07,6.07,0,0,0,68.29,26a3.52,3.52,0,0,0,1.85.08l1.17.84,1.39-1.84,1.44-.63a2.43,2.43,0,0,0,.26.29A18.14,18.14,0,0,0,79,27l.4.11a3.25,3.25,0,0,0-.4,1.35,2.32,2.32,0,0,0,.71,1.81l.08.07c-1,1.45-1.87,3.38-.5,4.77a5.37,5.37,0,0,1,.55.69l.23.31c-.76.41-1.53.79-2.18,1.11a14.4,14.4,0,0,0-2.13,1.15,6.87,6.87,0,0,0-2.46,4.13,2.29,2.29,0,0,0,.37,1.4,23.13,23.13,0,0,0,1.1,2.37A13.8,13.8,0,0,0,75.84,48c-4,1.39-6.75,2.6-7.38,4.46h0c-.76-.3-1.58-.59-2.38-.84-2.82-.89-4.38-.93-5.38-.16a2.2,2.2,0,0,0-.83,1.42A3.64,3.64,0,0,1,59.76,53.29Z"/><path class="cls-2" d="M50.06,44.49,58.4,16.18s-1.77-4.65-.65-7.29,1-.13.77.51a69.8,69.8,0,0,0,.64,7L50.56,46Z"/><g id="texture-2"><path class="cls-5" d="M62.16,5.81S50.53,44,50.23,47c-.07.63,5.88-19,9.43-31.56C60.92,10.87,61.89,7.25,62.16,5.81Z"/><path class="cls-5" d="M64,11.35A35.52,35.52,0,0,1,59.51,16c-2-1.54-.95-7.79-.95-7.79s-1.55,7.25.6,8.25C62.21,15.36,63.39,12.06,64,11.35Z"/><path class="cls-5" d="M57,23.88s-1.56-.82-2.52-3.93A44.44,44.44,0,0,1,53,8.05C52,10.32,53.6,24,57,23.88Z"/><path class="cls-5" d="M56.45,26.47c4,.88,12,0,12.53-.92a3.6,3.6,0,0,0,.32-1,1.92,1.92,0,0,1-.75-.18l-.21.49C67.33,27,56.08,26.39,56.45,26.47Z"/><path class="cls-5" d="M53.82,35.54a40.62,40.62,0,0,1-7-5.72Z"/><path class="cls-5" d="M50.23,47s9.52-5.64,13.14-8S83.3,25.18,83.3,25.18,54.25,46.81,50.23,47Z"/><path class="cls-5" d="M50.23,47c.2.12-13.11-36.53-13.11-36.53S46.08,37.5,49.25,45A6.22,6.22,0,0,0,50.23,47Z"/><polygon class="cls-5" points="45.64 21.37 43.33 27.41 45.89 21.45 46.22 17.82 49.34 15.77 46.09 17.41 43.67 15.37 46.03 17.73 45.64 21.37"/><path class="cls-5" d="M44.43,31.76c.12,0-3.72-2.56-7.17-4.92-2.34-1.6-8-8.14-8-8.14S33.65,24.56,36.8,27A30.1,30.1,0,0,0,44.43,31.76Z"/><path class="cls-5" d="M37.63,48c-.76.48-2.39,1.45-2.39,1.45s6.13-3.27,8.53-3.6S50.23,47,50.23,47s-4.42-1-6.18-.84c-2.1.22-7.52,2.85-8.85,3.48"/><path class="cls-5" d="M63.76,39.12S79.28,37,80.72,36C79.25,38.1,66.38,39.12,63.76,39.12Z"/><path class="cls-5" d="M55.43,44.2S62.32,47,66.55,48.3c.42.13,8.83,1.25,12.52.32l.44-.16a1.67,1.67,0,0,1-1-.17,47.67,47.67,0,0,1-12.48-.76Z"/><path class="cls-5" d="M50.23,47s5,1.83,7.22,4.22a50.15,50.15,0,0,1,4.45,6.76S56.88,49.87,50.23,47Z"/><path class="cls-5" d="M50.23,47s-20.82-11.48-22-13.86Z"/></g></g></g></g></g></svg>