<svg xmlns="http://www.w3.org/2000/svg" viewBox="0 0 259.1 123.96"><defs><style>.cls-1{font-size:28px;fill:#3c423f;font-family:Arial-Black, Arial Black;}.cls-2{letter-spacing:-0.06em;}.cls-3{letter-spacing:-0.02em;}.cls-4{fill:#0d6f40;}</style></defs><title>Asset 1</title><g id="Layer_2" data-name="Layer 2"><g id="Logo_2" data-name="Logo 2"><text class="cls-1" transform="matrix(1, -0.01, 0.01, 1, 68.32, 115.38)">REC<tspan class="cls-2" x="63.78" y="0">Y</tspan><tspan x="83.88" y="0">C</tspan><tspan class="cls-3" x="105.66" y="0">L</tspan><tspan x="123.85" y="0">ONE</tspan></text><g id="cyclone"><path class="cls-4" d="M47.85,3.36c-35.09,3.92,93,6,21.94,39.53C37,58.37,9.15,49.83,1.69,47c-.87-.33-1.82.28-1.68,1.07,1,5.36,4.84,20.59,17.54,25.09a1,1,0,0,1-.11,1.91C3.68,78.6,9.15,88.6,18.87,92.78A.94.94,0,0,1,19,94.5c-6.52,3.84,2,9.85,8.21,11.86,7.17,2.33,7.8,2.22,11.4,11.54.3.76-.39,1.18.22.57,2.74-2.73,1.89-7.76.65-10.22a1,1,0,0,1,.72-1.38c6.81-1.78,10.26-11.64,0-14a1,1,0,0,1-.05-1.93c18-5.23,20.57-15.41,5.32-16-1.23,0-1.59-1.46-.47-1.92C81.13,57.92,225.76-16.54,47.85,3.36Z"/></g><g id="garbage"><path class="cls-4" d="M35.48,35.24l1.12-1.4,2.22-1.36,2.27-.71,3.82-.38.18,2.21s3-.51,3.2-.58a20.77,20.77,0,0,1,2.35,2.62c.09.14.21,4.68.21,4.68L49,41.14l.51,2.18L45.84,45l-1-.1-3.36,2-1.57-1.83-3.13-1-3.38-5.19Z"/></g><g id="apple"><path class="cls-4" d="M55.72,18.38c1.51-.66,7.37-3.43,9.62-1.16,0,0-3.9.34-3.92,2.22s3.82,6.88,5.44,7.06S69.57,24,69.57,24s1.92,4.93-2.69,7.68-7.13,1.83-9.41.79c0,0,3-1,2.64-2.61s-2.83-5.88-5-6.48-3.88,2.23-3.88,2.23S49.46,21.12,55.72,18.38ZM55.33,16c0-.29-1,0-.5.15a2.59,2.59,0,0,1,1,.6c.48.52.8,1.27.88,1.26A3.42,3.42,0,0,0,56,16.56,2.14,2.14,0,0,0,55.33,16Z"/></g><path id="can" class="cls-4" d="M20.33,24.62l-.42.73v.29l-.33,1,0,.27.12.27,0,0A32,32,0,0,0,16.07,25c-3.29-1.79-6.28-2.82-6.68-2.3q-.12.16.09.48a.8.8,0,0,0-.13.13S1.77,32.7,1.69,32.81c-.4.52,1.71,2.71,5,4.5s6.51,2.52,6.91,2c.1-.13,6.9-9.9,6.9-9.9a.41.41,0,0,0,0-.09c.39.05.65,0,.75-.11a.3.3,0,0,0,0-.32l.25.06,1,.07.27-.2,1.54-.3.27-.14,1.06-.59.16-.26.29-.12.3-.13,1-1.08.34-.11.21-.54.21-.2.74-.89.16-.24,0-.31.39-1,.15-.26-.12-.28v-.26l-.13-.82-1.81-1-1.54.22-.31.06-2.15,1.06-1.65,1.24"/></g></g></svg>