<svg xmlns="http://www.w3.org/2000/svg" viewBox="0 0 50.33 95.5"><defs><style>.cls-1{fill:#a2a2a2;}.cls-2{fill:#57648e;}.cls-3{fill:#4b5078;}.cls-4{fill:#d5d5d5;fill-opacity:0.49;}.cls-5,.cls-9{fill:#fffcfc;}.cls-5{fill-opacity:0.68;opacity:0.62;isolation:isolate;}.cls-6{fill:#506089;}.cls-7{opacity:0.68;}.cls-8{fill:#d2d2d2;}.cls-9{fill-opacity:0.48;}.cls-10{fill:#444;}.cls-11{fill:#c5c5c5;}.cls-12{fill:#9aa1bb;}.cls-13{fill:#fffaf2;}</style></defs><title>milkbottle</title><g id="Layer_2" data-name="Layer 2"><g id="Layer_2-2" data-name="Layer 2"><g id="Layer_2-3" data-name="Layer 2"><g id="paper"><polygon class="cls-1" points="17.61 92.23 17.4 93.14 17.59 92.24 17.59 92.22 17.61 92.23"/><path class="cls-2" d="M36.89,1.52l-1,4.55L28.34,4.46a11,11,0,0,0-2.28-1.8,10.9,10.9,0,0,1,.79-2.4C27.25-.76,36.89,1.52,36.89,1.52Zm9.69,2.94c0-1.1-9.69-2.93-9.69-2.93l-1,4.54L43.5,7.69A10.91,10.91,0,0,1,46.32,7,11.32,11.32,0,0,0,46.58,4.46Z"/><path class="cls-2" d="M36.89,1.52l-1,4.55L28.34,4.46a11,11,0,0,0-2.28-1.8,10.9,10.9,0,0,1,.79-2.4C27.25-.76,36.89,1.52,36.89,1.52Zm9.69,2.94c0-1.1-9.69-2.93-9.69-2.93l-1,4.54L43.5,7.69A10.91,10.91,0,0,1,46.32,7,11.32,11.32,0,0,0,46.58,4.46Z"/><path class="cls-3" d="M26.1,2.45,36.23,4.61l-.31,1.46L28.35,4.46a11.09,11.09,0,0,0-2.29-1.8Z"/><path class="cls-3" d="M46.37,6.76l0,.22a11.09,11.09,0,0,0-2.83.71L35.93,6.08l.31-1.46Z"/><path class="cls-4" d="M44.32,10.45a1.15,1.15,0,0,1-.26,0L35.39,8.58l.14-.66,8.82,1.87Q44.32,10.12,44.32,10.45Z"/><path class="cls-4" d="M21.85,92.5c-10.93-2,15.24,2.26,9.59-1.46-2.26-1.48-7.45-2.56-12.87-3.32l.26-1.24c7.4,1.09,14.63,3.11,15.92,5.92C34.75,92.39,36.44,95.23,21.85,92.5Z"/><path class="cls-4" d="M34.92,93.9a2.52,2.52,0,0,1-.25.21l-.24.21-.46.36c-.21.15-.42.28-.64.41l-.16.08-.2.09c-2,.87-15.59-1.05-15.78-1.07l.42-2,2.18.49C24.48,93.71,33,95.25,34.92,93.9Z"/><path class="cls-4" d="M20.32,25.25C18,31.52,9.43,71.85,9.43,71.85S6,71,6,68.84s8.24-43.9,10.21-45.44S21,23.48,20.32,25.25Z"/><path class="cls-4" d="M18.82,86.46l-.27,1.25c-8.12-1.14-16.76-1.56-16.76-1.56C3.58,85.21,11.29,85.35,18.82,86.46Z"/><path class="cls-4" d="M17.59,92.23l-.43,2h0l-.18,0h0l-.14,0-.06,0-.3-.08-.11,0-.09,0L16,93.86h0l-.62-.18-.22-.07h0l-.62-.19h0l-.67-.2L13.32,93h0l-.6-.18h0l-.62-.2h0l-.64-.21-.16,0-.49-.16-1.5-.49L9,91.63l-.49-.16-.33-.12-.47-.15,0,0-.3-.11-.47-.17-.46-.17-.3-.11-.14,0-.27-.11-.16-.06-.28-.11a10.7,10.7,0,0,1-3-1.54l-.12-.15-.13-.15S2,88.38,2,88.35l-.16-.24L1.74,88l-.07-.13a4.67,4.67,0,0,1-.27-.49l0-.07A2.44,2.44,0,0,1,1.23,87a2.88,2.88,0,0,1-.13-.31c1.23,2,9.58,4.07,14.28,5.07Z"/><path class="cls-4" d="M16.24,23.4c2-1.55,4.73.08,4.08,1.85C18,31.52,9.42,71.85,9.42,71.85S6,71,6,68.84,14.27,24.94,16.24,23.4Zm5.61,69.1c-10.93-2,15.24,2.26,9.59-1.46-2.26-1.48-7.45-2.56-12.87-3.32h0c-8.12-1.14-16.76-1.56-16.76-1.56,1.79-.94,9.5-.79,17,.32h0c7.4,1.09,14.63,3.11,15.92,5.92C34.75,92.39,36.44,95.23,21.85,92.5Z"/><path class="cls-4" d="M38.42,88.61a13.85,13.85,0,0,1-3.5,5.29c-2,1.35-10.44-.19-15.13-1.19-.89-.18-1.64-.35-2.18-.48h0l-2.21-.45c-4.7-1-13-3-14.29-5.08a13.76,13.76,0,0,1-1-6.25C.37,77.89,10.6,30.16,11.77,25.38s6.45-11.79,9.59-12.74c2.55-.78,4.45-4.49,5.1-6l.25.07,8.67,1.85h0l.15-.67h0l-.15.66,8.68,1.85a1,1,0,0,0,.25,0c0,1.63.21,5.79,2.23,7.54C49,20.14,51,28.69,50.12,33.53S39.17,86.14,38.42,88.61Z"/><path class="cls-4" d="M35.53,7.91l-.14.67L26.72,6.73l-.25-.07A6.62,6.62,0,0,0,26.71,6Z"/><path class="cls-1" d="M19.79,92.71l-2.18-.48h0l-.21.91-.21,1.07h0c.21,0,13.76,1.94,15.79,1.07l.19-.09.16-.09a6.18,6.18,0,0,0,.64-.4c.15-.11.31-.23.46-.36l.25-.21.25-.22C33,95.25,24.48,93.71,19.79,92.71Zm-2.2-.47v0c-.56-.1-1.32-.26-2.21-.45-4.7-1-13-3-14.29-5.07l.13.3a2.59,2.59,0,0,0,.14.29l0,.07.27.49.08.13.08.12a1.88,1.88,0,0,0,.16.23.44.44,0,0,0,.08.11l.12.16a.86.86,0,0,0,.13.14,10.23,10.23,0,0,0,3,1.55l.27.1.17.07.27.12.15,0,.3.11.46.18.47.16.3.11,0,0,.46.16.33.11.48.16.34.12,1.49.49.49.16.16,0,.64.21h0l.62.2h0l.6.18h0l.58.18.67.2h0l.61.19h0l.23.07.62.18h0l.26.08.08,0,.12,0,.3.08,0,0,.14,0h0l.19.06h0l.06-.27.17-.79Z"/><polygon class="cls-1" points="17.61 92.23 17.4 93.14 17.59 92.24 17.59 92.22 17.61 92.23"/><path class="cls-5" d="M20.32,25.25C18,31.52,9.43,71.85,9.43,71.85S6,71,6,68.84s8.24-43.9,10.21-45.44S21,23.48,20.32,25.25Z"/><path class="cls-6" d="M46.45,4.22C44,3.75,38.72,2.54,36.77,2.08l.12-.55S45.3,3.11,46.45,4.22Z"/><path class="cls-6" d="M36.89,1.53l-.12.55c-2-.37-7.24-1.4-9.71-2C28.56-.45,36.89,1.53,36.89,1.53Z"/><g class="cls-7"><path class="cls-8" d="M36,5.65l-.62,2.93L26.72,6.73l-.25-.07a1.51,1.51,0,0,1-.9-1.7,1.49,1.49,0,0,1,1.77-1.15h0Z"/><path class="cls-8" d="M45.84,9.27a1.5,1.5,0,0,1-1.52,1.18,1.15,1.15,0,0,1-.26,0L35.39,8.58,36,5.65,44.69,7.5A1.5,1.5,0,0,1,45.84,9.27Z"/></g><path class="cls-9" d="M36.07,76.62c-.85,3.32-12.25,5.56-16.77,2.84C20.92,78,23,66,24.75,53.66l0-.14h0c1.92-13.57,3.47-27.4,3.59-27.6a13.35,13.35,0,0,0,2.28,0h0c7.56-.64,13.09-7.72,13.44-6.86C47.34,27,36.92,73.31,36.07,76.62Z"/><path class="cls-10" d="M18.46,55.63c-.05.15-.14.15-.25,0s-.4-.72-.1-1.63a53.2,53.2,0,0,1,4.27-7.83c.13-.2.28-.26.48-.11.6.49.79,1,.45,2.21-.42,1.46-.88,3.23-1.37,5.35,1.53-2.73,3.62-5.06,5.16-7.69.13-.21.25-.23.43-.06a1.79,1.79,0,0,1,.14,2.19,54.51,54.51,0,0,0-3,7.26c-.06.15-.12.15-.24.06s-.45-.63-.24-1.63a33.38,33.38,0,0,1,2-4.95A42.57,42.57,0,0,0,21.9,55.4c-.07.15-.14.2-.27.12A1.66,1.66,0,0,1,21,53.73a36.71,36.71,0,0,1,1.09-5A51.75,51.75,0,0,0,18.46,55.63Z"/><path class="cls-10" d="M26.7,53.13a18.38,18.38,0,0,1,1.77-3.72c.13-.18.23-.23.35-.1a1.55,1.55,0,0,1,.06,1.63c-.29.68-.88,1.71-1.16,2.48s-.27,1.47.21,1.42c.68-.06,1.46-1.08,1.87-2.14.07-.13.17-.12.24,0a1.06,1.06,0,0,1-.07.94,2.67,2.67,0,0,1-2.17,1.65C26.66,55.33,26.34,54.38,26.7,53.13Zm3.18-4.05c-.18.21-.6.19-.85-.19a.93.93,0,0,1,0-1.12c.22-.26.67-.1.88.3a.91.91,0,0,1-.05,1Z"/><path class="cls-10" d="M31.1,54.69c.72,0,1.72-1.1,2.26-2.28.1-.19.26-.21.33,0a1.45,1.45,0,0,1-.11.94,3.34,3.34,0,0,1-2.44,1.77c-1,0-1.62-.69-1.34-2.32a15.71,15.71,0,0,1,3.5-7.07c.22-.25.43-.29.64-.1a1.52,1.52,0,0,1,.42,1.63,8.6,8.6,0,0,1-3.29,4.66C30.53,53.41,30.42,54.66,31.1,54.69ZM33.84,47c-.2-.11-1.24,1.6-2.2,3.56-.12.24-.23.49-.33.73,2-1.74,2.73-4.17,2.53-4.28Z"/><path class="cls-10" d="M37,48.61c.56-.22.93,0,1.26.6A1.44,1.44,0,0,1,38,51a4.82,4.82,0,0,1-2,1.3c.11,1.23.56,2.07,1.13,2.1s1.4-1.15,1.81-2.1c.08-.18.21-.2.3,0a1.18,1.18,0,0,1-.14.92,2.67,2.67,0,0,1-2.17,1.67c-1,0-2-.79-2-2.81,0-.27,0-.32.3-.43,1.83-.69,2.78-2,2.53-2.42s-.83-.07-1.6.58c-1.09.9-1.71,2.25-2.75,5.05,0,.12-.15.16-.26,0s-.33-.72-.09-1.64a46.78,46.78,0,0,1,3.9-8.29c.13-.18.28-.21.38,0,.24.44.24,1-.35,2.16-.33.63-.87,1.71-1.25,2.46A3.75,3.75,0,0,1,37,48.61Z"/><path class="cls-11" d="M21.85,92.5c-10.93-2,15.24,2.26,9.59-1.46-2.26-1.48-7.45-2.56-12.87-3.32h0c-8.12-1.14-16.76-1.56-16.76-1.56,1.79-.94,9.5-.79,17,.32h0c7.4,1.09,14.63,3.11,15.92,5.92C34.75,92.39,36.44,95.23,21.85,92.5Z"/><path class="cls-12" d="M44.25,3.77c-1.14-.34-2.53-.59-3.82-.88l-.22,2.56,3.58.78A14.8,14.8,0,0,0,44.25,3.77Z"/><path class="cls-12" d="M30.79,3.45S30,2.74,31.1,1l-1-.17C28.75,1.13,29,3.08,29,3.08Z"/><path class="cls-13" d="M12.57,76.33A29.14,29.14,0,0,1,11.37,80c-.63,1.34,1.38,2.37,1.52,1.09l-.33-4.73"/><path class="cls-13" d="M39,75s-.63,3.59-.71,5.26c-.09,2-2.35,2.35-1.85.66L39,75"/></g></g></g></g></svg>