<svg xmlns="http://www.w3.org/2000/svg" viewBox="0 0 135.2 113.35"><defs><style>.cls-1{fill:#dddbcc;}.cls-1,.cls-3{stroke:#b2b2ac;stroke-miterlimit:10;}.cls-2{fill:#b2b1a3;}.cls-3{fill:#edede5;}.cls-4{isolation:isolate;font-size:12.57px;font-family:JCHEadA, HeadLineA;letter-spacing:0.1em;}.cls-5{fill:#bcbcbc;}.cls-6{fill:#6b6565;}.cls-7{fill:#3b3b39;fill-opacity:0.34;}</style></defs><title>newspaper</title><g id="Layer_2" data-name="Layer 2"><g id="Layer_2-2" data-name="Layer 2"><g id="Layer_2-3" data-name="Layer 2"><g id="paper"><g id="newspaper"><path id="front" class="cls-1" d="M48.48,109.08c-.56.5-2.08,6.17-4.81,2.6C41.14,108.37.74,65.94.74,65.94L81.58,1.85l43.31,48.33Z"/><polygon class="cls-2" points="26.93 60.4 12.23 71.65 11.51 70.88 26.21 59.63 26.93 60.4"/><polygon class="cls-2" points="29.26 62.91 14.55 74.15 13.84 73.38 28.54 62.13 29.26 62.91"/><polygon class="cls-2" points="31.7 65.54 17 76.78 16.28 76.01 30.99 64.76 31.7 65.54"/><polygon class="cls-2" points="34.09 68.1 19.38 79.34 18.67 78.58 33.37 67.33 34.09 68.1"/><polygon class="cls-2" points="36.47 70.67 21.77 81.91 21.05 81.14 35.76 69.89 36.47 70.67"/><polygon class="cls-2" points="38.86 73.23 24.15 84.48 23.44 83.71 38.15 72.46 38.86 73.23"/><polygon class="cls-2" points="41.37 75.93 26.66 87.17 25.95 86.41 40.65 75.16 41.37 75.93"/><polygon class="cls-2" points="43.69 78.43 28.99 89.67 28.27 88.91 42.98 77.66 43.69 78.43"/><polygon class="cls-2" points="46.14 81.06 31.43 92.31 30.72 91.54 45.42 80.29 46.14 81.06"/><polygon class="cls-2" points="48.52 83.63 33.82 94.87 33.1 94.1 47.81 82.85 48.52 83.63"/><polygon class="cls-2" points="50.91 86.19 36.2 97.44 35.49 96.67 50.19 85.42 50.91 86.19"/><path class="cls-3" d="M9.82,48.66S51.32,105.53,46,111.54c.53,1.54,48.59-26.56,88.56-58L100.67.66Z"/><text class="cls-4" transform="matrix(1.09, -0.56, 0.53, 0.85, 45.06, 47.61)">NEWS</text><polygon points="106.08 17.1 21.89 64.33 22.11 64.64 106.29 17.41 106.08 17.1"/><path class="cls-2" d="M54.68,54.1,27.88,68.69c-1.14.45-1.21.11-1.48-.29h0a.82.82,0,0,1,.24-1.11l.08,0,27-14.66a1,1,0,0,1,1.28.28h0C55.22,53.25,55.41,53.7,54.68,54.1Z"/><g id="article"><polygon class="cls-2" points="67.82 51.71 51.65 61.15 51.04 60.3 67.22 50.86 67.82 51.71"/><polygon class="cls-2" points="69.57 54.18 53.4 63.62 52.8 62.77 68.97 53.33 69.57 54.18"/><polygon class="cls-2" points="71.53 56.93 55.35 66.37 54.75 65.53 70.92 56.08 71.53 56.93"/><polygon class="cls-2" points="73.13 59.36 56.95 68.8 56.35 67.95 72.53 58.51 73.13 59.36"/><polygon class="cls-2" points="75.08 62.11 58.91 71.55 58.3 70.71 74.48 61.26 75.08 62.11"/><polygon class="cls-2" points="77.03 64.86 60.86 74.3 60.26 73.46 76.43 64.01 77.03 64.86"/><polygon class="cls-2" points="78.81 67.37 62.64 76.81 62.04 75.97 78.21 66.52 78.81 67.37"/><polygon class="cls-2" points="80.56 69.84 64.39 79.28 63.79 78.43 79.96 68.99 80.56 69.84"/><polygon class="cls-2" points="82.52 72.59 66.34 82.03 65.74 81.19 81.92 71.74 82.52 72.59"/><polygon class="cls-2" points="84.47 75.34 68.3 84.78 67.7 83.94 83.87 74.49 84.47 75.34"/><polygon class="cls-2" points="86.42 78.09 70.25 87.53 69.65 86.69 85.82 77.24 86.42 78.09"/><polygon class="cls-2" points="88.38 80.84 72.2 90.29 71.6 89.44 87.78 80 88.38 80.84"/><polygon class="cls-2" points="89.96 83.07 73.79 92.51 73.19 91.67 89.36 82.22 89.96 83.07"/><polygon class="cls-2" points="45.06 64.47 28.88 73.91 28.28 73.07 44.45 63.62 45.06 64.47"/><polygon class="cls-2" points="47.01 67.22 30.84 76.67 30.23 75.82 46.41 66.38 47.01 67.22"/><polygon class="cls-2" points="49.06 70.12 32.89 79.56 32.29 78.71 48.46 69.27 49.06 70.12"/><polygon class="cls-2" points="51.06 72.94 34.89 82.38 34.29 81.53 50.47 72.09 51.06 72.94"/><polygon class="cls-2" points="53.07 75.76 36.9 85.2 36.3 84.36 52.47 74.91 53.07 75.76"/><polygon class="cls-2" points="55.07 78.58 38.9 88.02 38.3 87.18 54.47 77.73 55.07 78.58"/><polygon class="cls-2" points="57.18 81.55 41.01 90.99 40.41 90.14 56.58 80.7 57.18 81.55"/><polygon class="cls-2" points="59.13 84.3 42.96 93.74 42.36 92.89 58.53 83.45 59.13 84.3"/><polygon class="cls-2" points="61.19 87.19 45.01 96.64 44.41 95.79 60.59 86.34 61.19 87.19"/><polygon class="cls-2" points="63.19 90.01 47.02 99.46 46.42 98.61 62.59 89.17 63.19 90.01"/><polygon class="cls-2" points="65.19 92.83 49.02 102.28 48.42 101.43 64.59 91.99 65.19 92.83"/><polygon class="cls-2" points="67.2 95.66 51.02 105.1 50.42 104.25 66.6 94.81 67.2 95.66"/><polygon class="cls-2" points="68.65 97.7 52.47 107.14 51.87 106.3 68.05 96.85 68.65 97.7"/></g><g id="profile"><polygon class="cls-5" points="125.37 53.55 92.79 72.67 71.7 43.13 104.28 24.01 125.37 53.55"/><ellipse class="cls-6" cx="97.8" cy="44.83" rx="8.09" ry="7.34"/><path class="cls-6" d="M92.79,72.67s-2.07-15,9.41-21.68,23.17,2.56,23.17,2.56Z"/></g><path id="shade" class="cls-7" d="M134,54.68l-6.73-10.5C108,56.91,62.88,83.42,40.09,96.7c4.35,7.94,6.89,14.2,5.3,16C45.93,114.23,94,86.14,134,54.68Z"/></g></g></g></g></g></svg>