<svg xmlns="http://www.w3.org/2000/svg" viewBox="0 0 310.79 268.14"><defs><style>.cls-1{fill:#fff;}.cls-2{fill:#e2e2e2;opacity:0.61;}</style></defs><title>organicsign</title><g id="Layer_2" data-name="Layer 2"><g id="background"><rect class="cls-1" x="18.13" y="35.95" width="270.54" height="230.53" transform="matrix(1, -0.01, 0.01, 1, -1.85, 1.9)"/><path class="cls-2" d="M23.09,23.28C24.78,22.12,44,0,44,0l-.81,7.52,8-2-.27,4.67,7.52.81L56.6,17.7l6.48,0L20.2,65.83l-1-7.27-7.8,3.86.41-7L0,53.81Z"/><path class="cls-2" d="M288.22,29.54c1.1,1.73,22.57,21.62,22.57,21.62L303.3,50.1l1.77,8.12-4.66-.43-1.05,7.49-6.68-2.06-.24,6.48L245.78,25.24l7.3-.76-3.6-7.93,7,.65,2-11.75Z"/><path d="M88.15,149a20.52,20.52,0,0,1-3.55,12.2,12.52,12.52,0,0,1-10.85,5.65,13.33,13.33,0,0,1-4.2-.75,11.82,11.82,0,0,1-7.15-5.55,19.13,19.13,0,0,1-1.85-9.1,24,24,0,0,1,3.55-13q4.09-6.65,11.1-6.65,6.15,0,9.8,5.75A21,21,0,0,1,88.15,149Zm-4.8-.45q0-10.41-6.7-12.45a6,6,0,0,0-1.6-.2,8.45,8.45,0,0,0-5.6,2.5q-4.45,4-4.45,14.45a12.29,12.29,0,0,0,.4,2.65A11.27,11.27,0,0,0,68,161a7.62,7.62,0,0,0,5.7,2q5.1,0,7.7-5A20.78,20.78,0,0,0,83.35,148.52Z"/><path d="M120,165v.25a2.21,2.21,0,0,1-1.85,1.1,1.8,1.8,0,0,1-1.45-.75q-.45-1.8-6.62-5.85t-8.18-4.05H101l-1,.05v1.95a18.18,18.18,0,0,0,.25,2.65,7.57,7.57,0,0,0,.55,2.45,4.39,4.39,0,0,1,.9,1.5,1.8,1.8,0,0,1-.7,1.47,2.43,2.43,0,0,1-1.6.58,3.52,3.52,0,0,1-3-1.35q-1-1.2-1-9.9a4.53,4.53,0,0,1-2.2-.65c-.87-.53-1.3-1.1-1.3-1.7,0-1.23,1.12-2.12,3.35-2.65.13-1,.25-2.45.35-4.25.07-2,.15-3.45.25-4.25q.3-1.6.75-4.8h-.4c-1.33,0-2-.55-2-1.75a1.81,1.81,0,0,1,1.2-1.95l1.7-.5a7.83,7.83,0,0,1,1.58-1.18,4.54,4.54,0,0,1,1.82-.27c.6,0,.9.27.9.8,0,.16.42.25,1.25.25a19.67,19.67,0,0,1,10,2.35,9,9,0,0,1,5,8.25,9.5,9.5,0,0,1-2.6,6.85,24.13,24.13,0,0,1-6.2,4.15q3.55,2.25,7,4.5Q120.05,161.37,120,165Zm-6.8-22.4a5.22,5.22,0,0,0-3.26-4.85,13.15,13.15,0,0,0-6.12-1.35q-.46,0-2.16.15a29.45,29.45,0,0,1-1,6.2,49.91,49.91,0,0,0-.75,7.75,16.64,16.64,0,0,0,3.61,1,6.82,6.82,0,0,0,1.76-.35,13.07,13.07,0,0,0,5.42-3A7.38,7.38,0,0,0,113.2,142.62Z"/><path d="M147.7,155.77a10.2,10.2,0,0,1-3.8,7.75,12.08,12.08,0,0,1-8.2,3.4q-6.34,0-9.4-5-2.44-4.05-2.45-10.86a26.43,26.43,0,0,1,3-12.52q3.55-6.87,9.8-6.86a9.87,9.87,0,0,1,5.4,1.45,6.92,6.92,0,0,1,3.15,4.52c.33,1.57.5,2.32.5,2.26q0,6.62-3,6.62A2.54,2.54,0,0,1,141,146a1.85,1.85,0,0,1-.75-1.5,3.46,3.46,0,0,1,.53-1.46,3.4,3.4,0,0,0,.52-1.51,7.65,7.65,0,0,0-.7-3.92c-.6-1-1.77-1.45-3.53-1.45s-3.46,1.12-5,3.35a16,16,0,0,0-2.49,5.86,33.48,33.48,0,0,0-.6,6,22.13,22.13,0,0,0,.75,6.81,6.8,6.8,0,0,0,4.83,4.46,7.11,7.11,0,0,0,1.79.3,6.4,6.4,0,0,0,3.79-1.5,10.45,10.45,0,0,0,2.69-3.15,6.57,6.57,0,0,0,.65-2.65l-.2-.15a14.1,14.1,0,0,0-5.5.85c-.4.2-.8.41-1.2.65a3.46,3.46,0,0,1-1.25.35,2.23,2.23,0,0,1-1.95-1,4.11,4.11,0,0,1-.7-2.35,2.06,2.06,0,0,1,1.15-1.8,21.16,21.16,0,0,1,4.7-1,47.59,47.59,0,0,1,5-.45Q147.7,150.72,147.7,155.77Z"/><path d="M177.8,157c0,1.6-.72,2.42-2.15,2.45a18,18,0,0,0,1.1,3.1,2.37,2.37,0,0,1-.9,1.8,3.09,3.09,0,0,1-2,.7,5.28,5.28,0,0,1-2.1-.55,6.92,6.92,0,0,1-.65-3.1c0-.3,0-.73.05-1.3s0-1,0-1.25c0,.23-.55.35-1.65.35-1.87,0-4.08.08-6.65.25q-5.51.3-6,.85c-.31.37-.52,2.15-.62,5.35a1.94,1.94,0,0,1-1.65,1,3.44,3.44,0,0,1-2.15-.88,2.43,2.43,0,0,1-1.1-1.87,16.89,16.89,0,0,1,.9-2.8q1-3.56,3.25-10.65,6.7-18.34,11.15-18.35t6.7,9.7a107.84,107.84,0,0,1,1.95,13.35,7.18,7.18,0,0,1,1.65.5A1.5,1.5,0,0,1,177.8,157Zm-7-1.9q-2.2-17.46-4-17.45-1.4,0-4.9,8.2-2.5,5.9-3.95,10.25c1.07-.24,2.65-.52,4.75-.85A53.06,53.06,0,0,1,170.8,155.12Z"/><path d="M207.45,133.07a3.19,3.19,0,0,1-.45,1.4c-.37.74-.58,1.19-.65,1.35a25.73,25.73,0,0,0-1.45,7.47l-.15,14.37a12.51,12.51,0,0,1-1,4.5c-.83,1.94-1.87,2.91-3.1,2.91q-2.75,0-5.45-4.6a53.3,53.3,0,0,1-3.95-9.4q-1.16-3.9-2.35-7.8c-.7,5.67-1.05,9.46-1.05,11.4,0,4.27.26,6.71.77,7.35a2.79,2.79,0,0,1,.78,1.4,2,2,0,0,1-1,1.67,3.36,3.36,0,0,1-2,.73c-.93,0-1.7-1-2.3-2.95a14.44,14.44,0,0,1-.7-4.2c0-.57,0-1.41,0-2.53s.05-1.95.05-2.52a55.18,55.18,0,0,1,.5-6.1,55.18,55.18,0,0,0,.5-6.1v-6.1a1,1,0,0,0-.08-.3.94.94,0,0,1-.07-.3q0-1,1.35-1.65a4.84,4.84,0,0,1,2.2-.55,4.06,4.06,0,0,1,3.65,1.65,8.19,8.19,0,0,1,.55,2.3c.1.8.2,1.61.3,2.45a91.8,91.8,0,0,0,3.15,11.4q3,9.24,4.55,9.25c.37,0,.55-.47.55-1.4a9.78,9.78,0,0,0-.13-1.31,11.38,11.38,0,0,1-.12-1.4l.5-13.57a24.68,24.68,0,0,1,1-6c.87-2.78,2-4.16,3.5-4.16a3.82,3.82,0,0,1,2,.9A2.68,2.68,0,0,1,207.45,133.07Z"/><path d="M218.3,134.72a3.5,3.5,0,0,1-.45,1.1,8.68,8.68,0,0,0-.4,2.25q-1,11.2-1,19.65a12.71,12.71,0,0,0,.4,3.55,18.15,18.15,0,0,0,1.45,3.15.71.71,0,0,1,.05.3c0,.7-.82,1.05-2.45,1.05h-.45c-1.7,0-2.73-1.4-3.1-4.1a102.43,102.43,0,0,1-.7-13.65q0-2.06.07-6.18t.08-6.22a3,3,0,0,1,1.2-2.2,3.61,3.61,0,0,1,2.35-1,3.43,3.43,0,0,1,1.95.75A2,2,0,0,1,218.3,134.72Z"/><path d="M245.7,157.66a6.89,6.89,0,0,1-.5,2.29,9.81,9.81,0,0,1-4.7,5.17,14.33,14.33,0,0,1-6.9,1.7,10.89,10.89,0,0,1-9.45-4.65q-2.85-4-2.85-10.43A29.49,29.49,0,0,1,223,141.8a18.4,18.4,0,0,1,5.45-8.29,9.1,9.1,0,0,1,5.8-2.34,7.07,7.07,0,0,1,6.45,3.7,14.45,14.45,0,0,1,1.8,7.55,16.73,16.73,0,0,1-1,5.15q-1.26,3.8-2.8,3.8c-1.17,0-2-.74-2.65-2.2a17.62,17.62,0,0,0,1.4-1.15c.66-.73,1-2.17,1-4.3a18.43,18.43,0,0,0-.65-5.25q-1-3.25-3.3-3.25c-1.07,0-2.24.68-3.5,2a15.54,15.54,0,0,0-2.45,3.45A25.94,25.94,0,0,0,226,152.64Q226,163,233.8,163a7.3,7.3,0,0,0,5.3-1.89,22.13,22.13,0,0,0,2.35-3.53c.7-1.29,1.45-1.93,2.25-1.93a1.91,1.91,0,0,1,1.4.62A1.94,1.94,0,0,1,245.7,157.66Z"/></g></g></svg>