<svg xmlns="http://www.w3.org/2000/svg" viewBox="0 0 318.23 267.43"><defs><style>.cls-1{fill:#fff;}.cls-2{fill:#e2e2e2;opacity:0.61;}</style></defs><title>papersign</title><g id="Layer_2" data-name="Layer 2"><g id="background"><rect class="cls-1" x="21.67" y="29.63" width="260.83" height="222.26" transform="translate(-7.97 9.14) rotate(-3.35)"/><path class="cls-2" d="M20.88,23.35C22.46,22.15,39.93,0,39.93,0l-.45,7.28L47.15,5l-.06,4.51,7.28.45L52.9,16.48l6.25-.26L20,64.46l-1.3-7-7.34,4.07.09-6.76L0,53.79Z"/><path class="cls-2" d="M279.49,228.23c1.85-.71,24.84-17.06,24.84-17.06L301.86,218l8-.08-1.32,4.31,6.86,2.47-3.26,5.9,6.08,1.5-51.14,35.3.71-7-8.19,1.84,2-6.46-10.69-4.19Z"/><path d="M94.76,147.73a11.37,11.37,0,0,1-.15,2q-2,11.55-11,11.55a15,15,0,0,1-8.25-2.35v1.05a10.58,10.58,0,0,0,.6,4.6,9.6,9.6,0,0,1,.95,2,2.37,2.37,0,0,1-.78,1.75,2.49,2.49,0,0,1-1.77.75,3.09,3.09,0,0,1-3-1.6,11,11,0,0,1-.6-3.55c-.07-1.14-.1-2.44-.1-3.9a21,21,0,0,1,.22-2.55,21.76,21.76,0,0,0,.23-2.6v-3.4a38.27,38.27,0,0,1,.2-4.43c.16-1.95.25-3.39.25-4.32v-4.5q0-.1-.45-2.7a3.69,3.69,0,0,1,2.42-1.2,2.58,2.58,0,0,1,2.13,1,3.64,3.64,0,0,1,.8,2.38v.7A10.07,10.07,0,0,1,84.81,134a9,9,0,0,1,7.5,3.55,13,13,0,0,1,2.45,8.1v2.1Zm-4.55-.8a14.93,14.93,0,0,0-1-5.9q-1.45-3.3-4.45-3.3c-2.57,0-4.77,1.56-6.6,4.7a15.87,15.87,0,0,0-2.45,8.25q0,6.94,7,6.95a5.84,5.84,0,0,0,5.5-3.25,24.73,24.73,0,0,0,1.9-6.55Q90.21,146.87,90.21,146.93Z"/><path d="M124.51,159.58c0,1.6-.72,2.41-2.15,2.45a17.18,17.18,0,0,0,1.1,3.1,2.43,2.43,0,0,1-.9,1.8,3.1,3.1,0,0,1-2,.7,5.28,5.28,0,0,1-2.1-.55,6.78,6.78,0,0,1-.65-3.1c0-.3,0-.74,0-1.3s0-1,0-1.25c0,.23-.55.35-1.65.35q-2.81,0-6.65.25-5.51.3-6,.85c-.32.36-.52,2.15-.62,5.35a2,2,0,0,1-1.65,1,3.44,3.44,0,0,1-2.15-.88,2.42,2.42,0,0,1-1.1-1.87,16.89,16.89,0,0,1,.9-2.8q1-3.56,3.25-10.65,6.69-18.36,11.15-18.35t6.7,9.7a107.84,107.84,0,0,1,2,13.35,7.55,7.55,0,0,1,1.65.5A1.5,1.5,0,0,1,124.51,159.58Zm-7-1.9q-2.2-17.46-4-17.45-1.41,0-4.9,8.2-2.5,5.9-4,10.25c1.06-.24,2.65-.52,4.75-.85A51.77,51.77,0,0,1,117.51,157.68Z"/><path d="M152.71,147.73a11.37,11.37,0,0,1-.15,2q-2,11.55-10.95,11.55a15,15,0,0,1-8.25-2.35v1.05a10.58,10.58,0,0,0,.6,4.6,9.6,9.6,0,0,1,.95,2,2.37,2.37,0,0,1-.78,1.75,2.49,2.49,0,0,1-1.77.75,3.09,3.09,0,0,1-3.05-1.6,11,11,0,0,1-.6-3.55c-.07-1.14-.1-2.44-.1-3.9a21,21,0,0,1,.22-2.55,21.76,21.76,0,0,0,.23-2.6v-3.4a38.27,38.27,0,0,1,.2-4.43c.16-1.95.25-3.39.25-4.32v-4.5q0-.1-.45-2.7a3.67,3.67,0,0,1,2.42-1.2,2.6,2.6,0,0,1,2.13,1,3.64,3.64,0,0,1,.8,2.38v.7a10.07,10.07,0,0,1,8.35-4.35,9,9,0,0,1,7.5,3.55,13,13,0,0,1,2.45,8.1v2.1Zm-4.55-.8a14.93,14.93,0,0,0-1-5.9q-1.46-3.3-4.45-3.3c-2.57,0-4.77,1.56-6.6,4.7a15.87,15.87,0,0,0-2.45,8.25q0,6.94,7,6.95a5.84,5.84,0,0,0,5.5-3.25,24.73,24.73,0,0,0,1.9-6.55Q148.16,146.87,148.16,146.93Z"/><path d="M179.61,164.71a3.08,3.08,0,0,1-.35,1.48,1.35,1.35,0,0,1-1.2.84,3.25,3.25,0,0,1-.58-.08,3.06,3.06,0,0,0-.57-.07,22.34,22.34,0,0,0-6.23,1.3,22.73,22.73,0,0,1-6.22,1.3q-8.06,0-8.05-12.2,0-9.6.5-15.2c0-.5.05-.77.05-.8a8.84,8.84,0,0,0-.1-1,6.93,6.93,0,0,1-.1-1,2.54,2.54,0,0,1,2.5-2.7q3.84-.71,7.7-1.45a44.24,44.24,0,0,1,7.55-.95,6,6,0,0,1,2.55.5,2.15,2.15,0,0,1,1.5,1.95c0,1.23-.82,1.85-2.45,1.85a9.08,9.08,0,0,1-.93-.08,8.28,8.28,0,0,0-.92-.07,47.26,47.26,0,0,0-11,1.8,4.15,4.15,0,0,0-.75.15c-.24.06-.4.31-.5.75a50.81,50.81,0,0,0-.55,9.4c0,.7.31,1,1,1a16.22,16.22,0,0,0,3.75-.65,15.54,15.54,0,0,1,3.75-.65,8.05,8.05,0,0,1,3.35.9,10.43,10.43,0,0,1,.5,1.95q0,1.25-.75,1.35l-1.6.2a2.06,2.06,0,0,0-1.1-.25,23.73,23.73,0,0,0-4.2.45c-1.37.3-2.75.58-4.15.85a5.06,5.06,0,0,0-.53.1c-.15,0-.26.23-.32.6a12.86,12.86,0,0,0-.1,1.45,37.56,37.56,0,0,0,.15,4.6c.33,1.93,1.25,2.9,2.75,2.9a20.68,20.68,0,0,0,5.55-1.15,20.4,20.4,0,0,1,5.8-1.15C177.47,163,178.94,163.55,179.61,164.71Z"/><path d="M208.91,167.58v.25a2.21,2.21,0,0,1-1.85,1.1,1.8,1.8,0,0,1-1.45-.75q-.45-1.8-6.63-5.85t-8.17-4.05h-.9l-.95.05v1.95a18.18,18.18,0,0,0,.25,2.65,7.3,7.3,0,0,0,.55,2.45,4.39,4.39,0,0,1,.9,1.5,1.83,1.83,0,0,1-.7,1.47,2.48,2.48,0,0,1-1.6.58,3.52,3.52,0,0,1-3-1.35q-1-1.2-1-9.9a4.5,4.5,0,0,1-2.2-.65c-.87-.54-1.3-1.1-1.3-1.7,0-1.24,1.11-2.12,3.35-2.65.13-1,.25-2.45.35-4.25.06-2,.15-3.45.25-4.25q.3-1.6.75-4.8h-.4c-1.34,0-2-.55-2-1.75a1.8,1.8,0,0,1,1.2-1.95l1.7-.5a7.83,7.83,0,0,1,1.57-1.18,4.56,4.56,0,0,1,1.83-.27c.6,0,.9.26.9.8,0,.16.41.25,1.25.25a19.69,19.69,0,0,1,10,2.35,9,9,0,0,1,5,8.25,9.5,9.5,0,0,1-2.6,6.85,24.59,24.59,0,0,1-6.2,4.15l7,4.5Q209,163.93,208.91,167.58Zm-6.8-22.4a5.21,5.21,0,0,0-3.27-4.85,13.15,13.15,0,0,0-6.12-1.35q-.45,0-2.16.15a29.24,29.24,0,0,1-.95,6.2,49.78,49.78,0,0,0-.75,7.75,17.3,17.3,0,0,0,3.61,1,6.82,6.82,0,0,0,1.76-.35,13.2,13.2,0,0,0,5.42-3A7.38,7.38,0,0,0,202.11,145.18Z"/></g></g></svg>