<svg xmlns="http://www.w3.org/2000/svg" viewBox="0 0 276.46 548.38"><defs><style>.cls-1,.cls-6{fill:#332c2a;}.cls-1{fill-opacity:0.57;}.cls-2{fill:#0d74ae;}.cls-3{fill:#176287;}.cls-4{fill:#155a75;}.cls-5{fill:#3d90be;}</style></defs><title>paperbin</title><g id="Layer_2" data-name="Layer 2"><g id="background"><path class="cls-1" d="M269.32,548.38s-49.19-113-50.73-112.93H56.27c-.43-.1-48.95,112.93-48.95,112.93Z"/><path class="cls-2" d="M63.62,435.49A4.32,4.32,0,0,1,59.7,432L25.44,156.83c0-.17-.07-.55.51-1.19,1-1.19,3.69-2.58,7.69-2.58H242.87c4,0,6.62,1.38,7.66,2.56.55.63.51,1,.48,1.17L215.19,431.94a4.4,4.4,0,0,1-4,3.55Z"/><path class="cls-2" d="M63.62,435.49A4.32,4.32,0,0,1,59.7,432L25.44,156.83c0-.17-.07-.55.51-1.19,1-1.19,3.69-2.58,7.69-2.58H242.87c4,0,6.62,1.38,7.66,2.56.55.63.51,1,.48,1.17L215.19,431.94a4.4,4.4,0,0,1-4,3.55Z"/><path class="cls-3" d="M242.87,146.68H33.64c-8.74,0-15.28,4.92-14.53,10.94L53.37,432.76a10.67,10.67,0,0,0,10.25,9.11H211.21a10.74,10.74,0,0,0,10.3-9.11l35.83-275.14C258.12,151.6,251.61,146.68,242.87,146.68ZM251,156.79,215.19,431.94a4.4,4.4,0,0,1-4,3.55H63.62A4.32,4.32,0,0,1,59.7,432L25.44,156.83c0-.17-.07-.55.51-1.19,1-1.19,3.69-2.58,7.69-2.58H242.87c4,0,6.62,1.38,7.66,2.56C251.08,156.25,251,156.63,251,156.79Z"/><path class="cls-3" d="M138.23,153.06H242.87c4,0,6.62,1.38,7.66,2.56.55.63.51,1,.48,1.17L215.19,431.94a4.4,4.4,0,0,1-4,3.55H139.75Z"/><path class="cls-2" d="M139.75,435.49H63.62A4.32,4.32,0,0,1,59.7,432L25.44,156.83c0-.17-.07-.55.51-1.19,1-1.19,3.69-2.58,7.69-2.58H138.23Z"/><path class="cls-2" d="M242.87,146.68H33.64c-8.74,0-15.28,4.92-14.53,10.94L53.37,432.76a10.67,10.67,0,0,0,10.25,9.11H211.21a10.74,10.74,0,0,0,10.3-9.11l35.83-275.14C258.12,151.6,251.61,146.68,242.87,146.68ZM251,156.79,215.19,431.94a4.4,4.4,0,0,1-4,3.55H63.62A4.32,4.32,0,0,1,59.7,432L25.44,156.83c0-.17-.07-.55.51-1.19,1-1.19,3.69-2.58,7.69-2.58H242.87c4,0,6.62,1.38,7.66,2.56C251.08,156.25,251,156.63,251,156.79Z"/><path id="shade" class="cls-4" d="M242.87,146.68H33.64c-8.74,0-15.28,4.92-14.53,10.94l1.59,11.84s191.46-4.41,228.07,4.55a28.68,28.68,0,0,1,6.16,2.1l2.41-18.49C258.12,151.6,251.61,146.68,242.87,146.68Z"/><path class="cls-2" d="M268,156.7H8.88c-7.3,0-10.81-4.92-7.8-10.93L39.92,68.33c3-6,9.25-10.93,13.86-10.93H217.2c4.61,0,11.14,4.92,14.51,10.93l43.41,77.44C278.49,151.78,275.27,156.7,268,156.7Z"/><path class="cls-5" d="M12.5,153.06l254.19-2.73c7.31,0,10.66-.37,7.29-6.38l-5.58-10.17c-8.09-14.43-.49,2.56-3.53,10.17-1.82,4.55-244.43,8.72-249.64.91-3.64-5.47,24.6-56.49,32.8-78.35C52,56,61.7,58.31,69.1,57.4H53.78c-4.61,0-7.29,4.92-10.3,10.93L7,146.68C4,152.7,5.19,153.06,12.5,153.06Z"/><path class="cls-4" d="M215.67,50.11c1.31,2.22,14.58,18.22,21,41.91s16.8,45.84,9.12,47.37c-9.12,1.83-200.44,7.29-212.28-2.73C23,127.91,49.85,51.93,58.05,43.73S201.09,25.51,215.67,50.11Z"/><path class="cls-2" d="M46,133.93c-3.92,0-7.33-1.34-9.14-3.57a5.79,5.79,0,0,1-1.18-5L58.89,16.62C60.8,7.67,65.92,0,68.78,0H199.06c3.73,0,10.57,10,12.39,16.76l29.26,108.75a5.5,5.5,0,0,1-.91,5c-1.66,2.17-4.94,3.46-8.79,3.46Z"/><path class="cls-3" d="M211.45,16.76c-4.89-13.12-76.87-7.65-76.87-7.65,28.55,28.24,16.4,72,6.08,124.82H231c3.85,0,7.13-1.29,8.79-3.46a5.5,5.5,0,0,0,.91-5Z"/><circle class="cls-6" cx="138.23" cy="71.97" r="51.02"/><path class="cls-3" d="M138.23,15.08A56.9,56.9,0,1,0,195.12,72,56.9,56.9,0,0,0,138.23,15.08Zm0,107.91a51,51,0,1,1,51-51A51.07,51.07,0,0,1,138.23,123Z"/><path class="cls-5" d="M66.94,9.11l-1.15,0c-1.63-.07-2.73.15-.74-3.17,3.63-6,34,3.19,129.67.46,4.14-.12,4.27-4.24,4.23-5.16-.11-2.39,8.39,7.89,6.55,7.89H66.94Z"/></g></g></svg>