<svg xmlns="http://www.w3.org/2000/svg" viewBox="0 0 277.3 313.03"><defs><style>.cls-1{fill:#f3fdfe;}.cls-2{fill:#c5d1d3;}.cls-3{fill:#94b3f9;}.cls-4{fill:#5571aa;}.cls-5{fill:#7fa0fb;}.cls-6{fill:#c3eff4;fill-opacity:0.6;}.cls-7{fill:#81bbe2;fill-opacity:0.52;}.cls-8{fill:#dde3ee;}</style></defs><title>plasticbottle</title><g id="Layer_2" data-name="Layer 2"><g id="Plastic_Mixed" data-name="Plastic/Mixed"><g id="plastic_bottle"><g id="bottom"><path class="cls-1" d="M134.79,97.36h76.69a12.75,12.75,0,0,1,12.75,12.75v7.53a12,12,0,0,1-12,12H134a12,12,0,0,1-12-12v-7.53A12.75,12.75,0,0,1,134.79,97.36Z" transform="translate(112.96 -84.58) rotate(39.86)"/><rect class="cls-1" x="105.46" y="124.75" width="102.19" height="26.88" rx="12" ry="12" transform="translate(124.93 -68.22) rotate(39.86)"/><rect class="cls-1" x="87.99" y="145.19" width="102.19" height="26.88" rx="12" ry="12" transform="translate(133.97 -52.28) rotate(39.86)"/><rect class="cls-1" x="70.76" y="165.83" width="102.19" height="26.88" rx="12" ry="12" transform="translate(143.2 -36.44) rotate(39.86)"/><rect class="cls-1" x="53.53" y="186.47" width="102.19" height="26.88" rx="12" ry="12" transform="translate(152.42 -20.6) rotate(39.86)"/><rect class="cls-1" x="36.45" y="206.93" width="102.19" height="26.88" rx="12" ry="12" transform="matrix(0.77, 0.64, -0.64, 0.77, 161.56, -4.91)"/><path class="cls-1" d="M97.07,287.85c1.27-3,.64-5.65.9-6.78a20.63,20.63,0,0,0,9.69-5.9l2.94-3.52a11.19,11.19,0,0,0-1.42-15.71l-61.33-51.2a11.18,11.18,0,0,0-15.7,1.42l-2.94,3.52a20.68,20.68,0,0,0-4.16,12.26c-6.25,1.53-19,17.94-19,17.94C.52,246-3,260.8,6.5,269.73s15.9,8,15.9,8S18.94,280.92,29,289.7,45.26,296,45.26,296s2.53,7.36,8.23,12.12c6.66,5.56,24.86,3.81,30.82-3.32C89.47,298.65,95.8,290.82,97.07,287.85Z"/><path class="cls-1" d="M241.1,63.75a2.56,2.56,0,0,0,3.38-.48l5.3-6.35a2.57,2.57,0,0,0-.32-3.61l-27.52-23a2.57,2.57,0,0,0-3.61.32L213,37a2.58,2.58,0,0,0,.33,3.61l.56.47c-20.43,2-46.77,7.95-46.77,7.95l-.6.72L151.36,67.94a4.65,4.65,0,0,0,.59,6.54l68.11,56.86a4.65,4.65,0,0,0,6.54-.59l15.18-18.18.6-.72S242.78,84.24,241.1,63.75Z"/></g><path class="cls-2" d="M210.16,123.38c4.71,3.93,4.9,11.53,1,16.24l-5.95,7.13a11.19,11.19,0,0,1-15.71,1.42l7.61,6.35a11.18,11.18,0,0,0,15.7-1.42l6-7.13c3.93-4.71,3.74-12.31-1-16.24l-4.22-3.52Z"/><path class="cls-2" d="M190.89,163.87,188,167.39a11.19,11.19,0,0,1-15.7,1.42l7.6,6.35a11.19,11.19,0,0,0,15.71-1.42l2.94-3.52a11.18,11.18,0,0,0-1.42-15.7l-7.61-6.35A11.18,11.18,0,0,1,190.89,163.87Z"/><path class="cls-2" d="M173.66,184.51,170.72,188a11.17,11.17,0,0,1-15.7,1.41l7.6,6.35a11.19,11.19,0,0,0,15.71-1.41l2.94-3.52a11.18,11.18,0,0,0-1.42-15.7l-7.6-6.35A11.18,11.18,0,0,1,173.66,184.51Z"/><path class="cls-2" d="M156.67,205.34l-2.94,3.53A11.2,11.2,0,0,1,138,210.28l7.61,6.35a11.18,11.18,0,0,0,15.7-1.41l2.95-3.52A11.2,11.2,0,0,0,162.86,196l-7.61-6.35A11.18,11.18,0,0,1,156.67,205.34Z"/><path class="cls-2" d="M139.77,226l-2.94,3.53a11.2,11.2,0,0,1-15.71,1.41l7.61,6.35a11.18,11.18,0,0,0,15.7-1.41l2.94-3.53A11.17,11.17,0,0,0,146,216.6l-7.61-6.35A11.18,11.18,0,0,1,139.77,226Z"/><path class="cls-2" d="M122.54,246.59l-2.94,3.52a11.19,11.19,0,0,1-15.71,1.42l7.19,6,.42.35a11.18,11.18,0,0,0,15.7-1.42l2.94-3.52a11.17,11.17,0,0,0-1.41-15.7l-7.61-6.35A11.18,11.18,0,0,1,122.54,246.59Z"/><path class="cls-2" d="M99,289.44c1.27-3,.65-5.65.9-6.78a20.63,20.63,0,0,0,9.69-5.9l2.94-3.53a11.18,11.18,0,0,0-1.42-15.7l-7.19-6-.41-.35a11.18,11.18,0,0,1,1.41,15.7L102,270.4a20.51,20.51,0,0,1-9.69,5.91c-.25,1.13.37,3.81-.9,6.78s-7.6,10.8-12.76,17-19.13,8.25-27.26,5.28a24.83,24.83,0,0,0,4.06,4.39c6.65,5.56,24.85,3.81,30.81-3.32C91.37,300.24,97.7,292.41,99,289.44Z"/><path class="cls-2" d="M242.38,111.85,228,131.94a4.65,4.65,0,0,1-6.54.59l-3.39-2.83-4.22-3.52a4.65,4.65,0,0,0,6.54-.59l22-21.16Z"/><path class="cls-2" d="M161.67,82.9C157,79,149.45,80.14,145.52,84.85l-6,7.13a11.18,11.18,0,0,0,1.42,15.7l-7.61-6.35A11.17,11.17,0,0,1,132,85.63l5.95-7.13c3.93-4.71,11.44-5.88,16.15-2l4.22,3.52Z"/><path class="cls-2" d="M125.28,109.1l-3,3.52a11.19,11.19,0,0,0,1.42,15.7L116.14,122a11.17,11.17,0,0,1-1.41-15.7l2.94-3.52a11.18,11.18,0,0,1,15.7-1.42l7.61,6.35A11.17,11.17,0,0,0,125.28,109.1Z"/><path class="cls-2" d="M108.05,129.73l-2.94,3.53a11.17,11.17,0,0,0,1.41,15.7l-7.61-6.35a11.18,11.18,0,0,1-1.41-15.7l2.94-3.53a11.18,11.18,0,0,1,15.7-1.41l7.61,6.35A11.18,11.18,0,0,0,108.05,129.73Z"/><path class="cls-2" d="M90.58,150.17l-2.94,3.53a11.18,11.18,0,0,0,1.41,15.7l-7.6-6.35A11.18,11.18,0,0,1,80,147.35L83,143.82a11.18,11.18,0,0,1,15.7-1.41l7.61,6.35A11.18,11.18,0,0,0,90.58,150.17Z"/><path class="cls-2" d="M73.32,170.49,70.38,174a11.18,11.18,0,0,0,1.41,15.7l-7.6-6.35a11.18,11.18,0,0,1-1.42-15.7l2.94-3.53a11.2,11.2,0,0,1,15.71-1.41l7.6,6.35A11.18,11.18,0,0,0,73.32,170.49Z"/><path class="cls-2" d="M56.09,191.12l-2.94,3.53a11.18,11.18,0,0,0,1.42,15.7l-7.19-6L47,204a11.19,11.19,0,0,1-1.42-15.7l2.94-3.53a11.2,11.2,0,0,1,15.71-1.41l7.6,6.35A11.18,11.18,0,0,0,56.09,191.12Z"/><path class="cls-2" d="M18.14,222c2.7-1.78,5.45-1.65,6.51-2.1a20.67,20.67,0,0,1,4.08-10.59l2.94-3.52a11.19,11.19,0,0,1,15.71-1.41l7.19,6,.41.35a11.17,11.17,0,0,0-15.7,1.41l-2.94,3.52a20.67,20.67,0,0,0-4.08,10.59c-1.07.45-3.81.32-6.51,2.1s-9.6,9.8-14.43,15.59c-5.09,6.1-4.7,20.3-.32,27.76a25.11,25.11,0,0,1-5-3.2c-6.66-5.56-8.19-23.78-2.23-30.92C9,231.25,15.77,223.53,18.14,222Z"/><path class="cls-2" d="M167.33,54.85c-.12,4.62-11.1,17.16-11.1,17.16a4.66,4.66,0,0,0,.59,6.54L152.6,75s-4.22-3.52-1.24-7.09L167.14,49l5.93-1.16S167.45,50.23,167.33,54.85Z"/><path class="cls-3" d="M261.08,46.62a159.65,159.65,0,0,0-33.63-28.07,2.4,2.4,0,0,0-3.19.49c-1.39,2-2.79,3.94-4.18,5.92a2,2,0,0,0,.69,2.87,153.64,153.64,0,0,1,32.37,27,2,2,0,0,0,2.95.17c1.7-1.72,3.39-3.45,5.08-5.17A2.4,2.4,0,0,0,261.08,46.62Z"/><path class="cls-4" d="M237.48,25.37q-4.89-3.6-10-6.82a2.4,2.4,0,0,0-3.19.49c-1.39,2-2.79,3.94-4.18,5.92a2,2,0,0,0,.69,2.87q4.59,2.87,9,6A17.15,17.15,0,0,1,237.48,25.37Z"/><path class="cls-5" d="M236.63,1.9,227,14.39c-1.52,2-1.66,3.88-.49,4.58a154.14,154.14,0,0,1,34.93,29.16c.92,1,2.75.55,4.43-1.3l10.56-11.68c.84-.92,4.5-7.24-14.51-23.1C241.12-5.35,237.39.91,236.63,1.9Z"/><path class="cls-2" d="M257.16,57.87a180.84,180.84,0,0,0-40.07-33.45,3,3,0,0,0-3.47.37h0a1.64,1.64,0,0,0,.36,2.7,184.07,184.07,0,0,1,40.71,34,1.64,1.64,0,0,0,2.72-.12h0A3,3,0,0,0,257.16,57.87Z"/><path class="cls-2" d="M25.71,274.27s4.63-1.38,10,5.92c6.32,8.6,7.6,8.77,7.6,8.77s-5.71,4.91-13.16-2.12S25.71,274.27,25.71,274.27Z"/><path class="cls-6" d="M35.63,225.67s46.1,39.53,56.47,40.69c2.79.31,9.43-1.81,9.43-1.81s0,14.3-11.61,8.06C80.56,267.57,38.56,235.76,35.63,225.67Z"/><path class="cls-6" d="M53.46,204.31s46.17,39.44,56,41.22c2.65.48,8.77-1,8.77-1s1,13.11-10.38,6.59C98.7,245.85,56.92,213.76,53.46,204.31Z"/><path class="cls-6" d="M70.31,181.22s46.19,39.43,55.92,41.35c2.61.52,8.6-.81,8.6-.81S136,234.59,124.75,228C115.62,222.67,73.89,190.53,70.31,181.22Z"/><path class="cls-6" d="M89.06,161.66s46.31,39.29,55.22,42.19c2.39.78,7.55.45,7.55.45s2.77,11-8.16,3.93C134.85,202.54,93.47,170,89.06,161.66Z"/><path class="cls-6" d="M105.92,141.46s46.23,39.39,55.74,41.56c2.56.59,8.34-.49,8.34-.49s1.61,12.36-9.59,5.65C151.36,182.76,109.72,150.51,105.92,141.46Z"/><path class="cls-6" d="M121.82,119.52s46.22,39.39,55.72,41.59c2.55.6,8.3-.45,8.3-.45s1.66,12.3-9.53,5.58C167.27,160.81,125.64,128.54,121.82,119.52Z"/><path class="cls-6" d="M140.05,95.74s46.2,39.42,55.91,41.37c2.61.53,8.57-.78,8.57-.78s1.25,12.79-10,6.18C185.38,137.18,143.66,105,140.05,95.74Z"/><path class="cls-7" d="M242.42,104.43c-.18-7-.79-33.87-1.32-40.68-13.78-4.41-9.37-11.62-27.19-22.66C194.66,43.52,167.14,49,167.14,49l-.6.72,6.31.42C229.12,40.16,209.76,96.38,242.42,104.43Z"/><path class="cls-4" d="M256.62,7.83c-16.16-12.06-19.3-6.83-20-5.93L227,14.39c-1.52,2-1.66,3.88-.49,4.58,3.22,1.92,6.42,4,9.58,6.3C238.39,19.15,244.07,5.41,256.62,7.83Z"/><path class="cls-8" d="M239.68,2.19s16.94,5.64,24,14c5.28,6.24,12.48,16.29,12.24,17.71S267,22.15,261.35,16.65C253.74,9.29,239.68,2.19,239.68,2.19Z"/></g></g></g></svg>