<svg xmlns="http://www.w3.org/2000/svg" viewBox="0 0 76.42 86.3"><defs><style>.cls-1{fill:#f3fdfe;}.cls-2{fill:#c5d1d3;}.cls-3{fill:#94b3f9;}.cls-4{fill:#5571aa;}.cls-5{fill:#7fa0fb;}.cls-6{fill:#c3eff4;fill-opacity:0.6;}.cls-7{fill:#81bbe2;fill-opacity:0.52;}.cls-8{fill:#dde3ee;}</style></defs><title>plasticbottle</title><g id="Layer_2" data-name="Layer 2"><g id="Layer_2-2" data-name="Layer 2"><g id="Layer_2-3" data-name="Layer 2"><g id="Plastic_Mixed" data-name="Plastic Mixed"><g id="plastic_bottle" data-name="plastic bottle"><g id="bottom"><path class="cls-1" d="M42.45,21.1,58.68,34.65a3.51,3.51,0,0,1,.44,5l-1.33,1.6a3.31,3.31,0,0,1-4.66.42L36.58,27.79a3.31,3.31,0,0,1-.42-4.66l1.33-1.59a3.51,3.51,0,0,1,4.95-.44Z"/><rect class="cls-1" x="39.43" y="24.01" width="7.41" height="28.17" rx="3.31" ry="3.31" transform="translate(-13.75 46.8) rotate(-50.14)"/><rect class="cls-1" x="34.62" y="29.65" width="7.41" height="28.17" rx="3.31" ry="3.31" transform="translate(-19.81 45.12) rotate(-50.14)"/><rect class="cls-1" x="29.87" y="35.34" width="7.41" height="28.17" rx="3.31" ry="3.31" transform="translate(-25.88 43.52) rotate(-50.14)"/><rect class="cls-1" x="25.12" y="41.03" width="7.41" height="28.17" rx="3.31" ry="3.31" transform="translate(-31.95 41.92) rotate(-50.14)"/><rect class="cls-1" x="20.52" y="46.77" width="7.42" height="28.21" rx="3.31" ry="3.31" transform="translate(-38.07 40.59) rotate(-50.27)"/><path class="cls-1" d="M26.75,79.35A5.3,5.3,0,0,0,27,77.49a5.77,5.77,0,0,0,2.68-1.63l.81-1a3.09,3.09,0,0,0-.39-4.33L13.18,56.44a3.09,3.09,0,0,0-4.33.39L8,57.8a5.74,5.74,0,0,0-1.15,3.38c-1.72.43-5.24,4.95-5.24,4.95-1.52,1.69-2.49,5.77.13,8.23s4.38,2.2,4.38,2.2-1,.88,1.82,3.3,4.48,1.74,4.48,1.74a8.52,8.52,0,0,0,2.27,3.34c1.84,1.54,6.86,1,8.5-.91A34.07,34.07,0,0,0,26.75,79.35Z"/><path class="cls-1" d="M66.45,17.58a.71.71,0,0,0,.93-.14l1.47-1.75a.71.71,0,0,0-.09-1L61.17,8.36a.71.71,0,0,0-1,.08L58.71,10.2a.71.71,0,0,0,.09,1l.15.13a127.37,127.37,0,0,0-12.89,2.19l-.17.2-4.18,5a1.27,1.27,0,0,0,.17,1.8L60.65,36.21a1.29,1.29,0,0,0,1.81-.16l4.18-5,.17-.19S66.92,23.22,66.45,17.58Z"/></g><path class="cls-2" d="M57.92,34a3.27,3.27,0,0,1,.28,4.48l-1.64,2a3.08,3.08,0,0,1-4.33.39l2.1,1.75a3.07,3.07,0,0,0,4.32-.39l1.66-2A3.25,3.25,0,0,0,60,35.76l-1.16-1Z"/><path class="cls-2" d="M52.61,45.18l-.8,1a3.08,3.08,0,0,1-4.32.39l2.09,1.75a3.08,3.08,0,0,0,4.33-.39l.81-1a3.08,3.08,0,0,0-.39-4.33l-2.1-1.75A3.07,3.07,0,0,1,52.61,45.18Z"/><path class="cls-2" d="M47.86,50.87l-.81,1a3.08,3.08,0,0,1-4.33.39L44.82,54a3.08,3.08,0,0,0,4.33-.39l.81-1a3.08,3.08,0,0,0-.39-4.33l-2.1-1.75A3.09,3.09,0,0,1,47.86,50.87Z"/><path class="cls-2" d="M43.18,56.61l-.81,1A3.09,3.09,0,0,1,38,58l2.1,1.75a3.08,3.08,0,0,0,4.33-.39l.81-1A3.09,3.09,0,0,0,44.88,54l-2.09-1.75A3.09,3.09,0,0,1,43.18,56.61Z"/><path class="cls-2" d="M38.52,62.3l-.81,1a3.09,3.09,0,0,1-4.33.39l2.09,1.75A3.08,3.08,0,0,0,39.8,65l.81-1a3.06,3.06,0,0,0-.37-4.33h0L38.14,58A3.09,3.09,0,0,1,38.52,62.3Z"/><path class="cls-2" d="M33.77,68,33,69a3.08,3.08,0,0,1-4.33.39l2,1.66.11.09a3.08,3.08,0,0,0,4.33-.39l.81-1a3.08,3.08,0,0,0-.39-4.33l-2.09-1.75A3.08,3.08,0,0,1,33.77,68Z"/><path class="cls-2" d="M27.28,79.79a5.41,5.41,0,0,0,.25-1.87A5.68,5.68,0,0,0,30.2,76.3l.81-1A3.07,3.07,0,0,0,30.62,71l-2-1.66-.11-.09a3.07,3.07,0,0,1,.39,4.32l-.8,1a5.61,5.61,0,0,1-2.68,1.63A5.12,5.12,0,0,1,25.19,78a34.64,34.64,0,0,1-3.52,4.69c-1.42,1.71-5.28,2.27-7.52,1.45a6.79,6.79,0,0,0,1.12,1.21c1.84,1.54,6.85,1,8.5-.91A36.18,36.18,0,0,0,27.28,79.79Z"/><path class="cls-2" d="M66.81,30.84l-4,5.53a1.27,1.27,0,0,1-1.8.17l-.94-.78-1.16-1a1.28,1.28,0,0,0,1.8-.17l6.07-5.83Z"/><path class="cls-2" d="M44.56,22.85a3.28,3.28,0,0,0-4.46.54l-1.65,2a3.08,3.08,0,0,0,.39,4.33l-2.1-1.75a3.08,3.08,0,0,1-.36-4.33l1.64-2a3.26,3.26,0,0,1,4.45-.55l1.16,1Z"/><path class="cls-2" d="M34.52,30.08l-.82,1a3.08,3.08,0,0,0,.39,4.33L32,33.63a3.06,3.06,0,0,1-.38-4.32l.81-1a3.08,3.08,0,0,1,4.32-.39l2.1,1.75A3.08,3.08,0,0,0,34.52,30.08Z"/><path class="cls-2" d="M29.77,35.76l-.81,1a3.08,3.08,0,0,0,.39,4.33l-2.1-1.75A3.08,3.08,0,0,1,26.87,35l.81-1A3.07,3.07,0,0,1,32,33.63l2.1,1.75A3.08,3.08,0,0,0,29.77,35.76Z"/><path class="cls-2" d="M25,41.4l-.81,1a3.08,3.08,0,0,0,.39,4.33L22.44,45a3.09,3.09,0,0,1-.4-4.33l.83-1a3.08,3.08,0,0,1,4.33-.39L29.29,41A3.08,3.08,0,0,0,25,41.4Z"/><path class="cls-2" d="M20.2,47l-.81,1a3.08,3.08,0,0,0,.39,4.33l-2.1-1.75a3.08,3.08,0,0,1-.39-4.33l.81-1a3.08,3.08,0,0,1,4.33-.38l2.1,1.75A3.08,3.08,0,0,0,20.2,47Z"/><path class="cls-2" d="M15.45,52.69l-.81,1A3.08,3.08,0,0,0,15,58l-2-1.65-.11-.1a3.09,3.09,0,0,1-.39-4.33l.81-1a3.08,3.08,0,0,1,4.33-.39l2.1,1.75A3.08,3.08,0,0,0,15.45,52.69Z"/><path class="cls-2" d="M5,61.2a5.57,5.57,0,0,1,1.79-.58A5.75,5.75,0,0,1,7.91,57.7l.81-1a3.08,3.08,0,0,1,4.33-.39L15,58l.11.09a3.07,3.07,0,0,0-4.32.39l-.82,1a5.74,5.74,0,0,0-1.12,2.92A5.57,5.57,0,0,0,7.09,63a34.08,34.08,0,0,0-4,4.3C1.7,68.93,1.81,72.85,3,74.9A6.87,6.87,0,0,1,1.64,74C-.2,72.49-.62,67.46,1,65.5A33.58,33.58,0,0,1,5,61.2Z"/><path class="cls-2" d="M46.12,15.12c0,1.28-3.06,4.73-3.06,4.73a1.29,1.29,0,0,0,.16,1.81l-1.17-1s-1.16-1-.34-2l4.35-5.21,1.64-.32S46.15,13.85,46.12,15.12Z"/><path class="cls-3" d="M72,12.85a44.41,44.41,0,0,0-9.27-7.74.67.67,0,0,0-.88.14c-.38.55-.77,1.09-1.15,1.63a.55.55,0,0,0,.15.77.05.05,0,0,0,0,0,42.46,42.46,0,0,1,8.92,7.45.56.56,0,0,0,.78.08l0,0L72,13.74A.68.68,0,0,0,72,12.85Z"/><path class="cls-4" d="M65.45,7c-.89-.66-1.81-1.28-2.75-1.88a.66.66,0,0,0-.88.14c-.38.55-.77,1.09-1.15,1.63a.56.56,0,0,0,.14.77l0,0c.84.53,1.67,1.08,2.48,1.66A4.76,4.76,0,0,1,65.45,7Z"/><path class="cls-5" d="M65.22.52,62.57,4c-.42.55-.46,1.07-.14,1.26a42.47,42.47,0,0,1,9.63,8c.25.27.76.15,1.22-.36l2.91-3.22c.23-.25,1.24-2-4-6.37C66.46-1.47,65.43.25,65.22.52Z"/><path class="cls-2" d="M70.88,16a50.14,50.14,0,0,0-11-9.22.83.83,0,0,0-.95.1h0a.45.45,0,0,0,0,.64.38.38,0,0,0,.14.11A50.93,50.93,0,0,1,70.2,17a.45.45,0,0,0,.63.1.49.49,0,0,0,.12-.13h0A.83.83,0,0,0,70.88,16Z"/><path class="cls-2" d="M7.07,75.61s1.28-.38,2.76,1.63c1.74,2.37,2.1,2.42,2.1,2.42S10.35,81,8.3,79.08,7.07,75.61,7.07,75.61Z"/><path class="cls-6" d="M9.81,62.21s12.71,10.9,15.57,11.22a9.6,9.6,0,0,0,2.6-.5s0,3.94-3.2,2.22C22.2,73.76,10.62,65,9.81,62.21Z"/><path class="cls-6" d="M14.72,56.32S27.45,67.2,30.16,67.69a8.89,8.89,0,0,0,2.42-.28s.28,3.62-2.86,1.82C27.2,67.78,15.68,58.93,14.72,56.32Z"/><path class="cls-6" d="M19.37,50S32.1,60.83,34.79,61.36a8.81,8.81,0,0,0,2.37-.22s.32,3.53-2.78,1.72C31.86,61.39,20.36,52.53,19.37,50Z"/><path class="cls-6" d="M24.54,44.57S37.31,55.4,39.76,56.2a8,8,0,0,0,2.08.12s.77,3-2.25,1.09C37.16,55.84,25.75,46.87,24.54,44.57Z"/><path class="cls-6" d="M29.19,39S41.93,49.86,44.55,50.46a8.32,8.32,0,0,0,2.3-.14s.45,3.41-2.64,1.56C41.71,50.38,30.23,41.49,29.19,39Z"/><path class="cls-6" d="M33.57,33S46.31,43.81,48.93,44.42a8.39,8.39,0,0,0,2.29-.13s.46,3.39-2.63,1.54C46.1,44.33,34.62,35.44,33.57,33Z"/><path class="cls-6" d="M38.6,26.39S51.33,37.26,54,37.8a8.28,8.28,0,0,0,2.36-.22s.35,3.53-2.76,1.71C51.09,37.82,39.59,29,38.6,26.39Z"/><path class="cls-7" d="M66.82,28.79c0-1.93-.22-9.34-.37-11.21-3.8-1.22-2.58-3.21-7.49-6.25-5.31.67-12.9,2.18-12.9,2.18l-.16.2,1.74.11C63.15,11.07,57.81,26.57,66.82,28.79Z"/><path class="cls-4" d="M70.73,2.16C66.28-1.17,65.41.28,65.22.52L62.57,4c-.42.55-.46,1.07-.14,1.26.89.53,1.77,1.1,2.64,1.74C65.71,5.28,67.27,1.49,70.73,2.16Z"/><path class="cls-8" d="M66.06.6s4.67,1.56,6.62,3.86C74.13,6.18,76.12,9,76.05,9.35s-2.46-3.24-4-4.76A29.84,29.84,0,0,0,66.06.6Z"/></g></g></g></g></g></svg>