<svg xmlns="http://www.w3.org/2000/svg" viewBox="0 0 266.48 417.95"><defs><style>.cls-1{fill:#e9eae5;opacity:0.83;}.cls-2{fill:#e9eee4;}.cls-3,.cls-4{fill:#caccc6;}.cls-4{fill-opacity:0.55;}.cls-5{fill:#bbbcb8;}.cls-6{fill:#fbfcfa;}.cls-7{fill:#453533;fill-opacity:0.52;}.cls-8{fill:#bdbfba;}.cls-9{opacity:0.93;}.cls-10{fill:#fbfbfa;}.cls-11{fill:#ff474d;}.cls-12{fill:#fff;}</style></defs><title>popbottle</title><g id="Layer_2" data-name="Layer 2"><g id="Glass"><g id="coke"><path class="cls-1" d="M100.12,417.92c-12.44-1.13-40.07-11.14-52.9-18.06C34.08,393.53,9.77,377,1.55,367.62s18.56-41.48,28-51.18S47.67,291.1,47.67,291.1c4.2-6.79,26.18-85.58,34.21-88.19C83.61,190,125.13,132,125.13,132s-4.61-1.9-.39-6.52c4.79-5.74,52.63-47.73,68.34-67,7.74-9.51,19.17-32.63,19.17-32.63s-5.89-.49-2-4.35,11.55-12.8,11.55-12.8-2.19-3.9,2.29-7.76S247.67,7,247.67,7s19.29,9.57,18.8,15.45-4.94,6.41-4.94,6.41S258.77,40.32,258,45.76s-4.68,1-4.68,1-12,22.82-15.18,34.66c-6.42,24.06-12.35,87.43-14.18,94.68-1.27,6.13-5.51,3.51-5.51,3.51s-22.64,67.68-32.05,76.65c2.61,8-48.3,72.06-51.33,79.44,0,0-7.54,16.24-9.87,29.56S112.56,419.06,100.12,417.92Z"/><path class="cls-2" d="M224.12.88C228.6-3,247.67,7,247.67,7"/><path class="cls-3" d="M125.56,142.25c.46-2,30.5-32.42,30.5-32.42l-25,35.24Z"/><path class="cls-3" d="M195.89,179c1.35-1.55,8.36-43.72,8.36-43.72l-13.89,40.9Z"/><path class="cls-3" d="M212.11,186.42c1.35-1.55,8.36-43.72,8.36-43.72l-13.89,40.9Z"/><path class="cls-4" d="M255.27,45.35c-3.08-2-3.18.4-3.18.4s.17,1,.53,2.22l.65-1.24s3.85,4.47,4.68-1,3.58-16.86,3.58-16.86a4.42,4.42,0,0,0,1.26-.4c-.25-.74-1.36-.55-2.72,1.61C259.45,31.1,258.36,47.31,255.27,45.35Z"/><path class="cls-4" d="M220.73,9.93c-2.25,2.61-7.44,8.55-10.45,11.51-3.92,3.86,2,4.35,2,4.35l-.51-2.66c-.5-2.65.13-3.32,3.73-2.2-.12-2.67,6.73-7.73,9.49-9.11C226.88,10.85,223.26,10.23,220.73,9.93Z"/><path class="cls-5" d="M223.13,9a76,76,0,0,1,20.19,6.53c11.1,5.3,16.77,12.33,16.77,12.33s3.08-4.39-15.43-13.83C228,5.55,223.13,9,223.13,9Z"/><path class="cls-5" d="M214.24,26.44a120.1,120.1,0,0,1,17.3,4.92c7.75,3,20.12,13.06,20.12,13.06S220.61,27.27,214.24,26.44Z"/><path class="cls-5" d="M266.2,24.14a9.64,9.64,0,0,0,.27-1.65.91.91,0,0,0,0-.17c-4.28-4.89-13-10.44-21.65-14.83A77.61,77.61,0,0,0,224.33.72l-.21.16a10.28,10.28,0,0,0-1.35,1.4c5.63.54,14.37,3.38,21.62,6.81S261.46,20.24,266.2,24.14Z"/><path class="cls-6" d="M227.83,7.6c2.28.31,2.68-.48,2.68-.48s-.34-4.19.63-6.61a17.77,17.77,0,0,0-4-.51C226.35,2.8,226.24,7.38,227.83,7.6Z"/><path class="cls-7" d="M55.88,378.43C98,399.38,116.48,415.67,98.94,414c-16.18-1.57-27.77-7.12-47.17-15.09-18.86-7.74-48.95-27.44-48.54-35s16-6.92,16-6.92-6.93-.61-8.21,7.31,35.69,27.36,48.92,33S100.79,411,98.1,406.11,55.88,378.43,55.88,378.43Z"/><path class="cls-8" d="M84.36,228.47s-9,22.07-22.62,52.51S32.56,332.4,26.61,336.15C9,347.24,12.1,345.48,12.1,345.48S55.13,344.68,84.36,228.47Z"/><path class="cls-8" d="M105.52,239.27s-9.35,21.9-23.23,52.2-28.75,51.64-34.11,55.69c-15.88,12-13.08,10.06-13.08,10.06S71.9,353.24,105.52,239.27Z"/><path class="cls-8" d="M132.65,254.67c-1.76.47-59.42,95.27-61.17,114.42-1,10.66,3,4.06,3,4.06C89,332,114.56,292.31,132.65,254.67Z"/><path class="cls-8" d="M103.72,385.17s-3.22-8.59,1.33-21.15,41.56-83.75,53.67-91.45C158.72,272.57,101.39,371.33,103.72,385.17Z"/><g id="highlihgt" class="cls-9"><path class="cls-10" d="M77.4,383s8.84,2.85,12-11.89,11.13-38,11.13-38l-6.82-2.63S75,371.67,77.4,383Z"/><path class="cls-10" d="M113.87,350s1.74,4.61,5.61,2.87-8.2,41.57-14.26,40.33S112.36,353.65,113.87,350Z"/><path class="cls-10" d="M222.81,29.61s-34.09,59.29-51,70.77-59.92,87.37-59.92,87.37L128.61,200,232.47,34.27Z"/><path class="cls-10" d="M238.63,37.44s-37.47,70.29-33.42,79.62-4,58.24-11.66,66.58S204.28,193,204.28,193s17.35-65.35,14.9-73.3,26.88-78.35,26.88-78.35Z"/><path class="cls-10" d="M36.21,360.89c5,6.61,14.35,3.23,15.84,2.51s5.53,11.75,10.43,10.9-3.83-2.7,3.1-16.28,26.75-46.6,18.92-49.48-30,45.69-35.91,42.68,28.84-46.31,19.69-51C56.69,294.32,20.38,340.17,36.21,360.89Z"/></g><path class="cls-10" d="M167.14,159.75c.55-2.59,21.16-41.28,26.29-39.78S176,166.13,176,166.13,164.52,172.17,167.14,159.75Z"/><path class="cls-3" d="M165.13,163.32c.08-2,23.93-37.53,23.93-37.53l-18,39.27Z"/><path class="cls-3" d="M142.87,151.09c.46-2,30.5-32.43,30.5-32.43l-25,35.25Z"/><path class="cls-11" d="M83.51,197.8l106,54.1c9.71-16.15,26.06-64.05,28.54-71.37l-93.53-47.72C120.08,139.11,90.89,180.46,83.51,197.8Z"/><path class="cls-12" d="M201,227.21c-15-8.31-61.87-13.64-76.29-20.69-13.62-6.66-26.2-21.76-30.74-29.49-2.51,4.08-4.43,7.79-6.41,11.37,6.82,8,23.58,17.75,33.71,22.5,10.41,4.89,12.43,2.07,39.2,7.92,17.47,3.82,28.95,14.71,34.82,21.82C197.1,236.56,199,232,201,227.21Z"/></g></g></g></svg>