<svg xmlns="http://www.w3.org/2000/svg" viewBox="0 0 47.16 73.98"><defs><style>.cls-1{fill:#e9eae5;opacity:0.83;isolation:isolate;}.cls-2{fill:#e9eee4;}.cls-3,.cls-4{fill:#caccc6;}.cls-4{fill-opacity:0.55;}.cls-5{fill:#bbbcb8;}.cls-6{fill:#fbfcfa;}.cls-7{fill:#453533;fill-opacity:0.52;}.cls-8{fill:#bdbfba;}.cls-9{opacity:0.93;}.cls-10{fill:#fbfbfa;}.cls-11{fill:#ff474d;}.cls-12{fill:#fff;}</style></defs><title>popbottle</title><g id="Layer_2" data-name="Layer 2"><g id="Layer_2-2" data-name="Layer 2"><g id="Layer_2-3" data-name="Layer 2"><g id="Glass"><g id="coke"><path class="cls-1" d="M17.72,74A34.7,34.7,0,0,1,.27,65.07c-1.45-1.66,3.29-7.34,5-9.06a25.58,25.58,0,0,0,3.21-4.48c.74-1.21,4.63-15.15,6.05-15.61.31-2.29,7.66-12.55,7.66-12.55s-.82-.34-.07-1.16c.85-1,9.31-8.45,12.09-11.86a43.1,43.1,0,0,0,3.4-5.77s-1-.09-.36-.77,2-2.27,2-2.27a1.1,1.1,0,0,1,.4-1.37c.79-.68,4.18,1.07,4.18,1.07S47.25,2.94,47.16,4a1.09,1.09,0,0,1-.87,1.13s-.49,2-.63,3-.82.18-.82.18a43.12,43.12,0,0,0-2.69,6.13C41,18.67,40,29.89,39.64,31.17c-.23,1.09-1,.62-1,.62s-4,12-5.67,13.57c.46,1.42-8.55,12.75-9.08,14.06a25.32,25.32,0,0,0-1.75,5.23C21.75,67,19.92,74.17,17.72,74Z"/><path class="cls-2" d="M39.67.16c.79-.69,4.17,1.08,4.17,1.08"/><path class="cls-3" d="M22.22,25.18c.08-.35,5.4-5.74,5.4-5.74L23.2,25.68Z"/><path class="cls-3" d="M34.67,31.68c.24-.27,1.48-7.73,1.48-7.73l-2.46,7.24Z"/><path class="cls-3" d="M37.54,33c.24-.28,1.48-7.74,1.48-7.74L36.56,32.5Z"/><path class="cls-4" d="M45.18,8c-.54-.35-.56.07-.56.07a4,4,0,0,0,.09.39l.12-.22s.68.79.82-.17.64-3,.64-3A.57.57,0,0,0,46.51,5c0-.13-.24-.1-.48.29C45.92,5.51,45.73,8.38,45.18,8Z"/><path class="cls-4" d="M39.07,1.76c-.4.46-1.32,1.51-1.85,2-.7.68.35.77.35.77l-.09-.47c-.09-.47,0-.59.66-.39,0-.48,1.19-1.37,1.68-1.62C40.16,1.92,39.52,1.81,39.07,1.76Z"/><path class="cls-5" d="M39.49,1.6a13.37,13.37,0,0,1,3.58,1.15,9.11,9.11,0,0,1,3,2.18s.55-.77-2.73-2.44C40.35,1,39.49,1.6,39.49,1.6Z"/><path class="cls-5" d="M37.92,4.68A23.2,23.2,0,0,1,41,5.55a18.71,18.71,0,0,1,3.56,2.31S39.05,4.83,37.92,4.68Z"/><path class="cls-5" d="M47.12,4.28a1.54,1.54,0,0,0,0-.3V4a14.14,14.14,0,0,0-3.83-2.62A13.7,13.7,0,0,0,39.7.13l0,0a1.42,1.42,0,0,0-.24.25,13.05,13.05,0,0,1,3.82,1.2A22.36,22.36,0,0,1,47.12,4.28Z"/><path class="cls-6" d="M40.32,1.35c.41,0,.48-.09.48-.09A3.31,3.31,0,0,1,40.91.09,4.18,4.18,0,0,0,40.2,0C40.06.5,40,1.31,40.32,1.35Z"/><path class="cls-7" d="M9.89,67c7.45,3.71,10.73,6.59,7.62,6.3C14.65,73,12.6,72,9.16,70.61S.5,65.75.57,64.41,3.4,63.19,3.4,63.19A1.38,1.38,0,0,0,2,64.48c-.23,1.4,6.32,4.84,8.66,5.84s7.23,2.43,6.75,1.56S9.89,67,9.89,67Z"/><path class="cls-8" d="M14.93,40.44s-1.59,3.91-4,9.29S5.76,58.84,4.71,59.5c-3.12,2-2.57,1.65-2.57,1.65S9.76,61,14.93,40.44Z"/><path class="cls-8" d="M18.68,42.35S17,46.23,14.56,51.59s-5.08,9.14-6,9.86a18.54,18.54,0,0,0-2.32,1.78S12.73,62.52,18.68,42.35Z"/><path class="cls-8" d="M23.48,45.08c-.31.08-10.52,16.86-10.83,20.25-.18,1.89.53.72.53.72C15.75,58.76,20.28,51.74,23.48,45.08Z"/><path class="cls-8" d="M18.36,68.18a5.83,5.83,0,0,1,.23-3.75c.81-2.22,7.36-14.82,9.5-16.18C28.09,48.25,17.94,65.73,18.36,68.18Z"/><g id="highlihgt" class="cls-9"><path class="cls-10" d="M13.7,67.79s1.56.51,2.12-2.1,2-6.73,2-6.73l-1.2-.46S13.27,65.79,13.7,67.79Z"/><path class="cls-10" d="M20.15,62s.31.82,1,.51-1.45,7.36-2.53,7.14S19.89,62.6,20.15,62Z"/><path class="cls-10" d="M39.44,5.24s-6,10.5-9,12.53S19.8,33.23,19.8,33.23l3,2.17L41.15,6.07Z"/><path class="cls-10" d="M42.24,6.63S35.6,19.07,36.32,20.72,35.61,31,34.26,32.51s1.9,1.65,1.9,1.65,3.07-11.56,2.63-13S43.55,7.32,43.55,7.32Z"/><path class="cls-10" d="M6.41,63.88c.88,1.17,2.54.57,2.8.44s1,2.08,1.85,1.93-.68-.48.55-2.88,4.73-8.25,3.35-8.76S9.65,62.7,8.6,62.17s5.1-8.2,3.48-9C10,52.1,3.61,60.21,6.41,63.88Z"/></g><path class="cls-10" d="M29.58,28.28c.1-.46,3.75-7.31,4.66-7s-3.09,8.17-3.09,8.17S29.12,30.48,29.58,28.28Z"/><path class="cls-3" d="M29.23,28.91c0-.35,4.23-6.64,4.23-6.64l-3.18,7Z"/><path class="cls-3" d="M25.29,26.74c.08-.35,5.39-5.74,5.39-5.74l-4.42,6.24Z"/><path class="cls-11" d="M14.78,35l18.76,9.58c1.72-2.86,4.61-11.34,5.05-12.63L22,23.51C21.25,24.62,16.09,31.94,14.78,35Z"/><path class="cls-12" d="M35.58,40.22c-2.66-1.47-11-2.42-13.51-3.66a15.39,15.39,0,0,1-5.44-5.22c-.44.72-.78,1.37-1.13,2a21.5,21.5,0,0,0,6,4c1.85.87,2.2.37,6.94,1.4a11.23,11.23,0,0,1,6.16,3.86C34.88,41.87,35.22,41.07,35.58,40.22Z"/></g></g></g></g></g></svg>