<svg xmlns="http://www.w3.org/2000/svg" viewBox="0 0 97.26 128.85"><defs><style>.cls-1{fill:#8cc63f;}.cls-2{fill:#75a929;}.cls-3{stroke:#000;stroke-miterlimit:10;stroke-width:0.54px;}.cls-4{fill:#ff6022;}.cls-5{fill:#ce471d;}</style></defs><title>regular</title><g id="Layer_2" data-name="Layer 2"><g id="instruct2"><path id="cursor" class="cls-1" d="M97.26,52.78A474,474,0,0,1,24.53,0,473,473,0,0,1,0,86.44q13.49-3.06,26.77-6.91l10.39,49.32a241.11,241.11,0,0,0,57.11-19.77Q83.11,86.48,71.94,63.89,84.75,58.72,97.26,52.78Z"/><path id="shade" class="cls-2" d="M24.53,0c0,.08,0,.16,0,.24C30.18,17.87,50.72,91.1,69.26,119.72a240.91,240.91,0,0,0,25-10.64Q83.11,86.48,71.94,63.89q12.81-5.18,25.32-11.11A474,474,0,0,1,24.53,0Z"/><path id="eyes" class="cls-3" d="M61,77.86c-.5.17-1.19-.5-1.54-1.51s-.23-2,.28-2.15,1.2.51,1.55,1.51S61.46,77.68,61,77.86ZM44.32,81.57c-.35-1-1-1.69-1.54-1.51s-.63,1.13-.28,2.14,1,1.69,1.54,1.51S44.67,82.58,44.32,81.57Z"/><g id="mouth"><path id="mouth-2" data-name="mouth" d="M60.56,99.8l4-8.13a2,2,0,0,0-2.44-2.79L49.91,93.13a2,2,0,0,0-.21,3.7l8.21,3.88A2,2,0,0,0,60.56,99.8Z"/><path id="tongue" class="cls-4" d="M58.63,101.05a1.19,1.19,0,0,0,1.58-.54L62,96.92a4.58,4.58,0,0,0-7,2.39Z"/><path class="cls-5" d="M62,96.92a4.28,4.28,0,0,0-4.16-.6,3.71,3.71,0,0,0-.46.19c.55,1.32,1.3,3.06,2,4.63a1.24,1.24,0,0,0,.82-.63Z"/></g></g></g></svg>