<svg xmlns="http://www.w3.org/2000/svg" viewBox="0 0 404.72 535.49"><defs><style>.cls-1{fill:#8cc63f;}.cls-2{fill:#75a929;}.cls-3{fill:#ff6022;}.cls-4{fill:#fff;}.cls-5{stroke:#000;stroke-miterlimit:10;}</style></defs><title>soso</title><g id="Layer_2" data-name="Layer 2"><g id="Layer_1-2" data-name="Layer 1"><g id="Layer_2-2" data-name="Layer 2"><g id="mascot"><path id="body" class="cls-1" d="M221.43,266S183.51,39.62,246.27,39.79c59,.17,42.91,87.71,42.91,87.71l-47.47-4.25,74.45,89.64,88.56-75-45.86-4.11c3-52-6.25-135.56-128.3-133.75C124.79,1.57,83.62,137.64,77.34,265.4L60.6,535.49h42.18l46.78-90.58,46.1,90.58h42.73Z"/><polygon id="shade_pants" data-name="shade pants" class="cls-2" points="102.78 535.49 149.56 444.91 195.66 535.49 148.88 423.25 102.78 535.49"/><g id="mouth"><path id="mouth-2" d="M151.08,298.21l32.45-31.82a2,2,0,0,0-1.4-3.43H117.22a2,2,0,0,0-2,2,2,2,0,0,0,.6,1.43l32.46,31.82A2,2,0,0,0,151.08,298.21Z"/><path id="tongue" class="cls-3" d="M149.56,281c-5.46,0-10.15,2.63-12.32,6.42l11,10.78a2.07,2.07,0,0,0,2.87,0L162,287.54C159.84,283.67,155.09,281,149.56,281Z"/><path id="teeth" class="cls-4" d="M182.7,263h-66c-1.68,0-2.57,1.72-1.46,2.81L119.5,270h60.35l4.32-4.23C185.28,264.68,184.38,263,182.7,263Z"/></g><path id="left_arm" data-name="left arm" class="cls-1" d="M218.69,304.3s64.32,7,68.42,22.43c3.4,12.83-58.64,38.28-66,63.37-4,13.83,13.44,15.57,27,16.65,8.31.66,22.69-11.69,20.77-16.07-2-4.58-9.16-5.12-19.64-4.83-5.58.15-7.75,4.59-10.47,8.79-1.39-11,71-53.77,71.3-67.91.28-15-85.33-57-93.2-61.26"/><path id="right_arm" data-name="right arm" class="cls-1" d="M82.64,263.9S-.29,309.8,0,325.51c.26,14.13,58.56,53.79,57.16,64.75-2.72-4.2-2.53-8.55-10.47-8.79-10.47-.32-15.71,1.73-19.64,4.83-2.77,2.19,21.89,18.83,30.2,18.17,13.61-1.08,21.67-4.92,17.63-18.75C67.55,360.63,27.55,334,27.4,327.25c-.35-16,53.8-31.41,53.8-31.41"/><path class="cls-2" d="M242.16,39.33c1.64,0,13.26.22,20.06,3.13,39.86,14.65,27,85,27,85l-47.47-4.25,74.45,89.64C319.11,161,364,35.64,242.16,39.33Z"/><path class="cls-2" d="M223.88,305c15.38,2,59.84,9,63.23,21.79s-58.64,38.28-66,63.37c-4,13.83,13.44,15.57,27,16.65,8.31.66,22.69-11.69,20.77-16.07a5.7,5.7,0,0,0-1.73-2.22C256.94,413,234.94,401,234.94,401c-35-15,65.21-59.47,58-75C279.94,298,223.9,305,223.88,305Z"/><path class="cls-2" d="M74.88,385.72C67.55,360.63,27.55,334,27.4,327.25c-.35-16,53.8-31.41,53.8-31.41h0C74.94,294,33.2,309.6,26.94,318c-9,12,1.35,14.48,24,38,26,27,25,39,16,44-8.56,4.76-29-6-39.88-13.67h0c-2.79,2.18,21.88,18.83,30.19,18.17C70.86,403.39,78.92,399.55,74.88,385.72Z"/></g></g><g id="Layer_2-3" data-name="Layer 2"><g id="eyes"><path id="eyes-2" class="cls-5" d="M181.52,204.59c-1.73,0-3.14-2.82-3.14-6.29s1.38-6.28,3.14-6.28,3.14,2.81,3.14,6.28S183.26,204.59,181.52,204.59Zm-55-6.29c0-3.47-1.38-6.28-3.12-6.28s-3.14,2.81-3.14,6.28,1.41,6.29,3.14,6.29,3.14-2.82,3.14-6.29Z"/></g></g></g></g></svg>