<svg xmlns="http://www.w3.org/2000/svg" viewBox="0 0 155.57 252.33"><defs><style>.cls-1{fill:#d190b0;}.cls-2{fill:#eaa7ce;}.cls-3{fill:#b27d99;}</style></defs><title>straw</title><g id="Layer_2" data-name="Layer 2"><g id="straw"><path id="base" class="cls-1" d="M154.4.15,39,5.71l-5-2.3L32.32,6s-5.15-1.25-6.23-.47-.34,2.34-.34,2.34l-5.21.63-.45,1-2.17.38-1,.92a3.64,3.64,0,0,0-2.26.67c-1.08.79-2,3.49-2,3.49s-4.35.89-5.14,1.76.09,3.5.09,3.5A54,54,0,0,0,3.29,25.2c-.51,1,1.42,3.15,1.42,3.15S1,31.74.47,32.51,2,35.44,2,35.44a22,22,0,0,0-2,5.67c-.27,2.28,2.46,2.19,2.46,2.19S.88,46.46,1.2,48.68s3.67,2.59,3.67,2.59c-.34,1.69-.5,4.63,1,5.13-.14.05-.3.62,1.81.12L99.8,252.33,118,243.76,25.88,47.9c2.37-2.31,1.22-3.63.07-3.7,0,0,.47-2.44-.74-2.85,0,0,.6-2-.38-2.29,0,0,2.43-2.55.89-3.11,0,0,3-1.43,2.63-2.83a6.16,6.16,0,0,0,1.5-3.94s4.58,1.61,3.36-1.82c0,0,2.82,2.1,3.61-1.26a1.94,1.94,0,0,0,3.49,0,5.79,5.79,0,0,1-.23-1.3l115.24-5.54Z"/><path id="whit" class="cls-2" d="M154.85,14.11,35.7,19.84,37.14,26c1.8,2.47,3.43,0,3.43,0a5.25,5.25,0,0,1-.23-1.3l115.23-5.54Z"/><path id="shade" class="cls-3" d="M34.3,3.26,32.57,5.88s-5.15-1.25-6.23-.47S26,7.75,26,7.75l-5.21.63-.45,1-2.17.38-1,.92a3.64,3.64,0,0,0-2.26.67c-1.08.79-2,3.49-2,3.49s-4.35.89-5.14,1.76.09,3.5.09,3.5a54,54,0,0,0-4.37,4.92C3,26,5,28.2,5,28.2S1.28,31.59.73,32.36s1.56,2.93,1.56,2.93A22,22,0,0,0,.28,41C0,43.24,2.74,43.15,2.74,43.15s-1.6,3.16-1.28,5.38,3.66,2.59,3.66,2.59c-.33,1.69-.49,4.63,1,5.13-.13,0-.29.58,1.65.16C8.34,55.11,9,53.76,9,53.76s-3.64,1.88-2.85-.88,1.13-3.54,1.13-3.54S3.75,51,4.09,47.27A12.55,12.55,0,0,1,6.55,41S1.6,42.68,3,39.09a15.32,15.32,0,0,1,3.44-5.45s-5.27.3-2.67-1.85a66.53,66.53,0,0,0,5.27-5s-5.16,0-2.43-2.54a14.78,14.78,0,0,1,5.65-3.37s-5.39-2.2-2.07-3.48a32.59,32.59,0,0,1,6.2-1.73s-.8-2.91-.43-3.06S18.69,12,18.69,12l.24-1.66,1.46-.4,5.75-.7c5.89-.34-.61-2.1,1.59-2.78s6,1.54,6,1.54l1.42-2.8L38.42,8l116.4-4.53L154.65,0,39.26,5.56Z"/><path id="shade-2" data-name="shade" class="cls-3" d="M26.14,47.74l.78,1.67-.2,0c-.49-.58-3.73-5.28-7.41-4.2s4-3,6.62-1.87c0,0-2.71-2.33-5.54-2a28.55,28.55,0,0,0,5.08-2.17c.41.63,0,2,0,2,1.2.41.74,2.85.74,2.85C27.36,44.12,28.51,45.44,26.14,47.74Zm129.32-31L38.18,22.24c.84-3.32-6.16-7-4.82-6s3.55,9.12,2.89,9.41c-.23.11-6.16-6-7.93-6.22s6.35,5.89,5,7.65c0-2.78-10.42-5.48-10.26-4.3s6.69,3.15,6.8,6.83c-.46-3.71-12.72-.94-10.1-1.14s8.88,7.56,7.32,6.07-10.75-.94-10.51,2.31c2.36-1.82,7.84-.1,9.52.72.41-.71.63-1.48-.14-1.76,0,0,3-1.43,2.63-2.83A6.12,6.12,0,0,0,30.1,29s4.59,1.61,3.37-1.82c0,0,2.82,2.1,3.61-1.26a1.94,1.94,0,0,0,3.49,0,5.25,5.25,0,0,1-.23-1.3l115.23-5.54Z"/><path id="shade-3" data-name="shade" class="cls-3" d="M118.29,243.61,26.14,47.74c-.53.95,69.6,154.81,89,197.35Z"/></g></g></svg>