<svg xmlns="http://www.w3.org/2000/svg" viewBox="0 0 39.41 63.91"><defs><style>.cls-1{fill:#d190b0;}.cls-2{fill:#eaa7ce;}.cls-3{fill:#b27d99;}</style></defs><title>straw</title><g id="Layer_2" data-name="Layer 2"><g id="Layer_2-2" data-name="Layer 2"><g id="Layer_2-3" data-name="Layer 2"><g id="straw"><path id="base" class="cls-1" d="M39.11,0,9.88,1.45,8.62.86l-.43.66S6.89,1.2,6.61,1.4,6.53,2,6.53,2l-1.32.16-.12.26-.55.09-.25.24a1,1,0,0,0-.57.16,2.42,2.42,0,0,0-.51.89,4.29,4.29,0,0,0-1.3.44c-.2.22,0,.89,0,.89A14.47,14.47,0,0,0,.84,6.38c-.13.26.36.8.36.8S.26,8,.12,8.23.51,9,.51,9A5.94,5.94,0,0,0,0,10.41c-.06.58.63.56.63.56a3,3,0,0,0-.32,1.36c.08.56.93.66.93.66-.09.42-.13,1.17.25,1.29,0,0-.07.16.46,0l23.33,49.6,4.61-2.17L6.56,12.13c.6-.58.31-.92,0-.94,0,0,.12-.61-.19-.72,0,0,.15-.5-.1-.58,0,0,.62-.64.23-.78,0,0,.76-.37.66-.72a1.54,1.54,0,0,0,.38-1s1.16.41.86-.46c0,0,.71.53.91-.32a.5.5,0,0,0,.66.23.45.45,0,0,0,.22-.23,1.26,1.26,0,0,1-.05-.33l29.18-1.4Z"/><path id="whit" class="cls-2" d="M39.22,3.57,9.05,5l.36,1.56a.49.49,0,0,0,.87,0,1.65,1.65,0,0,1-.06-.32L39.41,4.85Z"/><path id="shade" class="cls-3" d="M8.69.83l-.44.66S7,1.17,6.68,1.37,6.59,2,6.59,2l-1.32.16-.11.26-.55.09-.26.23a1.06,1.06,0,0,0-.57.17,2.5,2.5,0,0,0-.51.89A4.29,4.29,0,0,0,2,4.2c-.2.22,0,.89,0,.89A12,12,0,0,0,.89,6.34c-.13.24.38.8.38.8S.33,8,.19,8.2s.39.74.39.74a5.59,5.59,0,0,0-.5,1.44c-.08.57.62.55.62.55a2.91,2.91,0,0,0-.33,1.36c.09.56.93.66.93.66-.08.43-.12,1.17.25,1.3,0,0-.07.14.42,0l.31-.67s-.92.47-.72-.23a7.23,7.23,0,0,1,.29-.89S1,12.92,1,12a3.32,3.32,0,0,1,.62-1.59s-1.25.43-.9-.48a3.79,3.79,0,0,1,.88-1.38S.3,8.6,1,8.05A17.65,17.65,0,0,0,2.29,6.79s-1.3,0-.61-.65a3.66,3.66,0,0,1,1.43-.85s-1.37-.56-.52-.88A7.61,7.61,0,0,1,4.16,4S4,3.23,4.05,3.19,4.74,3,4.74,3l.06-.42.37-.1,1.46-.18c1.49-.09-.16-.53.4-.7S8.55,2,8.55,2l.36-.71L9.74,2,39.22.88l0-.88L10,1.41Z"/><path id="shade-2" class="cls-3" d="M6.63,12.09l.19.42H6.77c-.12-.14-.94-1.33-1.87-1.06s1-.76,1.67-.47a2.13,2.13,0,0,0-1.4-.51,7.7,7.7,0,0,0,1.29-.55c.1.16,0,.51,0,.51.3.1.18.72.18.72C6.93,11.17,7.23,11.51,6.63,12.09ZM39.38,4.24,9.67,5.63c.22-.84-1.56-1.77-1.22-1.52A5,5,0,0,1,9.19,6.5c-.06,0-1.56-1.52-2-1.58S8.79,6.41,8.44,6.86c0-.71-2.64-1.39-2.59-1.09s1.69.8,1.72,1.73C7.45,6.56,4.35,7.26,5,7.21S7.26,9.13,6.86,8.75s-2.72-.24-2.66.58c.6-.46,2,0,2.41.19.11-.18.16-.38,0-.45,0,0,.76-.36.66-.72a1.55,1.55,0,0,0,.39-1s1.16.41.85-.46c0,0,.72.54.92-.32a.48.48,0,0,0,.65.23.51.51,0,0,0,.23-.23,1.65,1.65,0,0,1-.06-.32L39.41,4.83Z"/><path id="shade-3" class="cls-3" d="M30,61.7,6.63,12.09c-.14.24,17.62,39.21,22.54,50Z"/></g></g></g></g></svg>