<svg xmlns="http://www.w3.org/2000/svg" xmlns:xlink="http://www.w3.org/1999/xlink" viewBox="0 0 52.99 75.09"><defs><style>.cls-1,.cls-2{fill:none;}.cls-2{stroke:#231f20;stroke-width:0.3px;}.cls-3{fill:#e2e1ea;}.cls-4{fill:#9fa1a3;}.cls-5{fill:#d0d0d6;}.cls-6{fill:#726765;}.cls-7{fill:url(#Hatching_Double);}.cls-8{fill:#bebebe;}.cls-9{fill:#469a13;}.cls-10{fill:#1d7b00;}.cls-11{fill:#564e4d;}.cls-12{fill:#969274;opacity:0.28;isolation:isolate;}.cls-13{fill:#f2f2f9;}.cls-14{fill:#396340;}</style><pattern id="Hatching_Double" data-name="Hatching Double" width="72" height="72" patternTransform="matrix(1, 0, 0, -1, 7, -1)" patternUnits="userSpaceOnUse" viewBox="0 0 72 72"><rect class="cls-1" width="72" height="72"/><rect class="cls-1" width="72" height="72"/><line class="cls-2" x1="63.7" y1="-4.7" x2="67.18" y2="1.38"/><line class="cls-2" x1="65.44" y1="2.37" x2="61.96" y2="-3.7"/><line class="cls-2" x1="49" y1="-5.5" x2="46.62" y2="1.08"/><line class="cls-2" x1="44.74" y1="0.4" x2="47.12" y2="-6.18"/><line class="cls-2" x1="36.43" y1="-3.84" x2="38.15" y2="2.95"/><line class="cls-2" x1="36.21" y1="3.44" x2="34.49" y2="-3.35"/><line class="cls-2" x1="14.87" y1="-3.31" x2="16.78" y2="3.42"/><line class="cls-2" x1="14.85" y1="3.97" x2="12.95" y2="-2.77"/><line class="cls-2" x1="8.79" y1="-2.93" x2="6.77" y2="3.78"/><line class="cls-2" x1="4.85" y1="3.2" x2="6.87" y2="-3.5"/><line class="cls-2" x1="51.02" y1="2.71" x2="55.45" y2="-2.71"/><line class="cls-2" x1="57" y1="-1.44" x2="52.57" y2="3.97"/><line class="cls-2" x1="71.73" y1="45.7" x2="78.25" y2="48.25"/><line class="cls-2" x1="-0.27" y1="45.7" x2="6.25" y2="48.25"/><line class="cls-2" x1="4.19" y1="31.85" x2="1.63" y2="25.34"/><line class="cls-2" x1="3.49" y1="24.61" x2="6.05" y2="31.12"/><line class="cls-2" x1="69.21" y1="66.34" x2="75.38" y2="63.02"/><line class="cls-2" x1="76.32" y1="64.78" x2="70.16" y2="68.1"/><line class="cls-2" x1="69.26" y1="51.91" x2="74.56" y2="56.48"/><line class="cls-2" x1="73.25" y1="58" x2="67.95" y2="53.42"/><line class="cls-2" x1="71.73" y1="45.7" x2="78.25" y2="48.25"/><line class="cls-2" x1="77.52" y1="50.11" x2="71" y2="47.56"/><line class="cls-2" x1="68.93" y1="37.09" x2="75.75" y2="35.55"/><line class="cls-2" x1="76.2" y1="37.5" x2="69.37" y2="39.04"/><line class="cls-2" x1="68.96" y1="15.72" x2="75.75" y2="14"/><line class="cls-2" x1="76.24" y1="15.94" x2="69.46" y2="17.66"/><line class="cls-2" x1="70" y1="5.75" x2="76.65" y2="7.94"/><line class="cls-2" x1="76.02" y1="9.84" x2="69.37" y2="7.65"/><line class="cls-2" x1="63.7" y1="67.3" x2="67.18" y2="73.38"/><line class="cls-2" x1="65.44" y1="74.37" x2="61.96" y2="68.3"/><line class="cls-2" x1="49" y1="66.5" x2="46.62" y2="73.08"/><line class="cls-2" x1="44.74" y1="72.4" x2="47.12" y2="65.82"/><line class="cls-2" x1="36.43" y1="68.16" x2="38.15" y2="74.95"/><line class="cls-2" x1="36.21" y1="75.44" x2="34.49" y2="68.65"/><line class="cls-2" x1="30.79" y1="68.32" x2="24.34" y2="71.05"/><line class="cls-2" x1="23.56" y1="69.21" x2="30" y2="66.47"/><line class="cls-2" x1="14.87" y1="68.69" x2="16.78" y2="75.42"/><line class="cls-2" x1="14.85" y1="75.97" x2="12.95" y2="69.23"/><line class="cls-2" x1="8.79" y1="69.07" x2="6.77" y2="75.78"/><line class="cls-2" x1="4.85" y1="75.2" x2="6.87" y2="68.5"/><line class="cls-2" x1="65.44" y1="2.37" x2="61.96" y2="-3.7"/><line class="cls-2" x1="63.7" y1="-4.7" x2="67.18" y2="1.38"/><line class="cls-2" x1="51.02" y1="2.71" x2="55.45" y2="-2.71"/><line class="cls-2" x1="57" y1="-1.44" x2="52.57" y2="3.97"/><line class="cls-2" x1="44.74" y1="0.4" x2="47.12" y2="-6.18"/><line class="cls-2" x1="49" y1="-5.5" x2="46.62" y2="1.08"/><line class="cls-2" x1="36.21" y1="3.44" x2="34.49" y2="-3.35"/><line class="cls-2" x1="36.43" y1="-3.84" x2="38.15" y2="2.95"/><line class="cls-2" x1="14.85" y1="3.97" x2="12.95" y2="-2.77"/><line class="cls-2" x1="14.87" y1="-3.31" x2="16.78" y2="3.42"/><line class="cls-2" x1="4.85" y1="3.2" x2="6.87" y2="-3.5"/><line class="cls-2" x1="8.79" y1="-2.93" x2="6.77" y2="3.78"/><line class="cls-2" x1="18.44" y1="24.87" x2="14.96" y2="18.8"/><line class="cls-2" x1="16.7" y1="17.8" x2="20.18" y2="23.88"/><line class="cls-2" x1="48.5" y1="57.06" x2="44.07" y2="62.47"/><line class="cls-2" x1="42.52" y1="61.21" x2="46.95" y2="55.79"/><line class="cls-2" x1="36.24" y1="58.9" x2="38.62" y2="52.32"/><line class="cls-2" x1="40.5" y1="53" x2="38.12" y2="59.58"/><line class="cls-2" x1="62.79" y1="10.82" x2="56.34" y2="13.55"/><line class="cls-2" x1="55.56" y1="11.71" x2="62" y2="8.97"/><line class="cls-2" x1="62.98" y1="28.78" x2="61.08" y2="22.04"/><line class="cls-2" x1="63" y1="21.5" x2="64.9" y2="28.23"/><line class="cls-2" x1="52.57" y1="34.13" x2="54.58" y2="27.42"/><line class="cls-2" x1="56.5" y1="28" x2="54.48" y2="34.7"/><line class="cls-2" x1="33.02" y1="39.42" x2="36.5" y2="45.5"/><line class="cls-2" x1="34.76" y1="46.49" x2="31.29" y2="40.42"/><line class="cls-2" x1="18.52" y1="46.21" x2="22.95" y2="40.79"/><line class="cls-2" x1="24.5" y1="42.06" x2="20.07" y2="47.47"/><line class="cls-2" x1="10.74" y1="44.4" x2="13.12" y2="37.82"/><line class="cls-2" x1="15" y1="38.5" x2="12.62" y2="45.08"/><line class="cls-2" x1="62.71" y1="46.44" x2="60.99" y2="39.65"/><line class="cls-2" x1="62.93" y1="39.16" x2="64.65" y2="45.95"/><line class="cls-2" x1="46.89" y1="42.81" x2="53.34" y2="40.07"/><line class="cls-2" x1="54.12" y1="41.91" x2="47.67" y2="44.65"/><line class="cls-2" x1="30.07" y1="12.63" x2="32.08" y2="5.92"/><line class="cls-2" x1="34" y1="6.5" x2="31.98" y2="13.2"/><line class="cls-2" x1="48.97" y1="11.55" x2="42.04" y2="10.58"/><line class="cls-2" x1="42.32" y1="8.6" x2="49.25" y2="9.57"/><line class="cls-2" x1="49.11" y1="23.77" x2="47.55" y2="16.95"/><line class="cls-2" x1="49.5" y1="16.5" x2="51.06" y2="23.32"/><line class="cls-2" x1="30.22" y1="26.7" x2="26.48" y2="20.78"/><line class="cls-2" x1="28.17" y1="19.71" x2="31.91" y2="25.63"/><line class="cls-2" x1="31.89" y1="35.3" x2="25.47" y2="32.5"/><line class="cls-2" x1="26.28" y1="30.66" x2="32.69" y2="33.46"/><line class="cls-2" x1="18.37" y1="29.69" x2="20.28" y2="36.42"/><line class="cls-2" x1="18.35" y1="36.97" x2="16.45" y2="30.23"/><line class="cls-2" x1="43.92" y1="33.08" x2="41.9" y2="39.78"/><line class="cls-2" x1="39.98" y1="39.2" x2="42" y2="32.5"/><line class="cls-2" x1="30.2" y1="56.24" x2="24.61" y2="52.03"/><line class="cls-2" x1="25.82" y1="50.43" x2="31.41" y2="54.64"/><line class="cls-2" x1="20.94" y1="56.06" x2="18.99" y2="62.78"/><line class="cls-2" x1="17.07" y1="62.23" x2="19.02" y2="55.5"/><line class="cls-2" x1="10.4" y1="62.58" x2="9.99" y2="55.59"/><line class="cls-2" x1="11.99" y1="55.47" x2="12.39" y2="62.46"/><line class="cls-2" x1="23.25" y1="14.72" x2="19" y2="9.16"/><line class="cls-2" x1="20.58" y1="7.95" x2="24.84" y2="13.51"/><line class="cls-2" x1="15.46" y1="10.31" x2="10.61" y2="15.36"/><line class="cls-2" x1="9.17" y1="13.97" x2="14.01" y2="8.92"/><line class="cls-2" x1="55.5" y1="47.5" x2="59.9" y2="52.94"/><line class="cls-2" x1="58.35" y1="54.2" x2="53.95" y2="48.76"/><line class="cls-2" x1="58.53" y1="57.67" x2="59.31" y2="64.62"/><line class="cls-2" x1="57.33" y1="64.85" x2="56.54" y2="57.89"/><line class="cls-2" x1="35.56" y1="22.71" x2="42" y2="19.97"/><line class="cls-2" x1="42.79" y1="21.82" x2="36.34" y2="24.55"/><line class="cls-2" x1="51.02" y1="74.71" x2="55.45" y2="69.29"/><line class="cls-2" x1="57" y1="70.56" x2="52.57" y2="75.97"/><line class="cls-2" x1="-2.79" y1="66.34" x2="3.38" y2="63.02"/><line class="cls-2" x1="4.32" y1="64.78" x2="-1.84" y2="68.1"/><line class="cls-2" x1="-2.74" y1="51.91" x2="2.56" y2="56.48"/><line class="cls-2" x1="1.25" y1="58" x2="-4.05" y2="53.42"/><line class="cls-2" x1="-0.27" y1="45.7" x2="6.25" y2="48.25"/><line class="cls-2" x1="5.52" y1="50.11" x2="-1" y2="47.56"/><line class="cls-2" x1="-3.07" y1="37.09" x2="3.75" y2="35.55"/><line class="cls-2" x1="4.2" y1="37.5" x2="-2.63" y2="39.04"/><line class="cls-2" x1="-3.04" y1="15.72" x2="3.75" y2="14"/><line class="cls-2" x1="4.24" y1="15.94" x2="-2.54" y2="17.66"/><line class="cls-2" x1="-2" y1="5.75" x2="4.65" y2="7.94"/><line class="cls-2" x1="4.02" y1="9.84" x2="-2.63" y2="7.65"/><line class="cls-2" x1="65.44" y1="74.37" x2="61.96" y2="68.3"/><line class="cls-2" x1="63.7" y1="67.3" x2="67.18" y2="73.38"/><line class="cls-2" x1="51.02" y1="74.71" x2="55.45" y2="69.29"/><line class="cls-2" x1="57" y1="70.56" x2="52.57" y2="75.97"/><line class="cls-2" x1="44.74" y1="72.4" x2="47.12" y2="65.82"/><line class="cls-2" x1="49" y1="66.5" x2="46.62" y2="73.08"/><line class="cls-2" x1="36.21" y1="75.44" x2="34.49" y2="68.65"/><line class="cls-2" x1="36.43" y1="68.16" x2="38.15" y2="74.95"/><line class="cls-2" x1="14.85" y1="75.97" x2="12.95" y2="69.23"/><line class="cls-2" x1="14.87" y1="68.69" x2="16.78" y2="75.42"/><line class="cls-2" x1="4.85" y1="75.2" x2="6.87" y2="68.5"/><line class="cls-2" x1="8.79" y1="69.07" x2="6.77" y2="75.78"/></pattern></defs><title>teabag</title><g id="Layer_2" data-name="Layer 2"><g id="Layer_2-2" data-name="Layer 2"><g id="Layer_2-3" data-name="Layer 2"><g id="Compost"><path class="cls-3" d="M53,45.26c-.61.62-17.51,28.18-17.93,29.41s-1.33-.51-4.5-1.84S12.25,61.25,8.62,59.19c-2-1.11,1.13-2.76,1.13-2.76L27.06,29l10.87-4.6,14.55,7.88Z"/><path class="cls-4" d="M27,29.08l-.62,1c3.57.68,13,2.42,13.28,2.05l-2-6.92Z"/><path class="cls-5" d="M39.67,31.28c-.3.46-12.6-2.31-12.6-2.31l10.86-4.61Z"/><path class="cls-4" d="M52.48,33.5l-6.15,2.87,6.24,9.5c.18-.27.31-.46.38-.55Z"/><polygon class="cls-5" points="52.48 32.25 52.99 45.26 46.34 35.12 52.48 32.25"/><path class="cls-4" d="M41.71,38.3c1.73-1,9.14-4.91,10.37-6.26-3-1.8-14.16-7.68-14.16-7.68l.94,12.82Z"/><path class="cls-5" d="M37.93,24.36s14,7.28,14.55,7.89-9.63,6-9.63,6l-3.38-1.34Z"/><path class="cls-6" d="M40.6,55.51c-2.26-2.66-7.07-3.79-9.12-5S24.2,45,21.64,43.93a7.72,7.72,0,0,0-3.76-.38L9.75,56.43s-3.08,1.66-1.13,2.76c3.63,2.05,18.75,12.3,21.93,13.63s4.1,3.07,4.51,1.85c.21-.63,4.62-8,9-15.15A49.44,49.44,0,0,0,40.6,55.51Z"/><path class="cls-7" d="M40.6,55.51c-2.26-2.66-7.07-3.79-9.12-5S24.2,45,21.64,43.93a7.72,7.72,0,0,0-3.76-.38L9.75,56.43s-3.08,1.66-1.13,2.76c3.63,2.05,18.75,12.3,21.93,13.63s4.1,3.07,4.51,1.85c.21-.63,4.62-8,9-15.15A49.44,49.44,0,0,0,40.6,55.51Z"/><path class="cls-8" d="M40.17,25.67c-.11-.33-2.86-8-2.34-10.86.06-.36.19-.83.34-1.38.63-2.29,1.68-6.13-.25-8.94-1.35-2-4-3.19-7.89-3.59-9.87-1-12.55-2-20.13,5.68C7,9.51,5.85,13.4,6.42,18.15l-.22,0c-.57-4.83.62-8.78,3.55-11.75C17.38-1.33,20.15-.33,30.06.69c3.95.4,6.65,1.63,8.05,3.67,2,2.9.92,6.8.28,9.13-.15.54-.28,1-.34,1.36-.5,2.81,2.31,10.67,2.33,10.74Z"/><path class="cls-9" d="M9.79,13.58.75,18A1.64,1.64,0,0,1,0,20.16H0L6.16,32.81l12-5.83L12,14.33A1.62,1.62,0,0,1,9.79,13.58Z"/><path class="cls-10" d="M1.27,20.78a2.89,2.89,0,0,0,.86-2.52l7-3.42a2.87,2.87,0,0,0,2.1.91l.42,0L17,26.59,6.56,31.66Z"/><path class="cls-11" d="M34.72,73c-4-.7-17.44-10.45-19.59-11.83a63.82,63.82,0,0,0-7-3.36c-.29.47-.31,1,.47,1.43,3.62,2,18.75,12.29,21.93,13.63s4.09,3.07,4.5,1.84h0A3.18,3.18,0,0,0,34.72,73Z"/><path class="cls-12" d="M35.06,74.67c.28-.84,8.34-14.1,13.57-22.53-4.5-1.29-9.21-10-13.56-14.07-4.73-4.44-9-3.38-12.78-1.52L9.75,56.43s-3.08,1.66-1.13,2.76c3.63,2.05,18.75,12.3,21.93,13.63S34.65,75.9,35.06,74.67Z"/><path class="cls-13" d="M44.8,33.27a2.27,2.27,0,0,0-2.7-1.65.26.26,0,0,1-.34-.18h0a.35.35,0,0,1,.32-.37,2.71,2.71,0,0,1,3.23,2,.36.36,0,0,1-.18.45h0a.28.28,0,0,1-.33-.21Z"/><rect class="cls-14" x="5.25" y="18.4" width="3.6" height="0.72" rx="0.23" ry="0.23" transform="translate(-7.5 4.98) rotate(-25.95)"/><rect class="cls-13" x="4.75" y="18.19" width="3.6" height="0.72" rx="0.23" ry="0.23" transform="translate(-7.46 4.73) rotate(-25.95)"/></g></g></g></g></svg>