<svg xmlns="http://www.w3.org/2000/svg" viewBox="0 0 82.49 112.43"><defs><style>.cls-1{fill:#eaf0f4;}.cls-2{fill:#e5e8ea;}.cls-3{fill:#d7dadd;}.cls-4{fill:#e5ecf1;}.cls-5{fill:#808962;fill-opacity:0.58;}.cls-6{fill:#d6d7d8;fill-opacity:0.54;}.cls-7{fill:none;stroke:#369952;stroke-miterlimit:10;stroke-width:0.48px;}.cls-8{fill:#77a12d;}.cls-9{fill:#62821d;}.cls-10{fill:#d1e2ab;}.cls-11{fill:#bdbfc1;}.cls-12{fill:#a3b519;}.cls-13{fill:#8bb72c;}.cls-14{fill:#dd9237;}.cls-15{fill:#e2991a;}.cls-16{fill:#ce8113;}.cls-17{fill:#d8d8d8;}.cls-18{fill:#90991c;}.cls-19{fill:#e9ebd2;}</style></defs><title>tetrapak</title><g id="Layer_2" data-name="Layer 2"><g id="Layer_2-2" data-name="Layer 2"><g id="Layer_2-3" data-name="Layer 2"><g id="Plastic_Mixed" data-name="Plastic Mixed"><g id="tetra_pak" data-name="tetra pak"><rect class="cls-1" x="2.96" y="6.74" width="32.87" height="4.91" rx="0.49" ry="0.49" transform="translate(-2.07 9.35) rotate(-25.78)"/><polygon class="cls-1" points="35.3 4.24 6.06 18.36 19.13 31.41 49.85 15.05 35.3 4.24"/><path class="cls-2" d="M0,30.55l6-12.18,13.2,12.94h0Z"/><polygon class="cls-3" points="6.07 19.74 17.48 30.55 0.86 30.2 6.07 19.74"/><polygon class="cls-4" points="19.25 31.32 0.03 30.55 31.92 111.24 51.94 112.38 82.49 96 49.85 15.05 19.25 31.32"/><ellipse class="cls-5" cx="27.62" cy="18.84" rx="5.23" ry="6.23" transform="translate(0.3 38.1) rotate(-69.48)"/><polygon class="cls-6" points="31.79 111.29 51.64 112.42 19 31.46 0 30.85 31.79 111.29"/><path class="cls-7" d="M24.51,59.38l-7,.85c-1.57.19-3.58-1.58-4.47-3.92L8.52,44.37C7.63,42,8.19,40,9.75,39.76l7-.84c1.57-.19,3.58,1.57,4.47,3.92l4.52,11.93C26.63,57.12,26.07,59.2,24.51,59.38Z"/><line class="cls-7" x1="9.5" y1="44.08" x2="16.25" y2="43.63"/><line class="cls-7" x1="10.84" y1="48.03" x2="17.59" y2="47.59"/><line class="cls-7" x1="11.74" y1="50.63" x2="18.49" y2="50.19"/><line class="cls-7" x1="13.13" y1="52.6" x2="17.54" y2="52.32"/><line class="cls-7" x1="13.34" y1="54.08" x2="18.43" y2="53.74"/><line class="cls-7" x1="20.28" y1="51.91" x2="23.66" y2="51.69"/><line class="cls-7" x1="19.72" y1="50.53" x2="23.1" y2="50.31"/><line class="cls-7" x1="19.61" y1="48.74" x2="22.98" y2="48.51"/><line class="cls-7" x1="18.69" y1="46.46" x2="22.06" y2="46.24"/><line class="cls-7" x1="17.51" y1="43.55" x2="20.89" y2="43.33"/><path class="cls-8" d="M21.78,17.62l1.13-6.73a6,6,0,0,0,4.81,6.33c6,1.6,7.18-3.79,7.18-3.79l-1.09,6.42s-2.53,3.2-7.59,1.84A6,6,0,0,1,21.78,17.62Z"/><path class="cls-9" d="M34.22,17.51a11.73,11.73,0,0,1-6.58,2.15c-2.65-.16-4.47-2.92-5.43-4.86l-.43,2.83a5.94,5.94,0,0,0,4.45,4c5.07,1.38,7.59-1.83,7.59-1.83Z"/><path class="cls-10" d="M31.58,21.43a7.56,7.56,0,0,0,1.12-.61c.24-1.5.39-3,.48-4.52a4.48,4.48,0,0,1-1.1.73Z"/><path class="cls-10" d="M29.29,17.5,28.59,22c.3,0,.59,0,.89,0a25.09,25.09,0,0,0,.75-4.47A5.9,5.9,0,0,1,29.29,17.5Z"/><path class="cls-10" d="M26.43,21.73a34.76,34.76,0,0,0,1-4.57,8.1,8.1,0,0,1-.87-.3l-1,4.6c.21.07.44.15.68.21Z"/><path class="cls-10" d="M24,20.64a43.61,43.61,0,0,0,.95-4.74A5.54,5.54,0,0,1,24,15l-1,4.83A7,7,0,0,0,24,20.64Z"/><polygon class="cls-11" points="10.49 24.11 0.86 30.2 6.07 19.74 10.49 24.11"/><path class="cls-3" d="M5.47,18.16a.45.45,0,0,0,.59.2L34.87,4.45a.45.45,0,0,0,.21-.59l-.49-1L5.09,17.37Z"/><path class="cls-12" d="M82.34,96.05,58.86,37.78c-2.94.84-9.52,3.29-10,10.72-.57,9.44-10.39,21.57-16.37,23.69-3.54,1.25-8.81,5.6-12.24,10l11.5,29.09,20,1.15Z"/><path class="cls-12" d="M82.34,96.05,58.86,37.78c-2.94.84-9.52,3.29-10,10.72-.57,9.44-10.39,21.57-16.37,23.69-3.54,1.25-8.81,5.6-12.24,10l11.5,29.09,20,1.15Z"/><ellipse class="cls-13" cx="28.95" cy="12.37" rx="5.23" ry="6.23" transform="translate(7.22 35.14) rotate(-69.48)"/><path class="cls-8" d="M35,14a5,5,0,0,0-.71-3.75,7.11,7.11,0,0,0-8.36-2.78,4.67,4.67,0,0,0-3.06,4.37,7.9,7.9,0,0,1,6-1.71A11.78,11.78,0,0,1,35,14Z"/><path class="cls-14" d="M33,38c-.42.18-.58.38-.49.59l1.17,2.63a1.76,1.76,0,0,1,.09,1.52,2.15,2.15,0,0,1-1.23,1,2.51,2.51,0,0,1-.77.21,1.74,1.74,0,0,1-.64-.06,1.13,1.13,0,0,1-.5-.25,1.18,1.18,0,0,1-.31-.43.67.67,0,0,1,0-.52.57.57,0,0,1,.37-.34.62.62,0,0,1,.48,0,.5.5,0,0,1,.3.3.46.46,0,0,1,0,.38.53.53,0,0,1-.28.29.76.76,0,0,0,.19.12,1.11,1.11,0,0,0,.25,0,1.37,1.37,0,0,0,.29,0,1.57,1.57,0,0,0,.31-.08,1.19,1.19,0,0,0,.38-.25.68.68,0,0,0,.22-.35,1.29,1.29,0,0,0,0-.48,2.85,2.85,0,0,0-.22-.64L31.44,39c-.09-.21-.35-.22-.77,0l-.17-.4,2.33-1A3.12,3.12,0,0,0,33,38Z"/><path class="cls-14" d="M39,35.26c-.42.19-.58.4-.49.62l1,2.31a3.73,3.73,0,0,1,.31,1,1.93,1.93,0,0,1-.07.86,1.61,1.61,0,0,1-.47.71,3.23,3.23,0,0,1-.92.57,3.36,3.36,0,0,1-1.08.27,1.93,1.93,0,0,1-.89-.13,1.86,1.86,0,0,1-.7-.51,4,4,0,0,1-.53-.86c-.33-.76-.67-1.51-1-2.27-.1-.2-.35-.21-.77,0l-.17-.4,2.44-1.1.18.41a1.67,1.67,0,0,0-.54.33.28.28,0,0,0-.08.31c.34.76.68,1.53,1,2.27a4.58,4.58,0,0,0,.37.69,1.53,1.53,0,0,0,.44.4,1,1,0,0,0,.54.12,2.13,2.13,0,0,0,.7-.18,2.15,2.15,0,0,0,.61-.38,1,1,0,0,0,.3-.47,1.26,1.26,0,0,0,0-.61,3.31,3.31,0,0,0-.25-.75l-1-2.31a.28.28,0,0,0-.29-.15,1.65,1.65,0,0,0-.61.18l-.18-.41,2-.89A2.61,2.61,0,0,0,39,35.26Z"/><path class="cls-14" d="M41.94,33.94c-.42.19-.58.39-.48.61l1.66,3.76q.15.33.78.06l.17.4-2.34,1-.17-.4c.42-.18.58-.37.49-.59-.56-1.25-1.11-2.49-1.66-3.74-.1-.22-.35-.23-.77,0l-.19-.41,2.32-1.06A2.5,2.5,0,0,0,41.94,33.94Z"/><path class="cls-14" d="M48,32.75l-.49.28a2,2,0,0,0-1-.73,1.59,1.59,0,0,0-1.19.11,2,2,0,0,0-.71.53,1.56,1.56,0,0,0-.33.7,2.37,2.37,0,0,0,0,.84,3.75,3.75,0,0,0,.3.93,3.78,3.78,0,0,0,.54.88,1.91,1.91,0,0,0,.63.5,1.56,1.56,0,0,0,.7.16,2.16,2.16,0,0,0,1.73-1,2,2,0,0,0,.17-1.26l.55,0a3.49,3.49,0,0,1,0,.79,2.62,2.62,0,0,1-.19.78,2.27,2.27,0,0,1-.49.7,2.85,2.85,0,0,1-.87.57,3.63,3.63,0,0,1-1.13.3,2.52,2.52,0,0,1-1.09-.12,2.76,2.76,0,0,1-1-.59,3.44,3.44,0,0,1-.74-1.1,3.81,3.81,0,0,1-.36-1.36,2.6,2.6,0,0,1,.79-2,3.32,3.32,0,0,1,1-.65,2.64,2.64,0,0,1,1-.28,2,2,0,0,1,.77.12l0-.54.51-.24C47.49,31.56,47.75,32.14,48,32.75Z"/><path class="cls-14" d="M53.17,30.15l-.47.26c-.39-.72-.85-.95-1.38-.7l-1.56.74.78,1.78.8-.37c.27-.13.3-.5.09-1.12l.43-.21.92,2.36-.42.19c-.31-.58-.62-.82-.85-.71l-.74.35.9,2,1.31-.6c.79-.35,1-1.07.62-2.17l.52-.19c.26.74.51,1.47.77,2.2l-4.65,2.08-.19-.41c.42-.19.58-.39.48-.61l-1.72-3.9c-.1-.23-.36-.24-.77-.05l-.19-.43c1.54-.72,3.07-1.46,4.59-2.2C52.68,29,52.92,29.59,53.17,30.15Z"/><circle class="cls-15" cx="61.65" cy="85.54" r="12.68"/><path class="cls-16" d="M73.1,79.89a12.72,12.72,0,0,0-7.2-6.37A12.68,12.68,0,0,1,53.72,95.34,12.69,12.69,0,0,0,73.1,79.89Z"/><polygon class="cls-17" points="50.89 112.32 51.94 112.38 19.35 31.13 18.81 31.5 18.21 31.27 50.89 112.32"/><path class="cls-18" d="M50.92,112.38l.89.05.58-.3L35.3,70.71a2.63,2.63,0,0,1-.94.61Z"/><path class="cls-19" d="M59.44,74.78c-2.45-6.5-3.68-9.63-3.68-9.63L48,62.71a.66.66,0,0,0-.84.43.4.4,0,0,0,0,.15l0,.29,7.93,2.35,3.41,9.19Z"/></g></g></g></g></g></svg>