<svg xmlns="http://www.w3.org/2000/svg" viewBox="0 0 908 1087.39"><defs><style>.cls-1{fill:#0d6f40;}.cls-2{fill:#3c423f;}.cls-3{fill:#0f5b35;}.cls-4{fill:#4d5450;}.cls-5{fill:#3a3f3c;}.cls-6{fill:#fff;}.cls-7{fill:#dee1df;}.cls-8{fill:#a09e9b;}.cls-10,.cls-8,.cls-9{stroke:#ececeb;}.cls-10,.cls-11,.cls-23,.cls-8,.cls-9{stroke-miterlimit:10;}.cls-10,.cls-11,.cls-8,.cls-9{stroke-width:0.96px;}.cls-12,.cls-8,.cls-9{opacity:0.5;}.cls-9{fill:#ececeb;}.cls-10{fill:none;}.cls-11{fill:#c6c5c3;stroke:#f0efef;opacity:0.66;}.cls-13{fill:#fffefd;}.cls-14{fill:#0d74ae;}.cls-15{fill:#176287;}.cls-16{fill:#c5512b;}.cls-17{fill:#d17455;}.cls-18{fill:#b53e14;}.cls-19{fill:#f3dcd5;}.cls-20{fill:#332c2a;}.cls-21{fill:#8cc63f;}.cls-22{fill:#75a929;}.cls-23{stroke:#000;stroke-width:0.54px;}.cls-24{fill:#ff6022;}.cls-25{fill:#ce471d;}.cls-26{fill:#e2e2e2;opacity:0.61;}</style></defs><title>tutorial2</title><g id="Layer_2" data-name="Layer 2"><g id="instruct2"><rect class="cls-1" x="10" y="72.6" width="888" height="1004.79"/><path class="cls-2" d="M888,82.61v984.78H20V82.61H888m20-20H0V1087.39H908V62.61Z"/><g id="shade"><path class="cls-3" d="M20,77v994H888V77Zm848.88,974.6H39.12V96.4H868.88Z"/></g><g id="hole"><ellipse class="cls-4" cx="609" cy="279" rx="117.7" ry="75.06"/><path class="cls-5" d="M723.23,246c-6.47-9.75-15.65-18.46-27.28-25.88C672.62,205.19,641.74,197,609,197s-63.62,8.19-87,23.07c-11.63,7.42-20.81,16.13-27.28,25.88-6.9,10.41-10.4,21.53-10.4,33.05s3.5,22.64,10.4,33.05c6.47,9.75,15.65,18.46,27.28,25.88C545.38,352.81,576.26,361,609,361s63.62-8.19,87-23.07c11.63-7.42,20.81-16.13,27.28-25.88,6.9-10.41,10.4-21.53,10.4-33.05S730.13,256.36,723.23,246ZM609,354.06c-65,0-117.7-33.6-117.7-75.06S544,203.94,609,203.94,726.7,237.54,726.7,279,674,354.06,609,354.06Z"/></g><rect class="cls-6" x="205" y="5" width="498" height="130"/><path class="cls-2" d="M698,10V130H210V10H698M708,0H200V140H708V0Z"/><path id="shade-2" data-name="shade" class="cls-7" d="M210,10V130H698V10ZM691,123H217V17H691Z"/><path d="M275.26,47.83V92.11a.89.89,0,0,1-1,1H271a.89.89,0,0,1-1-1V47.83a.89.89,0,0,1,1-1h3.24A.89.89,0,0,1,275.26,47.83Z"/><path d="M291.18,93.12H288a.89.89,0,0,1-1-1V47.83a.89.89,0,0,1,1-1H291a1.14,1.14,0,0,1,1.15.58L312,82.32h.29V47.83a.9.9,0,0,1,1-1h3.17a.9.9,0,0,1,1,1V92.11a.9.9,0,0,1-1,1h-2.67a2,2,0,0,1-1.51-.94l-19.8-34.56h-.29V92.11A.89.89,0,0,1,291.18,93.12Z"/><path d="M328.33,82.46v-2.3a.89.89,0,0,1,1-1h3.23a.89.89,0,0,1,1,1V82q0,6.48,6.41,6.48h6.34q6.41,0,6.4-6.62V79.44q0-5.19-8.56-6.77c-2.4-.43-4.8-.94-7.2-1.51a12.79,12.79,0,0,1-6.12-3.35,9.12,9.12,0,0,1-2.52-6.8V57.48A9.84,9.84,0,0,1,339,46.82h8a9.89,9.89,0,0,1,10.66,10.66v1.8q0,1.08-.93,1.08h-3.32q-.93,0-.93-1.08V58q0-6.55-6.41-6.55h-6.12q-6.41,0-6.41,6.84v2.88q0,3.68,4.83,5c1.44.38,3,.73,4.75,1s3.46.72,5.22,1.23a26.54,26.54,0,0,1,4.79,1.87,8.58,8.58,0,0,1,3.49,3.38,10.81,10.81,0,0,1,1.33,5.51v3.24a9.89,9.89,0,0,1-10.66,10.66H339a9.89,9.89,0,0,1-10.65-10.66Z"/><path d="M380.09,93.12h-3.24a.89.89,0,0,1-1-1v-40c0-.43-.24-.65-.72-.65h-9.8c-.72,0-1.08-.34-1.08-1V47.83c0-.67.36-1,1.08-1h26.28c.72,0,1.08.34,1.08,1v2.59c0,.67-.36,1-1.08,1h-9.79c-.48,0-.72.22-.72.65v40A.89.89,0,0,1,380.09,93.12Z"/><path d="M403.78,93.12h-3.24a.9.9,0,0,1-1-1V47.83a.9.9,0,0,1,1-1H417.1A10.68,10.68,0,0,1,425,49.67a10.47,10.47,0,0,1,2.88,7.81V64a10.87,10.87,0,0,1-1.95,6.66,9.21,9.21,0,0,1-5.4,3.49v.29L428.84,92c.43.76.19,1.15-.72,1.15h-3.24a1.93,1.93,0,0,1-1.8-1L415,74.69h-9.5c-.48,0-.72.21-.72.64V92.11A.9.9,0,0,1,403.78,93.12Zm1.73-22.83h10.87q6.19,0,6.19-6.19V57.69q0-6.25-6.19-6.26H405.51c-.48,0-.72.22-.72.65V69.65C404.79,70.08,405,70.29,405.51,70.29Z"/><path d="M462.82,46.82h3.24c.67,0,1,.31,1,.94v34.7q0,5-2.81,7.85a10.51,10.51,0,0,1-7.78,2.81h-8a10.65,10.65,0,0,1-7.81-2.81c-1.9-1.87-2.84-4.49-2.84-7.85V47.83a.89.89,0,0,1,1-1h3.24a.89.89,0,0,1,1,1V82.25q0,6.25,6,6.26h6.77q6,0,6-6.26V47.83C461.88,47.16,462.2,46.82,462.82,46.82Z"/><path d="M496.66,93.12H488a10.63,10.63,0,0,1-7.81-2.81q-2.85-2.81-2.85-7.85v-25q0-5,2.85-7.85A10.63,10.63,0,0,1,488,46.82h8.64a10.65,10.65,0,0,1,7.81,2.81c1.9,1.87,2.84,4.49,2.84,7.85V61a.88.88,0,0,1-1,1h-3.24a.88.88,0,0,1-1-1V57.69q0-6.25-6.05-6.26H488.6q-6,0-6,6.26V82.25q0,6.25,6,6.26H496q6,0,6.05-6.26V78.93a.88.88,0,0,1,1-1h3.24a.88.88,0,0,1,1,1v3.53c0,3.36-.94,6-2.84,7.85A10.65,10.65,0,0,1,496.66,93.12Z"/><path d="M528.34,93.12H525.1a.9.9,0,0,1-1-1v-40c0-.43-.24-.65-.72-.65h-9.79c-.72,0-1.08-.34-1.08-1V47.83c0-.67.36-1,1.08-1h26.28c.72,0,1.08.34,1.08,1v2.59c0,.67-.36,1-1.08,1h-9.79c-.48,0-.72.22-.72.65v40A.9.9,0,0,1,528.34,93.12Z"/><path d="M553.39,47.83V92.11a.89.89,0,0,1-1,1h-3.24a.89.89,0,0,1-1-1V47.83a.89.89,0,0,1,1-1h3.24A.89.89,0,0,1,553.39,47.83Z"/><path d="M583.63,93.12h-8.57a10.65,10.65,0,0,1-7.81-2.81q-2.84-2.81-2.84-7.85v-25q0-5,2.84-7.85a10.65,10.65,0,0,1,7.81-2.81h8.57a9.84,9.84,0,0,1,10.66,10.66v25a9.84,9.84,0,0,1-10.66,10.66Zm-8-4.61H583q6.06,0,6-6.26V57.69q0-6.25-6-6.26h-7.34q-6,0-6,6.26V82.25Q569.66,88.51,575.64,88.51Z"/><path d="M609.12,93.12H606a.89.89,0,0,1-1-1V47.83a.89.89,0,0,1,1-1h2.95a1.17,1.17,0,0,1,1.16.58l19.87,34.92h.29V47.83a.89.89,0,0,1,1-1h3.17a.9.9,0,0,1,1,1V92.11a.9.9,0,0,1-1,1h-2.66a2,2,0,0,1-1.51-.94l-19.8-34.56h-.29V92.11A.9.9,0,0,1,609.12,93.12Z"/><path class="cls-6" d="M208.12,687.78V663.43a.75.75,0,0,1,.85-.85h10a6.76,6.76,0,0,1,4.93,1.72,6.53,6.53,0,0,1,1.76,4.88V682a6.54,6.54,0,0,1-1.76,4.88,6.76,6.76,0,0,1-4.93,1.72H209A.75.75,0,0,1,208.12,687.78Zm5.6-3.61h4.41a2,2,0,0,0,2.39-2.39V669.42a2,2,0,0,0-2.39-2.39h-4.41a.4.4,0,0,0-.45.45v16.25A.39.39,0,0,0,213.72,684.17Z"/><path class="cls-6" d="M234.42,688.63H231a.75.75,0,0,1-.85-.85v-19A.76.76,0,0,1,231,668h3.44a.76.76,0,0,1,.85.86v1.37h.16a3.19,3.19,0,0,1,1.58-1.66,5.3,5.3,0,0,1,2.4-.57h1.45c.54,0,.81.29.81.86v2.79a.94.94,0,0,1-.18.67.76.76,0,0,1-.63.14h-2.79c-1.87,0-2.8,1.06-2.8,3.16v12.2A.75.75,0,0,1,234.42,688.63Z"/><path class="cls-6" d="M251.52,688.63h-1a6.82,6.82,0,0,1-5-1.7,6.56,6.56,0,0,1-1.74-4.9v-7.46a6.54,6.54,0,0,1,1.74-4.9,6.78,6.78,0,0,1,5-1.71h9.36a.78.78,0,0,1,.89.86v19c0,.57-.3.85-.89.85H256.5a.75.75,0,0,1-.85-.85v-1.34h-.16a3,3,0,0,1-1.58,1.64A5.34,5.34,0,0,1,251.52,688.63Zm4.13-7.54v-8.22q0-.45-.48-.45h-3.81a2.43,2.43,0,0,0-1.82.55,2.56,2.56,0,0,0-.53,1.84v7a2.59,2.59,0,0,0,.53,1.85,2.47,2.47,0,0,0,1.82.54h1.5C254.72,684.17,255.65,683.15,255.65,681.09Z"/><path class="cls-6" d="M272.55,687.7h-1.34a6.19,6.19,0,0,1-4.72-1.7,6.94,6.94,0,0,1-1.6-4.91v-6.52a6.54,6.54,0,0,1,1.74-4.9,6.78,6.78,0,0,1,4.95-1.71h9.36a.78.78,0,0,1,.89.86v20a6.45,6.45,0,0,1-1.76,4.86,6.8,6.8,0,0,1-4.93,1.71h-7.78a.88.88,0,0,1-.66-.19.82.82,0,0,1-.19-.62v-2.8a.75.75,0,0,1,.85-.85h6.93a2.54,2.54,0,0,0,1.85-.55,2.48,2.48,0,0,0,.54-1.8v-3.08h-.16a3.15,3.15,0,0,1-1.58,1.66A5.26,5.26,0,0,1,272.55,687.7Zm4.13-7.54v-7.29q0-.45-.48-.45h-3.81a2.43,2.43,0,0,0-1.82.55,2.56,2.56,0,0,0-.53,1.84v6a2.49,2.49,0,0,0,.53,1.82,2.52,2.52,0,0,0,1.82.53h1.5C275.75,683.2,276.68,682.19,276.68,680.16Z"/><path class="cls-6" d="M295.65,672.42H294a1,1,0,0,1-.67-.16.87.87,0,0,1-.19-.65v-2.79A.76.76,0,0,1,294,668h1.62a.39.39,0,0,0,.44-.44v-3.85c0-.57.3-.85.89-.85h3.41a.75.75,0,0,1,.85.85v3.85c0,.3.16.44.48.44h3.17a.76.76,0,0,1,.85.86v2.79a.83.83,0,0,1-.19.63.93.93,0,0,1-.66.18h-3.17q-.48,0-.48.45v9a2.44,2.44,0,0,0,.57,1.81,2.62,2.62,0,0,0,1.86.54h1.62a.75.75,0,0,1,.85.85v2.8a.88.88,0,0,1-.18.63.94.94,0,0,1-.67.18h-2.47a6.85,6.85,0,0,1-5-1.7,6.44,6.44,0,0,1-1.77-4.86v-9.2A.39.39,0,0,0,295.65,672.42Z"/><path class="cls-6" d="M313.8,688.63h-3.44a.76.76,0,0,1-.86-.85V661a.76.76,0,0,1,.86-.86h3.44a.76.76,0,0,1,.85.86v9.15h.16q.9-2.19,4-2.19h1.3q6.36,0,6.36,6.61v13.21c0,.57-.3.85-.89.85h-3.4a.75.75,0,0,1-.85-.85v-13a2.56,2.56,0,0,0-.55-1.84,2.53,2.53,0,0,0-1.84-.55h-1.46c-1.87,0-2.8,1-2.8,3.08v12.28A.75.75,0,0,1,313.8,688.63Z"/><path class="cls-6" d="M345.93,688.63H337a6.8,6.8,0,0,1-5-1.7,6.56,6.56,0,0,1-1.74-4.9v-7.46a6.54,6.54,0,0,1,1.74-4.9,6.77,6.77,0,0,1,5-1.71h3.2a6.76,6.76,0,0,1,4.94,1.71,6.54,6.54,0,0,1,1.74,4.9v5.15a.75.75,0,0,1-.85.85H335.84c-.32,0-.48.14-.48.44v.89a2.53,2.53,0,0,0,.54,1.81,2.59,2.59,0,0,0,1.85.54h8.18c.57,0,.85.3.85.9v2.67a.88.88,0,0,1-.18.63A.94.94,0,0,1,345.93,688.63Zm-10.09-11.51h5.51a.39.39,0,0,0,.45-.44v-1.95a2,2,0,0,0-2.35-2.35h-1.7a2,2,0,0,0-2.35,2.35v1.95A.39.39,0,0,0,335.84,677.12Z"/><path class="cls-6" d="M359.83,664.48V661a.72.72,0,0,1,.81-.82h3.53c.54,0,.81.26.81.77v3.57a.72.72,0,0,1-.81.81h-3.53A.72.72,0,0,1,359.83,664.48Zm0,23.3v-19c0-.57.27-.86.81-.86h3.48a.76.76,0,0,1,.86.86v19a.9.9,0,0,1-.19.69.92.92,0,0,1-.62.16h-3.49A.75.75,0,0,1,359.83,687.78Z"/><path class="cls-6" d="M370.08,672.42h-1.62a1,1,0,0,1-.67-.16.87.87,0,0,1-.18-.65v-2.79a.76.76,0,0,1,.85-.86h1.62c.3,0,.45-.14.45-.44v-3.85c0-.57.29-.85.89-.85h3.4a.75.75,0,0,1,.85.85v3.85c0,.3.16.44.49.44h3.16a.76.76,0,0,1,.85.86v2.79a.88.88,0,0,1-.18.63,1,1,0,0,1-.67.18h-3.16c-.33,0-.49.15-.49.45v9a2.44,2.44,0,0,0,.57,1.81,2.65,2.65,0,0,0,1.86.54h1.62a.76.76,0,0,1,.86.85v2.8a.88.88,0,0,1-.19.63.94.94,0,0,1-.67.18h-2.47a6.86,6.86,0,0,1-5-1.7,6.44,6.44,0,0,1-1.76-4.86v-9.2A.4.4,0,0,0,370.08,672.42Z"/><path class="cls-6" d="M399.17,688.63h-8.95a6.78,6.78,0,0,1-4.94-1.7,6.52,6.52,0,0,1-1.75-4.9v-7.46a6.51,6.51,0,0,1,1.75-4.9,6.74,6.74,0,0,1,4.94-1.71h3.2a6.76,6.76,0,0,1,4.94,1.71,6.55,6.55,0,0,1,1.75,4.9v5.15a.76.76,0,0,1-.86.85H389.08c-.32,0-.48.14-.48.44v.89a2.48,2.48,0,0,0,.55,1.81,2.54,2.54,0,0,0,1.84.54h8.18c.57,0,.86.3.86.9v2.67a.88.88,0,0,1-.19.63A.94.94,0,0,1,399.17,688.63Zm-10.09-11.51h5.52a.39.39,0,0,0,.44-.44v-1.95a2.49,2.49,0,0,0-.53-1.82,2.54,2.54,0,0,0-1.82-.53H391a2.52,2.52,0,0,0-1.82.53,2.49,2.49,0,0,0-.53,1.82v1.95A.39.39,0,0,0,389.08,677.12Z"/><path class="cls-6" d="M408.25,688.63h-3.44a.75.75,0,0,1-.85-.85v-19a.76.76,0,0,1,.85-.86h3.44a.76.76,0,0,1,.85.86v1.33h.16a3.7,3.7,0,0,1,1.64-1.58,5.7,5.7,0,0,1,2.66-.61h1.13a5.44,5.44,0,0,1,5.07,2.6,4.92,4.92,0,0,1,4.74-2.6h1.17a6.15,6.15,0,0,1,4.72,1.71,6.87,6.87,0,0,1,1.61,4.9v13.21a.76.76,0,0,1-.86.85H427.7a.75.75,0,0,1-.85-.85v-13a2.61,2.61,0,0,0-.53-1.84,2.45,2.45,0,0,0-1.82-.55h-1c-1.87,0-2.8,1-2.8,3.12v12.24c0,.57-.3.85-.89.85h-3.41a.75.75,0,0,1-.85-.85v-13a2,2,0,0,0-2.39-2.39H411.9c-1.87,0-2.8,1-2.8,3.08v12.28A.75.75,0,0,1,408.25,688.63Z"/><path class="cls-6" d="M445.65,672.42H444a1,1,0,0,1-.67-.16.87.87,0,0,1-.18-.65v-2.79A.76.76,0,0,1,444,668h1.62c.3,0,.45-.14.45-.44v-3.85c0-.57.29-.85.89-.85h3.4a.75.75,0,0,1,.85.85v3.85c0,.3.16.44.49.44h3.16a.76.76,0,0,1,.85.86v2.79a.88.88,0,0,1-.18.63,1,1,0,0,1-.67.18h-3.16c-.33,0-.49.15-.49.45v9a2.44,2.44,0,0,0,.57,1.81,2.65,2.65,0,0,0,1.86.54h1.62a.75.75,0,0,1,.85.85v2.8a.88.88,0,0,1-.18.63.94.94,0,0,1-.67.18h-2.47a6.86,6.86,0,0,1-5-1.7,6.44,6.44,0,0,1-1.76-4.86v-9.2A.4.4,0,0,0,445.65,672.42Z"/><path class="cls-6" d="M469.39,688.63h-3.6a6.82,6.82,0,0,1-5-1.7,6.56,6.56,0,0,1-1.74-4.9v-7.46a6.54,6.54,0,0,1,1.74-4.9,6.78,6.78,0,0,1,5-1.71h3.6a6.76,6.76,0,0,1,4.93,1.73,6.51,6.51,0,0,1,1.76,4.88V682a6.54,6.54,0,0,1-1.76,4.88A6.76,6.76,0,0,1,469.39,688.63Zm-2.83-4.42h2.06a2.64,2.64,0,0,0,1.85-.52,2.5,2.5,0,0,0,.55-1.83v-7.13a2.49,2.49,0,0,0-.55-1.82,2.64,2.64,0,0,0-1.85-.53h-2.06a2.52,2.52,0,0,0-1.82.53,2.49,2.49,0,0,0-.53,1.82v7.13a2,2,0,0,0,2.35,2.35Z"/><path class="cls-6" d="M489.49,672.42h-1.62a1,1,0,0,1-.67-.16.87.87,0,0,1-.18-.65v-2.79a.76.76,0,0,1,.85-.86h1.62c.3,0,.45-.14.45-.44v-3.85c0-.57.29-.85.89-.85h3.4a.75.75,0,0,1,.85.85v3.85c0,.3.17.44.49.44h3.16a.76.76,0,0,1,.85.86v2.79a.88.88,0,0,1-.18.63,1,1,0,0,1-.67.18h-3.16c-.32,0-.49.15-.49.45v9a2.44,2.44,0,0,0,.57,1.81,2.65,2.65,0,0,0,1.86.54h1.63a.76.76,0,0,1,.85.85v2.8a.83.83,0,0,1-.19.63.93.93,0,0,1-.66.18h-2.48a6.88,6.88,0,0,1-5-1.7,6.48,6.48,0,0,1-1.76-4.86v-9.2A.4.4,0,0,0,489.49,672.42Z"/><path class="cls-6" d="M507.64,688.63H504.2a.75.75,0,0,1-.85-.85V661a.76.76,0,0,1,.85-.86h3.44a.76.76,0,0,1,.86.86v9.15h.16c.59-1.46,1.92-2.19,4-2.19h1.3q6.36,0,6.36,6.61v13.21c0,.57-.3.85-.89.85H516a.75.75,0,0,1-.85-.85v-13a2,2,0,0,0-2.39-2.39h-1.46c-1.86,0-2.79,1-2.79,3.08v12.28A.76.76,0,0,1,507.64,688.63Z"/><path class="cls-6" d="M539.78,688.63h-9a6.79,6.79,0,0,1-4.94-1.7,6.56,6.56,0,0,1-1.74-4.9v-7.46a6.54,6.54,0,0,1,1.74-4.9,6.76,6.76,0,0,1,4.94-1.71H534a6.78,6.78,0,0,1,5,1.71,6.54,6.54,0,0,1,1.74,4.9v5.15a.76.76,0,0,1-.85.85H529.69c-.33,0-.49.14-.49.44v.89a2.48,2.48,0,0,0,.55,1.81,2.56,2.56,0,0,0,1.84.54h8.19c.56,0,.85.3.85.9v2.67a.88.88,0,0,1-.18.63A1,1,0,0,1,539.78,688.63Zm-10.09-11.51h5.51a.39.39,0,0,0,.44-.44v-1.95a2,2,0,0,0-2.35-2.35h-1.7a2,2,0,0,0-2.35,2.35v1.95A.39.39,0,0,0,529.69,677.12Z"/><path class="cls-6" d="M557.77,688.63h-3.45a.75.75,0,0,1-.85-.85v-19a.76.76,0,0,1,.85-.86h3.45a.76.76,0,0,1,.85.86v1.37h.16a3.15,3.15,0,0,1,1.58-1.66,5.26,5.26,0,0,1,2.39-.57h1.46c.54,0,.81.29.81.86v2.79a.94.94,0,0,1-.18.67.76.76,0,0,1-.63.14h-2.8c-1.86,0-2.79,1.06-2.79,3.16v12.2A.75.75,0,0,1,557.77,688.63Z"/><path class="cls-6" d="M567.82,664.48V661a.72.72,0,0,1,.81-.82h3.52c.54,0,.81.26.81.77v3.57a.72.72,0,0,1-.81.81h-3.52A.72.72,0,0,1,567.82,664.48Zm0,23.3v-19c0-.57.27-.86.81-.86h3.48a.76.76,0,0,1,.85.86v19a1,1,0,0,1-.18.69.94.94,0,0,1-.63.16h-3.48A.75.75,0,0,1,567.82,687.78Z"/><path class="cls-6" d="M584.92,687.7h-1.34a6.18,6.18,0,0,1-4.72-1.7,6.9,6.9,0,0,1-1.6-4.91v-6.52a6.54,6.54,0,0,1,1.74-4.9,6.76,6.76,0,0,1,4.94-1.71h9.36c.6,0,.89.29.89.86v20a6.41,6.41,0,0,1-1.76,4.86,6.75,6.75,0,0,1-4.92,1.71h-7.78a.89.89,0,0,1-.67-.19.87.87,0,0,1-.18-.62v-2.8a.75.75,0,0,1,.85-.85h6.93a2.51,2.51,0,0,0,1.84-.55,2.44,2.44,0,0,0,.55-1.8v-3.08h-.16a3.19,3.19,0,0,1-1.58,1.66A5.29,5.29,0,0,1,584.92,687.7Zm4.13-7.54v-7.29c0-.3-.16-.45-.49-.45h-3.81a2.45,2.45,0,0,0-1.82.55,2.61,2.61,0,0,0-.53,1.84v6a2,2,0,0,0,2.35,2.35h1.5C588.12,683.2,589.05,682.19,589.05,680.16Z"/><path class="cls-6" d="M603,688.63H599.5a.75.75,0,0,1-.85-.85V661a.76.76,0,0,1,.85-.86H603a.76.76,0,0,1,.85.86v9.15H604c.59-1.46,1.92-2.19,4-2.19h1.3q6.36,0,6.36,6.61v13.21c0,.57-.3.85-.89.85h-3.41a.75.75,0,0,1-.85-.85v-13a2,2,0,0,0-2.39-2.39h-1.46c-1.86,0-2.79,1-2.79,3.08v12.28A.75.75,0,0,1,603,688.63Z"/><path class="cls-6" d="M620.29,672.42h-1.62a1,1,0,0,1-.67-.16.87.87,0,0,1-.18-.65v-2.79a.76.76,0,0,1,.85-.86h1.62a.38.38,0,0,0,.44-.44v-3.85c0-.57.3-.85.9-.85H625a.75.75,0,0,1,.85.85v3.85c0,.3.16.44.49.44h3.16a.76.76,0,0,1,.85.86v2.79a.88.88,0,0,1-.18.63,1,1,0,0,1-.67.18h-3.16c-.33,0-.49.15-.49.45v9a2.44,2.44,0,0,0,.57,1.81,2.65,2.65,0,0,0,1.86.54h1.62a.75.75,0,0,1,.85.85v2.8a.88.88,0,0,1-.18.63.94.94,0,0,1-.67.18h-2.47a6.86,6.86,0,0,1-5-1.7,6.44,6.44,0,0,1-1.77-4.86v-9.2C620.73,672.57,620.59,672.42,620.29,672.42Z"/><path class="cls-6" d="M643.06,687.78V661a.76.76,0,0,1,.85-.86h3.45a.76.76,0,0,1,.85.86v9.11h.16a3.15,3.15,0,0,1,1.58-1.66,5.26,5.26,0,0,1,2.39-.57h1.3a6.79,6.79,0,0,1,4.94,1.7,6.57,6.57,0,0,1,1.74,4.91V682a6.56,6.56,0,0,1-1.74,4.9,6.79,6.79,0,0,1-4.94,1.7h-9.73A.75.75,0,0,1,643.06,687.78Zm5.59-3.61h4.14a2,2,0,0,0,2.39-2.39v-7a2.56,2.56,0,0,0-.55-1.84,2.53,2.53,0,0,0-1.84-.55H651c-1.86,0-2.79,1-2.79,3.08v8.31A.39.39,0,0,0,648.65,684.17Z"/><path class="cls-6" d="M664.58,664.48V661a.72.72,0,0,1,.81-.82h3.52c.54,0,.81.26.81.77v3.57a.72.72,0,0,1-.81.81h-3.52A.72.72,0,0,1,664.58,664.48Zm0,23.3v-19c0-.57.27-.86.81-.86h3.48a.76.76,0,0,1,.85.86v19a1,1,0,0,1-.18.69.94.94,0,0,1-.63.16h-3.48A.75.75,0,0,1,664.58,687.78Z"/><path class="cls-6" d="M678.68,688.63h-3.45a.75.75,0,0,1-.85-.85v-19a.76.76,0,0,1,.85-.86h3.45a.76.76,0,0,1,.85.86v1.33h.16c.59-1.46,1.92-2.19,4-2.19H685q6.36,0,6.36,6.61v13.21c0,.57-.3.85-.89.85H687a.75.75,0,0,1-.85-.85v-13a2,2,0,0,0-2.39-2.39h-1.46c-1.86,0-2.79,1-2.79,3.08v12.28A.75.75,0,0,1,678.68,688.63Z"/><path class="cls-6" d="M700.07,682.79v5c0,.57-.26.85-.77.85h-3.61c-.54,0-.81-.28-.81-.85v-4.94a.72.72,0,0,1,.81-.81h3.61A.68.68,0,0,1,700.07,682.79Z"/><path class="cls-6" d="M96.58,737.25H93.17c-.59,0-.89-.28-.89-.85V716.1a.39.39,0,0,0-.45-.44H87.21a.76.76,0,0,1-.85-.85v-2.76a.75.75,0,0,1,.85-.85h15.32a.75.75,0,0,1,.85.85v2.76a.75.75,0,0,1-.85.85H97.91c-.32,0-.48.15-.48.44v20.3A.75.75,0,0,1,96.58,737.25Z"/><path class="cls-6" d="M110.35,737.25h-3.44a.75.75,0,0,1-.85-.85V709.62a.75.75,0,0,1,.85-.85h3.44a.75.75,0,0,1,.85.85v9.16h.17q.88-2.19,4-2.19h1.29q6.36,0,6.36,6.6V736.4c0,.57-.29.85-.89.85h-3.4a.75.75,0,0,1-.85-.85v-13a2,2,0,0,0-2.39-2.39H114c-1.87,0-2.8,1-2.8,3.07V736.4A.75.75,0,0,1,110.35,737.25Z"/><path class="cls-6" d="M142.48,737.25h-8.95a6.78,6.78,0,0,1-4.95-1.7,6.54,6.54,0,0,1-1.74-4.9v-7.46a6.54,6.54,0,0,1,1.74-4.9,6.82,6.82,0,0,1,4.95-1.7h3.2a6.79,6.79,0,0,1,4.94,1.7,6.55,6.55,0,0,1,1.75,4.9v5.15a.76.76,0,0,1-.86.85H132.39q-.48,0-.48.45v.89a2.44,2.44,0,0,0,.55,1.8,2.5,2.5,0,0,0,1.84.55h8.18c.57,0,.85.3.85.89v2.67a.88.88,0,0,1-.18.63A.94.94,0,0,1,142.48,737.25Zm-10.09-11.5h5.52a.39.39,0,0,0,.44-.45v-1.94A2,2,0,0,0,136,721h-1.7a2,2,0,0,0-2.35,2.36v1.94A.39.39,0,0,0,132.39,725.75Z"/><path class="cls-6" d="M156.38,713.1v-3.52a.72.72,0,0,1,.81-.81h3.53c.54,0,.81.26.81.77v3.56a.72.72,0,0,1-.81.81h-3.53A.72.72,0,0,1,156.38,713.1Zm0,23.3v-19c0-.57.27-.85.81-.85h3.49a.75.75,0,0,1,.85.85v19a.9.9,0,0,1-.19.69.92.92,0,0,1-.62.16h-3.49A.75.75,0,0,1,156.38,736.4Z"/><path class="cls-6" d="M179.36,733.65v2.79a.88.88,0,0,1-.19.63.94.94,0,0,1-.67.18h-6a6.76,6.76,0,0,1-4.95-1.7,6.54,6.54,0,0,1-1.74-4.9v-7.46a6.54,6.54,0,0,1,1.74-4.9,6.8,6.8,0,0,1,4.95-1.7h6a.76.76,0,0,1,.86.85v2.8a.87.87,0,0,1-.19.62.89.89,0,0,1-.67.19h-5.22a2.53,2.53,0,0,0-1.81.54,2.59,2.59,0,0,0-.54,1.85v7a2.58,2.58,0,0,0,.54,1.84,2.53,2.53,0,0,0,1.81.55h5.22A.76.76,0,0,1,179.36,733.65Z"/><path class="cls-6" d="M192.73,737.25h-3.61a6.75,6.75,0,0,1-4.94-1.7,6.55,6.55,0,0,1-1.75-4.9v-7.46a6.55,6.55,0,0,1,1.75-4.9,6.79,6.79,0,0,1,4.94-1.7h3.61a6.75,6.75,0,0,1,4.92,1.72,6.5,6.5,0,0,1,1.76,4.88v7.46a6.49,6.49,0,0,1-1.76,4.88A6.75,6.75,0,0,1,192.73,737.25Zm-2.84-4.41H192a2.61,2.61,0,0,0,1.84-.53,2.45,2.45,0,0,0,.55-1.82v-7.13a2.46,2.46,0,0,0-.55-1.83A2.61,2.61,0,0,0,192,721h-2.07a2,2,0,0,0-2.35,2.36v7.13a2,2,0,0,0,2.35,2.35Z"/><path class="cls-6" d="M207.76,737.25h-3.45a.75.75,0,0,1-.85-.85v-19a.75.75,0,0,1,.85-.85h3.45a.75.75,0,0,1,.85.85v1.34h.16q.9-2.19,4-2.19H214q6.36,0,6.36,6.6V736.4c0,.57-.3.85-.89.85h-3.4a.76.76,0,0,1-.86-.85v-13a2,2,0,0,0-2.39-2.39h-1.45c-1.87,0-2.8,1-2.8,3.07V736.4A.75.75,0,0,1,207.76,737.25Z"/><path class="cls-6" d="M241.84,737.25h-4.62a1,1,0,0,1-1-.85l-4.05-19c-.11-.57.1-.85.61-.85h3.89a.85.85,0,0,1,1,.85l1.83,13.86h.32l2.88-13.86a.86.86,0,0,1,.93-.85h3.56a.94.94,0,0,1,1,.85L251,731.3h.33l1.86-13.86a.88.88,0,0,1,1-.85H258c.54,0,.75.28.61.85l-4,19a.91.91,0,0,1-1,.85H249a.91.91,0,0,1-1-.85l-2.48-13.69h-.32l-2.43,13.69A.88.88,0,0,1,241.84,737.25Z"/><path class="cls-6" d="M262,713.1v-3.52a.72.72,0,0,1,.81-.81h3.53c.54,0,.81.26.81.77v3.56a.72.72,0,0,1-.81.81h-3.53A.72.72,0,0,1,262,713.1Zm0,23.3v-19c0-.57.27-.85.81-.85h3.49a.75.75,0,0,1,.85.85v19a1,1,0,0,1-.18.69.94.94,0,0,1-.63.16h-3.48A.76.76,0,0,1,262,736.4Z"/><path class="cls-6" d="M276.28,737.25h-3.45a.75.75,0,0,1-.85-.85V709.62a.75.75,0,0,1,.85-.85h3.45a.75.75,0,0,1,.85.85V736.4A.75.75,0,0,1,276.28,737.25Z"/><path class="cls-6" d="M286.29,737.25h-3.45a.75.75,0,0,1-.85-.85V709.62a.75.75,0,0,1,.85-.85h3.45a.75.75,0,0,1,.85.85V736.4A.75.75,0,0,1,286.29,737.25Z"/><path class="cls-6" d="M308.53,737.25h-7.7c-.54,0-.81-.28-.81-.85v-2.59a.94.94,0,0,1,.16-.63.89.89,0,0,1,.65-.18h6.77c1.32,0,2-.41,2-1.22v-.2c0-.65-.55-1.27-1.66-1.86l-4-2.23a9.15,9.15,0,0,1-3-2.27,4.83,4.83,0,0,1-1-3.12,5.31,5.31,0,0,1,1.5-4.17,6.87,6.87,0,0,1,4.7-1.34h6.77c.54,0,.81.28.81.85v2.63a.93.93,0,0,1-.17.63.84.84,0,0,1-.64.18h-5.64q-2,0-2,1v.2c0,.59.58,1.2,1.74,1.82l4.09,2.43a8.67,8.67,0,0,1,3,2.33,5.3,5.3,0,0,1,.85,3.14Q314.89,737.25,308.53,737.25Z"/><path class="cls-6" d="M322.75,737.25h-3.44a.75.75,0,0,1-.85-.85v-19a.75.75,0,0,1,.85-.85h3.44a.75.75,0,0,1,.85.85v1.34h.16a3.67,3.67,0,0,1,1.65-1.58,5.51,5.51,0,0,1,2.65-.61h1.13a5.44,5.44,0,0,1,5.07,2.59,4.92,4.92,0,0,1,4.74-2.59h1.17a6.22,6.22,0,0,1,4.73,1.7,6.92,6.92,0,0,1,1.6,4.9V736.4a.75.75,0,0,1-.85.85H342.2a.75.75,0,0,1-.85-.85v-13a2.64,2.64,0,0,0-.53-1.85,2.49,2.49,0,0,0-1.82-.54h-1c-1.87,0-2.8,1-2.8,3.12V736.4c0,.57-.3.85-.89.85h-3.4a.76.76,0,0,1-.86-.85v-13a2,2,0,0,0-2.39-2.39H326.4c-1.87,0-2.8,1-2.8,3.07V736.4A.75.75,0,0,1,322.75,737.25Z"/><path class="cls-6" d="M351,713.1v-3.52a.72.72,0,0,1,.81-.81h3.53c.54,0,.81.26.81.77v3.56a.72.72,0,0,1-.81.81H351.8A.72.72,0,0,1,351,713.1Zm0,23.3v-19c0-.57.27-.85.81-.85h3.49a.75.75,0,0,1,.85.85v19a1,1,0,0,1-.18.69.94.94,0,0,1-.63.16h-3.49A.75.75,0,0,1,351,736.4Z"/><path class="cls-6" d="M365.3,737.25h-3.45a.75.75,0,0,1-.85-.85V709.62a.75.75,0,0,1,.85-.85h3.45a.75.75,0,0,1,.85.85V736.4A.75.75,0,0,1,365.3,737.25Z"/><path class="cls-6" d="M386,737.25h-9a6.76,6.76,0,0,1-4.95-1.7,6.54,6.54,0,0,1-1.74-4.9v-7.46a6.54,6.54,0,0,1,1.74-4.9,6.8,6.8,0,0,1,4.95-1.7h3.2a6.79,6.79,0,0,1,4.94,1.7,6.54,6.54,0,0,1,1.74,4.9v5.15a.75.75,0,0,1-.85.85H376q-.48,0-.48.45v.89a2.48,2.48,0,0,0,.54,1.8,2.54,2.54,0,0,0,1.85.55H386c.57,0,.85.3.85.89v2.67a.88.88,0,0,1-.18.63A.94.94,0,0,1,386,737.25ZM376,725.75h5.51a.4.4,0,0,0,.45-.45v-1.94a2,2,0,0,0-2.35-2.36h-1.7a2,2,0,0,0-2.35,2.36v1.94A.39.39,0,0,0,376,725.75Z"/><path class="cls-6" d="M399.94,713.1v-3.52a.72.72,0,0,1,.81-.81h3.53c.54,0,.81.26.81.77v3.56a.72.72,0,0,1-.81.81h-3.53A.72.72,0,0,1,399.94,713.1Zm0,23.3v-19c0-.57.27-.85.81-.85h3.49a.75.75,0,0,1,.85.85v19a.9.9,0,0,1-.19.69.92.92,0,0,1-.62.16h-3.49A.75.75,0,0,1,399.94,736.4Z"/><path class="cls-6" d="M417.24,716.59h3.24a.94.94,0,0,1,.67.18.88.88,0,0,1,.18.63v2.8a.75.75,0,0,1-.85.85h-3.24a.38.38,0,0,0-.44.44V736.4c0,.57-.3.85-.9.85h-3.4a.75.75,0,0,1-.85-.85V721.49c0-.3-.16-.44-.49-.44H409.3a.75.75,0,0,1-.85-.85v-2.8a.89.89,0,0,1,.18-.65,1,1,0,0,1,.67-.16h1.86c.33,0,.49-.15.49-.45v-.77a6.68,6.68,0,0,1,1.68-4.9,6.58,6.58,0,0,1,4.88-1.7h2.31a.87.87,0,0,1,.65.18.94.94,0,0,1,.16.63v2.8c0,.56-.27.85-.81.85H419a2.27,2.27,0,0,0-1.76.54,2.88,2.88,0,0,0-.46,1.85v.52C416.8,716.44,416.94,716.59,417.24,716.59Z"/><path class="cls-6" d="M436.37,744.1h-2.6c-.54,0-.81-.3-.81-.89V740.5q0-.9.81-.9h.85a5.93,5.93,0,0,0,3.47-.71,4.83,4.83,0,0,0,1.4-2.73h-2.15a1,1,0,0,1-1-.85l-4.75-17.87c-.16-.57,0-.85.61-.85h3.61a1,1,0,0,1,1,.85l3.49,14.95h.16l3.44-14.95a.94.94,0,0,1,1-.85h3.4c.67,0,.94.3.81.89l-4.94,19.77a10.53,10.53,0,0,1-2.76,5.11A7.12,7.12,0,0,1,436.37,744.1Z"/><path class="cls-6" d="M462,737.25h-3.6a6.78,6.78,0,0,1-4.95-1.7,6.54,6.54,0,0,1-1.74-4.9v-7.46a6.54,6.54,0,0,1,1.74-4.9,6.82,6.82,0,0,1,4.95-1.7H462a6.76,6.76,0,0,1,4.93,1.72,6.54,6.54,0,0,1,1.76,4.88v7.46a6.53,6.53,0,0,1-1.76,4.88A6.76,6.76,0,0,1,462,737.25Zm-2.83-4.41h2.07a2.63,2.63,0,0,0,1.84-.53,2.49,2.49,0,0,0,.55-1.82v-7.13a2.5,2.5,0,0,0-.55-1.83,2.63,2.63,0,0,0-1.84-.53h-2.07a2,2,0,0,0-2.35,2.36v7.13a2.49,2.49,0,0,0,.53,1.82A2.52,2.52,0,0,0,459.14,732.84Z"/><path class="cls-6" d="M480.17,737.25h-1.34a6.16,6.16,0,0,1-4.72-1.7,6.87,6.87,0,0,1-1.6-4.9V717.44a.75.75,0,0,1,.85-.85h3.44a.76.76,0,0,1,.86.85v13a2.58,2.58,0,0,0,.54,1.84,2.53,2.53,0,0,0,1.81.55h1.49c1.87,0,2.8-1,2.8-3.08V717.44a.75.75,0,0,1,.85-.85h3.41c.59,0,.89.28.89.85v19c0,.57-.3.85-.89.85h-3.41a.75.75,0,0,1-.85-.85v-1.33h-.16a3.15,3.15,0,0,1-1.58,1.64A5.53,5.53,0,0,1,480.17,737.25Z"/><path class="cls-6" d="M507.11,742.76h-3.44c-.57,0-.85-.27-.85-.81V717.44a.75.75,0,0,1,.85-.85h3.44a.75.75,0,0,1,.85.85v1.34h.17a3,3,0,0,1,1.58-1.64,5.34,5.34,0,0,1,2.39-.55h1.66a6.19,6.19,0,0,1,4.72,1.7,6.92,6.92,0,0,1,1.6,4.9v7.46a6.92,6.92,0,0,1-1.6,4.9,6.16,6.16,0,0,1-4.72,1.7H512.1a5.46,5.46,0,0,1-2.39-.54,3.08,3.08,0,0,1-1.58-1.64H508V742C508,742.49,507.68,742.76,507.11,742.76Zm3.65-10h1.78a2,2,0,0,0,2.39-2.39v-7a2,2,0,0,0-2.39-2.39h-1.78c-1.86,0-2.8,1-2.8,3.07v5.6C508,731.77,508.9,732.8,510.76,732.8Z"/><path class="cls-6" d="M531.59,737.25h-1.34a6.14,6.14,0,0,1-4.72-1.7,6.87,6.87,0,0,1-1.6-4.9V717.44a.75.75,0,0,1,.85-.85h3.44a.75.75,0,0,1,.85.85v13a2.58,2.58,0,0,0,.55,1.84,2.52,2.52,0,0,0,1.8.55h1.5c1.87,0,2.8-1,2.8-3.08V717.44a.75.75,0,0,1,.85-.85H540c.6,0,.9.28.9.85v19c0,.57-.3.85-.9.85h-3.4a.75.75,0,0,1-.85-.85v-1.33h-.16a3.15,3.15,0,0,1-1.58,1.64A5.53,5.53,0,0,1,531.59,737.25Z"/><path class="cls-6" d="M545.77,721.05h-1.62a1,1,0,0,1-.67-.17.84.84,0,0,1-.19-.64v-2.8a.76.76,0,0,1,.86-.85h1.62a.39.39,0,0,0,.44-.45v-3.85c0-.56.3-.85.89-.85h3.41a.75.75,0,0,1,.85.85v3.85q0,.45.48.45H555a.75.75,0,0,1,.85.85v2.8a.82.82,0,0,1-.19.62.88.88,0,0,1-.66.19h-3.17c-.32,0-.48.14-.48.44v9a2.43,2.43,0,0,0,.57,1.8,2.62,2.62,0,0,0,1.86.55h1.62a.75.75,0,0,1,.85.85v2.79a.88.88,0,0,1-.18.63.94.94,0,0,1-.67.18h-2.47a6.8,6.8,0,0,1-5-1.7,6.41,6.41,0,0,1-1.77-4.86v-9.2A.39.39,0,0,0,545.77,721.05Z"/><path class="cls-6" d="M568.74,713.1v-3.52a.72.72,0,0,1,.81-.81h3.53c.54,0,.81.26.81.77v3.56a.72.72,0,0,1-.81.81h-3.53A.72.72,0,0,1,568.74,713.1Zm0,23.3v-19c0-.57.27-.85.81-.85H573a.75.75,0,0,1,.85.85v19a1,1,0,0,1-.18.69,1,1,0,0,1-.63.16h-3.49A.75.75,0,0,1,568.74,736.4Z"/><path class="cls-6" d="M582.84,737.25H579.4a.75.75,0,0,1-.85-.85v-19a.75.75,0,0,1,.85-.85h3.44a.75.75,0,0,1,.85.85v1.34h.17q.89-2.19,4-2.19h1.29q6.36,0,6.36,6.6V736.4c0,.57-.29.85-.89.85h-3.4a.75.75,0,0,1-.85-.85v-13a2,2,0,0,0-2.39-2.39h-1.46c-1.87,0-2.8,1-2.8,3.07V736.4A.75.75,0,0,1,582.84,737.25Z"/><path class="cls-6" d="M609.1,721.05h-1.62a1,1,0,0,1-.67-.17.84.84,0,0,1-.18-.64v-2.8a.75.75,0,0,1,.85-.85h1.62c.3,0,.44-.15.44-.45v-3.85c0-.56.3-.85.9-.85h3.4a.75.75,0,0,1,.85.85v3.85c0,.3.16.45.49.45h3.16a.75.75,0,0,1,.85.85v2.8a.82.82,0,0,1-.19.62.88.88,0,0,1-.66.19h-3.16c-.33,0-.49.14-.49.44v9a2.43,2.43,0,0,0,.57,1.8,2.63,2.63,0,0,0,1.86.55h1.62a.75.75,0,0,1,.85.85v2.79a.88.88,0,0,1-.18.63.94.94,0,0,1-.67.18h-2.47a6.82,6.82,0,0,1-5-1.7,6.41,6.41,0,0,1-1.77-4.86v-9.2A.38.38,0,0,0,609.1,721.05Z"/><path class="cls-6" d="M627.25,737.25h-3.44a.75.75,0,0,1-.85-.85V709.62a.75.75,0,0,1,.85-.85h3.44a.75.75,0,0,1,.85.85v9.16h.16c.6-1.46,1.92-2.19,4-2.19h1.29q6.36,0,6.36,6.6V736.4c0,.57-.29.85-.89.85h-3.4a.75.75,0,0,1-.85-.85v-13a2,2,0,0,0-2.39-2.39H630.9c-1.87,0-2.8,1-2.8,3.07V736.4A.75.75,0,0,1,627.25,737.25Z"/><path class="cls-6" d="M659.38,737.25h-9a6.78,6.78,0,0,1-4.95-1.7,6.54,6.54,0,0,1-1.74-4.9v-7.46a6.54,6.54,0,0,1,1.74-4.9,6.82,6.82,0,0,1,4.95-1.7h3.2a6.79,6.79,0,0,1,4.94,1.7,6.55,6.55,0,0,1,1.75,4.9v5.15a.76.76,0,0,1-.86.85H649.29q-.48,0-.48.45v.89a2.48,2.48,0,0,0,.54,1.8,2.54,2.54,0,0,0,1.85.55h8.18c.57,0,.85.3.85.89v2.67a.88.88,0,0,1-.18.63A.94.94,0,0,1,659.38,737.25Zm-10.09-11.5h5.51a.4.4,0,0,0,.45-.45v-1.94A2,2,0,0,0,652.9,721h-1.7a2,2,0,0,0-2.35,2.36v1.94A.39.39,0,0,0,649.29,725.75Z"/><path class="cls-6" d="M677.37,737.25h-3.44a.75.75,0,0,1-.85-.85v-19a.75.75,0,0,1,.85-.85h3.44a.75.75,0,0,1,.85.85v1.38h.17a3.08,3.08,0,0,1,1.58-1.66,5.23,5.23,0,0,1,2.39-.57h1.46c.54,0,.81.28.81.85v2.8a.88.88,0,0,1-.19.66.75.75,0,0,1-.62.15H681c-1.86,0-2.8,1.05-2.8,3.16V736.4A.75.75,0,0,1,677.37,737.25Z"/><path class="cls-6" d="M687.42,713.1v-3.52a.72.72,0,0,1,.81-.81h3.53c.54,0,.81.26.81.77v3.56a.72.72,0,0,1-.81.81h-3.53A.72.72,0,0,1,687.42,713.1Zm0,23.3v-19c0-.57.27-.85.81-.85h3.49a.75.75,0,0,1,.85.85v19a1,1,0,0,1-.18.69,1,1,0,0,1-.63.16h-3.49A.75.75,0,0,1,687.42,736.4Z"/><path class="cls-6" d="M704.52,736.32h-1.34a6.19,6.19,0,0,1-4.72-1.7,6.92,6.92,0,0,1-1.6-4.9v-6.53a6.51,6.51,0,0,1,1.75-4.9,6.78,6.78,0,0,1,4.94-1.7h9.36c.59,0,.89.28.89.85v20a6.48,6.48,0,0,1-1.76,4.86,6.83,6.83,0,0,1-4.93,1.7h-7.78a.93.93,0,0,1-.66-.18.83.83,0,0,1-.19-.63v-2.8a.76.76,0,0,1,.85-.85h6.93a2.59,2.59,0,0,0,1.85-.54,2.53,2.53,0,0,0,.54-1.81v-3.08h-.16a3.12,3.12,0,0,1-1.58,1.66A5.23,5.23,0,0,1,704.52,736.32Zm4.13-7.53v-7.3c0-.3-.16-.44-.48-.44h-3.81a2.47,2.47,0,0,0-1.82.54,2.59,2.59,0,0,0-.53,1.85v6a2,2,0,0,0,2.35,2.35h1.5Q708.65,731.82,708.65,728.79Z"/><path class="cls-6" d="M722.55,737.25h-3.44a.75.75,0,0,1-.85-.85V709.62a.75.75,0,0,1,.85-.85h3.44a.75.75,0,0,1,.85.85v9.16h.17q.88-2.19,4-2.19h1.29q6.36,0,6.37,6.6V736.4c0,.57-.3.85-.9.85h-3.4a.75.75,0,0,1-.85-.85v-13a2,2,0,0,0-2.39-2.39H726.2c-1.86,0-2.8,1-2.8,3.07V736.4A.75.75,0,0,1,722.55,737.25Z"/><path class="cls-6" d="M739.9,721.05h-1.63a1,1,0,0,1-.66-.17.8.8,0,0,1-.19-.64v-2.8a.75.75,0,0,1,.85-.85h1.63a.39.39,0,0,0,.44-.45v-3.85c0-.56.3-.85.89-.85h3.41a.76.76,0,0,1,.85.85v3.85q0,.45.48.45h3.16a.75.75,0,0,1,.85.85v2.8a.87.87,0,0,1-.18.62.89.89,0,0,1-.67.19H746c-.32,0-.48.14-.48.44v9a2.47,2.47,0,0,0,.56,1.8,2.66,2.66,0,0,0,1.87.55h1.62a.75.75,0,0,1,.85.85v2.79a.88.88,0,0,1-.18.63,1,1,0,0,1-.67.18h-2.47a6.84,6.84,0,0,1-5-1.7,6.45,6.45,0,0,1-1.76-4.86v-9.2A.39.39,0,0,0,739.9,721.05Z"/><path class="cls-6" d="M762.67,736.4V709.62a.75.75,0,0,1,.85-.85H767a.75.75,0,0,1,.85.85v9.12H768a3.08,3.08,0,0,1,1.58-1.66,5.23,5.23,0,0,1,2.39-.57h1.29a6.82,6.82,0,0,1,5,1.7,6.54,6.54,0,0,1,1.74,4.9v7.54a6.54,6.54,0,0,1-1.74,4.9,6.78,6.78,0,0,1-5,1.7h-9.72A.75.75,0,0,1,762.67,736.4Zm5.59-3.6h4.13a2,2,0,0,0,2.39-2.39v-7a2,2,0,0,0-2.39-2.4h-1.78c-1.86,0-2.8,1-2.8,3.08v8.31A.4.4,0,0,0,768.26,732.8Z"/><path class="cls-6" d="M784.18,713.1v-3.52a.72.72,0,0,1,.81-.81h3.53c.54,0,.81.26.81.77v3.56a.72.72,0,0,1-.81.81H785A.72.72,0,0,1,784.18,713.1Zm0,23.3v-19c0-.57.27-.85.81-.85h3.49a.75.75,0,0,1,.85.85v19a1,1,0,0,1-.18.69,1,1,0,0,1-.63.16H785A.75.75,0,0,1,784.18,736.4Z"/><path class="cls-6" d="M798.28,737.25h-3.44a.75.75,0,0,1-.85-.85v-19a.75.75,0,0,1,.85-.85h3.44a.75.75,0,0,1,.85.85v1.34h.17q.88-2.19,4-2.19h1.29q6.36,0,6.36,6.6V736.4c0,.57-.29.85-.89.85h-3.4a.75.75,0,0,1-.85-.85v-13a2,2,0,0,0-2.39-2.39h-1.46c-1.86,0-2.8,1-2.8,3.07V736.4A.75.75,0,0,1,798.28,737.25Z"/><path class="cls-6" d="M819.68,731.42v5c0,.57-.26.85-.77.85H815.3c-.54,0-.81-.28-.81-.85v-4.94a.72.72,0,0,1,.81-.81h3.61A.68.68,0,0,1,819.68,731.42Z"/><g id="container"><g id="plastic_container_with_symbol" data-name="plastic container with symbol"><path class="cls-8" d="M669.06,247l-43.27-20.49a16.55,16.55,0,0,0-12-.48l-75.07,23.72a7.05,7.05,0,0,0-3.86,3.3c-.46,1.08-.75,3.21.83,4.29,0,0,41.83,31.31,47.49,31,3.3-.17,2-.51,6.19-1.87l77-31.32C669.91,253.31,673.16,250.85,669.06,247Z"/><path class="cls-8" d="M598.9,328.84a15.1,15.1,0,0,1-8.33-2.14l-41.65-28.5c-2.59-1.77-3.28-5.23-1.75-8.81a10.59,10.59,0,0,1,6-5.27l.09,0L625.63,256a20.54,20.54,0,0,1,7.09-1.21,15.38,15.38,0,0,1,8,1.94L681,278.22l.45.42c3,2.78,3.13,5.45,2.76,7.2-.63,2.94-3.27,5.44-7.44,7.05l-70.47,34.64-.18.06a20.57,20.57,0,0,1-7.19,1.25Z"/><path class="cls-9" d="M677,281.46l-38.83-20.84c-2.53-1.72-7.75-1.93-11.64-.47l-70.2,27.38a6.76,6.76,0,0,0-3.75,3.2c-.45,1-1.08,3.41.46,4.46l40.41,27.65c2.54,1.72,7.76,1.93,11.65.47l69.7-34.18C678.55,286.63,681,285.2,677,281.46Z"/><path class="cls-10" d="M668,246.53l-41.92-20.05c-2.61-1.77-8-2-12-.48l-74.88,23.57c-2,.76-3.29,1.8-3.75,2.87s-.09,2.18,1.22,3.07L577,283.11c2.62,1.77,8,2,12,.48l76.47-31.13C669.46,251,670.59,248.3,668,246.53Z"/><path class="cls-11" d="M537.91,259.4s7.6,18.86,7.6,18.91,27.41,24.74,37.88,25.33S655,273.35,657,272c1.84-1.22,7-13.42,8.18-16a.21.21,0,0,0-.28-.27c-6.73,2.84-76.33,32.15-81.48,32.67C577.09,289,537.91,259.4,537.91,259.4Z"/><path class="cls-10" d="M562.48,273.19S615.59,252.8,618,252.63s20.23,10.92,20.23,10.92"/><path class="cls-10" d="M617.37,252.63s1.82-12.52,1.38-15,2,12.1.66,15Z"/><path class="cls-10" d="M544,260.57s69.63-23.44,74.81-23.56,41.58,17.49,41.58,17.49"/><path class="cls-10" d="M538.42,254c.62-2.54,73.84-27.41,81.39-26.84s44,19.82,44,22-10.39,8.18-10.39,8.18"/><line class="cls-10" x1="601.68" y1="229.9" x2="601.68" y2="231.8"/><line class="cls-10" x1="545.61" y1="247.58" x2="545.61" y2="249.5"/></g><g id="symbol" class="cls-12"><path class="cls-13" d="M620.94,275.88l-5.64-1.24,0,1.65c-13.56,1.28-24.36,7.22-24.54,13.74l6.09-.34c.14-4.92,8.19-9.43,18.36-10.52l0,1.67,5.73-1.87,5.74-1.86Z"/><path class="cls-13" d="M591.49,295.46l-.09,3.1,3-1c7.6,4.83,22.7,5.65,34.78,1.73l-3-2.32c-9.12,3-20.53,2.4-26.46-1.15l3.08-1-5.65-1.23-5.64-1.23Z"/><path class="cls-13" d="M640.42,295l5.74-1.87-3-.65c6-6.12,1.65-12.88-10.23-15.47l-3.12,2.65c9,2,12.33,7,8.09,11.67l-3-.66-.09,3.09-.09,3.1Z"/></g></g><path class="cls-14" d="M248,633a2.48,2.48,0,0,1-2.25-2L226.13,473.29c0-.09,0-.31.28-.68a6.05,6.05,0,0,1,4.42-1.48H350.75a6,6,0,0,1,4.39,1.47c.32.36.29.58.28.67L334.88,631a2.52,2.52,0,0,1-2.28,2Z"/><path class="cls-14" d="M248,633a2.48,2.48,0,0,1-2.25-2L226.13,473.29c0-.09,0-.31.28-.68a6.05,6.05,0,0,1,4.42-1.48H350.75a6,6,0,0,1,4.39,1.47c.32.36.29.58.28.67L334.88,631a2.52,2.52,0,0,1-2.28,2Z"/><path class="cls-15" d="M350.75,467.48H230.83c-5,0-8.76,2.82-8.33,6.26l19.64,157.71a6.1,6.1,0,0,0,5.87,5.22H332.6a6.16,6.16,0,0,0,5.91-5.22L359,473.74C359.49,470.3,355.76,467.48,350.75,467.48Zm4.67,5.79L334.88,631a2.52,2.52,0,0,1-2.28,2H248a2.48,2.48,0,0,1-2.25-2L226.13,473.29c0-.09,0-.31.28-.68a6.05,6.05,0,0,1,4.42-1.48H350.75a6,6,0,0,1,4.39,1.47C355.46,473,355.43,473.18,355.42,473.27Z"/><path class="cls-16" d="M290.77,471.13h60a6,6,0,0,1,4.39,1.47c.32.36.29.58.28.67L334.88,631a2.52,2.52,0,0,1-2.28,2h-41Z"/><path class="cls-17" d="M291.65,633H248a2.48,2.48,0,0,1-2.25-2L226.13,473.29c0-.09,0-.31.28-.68a6.05,6.05,0,0,1,4.42-1.48h59.94"/><path class="cls-17" d="M350.75,467.48H230.83c-5,0-8.76,2.82-8.33,6.26l19.64,157.71a6.1,6.1,0,0,0,5.87,5.22H332.6a6.16,6.16,0,0,0,5.91-5.22L359,473.74C359.49,470.3,355.76,467.48,350.75,467.48Zm4.67,5.79L334.88,631a2.52,2.52,0,0,1-2.28,2H248a2.48,2.48,0,0,1-2.25-2L226.13,473.29c0-.09,0-.31.28-.68a6.05,6.05,0,0,1,4.42-1.48H350.75a6,6,0,0,1,4.39,1.47C355.46,473,355.43,473.18,355.42,473.27Z"/><path id="shade-3" data-name="shade" class="cls-18" d="M350.75,467.48H230.83c-5,0-8.76,2.82-8.33,6.26l.91,6.79s109.74-2.52,130.72,2.61a15.7,15.7,0,0,1,3.53,1.21L359,473.74C359.49,470.3,355.76,467.48,350.75,467.48Z"/><path class="cls-16" d="M365.13,473.22H216.64c-4.19,0-6.21-2.82-4.48-6.26l22.26-44.39c1.73-3.45,5.3-6.27,8-6.27H336c2.65,0,6.39,2.82,8.32,6.27L369.23,467C371.17,470.4,369.32,473.22,365.13,473.22Z"/><path class="cls-19" d="M218.71,471.13l145.69-1.56c4.19,0,6.11-.21,4.18-3.66l-3.2-5.83c-4.63-8.27-.28,1.47-2,5.83-1.05,2.61-140.1,5-143.09.52-2.08-3.13,14.1-32.37,18.8-44.91,2.26-6,7.84-4.7,12.08-5.22h-8.78c-2.65,0-4.18,2.82-5.91,6.27l-20.89,44.91C213.85,470.92,214.52,471.13,218.71,471.13Z"/><path class="cls-18" d="M335.16,412.12c.75,1.28,8.35,10.45,12,24s9.63,26.27,5.22,27.15c-5.22,1-114.88,4.18-121.67-1.57-6-5,9.4-48.56,14.1-53.26S326.8,398,335.16,412.12Z"/><path class="cls-14" d="M332.74,393l16.77,62.33a3.19,3.19,0,0,1-.52,2.85,6.3,6.3,0,0,1-5,2h-106a6.7,6.7,0,0,1-5.23-2.05,3.31,3.31,0,0,1-.69-2.86l13.32-62.33c1.09-5.13,4-9.53,5.66-9.53h74.68"/><path class="cls-17" d="M237.9,460.17a6.7,6.7,0,0,1-5.23-2.05,3.31,3.31,0,0,1-.69-2.86l13.32-62.33c1.09-5.13,4-9.53,5.66-9.53h74.68c-.83-.83,5.65,5.61,7.1,9.61l16.77,62.33a3.19,3.19,0,0,1-.52,2.85,6.3,6.3,0,0,1-5,2Z"/><path class="cls-16" d="M332.74,393c-2.8-7.52-44.06-4.38-44.06-4.38,16.36,16.18,9.4,41.25,3.49,71.54H344a6.3,6.3,0,0,0,5-2,3.19,3.19,0,0,0,.52-2.85Z"/><circle class="cls-20" cx="290.77" cy="424.66" r="29.24"/><path class="cls-16" d="M290.77,393.85a30.81,30.81,0,1,0,30.81,30.81A30.81,30.81,0,0,0,290.77,393.85Zm0,60A29.25,29.25,0,1,1,320,424.66,29.28,29.28,0,0,1,290.77,453.9Z"/><path class="cls-19" d="M249.91,388.63l-.66,0c-.93,0-1.56.09-.42-1.81,2.08-3.47,19.49,1.83,74.32.26,2.37-.07,2.45-2.43,2.42-3-.06-1.37,4.81,4.52,3.76,4.53H249.91Z"/><path id="cursor" class="cls-21" d="M699,342.2a472.67,472.67,0,0,1-72.72-52.77,473.83,473.83,0,0,1-24.54,86.44q13.5-3.06,26.77-6.92l10.39,49.32A241.08,241.08,0,0,0,696,398.51q-11.16-22.61-22.33-45.19Q686.49,348.13,699,342.2Z"/><path id="shade-4" data-name="shade" class="cls-22" d="M626.28,289.43a2,2,0,0,0,0,.24c5.69,17.62,26.23,90.85,44.77,119.48a240.91,240.91,0,0,0,25-10.64q-11.16-22.61-22.33-45.19,12.81-5.19,25.32-11.12A472.67,472.67,0,0,1,626.28,289.43Z"/><path id="eyes" class="cls-23" d="M662.7,367.29c-.51.17-1.2-.5-1.55-1.51s-.23-2,.28-2.15,1.2.5,1.55,1.51S663.2,367.11,662.7,367.29ZM646.07,371c-.35-1-1.05-1.69-1.55-1.52s-.63,1.14-.28,2.15,1,1.69,1.54,1.51S646.41,372,646.07,371Z"/><g id="mouth"><path id="mouth-2" data-name="mouth" d="M662.3,389.23l4.05-8.14a2,2,0,0,0-2.44-2.78l-12.26,4.25a2,2,0,0,0-.2,3.69l8.21,3.89A2,2,0,0,0,662.3,389.23Z"/><path id="tongue" class="cls-24" d="M660.37,390.48a1.19,1.19,0,0,0,1.58-.54l1.79-3.6a4.59,4.59,0,0,0-7,2.4Z"/><path class="cls-25" d="M663.74,386.34a4.31,4.31,0,0,0-4.16-.59,3.71,3.71,0,0,0-.46.19c.55,1.32,1.3,3.06,2,4.62a1.19,1.19,0,0,0,.82-.62Z"/></g><rect class="cls-6" x="212.9" y="198.44" width="136.71" height="160.43" transform="matrix(0.02, -1, 1, 0.02, -3.96, 553.27)"/><path class="cls-26" d="M371,279.72c-.27,1.3-.73,10.43-1,15.33a1,1,0,0,1-1.79.46h0a1,1,0,0,0-1.59-.07l-1.34,1.75a1,1,0,0,1-1.57,0l-.3-.43a1,1,0,0,0-1.31-.26l-2.05,1.29a1,1,0,0,1-1.41-.44l-.68-1.6a1,1,0,0,0-1.49-.39l-.34.27a1,1,0,0,1-1.57-.83l2-33.9a1,1,0,0,1,1.64-.64l.65.62a1,1,0,0,0,1.55-.28l.92-1.94a1,1,0,0,1,1.67-.14l.91,1.3a1,1,0,0,0,1.29.28l3.88-2.29a1,1,0,0,1,1.46.81l.46,20.94A1.11,1.11,0,0,1,371,279.72Z"/><path class="cls-26" d="M206.74,275.92c-.49,1.12-3.24,18.25-3.24,18.25l-1.94-4-3.42,3.55-1.32-2.45-4,1.95-1.17-4-3.28,2,6.58-37.65,2.78,3.35,2.73-4.38,2,3.66,6.45-2.88Z"/><path d="M241.88,274.52a8.05,8.05,0,0,1-.1,1.29q-1.29,7.63-7.23,7.63a9.86,9.86,0,0,1-5.45-1.55v.69a7.1,7.1,0,0,0,.39,3,6.36,6.36,0,0,1,.63,1.32,1.57,1.57,0,0,1-.51,1.16,1.63,1.63,0,0,1-1.17.49,2,2,0,0,1-2-1.06,7,7,0,0,1-.39-2.34c-.05-.75-.07-1.61-.07-2.58a14,14,0,0,1,.15-1.68,14,14,0,0,0,.15-1.72V277a25,25,0,0,1,.13-2.93c.11-1.28.16-2.24.16-2.85v-3c0-.05-.09-.64-.29-1.79a2.42,2.42,0,0,1,1.6-.79,1.72,1.72,0,0,1,1.41.64,2.42,2.42,0,0,1,.52,1.57v.46a6.66,6.66,0,0,1,5.52-2.87,5.91,5.91,0,0,1,4.95,2.35,8.54,8.54,0,0,1,1.62,5.35v1.38Zm-3-.53a9.91,9.91,0,0,0-.69-3.89,3.12,3.12,0,0,0-2.94-2.18q-2.55,0-4.36,3.1a10.53,10.53,0,0,0-1.62,5.45q0,4.59,4.62,4.59a3.85,3.85,0,0,0,3.64-2.14,16.07,16.07,0,0,0,1.25-4.33C238.84,274.17,238.87,274,238.87,274Z"/><path d="M258,287.34a22,22,0,0,1-7.53,1.28,4.6,4.6,0,0,1-4.36-2.18,10.34,10.34,0,0,1-1-5q0-1.95.3-5.78c.2-2.56.3-4.48.3-5.78,0-.25,0-.63-.05-1.16s0-.92,0-1.19a7.51,7.51,0,0,1,.06-.89,2,2,0,0,1,1.62-.79c.62,0,1.09.39,1.42,1.19a4.83,4.83,0,0,1,.4,2q0,2.25-.43,6.67t-.43,6.64c0,2.6.74,3.89,2.21,3.89a9,9,0,0,0,2.84-.67,9.18,9.18,0,0,1,2.84-.68,1.57,1.57,0,0,1,1.42.83A3.1,3.1,0,0,1,258,287.34Z"/><path d="M277.71,282.35c0,1.06-.47,1.6-1.42,1.62a11.31,11.31,0,0,0,.73,2,1.59,1.59,0,0,1-.6,1.18,2,2,0,0,1-1.32.47,3.32,3.32,0,0,1-1.39-.37,4.58,4.58,0,0,1-.43-2c0-.2,0-.49,0-.86s0-.65,0-.83c0,.16-.36.23-1.09.23-1.23,0-2.7.06-4.39.17-2.42.13-3.74.32-3.95.56s-.35,1.42-.41,3.53a1.28,1.28,0,0,1-1.09.63,2.27,2.27,0,0,1-1.42-.58,1.6,1.6,0,0,1-.73-1.24,11.46,11.46,0,0,1,.6-1.85q.66-2.34,2.14-7,4.42-12.12,7.37-12.12c1.91,0,3.39,2.14,4.42,6.41a72,72,0,0,1,1.29,8.82,4.82,4.82,0,0,1,1.09.33A1,1,0,0,1,277.71,282.35Zm-4.63-1.25q-1.44-11.53-2.6-11.53-.93,0-3.24,5.42-1.65,3.88-2.61,6.77c.7-.16,1.75-.35,3.14-.57A35.77,35.77,0,0,1,273.08,281.1Z"/><path d="M295.05,285c0,1.35-.79,2.38-2.35,3.11a9.31,9.31,0,0,1-4.13.9,15.87,15.87,0,0,1-4.88-.93c-2.32-.79-3.47-1.72-3.47-2.77a1.47,1.47,0,0,1,1.45-1.46,2.35,2.35,0,0,1,1.65.73c.86.73,1.32,1.12,1.39,1.19a9.16,9.16,0,0,0,4.16.66c1.78,0,2.68-.41,2.68-1.22s-.84-1.63-2.51-2.84l-3.5-2.25a13.66,13.66,0,0,1-3.27-2.87,6.57,6.57,0,0,1-1.36-4.1,8.19,8.19,0,0,1,1.79-5.18,5.77,5.77,0,0,1,4.75-2.51,6.38,6.38,0,0,1,4.13,1.34,6.06,6.06,0,0,1,2.15,3.74c.06.62.19,1.53.39,2.74a3.55,3.55,0,0,1,.13.8,4.68,4.68,0,0,1-.39,2,1.64,1.64,0,0,1-1.56,1.13,1.92,1.92,0,0,1-1.68-1.7,6.31,6.31,0,0,1,.2-1.27,6.39,6.39,0,0,0,.2-1.28q0-4.47-3-4.47a3.43,3.43,0,0,0-2.77,1.4,4.84,4.84,0,0,0-1.12,3.09c0,1.59.94,3.14,2.84,4.64l5.25,3.5Q295,283.11,295.05,285Z"/><path d="M312.32,268.12a1.46,1.46,0,0,1-.35,1,1.07,1.07,0,0,1-.87.41,4.08,4.08,0,0,1-1.11-.28,4.51,4.51,0,0,0-1.34-.28h-2.28c-.33,0-.51,0-.54.08a2.64,2.64,0,0,0-.12.65c-.09.55-.22,1.37-.39,2.48a73.4,73.4,0,0,0-.63,10.13q0,3.84.89,5.25v.9a2.35,2.35,0,0,1-1,.33,2.64,2.64,0,0,1-2.74-2.05,15.6,15.6,0,0,1-.3-3.8c0-2.18.05-3.87.13-5.08,0-.53.15-1.8.37-3.8a37.07,37.07,0,0,0,.26-3.8v-1c-.31,0-.91.1-1.79.23a12.67,12.67,0,0,1-1.8.17c-1.52,0-2.29-.45-2.29-1.36q0-.56.33-.66.5-.72,5.19-1.25a55.2,55.2,0,0,1,5.88-.4,8.61,8.61,0,0,1,2.77.4C311.75,266.77,312.32,267.35,312.32,268.12Z"/><path d="M318.92,267.62a2.3,2.3,0,0,1-.3.73,6.74,6.74,0,0,0-.26,1.48q-.69,7.41-.69,13a8.42,8.42,0,0,0,.26,2.35,11.44,11.44,0,0,0,1,2.08.49.49,0,0,1,0,.2q0,.69-1.62.69H317c-1.13,0-1.81-.93-2.05-2.71a67.72,67.72,0,0,1-.46-9c0-.91,0-2.27.05-4.08s.05-3.19.05-4.11a2,2,0,0,1,.79-1.46,2.39,2.39,0,0,1,1.55-.69,2.25,2.25,0,0,1,1.29.49A1.37,1.37,0,0,1,318.92,267.62Z"/><path d="M337,282.77a4.54,4.54,0,0,1-.33,1.52,6.56,6.56,0,0,1-3.11,3.42,9.48,9.48,0,0,1-4.55,1.11,7.19,7.19,0,0,1-6.24-3.06,11.68,11.68,0,0,1-1.89-6.9A19.63,19.63,0,0,1,322,272.3a12.21,12.21,0,0,1,3.6-5.47,6,6,0,0,1,3.83-1.55,4.66,4.66,0,0,1,4.26,2.44,9.48,9.48,0,0,1,1.19,5,11.14,11.14,0,0,1-.69,3.4c-.55,1.67-1.17,2.51-1.85,2.51s-1.35-.49-1.75-1.45c.22-.16.53-.41.92-.76a4.4,4.4,0,0,0,.67-2.84,12.3,12.3,0,0,0-.43-3.47c-.45-1.43-1.17-2.15-2.18-2.15a3.43,3.43,0,0,0-2.32,1.35,10.54,10.54,0,0,0-1.61,2.28,17.17,17.17,0,0,0-1.62,7.88q0,6.85,5.15,6.85a4.83,4.83,0,0,0,3.5-1.24,14.74,14.74,0,0,0,1.55-2.33c.46-.86,1-1.28,1.49-1.28a1.39,1.39,0,0,1,1.32,1.31Z"/><g id="container-2" data-name="container"><g id="plastic_container_with_symbol-2" data-name="plastic container with symbol"><path class="cls-8" d="M433.06,404l-43.27-20.49a16.55,16.55,0,0,0-12-.48l-75.07,23.72a7.05,7.05,0,0,0-3.86,3.3c-.46,1.08-.75,3.21.83,4.29,0,0,41.83,31.31,47.49,31,3.3-.17,2-.51,6.19-1.87l77-31.32C433.91,410.31,437.16,407.85,433.06,404Z"/><path class="cls-8" d="M362.9,485.84a15.1,15.1,0,0,1-8.33-2.14l-41.65-28.5c-2.59-1.77-3.28-5.23-1.75-8.81a10.59,10.59,0,0,1,5.95-5.27l.09,0L389.63,413a20.54,20.54,0,0,1,7.09-1.21,15.38,15.38,0,0,1,8,1.94L445,435.22l.45.42c3,2.78,3.13,5.45,2.76,7.2-.63,2.94-3.27,5.44-7.44,7.05l-70.47,34.64-.18.06a20.57,20.57,0,0,1-7.19,1.25Z"/><path class="cls-9" d="M441,438.46l-38.83-20.84c-2.53-1.72-7.75-1.93-11.64-.47l-70.2,27.38a6.76,6.76,0,0,0-3.75,3.2c-.45,1-1.08,3.41.46,4.46l40.41,27.65c2.54,1.72,7.76,1.93,11.65.47l69.7-34.18C442.55,443.63,445,442.2,441,438.46Z"/><path class="cls-10" d="M432,403.53l-41.92-20c-2.61-1.77-8-2-12-.48l-74.88,23.57c-2,.76-3.29,1.8-3.75,2.87s-.09,2.18,1.22,3.07L341,440.11c2.62,1.77,8,2,12,.48l76.47-31.13C433.46,408,434.59,405.3,432,403.53Z"/><path class="cls-11" d="M301.91,416.4s7.6,18.86,7.6,18.91,27.41,24.74,37.88,25.33S419,430.35,421,429c1.84-1.22,7-13.42,8.18-16a.21.21,0,0,0-.28-.27c-6.73,2.84-76.33,32.15-81.48,32.67C341.09,446,301.91,416.4,301.91,416.4Z"/><path class="cls-10" d="M326.48,430.19S379.59,409.8,382,409.63s20.23,10.92,20.23,10.92"/><path class="cls-10" d="M381.37,409.63s1.82-12.52,1.38-15,2,12.1.66,15Z"/><path class="cls-10" d="M308,417.57s69.63-23.44,74.81-23.56,41.58,17.49,41.58,17.49"/><path class="cls-10" d="M302.42,411c.62-2.54,73.84-27.41,81.39-26.84s44,19.82,44,22-10.39,8.18-10.39,8.18"/><line class="cls-10" x1="365.68" y1="386.9" x2="365.68" y2="388.8"/><line class="cls-10" x1="309.61" y1="404.58" x2="309.61" y2="406.5"/></g><g id="symbol-2" data-name="symbol" class="cls-12"><path class="cls-13" d="M384.94,432.88l-5.64-1.24-.05,1.65c-13.56,1.28-24.36,7.22-24.54,13.74l6.09-.34c.14-4.92,8.19-9.43,18.36-10.52l0,1.67,5.73-1.87,5.74-1.86Z"/><path class="cls-13" d="M355.49,452.46l-.09,3.1,3-1c7.6,4.83,22.7,5.65,34.78,1.73l-3-2.32c-9.12,3-20.53,2.4-26.46-1.15l3.08-1-5.65-1.23-5.64-1.23Z"/><path class="cls-13" d="M404.42,452l5.74-1.87-3-.65c6-6.12,1.65-12.88-10.23-15.47l-3.12,2.65c9,2,12.33,7,8.09,11.67l-3-.66-.09,3.09-.09,3.1Z"/></g></g><path id="cursor-2" data-name="cursor" class="cls-21" d="M473.76,508.59a461,461,0,0,1-74.39-46.18,461.33,461.33,0,0,1-17.78,85.74q12.9-3.93,25.54-8.6l13.56,47.21a235.55,235.55,0,0,0,54.12-23.23q-12.44-21.18-24.88-42.36Q462,515.25,473.76,508.59Z"/><path id="shade-5" data-name="shade" class="cls-22" d="M399.56,462.11l0,.24c6.77,16.73,31.87,86.47,51.91,113A235.73,235.73,0,0,0,475,563.24q-12.44-21.18-24.88-42.36Q462.21,515,474,508.3A460.76,460.76,0,0,1,399.56,462.11Z"/><g id="mouth-3" data-name="mouth"><path id="mouth-4" data-name="mouth" d="M441.6,556.54l3.3-8a2,2,0,0,0-2.64-2.6l-11.39,4.89a2,2,0,0,0,.07,3.7l8.09,3.14A2,2,0,0,0,441.6,556.54Z"/><path id="tongue-2" data-name="tongue" class="cls-24" d="M439.8,557.94a1.16,1.16,0,0,0,1.49-.64l1.49-3.62a4.47,4.47,0,0,0-6.68,2.83Z"/><path class="cls-25" d="M442.78,553.68a4.19,4.19,0,0,0-4.08-.29l-.44.22c.63,1.25,1.48,2.89,2.28,4.36a1.16,1.16,0,0,0,.75-.67Z"/></g><path d="M420,542.07l-.59.25,1.68-4.73,4.58,2-.59.25-3.72-1.65Zm19.12-11.47,3.72,1.66.59-.25-4.58-2-1.68,4.73.59-.25Z"/></g></g></svg>