<svg xmlns="http://www.w3.org/2000/svg" viewBox="0 0 105.24 141.15"><defs><style>.cls-1{fill:#8cc63f;}.cls-2{fill:#75a929;}.cls-3{stroke:#000;stroke-miterlimit:10;stroke-width:0.54px;}</style></defs><title>unhappy</title><g id="Layer_2" data-name="Layer 2"><g id="instruct3"><path id="cursor" class="cls-1" d="M105.05,53.63A522,522,0,0,1,21.67,0,521.73,521.73,0,0,1,0,96.74q14.67-4.21,29.06-9.28l14.5,53.69a266.21,266.21,0,0,0,61.68-25.31L77.85,67.44Q91.65,60.95,105.05,53.63Z"/><path id="shade" class="cls-2" d="M21.67,0l0,.27C29,19.33,56.15,98.73,78.35,129.11a265.09,265.09,0,0,0,26.89-13.27L77.85,67.44q13.8-6.49,27.2-13.81A522,522,0,0,1,21.67,0Z"/><path id="eyes" class="cls-3" d="M66.61,83.51c-.54.23-1.35-.48-1.79-1.57s-.37-2.15.17-2.38,1.35.48,1.8,1.57S67.16,83.29,66.61,83.51ZM48.52,88.63c-.44-1.09-1.25-1.8-1.79-1.57s-.63,1.29-.18,2.38,1.25,1.79,1.8,1.57S49,89.72,48.52,88.63Z"/><path d="M73.91,101.34a17.45,17.45,0,0,0-18.24,7.48l-.75-.5a18.34,18.34,0,0,1,19.18-7.87Z"/><path d="M36.7,88.77a31.2,31.2,0,0,0,9.4-11.46l.79.14a34.23,34.23,0,0,1-9.83,11.79Z"/><path d="M71.77,74.38A31.29,31.29,0,0,1,57,72.83c-.16.21-.32.43-.47.65A34.06,34.06,0,0,0,71.84,75C71.82,74.77,71.79,74.58,71.77,74.38Z"/></g></g></svg>