<svg xmlns="http://www.w3.org/2000/svg" viewBox="0 0 97.26 128"><defs><style>.cls-1{fill:#8cc63f;}.cls-2{fill:#75a929;}.cls-3{stroke:#000;stroke-miterlimit:10;stroke-width:0.54px;}.cls-4{fill:#ff6022;}.cls-5{fill:#ce471d;}</style></defs><title>url</title><g id="Layer_2" data-name="Layer 2"><g id="result"><path id="cursor" class="cls-1" d="M97.26,52.43A472.87,472.87,0,0,1,24.53,0,467.46,467.46,0,0,1,0,85.87q13.49-3,26.77-6.87l10.39,49a242.11,242.11,0,0,0,57.11-19.64L71.94,63.47Q84.75,58.33,97.26,52.43Z"/><path id="shade" class="cls-2" d="M24.53,0c0,.08,0,.16,0,.24C30.18,17.75,50.72,90.5,69.26,118.93a242.59,242.59,0,0,0,25-10.57L71.94,63.47q12.81-5.14,25.32-11A472.87,472.87,0,0,1,24.53,0Z"/><path id="eyes" class="cls-3" d="M61,77.35c-.5.17-1.19-.5-1.54-1.5s-.23-2,.28-2.13,1.2.49,1.55,1.5S61.46,77.17,61,77.35ZM44.32,81c-.35-1-1-1.67-1.54-1.5s-.63,1.13-.28,2.13,1,1.68,1.54,1.5S44.67,82,44.32,81Z"/><g id="mouth"><path id="mouth-2" data-name="mouth" d="M60.56,99.14l4-8a2,2,0,0,0-2.44-2.79L49.94,92.5a2,2,0,0,0-.2,3.71l8.18,3.85A2,2,0,0,0,60.56,99.14Z"/><path id="tongue" class="cls-4" d="M58.63,100.39a1.2,1.2,0,0,0,1.58-.54L62,96.28a4.31,4.31,0,0,0-4.16-.59,4.23,4.23,0,0,0-2.88,3Z"/><path class="cls-5" d="M62,96.28a4.31,4.31,0,0,0-4.16-.59,3.71,3.71,0,0,0-.46.19c.55,1.31,1.3,3,2,4.59a1.19,1.19,0,0,0,.82-.62Z"/></g></g></g></svg>