<svg xmlns="http://www.w3.org/2000/svg" viewBox="0 0 80.2 87.77"><defs><style>.cls-1{fill:#f7f7f9;}.cls-2{fill:#dedfe0;}.cls-3,.cls-6{fill:#c1c1c1;}.cls-4{fill:#eaeaea;}.cls-5{fill:#ddd;}.cls-6{fill-opacity:0.67;}.cls-7{fill:#d1d1d1;fill-opacity:0.4;}.cls-8{fill:#e8edf1;}.cls-9{fill:#bcbcbc;fill-opacity:0.46;}.cls-10{fill:#e4e5e3;}.cls-11{fill:#f8fcff;}</style></defs><title>utensil</title><g id="Layer_2" data-name="Layer 2"><g id="Layer_2-2" data-name="Layer 2"><g id="Layer_2-3" data-name="Layer 2"><g id="Utensil"><g id="knife"><path class="cls-1" d="M4.64.22c.4-.33,1.52-.64,2,1.88C7.86,8.66,8.43,23.24,8.43,23.24s.21,7.46.27,9.4S15.87,64.93,16,67.74,16.58,80.68,14.19,81,8.37,66.21,7.75,61.52,5.83,38.84,4.39,37.47l.53-1.14-.29-1.51S-5.79,8.89,4.64.22Z"/><path class="cls-2" d="M14.14,80.42s-1.19-.16-3.3-7.59a96.5,96.5,0,0,1-2.5-11.38c-.15-1.14-.4-3.37-.65-6C6.41,42.92,6,39.29,5.05,37.44l.47-1-.34-1.76,0-.06C5.06,34.37-5,9,5,.67a.34.34,0,0,1,.2-.09c.27,0,.64.45.86,1.63,1.18,6.31,1.77,20.29,1.8,21,0,.4.21,7.54.27,9.42,0,.92.84,3.51,2.92,13.34,2,9.51,4.29,20.29,4.33,21.77,0,.22,0,.49,0,.8.05,1.79.16,4.79,0,7.39C15.09,80.16,14.23,80.4,14.14,80.42Z"/><path class="cls-3" d="M14.3,80.33c.3-.25.86-1.14,1.09-4.38.18-2.6.08-5.6,0-7.39,0-.31,0-.58,0-.8,0-1.48-2.32-12.26-4.33-21.77C9,36.16,8.16,33.57,8.13,32.65c-.06-1.87-.29-9-.26-9.42s-.13-3.06-.35-6.6c-.34,6.65.2,13.5-.19,18.41-.14,1.65,7.06,31.44,7.15,32.89C14.56,69.23,14.57,77.67,14.3,80.33Z"/></g><g id="fork"><path class="cls-4" d="M32.2.89c-.68-.11-3.18,14.74-3,17.82s.05,5.27,3,8.39,3.32,10.07,2.34,15.84-1.7,28-1.7,28,1.24,12.09,2.52,12,4.11-8.54,4.3-12.4-2.26-38.7.47-41.11,2.79-5.35,2.71-9.47S43.25.62,42.1.65c-.71,0-1.64,13.12-3.15,13.19-1,.05.43-13-.19-13.11-.9-.09-1,13.09-2.64,13.32-1.26.18.2-13.42-.58-13.3s-1,13.76-2.25,13.78C32.38,14.53,32.87,1,32.2.89Z"/><path class="cls-5" d="M32.15,1.76s.07,14,.91,13.69S35.48,1.56,35.48,1.56s-.87,13.34.62,13.5S38.27,1.75,38.56,1.67s-.91,13.09.11,12.62,2.94-3.76,3-9,.55-1.49.55-1.49.91,20.4,0,21.63-3,4.63-4.79,4.84-2.28,1.37-3.36-.77S31,26,30.39,23.32s-.34-9.21.09-12.58S32.15,1.76,32.15,1.76Z"/><path class="cls-6" d="M36.63,25.34c-.08-.88-.66,5.29-3.06,3.87,1.64,3.55,1.77,9,1,13.73-1,5.77-1.7,28-1.7,28s1.24,12.09,2.52,12a.33.33,0,0,0,.15,0C35.72,75.24,37,29,36.63,25.34Z"/><path class="cls-7" d="M40.14,29.31c2.73-2.4,2.78-5.36,2.7-9.46v-.21a3.06,3.06,0,0,0-.27,1.55c.12,4.82-2.7,6.32-4.06,7.65s-1.88-3.59-1.88-3.59-1,47.05-1.12,57.63c1.54-1.12,4-9,4.15-12.46C39.84,66.56,37.4,31.71,40.14,29.31Z"/></g><g id="spoon"><path class="cls-8" d="M73,7.9c5.2,1.44,9.13,7.69,6.16,17.52-1.29,4.81-3.84,6.52-5.31,7.27s-5.4,1.39-6.61,4.38-7.58,37.76-7.58,37.76L54.74,87.7l-1.64.07s-1.77-2.23.06-14.3S63.38,36,63.38,36a5,5,0,0,0-1.45-4.66c-1.89-2.13-3.76-7.88-3-11.5S65,5.66,73,7.9Z"/><path class="cls-9" d="M72.88,8.73l-.41-.1a7.94,7.94,0,0,0-7.06,2c6.85,3.88,7.24,19.09,8.93,21.25a10.45,10.45,0,0,0,4.25-6.45c1.87-6.2.78-10.21-.47-12.46A8.69,8.69,0,0,0,72.88,8.73Z"/><path class="cls-10" d="M66,33.39c-1.13-2.92-9.75,37.13-9.75,37.13-.87,5-3.17,17.25-3.17,17.25l1.64-.07,4.94-12.87s6.37-34.78,7.58-37.76A6.19,6.19,0,0,1,70.67,34C71,33.35,66.66,35.05,66,33.39Z"/><path class="cls-3" d="M64.47,37.09c.44-1.6,1.41-4,1.41-4a2.36,2.36,0,0,1-2.48,1,4.15,4.15,0,0,1,0,1.92S55,61.41,53.17,73.47s-.05,14.29-.05,14.29h.13C54.74,82.32,54.76,72.44,64.47,37.09Z"/><path class="cls-11" d="M76.85,30.28a13.17,13.17,0,0,0,2.33-4.86c3-9.85-1-16.08-6.16-17.52C65,5.66,59.78,16.21,59,19.82a8.6,8.6,0,0,0-.2,1.82C60.6,16.4,65.07,6.62,72.56,9,81.26,11.74,80.76,21,76.85,30.28Z"/></g></g></g></g></g></svg>