<svg xmlns="http://www.w3.org/2000/svg" viewBox="0 0 545.33 400.07"><defs><style>.cls-1{fill:#e9e3ec;}.cls-2{fill:#fff;}</style></defs><title>bubble</title><g id="Layer_2" data-name="Layer 2"><g id="Layer_1-2" data-name="Layer 1"><path class="cls-1" d="M322,303.67c-20.91,0-39-9-49.78-24.26-16.13,13.49-43.17,15.18-55.68,15.18A155.92,155.92,0,0,1,171,288c-10.88-3.41-25.35-9.78-32.51-20.66a29.08,29.08,0,0,1-2.13-3.83c-11.72,6.92-31.08,15.84-53,15.84a76.43,76.43,0,0,1-50-18.57C19.19,248.91,9,234.07,3.79,217.82c-4.68-14.7-5-30.14-1-43.48,4-13,11.66-22.8,21.45-27.86-8.36-10.43-12-24.34-9.78-39.53C18.62,79,43.15,50.74,82,50.74A87.61,87.61,0,0,1,99.38,52.6c-2-9.86-.94-18.57,3.12-26,5.31-9.79,18.35-21.46,50.27-21.46,21.27,0,46.89,5.62,60.73,15.16C227.3,5.49,253,0,274.82,0c14.77,0,28.62,2.45,39,6.9,4.9,2.1,11.86,5.94,16.46,12.19a49.14,49.14,0,0,1,27-8.12c20.29,0,38.26,11.7,47.72,30.11a43.62,43.62,0,0,1,23.13-6.4c10.57,0,21.88,3.41,33.74,10.15,23.92,13.61,30.7,32.87,32.18,46.64a65.58,65.58,0,0,1,.09,12.84h.13c26.35,0,50.17,20.43,51,43.64.34,9.46-3.09,28.94-33.89,39.93.38.33.75.67,1.1,1a41.31,41.31,0,0,1,12.77,29.76c0,20.89-16.5,43.38-52.71,43.38a103.43,103.43,0,0,1-16-1.34,28.13,28.13,0,0,1-2.08,9.75C449,284.51,433.38,294,415.73,294c-13.8,0-27.56-5.79-39.56-16.51C364.2,293.66,344,303.67,322,303.67Z"/><path id="bubble" class="cls-2" d="M214.63,33.62C231.38-.56,326.7,3,326.7,33.62c24.18-25.34,65.22-13,74.91,21.93,0,0,18-24.38,56.46-2.52C498,75.77,483.47,115,483.47,115c47.74-12.51,96.23,62.92-10.89,70.91,63.47-6.19,62.87,87.81-29,62.48,19.95,23.64-29.78,59.84-68.93,14.86-18.74,39.93-84.23,42.67-100.93.87-19.9,37.3-141.56,21.29-130.52-16,0,0-56.22,45.72-104.72,5.33C-14,209.69,9.59,137.53,53,154.29-8.68,138,28,34.08,113.09,66.13,77.79-6.7,203.15,12.22,214.63,33.62Z"/><path class="cls-1" d="M338.39,373.34c-12.16,0-30.82-11.7-34-24.11-1.59-6.26.75-12,6.44-16.14-.23-8,1.54-14.09,5.26-18.14,3.27-3.57,8-5.45,13.7-5.45,6.91,0,14.08,2.75,18,4.54a20.83,20.83,0,0,1,11.48-3.64,19.8,19.8,0,0,1,11.64,3.93c6.78,4.84,10,11.82,8.93,19.14A19.84,19.84,0,0,1,371,347a14.85,14.85,0,0,1,.23,10.91c-2.41,5.83-8.78,8.79-18.94,8.79-.74,0-1.51,0-2.3-.05C348.17,370.88,344,373.34,338.39,373.34Z"/><path id="Small_Bubble" data-name="Small Bubble" class="cls-2" d="M316,335.71c-3-35.45,32.43-15.84,32.43-15.84s9.05-9.05,19.61-1.51c11.79,8.42,7.54,22.63-3.77,26.4.75.75,12.82,19.61-18.1,16.59C345.43,382.51,289.62,350.08,316,335.71Z"/><path class="cls-1" d="M404.78,400.05c-7.77,0-12.21-3.84-13.63-8.07a6.9,6.9,0,0,1-5.51-7.18c.19-7.2,9-16.48,18.17-16.48a13.22,13.22,0,0,1,3,.35,7.39,7.39,0,0,1,2.25-.34c5.13,0,9,5,10,9.7.78,3.63,0,6.85-2.2,9a9,9,0,0,1-.59,7.7c-2,3.34-6.27,5.34-11.49,5.34Z"/><path id="small_bubble-2" data-name="small bubble-2" class="cls-2" d="M413.12,386c7.38-3.35.67-17.44-6.18-14.15-11.93-4-26,16.83-13.27,17.5C394.34,400.74,420.5,399.4,413.12,386Z"/></g></g></svg>